<?xml version="1.0" encoding="utf-8" ?>
<svg xmlns="http://www.w3.org/2000/svg" xmlns:xlink="http://www.w3.org/1999/xlink" width="1024" height="1024">
	<path fill="#FAF3DD" d="M0 0L1024 0L1024 31.5071C1012.45 27.5944 991.389 24.9106 978.731 23.7642C959.81 22.0506 940.593 20.8978 921.594 21.9973C881.168 24.3366 831.404 36.1274 795.023 54.0732C762.11 70.3091 726.903 93.2937 696.982 114.738C642.506 153.781 589.483 196.868 524.216 216.559C479.35 230.096 431.052 229.731 384.81 225.297C350.125 221.971 316.435 217.195 281.518 220.132C259.86 222.07 238.752 228.017 219.268 237.67C209.586 242.433 200.482 248.641 191.149 254.067C172.692 264.797 153.242 273.167 132.517 278.374C116.333 282.44 100.338 284.511 83.6865 285.295C59.406 286.438 21.8172 282.736 0 292.949L0 0Z"/>
	<path fill="#D4E09B" d="M0 292.949C21.8172 282.736 59.406 286.438 83.6865 285.295C100.338 284.511 116.333 282.44 132.517 278.374C153.242 273.167 172.692 264.797 191.149 254.067C200.482 248.641 209.586 242.433 219.268 237.67C238.752 228.017 259.86 222.07 281.518 220.132C316.435 217.195 350.125 221.971 384.81 225.297C431.052 229.731 479.35 230.096 524.216 216.559C589.483 196.868 642.506 153.781 696.982 114.738C726.903 93.2937 762.11 70.3091 795.023 54.0732C831.404 36.1274 881.168 24.3366 921.594 21.9973C940.593 20.8978 959.81 22.0506 978.731 23.7642C991.389 24.9106 1012.45 27.5944 1024 31.5071L1024 83.3187C980.341 108.735 928.585 122.971 879.353 133.113C857.804 137.553 836.083 141.176 814.542 145.616C771.424 154.503 728.341 164.941 686.712 179.381C635.02 197.31 585.417 221.017 536.76 245.899C507.171 261.029 478.163 277.468 448.857 293.145C438.066 298.917 427.03 304.17 416.171 309.8C408.716 313.666 401.408 317.863 393.874 321.57C304.644 365.489 157.037 422.003 57.5142 395.364C35.6733 389.517 16.0508 379.932 0 363.762L0 292.949Z"/>
	<path fill="#FAF3DD" d="M0 363.762C16.0508 379.932 35.6733 389.517 57.5142 395.364C157.037 422.003 304.644 365.489 393.874 321.57C401.408 317.863 408.716 313.666 416.171 309.8C427.03 304.17 438.066 298.917 448.857 293.145C478.163 277.468 507.171 261.029 536.76 245.899C585.417 221.017 635.02 197.31 686.712 179.381C728.341 164.941 771.424 154.503 814.542 145.616C836.083 141.176 857.804 137.553 879.353 133.113C928.585 122.971 980.341 108.735 1024 83.3187L1024 126.493L1024 261.876L1024 354.132L1024 439.533C1013.81 446.32 1004.87 454.439 995.842 462.668C974.68 481.968 956.082 501.408 940.636 525.697C938.713 519.164 936.195 512.062 932.541 506.286C923.473 491.95 905.514 480.254 890.794 472.26C872.155 462.136 851.406 455.917 830.955 450.654C791.539 441.415 750.846 441.804 710.692 443.609C670.955 445.396 632.358 449.053 593.391 457.269C552.699 465.851 506.782 481.007 472.349 504.748C464.117 510.424 456.431 517.265 449.009 523.944C441.191 530.981 433.67 538.795 426.481 546.475C424.011 549.113 421.805 552.102 419.243 554.623C418.153 547.77 416.421 542.237 413.624 535.868C410.443 528.026 405.458 521.563 399.302 515.792C363.191 481.943 252.989 466.78 203.817 468.504L114.163 474.605L113.378 474.606C107.452 474.585 101.587 472.985 95.7039 473.127C84.4497 473.399 56.3819 481.595 45.2821 485.986C30.1013 490.381 14.9419 494.773 0 499.936L0 363.762Z"/>
	<path fill="#B8F2E6" d="M940.636 525.697C956.082 501.408 974.68 481.968 995.842 462.668C1004.87 454.439 1013.81 446.32 1024 439.533L1024 471.395C978.209 502.119 966.74 539.104 935.273 580.557C919.747 601.01 902.285 619.5 884.225 637.692C855.497 666.63 824.754 694.617 791.071 717.76C780.02 725.353 768.384 731.991 756.739 738.614C746.061 744.686 735.557 750.704 724.552 756.171C715.028 760.901 706.047 765.905 696.099 769.783C680.703 775.785 663.796 779.594 647.7 783.289C635.568 786.075 623.4 788.4 612.049 793.691C621.591 794.092 631.004 792.602 640.481 791.757C647.719 791.111 655.017 790.926 662.278 790.69C676.182 790.238 690.442 791.359 704.24 789.993C727.264 787.713 767.675 772.299 786.505 759.535C799.961 750.414 811.85 739.332 824.832 729.588C840.641 717.724 858.175 707.902 872.793 694.455C882.59 685.443 891.93 675.823 901.925 667.048C914.703 655.83 928.088 645.579 939.862 633.229C934.01 646.858 927.159 660.985 918.769 673.217C934.701 662.534 948.9 649.372 963.426 636.914C974.593 627.336 986.206 618.124 996.956 608.077C1001.24 604.069 1005.38 599.608 1009.25 595.192C1011.57 592.538 1013.84 589.142 1016.63 586.991C1007.7 601.849 995.853 615.451 984.647 628.637C970.42 645.376 955.943 661.944 938.75 675.758C929.811 682.94 919.689 688.789 909.968 694.844C881.64 712.489 851.97 727.876 823.59 745.434C816.014 750.121 808.357 755.055 801.291 760.474C789.831 769.263 779.78 778.088 767.282 785.648C764.831 787.131 759.745 789.596 759.666 792.744L761.532 793.239C732.069 796.875 702.762 801.523 673.254 804.827C643.685 807.988 614.029 810.275 584.325 811.683C585.143 807.952 588.611 804.133 590.866 801.068C594.712 796.589 598.738 792.63 603.442 789.05C607.606 786.729 611.709 784.669 616.114 782.825C623.663 780.893 631.558 779.759 639.224 778.304C658.526 774.641 677.877 771.025 696.524 764.68C704.872 762.133 713.35 758.77 721.013 754.569C728.852 750.514 736.539 746.17 744.057 741.546C746.9 739.614 750.306 738.08 753.336 736.422C759.001 735.221 772.623 724.225 777.578 720.412C821.41 686.693 858.065 642.754 890.571 598.295C900.752 584.371 909.483 569.48 920.083 555.823L925.061 548.275L926.492 546.38C930.007 542.537 933.042 537.172 935.819 532.731C935.014 529.685 934.324 526.611 933.749 523.514C932.611 518.323 930.937 513.825 928.011 509.359C928.477 512.452 929.663 517.255 927.839 520.072C927.304 520.9 926.451 521.246 925.481 521.155C915.098 520.176 906.946 494.772 889.324 491.88C887.063 491.509 884.493 490.976 882.357 492.017C881.611 495.539 889.992 502.333 883.855 506.407C881.283 508.115 876.009 508.449 873.115 507.711C866.23 505.957 860.799 500.421 855.211 496.304C848.951 491.691 841.896 487.822 834.331 485.884C802.671 477.77 728.503 493.352 697.235 504.273C681.416 509.798 667.005 516.743 652.31 524.745C640.712 531.061 629.481 537.54 618.495 544.891C610.487 550.249 597.849 560.445 589.321 563.913C587.056 564.834 584.568 565.025 582.23 564.268C578.746 563.139 576.443 560.395 574.922 557.206C574.55 556.434 574.196 555.653 573.859 554.865C560.805 567.997 550.725 582.311 541.07 598.06C538.179 602.776 535.098 610.482 531.785 614.488L530.668 614.277C522.14 623.792 513.926 633.686 505.101 642.92C489.146 659.613 472.16 675.106 455.063 690.592C440.159 704.091 426.262 717.982 407.939 726.863C412.097 716.048 417.639 703.593 425.238 694.733C434.183 684.303 451.241 672.765 461.95 662.455C475.386 649.52 490.762 631.526 501.937 616.498C512.459 602.346 521.23 586.721 529.53 571.19C535.183 560.612 540.114 548.949 547.817 539.683C557.042 528.582 568.267 518.38 581.592 512.516C586.931 510.167 592.858 507.968 598.758 507.949L599.231 508.293C587.833 517.861 574.902 534.683 573.58 550.042C573.432 551.769 573.484 553.524 573.522 555.255L574.045 554.744C583.257 545.676 590.517 533.43 601.211 526.015C622.405 511.32 648.132 508.393 672.446 501.827C691.647 496.641 710.471 489.905 729.624 484.565C750.62 478.711 777.3 473.112 797.008 464.863C785.057 453.113 758.615 452.354 742.629 452.49C699.625 452.858 656.582 460.396 614.72 469.715C587.298 475.82 559.966 482.6 533.95 493.435C510.404 503.241 482.647 518.918 464.713 537.239C456.978 545.141 450.462 554.316 443.921 563.2C435.113 575.164 426.35 587.278 416.813 598.677C398.739 620.28 379.174 639.763 358.623 658.994C350.398 666.69 342.337 674.506 333.762 681.821C322.004 691.849 309.675 701.301 297.576 710.914C283.197 722.339 264.661 737.596 248.028 745.314C251.159 740.184 264.603 730.327 269.777 725.606C282.791 713.732 295.809 701.701 308.17 689.148C331.032 665.932 351.943 640.419 371.899 614.682C381.972 601.69 392.297 588.474 401.398 574.789C402.953 574.318 403.839 572.677 404.781 571.434L408.452 567.245C410.636 564.353 413.048 561.619 415.387 558.852C416.755 557.542 417.98 556.036 419.243 554.623C421.805 552.102 424.011 549.113 426.481 546.475C433.67 538.795 441.191 530.981 449.009 523.944C456.431 517.265 464.117 510.424 472.349 504.748C506.782 481.007 552.699 465.851 593.391 457.269C632.358 449.053 670.955 445.396 710.692 443.609C750.846 441.804 791.539 441.415 830.955 450.654C851.406 455.917 872.155 462.136 890.794 472.26C905.514 480.254 923.473 491.95 932.541 506.286C936.195 512.062 938.713 519.164 940.636 525.697Z"/>
	<path fill="#FAF3DD" d="M505.587 659.433C531.232 634.486 552.26 612.094 587.494 600.833C595.255 598.352 603.572 596.124 611.762 595.931L617.057 596.315C612.69 596.719 608.39 596.715 604.045 597.466C580.187 601.593 555.745 613.786 537.905 630.084C534.579 633.122 506.229 660.678 504.916 660.703C504.72 657.59 529.251 621.474 528.73 617.77C520.608 625.3 513.994 634.818 506.378 642.911C490.264 660.034 472.726 675.564 455.395 691.397C444.653 701.209 429.348 716.613 416.844 723.153C414.359 724.453 411.793 726.247 409.031 726.826C408.203 726.088 408.278 726.452 408.217 725.528C407.889 720.593 418.728 702.004 422.179 697.557C422.67 696.925 422.484 697.192 422.819 696.279C421.546 696.098 420.422 696.823 419.32 697.45C406.927 704.504 395.875 713.502 383.175 720.2C363.068 730.804 343.104 740.913 323.819 753.055C315.318 758.407 307.333 764.526 299.058 770.2C290.028 776.393 280.4 782.337 270.896 787.779C258.377 794.948 245.45 801.99 232.481 808.307C225.263 811.823 216.347 814.783 209.816 819.37L209.476 820.163C211.919 821.854 215.626 822.39 218.506 823.18C236.749 828.181 254.636 828.904 273.271 825.501C304.524 819.794 333.99 804.593 359.646 786.143C369.481 779.071 378.773 771.279 388.249 763.742C410.563 745.743 432.331 727.078 453.525 707.772C461.971 700.129 470.077 692.141 478.779 684.781C485.122 679.417 491.503 673.696 498.248 668.858C508.582 661.445 519.677 655.073 530.127 647.797C542.246 639.358 553.516 629.746 565.765 621.505C579.118 612.52 594.151 605.039 609.269 599.536C612.066 598.518 615.001 598.051 617.769 597.049L617.746 597.421C595.886 603.956 575.297 615.208 556.936 628.613C548.015 635.126 539.534 642.219 530.431 648.49C517.159 657.632 503.074 665.538 490.596 675.789C474.194 689.266 458.916 703.839 443.134 718.013C424.37 734.841 405.132 751.135 385.445 766.874C376.617 773.869 367.936 781.098 358.731 787.602C325.973 810.744 288.579 828.189 247.854 828.003C236.85 827.953 227.172 826.276 216.595 823.299C214.4 822.681 211.576 822.141 209.625 820.994C208.908 820.572 208.886 820.505 208.372 820.011L208.496 819.387C216.602 814.758 225.31 811.024 233.693 806.912C246.529 800.616 259.505 793.778 271.827 786.521C294.896 772.935 316.043 756.604 339.096 743.008C355.509 733.329 372.981 725.591 389.378 715.978C397.037 711.488 404.388 706.475 411.799 701.59C415.606 699.08 419.698 696.798 423.25 693.939C431.788 687.068 439.587 678.619 447.021 670.579C468.542 647.304 481.35 630.528 496.064 602.339C473.401 630.218 451.96 653.088 424.278 676.119C415.632 683.312 406.829 690.54 397.494 696.829L396.984 696.695C399.602 692.955 409.261 686.272 413.251 682.938C417.331 679.529 438.295 659.337 439.456 655.974C432.156 660.255 424.649 667.062 417.838 672.255C410.197 678.081 402.302 683.245 394.378 688.654C390.561 691.26 386.713 694.625 382.429 696.39C388.339 690.804 395.333 686.44 401.064 680.741C409.754 672.099 416.764 661.891 424.846 652.697C410.27 660.184 396.5 674.047 383.46 684.275C366.948 697.226 349.78 709.387 332.737 721.627C322.517 728.967 312.118 736.243 301.547 743.067C293.52 748.249 285.225 753.055 277.317 758.415C266.601 765.678 256.631 774.049 245.978 781.4C238.712 786.415 230.565 790.199 223.545 795.509C223.122 795.828 222.691 796.137 222.266 796.452C222.416 796.412 222.567 796.374 222.716 796.33C229.782 794.273 237.149 789.49 243.725 786.033C270.748 771.83 301.746 755.426 325.462 736.126L325.837 736.481C321.874 740.826 316.654 744.073 312.214 747.956C288.479 768.653 262.134 786.149 233.851 799.999C224.509 804.68 214.892 808.724 205.487 813.264C184.149 823.562 174.007 832.799 148.43 834.06C137.494 834.599 130.95 830.967 121.388 826.396C110.564 827.619 99.58 828.735 89.0317 831.543C83.6124 832.985 78.3492 835.164 73.0967 837.12C56.6719 843.236 41.6346 847.701 23.834 846.32C20.9133 846.094 16.7535 846.42 14.1689 845.277L12.7847 843.644C31.5381 835.003 47.4201 820.992 67.4808 814.811C76.1167 812.151 85.2497 811.067 94.1499 809.613C102.683 808.229 111.174 806.6 119.613 804.729C124.956 803.564 130.599 802.486 135.673 800.423C138.441 799.886 141.531 798.508 144.259 797.66C156.043 794 167.383 789.835 178.627 784.743C186.661 780.666 194.898 776.992 202.944 772.93C209.485 769.682 215.942 765.658 222.025 761.611L231.714 755.616C237.202 753.412 243.436 749.032 248.028 745.314C264.661 737.596 283.197 722.339 297.576 710.914C309.675 701.301 322.004 691.849 333.762 681.821C342.337 674.506 350.398 666.69 358.623 658.994C379.174 639.763 398.739 620.28 416.813 598.677C426.35 587.278 435.113 575.164 443.921 563.2C450.462 554.316 456.978 545.141 464.713 537.239C482.647 518.918 510.404 503.241 533.95 493.435C559.966 482.6 587.298 475.82 614.72 469.715C656.582 460.396 699.625 452.858 742.629 452.49C758.615 452.354 785.057 453.113 797.008 464.863C777.3 473.112 750.62 478.711 729.624 484.565C710.471 489.905 691.647 496.641 672.446 501.827C648.132 508.393 622.405 511.32 601.211 526.015C590.517 533.43 583.257 545.676 574.045 554.744L573.522 555.255C573.484 553.524 573.432 551.769 573.58 550.042C574.902 534.683 587.833 517.861 599.231 508.293L598.758 507.949C592.858 507.968 586.931 510.167 581.592 512.516C568.267 518.38 557.042 528.582 547.817 539.683C540.114 548.949 535.183 560.612 529.53 571.19C521.23 586.721 512.459 602.346 501.937 616.498C490.762 631.526 475.386 649.52 461.95 662.455C451.241 672.765 434.183 684.303 425.238 694.733C417.639 703.593 412.097 716.048 407.939 726.863C426.262 717.982 440.159 704.091 455.063 690.592C472.16 675.106 489.146 659.613 505.101 642.92C513.926 633.686 522.14 623.792 530.668 614.277L531.785 614.488C529.519 619.433 526.582 624.224 523.945 628.991C518.17 639.432 512.361 649.602 505.587 659.433ZM396.408 640.482C387.246 650.422 376.813 659.442 366.927 668.668C350.823 683.696 334.785 698.74 317.997 713.017C308.414 721.168 298.778 729.36 288.967 737.232C284.148 741.099 266.883 752.845 264.441 756.598L264.518 757.02C280.884 745.507 296.69 733.398 312.701 721.417C340.98 700.258 368.761 680.252 389.786 651.386C392.101 648.208 395.645 644.44 396.408 640.482Z"/>
	<path fill="#B8F2E6" d="M114.163 474.605L203.817 468.504C252.989 466.78 363.191 481.943 399.302 515.792C405.458 521.563 410.443 528.026 413.624 535.868C413.67 539.637 415.683 553.421 414.775 555.477C414.522 556.051 413.768 556.882 413.341 557.377L412.911 556.746C409.104 549.032 403.647 541.214 398.507 534.332C398.35 537.542 398.775 540.953 396.254 543.315C395.093 543.552 394.827 543.493 393.76 542.79C388.261 539.173 387.007 528.078 381.42 523.614C375.714 519.055 367.243 516.68 360.438 514.328C362.27 517.695 364.545 522.05 363.42 525.978C362.79 528.177 360.795 530.083 358.755 531.02C356.606 532.006 354.396 531.76 352.244 530.916C348.838 529.581 346.012 526.916 342.629 525.659C339.064 524.334 335.214 524.996 331.865 522.846C325.055 518.472 326.543 512.7 316.497 509.982C289.33 502.63 208.894 518.226 178.974 525.873C166.838 528.975 154.61 532.684 142.993 537.391C129.73 542.765 112.534 551.459 100.873 559.577C91.4235 566.157 82.3557 575.852 71.7321 580.402C66.6922 582.56 61.5623 583.196 56.4692 580.9C53.9986 579.787 52.1049 577.505 50.2637 575.57C30.382 594.444 13.4114 618.261 0 642.094L0 592.718C5.39762 586.694 9.99026 579.731 14.9197 573.307C32.0881 550.934 46.8881 535.196 73.1087 523.588C62.5295 537.455 51.3545 551.405 47.9329 568.92C56.985 561.521 64.9692 553.652 75.26 547.847C102.512 532.474 134.975 526.571 164.995 518.982C185.545 513.673 206.028 508.114 226.442 502.306C232.501 500.609 268.082 490.751 270.218 486.95C269.506 485.713 268.957 485.297 267.64 484.713C260.376 481.494 250.805 480.517 242.95 479.583C235.43 478.688 228.001 477.741 220.419 477.545C197.079 476.942 173.95 479.326 150.833 482.173C114.672 486.626 78.2045 492.924 43.0629 502.693C28.3675 506.778 14.1121 512.326 0 518.063L0 499.936C14.9419 494.773 30.1013 490.381 45.2821 485.986C52.0498 486.709 64.5303 482.406 71.7275 480.878C85.799 477.889 100.098 477.18 114.163 474.605Z"/>
	<defs>
		<linearGradient id="gradient_0" gradientUnits="userSpaceOnUse" x1="958.82788" y1="774.91071" x2="799.71277" y2="612.27496">
			<stop offset="0" stop-color="#EAFFFB"/>
			<stop offset="1" stop-color="white"/>
		</linearGradient>
	</defs>
	<path fill="url(#gradient_0)" d="M612.049 793.691C623.4 788.4 635.568 786.075 647.7 783.289C663.796 779.594 680.703 775.785 696.099 769.783C706.047 765.905 715.028 760.901 724.552 756.171C735.557 750.704 746.061 744.686 756.739 738.614C768.384 731.991 780.02 725.353 791.071 717.76C824.754 694.617 855.497 666.63 884.225 637.692C902.285 619.5 919.747 601.01 935.273 580.557C966.74 539.104 978.209 502.119 1024 471.395L1024 591.54C1017.29 600.523 1010.75 609.761 1003.61 618.413C990.904 633.833 976.39 648.315 961.348 661.451C953.811 668.034 946.159 674.726 938.329 680.953C933.729 684.612 928.646 687.859 924.264 691.745L924.886 691.48C929.814 689.35 938.83 681.925 943.958 683.418C944.829 684.364 944.97 684.612 945.013 685.985C945.248 693.629 934.87 705.98 930.578 712.003C936.815 707.988 942.489 702.876 948.202 698.146C966.604 683.1 983.875 666.722 999.875 649.143C1008 640.275 1015.17 630.822 1024 622.594L1024 671.47C1018.18 679.854 1011.42 687.999 1004.59 695.591C999.349 701.416 993.587 706.985 989.139 713.465L985.036 717.686C989.409 716.839 993.741 716.235 998.171 715.788C1000.97 716.683 1003.48 717.452 1004.9 720.248C1005.62 721.676 1005.93 723.278 1006.18 724.844C1006.09 725.022 1006 725.197 1005.92 725.377C1005.37 726.589 1005.12 727.883 1004.59 729.099C1001.7 735.681 995.759 742.02 989.113 744.711C987.591 745.328 986.06 745.88 984.452 746.223L984.544 742.82C986.412 740.684 989.863 738.495 990.475 735.664L988.918 734.448C988.196 734.6 987.512 734.72 986.774 734.785C986.558 734.804 986.342 734.817 986.126 734.833C979.882 734.985 974.091 736.587 968.154 738.437C945.814 745.4 939.488 752.858 920.936 765.285C915.595 768.863 909.143 771.389 904.075 775.189C887.826 778.967 870.781 780.311 854.229 782.254C823.342 785.879 792.32 788.859 761.532 793.239L759.666 792.744C759.745 789.596 764.831 787.131 767.282 785.648C779.78 778.088 789.831 769.263 801.291 760.474C808.357 755.055 816.014 750.121 823.59 745.434C851.97 727.876 881.64 712.489 909.968 694.844C919.689 688.789 929.811 682.94 938.75 675.758C955.943 661.944 970.42 645.376 984.647 628.637C995.853 615.451 1007.7 601.849 1016.63 586.991C1013.84 589.142 1011.57 592.538 1009.25 595.192C1005.38 599.608 1001.24 604.069 996.956 608.077C986.206 618.124 974.593 627.336 963.426 636.914C948.9 649.372 934.701 662.534 918.769 673.217C927.159 660.985 934.01 646.858 939.862 633.229C928.088 645.579 914.703 655.83 901.925 667.048C891.93 675.823 882.59 685.443 872.793 694.455C858.175 707.902 840.641 717.724 824.832 729.588C811.85 739.332 799.961 750.414 786.505 759.535C767.675 772.299 727.264 787.713 704.24 789.993C690.442 791.359 676.182 790.238 662.278 790.69C655.017 790.926 647.719 791.111 640.481 791.757C631.004 792.602 621.591 794.092 612.049 793.691ZM919.223 618.517C886.321 655.192 851.123 693.562 810.579 721.83C807.423 724.031 788.144 736.457 787.205 737.728C786.847 738.212 786.886 738.336 786.899 738.76C799.451 731.086 812.597 724.418 825.037 716.54C855.732 697.099 893.224 665.859 911.152 633.735C913.589 629.368 917.931 624.023 919.161 619.23C919.27 618.806 919.254 618.842 919.223 618.517Z"/>
	<path fill="#D4E09B" d="M45.2821 485.986C56.3819 481.595 84.4497 473.399 95.7039 473.127C101.587 472.985 107.452 474.585 113.378 474.606L114.163 474.605C100.098 477.18 85.799 477.889 71.7275 480.878C64.5303 482.406 52.0498 486.709 45.2821 485.986Z"/>
	<path fill="#FAF3DD" d="M0 518.063C14.1121 512.326 28.3675 506.778 43.0629 502.693C78.2045 492.924 114.672 486.626 150.833 482.173C173.95 479.326 197.079 476.942 220.419 477.545C228.001 477.741 235.43 478.688 242.95 479.583C250.805 480.517 260.376 481.494 267.64 484.713C268.957 485.297 269.506 485.713 270.218 486.95C268.082 490.751 232.501 500.609 226.442 502.306C206.028 508.114 185.545 513.673 164.995 518.982C134.975 526.571 102.512 532.474 75.26 547.847C64.9692 553.652 56.985 561.521 47.9329 568.92C51.3545 551.405 62.5295 537.455 73.1087 523.588C46.8881 535.196 32.0881 550.934 14.9197 573.307C9.99026 579.731 5.39762 586.694 0 592.718L0 518.063Z"/>
	<path fill="#AED9E0" d="M928.011 509.359C930.937 513.825 932.611 518.323 933.749 523.514C933.237 526.68 932.104 529.686 929.358 531.598C927.596 532.824 925.829 532.95 923.773 532.495C917.382 531.081 911.12 526.405 905.319 523.415C902.683 522.057 899.809 521.052 897.034 520.008C863.936 507.567 829.998 512.186 796.922 521.839C805.464 522.016 814.008 522.066 822.552 521.988C844.692 521.629 868.318 520.35 889.864 526.658C897.215 528.81 904.053 532.129 910.729 535.836C916.15 538.847 921.896 542.171 926.492 546.38L925.061 548.275C916.407 543.666 908.478 537.56 899.465 533.677C881.182 525.801 851.886 523.478 832.18 525.854C823.466 526.905 814.414 529.31 806.019 531.892C766.831 543.942 720.181 578.669 700.802 615.073C695.505 625.023 687.948 647.403 691.244 658.666C691.405 659.218 691.538 659.36 691.825 659.783C692.655 659.206 692.682 657.688 692.9 656.7C692.504 678.79 701.015 694.227 715.356 710.424C710.74 710.746 704.701 705.11 701.342 702.2C687.505 690.213 678.488 671.061 677.203 652.864C675.778 632.692 681.466 610.872 693.199 594.402C679.585 604.913 670.592 622.038 668.456 638.971C665.354 663.561 675.694 686.129 690.576 705.036C705.764 724.334 722.198 732.095 744.057 741.546C736.539 746.17 728.852 750.514 721.013 754.569C707.24 750.413 693.713 741.232 684.182 730.505C667.269 711.47 659.658 683.533 660.092 658.494C660.265 648.542 661.888 638.74 662.523 628.831C663.06 627.058 663.53 625.265 663.931 623.456C660.683 627.687 657.976 632.268 655.161 636.789C651.95 641.942 648.483 647.101 645.783 652.544C636.313 671.637 630.545 695.964 633.446 717.267C634.08 721.923 634.998 726.436 636.437 730.909C636.656 731.589 637.436 733.16 637.098 733.765C627.12 718.146 625.264 696.919 629.163 679.169C631.848 666.946 636.352 655.488 643.531 645.182C644.52 643.763 648.84 638.59 648.563 637.41C632.353 656.344 620.301 683.062 622.208 708.39C623.152 720.935 628.709 734.427 635.842 744.701C637.724 747.413 641.926 751.156 642.634 754.237C641.772 754.726 642.218 754.668 641.202 754.396C640.258 754.143 639.556 753.728 638.737 753.196C628.093 755.152 619.513 757.353 608.706 753.906C597.006 750.175 588.779 738.874 583.502 728.336C581.877 725.09 580.728 721.646 579.038 718.435L578.807 718.005C575.229 699.232 583.481 675.215 593.31 659.461C580.011 671.841 573.426 697.614 572.858 715.161C572.373 730.148 575.79 746.344 583.907 759.101C585.614 761.782 589.92 765.863 590.339 768.738L589.268 769.05C588.047 766.528 585.189 764.698 583.056 762.941C570.795 752.845 562.617 745.776 558.639 729.822C551.798 702.383 571.108 672.613 587.348 652.097C591.084 647.377 596.633 643.681 599.658 638.555L599.94 638.072C600.126 637.884 600.317 637.7 600.499 637.508C601.363 636.596 601.945 636.024 601.895 634.75C599.411 635.303 596.637 638.13 594.614 639.776C585.786 646.96 578.256 654.733 571.795 664.132C568.743 668.572 566.105 673.375 562.778 677.612C557.176 684.749 550.401 690.686 545.505 698.442C540.672 706.098 536.718 714.92 534.533 723.714C527.892 734.915 529.713 752.386 532.766 764.4C534.44 770.984 536.433 777.432 541.352 782.344C543.416 784.404 545.528 785.936 547.039 788.509C518.679 790.949 490.353 793.762 462.067 796.949C451.498 798.147 440.745 798.942 430.242 800.576C430.269 800.445 430.294 800.314 430.323 800.183C433.928 784.067 444.749 766.709 458.685 757.579C460.99 758.779 463.265 759.668 465.711 760.522L466.54 760.344C471.874 759.232 476.5 757.026 479.561 752.266C481.028 749.985 481.809 747.269 481.105 744.588C480.124 740.854 477.128 739.019 474.041 737.157C472.026 737.525 468.357 738.818 466.51 738.056C465.816 737.047 465.201 735.947 464.099 735.343C462.995 734.738 461.089 735.544 459.964 735.938L459.523 736.095L458.985 735.759C463.581 729.574 471.277 724.367 477.203 719.379C484.303 713.366 491.358 707.301 498.37 701.186C516.507 685.42 533.796 668.654 551.947 652.912C559.109 646.702 566.644 640.89 574.063 634.992C585.251 626.096 596.938 616.389 610.223 610.828C611.967 610.099 614.217 609.088 616.077 609.84C618.12 615.903 604.308 622.07 603.978 627.327C603.927 628.142 604.009 627.935 604.602 628.685C605.571 629.063 606.356 629.143 607.382 629.084C614.175 628.693 622.904 623.531 627.276 618.296C630.072 614.947 632.812 609.087 632.322 604.689C632.027 602.041 630.707 599.741 628.564 598.159C624.041 594.821 617.075 595.255 611.762 595.931C603.572 596.124 595.255 598.352 587.494 600.833C552.26 612.094 531.232 634.486 505.587 659.433C512.361 649.602 518.17 639.432 523.945 628.991C526.582 624.224 529.519 619.433 531.785 614.488C535.098 610.482 538.179 602.776 541.07 598.06C550.725 582.311 560.805 567.997 573.859 554.865C574.196 555.653 574.55 556.434 574.922 557.206C576.443 560.395 578.746 563.139 582.23 564.268C584.568 565.025 587.056 564.834 589.321 563.913C597.849 560.445 610.487 550.249 618.495 544.891C629.481 537.54 640.712 531.061 652.31 524.745C667.005 516.743 681.416 509.798 697.235 504.273C728.503 493.352 802.671 477.77 834.331 485.884C841.896 487.822 848.951 491.691 855.211 496.304C860.799 500.421 866.23 505.957 873.115 507.711C876.009 508.449 881.283 508.115 883.855 506.407C889.992 502.333 881.611 495.539 882.357 492.017C884.493 490.976 887.063 491.509 889.324 491.88C906.946 494.772 915.098 520.176 925.481 521.155C926.451 521.246 927.304 520.9 927.839 520.072C929.663 517.255 928.477 512.452 928.011 509.359ZM734.881 518.709C713.635 519.688 701.58 522.083 681.708 529.314C668.986 533.943 657.25 540.723 645.412 547.196C617.087 562.685 582.645 581.649 560.838 605.527C560.275 606.144 559.718 606.767 559.169 607.396C573.263 599.508 588.145 591.97 603.852 587.88C614.386 585.137 626.08 584.282 636.054 579.847C647.05 574.959 664.697 560.785 674.954 553.076C678.808 550.458 682.69 547.881 686.599 545.345C678.128 555.12 671.469 565.942 664.023 576.465C659.211 583.267 653.805 589.727 649.196 596.658C645.697 601.923 642.7 607.527 639.002 612.658C637.01 615.424 627.646 624.909 627.118 626.967C630.703 625.139 647.41 607.765 651.425 603.858C661.969 593.599 672.867 583.789 683.729 573.871C711.062 548.911 729.5 533.033 764.733 520.083C754.836 519.409 744.806 518.347 734.881 518.709ZM812.008 525.21C805.543 525.564 799.203 527.85 793.021 529.655C766.743 537.325 728.768 552.88 709.992 572.841C712.283 571.813 714.462 570.761 716.618 569.458C731.377 560.573 746.492 551.851 762.146 544.623C771.498 540.305 781.254 536.699 790.83 532.904C795.979 530.864 801.105 528.712 806.508 527.425C808.431 526.967 816.21 526.177 817.191 525.388C815.331 524.95 813.901 525.01 812.008 525.21Z"/>
	<path fill="#AED9E0" d="M394.469 550.846C391.732 546.1 375.496 541.382 370.029 539.922C342.759 532.643 291.877 534.642 265.757 546.343C286.578 542.947 307.72 540.859 328.815 542.677C339.695 543.614 351.272 545.123 361.889 547.619C366.094 548.608 379.039 553.018 382.45 552.353C392.155 555.485 400.611 560.767 408.452 567.245L404.781 571.434C404.621 571.318 404.464 571.196 404.299 571.086C398.723 567.388 391.696 565.425 385.499 562.982C350.085 549.025 322.395 549.157 285.926 556.628C283.429 555.54 279.952 555.821 277.26 555.839C260.498 555.95 243.851 559.858 228.303 565.949C202.578 576.027 185.632 592.576 167.173 612.191C167.317 612.115 167.461 612.042 167.603 611.965C175.403 607.73 182.29 601.096 189.756 596.183C211.31 582.002 235.587 568.528 260.828 562.321C264.3 561.467 268.186 560.356 271.779 560.435C265.602 563.558 259.115 565.956 253.049 569.315C219.522 587.881 184.307 617.055 172.168 654.607C167.885 667.858 167.116 683.979 171.551 697.3C173.122 702.018 175.41 706.288 177.321 710.835L176.78 710.807C157.506 683.015 159.737 661.652 163.791 630.265C159.196 635.256 155.307 640.921 151.511 646.529C149.085 650.113 146.697 654.305 143.582 657.322C142.26 658.601 141.098 659.54 139.205 659.64C141.181 655.758 143.351 652.013 145.552 648.258C125.034 669.932 107.068 693.127 108.082 724.69C108.686 743.531 114.793 761.02 126.219 775.998C119.733 775.007 113.29 774.156 106.746 773.65C93.4048 772.618 79.8805 773.231 71.023 761.259C61.6088 748.535 61.2346 730.288 63.6316 715.311C65.039 706.517 67.7184 698.069 70.4912 689.633C58.4444 709.787 52.1755 733.787 57.9318 756.992C61.4804 771.296 69.6725 786.921 82.6314 794.703C68.6497 789.618 41.8935 774.485 35.3088 761.146C29.6929 749.77 36.3278 723.341 40.5028 711.867C45.7073 697.562 53.5321 683.67 64.4281 672.928C69.699 667.732 75.5784 663.016 80.6053 657.598C54.4079 668.03 36.75 689.032 25.8204 714.659C16.3864 736.779 12.0906 766.078 21.4094 788.922C24.9181 797.524 30.9067 803.856 37.4489 810.26C25.1081 811.629 12.3974 813.711 0 814.117L0 701.231C5.39712 694.425 11.4331 687.951 17.4742 681.711C30.2348 668.532 70.2952 629.562 88.7054 629.953C90.5264 629.992 92.1441 630.715 93.3955 632.026C90.6309 637.934 81.9945 642.28 80.6854 649.1C80.4476 650.339 80.6809 650.915 81.3447 651.93C83.112 652.882 84.8533 653.104 86.8221 652.597C93.6685 650.834 103.557 641.145 107.171 635.185C109.029 632.119 109.967 628.579 108.998 625.045C108.169 622.024 106.035 619.821 103.329 618.35C92.0839 612.236 73.0864 615.811 61.5845 619.472C36.4802 627.462 12.2334 646.978 0 670.565L0 642.094C13.4114 618.261 30.382 594.444 50.2637 575.57C52.1049 577.505 53.9986 579.787 56.4692 580.9C61.5623 583.196 66.6922 582.56 71.7321 580.402C82.3557 575.852 91.4235 566.157 100.873 559.577C112.534 551.459 129.73 542.765 142.993 537.391C154.61 532.684 166.838 528.975 178.974 525.873C208.894 518.226 289.33 502.63 316.497 509.982C326.543 512.7 325.055 518.472 331.865 522.846C335.214 524.996 339.064 524.334 342.629 525.659C346.012 526.916 348.838 529.581 352.244 530.916C354.396 531.76 356.606 532.006 358.755 531.02C360.795 530.083 362.79 528.177 363.42 525.978C364.545 522.05 362.27 517.695 360.438 514.328C367.243 516.68 375.714 519.055 381.42 523.614C387.007 528.078 388.261 539.173 393.76 542.79C394.827 543.493 395.093 543.552 396.254 543.315C398.775 540.953 398.35 537.542 398.507 534.332C403.647 541.214 409.104 549.032 412.911 556.746C407.013 554.189 400.633 552.64 394.469 550.846ZM246.589 536.738C224.136 538.967 199.148 540.754 177.249 545.767C139.691 554.365 105.485 574.989 73.9906 596.466C65.4205 602.31 56.6966 608.151 48.4947 614.496C63.7686 609.955 83.1817 595.352 98.9745 603.609C101.3 604.825 103.139 606.332 105.019 608.134C116.61 592.023 135.661 581.684 153.75 574.34C161.016 570.984 168.341 567.757 175.721 564.659C151.236 583.179 136.981 596.792 118.147 621.446C112.985 628.203 109.915 636.535 104.178 642.736C105.524 642.607 137.095 615.409 141.789 611.558C150.509 604.404 159.528 597.599 168.299 590.502C178.457 582.283 188.455 573.744 198.999 566.021C215.327 554.062 230.598 547.053 247.85 537.135L248.155 536.593L246.589 536.738Z"/>
	<path fill="#B8F2E6" d="M933.749 523.514C934.324 526.611 935.014 529.685 935.819 532.731C933.042 537.172 930.007 542.537 926.492 546.38C921.896 542.171 916.15 538.847 910.729 535.836C904.053 532.129 897.215 528.81 889.864 526.658C868.318 520.35 844.692 521.629 822.552 521.988C814.008 522.066 805.464 522.016 796.922 521.839C829.998 512.186 863.936 507.567 897.034 520.008C899.809 521.052 902.683 522.057 905.319 523.415C911.12 526.405 917.382 531.081 923.773 532.495C925.829 532.95 927.596 532.824 929.358 531.598C932.104 529.686 933.237 526.68 933.749 523.514Z"/>
	<path fill="#B8F2E6" d="M559.169 607.396C559.718 606.767 560.275 606.144 560.838 605.527C582.645 581.649 617.087 562.685 645.412 547.196C657.25 540.723 668.986 533.943 681.708 529.314C701.58 522.083 713.635 519.688 734.881 518.709C744.806 518.347 754.836 519.409 764.733 520.083C729.5 533.033 711.062 548.911 683.729 573.871C672.867 583.789 661.969 593.599 651.425 603.858C647.41 607.765 630.703 625.139 627.118 626.967C627.646 624.909 637.01 615.424 639.002 612.658C642.7 607.527 645.697 601.923 649.196 596.658C653.805 589.727 659.211 583.267 664.023 576.465C671.469 565.942 678.128 555.12 686.599 545.345C682.69 547.881 678.808 550.458 674.954 553.076C664.697 560.785 647.05 574.959 636.054 579.847C626.08 584.282 614.386 585.137 603.852 587.88C588.145 591.97 573.263 599.508 559.169 607.396Z"/>
	<path fill="#B8F2E6" d="M709.992 572.841C728.768 552.88 766.743 537.325 793.021 529.655C799.203 527.85 805.543 525.564 812.008 525.21C813.901 525.01 815.331 524.95 817.191 525.388C816.21 526.177 808.431 526.967 806.508 527.425C801.105 528.712 795.979 530.864 790.83 532.904C781.254 536.699 771.498 540.305 762.146 544.623C746.492 551.851 731.377 560.573 716.618 569.458C714.462 570.761 712.283 571.813 709.992 572.841Z"/>
	<path fill="#AED9E0" d="M692.9 656.7C692.682 657.688 692.655 659.206 691.825 659.783C691.538 659.36 691.405 659.218 691.244 658.666C687.948 647.403 695.505 625.023 700.802 615.073C720.181 578.669 766.831 543.942 806.019 531.892C814.414 529.31 823.466 526.905 832.18 525.854C851.886 523.478 881.182 525.801 899.465 533.677C908.478 537.56 916.407 543.666 925.061 548.275L920.083 555.823C915.785 552.165 911.648 548.194 906.98 545.011C888.869 532.66 866.716 529.023 845.214 530.679C796.729 534.412 748.855 563.873 717.834 600.364C704.065 616.56 694.826 635.396 692.9 656.7Z"/>
	<path fill="#FAF3DD" d="M692.9 656.7C694.826 635.396 704.065 616.56 717.834 600.364C748.855 563.873 796.729 534.412 845.214 530.679C866.716 529.023 888.869 532.66 906.98 545.011C911.648 548.194 915.785 552.165 920.083 555.823C909.483 569.48 900.752 584.371 890.571 598.295C858.065 642.754 821.41 686.693 777.578 720.412C772.623 724.225 759.001 735.221 753.336 736.422C739.106 729.959 726.75 721.036 715.356 710.424C701.015 694.227 692.504 678.79 692.9 656.7Z"/>
	<path fill="#B8F2E6" d="M394.469 550.846C391.573 550.566 385.233 549.593 382.834 551.252C382.315 551.612 382.498 551.627 382.45 552.353C379.039 553.018 366.094 548.608 361.889 547.619C351.272 545.123 339.695 543.614 328.815 542.677C307.72 540.859 286.578 542.947 265.757 546.343C291.877 534.642 342.759 532.643 370.029 539.922C375.496 541.382 391.732 546.1 394.469 550.846Z"/>
	<path fill="#FAF3DD" d="M413.624 535.868C416.421 542.237 418.153 547.77 419.243 554.623C417.98 556.036 416.755 557.542 415.387 558.852L413.341 557.377C413.768 556.882 414.522 556.051 414.775 555.477C415.683 553.421 413.67 539.637 413.624 535.868Z"/>
	<path fill="#B8F2E6" d="M48.4947 614.496C56.6966 608.151 65.4205 602.31 73.9906 596.466C105.485 574.989 139.691 554.365 177.249 545.767C199.148 540.754 224.136 538.967 246.589 536.738L248.155 536.593L247.85 537.135C230.598 547.053 215.327 554.062 198.999 566.021C188.455 573.744 178.457 582.283 168.299 590.502C159.528 597.599 150.509 604.404 141.789 611.558C137.095 615.409 105.524 642.607 104.178 642.736C109.915 636.535 112.985 628.203 118.147 621.446C136.981 596.792 151.236 583.179 175.721 564.659C168.341 567.757 161.016 570.984 153.75 574.34C135.661 581.684 116.61 592.023 105.019 608.134C103.139 606.332 101.3 604.825 98.9745 603.609C83.1817 595.352 63.7686 609.955 48.4947 614.496Z"/>
	<defs>
		<linearGradient id="gradient_1" gradientUnits="userSpaceOnUse" x1="398.07175" y1="564.79449" x2="399.01407" y2="551.534">
			<stop offset="0" stop-color="#FFFFBF"/>
			<stop offset="1" stop-color="#FFE"/>
		</linearGradient>
	</defs>
	<path fill="url(#gradient_1)" d="M382.45 552.353C382.498 551.627 382.315 551.612 382.834 551.252C385.233 549.593 391.573 550.566 394.469 550.846C400.633 552.64 407.013 554.189 412.911 556.746L413.341 557.377L415.387 558.852C413.048 561.619 410.636 564.353 408.452 567.245C400.611 560.767 392.155 555.485 382.45 552.353Z"/>
	<path fill="#AED9E0" d="M271.779 560.435C276.355 558.933 281.264 557.879 285.926 556.628C322.395 549.157 350.085 549.025 385.499 562.982C391.696 565.425 398.723 567.388 404.299 571.086C404.464 571.196 404.621 571.318 404.781 571.434C403.839 572.677 402.953 574.318 401.398 574.789C366.499 553.798 330.7 551.799 291.971 561.446C252.362 571.312 208.069 601.147 186.94 636.548C176.114 654.679 172.935 676.369 178.105 696.844C183.621 718.442 211.591 744.293 230.672 755.082C231.012 755.274 231.362 755.449 231.714 755.616L222.025 761.611C215.291 758.343 208.281 755.921 201.62 752.429C178.299 740.203 161.077 721.899 152.43 696.892C148.988 686.936 147.952 677.332 147.803 666.879C141.567 687.461 142.145 711.203 152.32 730.419C159.696 744.349 172.965 757.297 186.985 764.585C191.926 767.154 198.656 769.415 202.944 772.93C194.898 776.992 186.661 780.666 178.627 784.743C176.336 782.485 170.744 780.735 167.766 779.119C163.96 777.078 160.302 774.771 156.82 772.215C140.26 759.9 130.427 741.272 127.569 720.988C125.189 704.1 127.862 687.784 133.54 671.816C134.961 667.819 136.628 663.033 139.205 659.64C141.098 659.54 142.26 658.601 143.582 657.322C146.697 654.305 149.085 650.113 151.511 646.529C155.307 640.921 159.196 635.256 163.791 630.265C159.737 661.652 157.506 683.015 176.78 710.807L177.321 710.835C175.41 706.288 173.122 702.018 171.551 697.3C167.116 683.979 167.885 667.858 172.168 654.607C184.307 617.055 219.522 587.881 253.049 569.315C259.115 565.956 265.602 563.558 271.779 560.435Z"/>
	<path fill="#FAF3DD" d="M231.714 755.616C231.362 755.449 231.012 755.274 230.672 755.082C211.591 744.293 183.621 718.442 178.105 696.844C172.935 676.369 176.114 654.679 186.94 636.548C208.069 601.147 252.362 571.312 291.971 561.446C330.7 551.799 366.499 553.798 401.398 574.789C392.297 588.474 381.972 601.69 371.899 614.682C351.943 640.419 331.032 665.932 308.17 689.148C295.809 701.701 282.791 713.732 269.777 725.606C264.603 730.327 251.159 740.184 248.028 745.314C243.436 749.032 237.202 753.412 231.714 755.616Z"/>
	<path fill="#B8F2E6" d="M285.926 556.628C281.264 557.879 276.355 558.933 271.779 560.435C268.186 560.356 264.3 561.467 260.828 562.321C235.587 568.528 211.31 582.002 189.756 596.183C182.29 601.096 175.403 607.73 167.603 611.965C167.461 612.042 167.317 612.115 167.173 612.191C185.632 592.576 202.578 576.027 228.303 565.949C243.851 559.858 260.498 555.95 277.26 555.839C279.952 555.821 283.429 555.54 285.926 556.628Z"/>
	<path fill="#B8F2E6" d="M924.264 691.745C928.646 687.859 933.729 684.612 938.329 680.953C946.159 674.726 953.811 668.034 961.348 661.451C976.39 648.315 990.904 633.833 1003.61 618.413C1010.75 609.761 1017.29 600.523 1024 591.54L1024 622.594C1015.17 630.822 1008 640.275 999.875 649.143C983.875 666.722 966.604 683.1 948.202 698.146C942.489 702.876 936.815 707.988 930.578 712.003C934.87 705.98 945.248 693.629 945.013 685.985C944.97 684.612 944.829 684.364 943.958 683.418C938.83 681.925 929.814 689.35 924.886 691.48L924.264 691.745Z"/>
	<defs>
		<linearGradient id="gradient_2" gradientUnits="userSpaceOnUse" x1="286.45599" y1="674.96002" x2="374.20667" y2="817.72394">
			<stop offset="0" stop-color="#D6F9F0"/>
			<stop offset="1" stop-color="#F3FFFC"/>
		</linearGradient>
	</defs>
	<path fill="url(#gradient_2)" d="M611.762 595.931C617.075 595.255 624.041 594.821 628.564 598.159C630.707 599.741 632.027 602.041 632.322 604.689C632.812 609.087 630.072 614.947 627.276 618.296C622.904 623.531 614.175 628.693 607.382 629.084C606.356 629.143 605.571 629.063 604.602 628.685C604.009 627.935 603.927 628.142 603.978 627.327C604.308 622.07 618.12 615.903 616.077 609.84C614.217 609.088 611.967 610.099 610.223 610.828C596.938 616.389 585.251 626.096 574.063 634.992C566.644 640.89 559.109 646.702 551.947 652.912C533.796 668.654 516.507 685.42 498.37 701.186C491.358 707.301 484.303 713.366 477.203 719.379C471.277 724.367 463.581 729.574 458.985 735.759L459.523 736.095L459.964 735.938C461.089 735.544 462.995 734.738 464.099 735.343C465.201 735.947 465.816 737.047 466.51 738.056C468.357 738.818 472.026 737.525 474.041 737.157C477.128 739.019 480.124 740.854 481.105 744.588C481.809 747.269 481.028 749.985 479.561 752.266C476.5 757.026 471.874 759.232 466.54 760.344L465.711 760.522C463.265 759.668 460.99 758.779 458.685 757.579C447.147 753.734 436.615 757.555 426.152 762.776C410.856 770.409 395.736 780.002 381.911 790.071C374.166 795.713 366.745 801.791 358.972 807.394C352.035 811.574 345.698 816.685 338.792 820.913C310.244 838.393 280.753 848.506 247.117 849.542C239 849.02 231.072 848.173 223.061 846.74C215.488 844.143 209.316 842.082 203.656 836.099C201.433 833.75 199.212 830.882 196.555 829.024C187.326 822.572 167.944 837.994 159.026 842.269C152.695 845.332 145.961 847.48 139.026 848.65C127.227 850.585 116.381 849.206 106.527 842.148C101.786 838.275 97.029 836.087 90.7388 836.612C83.9016 837.183 77.1408 840.893 72.071 845.381C64.4986 851.363 57.4049 856.068 48.2896 859.289C38.0854 862.895 23.6784 865.396 13.5404 860.322C10.2104 858.655 6.86022 855.813 5.79625 852.107C5.32367 850.461 5.42142 848.821 6.32368 847.34C7.77156 844.963 10.2391 844.254 12.7847 843.644L14.1689 845.277C16.7535 846.42 20.9133 846.094 23.834 846.32C41.6346 847.701 56.6719 843.236 73.0967 837.12C78.3492 835.164 83.6124 832.985 89.0317 831.543C99.58 828.735 110.564 827.619 121.388 826.396C130.95 830.967 137.494 834.599 148.43 834.06C174.007 832.799 184.149 823.562 205.487 813.264C214.892 808.724 224.509 804.68 233.851 799.999C262.134 786.149 288.479 768.653 312.214 747.956C316.654 744.073 321.874 740.826 325.837 736.481L325.462 736.126C301.746 755.426 270.748 771.83 243.725 786.033C237.149 789.49 229.782 794.273 222.716 796.33C222.567 796.374 222.416 796.412 222.266 796.452C222.691 796.137 223.122 795.828 223.545 795.509C230.565 790.199 238.712 786.415 245.978 781.4C256.631 774.049 266.601 765.678 277.317 758.415C285.225 753.055 293.52 748.249 301.547 743.067C312.118 736.243 322.517 728.967 332.737 721.627C349.78 709.387 366.948 697.226 383.46 684.275C396.5 674.047 410.27 660.184 424.846 652.697C416.764 661.891 409.754 672.099 401.064 680.741C395.333 686.44 388.339 690.804 382.429 696.39C386.713 694.625 390.561 691.26 394.378 688.654C402.302 683.245 410.197 678.081 417.838 672.255C424.649 667.062 432.156 660.255 439.456 655.974C438.295 659.337 417.331 679.529 413.251 682.938C409.261 686.272 399.602 692.955 396.984 696.695L397.494 696.829C406.829 690.54 415.632 683.312 424.278 676.119C451.96 653.088 473.401 630.218 496.064 602.339C481.35 630.528 468.542 647.304 447.021 670.579C439.587 678.619 431.788 687.068 423.25 693.939C419.698 696.798 415.606 699.08 411.799 701.59C404.388 706.475 397.037 711.488 389.378 715.978C372.981 725.591 355.509 733.329 339.096 743.008C316.043 756.604 294.896 772.935 271.827 786.521C259.505 793.778 246.529 800.616 233.693 806.912C225.31 811.024 216.602 814.758 208.496 819.387L208.372 820.011C208.886 820.505 208.908 820.572 209.625 820.994C211.576 822.141 214.4 822.681 216.595 823.299C227.172 826.276 236.85 827.953 247.854 828.003C288.579 828.189 325.973 810.744 358.731 787.602C367.936 781.098 376.617 773.869 385.445 766.874C405.132 751.135 424.37 734.841 443.134 718.013C458.916 703.839 474.194 689.266 490.596 675.789C503.074 665.538 517.159 657.632 530.431 648.49C539.534 642.219 548.015 635.126 556.936 628.613C575.297 615.208 595.886 603.956 617.746 597.421L617.769 597.049C615.001 598.051 612.066 598.518 609.269 599.536C594.151 605.039 579.118 612.52 565.765 621.505C553.516 629.746 542.246 639.358 530.127 647.797C519.677 655.073 508.582 661.445 498.248 668.858C491.503 673.696 485.122 679.417 478.779 684.781C470.077 692.141 461.971 700.129 453.525 707.772C432.331 727.078 410.563 745.743 388.249 763.742C378.773 771.279 369.481 779.071 359.646 786.143C333.99 804.593 304.524 819.794 273.271 825.501C254.636 828.904 236.749 828.181 218.506 823.18C215.626 822.39 211.919 821.854 209.476 820.163L209.816 819.37C216.347 814.783 225.263 811.823 232.481 808.307C245.45 801.99 258.377 794.948 270.896 787.779C280.4 782.337 290.028 776.393 299.058 770.2C307.333 764.526 315.318 758.407 323.819 753.055C343.104 740.913 363.068 730.804 383.175 720.2C395.875 713.502 406.927 704.504 419.32 697.45C420.422 696.823 421.546 696.098 422.819 696.279C422.484 697.192 422.67 696.925 422.179 697.557C418.728 702.004 407.889 720.593 408.217 725.528C408.278 726.452 408.203 726.088 409.031 726.826C411.793 726.247 414.359 724.453 416.844 723.153C429.348 716.613 444.653 701.209 455.395 691.397C472.726 675.564 490.264 660.034 506.378 642.911C513.994 634.818 520.608 625.3 528.73 617.77C529.251 621.474 504.72 657.59 504.916 660.703C506.229 660.678 534.579 633.122 537.905 630.084C555.745 613.786 580.187 601.593 604.045 597.466C608.39 596.715 612.69 596.719 617.057 596.315L611.762 595.931Z"/>
	<path fill="#AED9E0" d="M693.199 594.402C681.466 610.872 675.778 632.692 677.203 652.864C678.488 671.061 687.505 690.213 701.342 702.2C704.701 705.11 710.74 710.746 715.356 710.424C726.75 721.036 739.106 729.959 753.336 736.422C750.306 738.08 746.9 739.614 744.057 741.546C722.198 732.095 705.764 724.334 690.576 705.036C675.694 686.129 665.354 663.561 668.456 638.971C670.592 622.038 679.585 604.913 693.199 594.402Z"/>
	<path fill="#B8F2E6" d="M0 670.565C12.2334 646.978 36.4802 627.462 61.5845 619.472C73.0864 615.811 92.0839 612.236 103.329 618.35C106.035 619.821 108.169 622.024 108.998 625.045C109.967 628.579 109.029 632.119 107.171 635.185C103.557 641.145 93.6685 650.834 86.8221 652.597C84.8533 653.104 83.112 652.882 81.3447 651.93C80.6809 650.915 80.4476 650.339 80.6854 649.1C81.9945 642.28 90.6309 637.934 93.3955 632.026C92.1441 630.715 90.5264 629.992 88.7054 629.953C70.2952 629.562 30.2348 668.532 17.4742 681.711C11.4331 687.951 5.39712 694.425 0 701.231L0 670.565Z"/>
	<path fill="#B8F2E6" d="M786.899 738.76C786.886 738.336 786.847 738.212 787.205 737.728C788.144 736.457 807.423 724.031 810.579 721.83C851.123 693.562 886.321 655.192 919.223 618.517C919.254 618.842 919.27 618.806 919.161 619.23C917.931 624.023 913.589 629.368 911.152 633.735C893.224 665.859 855.732 697.099 825.037 716.54C812.597 724.418 799.451 731.086 786.899 738.76Z"/>
	<path fill="#6CA9A6" d="M662.523 628.831C650.85 644.262 647.033 680.591 649.609 699.408C652.37 719.586 661.886 740.487 678.426 752.979C683.521 756.826 692.497 760.828 696.524 764.68C677.877 771.025 658.526 774.641 639.224 778.304C631.558 779.759 623.663 780.893 616.114 782.825C611.638 781.778 605.723 783.044 601.119 783.473L572.312 786.217C567.792 786.652 563.039 787.45 558.516 787.492C556.209 784.576 553.341 781.925 550.872 779.105C535.464 761.5 533.046 746.415 534.533 723.714C536.718 714.92 540.672 706.098 545.505 698.442C550.401 690.686 557.176 684.749 562.778 677.612C566.105 673.375 568.743 668.572 571.795 664.132C578.256 654.733 585.786 646.96 594.614 639.776C596.637 638.13 599.411 635.303 601.895 634.75C601.945 636.024 601.363 636.596 600.499 637.508C600.317 637.7 600.126 637.884 599.94 638.072C576.796 652.566 558.492 684.587 552.42 710.888C549.521 723.448 548.994 738.077 556.144 749.368C563.572 761.1 576.684 765.291 589.268 769.05L590.339 768.738C589.92 765.863 585.614 761.782 583.907 759.101C575.79 746.344 572.373 730.148 572.858 715.161C573.426 697.614 580.011 671.841 593.31 659.461C583.481 675.215 575.229 699.232 578.807 718.005C578.1 728.134 583.328 740.571 589.933 748.097C596.77 755.887 607.779 762.078 618.234 762.799C624.277 763.216 632.778 761.996 637.41 757.886C638.039 757.328 638.396 756.762 638.746 756.008C638.76 755.069 638.792 754.134 638.737 753.196C639.556 753.728 640.258 754.143 641.202 754.396C642.218 754.668 641.772 754.726 642.634 754.237C641.926 751.156 637.724 747.413 635.842 744.701C628.709 734.427 623.152 720.935 622.208 708.39C620.301 683.062 632.353 656.344 648.563 637.41C648.84 638.59 644.52 643.763 643.531 645.182C636.352 655.488 631.848 666.946 629.163 679.169C625.264 696.919 627.12 718.146 637.098 733.765C637.436 733.16 636.656 731.589 636.437 730.909C634.998 726.436 634.08 721.923 633.446 717.267C630.545 695.964 636.313 671.637 645.783 652.544C648.483 647.101 651.95 641.942 655.161 636.789C657.976 632.268 660.683 627.687 663.931 623.456C663.53 625.265 663.06 627.058 662.523 628.831Z"/>
	<path fill="#AED9E0" d="M696.524 764.68C692.497 760.828 683.521 756.826 678.426 752.979C661.886 740.487 652.37 719.586 649.609 699.408C647.033 680.591 650.85 644.262 662.523 628.831C661.888 638.74 660.265 648.542 660.092 658.494C659.658 683.533 667.269 711.47 684.182 730.505C693.713 741.232 707.24 750.413 721.013 754.569C713.35 758.77 704.872 762.133 696.524 764.68Z"/>
	<path fill="#AED9E0" d="M589.268 769.05C576.684 765.291 563.572 761.1 556.144 749.368C548.994 738.077 549.521 723.448 552.42 710.888C558.492 684.587 576.796 652.566 599.94 638.072L599.658 638.555C596.633 643.681 591.084 647.377 587.348 652.097C571.108 672.613 551.798 702.383 558.639 729.822C562.617 745.776 570.795 752.845 583.056 762.941C585.189 764.698 588.047 766.528 589.268 769.05Z"/>
	<path fill="#B8F2E6" d="M264.518 757.02L264.441 756.598C266.883 752.845 284.148 741.099 288.967 737.232C298.778 729.36 308.414 721.168 317.997 713.017C334.785 698.74 350.823 683.696 366.927 668.668C376.813 659.442 387.246 650.422 396.408 640.482C395.645 644.44 392.101 648.208 389.786 651.386C368.761 680.252 340.98 700.258 312.701 721.417C296.69 733.398 280.884 745.507 264.518 757.02Z"/>
	<path fill="#6CA9A6" d="M139.205 659.64C136.628 663.033 134.961 667.819 133.54 671.816C127.862 687.784 125.189 704.1 127.569 720.988C130.427 741.272 140.26 759.9 156.82 772.215C160.302 774.771 163.96 777.078 167.766 779.119C170.744 780.735 176.336 782.485 178.627 784.743C167.383 789.835 156.043 794 144.259 797.66C141.531 798.508 138.441 799.886 135.673 800.423C129.71 799.462 111.876 802.582 104.707 803.373C82.3455 805.841 59.8689 808.41 37.4489 810.26C30.9067 803.856 24.9181 797.524 21.4094 788.922C12.0906 766.078 16.3864 736.779 25.8204 714.659C36.75 689.032 54.4079 668.03 80.6053 657.598C75.5784 663.016 69.699 667.732 64.4281 672.928C53.5321 683.67 45.7073 697.562 40.5028 711.867C36.3278 723.341 29.6929 749.77 35.3088 761.146C41.8935 774.485 68.6497 789.618 82.6314 794.703C69.6725 786.921 61.4804 771.296 57.9318 756.992C52.1755 733.787 58.4444 709.787 70.4912 689.633C67.7184 698.069 65.039 706.517 63.6316 715.311C61.2346 730.288 61.6088 748.535 71.023 761.259C79.8805 773.231 93.4048 772.618 106.746 773.65C113.29 774.156 119.733 775.007 126.219 775.998C114.793 761.02 108.686 743.531 108.082 724.69C107.068 693.127 125.034 669.932 145.552 648.258C143.351 652.013 141.181 655.758 139.205 659.64Z"/>
	<path fill="#B8F2E6" d="M147.803 666.879C147.952 677.332 148.988 686.936 152.43 696.892C161.077 721.899 178.299 740.203 201.62 752.429C208.281 755.921 215.291 758.343 222.025 761.611C215.942 765.658 209.485 769.682 202.944 772.93C198.656 769.415 191.926 767.154 186.985 764.585C172.965 757.297 159.696 744.349 152.32 730.419C142.145 711.203 141.567 687.461 147.803 666.879Z"/>
	<path fill="#B8F2E6" d="M989.139 713.465C993.587 706.985 999.349 701.416 1004.59 695.591C1011.42 687.999 1018.18 679.854 1024 671.47L1024 682.347C1020.46 685.141 1016.96 687.954 1013.71 691.095C1007 697.589 997.662 710.29 989.139 713.465Z"/>
	<defs>
		<linearGradient id="gradient_3" gradientUnits="userSpaceOnUse" x1="1003.7894" y1="698.18585" x2="1012.4396" y2="706.09564">
			<stop offset="0" stop-color="#74B8AE"/>
			<stop offset="1" stop-color="#9DDED1"/>
		</linearGradient>
	</defs>
	<path fill="url(#gradient_3)" d="M989.139 713.465C997.662 710.29 1007 697.589 1013.71 691.095C1016.96 687.954 1020.46 685.141 1024 682.347L1024 694.518C1019.11 698.025 1014.43 701.658 1009.91 705.628C1006.06 709.007 1002.31 712.772 998.171 715.788C993.741 716.235 989.409 716.839 985.036 717.686L989.139 713.465Z"/>
	<path fill="#AED9E0" d="M998.171 715.788C1002.31 712.772 1006.06 709.007 1009.91 705.628C1014.43 701.658 1019.11 698.025 1024 694.518L1024 704.053C1019.61 708.584 1015.42 713.188 1011.4 718.044C1009.76 720.018 1007.98 723.235 1006.18 724.844C1005.93 723.278 1005.62 721.676 1004.9 720.248C1003.48 717.452 1000.97 716.683 998.171 715.788Z"/>
	<path fill="#AED9E0" d="M1006.18 724.844C1007.98 723.235 1009.76 720.018 1011.4 718.044C1015.42 713.188 1019.61 708.584 1024 704.053L1024 760.945C1006.79 762.448 989.622 764.447 972.525 766.942C972.619 766.773 972.739 766.615 972.808 766.434C974.315 762.42 979.505 751.981 978.465 748.513C980.509 748.979 982.748 747.255 984.452 746.223C986.06 745.88 987.591 745.328 989.113 744.711C995.759 742.02 1001.7 735.681 1004.59 729.099C1005.12 727.883 1005.37 726.589 1005.92 725.377C1006 725.197 1006.09 725.022 1006.18 724.844Z"/>
	<path fill="#AED9E0" d="M578.807 718.005L579.038 718.435C580.728 721.646 581.877 725.09 583.502 728.336C588.779 738.874 597.006 750.175 608.706 753.906C619.513 757.353 628.093 755.152 638.737 753.196C638.792 754.134 638.76 755.069 638.746 756.008C638.396 756.762 638.039 757.328 637.41 757.886C632.778 761.996 624.277 763.216 618.234 762.799C607.779 762.078 596.77 755.887 589.933 748.097C583.328 740.571 578.1 728.134 578.807 718.005Z"/>
	<path fill="#AED9E0" d="M547.039 788.509C545.528 785.936 543.416 784.404 541.352 782.344C536.433 777.432 534.44 770.984 532.766 764.4C529.713 752.386 527.892 734.915 534.533 723.714C533.046 746.415 535.464 761.5 550.872 779.105C553.341 781.925 556.209 784.576 558.516 787.492L547.039 788.509Z"/>
	<path fill="#AED9E0" d="M986.126 734.833C986.342 734.817 986.558 734.804 986.774 734.785C987.512 734.72 988.196 734.6 988.918 734.448L990.475 735.664C989.863 738.495 986.412 740.684 984.544 742.82C983.97 739.614 984.746 738.419 986.378 735.73L986.126 734.833Z"/>
	<path fill="#AED9E0" d="M904.075 775.189C909.143 771.389 915.595 768.863 920.936 765.285C939.488 752.858 945.814 745.4 968.154 738.437C974.091 736.587 979.882 734.985 986.126 734.833L986.378 735.73C984.746 738.419 983.97 739.614 984.544 742.82L984.452 746.223C982.748 747.255 980.509 748.979 978.465 748.513C973.65 750.752 968.961 751.064 964.117 752.766C957.606 755.053 951.518 758.848 944.965 761.299C939.57 762.091 936.016 764.179 932.13 767.85L929.867 768.456C929.1 770.181 930.683 770.945 928.602 772.244C920.622 773.389 912.112 775.056 904.075 775.189Z"/>
	<path fill="#B8F2E6" d="M944.965 761.299C951.518 758.848 957.606 755.053 964.117 752.766C968.961 751.064 973.65 750.752 978.465 748.513C979.505 751.981 974.315 762.42 972.808 766.434C972.739 766.615 972.619 766.773 972.525 766.942L928.602 772.244C930.683 770.945 929.1 770.181 929.867 768.456L932.13 767.85C936.861 767.183 941.059 763.884 944.965 761.299Z"/>
	<path fill="#AED9E0" d="M358.972 807.394C366.745 801.791 374.166 795.713 381.911 790.071C395.736 780.002 410.856 770.409 426.152 762.776C436.615 757.555 447.147 753.734 458.685 757.579C444.749 766.709 433.928 784.067 430.323 800.183C430.294 800.314 430.269 800.445 430.242 800.576C414.158 802.334 398.061 803.966 381.952 805.473C374.649 806.177 366.25 807.747 358.972 807.394Z"/>
	<path fill="#974C00" d="M972.525 766.942C989.622 764.447 1006.79 762.448 1024 760.945L1024 764.557C1010.49 765.444 996.884 767.606 983.428 769.211C950.684 773.116 918.1 777.627 885.452 782.227L679.317 809.553L678.5 808.869C678.185 808.909 677.871 808.952 677.555 808.988C669.042 809.969 659.305 809.985 650.626 810.454C638.337 811.118 593.623 815.021 584.325 811.683C614.029 810.275 643.685 807.988 673.254 804.827C702.762 801.523 732.069 796.875 761.532 793.239C792.32 788.859 823.342 785.879 854.229 782.254C870.781 780.311 887.826 778.967 904.075 775.189C912.112 775.056 920.622 773.389 928.602 772.244L972.525 766.942Z"/>
	<path fill="#AED9E0" d="M932.13 767.85C936.016 764.179 939.57 762.091 944.965 761.299C941.059 763.884 936.861 767.183 932.13 767.85Z"/>
	<path fill="#C46D01" d="M679.317 809.553L885.452 782.227C918.1 777.627 950.684 773.116 983.428 769.211C996.884 767.606 1010.49 765.444 1024 764.557L1024 780.069C1016.91 781.263 1009.91 783.132 1002.86 784.553C984.609 788.229 966.362 791.647 947.863 793.805C933.492 795.481 918.974 797.14 904.537 798.062C894.191 798.722 883.813 798.77 873.464 799.39C854.747 800.583 836.04 801.92 817.344 803.402C768.843 807.194 720.675 813.229 672.328 818.463C661.53 819.632 589.377 828.871 585.483 827.746C589.242 824.435 650.256 814.402 659.458 812.916C662.785 812.379 677.439 810.792 679.317 809.553Z"/>
	<path fill="#974C00" d="M679.317 809.553C677.439 810.792 662.785 812.379 659.458 812.916C650.256 814.402 589.242 824.435 585.483 827.746C589.377 828.871 661.53 819.632 672.328 818.463C720.675 813.229 768.843 807.194 817.344 803.402C836.04 801.92 854.747 800.583 873.464 799.39C883.813 798.77 894.191 798.722 904.537 798.062C918.974 797.14 933.492 795.481 947.863 793.805C966.362 791.647 984.609 788.229 1002.86 784.553C1009.91 783.132 1016.91 781.263 1024 780.069L1024 792.624C1011.38 795.215 995.075 795.249 981.77 796.966L891.116 809.119C876.98 811.012 862.785 812.449 848.684 814.597C834.463 816.763 820.315 819.398 806.094 821.57C755.691 829.144 705.334 837.016 655.024 845.183C607.029 853.405 559.267 863.039 511.153 870.616C468.728 877.297 425.925 880.915 383.483 887.483C349.397 892.758 316.125 901.587 282.287 908.052C216.25 920.711 149.992 932.182 83.5429 942.46C56.1479 946.894 27.5318 953.11 0 955.653L0 926.133C7.6468 925.587 15.307 924.209 22.9163 923.269C37.0524 921.523 51.5102 920.091 65.7319 919.474C95.2133 918.196 127.377 920.529 156.332 916.228C179.374 912.806 194.125 903.404 214.865 895.051C229.321 889.23 243.884 885.493 259.192 882.647C273.917 879.908 288.819 878.062 303.653 876.006C330.868 872.214 358.157 868.969 385.502 866.273C395.002 865.311 404.542 864.797 414.09 864.734C425.916 864.709 437.69 865.332 449.513 864.631C471.064 863.352 546.731 851.857 561.677 839.256C562.967 838.169 563.577 837.258 563.743 835.531C563.387 834.567 563.145 834.004 562.35 833.306C555.703 827.467 499.08 835.711 487.268 837.258C482.034 837.944 476.129 839.312 470.884 839.311C470.662 839.311 470.441 839.307 470.219 839.304L465.772 838.813C466.03 838.803 466.289 838.797 466.547 838.784C471.985 838.5 477.634 836.647 483.007 835.681C495.511 833.431 558.657 822.888 563.597 817.197C564.585 816.059 565.557 814.466 565.348 812.904C565.325 812.728 565.262 812.56 565.219 812.389C564.048 811.859 563.139 812.04 561.912 812.238C551.585 813.908 541.26 816.429 530.98 818.429C514.009 821.667 496.997 824.688 479.949 827.491C393.731 842.553 307.168 855.57 220.333 866.532C194.327 869.636 168.509 873.221 142.379 875.189C135.386 875.716 108.391 878.863 104.027 877.812L104.258 877.215C115.212 875.392 126.424 873.711 137.128 870.716C148.04 867.663 158.516 863.324 169.579 860.76L170.02 860.348C164.674 859.847 158.183 861.689 152.89 862.693C140.75 864.996 128.673 867.353 116.684 870.374C107.646 872.651 98.6263 875.668 89.4898 877.445C59.8303 883.21 29.7251 886.805 0 892.2L0 814.117C12.3974 813.711 25.1081 811.629 37.4489 810.26C59.8689 808.41 82.3455 805.841 104.707 803.373C111.876 802.582 129.71 799.462 135.673 800.423C130.599 802.486 124.956 803.564 119.613 804.729C111.174 806.6 102.683 808.229 94.1499 809.613C85.2497 811.067 76.1167 812.151 67.4808 814.811C47.4201 820.992 31.5381 835.003 12.7847 843.644C10.2391 844.254 7.77156 844.963 6.32368 847.34C5.42142 848.821 5.32367 850.461 5.79625 852.107C6.86022 855.813 10.2104 858.655 13.5404 860.322C23.6784 865.396 38.0854 862.895 48.2896 859.289C57.4049 856.068 64.4986 851.363 72.071 845.381C75.8941 847.296 100.189 842.629 106.527 842.148C116.381 849.206 127.227 850.585 139.026 848.65C145.961 847.48 152.695 845.332 159.026 842.269C167.944 837.994 187.326 822.572 196.555 829.024C199.212 830.882 201.433 833.75 203.656 836.099C209.316 842.082 215.488 844.143 223.061 846.74C222.904 846.898 222.753 847.063 222.589 847.214C220.812 848.847 201.822 851.927 197.835 852.958C191.153 854.684 184.826 857.465 178.003 858.756L177.791 859.076C181.788 859.737 186.102 858.447 190.123 858.159C205.176 857.078 233.068 856.257 246.443 850.395L247.117 849.542C280.753 848.506 310.244 838.393 338.792 820.913C345.698 816.685 352.035 811.574 358.972 807.394C366.25 807.747 374.649 806.177 381.952 805.473C398.061 803.966 414.158 802.334 430.242 800.576C440.745 798.942 451.498 798.147 462.067 796.949C490.353 793.762 518.679 790.949 547.039 788.509L558.516 787.492C563.039 787.45 567.792 786.652 572.312 786.217L601.119 783.473C605.723 783.044 611.638 781.778 616.114 782.825C611.709 784.669 607.606 786.729 603.442 789.05C602.516 788.346 601.832 788.136 600.697 788.077C591.461 787.596 581.511 789.386 572.258 790.173C547.508 792.172 522.812 794.802 498.196 798.06C483.918 799.999 469.69 802.209 455.388 803.988C444.084 805.394 432.589 806.246 421.363 808.14C393.643 812.816 367.789 822.593 343.556 836.672L452.288 821.014C476.889 817.654 501.626 815.165 526.185 811.514C540.32 809.413 554.394 806.69 568.433 804.028C574.461 802.884 580.707 801.111 586.789 800.506C588.296 800.357 589.475 800.427 590.866 801.068C588.611 804.133 585.143 807.952 584.325 811.683C593.623 815.021 638.337 811.118 650.626 810.454C659.305 809.985 669.042 809.969 677.555 808.988C677.871 808.952 678.185 808.909 678.5 808.869L679.317 809.553Z"/>
	<path fill="#C46D01" d="M343.556 836.672C367.789 822.593 393.643 812.816 421.363 808.14C432.589 806.246 444.084 805.394 455.388 803.988C469.69 802.209 483.918 799.999 498.196 798.06C522.812 794.802 547.508 792.172 572.258 790.173C581.511 789.386 591.461 787.596 600.697 788.077C601.832 788.136 602.516 788.346 603.442 789.05C598.738 792.63 594.712 796.589 590.866 801.068C589.475 800.427 588.296 800.357 586.789 800.506C580.707 801.111 574.461 802.884 568.433 804.028C554.394 806.69 540.32 809.413 526.185 811.514C501.626 815.165 476.889 817.654 452.288 821.014L343.556 836.672Z"/>
	<path fill="#974C00" d="M0 955.653C27.5318 953.11 56.1479 946.894 83.5429 942.46C149.992 932.182 216.25 920.711 282.287 908.052C316.125 901.587 349.397 892.758 383.483 887.483C425.925 880.915 468.728 877.297 511.153 870.616C559.267 863.039 607.029 853.405 655.024 845.183C705.334 837.016 755.691 829.144 806.094 821.57C820.315 819.398 834.463 816.763 848.684 814.597C862.785 812.449 876.98 811.012 891.116 809.119L981.77 796.966C995.075 795.249 1011.38 795.215 1024 792.624L1024 800.845C975.958 808.246 927.603 813.567 879.453 820.243C793.737 832.511 708.207 846.047 622.891 860.848L476.744 888.306C466.39 890.337 456.139 892.849 445.8 894.949C428.376 898.338 410.926 901.59 393.451 904.706C324.381 917.09 254.917 927.045 185.623 938.064C138.87 945.499 92.2977 953.561 45.3654 959.879C30.2833 961.91 15.1492 964.188 0 965.613L0 955.653Z"/>
	<path fill="#974C00" d="M0 965.613C15.1492 964.188 30.2833 961.91 45.3654 959.879C92.2977 953.561 138.87 945.499 185.623 938.064C254.917 927.045 324.381 917.09 393.451 904.706C410.926 901.59 428.376 898.338 445.8 894.949C456.139 892.849 466.39 890.337 476.744 888.306L622.891 860.848C708.207 846.047 793.737 832.511 879.453 820.243C927.603 813.567 975.958 808.246 1024 800.845L1024 841.16C936.423 840.391 848.901 845.818 762.089 857.4C737.2 860.793 711.717 864.028 687.134 869.243C668.449 873.207 650.226 878.44 631.873 883.689C615.414 880.022 597.566 882.503 581.137 885.575C546.523 892.047 514.25 903.059 481.775 916.41C469.586 921.421 457.821 927.512 445.599 932.365C435.883 936.222 425.683 939.007 415.623 941.793C364.64 955.908 311.959 964.216 260.361 975.873C249.018 978.436 199.779 991.062 191.444 989.872L191.921 989.365C197.145 983.91 203.935 979.478 210.5 975.811C215.441 973.084 220.482 970.542 225.611 968.188C230.627 965.842 252.401 957.583 254.092 952.513C253.629 951.03 253.214 950.405 252.142 949.278C243.292 945.354 217.781 948.991 207.691 950.882C183.732 955.372 159.935 962.124 136.52 968.853C90.7623 982.005 45.6721 997.193 0 1010.6L0 965.613Z"/>
	<path fill="#974C00" d="M470.219 839.304C456.941 840.802 443.715 843.306 430.499 845.298L352.288 856.713C271.487 867.452 190.621 877.7 109.696 887.456L38.4381 897.44C25.6469 899.362 12.8483 901.801 0 903.258L0 892.2C29.7251 886.805 59.8303 883.21 89.4898 877.445C98.6263 875.668 107.646 872.651 116.684 870.374C128.673 867.353 140.75 864.996 152.89 862.693C158.183 861.689 164.674 859.847 170.02 860.348L169.579 860.76C158.516 863.324 148.04 867.663 137.128 870.716C126.424 873.711 115.212 875.392 104.258 877.215L104.027 877.812C108.391 878.863 135.386 875.716 142.379 875.189C168.509 873.221 194.327 869.636 220.333 866.532C307.168 855.57 393.731 842.553 479.949 827.491C496.997 824.688 514.009 821.667 530.98 818.429C541.26 816.429 551.585 813.908 561.912 812.238C563.139 812.04 564.048 811.859 565.219 812.389C565.262 812.56 565.325 812.728 565.348 812.904C565.557 814.466 564.585 816.059 563.597 817.197C558.657 822.888 495.511 833.431 483.007 835.681C477.634 836.647 471.985 838.5 466.547 838.784C466.289 838.797 466.03 838.803 465.772 838.813L470.219 839.304Z"/>
	<path fill="#C46D01" d="M0 903.258C12.8483 901.801 25.6469 899.362 38.4381 897.44L109.696 887.456C190.621 877.7 271.487 867.452 352.288 856.713L430.499 845.298C443.715 843.306 456.941 840.802 470.219 839.304C470.441 839.307 470.662 839.311 470.884 839.311C476.129 839.312 482.034 837.944 487.268 837.258C499.08 835.711 555.703 827.467 562.35 833.306C563.145 834.004 563.387 834.567 563.743 835.531C563.577 837.258 562.967 838.169 561.677 839.256C546.731 851.857 471.064 863.352 449.513 864.631C437.69 865.332 425.916 864.709 414.09 864.734C404.542 864.797 395.002 865.311 385.502 866.273C358.157 868.969 330.868 872.214 303.653 876.006C288.819 878.062 273.917 879.908 259.192 882.647C243.884 885.493 229.321 889.23 214.865 895.051C194.125 903.404 179.374 912.806 156.332 916.228C127.377 920.529 95.2133 918.196 65.7319 919.474C51.5102 920.091 37.0524 921.523 22.9163 923.269C15.307 924.209 7.6468 925.587 0 926.133L0 903.258Z"/>
	<path fill="#974C00" d="M106.527 842.148C100.189 842.629 75.8941 847.296 72.071 845.381C77.1408 840.893 83.9016 837.183 90.7388 836.612C97.029 836.087 101.786 838.275 106.527 842.148Z"/>
	<path fill="#974C00" d="M631.873 883.689C650.226 878.44 668.449 873.207 687.134 869.243C711.717 864.028 737.2 860.793 762.089 857.4C848.901 845.818 936.423 840.391 1024 841.16L1024 855.805C1009.28 857.716 994.647 860.68 980.009 863.145C974.373 864.094 968.337 865.504 962.664 865.9C952.159 865.557 940.715 868.159 930.29 869.728C907.74 873.12 885.317 877.038 862.824 880.76L765.008 897.512C717.441 905.365 669.849 912.872 623.003 924.468C607.151 928.392 591.522 933.163 575.871 937.81C524.402 953.092 474.257 971.026 424.174 990.344C407.606 996.793 391.127 1003.47 374.744 1010.38C365.475 1014.2 352.983 1018.31 344.818 1024L0 1024L0 1010.6C45.6721 997.193 90.7623 982.005 136.52 968.853C159.935 962.124 183.732 955.372 207.691 950.882C217.781 948.991 243.292 945.354 252.142 949.278C253.214 950.405 253.629 951.03 254.092 952.513C252.401 957.583 230.627 965.842 225.611 968.188C220.482 970.542 215.441 973.084 210.5 975.811C203.935 979.478 197.145 983.91 191.921 989.365L191.444 989.872C191.337 989.963 191.218 990.042 191.122 990.145C189.483 991.896 187.647 993.944 187.855 996.41C188.27 996.969 188.646 997.426 189.29 997.736C195.462 1000.71 220.858 995.707 228.392 994.618C262.861 989.624 297.116 983.25 331.075 975.511C368.634 966.727 406.108 955.76 442.934 944.313L539.464 913.314C570.213 903.164 600.78 892.78 631.873 883.689Z"/>
	<path fill="#C46D01" d="M223.061 846.74C231.072 848.173 239 849.02 247.117 849.542L246.443 850.395C233.068 856.257 205.176 857.078 190.123 858.159C186.102 858.447 181.788 859.737 177.791 859.076L178.003 858.756C184.826 857.465 191.153 854.684 197.835 852.958C201.822 851.927 220.812 848.847 222.589 847.214C222.753 847.063 222.904 846.898 223.061 846.74Z"/>
	<path fill="#974C00" d="M962.664 865.9C968.337 865.504 974.373 864.094 980.009 863.145C994.647 860.68 1009.28 857.716 1024 855.805L1024 902.853C999.217 916.015 973.67 927.687 947.496 937.805C935.245 942.621 922.745 946.77 910.407 951.352C893.924 957.473 853.227 974.879 836.743 969.915C835.515 969.545 834.079 968.895 833.542 967.668C833.075 966.599 832.8 965.077 833.189 963.926C837.435 951.357 895.954 930.053 910.446 921.846C912.981 920.41 917.068 918.353 918.864 916.047C920.043 914.534 919.986 913.774 919.556 912.042C918.113 910.397 916.548 909.632 914.345 909.459C905.038 908.729 894.661 910.815 885.541 912.817C820.064 927.189 763.707 965.164 702.548 990.658C676.008 1001.95 648.196 1009.99 619.722 1014.59C614.271 1015.48 601.42 1018.8 596.956 1015.07C596.502 1013.91 596.467 1013.71 596.928 1012.48C600.77 1002.24 655.184 985.491 651.357 972.51C650.843 970.765 649.187 969.635 647.588 968.989C621.139 958.298 502.743 996.653 471.457 1005.97C457.307 1010.18 443.115 1014.18 429.039 1018.64C423.647 1020.35 417.933 1021.82 412.72 1024L363.173 1024C370.172 1018.48 398.89 1010.91 408.406 1007.86C420.085 1004.04 431.743 1000.16 443.379 996.219L526.206 968.461C539.017 964.12 551.629 959.216 564.471 954.967C609.935 939.924 656.83 926.505 703.677 916.618C731.348 910.777 759.361 906.414 787.105 900.938L849.976 888.161C859.745 886.127 869.466 883.798 879.272 881.948C898.58 878.304 918.011 875.333 937.303 871.577C945.662 869.95 954.581 868.578 962.664 865.9Z"/>
	<path fill="#974C00" d="M344.818 1024C352.983 1018.31 365.475 1014.2 374.744 1010.38C391.127 1003.47 407.606 996.793 424.174 990.344C474.257 971.026 524.402 953.092 575.871 937.81C591.522 933.163 607.151 928.392 623.003 924.468C669.849 912.872 717.441 905.365 765.008 897.512L862.824 880.76C885.317 877.038 907.74 873.12 930.29 869.728C940.715 868.159 952.159 865.557 962.664 865.9C954.581 868.578 945.662 869.95 937.303 871.577C918.011 875.333 898.58 878.304 879.272 881.948C869.466 883.798 859.745 886.127 849.976 888.161L787.105 900.938C759.361 906.414 731.348 910.777 703.677 916.618C656.83 926.505 609.935 939.924 564.471 954.967C551.629 959.216 539.017 964.12 526.206 968.461L443.379 996.219C431.743 1000.16 420.085 1004.04 408.406 1007.86C398.89 1010.91 370.172 1018.48 363.173 1024L344.818 1024Z"/>
	<path fill="#974C00" d="M191.444 989.872C199.779 991.062 249.018 978.436 260.361 975.873C311.959 964.216 364.64 955.908 415.623 941.793C425.683 939.007 435.883 936.222 445.599 932.365C457.821 927.512 469.586 921.421 481.775 916.41C514.25 903.059 546.523 892.047 581.137 885.575C597.566 882.503 615.414 880.022 631.873 883.689C600.78 892.78 570.213 903.164 539.464 913.314L442.934 944.313C406.108 955.76 368.634 966.727 331.075 975.511C297.116 983.25 262.861 989.624 228.392 994.618C220.858 995.707 195.462 1000.71 189.29 997.736C188.646 997.426 188.27 996.969 187.855 996.41C187.647 993.944 189.483 991.896 191.122 990.145C191.218 990.042 191.337 989.963 191.444 989.872Z"/>
	<path fill="#974C00" d="M412.72 1024C417.933 1021.82 423.647 1020.35 429.039 1018.64C443.115 1014.18 457.307 1010.18 471.457 1005.97C502.743 996.653 621.139 958.298 647.588 968.989C649.187 969.635 650.843 970.765 651.357 972.51C655.184 985.491 600.77 1002.24 596.928 1012.48C596.467 1013.71 596.502 1013.91 596.956 1015.07C601.42 1018.8 614.271 1015.48 619.722 1014.59C648.196 1009.99 676.008 1001.95 702.548 990.658C763.707 965.164 820.064 927.189 885.541 912.817C894.661 910.815 905.038 908.729 914.345 909.459C916.548 909.632 918.113 910.397 919.556 912.042C919.986 913.774 920.043 914.534 918.864 916.047C917.068 918.353 912.981 920.41 910.446 921.846C895.954 930.053 837.435 951.357 833.189 963.926C832.8 965.077 833.075 966.599 833.542 967.668C834.079 968.895 835.515 969.545 836.743 969.915C853.227 974.879 893.924 957.473 910.407 951.352C922.745 946.77 935.245 942.621 947.496 937.805C973.67 927.687 999.217 916.015 1024 902.853L1024 961.226C1011.85 963.686 999.785 966.651 987.715 969.464C977.077 971.944 966.453 974.204 955.937 977.184C922.545 986.645 889.544 998.51 856.696 1009.72L828.752 1019.37C824.693 1020.78 819.615 1021.92 815.908 1024L412.72 1024Z"/>
	<path fill="#974C00" d="M815.908 1024C819.615 1021.92 824.693 1020.78 828.752 1019.37L856.696 1009.72C889.544 998.51 922.545 986.645 955.937 977.184C966.453 974.204 977.077 971.944 987.715 969.464C999.785 966.651 1011.85 963.686 1024 961.226L1024 996.108C1013.65 999.68 976.481 1015.04 966.725 1011.91C966.242 1011.38 965.889 1011.29 965.988 1010.5C966.23 1008.56 967.626 1007.59 969.132 1006.59C973.281 1003.81 988.11 997.414 989.41 993.087C989.628 992.362 989.322 992.236 988.954 991.66C975.549 986.204 905.295 1017.38 887.905 1024L815.908 1024Z"/>
	<path fill="#974C00" d="M887.905 1024C905.295 1017.38 975.549 986.204 988.954 991.66C989.322 992.236 989.628 992.362 989.41 993.087C988.11 997.414 973.281 1003.81 969.132 1006.59C967.626 1007.59 966.23 1008.56 965.988 1010.5C965.889 1011.29 966.242 1011.38 966.725 1011.91C976.481 1015.04 1013.65 999.68 1024 996.108L1024 1024L887.905 1024Z"/>
</svg>
