<?xml version="1.0" encoding="utf-8" ?>
<svg xmlns="http://www.w3.org/2000/svg" xmlns:xlink="http://www.w3.org/1999/xlink" width="1024" height="1024">
	<path fill="#F1C779" d="M0 0L120.905 0L145.983 0C139.786 12.577 131.439 23.8747 122.573 34.6821C94.3225 69.1196 58.7428 96.3576 16.3557 110.813C10.9589 112.654 5.43952 113.989 0 115.666L0 80.3844L0 0Z"/>
	<path fill="#FAF3DD" d="M145.983 0L274.382 0L312.648 0C312.957 5.46859 313.09 10.9457 313.047 16.4228C312.952 22.6186 310.171 43.5965 313.834 47.943C314.153 48.3221 314.229 48.2913 314.769 48.283C317.155 48.2463 320.078 46.3869 322.215 45.3241C324.566 49.355 327.364 60.9185 330.44 62.7329C315.123 79.5348 299.004 96.9988 277.937 106.662C271.529 109.601 264.741 111.586 258.021 113.659C253.775 114.969 249.312 117.468 245.013 118.133L244.026 117.846L243.383 116.137C247.274 110.874 251.71 105.989 255.674 100.772C265.643 87.6543 282.921 55.1003 280.167 38.7419C279.895 37.1266 279.331 35.4697 277.79 34.6439C273.884 32.5516 268.019 34.4901 264.013 35.3426L263.49 34.5215C259.138 34.3621 253.069 37.5377 249.175 39.3432C199.831 62.2258 163.316 104.389 118.393 133.929C101.641 144.945 84.6987 155.912 66.8503 165.085C54.4599 171.453 41.6419 176.666 29.1148 182.66L22.8324 185.077C15.5544 187.785 6.66353 190.159 0 193.974L0 175.067L0 115.666C5.43952 113.989 10.9589 112.654 16.3557 110.813C58.7428 96.3576 94.3225 69.1196 122.573 34.6821C131.439 23.8747 139.786 12.577 145.983 0Z"/>
	<path fill="#FAF3DD" d="M312.648 0L362.424 0C359.519 20.5803 344.174 47.3954 330.44 62.7329C327.364 60.9185 324.566 49.355 322.215 45.3241C320.078 46.3869 317.155 48.2463 314.769 48.283C314.229 48.2913 314.153 48.3221 313.834 47.943C310.171 43.5965 312.952 22.6186 313.047 16.4228C313.09 10.9457 312.957 5.46859 312.648 1.77636e-15L312.648 0Z"/>
	<path fill="#EEFDFE" d="M362.424 0L366.049 0C364.4 6.51976 362.697 12.9404 360.196 19.2012C347.901 49.985 324.406 77.2147 298.992 98.0537C282.609 109.636 274.414 112.944 255.353 118.308C250.198 119.758 244.975 121.484 239.729 122.504L239.014 122.162C239.558 120.049 242.015 117.854 243.383 116.137L244.026 117.846L245.013 118.133C249.312 117.468 253.775 114.969 258.021 113.659C264.741 111.586 271.529 109.601 277.937 106.662C299.004 96.9988 315.123 79.5348 330.44 62.7329C344.174 47.3954 359.519 20.5803 362.424 0Z"/>
	<path fill="#F1C779" d="M366.049 0L410.154 0L784.164 0L819.157 0C813.333 11.8565 805.891 22.7634 798.687 33.8054C790.784 45.9181 783.104 58.3502 774.504 69.9751C766.9 80.2552 758.529 89.776 750.194 99.4496C741.045 108.543 732.473 117.801 722.22 125.733C695.564 146.353 651.754 165.494 617.74 165.435C611.851 165.463 605.978 164.823 600.233 163.529C611.44 156.432 622.568 149.21 633.613 141.862C650.725 130.61 668.768 120.081 680.957 103.062C683.705 98.9746 686.547 94.9752 688.649 90.5034C680.73 96.8689 672.416 102.218 663.603 107.253C659.274 109.652 654.452 112.966 649.865 114.688C632.968 125.999 612.908 132.804 594.465 141.093C581.387 146.177 568.583 151.923 555.392 156.724C523.142 168.498 490.206 178.303 456.767 186.084C437.827 190.823 418.71 194.821 399.458 198.07C379.835 201.078 360.128 203.517 340.364 205.385C329.189 206.47 317.942 207.166 306.804 208.571C295.461 208.732 283.187 211.56 272.149 214.101C228.604 224.127 199.746 239.525 167.442 270.403C154.6 282.679 141.67 299.127 126.304 308.043C115.377 314.383 102.042 317.181 89.9973 320.83C57.0223 330.817 29.2961 346.251 5.14859 371.118C4.42767 371.861 3.74986 372.621 3.08195 373.41L0 376.798L0 317.542L0 284.013L0 200.161C10.6154 195.859 22.2002 193.671 33.0178 189.689C63.5926 178.437 94.0709 162.975 121.044 144.682C141.533 130.786 157.752 113.217 176.022 96.7742C188.724 85.342 202.594 75.4297 216.23 65.1658C225.638 58.0847 234.777 50.4918 244.834 44.3435C250.946 40.6077 257.189 37.5316 264.013 35.3426C268.019 34.4901 273.884 32.5516 277.79 34.6439C279.331 35.4697 279.895 37.1266 280.167 38.7419C282.921 55.1003 265.643 87.6543 255.674 100.772C251.71 105.989 247.274 110.874 243.383 116.137C242.015 117.854 239.558 120.049 239.014 122.162L239.729 122.504C244.975 121.484 250.198 119.758 255.353 118.308C274.414 112.944 282.609 109.636 298.992 98.0537C324.406 77.2147 347.901 49.985 360.196 19.2012C362.697 12.9404 364.4 6.51976 366.049 0Z"/>
	<path fill="#EEFDFE" d="M819.157 0L825.582 0C817.466 13.6799 807.734 26.1559 798.617 39.1515C787.55 54.9259 777.144 71.0416 764.732 85.8244C761.552 89.6112 758.132 93.91 754.426 97.1705C753.453 98.1251 752.49 99.016 751.412 99.8565C750.468 99.737 750.861 99.9042 750.194 99.4496C758.529 89.776 766.9 80.2552 774.504 69.9751C783.104 58.3502 790.784 45.9181 798.687 33.8054C805.891 22.7634 813.333 11.8565 819.157 0Z"/>
	<path fill="#FAF3DD" d="M825.582 0L879.408 0C874.467 8.42424 869.704 17.0723 864.327 25.2238C838.578 64.2626 806.009 99.7729 766.807 125.544C756.655 132.218 745.628 137.842 735.001 143.747C702.627 161.419 669.109 176.908 634.67 190.113C627.233 192.168 620.071 195.583 612.727 198.034C606.154 200.228 599.253 201.608 592.757 203.965L628.445 204.246C632.869 204.293 637.394 204.023 641.795 204.352C632.099 208.085 621.939 210.915 611.983 213.884C570.221 226.747 527.025 234.384 483.385 236.622C460.143 237.636 436.678 236.637 413.429 236.266C370.694 235.585 328.054 236.706 286.231 246.242C269.918 249.961 253.801 254.363 238.43 261.083C219.081 269.542 202.578 284.187 187.544 298.795C180.633 305.51 173.95 312.522 166.307 318.43C160.621 322.826 154.423 326.281 148.129 329.708C134.717 337.174 121.025 344.124 107.082 350.543C90.6922 357.944 74.366 365.249 58.2671 373.282C50.6514 377.083 42.8134 380.775 35.6787 385.43C22.4813 394.04 10.8494 404.672 0 416.033L0 384.249L3.09461 380.918C6.80764 376.9 10.4182 372.643 14.4017 368.891C31.4331 352.849 52.419 340.159 73.8173 330.991C79.3903 328.589 85.0124 326.302 90.68 324.132C94.1628 322.831 97.9028 322.048 101.199 320.317C101.346 320.24 101.49 320.159 101.636 320.079C102.79 319.136 104.63 318.807 106.045 318.335C113.694 315.787 121.272 312.395 128.429 308.686C134.847 307.79 138.237 305.065 142.709 300.451C148.539 296.394 161.465 282.428 165.973 276.48L163.846 278.391C165.533 276.159 172.281 269.631 172.866 268.18C203.847 236.969 244.905 220.295 287.708 213.177C296.521 211.712 305.4 211.016 314.263 210.096C318.831 210.166 323.491 209.152 328.028 208.64C334.911 207.864 341.97 207.193 348.873 206.596C416.829 200.715 486.725 183.361 550.902 160.39C566.285 154.884 581.3 148.23 596.561 142.377C610.033 137.023 623.32 131.609 636.236 124.988C646.216 119.873 655.864 113.964 665.587 108.377C668.722 106.941 676.008 102.473 679.061 102.241C675.454 114.137 630.002 142.777 617.141 151.062C611.721 154.553 604.284 157.939 599.832 162.538C599.611 163.801 599.662 163.725 600.399 164.789C608.73 169.617 632.666 166.674 642.095 164.484C679.538 155.788 714.528 137.952 741.807 110.751C745.925 106.644 751.349 102.107 754.426 97.1705C758.132 93.91 761.552 89.6112 764.732 85.8244C777.144 71.0416 787.55 54.9259 798.617 39.1515C807.734 26.1559 817.466 13.6799 825.582 0Z"/>
	<path fill="#FAF3DD" d="M879.408 0L927.949 0C923.202 10.5861 912.884 23.9724 906.068 33.7011C894.229 50.6862 880.945 66.6167 866.364 81.3149C862.767 84.9675 859.186 88.9334 855.281 92.2472C830.193 113.537 802.025 129.346 772.549 143.627C757.607 151.02 742.352 157.761 726.825 163.83C712.914 169.133 644.311 193.03 634.67 190.113C669.109 176.908 702.627 161.419 735.001 143.747C745.628 137.842 756.655 132.218 766.807 125.544C806.009 99.7729 838.578 64.2626 864.327 25.2238C869.704 17.0723 874.467 8.42424 879.408 0Z"/>
	<defs>
		<linearGradient id="gradient_0" gradientUnits="userSpaceOnUse" x1="188.90434" y1="621.5434" x2="934.2901" y2="-93.053566">
			<stop offset="0" stop-color="#FCF5C3"/>
			<stop offset="1" stop-color="#FFFEF9"/>
		</linearGradient>
	</defs>
	<path fill="url(#gradient_0)" d="M927.949 0L1024 0L1024 30.3415C991.145 35.3787 955.248 44.3454 934.503 72.6684C925.45 85.0273 918.791 100.457 921.282 116.087C923.025 127.027 930.124 135.974 939.001 142.231C957.805 155.483 986.215 157.73 1008.29 153.845C1013.44 152.938 1019.1 151.795 1024 149.967L1024 209.027C1007.38 218.597 991.652 229.686 975.358 239.785C942.133 260.377 906.725 279.309 869.709 292.105C863.274 293.253 856.305 296.407 850.044 298.44C840.176 301.645 830.039 304.414 819.983 306.986C769.198 319.976 712.731 328.67 660.265 327.669C650.312 327.479 640.188 327.318 630.352 325.676C662.862 316.247 703.346 295.527 725.003 269.12C731.065 261.728 739.909 251.202 738.618 240.936C738.125 237.008 735.829 233.556 732.644 231.266C707.691 213.322 621.641 255.478 591.699 260.224C591.555 260.247 591.41 260.267 591.265 260.288C587.006 259.544 576.678 262.67 572.173 263.919C571.383 264.138 571.038 264.134 570.257 263.948C570.794 263.394 570.453 263.609 571.285 263.396C574.496 262.571 582.896 258.658 585.527 259.204C586.776 259.463 587.71 259.294 588.942 259.083C587.727 258.48 584.631 257.761 583.38 258.169C580.88 258.985 578.776 260.695 576.156 261.458C569.156 263.497 560.842 265.376 553.579 266.168C549.408 266.624 544.893 266.139 540.673 266.144C531.827 266.155 523.044 266.331 514.19 266.144C510.614 266.069 497.977 264.808 495.825 267.435L495.183 267.455C488.482 267.598 481.678 266.764 474.987 266.318C452.99 264.852 431.194 262.134 409.278 259.838C394.133 258.251 378.843 256.82 363.624 256.224C350.209 255.698 336.683 255.92 323.258 255.959C291.631 256.048 255.024 255.377 231.327 279.677C222.698 288.526 215.81 298.914 207.31 307.83C187.193 328.935 164.15 345.507 139.311 360.595C128.671 367.058 118.013 373.311 106.592 378.316C92.258 384.597 77.3237 389.176 62.6837 394.635C39.6817 403.211 19.2063 414.76 0 430.015L0 416.033C10.8494 404.672 22.4813 394.04 35.6787 385.43C42.8134 380.775 50.6514 377.083 58.2671 373.282C74.366 365.249 90.6922 357.944 107.082 350.543C121.025 344.124 134.717 337.174 148.129 329.708C154.423 326.281 160.621 322.826 166.307 318.43C173.95 312.522 180.633 305.51 187.544 298.795C202.578 284.187 219.081 269.542 238.43 261.083C253.801 254.363 269.918 249.961 286.231 246.242C328.054 236.706 370.694 235.585 413.429 236.266C436.678 236.637 460.143 237.636 483.385 236.622C527.025 234.384 570.221 226.747 611.983 213.884C621.939 210.915 632.099 208.085 641.795 204.352C637.394 204.023 632.869 204.293 628.445 204.246L592.757 203.965C599.253 201.608 606.154 200.228 612.727 198.034C620.071 195.583 627.233 192.168 634.67 190.113C644.311 193.03 712.914 169.133 726.825 163.83C742.352 157.761 757.607 151.02 772.549 143.627C802.025 129.346 830.193 113.537 855.281 92.2472C859.186 88.9334 862.767 84.9675 866.364 81.3149C880.945 66.6167 894.229 50.6862 906.068 33.7011C912.884 23.9724 923.202 10.5861 927.949 0Z"/>
	<path fill="#F1C779" d="M1024 149.967C1019.1 151.795 1013.44 152.938 1008.29 153.845C986.215 157.73 957.805 155.483 939.001 142.231C930.124 135.974 923.025 127.027 921.282 116.087C918.791 100.457 925.45 85.0273 934.503 72.6684C955.248 44.3454 991.145 35.3787 1024 30.3415L1024 149.967Z"/>
	<defs>
		<linearGradient id="gradient_1" gradientUnits="userSpaceOnUse" x1="135.44493" y1="142.65593" x2="116.25383" y2="100.6561">
			<stop offset="0" stop-color="#FFF9D3"/>
			<stop offset="1" stop-color="white"/>
		</linearGradient>
	</defs>
	<path fill="url(#gradient_1)" d="M264.013 35.3426C257.189 37.5316 250.946 40.6077 244.834 44.3435C234.777 50.4918 225.638 58.0847 216.23 65.1658C202.594 75.4297 188.724 85.342 176.022 96.7742C157.752 113.217 141.533 130.786 121.044 144.682C94.0709 162.975 63.5926 178.437 33.0178 189.689C22.2002 193.671 10.6154 195.859 0 200.161L0 193.974C6.66353 190.159 15.5544 187.785 22.8324 185.077L24.4833 185.764C26.5411 185.55 28.2826 185.301 29.7524 183.714L29.1148 182.66C41.6419 176.666 54.4599 171.453 66.8503 165.085C84.6987 155.912 101.641 144.945 118.393 133.929C163.316 104.389 199.831 62.2258 249.175 39.3432C253.069 37.5377 259.138 34.3621 263.49 34.5215L264.013 35.3426Z"/>
	<path fill="#EEFDFE" d="M679.061 102.241C676.008 102.473 668.722 106.941 665.587 108.377L663.603 107.253C672.416 102.218 680.73 96.8689 688.649 90.5034C686.547 94.9752 683.705 98.9746 680.957 103.062L679.061 102.241Z"/>
	<path fill="#FAF3DD" d="M750.194 99.4496C750.861 99.9042 750.468 99.737 751.412 99.8565C752.49 99.016 753.453 98.1251 754.426 97.1705C751.349 102.107 745.925 106.644 741.807 110.751C714.528 137.952 679.538 155.788 642.095 164.484C632.666 166.674 608.73 169.617 600.399 164.789C599.662 163.725 599.611 163.801 599.832 162.538C604.284 157.939 611.721 154.553 617.141 151.062C630.002 142.777 675.454 114.137 679.061 102.241L680.957 103.062C668.768 120.081 650.725 130.61 633.613 141.862C622.568 149.21 611.44 156.432 600.233 163.529C605.978 164.823 611.851 165.463 617.74 165.435C651.754 165.494 695.564 146.353 722.22 125.733C732.473 117.801 741.045 108.543 750.194 99.4496Z"/>
	<path fill="#FAF3DD" d="M649.865 114.688C654.452 112.966 659.274 109.652 663.603 107.253L665.587 108.377C655.864 113.964 646.216 119.873 636.236 124.988C623.32 131.609 610.033 137.023 596.561 142.377C581.3 148.23 566.285 154.884 550.902 160.39C486.725 183.361 416.829 200.715 348.873 206.596C341.97 207.193 334.911 207.864 328.028 208.64C323.491 209.152 318.831 210.166 314.263 210.096C311.907 209.934 309.709 210.134 307.38 209.579L306.804 208.571C317.942 207.166 329.189 206.47 340.364 205.385C360.128 203.517 379.835 201.078 399.458 198.07C418.71 194.821 437.827 190.823 456.767 186.084C490.206 178.303 523.142 168.498 555.392 156.724C568.583 151.923 581.387 146.177 594.465 141.093C612.908 132.804 632.968 125.999 649.865 114.688Z"/>
	<path fill="#FAF3DD" d="M22.8324 185.077L29.1148 182.66L29.7524 183.714C28.2826 185.301 26.5411 185.55 24.4833 185.764L22.8324 185.077Z"/>
	<path fill="#FAF3DD" d="M3.08195 373.41C3.74986 372.621 4.42767 371.861 5.14859 371.118C29.2961 346.251 57.0223 330.817 89.9973 320.83C102.042 317.181 115.377 314.383 126.304 308.043C141.67 299.127 154.6 282.679 167.442 270.403C199.746 239.525 228.604 224.127 272.149 214.101C283.187 211.56 295.461 208.732 306.804 208.571L307.38 209.579C309.709 210.134 311.907 209.934 314.263 210.096C305.4 211.016 296.521 211.712 287.708 213.177C244.905 220.295 203.847 236.969 172.866 268.18C167.952 271.936 146.209 293.038 143.353 297.278C138.647 301.289 133.612 305.314 128.429 308.686C121.272 312.395 113.694 315.787 106.045 318.335C104.63 318.807 102.79 319.136 101.636 320.079C95.8534 320.196 89.717 322.732 84.1949 324.476C54.8551 333.521 28.2989 349.881 7.02563 372.019C6.23221 372.845 5.53597 373.754 4.87481 374.687L3.08195 373.41Z"/>
	<path fill="#F1C779" d="M869.709 292.105C906.725 279.309 942.133 260.377 975.358 239.785C991.652 229.686 1007.38 218.597 1024 209.027L1024 245.702L1024 280.369L1024 351.036C1011.66 353.686 999.587 359.36 987.51 363.159C967.799 369.36 940.083 375.548 919.441 375.636C913.155 375.663 906.922 374.842 900.721 373.892C896.505 373.246 891.65 372.75 887.73 370.999C886.547 370.47 886.059 370.12 885.567 368.935C890.914 359.382 966.354 345.366 981.93 327.692L982.397 327.154C979.587 322.399 975.856 318.626 971.184 315.69C952.393 303.88 911.289 298.209 889.127 295.706C886.186 295.373 872.543 294.478 870.957 293.502C870.425 293.175 870.125 292.571 869.709 292.105Z"/>
	<defs>
		<linearGradient id="gradient_2" gradientUnits="userSpaceOnUse" x1="494.21185" y1="238.68192" x2="515.24103" y2="465.98422">
			<stop offset="0" stop-color="#EDBC85"/>
			<stop offset="1" stop-color="#E8ACA8"/>
		</linearGradient>
	</defs>
	<path fill="url(#gradient_2)" d="M495.825 267.435C501.441 268.278 507.38 268.185 513.054 268.361C539.393 269.175 565.785 267.352 591.265 260.288C591.41 260.267 591.555 260.247 591.699 260.224C621.641 255.478 707.691 213.322 732.644 231.266C735.829 233.556 738.125 237.008 738.618 240.936C739.909 251.202 731.065 261.728 725.003 269.12C703.346 295.527 662.862 316.247 630.352 325.676C640.188 327.318 650.312 327.479 660.265 327.669C712.731 328.67 769.198 319.976 819.983 306.986C830.039 304.414 840.176 301.645 850.044 298.44C856.305 296.407 863.274 293.253 869.709 292.105C870.125 292.571 870.425 293.175 870.957 293.502C872.543 294.478 886.186 295.373 889.127 295.706C911.289 298.209 952.393 303.88 971.184 315.69C975.856 318.626 979.587 322.399 982.397 327.154L981.93 327.692C966.354 345.366 890.914 359.382 885.567 368.935C886.059 370.12 886.547 370.47 887.73 370.999C891.65 372.75 896.505 373.246 900.721 373.892C906.922 374.842 913.155 375.663 919.441 375.636C940.083 375.548 967.799 369.36 987.51 363.159C999.587 359.36 1011.66 353.686 1024 351.036L1024 392.359C1016.88 397.379 1008.17 401.182 1000.31 404.938C957.209 425.538 908.868 435.095 861.372 426.915C831.216 421.721 804.543 408.183 776.229 397.495C741.9 384.538 691.318 374.548 654.582 371.71C641.798 370.722 628.703 370.63 615.894 371.11C606.028 371.524 596.166 372.02 586.309 372.598C568.411 373.725 517.975 378.733 504.009 367.966L503.447 366.73C503.997 365.512 504.443 365.101 505.749 364.668C508.179 363.862 510.828 363.748 513.275 363.013C523.697 359.881 534.314 357.097 544.673 353.773C561.098 348.505 627.946 322.782 635.015 310.004C635.844 308.505 636.373 306.659 635.901 304.961C635.061 301.935 632.474 299.723 629.771 298.352C620.005 293.398 599.474 292.795 588.254 292.309C529.355 289.761 474.271 296.253 416.682 308.271C394.491 312.902 371.915 318.134 350.509 325.666C342.622 328.441 309.243 341.297 306.715 348.091C306.237 349.375 306.303 350.057 307.002 351.235C311.752 359.242 343.318 356.392 342.062 367.185C341.471 372.27 332.802 378.528 328.733 381.183C294.81 403.314 233.728 400.303 194.054 404.474C146.052 409.521 92.0847 425.038 52.2173 452.984C36.9604 463.679 24.0713 476.906 12.1997 491.181C8.04666 496.175 4.86126 502.379 0 506.686L0 430.015C19.2063 414.76 39.6817 403.211 62.6837 394.635C77.3237 389.176 92.258 384.597 106.592 378.316C118.013 373.311 128.671 367.058 139.311 360.595C164.15 345.507 187.193 328.935 207.31 307.83C215.81 298.914 222.698 288.526 231.327 279.677C255.024 255.377 291.631 256.048 323.258 255.959C336.683 255.92 350.209 255.698 363.624 256.224C378.843 256.82 394.133 258.251 409.278 259.838C431.194 262.134 452.99 264.852 474.987 266.318C481.678 266.764 488.482 267.598 495.183 267.455L495.825 267.435ZM623.248 358.792L621.687 359.537L621.55 360.421C625.076 364.382 670.274 368.29 678.774 369.655C705 373.866 730.727 379.364 756.157 387.069C773.532 392.333 790.45 399.152 807.758 404.657C833.665 412.897 861.951 418.283 889.091 419.85C907.489 420.913 927.235 420.475 945.32 416.8C953.46 415.146 961.199 412.293 969.048 409.638C980.277 405.839 991.275 402.02 1002.21 397.411C1005.07 396.237 1011.94 394.171 1013.28 391.521C1011.47 390.59 1008.74 391.05 1006.74 391.299C998.951 392.273 991.266 394.34 983.508 395.583C973.212 397.233 962.706 397.83 952.359 399.171C934.73 401.454 916.968 404.472 899.167 404.899C868.409 405.637 834.858 401.999 806.231 390.421C792.403 384.829 779.413 377.778 765.053 373.449C731.735 363.404 696.444 360.022 661.781 359.412C649.47 359.195 635.352 356.712 623.248 358.792Z"/>
	<path fill="#EEFDFE" d="M591.265 260.288C565.785 267.352 539.393 269.175 513.054 268.361C507.38 268.185 501.441 268.278 495.825 267.435C497.977 264.808 510.614 266.069 514.19 266.144C523.044 266.331 531.827 266.155 540.673 266.144C544.893 266.139 549.408 266.624 553.579 266.168C560.842 265.376 569.156 263.497 576.156 261.458C578.776 260.695 580.88 258.985 583.38 258.169C584.631 257.761 587.727 258.48 588.942 259.083C587.71 259.294 586.776 259.463 585.527 259.204C582.896 258.658 574.496 262.571 571.285 263.396C570.453 263.609 570.794 263.394 570.257 263.948C571.038 264.134 571.383 264.138 572.173 263.919C576.678 262.67 587.006 259.544 591.265 260.288Z"/>
	<path fill="#D4E09B" d="M143.353 297.278C146.209 293.038 167.952 271.936 172.866 268.18C172.281 269.631 165.533 276.159 163.846 278.391L165.973 276.48C161.465 282.428 148.539 296.394 142.709 300.451C138.237 305.065 134.847 307.79 128.429 308.686C133.612 305.314 138.647 301.289 143.353 297.278Z"/>
	<path fill="#F1C779" d="M0 506.686C4.86126 502.379 8.04666 496.175 12.1997 491.181C24.0713 476.906 36.9604 463.679 52.2173 452.984C92.0847 425.038 146.052 409.521 194.054 404.474C233.728 400.303 294.81 403.314 328.733 381.183C332.802 378.528 341.471 372.27 342.062 367.185C343.318 356.392 311.752 359.242 307.002 351.235C306.303 350.057 306.237 349.375 306.715 348.091C309.243 341.297 342.622 328.441 350.509 325.666C371.915 318.134 394.491 312.902 416.682 308.271C474.271 296.253 529.355 289.761 588.254 292.309C599.474 292.795 620.005 293.398 629.771 298.352C632.474 299.723 635.061 301.935 635.901 304.961C636.373 306.659 635.844 308.505 635.015 310.004C627.946 322.782 561.098 348.505 544.673 353.773C534.314 357.097 523.697 359.881 513.275 363.013C510.828 363.748 508.179 363.862 505.749 364.668C504.443 365.101 503.997 365.512 503.447 366.73L504.009 367.966C517.975 378.733 568.411 373.725 586.309 372.598C596.166 372.02 606.028 371.524 615.894 371.11C628.703 370.63 641.798 370.722 654.582 371.71C691.318 374.548 741.9 384.538 776.229 397.495C804.543 408.183 831.216 421.721 861.372 426.915C908.868 435.095 957.209 425.538 1000.31 404.938C1008.17 401.182 1016.88 397.379 1024 392.359L1024 439.313L1024 497.459L1024 517.243C972.91 523.443 921.775 543.464 876.294 507.853C855.923 491.904 841.61 470.093 824.291 451.196C782.803 405.926 717.335 388.517 657.662 388.078C630.037 387.675 602.408 388.547 574.864 390.691L523.207 394.948C505.44 396.35 486.066 398.555 468.405 395.382C460.757 394.007 451.709 391.502 450.741 382.488C450.313 378.507 450.81 374.488 450.434 370.492C448.41 367.519 446.646 365.767 443.037 364.99C440.248 364.389 437.138 364.683 434.313 364.885C417.797 366.065 402.313 373.833 388.839 383.083C367.876 397.473 353.378 414.358 329.124 424.788C298.113 438.124 260.023 438.57 226.88 437.142C211.899 436.497 196.957 436.19 182.078 438.388C135.359 445.29 86.5947 473.493 50.464 502.928C32.6487 517.443 16.2472 533.556 0 549.778L0 506.686Z"/>
	<path fill="#D4E09B" d="M4.87481 374.687C5.53597 373.754 6.23221 372.845 7.02563 372.019C28.2989 349.881 54.8551 333.521 84.1949 324.476C89.717 322.732 95.8534 320.196 101.636 320.079C101.49 320.159 101.346 320.24 101.199 320.317C97.9028 322.048 94.1628 322.831 90.68 324.132C85.0124 326.302 79.3903 328.589 73.8173 330.991C52.419 340.159 31.4331 352.849 14.4017 368.891C10.4182 372.643 6.80764 376.9 3.09461 380.918C2.70758 380.205 2.35397 379.607 2.37175 378.762C2.40635 377.117 3.81111 375.803 4.87481 374.687Z"/>
	<path fill="#EEBCA8" d="M1002.21 397.411C991.275 402.02 980.277 405.839 969.048 409.638C961.199 412.293 953.46 415.146 945.32 416.8C927.235 420.475 907.489 420.913 889.091 419.85C861.951 418.283 833.665 412.897 807.758 404.657C790.45 399.152 773.532 392.333 756.157 387.069C730.727 379.364 705 373.866 678.774 369.655C670.274 368.29 625.076 364.382 621.55 360.421L621.687 359.537L623.248 358.792C635.352 356.712 649.47 359.195 661.781 359.412C696.444 360.022 731.735 363.404 765.053 373.449C779.413 377.778 792.403 384.829 806.231 390.421C834.858 401.999 868.409 405.637 899.167 404.899C916.968 404.472 934.73 401.454 952.359 399.171C962.706 397.83 973.212 397.233 983.508 395.583C991.266 394.34 998.951 392.273 1006.74 391.299C1008.74 391.05 1011.47 390.59 1013.28 391.521C1011.94 394.171 1005.07 396.237 1002.21 397.411Z"/>
	<path fill="#FAF3DD" d="M450.434 370.492C450.81 374.488 450.313 378.507 450.741 382.488C451.709 391.502 460.757 394.007 468.405 395.382C486.066 398.555 505.44 396.35 523.207 394.948L574.864 390.691C602.408 388.547 630.037 387.675 657.662 388.078C717.335 388.517 782.803 405.926 824.291 451.196C841.61 470.093 855.923 491.904 876.294 507.853C921.775 543.464 972.91 523.443 1024 517.243L1024 621.481C1010.39 621.538 997.058 621.354 983.548 619.477C945.78 614.229 910.473 597.032 875.392 583.01C858.971 576.447 842.041 569.137 824.622 565.729C818.644 565.2 812.732 564.608 806.729 565.141C784.151 567.146 763.456 581.554 746.555 595.763C745.453 596.708 744.336 597.637 743.206 598.548C712.619 563.257 672.539 537.882 629.178 521.066C559.575 493.275 481.685 494.845 413.259 525.419C406.414 528.38 399.7 531.635 393.136 535.176C386.527 538.778 353.109 558.774 351.271 563.504L351.859 564.192C321.846 567.974 290.953 568.587 260.731 567.722C248.841 567.382 236.851 566.106 224.991 566.008C209.143 565.767 192.955 565.248 177.143 566.326C129.356 569.583 84.0115 586.708 43.2919 611.478C32.549 618.013 21.9646 625.316 11.6293 632.487C7.72099 635.198 4.11194 638.545 0 640.919L0 549.778C16.2472 533.556 32.6487 517.443 50.464 502.928C86.5947 473.493 135.359 445.29 182.078 438.388C196.957 436.19 211.899 436.497 226.88 437.142C260.023 438.57 298.113 438.124 329.124 424.788C353.378 414.358 367.876 397.473 388.839 383.083C402.313 373.833 417.797 366.065 434.313 364.885C437.138 364.683 440.248 364.389 443.037 364.99C446.646 365.767 448.41 367.519 450.434 370.492Z"/>
	<path fill="#FAF3DD" d="M0 376.798L3.08195 373.41L4.87481 374.687C3.81111 375.803 2.40635 377.117 2.37175 378.762C2.35397 379.607 2.70758 380.205 3.09461 380.918L0 384.249L0 376.798Z"/>
	<path fill="#D4E09B" d="M351.859 564.192L351.271 563.504C353.109 558.774 386.527 538.778 393.136 535.176C399.7 531.635 406.414 528.38 413.259 525.419C481.685 494.845 559.575 493.275 629.178 521.066C672.539 537.882 712.619 563.257 743.206 598.548C742.483 599.222 741.675 599.846 740.903 600.466C709.351 625.818 688.171 590.888 660.7 588.122C642.24 586.263 626.066 605.369 614.166 617.027C606.243 624.789 598.368 632.729 589.702 639.674C579.474 647.871 572.361 653.162 558.682 651.663C552.257 646.907 548.947 639.332 543.164 633.96C540.334 631.332 536.457 629.487 532.831 628.202C512.181 620.881 494.321 633.732 474.08 634.129C467.033 634.267 461.005 632.228 455.082 628.512C432.168 614.134 432.611 590.87 415.258 574.439C398.957 559.004 372.494 563.515 351.859 564.192Z"/>
	<path fill="#B8F2E6" d="M351.859 564.192C372.494 563.515 398.957 559.004 415.258 574.439C432.611 590.87 432.168 614.134 455.082 628.512C461.005 632.228 467.033 634.267 474.08 634.129C494.321 633.732 512.181 620.881 532.831 628.202C536.457 629.487 540.334 631.332 543.164 633.96C548.947 639.332 552.257 646.907 558.682 651.663C572.361 653.162 579.474 647.871 589.702 639.674C598.368 632.729 606.243 624.789 614.166 617.027C626.066 605.369 642.24 586.263 660.7 588.122C688.171 590.888 709.351 625.818 740.903 600.466C741.675 599.846 742.483 599.222 743.206 598.548C744.336 597.637 745.453 596.708 746.555 595.763C763.456 581.554 784.151 567.146 806.729 565.141C812.732 564.608 818.644 565.2 824.622 565.729C842.041 569.137 858.971 576.447 875.392 583.01C910.473 597.032 945.78 614.229 983.548 619.477C997.058 621.354 1010.39 621.538 1024 621.481L1024 638.801C985.495 643 918.702 653.004 893.251 684.843C887.197 692.418 882.82 702.109 883.932 712.003C885.188 723.182 894.219 731.54 902.625 738.035C911.219 744.676 920.728 749.621 930.507 754.241C916.89 751.51 903.303 749.193 890.019 745.07C895.383 749.949 900.86 755.641 906.882 759.66C924.222 771.232 951.642 779.16 972.333 781.471C983.126 782.676 994.602 782.609 1005.44 782.1C1011.72 781.806 1017.82 780.851 1024 779.818L1024 780.841C1011.57 785.77 1000.11 790.288 986.774 792.516C937.939 800.672 892.708 779.15 849.482 759.531C836.192 753.52 822.783 747.776 809.263 742.302C794.984 736.417 773.523 728.027 758.686 725.236C746.793 722.998 734.374 723.495 722.318 723.499L721.525 722.871C721.336 722.972 721.05 722.99 720.965 723.186C726.893 721.108 735.055 721.085 741.418 719.639C751.838 717.27 761.963 713.951 772.269 711.175C786.229 707.414 800.739 704.707 813.965 698.681C837.235 688.079 852.873 667.517 874.045 653.934C881.861 648.919 890.688 645.281 899.544 642.563C903.073 641.48 907.1 640.97 910.441 639.402C911.569 638.873 911.99 638.581 912.412 637.372C912.151 636.897 912.153 636.828 911.69 636.4C906.032 631.163 874.287 629.415 866.258 630.361C837.976 633.693 830.916 649.018 814.866 669.165C806.517 679.645 795.989 685.893 783.589 690.616C761.334 699.093 710.019 704.512 685.741 704.807C677.329 704.91 668.635 704.379 660.279 703.361C645.057 701.507 630.362 697.57 615.46 694.117C601.625 690.86 587.644 688.261 573.564 686.327C566.168 685.344 558.607 684.484 551.151 684.18C530.806 683.349 511.663 684.21 492.195 677.039C470.326 668.983 452.624 655.104 433.887 641.709C411.959 626.034 388.481 614.649 361.55 610.841C327.901 606.084 292.314 613.017 262.585 629.321C258.515 631.553 245.852 641.374 242.505 641.48C241.824 641.501 241.145 640.764 240.764 640.274C239.462 638.6 239.453 636.051 239.967 634.095C243.348 621.228 269.791 607.841 281.008 601.738C271.39 598.629 260.175 598.906 250.29 600.615C229.126 604.275 204.706 614.032 193.759 633.692C191.191 638.303 189.562 643.86 188.229 648.941C187.063 653.389 186.869 661.658 184.155 665.153C180.495 669.868 174.158 670.262 168.707 670.786C176.815 674.376 186.696 675.348 195.387 677.117C232.088 684.589 249.229 678.933 282.343 663.966C293.041 659.131 303.407 654.61 314.72 651.369C335.109 645.528 356.276 642.105 377.459 645.349C415.285 651.14 469.191 687.149 500.414 709.522C509.409 715.967 518.517 722.364 527.021 729.452C551.588 749.928 574.048 772.473 602.245 788.105C592.593 788.89 582.746 787.027 573.268 785.369C550.027 781.301 534.058 775.727 512.331 766.535C481.114 753.33 461.035 741.74 433.094 722.432L432.363 722.536C436.514 726.699 442.948 730.088 447.947 733.362C470.265 747.978 487.13 756.553 511.556 767.034C525.74 773.119 538.947 778.391 553.965 782.221C566.747 785.48 582.89 788.888 595.977 788.93C597.041 788.934 601.599 788.684 601.836 789.555C600.322 790.039 596.626 790.416 595.649 791.293C591.827 791.105 587.689 792.012 583.846 792.375C576.852 793.104 569.818 793.371 562.789 793.173C561.006 793.114 558.609 793.275 556.961 792.674C555.968 792.312 555.041 792.04 554.011 791.786L553.582 792.131C555.705 794.223 559.131 793.196 561.1 795.688C561.373 796.887 561.381 797.502 561.051 798.689C541.532 792.179 521.096 785.769 502.67 776.584C490.39 770.604 478.347 764.15 466.568 757.236C460.614 753.768 439.877 739.321 435.469 738.238C428.974 734.854 421.305 727.944 415.43 723.29C397.444 709.045 379.189 692.56 357.113 685.034C350.755 682.867 344.03 681.662 337.457 680.309C341.8 683.136 346.693 686.975 348.69 691.888C349.633 694.209 349.959 697.183 348.844 699.506C347.681 701.928 345.118 703.178 342.664 703.906C326.224 708.785 286.277 697.255 268.821 693.37C259.644 691.374 250.426 689.577 241.171 687.981C223.584 684.96 205.381 683.111 187.562 682.15C178.208 681.646 148.767 684.031 142.383 679.634C141.24 678.847 140.479 677.777 140.211 676.407C139.05 670.463 147.41 661.129 150.81 656.399C147.099 653.707 143.089 652.665 138.521 652.549C108.36 651.781 55.4953 688.924 32.2847 707.808C20.9711 717.012 10.5866 726.972 0 736.978L0 719.457C0.279863 719.283 0.562417 719.113 0.839588 718.935C9.14242 713.603 17.7034 700.081 23.9583 692.184C28.3563 686.705 32.965 681.398 37.7741 676.276C51.7831 661.255 67.7188 648.074 84.1356 635.778C89.0075 632.129 108.908 618.805 109.956 613.415C109.173 612.344 108.602 612.198 107.325 612.015C101.265 611.15 93.9142 612.637 87.9781 613.91C54.0421 621.186 26.9025 642.251 0 662.934L0 640.919C4.11194 638.545 7.72099 635.198 11.6293 632.487C21.9646 625.316 32.549 618.013 43.2919 611.478C84.0115 586.708 129.356 569.583 177.143 566.326C192.955 565.248 209.143 565.767 224.991 566.008C236.851 566.106 248.841 567.382 260.731 567.722C290.953 568.587 321.846 567.974 351.859 564.192ZM196.263 615.584C183.691 618.002 158.14 626.707 148.254 634.52C153.853 633.183 163.603 630.338 168.781 633.732C169.629 634.288 169.935 634.649 170.383 635.524C170.614 642.524 163.307 655.814 159.118 661.59C156.515 665.037 155.344 669.194 151.314 671.164L152.081 670.941L152.378 671.246C158.921 670.296 172.096 664.262 176.012 658.809C178.991 654.66 180.205 649.003 181.864 644.243C183.835 638.585 186.172 632.579 189.235 627.43C190.807 624.787 197.398 617.729 197.654 615.757L196.263 615.584ZM846.983 698.606C840.702 702.543 811.581 719.544 809.805 724.683C810.338 726.832 811.565 727.705 813.379 728.837C818.36 731.946 824.336 734 829.741 736.287C841.723 741.355 853.971 746.096 865.799 751.489C874.806 754.905 883.855 759.249 893.24 761.478C875.988 750.23 851.74 734.101 847.34 712.518C846.466 708.231 846.839 703.411 847.276 699.07L846.983 698.606Z"/>
	<path fill="#B8F2E6" d="M432.363 722.536L433.094 722.432C461.035 741.74 481.114 753.33 512.331 766.535C534.058 775.727 550.027 781.301 573.268 785.369C582.746 787.027 592.593 788.89 602.245 788.105C574.048 772.473 551.588 749.928 527.021 729.452C518.517 722.364 509.409 715.967 500.414 709.522C469.191 687.149 415.285 651.14 377.459 645.349C356.276 642.105 335.109 645.528 314.72 651.369C303.407 654.61 293.041 659.131 282.343 663.966C249.229 678.933 232.088 684.589 195.387 677.117C186.696 675.348 176.815 674.376 168.707 670.786C174.158 670.262 180.495 669.868 184.155 665.153C186.869 661.658 187.063 653.389 188.229 648.941C189.562 643.86 191.191 638.303 193.759 633.692C204.706 614.032 229.126 604.275 250.29 600.615C260.175 598.906 271.39 598.629 281.008 601.738C269.791 607.841 243.348 621.228 239.967 634.095C239.453 636.051 239.462 638.6 240.764 640.274C241.145 640.764 241.824 641.501 242.505 641.48C245.852 641.374 258.515 631.553 262.585 629.321C292.314 613.017 327.901 606.084 361.55 610.841C388.481 614.649 411.959 626.034 433.887 641.709C452.624 655.104 470.326 668.983 492.195 677.039C511.663 684.21 530.806 683.349 551.151 684.18C558.607 684.484 566.168 685.344 573.564 686.327C587.644 688.261 601.625 690.86 615.46 694.117C630.362 697.57 645.057 701.507 660.279 703.361C668.635 704.379 677.329 704.91 685.741 704.807C710.019 704.512 761.334 699.093 783.589 690.616C795.989 685.893 806.517 679.645 814.866 669.165C830.916 649.018 837.976 633.693 866.258 630.361C874.287 629.415 906.032 631.163 911.69 636.4C912.153 636.828 912.151 636.897 912.412 637.372C911.99 638.581 911.569 638.873 910.441 639.402C907.1 640.97 903.073 641.48 899.544 642.563C890.688 645.281 881.861 648.919 874.045 653.934C852.873 667.517 837.235 688.079 813.965 698.681C800.739 704.707 786.229 707.414 772.269 711.175C761.963 713.951 751.838 717.27 741.418 719.639C735.055 721.085 726.893 721.108 720.965 723.186C721.05 722.99 721.336 722.972 721.525 722.871L722.318 723.499C734.374 723.495 746.793 722.998 758.686 725.236C773.523 728.027 794.984 736.417 809.263 742.302C822.783 747.776 836.192 753.52 849.482 759.531C892.708 779.15 937.939 800.672 986.774 792.516C1000.11 790.288 1011.57 785.77 1024 780.841L1024 802.987C1002.06 809.172 984.746 810.913 962.023 809.124C955.758 808.63 949.449 808.139 943.263 806.996C938.101 805.311 932.88 802.875 927.775 800.902C910.186 793.974 892.785 786.578 875.59 778.721C864.251 773.515 853.066 767.933 841.57 763.079C813.36 751.168 780.812 740.389 750.156 737.878C730.087 736.234 710.204 736.995 690.247 733.388C677.937 731.059 665.752 728.111 653.739 724.557C621.386 715.162 578.76 699.522 545.503 713.063C559.126 731.394 589.815 752.51 609.49 764.774C618.025 770.093 627.1 774.59 635.069 780.767C631.256 785.043 604.308 790.784 597.448 791.321C596.849 791.368 596.247 791.358 595.649 791.293C596.626 790.416 600.322 790.039 601.836 789.555C601.599 788.684 597.041 788.934 595.977 788.93C582.89 788.888 566.747 785.48 553.965 782.221C538.947 778.391 525.74 773.119 511.556 767.034C487.13 756.553 470.265 747.978 447.947 733.362C442.948 730.088 436.514 726.699 432.363 722.536Z"/>
	<path fill="#B8F2E6" d="M0 662.934C26.9025 642.251 54.0421 621.186 87.9781 613.91C93.9142 612.637 101.265 611.15 107.325 612.015C108.602 612.198 109.173 612.344 109.956 613.415C108.908 618.805 89.0075 632.129 84.1356 635.778C67.7188 648.074 51.7831 661.255 37.7741 676.276C32.965 681.398 28.3563 686.705 23.9583 692.184C17.7034 700.081 9.14242 713.603 0.839588 718.935C0.562417 719.113 0.279863 719.283 0 719.457L0 662.934Z"/>
	<path fill="#EEFDFE" d="M148.254 634.52C158.14 626.707 183.691 618.002 196.263 615.584L197.654 615.757C197.398 617.729 190.807 624.787 189.235 627.43C186.172 632.579 183.835 638.585 181.864 644.243C180.205 649.003 178.991 654.66 176.012 658.809C172.096 664.262 158.921 670.296 152.378 671.246L152.081 670.941L151.314 671.164C155.344 669.194 156.515 665.037 159.118 661.59C163.307 655.814 170.614 642.524 170.383 635.524C169.935 634.649 169.629 634.288 168.781 633.732C163.603 630.338 153.853 633.183 148.254 634.52Z"/>
	<path fill="#B8F2E6" d="M930.507 754.241C920.728 749.621 911.219 744.676 902.625 738.035C894.219 731.54 885.188 723.182 883.932 712.003C882.82 702.109 887.197 692.418 893.251 684.843C918.702 653.004 985.495 643 1024 638.801L1024 667.87C1013.4 675.905 988.74 696.141 987.206 709.23C986.595 714.452 989.378 719.084 992.619 722.929C999.315 730.871 1006.43 733.749 1005.98 745.317C1002.04 751.427 996.223 753.773 989.366 755.245C970.661 759.261 950.28 757.468 931.582 754.447C950.785 763.221 971.638 769.675 992.891 769.38C1003.27 769.236 1013.6 768.002 1024 767.93L1024 779.818C1017.82 780.851 1011.72 781.806 1005.44 782.1C994.602 782.609 983.126 782.676 972.333 781.471C951.642 779.16 924.222 771.232 906.882 759.66C900.86 755.641 895.383 749.949 890.019 745.07C903.303 749.193 916.89 751.51 930.507 754.241Z"/>
	<path fill="#6FB0A1" d="M0 736.978C10.5866 726.972 20.9711 717.012 32.2847 707.808C55.4953 688.924 108.36 651.781 138.521 652.549C143.089 652.665 147.099 653.707 150.81 656.399C147.41 661.129 139.05 670.463 140.211 676.407C140.479 677.777 141.24 678.847 142.383 679.634C148.767 684.031 178.208 681.646 187.562 682.15C205.381 683.111 223.584 684.96 241.171 687.981C250.426 689.577 259.644 691.374 268.821 693.37C286.277 697.255 326.224 708.785 342.664 703.906C345.118 703.178 347.681 701.928 348.844 699.506C349.959 697.183 349.633 694.209 348.69 691.888C346.693 686.975 341.8 683.136 337.457 680.309C344.03 681.662 350.755 682.867 357.113 685.034C379.189 692.56 397.444 709.045 415.43 723.29C421.305 727.944 428.974 734.854 435.469 738.238C446.196 747.691 471.316 761.476 484.43 768.38C490.196 771.416 496.711 774.023 502.085 777.655C502.979 782.757 507.828 787.86 510.969 791.805C497.435 797.608 433.636 772.234 418.832 766.221L395.306 756.463C391.18 754.742 386.941 752.688 382.678 751.356C381.213 750.898 380.6 750.785 379.128 751.164C378.313 750.701 377.567 750.521 376.669 750.272C354.939 735.34 326.619 731.701 301.311 726.777C245.835 715.986 190.653 707.807 134 711.607C123.319 712.324 112.78 713 102.239 714.951C96.1379 716.08 90.1867 717.871 84.2382 719.611C59.1623 726.949 41.9234 735.605 19.6244 749.201C13.0448 753.213 6.37907 757.127 0 761.452L0 736.978Z"/>
	<path fill="#8CD1BF" d="M1005.98 745.317C1006.43 733.749 999.315 730.871 992.619 722.929C989.378 719.084 986.595 714.452 987.206 709.23C988.74 696.141 1013.4 675.905 1024 667.87L1024 767.93C1013.6 768.002 1003.27 769.236 992.891 769.38C971.638 769.675 950.785 763.221 931.582 754.447C950.28 757.468 970.661 759.261 989.366 755.245C996.223 753.773 1002.04 751.427 1005.98 745.317Z"/>
	<path fill="#EEFDFE" d="M865.799 751.489C853.971 746.096 841.723 741.355 829.741 736.287C824.336 734 818.36 731.946 813.379 728.837C811.565 727.705 810.338 726.832 809.805 724.683C811.581 719.544 840.702 702.543 846.983 698.606L847.276 699.07C846.839 703.411 846.466 708.231 847.34 712.518C851.74 734.101 875.988 750.23 893.24 761.478C883.855 759.249 874.806 754.905 865.799 751.489Z"/>
	<path fill="#6FB0A1" d="M635.069 780.767C627.1 774.59 618.025 770.093 609.49 764.774C589.815 752.51 559.126 731.394 545.503 713.063C578.76 699.522 621.386 715.162 653.739 724.557C665.752 728.111 677.937 731.059 690.247 733.388C710.204 736.995 730.087 736.234 750.156 737.878C780.812 740.389 813.36 751.168 841.57 763.079C853.066 767.933 864.251 773.515 875.59 778.721C892.785 786.578 910.186 793.974 927.775 800.902C932.88 802.875 938.101 805.311 943.263 806.996C904.415 807.006 866.414 792.376 831.206 777.504C806.519 767.077 780.694 755.792 753.957 752.003C739.302 749.926 724.274 750.509 709.655 752.671C695.897 754.705 682.026 758.204 669.653 764.668C681.434 767.415 694.339 767.694 706.376 768.92C724.968 770.814 744.06 773.557 762.231 777.941C804.351 788.102 842.313 811.073 883.978 823.106C912.366 831.162 941.411 836.693 970.774 839.634C977.974 840.307 985.198 840.705 992.429 840.829C996.172 840.921 1000.53 840.399 1004.15 841.103C994.803 842.248 985.471 842.096 976.073 842.086C971.58 842.003 967.286 840.893 962.804 840.678C956.021 840.354 949.034 840.926 942.229 841.058C934.129 841.125 925.825 839.682 917.79 838.681C908.825 836.898 897.34 834.866 888.35 836.274C880.452 834.811 872.575 832.41 864.859 830.197C839.549 822.938 815.256 813.416 790.637 804.186C777.443 799.238 764.34 794.186 750.659 790.72C753.501 795.121 762.593 803.709 762.977 808.298C757.05 812.527 716.933 793.513 708.233 790.198C701.718 787.715 694.88 785.654 688.111 783.986C673.231 780.318 650.124 778.19 635.069 780.767Z"/>
	<path fill="#8CD1BF" d="M0 761.452C6.37907 757.127 13.0448 753.213 19.6244 749.201C41.9234 735.605 59.1623 726.949 84.2382 719.611C90.1867 717.871 96.1379 716.08 102.239 714.951C112.78 713 123.319 712.324 134 711.607C190.653 707.807 245.835 715.986 301.311 726.777C326.619 731.701 354.939 735.34 376.669 750.272C387.89 763.382 399.877 776.581 413.837 786.852C435.272 802.622 462.085 813.382 486.525 823.713C510.179 833.712 533.84 843.389 558.148 851.704C553.618 852.437 539.142 847.713 533.966 846.533C522.685 843.961 511.29 841.748 500.172 838.519C475.172 831.258 451.953 820.972 428.332 810.263C418.973 806.019 409.832 801.157 400.633 796.572C394.817 793.673 388.932 790.331 382.605 788.729C370.843 783.249 359.683 776.563 347.963 770.988C306.679 751.353 264.156 735.865 219.12 727.448C173.405 718.905 120.579 715.262 75.7328 729.918C48.6323 738.775 23.4085 753.582 0 769.622L0 761.452Z"/>
	<path fill="#AD6402" d="M0 769.622C23.4085 753.582 48.6323 738.775 75.7328 729.918C120.579 715.262 173.405 718.905 219.12 727.448C264.156 735.865 306.679 751.353 347.963 770.988C359.683 776.563 370.843 783.249 382.605 788.729C392.214 797.248 409.015 806.15 420.735 812.193C430.407 817.181 439.852 822.675 449.802 827.106C466.073 834.353 482.611 839.491 499.731 844.282C517.203 849.171 533.607 853.314 551.752 855.029C555.44 855.701 569.481 858.527 572.184 856.908C572.299 856.839 572.395 856.74 572.5 856.655C577.978 857.847 583.382 859.437 588.864 860.661C593.565 861.711 600.237 862.264 604.538 864.266C600.791 864.927 595.64 863.793 591.635 863.908C582.488 864.171 573.537 865.024 564.388 864.083C549.346 862.535 534.465 858.519 519.835 854.822C481.673 845.178 444.39 833.61 408.443 817.475C376.184 802.996 344.577 786.794 311.334 774.614C302.059 771.216 292.258 767.575 282.608 765.479C278.114 764.503 271.897 763.675 267.93 766.463C266.407 767.534 265.334 769.284 265.106 771.137C264.26 778.027 275.686 785.832 280.961 788.693C295.141 796.383 345.15 812.502 352.942 823.537C354.06 825.121 354.791 827.482 354.177 829.397C353.761 830.693 352.635 831.573 351.478 832.185C346.377 834.884 338.881 833.936 333.348 833.421C270.653 827.59 208.55 789.814 147.834 772.382C106.053 760.387 67.5129 755.183 25.309 769.484C16.7082 772.399 7.95049 775.764 0 780.168L0 769.622Z"/>
	<path fill="#8CD1BF" d="M435.469 738.238C439.877 739.321 460.614 753.768 466.568 757.236C478.347 764.15 490.39 770.604 502.67 776.584C521.096 785.769 541.532 792.179 561.051 798.689C561.381 797.502 561.373 796.887 561.1 795.688C559.131 793.196 555.705 794.223 553.582 792.131L554.011 791.786C555.041 792.04 555.968 792.312 556.961 792.674C558.609 793.275 561.006 793.114 562.789 793.173C569.818 793.371 576.852 793.104 583.846 792.375C587.689 792.012 591.827 791.105 595.649 791.293C596.247 791.358 596.849 791.368 597.448 791.321C604.308 790.784 631.256 785.043 635.069 780.767C650.124 778.19 673.231 780.318 688.111 783.986C694.88 785.654 701.718 787.715 708.233 790.198C716.933 793.513 757.05 812.527 762.977 808.298C762.593 803.709 753.501 795.121 750.659 790.72C764.34 794.186 777.443 799.238 790.637 804.186C815.256 813.416 839.549 822.938 864.859 830.197C872.575 832.41 880.452 834.811 888.35 836.274C889.357 836.585 890.679 836.798 891.474 837.486L891.358 837.59C883.316 837.379 874.544 834.864 866.708 833.027C843.31 827.541 813.019 818.452 789.193 823.706C783.684 824.921 778.752 827.326 773.706 829.756C754.458 826.749 736.043 822.244 718.041 814.756C706.154 809.811 694.456 803.205 681.868 800.227L678.181 797.702C675.041 797.463 671.697 797.183 668.561 797.55C662.355 798.275 656.398 800.913 650.539 802.959C644.67 805.008 638.681 806.823 632.592 808.085C621.309 810.306 609.741 810.677 598.34 809.183C573.529 805.979 531.33 790.152 507.513 780.199L502.085 777.655C496.711 774.023 490.196 771.416 484.43 768.38C471.316 761.476 446.196 747.691 435.469 738.238Z"/>
	<path fill="#652401" d="M376.669 750.272C377.567 750.521 378.313 750.701 379.128 751.164L380.501 752.22C382.666 757.087 388.005 760.932 391.948 764.35C409.45 779.522 430.348 794.85 452.09 803.173C460.455 806.374 468.976 809.449 477.573 811.973C486.971 814.733 496.557 817.001 505.858 820.069C514.171 822.811 522.33 826.1 530.556 829.093C546.436 834.909 562.4 840.488 578.445 845.83C586.317 849.473 594.772 851.691 603.419 852.381C621.097 855.717 638.277 853.24 655.887 851.081C663.571 850.139 671.268 849.059 679.024 849.673C693.885 850.85 707.885 856.608 722.369 859.804C748.845 865.646 774.61 867.12 801.598 866.926C813.916 867.703 826.46 869.207 838.804 868.555C844.435 868.563 850.049 869.012 855.688 868.886C864.33 868.692 872.903 867.729 881.515 867.102C881.808 867.259 882.083 867.458 882.395 867.573C886.068 868.924 927.172 861.961 930.882 860.295C929.439 859.891 927.69 859.996 926.181 859.945C933.519 856.958 942.964 856.424 950.831 855.087C960.113 853.51 969.117 850.75 978.439 849.457C993.556 847.361 1008.91 846.989 1024 844.53L1024 923.164C997.853 916.469 971.534 910.463 945.071 905.151C913.408 898.548 881.167 892.506 848.867 890.058C788.04 885.532 726.986 884.9 666.078 888.166C646.682 889.225 627.328 891.586 607.952 893.033C571.547 895.989 535.023 897.228 498.501 896.746C435.863 895.218 373.311 891.208 310.99 884.727C229.643 876.997 147.66 867.653 65.8434 873.752C43.6716 875.404 21.8804 878.483 0 882.307L0 849.098C22.0929 846.039 44.1572 843.31 66.4518 842.224C88.6902 841.141 111.571 841.77 133.798 842.925C168.996 844.753 204.004 849.737 238.899 854.474C278.008 859.49 317.072 864.849 356.087 870.548C448.013 883.325 531.691 893.574 624.319 878.861C635.215 877.13 648.364 876.514 658.749 874.044C667.938 873.038 677.152 872.269 686.381 871.737C681.153 870.909 675.631 870.842 670.337 870.541C655.374 869.689 640.485 869.659 625.507 869.525C613.115 869.414 600.811 868.485 588.411 868.801C572.115 869.216 556.045 870.541 539.755 869.174C523.545 867.813 508.758 862.078 493.085 858.434C464.858 851.678 436.445 845.729 407.88 840.594C415.679 845.162 425.283 848.381 433.961 850.848C444.088 853.727 464.295 857.572 472.19 863.578C473.466 864.548 474.756 865.746 474.854 867.445C474.904 868.306 474.471 868.456 473.932 869.045C460.929 874.317 393.103 859.967 376.988 857.286C362.413 854.949 347.802 852.848 333.16 850.985C323.706 848.372 313.57 847.562 303.956 845.515C287.462 842.003 271.443 837.062 255.461 831.726C184.43 808.011 116.075 771.961 38.8149 788.303C25.4703 791.126 12.7167 795.526 0 800.383L0 780.168C7.95049 775.764 16.7082 772.399 25.309 769.484C67.5129 755.183 106.053 760.387 147.834 772.382C208.55 789.814 270.653 827.59 333.348 833.421C338.881 833.936 346.377 834.884 351.478 832.185C352.635 831.573 353.761 830.693 354.177 829.397C354.791 827.482 354.06 825.121 352.942 823.537C345.15 812.502 295.141 796.383 280.961 788.693C275.686 785.832 264.26 778.027 265.106 771.137C265.334 769.284 266.407 767.534 267.93 766.463C271.897 763.675 278.114 764.503 282.608 765.479C292.258 767.575 302.059 771.216 311.334 774.614C344.577 786.794 376.184 802.996 408.443 817.475C444.39 833.61 481.673 845.178 519.835 854.822C534.465 858.519 549.346 862.535 564.388 864.083C573.537 865.024 582.488 864.171 591.635 863.908C595.64 863.793 600.791 864.927 604.538 864.266C600.237 862.264 593.565 861.711 588.864 860.661C583.382 859.437 577.978 857.847 572.5 856.655C568.685 855.432 564.899 854.206 561.179 852.714C560.183 852.272 559.194 851.998 558.148 851.704C533.84 843.389 510.179 833.712 486.525 823.713C462.085 813.382 435.272 802.622 413.837 786.852C399.877 776.581 387.89 763.382 376.669 750.272Z"/>
	<path fill="#8CD1BF" d="M379.128 751.164C380.6 750.785 381.213 750.898 382.678 751.356C386.941 752.688 391.18 754.742 395.306 756.463L418.832 766.221C433.636 772.234 497.435 797.608 510.969 791.805C523.297 806.308 561.695 824.744 580.141 830.297C589.394 833.083 598.81 834.687 608.432 835.465C631.883 837.359 655.513 833.055 678.813 835.465C708.28 838.514 732.694 849.695 763.842 850.02C769.083 850.074 774.312 850.116 779.476 849.089C798.096 845.386 801.385 839.348 823.053 841.007C837.031 842.077 849.96 847.561 863.362 851.176C881.621 856.101 900.179 858.471 919.054 859.148C917.552 859.809 916.42 859.972 914.787 860.051C905.476 860.534 892.159 862.145 883.254 861.328C877.348 860.41 871.223 860.381 865.438 858.748C860.704 857.411 856.114 855.308 851.483 853.639C843.29 850.685 834.394 848.566 825.692 847.961C812.642 847.054 800.624 850.865 787.979 853.213C780.827 854.504 773.573 855.141 766.306 855.119C747.298 855 729.129 851.462 710.586 847.687C701.056 845.747 691.435 843.474 681.744 842.524C655.71 839.972 629.532 845.405 603.502 843.235C596.484 842.65 589.333 841.737 582.527 839.911C575.497 838.025 568.683 835.497 561.598 833.774C544.475 829.084 530.937 815.527 514.782 808.876C507.325 805.806 499.18 804.852 491.299 803.425C482.97 801.917 474.618 800.146 466.513 797.688C434.459 787.962 408.809 769.137 380.501 752.22L379.128 751.164Z"/>
	<path fill="#599586" d="M943.263 806.996C949.449 808.139 955.758 808.63 962.023 809.124C984.746 810.913 1002.06 809.172 1024 802.987L1024 838.58C1017.42 839.509 1010.77 840.5 1004.15 841.103C1000.53 840.399 996.172 840.921 992.429 840.829C985.198 840.705 977.974 840.307 970.774 839.634C941.411 836.693 912.366 831.162 883.978 823.106C842.313 811.073 804.351 788.102 762.231 777.941C744.06 773.557 724.968 770.814 706.376 768.92C694.339 767.694 681.434 767.415 669.653 764.668C682.026 758.204 695.897 754.705 709.655 752.671C724.274 750.509 739.302 749.926 753.957 752.003C780.694 755.792 806.519 767.077 831.206 777.504C866.414 792.376 904.415 807.006 943.263 806.996Z"/>
	<path fill="#AD6402" d="M380.501 752.22C408.809 769.137 434.459 787.962 466.513 797.688C474.618 800.146 482.97 801.917 491.299 803.425C499.18 804.852 507.325 805.806 514.782 808.876C530.937 815.527 544.475 829.084 561.598 833.774C564.919 836.341 570.396 841.123 574.527 841.849C576.414 843.018 577.658 843.659 578.445 845.83C562.4 840.488 546.436 834.909 530.556 829.093C522.33 826.1 514.171 822.811 505.858 820.069C496.557 817.001 486.971 814.733 477.573 811.973C468.976 809.449 460.455 806.374 452.09 803.173C430.348 794.85 409.45 779.522 391.948 764.35C388.005 760.932 382.666 757.087 380.501 752.22Z"/>
	<path fill="#974C00" d="M510.969 791.805C507.828 787.86 502.979 782.757 502.085 777.655L507.513 780.199L504.751 780.009L504.73 780.607C529.201 806.064 584.297 821.26 619.1 821.952C639.35 822.356 659.511 817.677 679.756 820.569C693.972 822.6 707.231 828.56 720.968 832.446C733.996 836.131 747.88 837.333 761.355 838.115C770.246 838.63 779.425 838.534 788.199 836.893C794.226 835.765 800.165 833.976 806.249 833.192C815.013 832.063 824.011 832.261 832.792 833.086C846.553 834.378 860.041 838.756 873.729 840.917C889.183 843.358 904.774 846.237 920.358 847.682C955.267 850.92 989.698 846.946 1024 840.313L1024 844.53C1008.91 846.989 993.556 847.361 978.439 849.457C969.117 850.75 960.113 853.51 950.831 855.087C942.964 856.424 933.519 856.958 926.181 859.945C923.902 860.109 921.339 859.41 919.054 859.148C900.179 858.471 881.621 856.101 863.362 851.176C849.96 847.561 837.031 842.077 823.053 841.007C801.385 839.348 798.096 845.386 779.476 849.089C774.312 850.116 769.083 850.074 763.842 850.02C732.694 849.695 708.28 838.514 678.813 835.465C655.513 833.055 631.883 837.359 608.432 835.465C598.81 834.687 589.394 833.083 580.141 830.297C561.695 824.744 523.297 806.308 510.969 791.805Z"/>
	<path fill="#AD6402" d="M507.513 780.199C531.33 790.152 573.529 805.979 598.34 809.183C609.741 810.677 621.309 810.306 632.592 808.085C638.681 806.823 644.67 805.008 650.539 802.959C656.398 800.913 662.355 798.275 668.561 797.55C671.697 797.183 675.041 797.463 678.181 797.702L681.868 800.227C692.238 811.539 721.765 827.174 736.868 831.975C741.097 833.314 745.49 834.072 749.924 834.228C757.449 834.554 767.07 833.561 773.706 829.756C778.752 827.326 783.684 824.921 789.193 823.706C813.019 818.452 843.31 827.541 866.708 833.027C874.544 834.864 883.316 837.379 891.358 837.59C899.542 839.58 908.139 840.752 916.494 841.828C927.709 842.486 938.741 842.945 949.982 843.003C954.353 843.026 959.305 843.414 963.59 842.568C967.76 842.484 971.911 842.375 976.073 842.086C985.471 842.096 994.803 842.248 1004.15 841.103C1010.77 840.5 1017.42 839.509 1024 838.58L1024 840.313C989.698 846.946 955.267 850.92 920.358 847.682C904.774 846.237 889.183 843.358 873.729 840.917C860.041 838.756 846.553 834.378 832.792 833.086C824.011 832.261 815.013 832.063 806.249 833.192C800.165 833.976 794.226 835.765 788.199 836.893C779.425 838.534 770.246 838.63 761.355 838.115C747.88 837.333 733.996 836.131 720.968 832.446C707.231 828.56 693.972 822.6 679.756 820.569C659.511 817.677 639.35 822.356 619.1 821.952C584.297 821.26 529.201 806.064 504.73 780.607L504.751 780.009L507.513 780.199Z"/>
	<path fill="#795B05" d="M0 800.383C12.7167 795.526 25.4703 791.126 38.8149 788.303C116.075 771.961 184.43 808.011 255.461 831.726C271.443 837.062 287.462 842.003 303.956 845.515C313.57 847.562 323.706 848.372 333.16 850.985C325.85 854.699 265.956 844.726 250.643 845.674C221.624 841.233 192.448 837.89 163.177 835.653C156.62 835.165 150.077 834.311 143.503 834.103C124.741 833.569 105.969 833.455 87.2023 833.762C78.1726 833.864 59.9773 835.187 51.6726 833.368C57.9101 831.619 64.7971 830.989 71.1936 829.782C85.6905 827.047 99.8243 823.513 113.474 817.843C75.5499 813.503 37.4639 818.822 0 824.925L0 800.383Z"/>
	<defs>
		<linearGradient id="gradient_3" gradientUnits="userSpaceOnUse" x1="469.97729" y1="837.97528" x2="475.89838" y2="810.88153">
			<stop offset="0" stop-color="#678B52"/>
			<stop offset="1" stop-color="#56A266"/>
		</linearGradient>
	</defs>
	<path fill="url(#gradient_3)" d="M382.605 788.729C388.932 790.331 394.817 793.673 400.633 796.572C409.832 801.157 418.973 806.019 428.332 810.263C451.953 820.972 475.172 831.258 500.172 838.519C511.29 841.748 522.685 843.961 533.966 846.533C539.142 847.713 553.618 852.437 558.148 851.704C559.194 851.998 560.183 852.272 561.179 852.714C559.749 853.005 558.611 853.028 557.457 853.898C555.827 855.127 553.69 854.979 551.752 855.029C533.607 853.314 517.203 849.171 499.731 844.282C482.611 839.491 466.073 834.353 449.802 827.106C439.852 822.675 430.407 817.181 420.735 812.193C409.015 806.15 392.214 797.248 382.605 788.729Z"/>
	<path fill="#599586" d="M681.868 800.227C694.456 803.205 706.154 809.811 718.041 814.756C736.043 822.244 754.458 826.749 773.706 829.756C767.07 833.561 757.449 834.554 749.924 834.228C745.49 834.072 741.097 833.314 736.868 831.975C721.765 827.174 692.238 811.539 681.868 800.227Z"/>
	<path fill="#835903" d="M0 824.925C37.4639 818.822 75.5499 813.503 113.474 817.843C99.8243 823.513 85.6905 827.047 71.1936 829.782C64.7971 830.989 57.9101 831.619 51.6726 833.368C34.3132 835.395 17.2118 838.791 0 841.722L0 824.925Z"/>
	<path fill="#974C00" d="M0 841.722C17.2118 838.791 34.3132 835.395 51.6726 833.368C59.9773 835.187 78.1726 833.864 87.2023 833.762C105.969 833.455 124.741 833.569 143.503 834.103C150.077 834.311 156.62 835.165 163.177 835.653C192.448 837.89 221.624 841.233 250.643 845.674C263.408 848.228 276.356 850.019 289.16 852.437C338.307 861.718 387.326 870.862 437.099 876.167C455.265 878.102 473.427 879.083 491.655 880.192C506.637 881.103 521.758 882.554 536.766 882.655C560.569 882.634 584.355 881.396 608.031 878.944C616.535 878.018 625.099 876.96 633.56 875.698C639.714 874.78 646.78 872.525 652.986 873.2C648.463 874.301 643.474 874.255 639.092 875.673C645.036 875.141 653.03 872.854 658.749 874.044C648.364 876.514 635.215 877.13 624.319 878.861C531.691 893.574 448.013 883.325 356.087 870.548C317.072 864.849 278.008 859.49 238.899 854.474C204.004 849.737 168.996 844.753 133.798 842.925C111.571 841.77 88.6902 841.141 66.4518 842.224C44.1572 843.31 22.0929 846.039 0 849.098L0 841.722Z"/>
	<path fill="#599586" d="M561.598 833.774C568.683 835.497 575.497 838.025 582.527 839.911C589.333 841.737 596.484 842.65 603.502 843.235C629.532 845.405 655.71 839.972 681.744 842.524C691.435 843.474 701.056 845.747 710.586 847.687C729.129 851.462 747.298 855 766.306 855.119C773.573 855.141 780.827 854.504 787.979 853.213C800.624 850.865 812.642 847.054 825.692 847.961C834.394 848.566 843.29 850.685 851.483 853.639C856.114 855.308 860.704 857.411 865.438 858.748C871.223 860.381 877.348 860.41 883.254 861.328C867.542 866.301 835.69 861.698 818.353 861.414C806.659 861.223 795.008 862.233 783.331 862.06C759.322 861.145 740.238 859.292 716.597 854.507C704.907 852.142 693.121 847.52 681.259 846.668C660.888 845.205 640.494 850.883 620.128 851.521C614.933 851.012 609.481 852.33 604.358 851.014C601.575 850.299 598.781 848.674 596.169 847.474C589.368 844.349 582.079 841.916 574.527 841.849C570.396 841.123 564.919 836.341 561.598 833.774Z"/>
	<path fill="#5B7945" d="M888.35 836.274C897.34 834.866 908.825 836.898 917.79 838.681C917.131 839.812 916.495 840.491 916.494 841.828C908.139 840.752 899.542 839.58 891.358 837.59L891.474 837.486C890.679 836.798 889.357 836.585 888.35 836.274Z"/>
	<path fill="#5B7945" d="M917.79 838.681C925.825 839.682 934.129 841.125 942.229 841.058C948.881 842.175 956.833 842.713 963.59 842.568C959.305 843.414 954.353 843.026 949.982 843.003C938.741 842.945 927.709 842.486 916.494 841.828C916.495 840.491 917.131 839.812 917.79 838.681Z"/>
	<path fill="#599586" d="M942.229 841.058C949.034 840.926 956.021 840.354 962.804 840.678C967.286 840.893 971.58 842.003 976.073 842.086C971.911 842.375 967.76 842.484 963.59 842.568C956.833 842.713 948.881 842.175 942.229 841.058Z"/>
	<defs>
		<linearGradient id="gradient_4" gradientUnits="userSpaceOnUse" x1="486.93259" y1="810.08044" x2="454.56741" y2="908.91956">
			<stop offset="0" stop-color="#C05800"/>
			<stop offset="1" stop-color="#877913"/>
		</linearGradient>
	</defs>
	<path fill="url(#gradient_4)" d="M250.643 845.674C265.956 844.726 325.85 854.699 333.16 850.985C347.802 852.848 362.413 854.949 376.988 857.286C393.103 859.967 460.929 874.317 473.932 869.045C474.471 868.456 474.904 868.306 474.854 867.445C474.756 865.746 473.466 864.548 472.19 863.578C464.295 857.572 444.088 853.727 433.961 850.848C425.283 848.381 415.679 845.162 407.88 840.594C436.445 845.729 464.858 851.678 493.085 858.434C508.758 862.078 523.545 867.813 539.755 869.174C556.045 870.541 572.115 869.216 588.411 868.801C600.811 868.485 613.115 869.414 625.507 869.525C640.485 869.659 655.374 869.689 670.337 870.541C675.631 870.842 681.153 870.909 686.381 871.737C677.152 872.269 667.938 873.038 658.749 874.044C653.03 872.854 645.036 875.141 639.092 875.673C643.474 874.255 648.463 874.301 652.986 873.2C646.78 872.525 639.714 874.78 633.56 875.698C625.099 876.96 616.535 878.018 608.031 878.944C584.355 881.396 560.569 882.634 536.766 882.655C521.758 882.554 506.637 881.103 491.655 880.192C473.427 879.083 455.265 878.102 437.099 876.167C387.326 870.862 338.307 861.718 289.16 852.437C276.356 850.019 263.408 848.228 250.643 845.674Z"/>
	<path fill="#5B7945" d="M574.527 841.849C582.079 841.916 589.368 844.349 596.169 847.474C598.781 848.674 601.575 850.299 604.358 851.014C609.481 852.33 614.933 851.012 620.128 851.521C614.618 852.512 608.81 851.194 603.419 852.381C594.772 851.691 586.317 849.473 578.445 845.83C577.658 843.659 576.414 843.018 574.527 841.849Z"/>
	<path fill="#795B05" d="M620.128 851.521C640.494 850.883 660.888 845.205 681.259 846.668C693.121 847.52 704.907 852.142 716.597 854.507C740.238 859.292 759.322 861.145 783.331 862.06C787.218 862.699 790.65 864.186 794.443 865.089C796.679 865.55 799.603 865.825 801.598 866.926C774.61 867.12 748.845 865.646 722.369 859.804C707.885 856.608 693.885 850.85 679.024 849.673C671.268 849.059 663.571 850.139 655.887 851.081C638.277 853.24 621.097 855.717 603.419 852.381C608.81 851.194 614.618 852.512 620.128 851.521Z"/>
	<path fill="#897B29" d="M561.179 852.714C564.899 854.206 568.685 855.432 572.5 856.655C572.395 856.74 572.299 856.839 572.184 856.908C569.481 858.527 555.44 855.701 551.752 855.029C553.69 854.979 555.827 855.127 557.457 853.898C558.611 853.028 559.749 853.005 561.179 852.714Z"/>
	<defs>
		<linearGradient id="gradient_5" gradientUnits="userSpaceOnUse" x1="916.55933" y1="863.08795" x2="916.42438" y2="860.61316">
			<stop offset="0" stop-color="#9C4E02"/>
			<stop offset="1" stop-color="#915E08"/>
		</linearGradient>
	</defs>
	<path fill="url(#gradient_5)" d="M919.054 859.148C921.339 859.41 923.902 860.109 926.181 859.945C927.69 859.996 929.439 859.891 930.882 860.295C927.172 861.961 886.068 868.924 882.395 867.573C882.083 867.458 881.808 867.259 881.515 867.102C892.651 864.248 903.879 864.499 914.787 860.051C916.42 859.972 917.552 859.809 919.054 859.148Z"/>
	<path fill="#5B7945" d="M883.254 861.328C892.159 862.145 905.476 860.534 914.787 860.051C903.879 864.499 892.651 864.248 881.515 867.102C872.903 867.729 864.33 868.692 855.688 868.886C850.049 869.012 844.435 868.563 838.804 868.555C830.147 865.078 804.337 864.518 794.443 865.089C790.65 864.186 787.218 862.699 783.331 862.06C795.008 862.233 806.659 861.223 818.353 861.414C835.69 861.698 867.542 866.301 883.254 861.328Z"/>
	<path fill="#835903" d="M794.443 865.089C804.337 864.518 830.147 865.078 838.804 868.555C826.46 869.207 813.916 867.703 801.598 866.926C799.603 865.825 796.679 865.55 794.443 865.089Z"/>
	<path fill="#974C00" d="M0 882.307C21.8804 878.483 43.6716 875.404 65.8434 873.752C147.66 867.653 229.643 876.997 310.99 884.727C373.311 891.208 435.863 895.218 498.501 896.746C535.023 897.228 571.547 895.989 607.952 893.033C627.328 891.586 646.682 889.225 666.078 888.166C726.986 884.9 788.04 885.532 848.867 890.058C881.167 892.506 913.408 898.548 945.071 905.151C971.534 910.463 997.853 916.469 1024 923.164L1024 974.94C1014.72 969.701 1004.94 965.129 995.238 960.736C931.886 932.043 852.821 903.891 783.561 896.42C754.041 893.236 728.148 894.12 698.705 896.183C680.965 897.426 663.156 898.772 645.484 900.753C628.618 902.644 611.813 905.116 594.954 907.084C568.448 910.18 541.81 913.515 515.162 915.097C495.745 916.25 476.356 916.213 456.912 916.135C412.424 915.836 368.009 912.483 323.98 906.1C293.748 901.85 263.571 896.963 233.381 892.405C154.387 880.479 76.5852 872.248 0 901.12L0 882.307Z"/>
	<path fill="#AD6402" d="M0 901.12C76.5852 872.248 154.387 880.479 233.381 892.405C263.571 896.963 293.748 901.85 323.98 906.1C368.009 912.483 412.424 915.836 456.912 916.135C476.356 916.213 495.745 916.25 515.162 915.097C541.81 913.515 568.448 910.18 594.954 907.084C611.813 905.116 628.618 902.644 645.484 900.753C663.156 898.772 680.965 897.426 698.705 896.183C728.148 894.12 754.041 893.236 783.561 896.42C852.821 903.891 931.886 932.043 995.238 960.736C1004.94 965.129 1014.72 969.701 1024 974.94L1024 1021.83C1016.93 1022.32 1009.25 1022.36 1002.34 1024L987.251 1024C979.586 1021.81 971.039 1021.65 963.145 1020.09C953.148 1018.1 943.238 1015.61 933.275 1013.46C922.144 1011.04 910.943 1008.95 899.835 1006.43C888.613 1003.89 877.523 1000.63 866.391 997.72C854.741 994.728 843.047 991.909 831.313 989.265C803.638 982.885 775.771 977.989 747.968 972.298C730.171 968.656 712.413 964.486 694.491 961.494C669.76 957.44 644.738 955.421 619.677 955.458C611.086 955.483 602.38 955.587 593.832 956.505C573.177 958.724 552.766 963.665 532.211 966.727C505.245 970.762 477.906 971.695 450.727 969.509C431.283 967.914 411.852 966.158 392.436 964.242C375.167 962.529 357.846 960.909 340.705 958.157C327.408 956.022 314.233 953.129 300.976 950.761C285.094 947.925 269.108 945.472 253.175 942.938C216.217 937.058 179.348 932.044 141.826 932.563C128.595 932.746 115.225 934.023 102.074 935.41C66.8319 939.125 31.9949 947.876 0 963.32L0 901.12ZM431.362 940.194C408.393 939.841 385.372 940.624 362.409 940.34L328.774 939.731C321.283 939.557 313.669 939.109 306.184 939.544C327.731 942.907 349.319 945.999 370.943 948.819C411.983 954.393 456.39 959.997 497.748 956.951C517.614 955.488 536.323 950.932 555.857 947.598C584.909 942.64 615.645 940.27 645.094 942.318C699.605 946.107 752.391 960.604 805.194 973.722C822.416 977.996 839.735 981.869 857.137 985.336C903.704 994.992 944.756 1001.01 992.414 998.1C997.369 997.798 1014.79 996.525 1018.05 994.268C1019.13 993.515 1019.63 992.679 1019.84 991.37C1020.23 988.966 1018.69 985.971 1017.09 984.287C1004.41 970.908 972.147 973.589 955.161 972.844C946.136 972.515 937.151 971.46 928.296 969.688C919.43 967.933 910.855 964.725 902.55 961.208C898.854 959.643 894.988 957.61 891.154 956.491C890.258 955.833 889.362 955.218 888.374 954.706C878.71 949.701 868.39 945.683 858.416 941.332C829.004 928.502 799.796 916.099 767.677 912.018C734.358 907.785 700.178 911.246 667.137 916.725C650.265 919.522 633.84 923.131 616.745 924.549C602.518 925.73 588.456 925.541 574.247 926.314C539.428 927.937 504.673 930.732 470.042 934.694C458.359 936.048 442.253 936.934 431.362 940.194Z"/>
	<path fill="#897B29" d="M431.362 940.194C442.253 936.934 458.359 936.048 470.042 934.694C504.673 930.732 539.428 927.937 574.247 926.314C588.456 925.541 602.518 925.73 616.745 924.549C633.84 923.131 650.265 919.522 667.137 916.725C700.178 911.246 734.358 907.785 767.677 912.018C799.796 916.099 829.004 928.502 858.416 941.332C868.39 945.683 878.71 949.701 888.374 954.706C889.362 955.218 890.258 955.833 891.154 956.491C884.427 956.771 877.02 955.524 870.282 954.9C853.757 953.368 837.439 950.875 821.056 948.277C803.213 945.447 785.22 942.445 767.691 938.048C757.675 935.536 747.919 932.089 737.94 929.454C720.388 924.821 701.607 922.162 683.465 921.639C672.271 921.317 660.967 922.232 649.829 923.259C628.984 925.181 608.466 928.223 587.847 931.804C575.833 933.89 563.868 936.377 551.817 938.23C512.442 944.283 470.908 945.229 431.362 940.194Z"/>
	<path fill="#835903" d="M306.184 939.544C313.669 939.109 321.283 939.557 328.774 939.731L362.409 940.34C385.372 940.624 408.393 939.841 431.362 940.194C470.908 945.229 512.442 944.283 551.817 938.23C563.868 936.377 575.833 933.89 587.847 931.804C608.466 928.223 628.984 925.181 649.829 923.259C660.967 922.232 672.271 921.317 683.465 921.639C701.607 922.162 720.388 924.821 737.94 929.454C747.919 932.089 757.675 935.536 767.691 938.048C785.22 942.445 803.213 945.447 821.056 948.277C837.439 950.875 853.757 953.368 870.282 954.9C877.02 955.524 884.427 956.771 891.154 956.491C894.988 957.61 898.854 959.643 902.55 961.208C910.855 964.725 919.43 967.933 928.296 969.688C937.151 971.46 946.136 972.515 955.161 972.844C972.147 973.589 1004.41 970.908 1017.09 984.287C1018.69 985.971 1020.23 988.966 1019.84 991.37C1019.63 992.679 1019.13 993.515 1018.05 994.268C1014.79 996.525 997.369 997.798 992.414 998.1C944.756 1001.01 903.704 994.992 857.137 985.336C839.735 981.869 822.416 977.996 805.194 973.722C752.391 960.604 699.605 946.107 645.094 942.318C615.645 940.27 584.909 942.64 555.857 947.598C536.323 950.932 517.614 955.488 497.748 956.951C456.39 959.997 411.983 954.393 370.943 948.819C349.319 945.999 327.731 942.907 306.184 939.544Z"/>
	<path fill="#897B29" d="M0 963.32C31.9949 947.876 66.8319 939.125 102.074 935.41C115.225 934.023 128.595 932.746 141.826 932.563C179.348 932.044 216.217 937.058 253.175 942.938C269.108 945.472 285.094 947.925 300.976 950.761C314.233 953.129 327.408 956.022 340.705 958.157C357.846 960.909 375.167 962.529 392.436 964.242C411.852 966.158 431.283 967.914 450.727 969.509C477.906 971.695 505.245 970.762 532.211 966.727C552.766 963.665 573.177 958.724 593.832 956.505C602.38 955.587 611.086 955.483 619.677 955.458C644.738 955.421 669.76 957.44 694.491 961.494C712.413 964.486 730.171 968.656 747.968 972.298C775.771 977.989 803.638 982.885 831.313 989.265C843.047 991.909 854.741 994.728 866.391 997.72C877.523 1000.63 888.613 1003.89 899.835 1006.43C910.943 1008.95 922.144 1011.04 933.275 1013.46C943.238 1015.61 953.148 1018.1 963.145 1020.09C971.039 1021.65 979.586 1021.81 987.251 1024L0 1024L0 963.32Z"/>
	<path fill="#897B29" d="M1002.34 1024C1009.25 1022.36 1016.93 1022.32 1024 1021.83L1024 1024L1002.34 1024Z"/>
</svg>
