<?xml version="1.0" encoding="utf-8" ?>
<svg xmlns="http://www.w3.org/2000/svg" xmlns:xlink="http://www.w3.org/1999/xlink" width="1024" height="1024">
	<path fill="#FAF3DD" d="M0 0L240.95 0C236.599 5.46195 232.316 10.8962 228.595 16.8204C214.723 38.9087 205.03 66.0873 195.808 90.481C179.626 133.288 165.933 176.884 151.996 220.464C145.784 239.891 140.119 259.731 133.085 278.866C119.55 279.52 105.516 282.948 92.0365 284.884C61.5147 289.267 30.7207 293.669 0 296.281L0 0Z"/>
	<path fill="#E0AB56" d="M240.95 0L329.907 0C326.532 7.97778 314.831 33.4001 306.898 36.4833C305.593 36.9905 304.173 37.0565 302.87 36.4828C296.586 33.7182 293.313 16.9723 290.057 10.845C282.633 14.4954 276.797 20.5863 270.84 26.2127C263.541 33.107 255.087 40.4473 249.247 48.6321C240.664 60.6616 234.704 75.7705 229.074 89.3655C221.318 107.916 214.208 126.73 207.755 145.774C199.196 170.915 192.219 196.525 184.753 221.993C181.274 229.688 177.388 237.18 173.862 244.849C167.572 258.532 161.671 272.584 156.249 286.633C147.509 309.282 140.878 332.658 133.475 355.756L116.581 409.054C113.884 417.362 110.683 425.595 108.159 433.942C106.035 433.422 104.717 433.287 102.784 434.545C99.095 436.945 93.5687 443.11 92.922 447.496C92.7319 448.785 92.9633 449.334 93.6727 450.379C95.4479 450.99 97.2956 450.546 98.9358 449.699C100.757 448.759 102.19 446.864 103.768 445.534C98.461 460.734 92.942 481.711 82.1057 493.692C78.4054 491.68 74.8032 490.135 70.508 491.375C68.0243 492.092 66.1063 493.541 64.1174 495.126L63.6659 495.481C61.1816 497.469 59.4781 500.173 57.7661 502.806C51.066 513.113 46.2867 522.892 33.8213 527.151C42.3551 509.897 50.1501 492.368 58.1447 474.861C73.3956 442.003 87.4964 408.623 100.422 374.783C108.003 354.373 115.428 333.775 122.224 313.091C125.959 301.722 129.104 290.153 133.085 278.866C140.119 259.731 145.784 239.891 151.996 220.464C165.933 176.884 179.626 133.288 195.808 90.481C205.03 66.0873 214.723 38.9087 228.595 16.8204C232.316 10.8962 236.599 5.46195 240.95 0ZM74.2337 465.331C70.8207 467.169 63.1719 473.997 62.2355 477.848C61.9155 479.164 62.0878 479.896 62.8314 481.035C63.2764 481.717 64.2064 482.292 64.9201 482.607C68.8318 480.66 76.6583 473.767 77.6679 469.29C77.8795 468.351 77.625 467.235 76.9471 466.55C76.1459 465.74 75.3311 465.552 74.2337 465.331Z"/>
	<path fill="#C18325" d="M329.907 0L401.981 0C397.747 9.23935 393.628 18.2278 390.519 27.9307C386.307 41.0749 382.749 54.4593 379.054 67.7573C375.773 79.5671 372.489 92.651 366.851 103.582C365.124 106.931 362.65 111.148 358.962 112.543C357.064 113.261 355.105 113.028 353.303 112.149C350.193 110.632 348.603 107.442 347.642 104.274C345.383 96.8234 344.801 88.7944 344.558 81.0534C344.425 76.8016 344.646 72.166 343.567 68.0324C343.143 66.4065 342.387 64.6359 340.79 63.8428C339.41 63.1575 337.886 63.5451 336.577 64.1827C310.104 77.0779 284.5 157.067 273.731 185.83C270.037 195.697 265.537 211.753 258.194 219.276C255.896 221.631 253.945 221.568 250.828 221.387C248.574 216.972 246.084 215.177 241.513 213.376C235.93 194.454 242.101 173.929 242.19 154.666L241.428 153.977C240.751 153.872 240.158 153.833 239.484 154.008C223.917 158.044 206.113 188.737 197.816 201.794C193.516 208.562 188.975 215.172 184.753 221.993C192.219 196.525 199.196 170.915 207.755 145.774C214.208 126.73 221.318 107.916 229.074 89.3655C234.704 75.7705 240.664 60.6616 249.247 48.6321C255.087 40.4473 263.541 33.107 270.84 26.2127C276.797 20.5863 282.633 14.4954 290.057 10.845C293.313 16.9723 296.586 33.7182 302.87 36.4828C304.173 37.0565 305.593 36.9905 306.898 36.4833C314.831 33.4001 326.532 7.97778 329.907 0Z"/>
	<path fill="#AD6D09" d="M401.981 0L467.602 0C471.412 7.9297 473.695 16.8208 475.941 25.3053C480.77 43.5498 484.203 61.9813 487.939 80.4646C489.254 86.9698 492.187 95.2816 491.718 101.773C478.769 100.08 466.122 100.138 453.222 102.163C438.082 104.658 422.928 108.948 409.065 115.612C369.662 134.551 327.471 177.603 300.45 211.701C294.802 218.83 289.577 226.357 284.277 233.748C249.319 282.502 220.288 335.284 190.272 387.122C189.545 385.192 188.149 384.088 186.325 383.21C181.562 380.917 175.531 381.368 170.725 383.282C154.266 389.836 142.445 419.447 136.069 435.075L115.799 483.852C110.525 496.415 105.069 511.48 97.3124 522.627C95.2885 525.535 92.7427 528.051 89.4327 529.44C76.4248 534.9 65.6353 524.48 53.5396 537.943C51.7116 539.978 49.3771 542.617 48.1952 545.078C47.8408 545.816 47.8446 545.91 47.6688 546.593C52.1587 552.096 60.2017 554.63 65.0767 560.189C70.9429 566.879 78.1653 585.226 83.8069 588.653C77.8033 600.476 71.0932 612.047 64.5167 623.562C53.7646 642.388 42.7893 661.263 31.0283 679.473C21.1161 694.82 10.4905 709.671 0 724.623L0 587.115C13.6615 566.768 22.9511 549.027 33.8213 527.151C46.2867 522.892 51.066 513.113 57.7661 502.806C59.4781 500.173 61.1816 497.469 63.6659 495.481L64.1174 495.126C66.1063 493.541 68.0243 492.092 70.508 491.375C74.8032 490.135 78.4054 491.68 82.1057 493.692C92.942 481.711 98.461 460.734 103.768 445.534C105.878 442.825 107.04 437.302 108.159 433.942C110.683 425.595 113.884 417.362 116.581 409.054L133.475 355.756C140.878 332.658 147.509 309.282 156.249 286.633C161.671 272.584 167.572 258.532 173.862 244.849C177.388 237.18 181.274 229.688 184.753 221.993C188.975 215.172 193.516 208.562 197.816 201.794C206.113 188.737 223.917 158.044 239.484 154.008C240.158 153.833 240.751 153.872 241.428 153.977L242.19 154.666C242.101 173.929 235.93 194.454 241.513 213.376C246.084 215.177 248.574 216.972 250.828 221.387C253.945 221.568 255.896 221.631 258.194 219.276C265.537 211.753 270.037 195.697 273.731 185.83C284.5 157.067 310.104 77.0779 336.577 64.1827C337.886 63.5451 339.41 63.1575 340.79 63.8428C342.387 64.6359 343.143 66.4065 343.567 68.0324C344.646 72.166 344.425 76.8016 344.558 81.0534C344.801 88.7944 345.383 96.8234 347.642 104.274C348.603 107.442 350.193 110.632 353.303 112.149C355.105 113.028 357.064 113.261 358.962 112.543C362.65 111.148 365.124 106.931 366.851 103.582C372.489 92.651 375.773 79.5671 379.054 67.7573C382.749 54.4593 386.307 41.0749 390.519 27.9307C393.628 18.2278 397.747 9.23935 401.981 0Z"/>
	<path fill="#C18325" d="M467.602 0L593.667 0C598.209 10.8749 603.005 21.645 607.239 32.6464C612.617 46.6239 617.341 60.933 622.485 75.0108C627.456 88.6147 631.484 103.536 638.268 116.343C640.555 120.66 643.663 124.444 647.665 127.273C647.825 127.12 647.986 126.97 648.144 126.816C653.201 121.885 653.583 114.575 653.626 107.884C653.711 94.634 651.69 72.3102 654.193 60.1465C654.757 57.4053 655.869 54.4622 657.877 52.4405C658.896 51.415 660.169 50.8271 661.621 50.9134C662.96 50.993 663.886 52.1523 664.654 53.1349C677.219 69.2047 690.834 117.323 697.292 138.229C708.327 174.21 718.978 210.307 729.244 246.515C733.684 262.442 737.502 278.549 742.011 294.451C742.595 296.509 743.748 301.659 746.015 302.014C747.468 300.385 747.617 297.518 747.98 295.411C748.907 289.411 750.818 271.296 756.077 267.627C757.189 266.852 758.116 266.652 759.436 266.909C767.431 268.464 778.978 287.149 782.9 293.931C798.144 320.291 811.158 347.915 825.368 374.829C829.824 383.246 834.363 391.619 838.984 399.947C842.612 406.538 847.05 413.883 849.504 420.995C846.577 419.756 843.015 411.976 838.837 409.479C837.5 408.68 835.877 408.113 834.337 408.674C830.461 410.085 828.264 416.51 826.887 420.071C822.826 426.256 821.195 439.558 818.307 447.172C807.442 432.865 798.795 416.3 790.209 400.529C785.545 391.962 780.844 382.95 775.177 375C773.546 372.713 771.263 369.441 768.518 368.568C760.59 366.049 752.544 383.283 745.901 385.484C745.682 385.557 744.787 385.7 744.48 385.611C743.48 385.322 742.406 383.85 741.837 383.021C739.868 380.151 738.54 376.719 736.866 373.66C733.853 368.153 730.272 362.77 726.265 357.935C721.796 352.475 716.388 347.856 710.296 344.296C706.915 342.298 701.202 338.845 697.198 339.861C674.751 290.346 651.844 240.203 620.414 195.601C596.019 160.981 564.279 125.971 524.029 110.134C513.572 106.019 502.751 103.665 491.718 101.773C492.187 95.2816 489.254 86.9698 487.939 80.4646C484.203 61.9813 480.77 43.5498 475.941 25.3053C473.695 16.8208 471.412 7.9297 467.602 0ZM660.88 173.606C655.169 174.914 652.485 177.528 648.808 181.829C653.845 195.432 664.458 203.502 672.825 214.815C683.011 228.587 692.972 242.602 702.909 256.561C709.085 265.237 715.516 273.843 721.298 282.78C722.944 285.461 724.544 288.189 726.267 290.821C724.413 284.998 721.663 279.442 719.434 273.75C713.761 259.264 708.162 244.76 701.509 230.682C696.608 220.312 674.914 178.691 666.566 174.755C664.742 173.895 662.869 173.652 660.88 173.606Z"/>
	<path fill="#E0AB56" d="M593.667 0L646.911 0C712.324 74.3213 751.21 178.877 795.086 267.037C811.618 300.642 828.48 334.083 845.67 367.356C859.963 395.122 874.229 423.013 889.438 450.289C900.11 469.014 911.115 487.547 922.447 505.879C932.793 522.981 943.732 539.717 955.243 556.056C962.62 566.718 969.924 577.372 978.33 587.264C992.688 604.159 1006.35 616.249 1024 629.57L1024 700.867L1021.98 699.379C1018.22 690.835 1013.01 682.839 1008.82 674.479C1001.25 659.41 996.004 641.951 984.204 629.489C975.142 619.918 963.523 615.886 950.529 615.461C941.395 597.658 935.665 578.039 925.617 560.724C919.577 550.315 916.814 551.061 909.145 543.864C904.616 539.614 900.804 534.182 897.377 529.038C880.009 502.972 869.98 472.109 858.952 443.033C856.117 435.558 852.313 428.485 849.504 420.995C847.05 413.883 842.612 406.538 838.984 399.947C834.363 391.619 829.824 383.246 825.368 374.829C811.158 347.915 798.144 320.291 782.9 293.931C778.978 287.149 767.431 268.464 759.436 266.909C758.116 266.652 757.189 266.852 756.077 267.627C750.818 271.296 748.907 289.411 747.98 295.411C747.617 297.518 747.468 300.385 746.015 302.014C743.748 301.659 742.595 296.509 742.011 294.451C737.502 278.549 733.684 262.442 729.244 246.515C718.978 210.307 708.327 174.21 697.292 138.229C690.834 117.323 677.219 69.2047 664.654 53.1349C663.886 52.1523 662.96 50.993 661.621 50.9134C660.169 50.8271 658.896 51.415 657.877 52.4405C655.869 54.4622 654.757 57.4053 654.193 60.1465C651.69 72.3102 653.711 94.634 653.626 107.884C653.583 114.575 653.201 121.885 648.144 126.816C647.986 126.97 647.825 127.12 647.665 127.273C643.663 124.444 640.555 120.66 638.268 116.343C631.484 103.536 627.456 88.6147 622.485 75.0108C617.341 60.933 612.617 46.6239 607.239 32.6464C603.005 21.645 598.209 10.8749 593.667 0Z"/>
	<path fill="#FAF3DD" d="M646.911 0L1024 0L1024 252.879C1006.1 254.275 988.303 257.263 970.469 259.31C943.636 262.389 916.31 264.602 889.35 266.256C866.872 267.635 844.733 268.1 822.219 267.913C813.193 267.838 804.085 266.837 795.086 267.037C751.21 178.877 712.324 74.3213 646.911 0Z"/>
	<path fill="#FAF3DD" d="M453.222 102.163C466.122 100.138 478.769 100.08 491.718 101.773C502.751 103.665 513.572 106.019 524.029 110.134C564.279 125.971 596.019 160.981 620.414 195.601C651.844 240.203 674.751 290.346 697.198 339.861C708.075 363.26 717.805 387.118 727.701 410.942L749.08 461.497C785.02 547.143 820.789 633.21 862.097 716.428C873.527 742.262 878.409 757.941 901.2 776.775C904.919 779.848 908.762 783.287 912.796 785.922C931.062 800.79 953.754 812.795 975.861 820.783C984.436 823.844 992.899 826.679 1001.76 828.804C1008.55 830.08 1015.44 830.796 1022.21 832.08C1018.75 836.403 985.952 843.114 978.412 844.042C961.67 845.003 945.248 844.835 928.525 844.944C916.018 840.625 887.663 806.743 877.963 795.774C871.798 788.803 865.41 782.032 859.32 774.992C852.416 767.011 845.717 755.93 836.182 750.959C835.125 749.822 834.083 748.374 832.422 748.255C830.937 748.149 830.196 748.548 829.002 749.346C828.452 750.364 828.02 751.396 828.225 752.593C828.276 752.892 828.418 753.169 828.515 753.456L828.049 753.982C825.547 753.385 811.821 736.376 808.35 733.283C804.168 724.62 785.075 707.916 776.737 702.56C771.134 698.959 764.854 695.997 758.577 693.786C751.572 691.32 744.125 690.068 736.749 689.385C708.61 686.78 684.474 696.074 659.794 708.045C649.979 712.806 640.956 718.799 631.591 724.35C616.748 733.149 592.216 747.144 579.839 758.54L577.485 759.951C568.437 759.715 559.307 760.808 550.277 761.367C532.529 762.465 514.642 763.688 496.87 764.17C453.742 735.027 407.224 719.032 355.416 714.835C345.786 714.055 335.996 714.385 326.326 713.959C326.091 713.82 325.853 713.685 325.62 713.543C321.998 711.33 319.038 707.847 315.728 705.199C310.389 700.93 304.324 697.159 298.574 693.456C260.105 668.681 219.626 661.983 175.098 671.63C130.994 681.184 83.6603 705.071 43.0827 725.049C28.8841 732.039 14.6629 739.627 0 745.583L0 724.623C10.4905 709.671 21.1161 694.82 31.0283 679.473C42.7893 661.263 53.7646 642.388 64.5167 623.562C71.0932 612.047 77.8033 600.476 83.8069 588.653C90.2894 578.123 95.8426 566.872 101.593 555.926C110.832 538.384 119.973 520.79 129.014 503.146C148.775 464.127 169.197 425.446 190.272 387.122C220.288 335.284 249.319 282.502 284.277 233.748C289.577 226.357 294.802 218.83 300.45 211.701C327.471 177.603 369.662 134.551 409.065 115.612C422.928 108.948 438.082 104.658 453.222 102.163ZM467.386 146.706C462.078 147.27 449.646 147.622 446.107 152.218C445.305 153.261 445.462 153.756 445.616 154.962C446.632 156.308 448.148 157.605 449.886 157.892C451.03 158.081 452.511 157.524 453.611 157.214L454.546 156.994C460.105 155.706 472.863 156.038 476.294 151.482C476.467 149.98 476.249 149.685 475.601 148.292C473.636 146.589 471.26 146.375 468.758 146.553C468.299 146.586 467.841 146.637 467.386 146.706ZM495.292 147.532C494.283 148.523 493.094 149.608 492.96 151.115C492.852 152.324 493.415 153.275 494.308 154.027C497.843 157.003 514.05 160.279 519.013 160.644C520.182 159.63 520.929 158.91 521.181 157.307C521.39 155.978 520.886 154.934 520.038 153.949C516.689 150.057 501.724 147.411 496.597 147.483C496.162 147.49 495.726 147.506 495.292 147.532ZM424.944 156.996C419.282 159.719 407.65 163.458 404.982 169.139C405.016 170.751 405.25 171.513 406.446 172.635C407.342 173.476 408.001 173.78 409.239 173.956L410.659 173.529C415.569 170.997 429.378 166.267 431.111 161.646C430.936 159.948 430.438 158.668 428.943 157.673C427.765 156.888 426.302 156.877 424.944 156.996ZM536.713 161.879C535.482 163.248 534.511 164.223 534.071 166.043C534.175 166.512 534.195 167.008 534.384 167.45C535.278 169.537 547.925 178.37 550.481 180.068C551.605 180.815 552.595 180.986 553.937 181.008C555.239 180.008 555.706 179.749 556.38 178.208C556.338 175.516 554.854 173.734 552.992 171.893C549.361 168.304 541.958 161.998 536.713 161.879ZM388.416 176.443C383.447 179.14 367.567 187.556 365.969 192.521C365.59 193.699 365.61 194.652 366.295 195.728C367.12 197.025 368.879 197.573 370.233 198.089C375.119 194.961 391.668 185.481 393.087 180.623C393.312 179.853 393.194 179.181 393.044 178.42C392.008 177.224 390.685 176.476 389.081 176.416C388.859 176.408 388.637 176.434 388.416 176.443ZM565.914 189.841C564.486 191.286 563.366 192.192 563.427 194.38C563.496 196.826 573.059 209.925 575.162 211.825C576.441 211.949 577.467 211.944 578.756 211.769C579.78 210.931 580.752 210.466 580.866 208.995C581.215 204.461 573.48 194.089 570.163 191.078C568.767 189.812 567.683 189.944 565.914 189.841ZM350.867 202.37C346.361 205.226 331.178 215.106 329.989 219.896C329.718 220.987 329.716 221.927 330.442 222.858C331.324 223.989 332.93 224.505 334.267 224.794C338.648 222.237 353.617 211.882 355.002 207.285C355.291 206.326 355.168 205.706 354.959 204.757C353.812 203.157 352.752 202.689 350.867 202.37ZM586.54 223.98C585.441 225.066 584.495 225.88 584.357 227.518C583.97 232.125 590.205 242.728 593.483 245.997C594.807 247.317 596.17 247.098 597.902 247.048C598.957 246.154 599.699 245.741 599.878 244.254C600.373 240.162 593.247 227.48 590.064 224.766C588.901 223.774 587.958 223.996 586.54 223.98ZM313.462 231.457C309.431 234.425 294.789 245.348 294.775 250.217C294.771 251.536 295.459 252.629 296.44 253.454C297.608 254.437 298.46 254.628 299.961 254.48C300.079 254.469 300.192 254.426 300.308 254.399C304.452 251.403 318.271 240.203 319.049 235.643C319.29 234.237 319.022 233.863 318.346 232.708C316.689 231.649 315.477 231.3 313.462 231.457ZM604.273 260.227C603.202 261.481 602.301 262.342 602.138 264.064C603.193 268.56 611.001 284.305 614.521 286.964L616.906 287.449C617.897 286.172 618.464 285.491 618.37 283.775C618.154 279.836 610.134 263.422 606.959 261.076C606.162 260.487 605.228 260.335 604.273 260.227ZM278.117 264.963C273.423 267.914 261.966 278.028 260.491 283.129C260.153 284.301 260.184 285.48 260.899 286.523C261.891 287.969 263.496 288.061 265.068 288.247C268.833 285.69 281.783 272.604 282.646 268.717C282.89 267.622 282.65 267.196 282.262 266.19C280.775 265.048 280.007 265.006 278.117 264.963ZM621.913 298.938C620.931 300.001 620.232 300.4 620.263 301.981C620.334 305.474 628.272 321.157 631.095 323.647C631.826 323.857 632.434 324.028 633.196 324.09C634.346 322.487 635.319 321.575 634.9 319.478C633.802 313.981 628.898 303.052 624.871 299.219C623.79 298.888 623.039 298.858 621.913 298.938ZM640.989 335.807L637.294 339.506C638.848 343.554 644.65 359.722 648.287 361.12C648.592 361.237 648.902 361.34 649.216 361.427C650.595 360.678 651.974 360.163 652.66 358.665C652.152 354.242 645.386 338.96 642.166 336.12L640.989 335.807ZM655.704 373.36C654.843 374.508 654.128 375.18 654.257 376.727C654.576 380.55 661.76 396.705 664.71 399.234C665.285 399.324 665.878 399.467 666.46 399.452C667.728 398.444 668.765 397.812 669.14 396.14C668.31 391.008 662.653 377.32 659.062 373.589C657.906 373.411 656.874 373.315 655.704 373.36ZM672.315 411.474C671.377 413.668 671.331 414.654 672.211 416.854C674.622 422.876 678.218 433.087 681.678 438.168C683.553 438.936 684.879 438.54 686.752 437.77C687.483 436.234 687.776 435.722 687.289 434.072C686.449 431.229 678.502 413.649 676.836 412.236C676.453 411.912 675.96 411.748 675.522 411.504L672.315 411.474ZM691.629 451.93C690.5 452.728 689.043 453.451 688.592 454.823C689.744 459.473 696.51 476.186 699.732 479.245C700.47 479.486 701.199 479.753 701.957 479.924C703.215 478.922 704.227 478.243 704.781 476.661C704.818 472.399 697.913 456.049 694.952 453.034C693.856 451.919 693.072 452.063 691.629 451.93ZM709.36 492.281C707.859 493.197 706.877 493.56 705.994 495.104C706.514 497.544 714.681 519.046 715.81 520.083C716.523 520.738 718.012 521.033 718.948 521.231C720.211 520.077 721.521 519.16 721.926 517.42C721.169 513.978 712.757 493.978 710.799 492.681C710.408 492.422 709.76 492.362 709.36 492.281ZM724.939 533.812C723.938 535.393 723.356 536.168 723.85 538.124C724.966 542.544 731.123 558.512 734.385 561.261C735.755 561.54 736.052 561.435 737.397 560.999C737.953 560.52 739.273 559.701 739.355 558.974C739.605 556.741 730.695 536.385 728.889 534.645C727.852 533.645 726.298 533.781 724.939 533.812ZM742.894 573.865C741.726 575.106 740.866 575.639 740.573 577.345C742.313 581.238 749.674 599.863 751.704 601.616C752.747 601.853 753.427 601.951 754.484 601.761C755.49 600.75 756.561 599.932 756.804 598.459C755.542 593.102 749.237 578.054 745.403 574.365C744.504 574.045 743.852 573.856 742.894 573.865ZM761.673 611.651C760.319 613.264 759.128 614.579 759.255 616.828C759.449 620.251 766.218 637.153 769.051 639.215C769.613 639.624 770.219 639.522 770.879 639.562C772.013 638.695 773.546 637.857 773.989 636.442C773.523 632.251 766.241 614.711 763.031 612.37C762.519 611.996 762.218 611.892 761.673 611.651ZM777.73 648.749C776.489 649.777 775.142 650.65 774.541 652.198C774.929 654.13 784.069 673.883 785.008 674.539C786.056 675.27 787.641 675.231 788.884 675.349C789.852 674.32 790.662 673.534 790.663 672.003C790.665 668.393 782.24 651.393 779.428 648.994L777.73 648.749ZM795.786 683.685C794.593 684.722 793.026 685.726 792.577 687.3C793.114 690.555 801.257 706.512 803.626 708.236C804.124 708.599 804.791 708.721 805.381 708.838C806.551 708.114 807.752 707.481 808.031 705.999C808.707 702.418 800.643 687.767 797.952 684.796C797.283 684.058 796.742 683.83 795.786 683.685ZM813.199 715.749C811.86 716.979 810.43 718.001 809.921 719.816C810.411 724.136 817.949 738.912 821.279 741.526C821.784 741.922 822.053 742.013 822.591 742.258C823.826 740.979 825.243 739.707 826.265 738.251C823.76 732.857 817.934 718.709 813.199 715.749Z"/>
	<path fill="#D4E09B" d="M453.611 157.214C452.511 157.524 451.03 158.081 449.886 157.892C448.148 157.605 446.632 156.308 445.616 154.962C445.462 153.756 445.305 153.261 446.107 152.218C449.646 147.622 462.078 147.27 467.386 146.706C467.841 146.637 468.299 146.586 468.758 146.553C471.26 146.375 473.636 146.589 475.601 148.292C476.249 149.685 476.467 149.98 476.294 151.482C472.863 156.038 460.105 155.706 454.546 156.994L453.611 157.214Z"/>
	<path fill="#D4E09B" d="M519.013 160.644C514.05 160.279 497.843 157.003 494.308 154.027C493.415 153.275 492.852 152.324 492.96 151.115C493.094 149.608 494.283 148.523 495.292 147.532C495.726 147.506 496.162 147.49 496.597 147.483C501.724 147.411 516.689 150.057 520.038 153.949C520.886 154.934 521.39 155.978 521.181 157.307C520.929 158.91 520.182 159.63 519.013 160.644Z"/>
	<path fill="#D4E09B" d="M410.659 173.529L409.239 173.956C408.001 173.78 407.342 173.476 406.446 172.635C405.25 171.513 405.016 170.751 404.982 169.139C407.65 163.458 419.282 159.719 424.944 156.996C426.302 156.877 427.765 156.888 428.943 157.673C430.438 158.668 430.936 159.948 431.111 161.646C429.378 166.267 415.569 170.997 410.659 173.529Z"/>
	<path fill="#D4E09B" d="M553.937 181.008C552.595 180.986 551.605 180.815 550.481 180.068C547.925 178.37 535.278 169.537 534.384 167.45C534.195 167.008 534.175 166.512 534.071 166.043C534.511 164.223 535.482 163.248 536.713 161.879C541.958 161.998 549.361 168.304 552.992 171.893C554.854 173.734 556.338 175.516 556.38 178.208C555.706 179.749 555.239 180.008 553.937 181.008Z"/>
	<path fill="#AD6D09" d="M648.808 181.829C652.485 177.528 655.169 174.914 660.88 173.606C662.869 173.652 664.742 173.895 666.566 174.755C674.914 178.691 696.608 220.312 701.509 230.682C708.162 244.76 713.761 259.264 719.434 273.75C721.663 279.442 724.413 284.998 726.267 290.821C724.544 288.189 722.944 285.461 721.298 282.78C715.516 273.843 709.085 265.237 702.909 256.561C692.972 242.602 683.011 228.587 672.825 214.815C664.458 203.502 653.845 195.432 648.808 181.829Z"/>
	<path fill="#D4E09B" d="M370.233 198.089C368.879 197.573 367.12 197.025 366.295 195.728C365.61 194.652 365.59 193.699 365.969 192.521C367.567 187.556 383.447 179.14 388.416 176.443C388.637 176.434 388.859 176.408 389.081 176.416C390.685 176.476 392.008 177.224 393.044 178.42C393.194 179.181 393.312 179.853 393.087 180.623C391.668 185.481 375.119 194.961 370.233 198.089Z"/>
	<path fill="#D4E09B" d="M578.756 211.769C577.467 211.944 576.441 211.949 575.162 211.825C573.059 209.925 563.496 196.826 563.427 194.38C563.366 192.192 564.486 191.286 565.914 189.841C567.683 189.944 568.767 189.812 570.163 191.078C573.48 194.089 581.215 204.461 580.866 208.995C580.752 210.466 579.78 210.931 578.756 211.769Z"/>
	<path fill="#D4E09B" d="M334.267 224.794C332.93 224.505 331.324 223.989 330.442 222.858C329.716 221.927 329.718 220.987 329.989 219.896C331.178 215.106 346.361 205.226 350.867 202.37C352.752 202.689 353.812 203.157 354.959 204.757C355.168 205.706 355.291 206.326 355.002 207.285C353.617 211.882 338.648 222.237 334.267 224.794Z"/>
	<path fill="#D4E09B" d="M597.902 247.048C596.17 247.098 594.807 247.317 593.483 245.997C590.205 242.728 583.97 232.125 584.357 227.518C584.495 225.88 585.441 225.066 586.54 223.98C587.958 223.996 588.901 223.774 590.064 224.766C593.247 227.48 600.373 240.162 599.878 244.254C599.699 245.741 598.957 246.154 597.902 247.048Z"/>
	<path fill="#D4E09B" d="M300.308 254.399C300.192 254.426 300.079 254.469 299.961 254.48C298.46 254.628 297.608 254.437 296.44 253.454C295.459 252.629 294.771 251.536 294.775 250.217C294.789 245.348 309.431 234.425 313.462 231.457C315.477 231.3 316.689 231.649 318.346 232.708C319.022 233.863 319.29 234.237 319.049 235.643C318.271 240.203 304.452 251.403 300.308 254.399Z"/>
	<path fill="#D9E6D7" d="M795.086 267.037C804.085 266.837 813.193 267.838 822.219 267.913C844.733 268.1 866.872 267.635 889.35 266.256C916.31 264.602 943.636 262.389 970.469 259.31C988.303 257.263 1006.1 254.275 1024 252.879L1024 629.57C1006.35 616.249 992.688 604.159 978.33 587.264C969.924 577.372 962.62 566.718 955.243 556.056C943.732 539.717 932.793 522.981 922.447 505.879C911.115 487.547 900.11 469.014 889.438 450.289C874.229 423.013 859.963 395.122 845.67 367.356C828.48 334.083 811.618 300.642 795.086 267.037Z"/>
	<path fill="#B8F2E6" d="M616.906 287.449L614.521 286.964C611.001 284.305 603.193 268.56 602.138 264.064C602.301 262.342 603.202 261.481 604.273 260.227C605.228 260.335 606.162 260.487 606.959 261.076C610.134 263.422 618.154 279.836 618.37 283.775C618.464 285.491 617.897 286.172 616.906 287.449Z"/>
	<path fill="#D4E09B" d="M265.068 288.247C263.496 288.061 261.891 287.969 260.899 286.523C260.184 285.48 260.153 284.301 260.491 283.129C261.966 278.028 273.423 267.914 278.117 264.963C280.007 265.006 280.775 265.048 282.262 266.19C282.65 267.196 282.89 267.622 282.646 268.717C281.783 272.604 268.833 285.69 265.068 288.247Z"/>
	<path fill="#D9E6D7" d="M0 296.281C30.7207 293.669 61.5147 289.267 92.0365 284.884C105.516 282.948 119.55 279.52 133.085 278.866C129.104 290.153 125.959 301.722 122.224 313.091C115.428 333.775 108.003 354.373 100.422 374.783C87.4964 408.623 73.3956 442.003 58.1447 474.861C50.1501 492.368 42.3551 509.897 33.8213 527.151C22.9511 549.027 13.6615 566.768 0 587.115L0 296.281ZM39.6271 491.838C34.9365 495.728 30.7043 499.868 26.8578 504.6C27.717 506.47 28.6989 509.286 30.8139 510.022C31.2112 510.16 31.5962 510.171 32.0082 510.208C36.7856 506.838 40.3258 501.077 44.7494 497.08C43.3563 494.994 41.9722 492.908 39.6271 491.838ZM11.2239 519.455C7.03961 522.488 3.18055 526.437 0.0418993 530.54C1.71063 532.359 3.31632 534.236 5.25714 535.771C8.23181 533.328 15.7844 527.884 16.2919 523.928C16.4442 522.741 16.1936 521.851 15.3131 520.994C14.2165 519.927 12.6658 519.674 11.2239 519.455Z"/>
	<path fill="#B8F2E6" d="M633.196 324.09C632.434 324.028 631.826 323.857 631.095 323.647C628.272 321.157 620.334 305.474 620.263 301.981C620.232 300.4 620.931 300.001 621.913 298.938C623.039 298.858 623.79 298.888 624.871 299.219C628.898 303.052 633.802 313.981 634.9 319.478C635.319 321.575 634.346 322.487 633.196 324.09Z"/>
	<path fill="#B8F2E6" d="M637.294 339.506L640.989 335.807L642.166 336.12C645.386 338.96 652.152 354.242 652.66 358.665C651.974 360.163 650.595 360.678 649.216 361.427C648.902 361.34 648.592 361.237 648.287 361.12C644.65 359.722 638.848 343.554 637.294 339.506Z"/>
	<path fill="#B36D03" d="M697.198 339.861C701.202 338.845 706.915 342.298 710.296 344.296C716.388 347.856 721.796 352.475 726.265 357.935C730.272 362.77 733.853 368.153 736.866 373.66C738.54 376.719 739.868 380.151 741.837 383.021C742.406 383.85 743.48 385.322 744.48 385.611C744.787 385.7 745.682 385.557 745.901 385.484C752.544 383.283 760.59 366.049 768.518 368.568C771.263 369.441 773.546 372.713 775.177 375C780.844 382.95 785.545 391.962 790.209 400.529C798.795 416.3 807.442 432.865 818.307 447.172C821.195 439.558 822.826 426.256 826.887 420.071C828.264 416.51 830.461 410.085 834.337 408.674C835.877 408.113 837.5 408.68 838.837 409.479C843.015 411.976 846.577 419.756 849.504 420.995C852.313 428.485 856.117 435.558 858.952 443.033C869.98 472.109 880.009 502.972 897.377 529.038C900.804 534.182 904.616 539.614 909.145 543.864C916.814 551.061 919.577 550.315 925.617 560.724C935.665 578.039 941.395 597.658 950.529 615.461C953.398 621.706 956.926 627.73 960.272 633.73C972.841 656.267 986.898 677.273 1008.54 692.054C1012.12 694.501 1016.19 697.304 1020.25 698.867C1020.81 699.083 1021.4 699.23 1021.98 699.379L1024 700.867L1024 773.922C1017.15 762.929 1011.17 751.37 1004.52 740.241C996.991 727.629 988.065 714.166 981.425 701.227C979.825 705.399 978.271 709.588 976.763 713.794C992.134 736.739 1007.22 760.01 1024 781.965L1024 832.088L1022.21 832.08C1015.44 830.796 1008.55 830.08 1001.76 828.804C1001.85 827.926 1001.99 827.008 1001.61 826.175C999.924 822.422 994.717 817.938 992.011 814.725L975.253 794.462C972.584 791.279 970.299 787.761 967.574 784.635C966.634 783.557 965.716 782.536 964.327 782.082C962.448 786.077 974.758 813.791 975.78 820.227C975.809 820.412 975.834 820.598 975.861 820.783C953.754 812.795 931.062 800.79 912.796 785.922C912.858 785.78 912.939 785.644 912.983 785.495C914.11 781.644 902.081 743.024 899.734 737.081C897.759 731.943 895.258 727.022 892.272 722.398C889.101 717.59 884.57 711.942 878.585 710.907C872.935 709.93 866.573 713.198 862.097 716.428C820.789 633.21 785.02 547.143 749.08 461.497L727.701 410.942C717.805 387.118 708.075 363.26 697.198 339.861ZM763.641 442.754C768.692 457.373 774.764 471.723 779.451 486.435C781.947 481.702 785.374 472.777 790.858 471.08C792.324 470.626 794.087 470.609 795.41 471.45C808.063 479.5 897.741 620.154 911.562 644.733C926.54 671.373 939.64 698.965 953.741 726.046C956.846 732.008 960.316 737.758 963.488 743.677L967.597 734.677C970.716 727.753 974.091 720.679 976.445 713.454C962.9 694.642 951.579 673.804 939.194 654.179C924.509 630.488 907.184 608.539 887.551 588.752C891.268 577.594 897.441 567.804 901.782 556.989C894.236 541.959 844.551 490.15 829.519 478.733C819.314 470.982 806.98 465.342 795.768 459.162C787.815 454.778 772.325 445.452 764.169 442.892C763.995 442.837 763.817 442.8 763.641 442.754Z"/>
	<path fill="#B8F2E6" d="M666.46 399.452C665.878 399.467 665.285 399.324 664.71 399.234C661.76 396.705 654.576 380.55 654.257 376.727C654.128 375.18 654.843 374.508 655.704 373.36C656.874 373.315 657.906 373.411 659.062 373.589C662.653 377.32 668.31 391.008 669.14 396.14C668.765 397.812 667.728 398.444 666.46 399.452Z"/>
	<path fill="#B36D03" d="M83.8069 588.653C78.1653 585.226 70.9429 566.879 65.0767 560.189C60.2017 554.63 52.1587 552.096 47.6688 546.593C47.8446 545.91 47.8408 545.816 48.1952 545.078C49.3771 542.617 51.7116 539.978 53.5396 537.943C65.6353 524.48 76.4248 534.9 89.4327 529.44C92.7427 528.051 95.2885 525.535 97.3124 522.627C105.069 511.48 110.525 496.415 115.799 483.852L136.069 435.075C142.445 419.447 154.266 389.836 170.725 383.282C175.531 381.368 181.562 380.917 186.325 383.21C188.149 384.088 189.545 385.192 190.272 387.122C169.197 425.446 148.775 464.127 129.014 503.146C119.973 520.79 110.832 538.384 101.593 555.926C95.8426 566.872 90.2894 578.123 83.8069 588.653Z"/>
	<path fill="#B8F2E6" d="M686.752 437.77C684.879 438.54 683.553 438.936 681.678 438.168C678.218 433.087 674.622 422.876 672.211 416.854C671.331 414.654 671.377 413.668 672.315 411.474L675.522 411.504C675.96 411.748 676.453 411.912 676.836 412.236C678.502 413.649 686.449 431.229 687.289 434.072C687.776 435.722 687.483 436.234 686.752 437.77Z"/>
	<path fill="#C18325" d="M103.768 445.534C102.19 446.864 100.757 448.759 98.9358 449.699C97.2956 450.546 95.4479 450.99 93.6727 450.379C92.9633 449.334 92.7319 448.785 92.922 447.496C93.5687 443.11 99.095 436.945 102.784 434.545C104.717 433.287 106.035 433.422 108.159 433.942C107.04 437.302 105.878 442.825 103.768 445.534Z"/>
	<path fill="#AD6D09" d="M779.451 486.435C774.764 471.723 768.692 457.373 763.641 442.754C763.817 442.8 763.995 442.837 764.169 442.892C772.325 445.452 787.815 454.778 795.768 459.162C806.98 465.342 819.314 470.982 829.519 478.733C844.551 490.15 894.236 541.959 901.782 556.989C897.441 567.804 891.268 577.594 887.551 588.752C907.184 608.539 924.509 630.488 939.194 654.179C951.579 673.804 962.9 694.642 976.445 713.454C974.091 720.679 970.716 727.753 967.597 734.677L963.488 743.677C960.316 737.758 956.846 732.008 953.741 726.046C939.64 698.965 926.54 671.373 911.562 644.733C897.741 620.154 808.063 479.5 795.41 471.45C794.087 470.609 792.324 470.626 790.858 471.08C785.374 472.777 781.947 481.702 779.451 486.435Z"/>
	<path fill="#B8F2E6" d="M701.957 479.924C701.199 479.753 700.47 479.486 699.732 479.245C696.51 476.186 689.744 459.473 688.592 454.823C689.043 453.451 690.5 452.728 691.629 451.93C693.072 452.063 693.856 451.919 694.952 453.034C697.913 456.049 704.818 472.399 704.781 476.661C704.227 478.243 703.215 478.922 701.957 479.924Z"/>
	<path fill="#C18325" d="M64.9201 482.607C64.2064 482.292 63.2764 481.717 62.8314 481.035C62.0878 479.896 61.9155 479.164 62.2355 477.848C63.1719 473.997 70.8207 467.169 74.2337 465.331C75.3311 465.552 76.1459 465.74 76.9471 466.55C77.625 467.235 77.8795 468.351 77.6679 469.29C76.6583 473.767 68.8318 480.66 64.9201 482.607Z"/>
	<path fill="#D4E09B" d="M26.8578 504.6C30.7043 499.868 34.9365 495.728 39.6271 491.838C41.9722 492.908 43.3563 494.994 44.7494 497.08C40.3258 501.077 36.7856 506.838 32.0082 510.208C31.5962 510.171 31.2112 510.16 30.8139 510.022C28.6989 509.286 27.717 506.47 26.8578 504.6Z"/>
	<path fill="#B8F2E6" d="M718.948 521.231C718.012 521.033 716.523 520.738 715.81 520.083C714.681 519.046 706.514 497.544 705.994 495.104C706.877 493.56 707.859 493.197 709.36 492.281C709.76 492.362 710.408 492.422 710.799 492.681C712.757 493.978 721.169 513.978 721.926 517.42C721.521 519.16 720.211 520.077 718.948 521.231Z"/>
	<path fill="#D4E09B" d="M0.0418993 530.54C3.18055 526.437 7.03961 522.488 11.2239 519.455C12.6658 519.674 14.2165 519.927 15.3131 520.994C16.1936 521.851 16.4442 522.741 16.2919 523.928C15.7844 527.884 8.23181 533.328 5.25714 535.771C3.31632 534.236 1.71063 532.359 0.0418993 530.54Z"/>
	<path fill="#B8F2E6" d="M737.397 560.999C736.052 561.435 735.755 561.54 734.385 561.261C731.123 558.512 724.966 542.544 723.85 538.124C723.356 536.168 723.938 535.393 724.939 533.812C726.298 533.781 727.852 533.645 728.889 534.645C730.695 536.385 739.605 556.741 739.355 558.974C739.273 559.701 737.953 560.52 737.397 560.999Z"/>
	<path fill="#B8F2E6" d="M754.484 601.761C753.427 601.951 752.747 601.853 751.704 601.616C749.674 599.863 742.313 581.238 740.573 577.345C740.866 575.639 741.726 575.106 742.894 573.865C743.852 573.856 744.504 574.045 745.403 574.365C749.237 578.054 755.542 593.102 756.804 598.459C756.561 599.932 755.49 600.75 754.484 601.761Z"/>
	<path fill="#B8F2E6" d="M770.879 639.562C770.219 639.522 769.613 639.624 769.051 639.215C766.218 637.153 759.449 620.251 759.255 616.828C759.128 614.579 760.319 613.264 761.673 611.651C762.218 611.892 762.519 611.996 763.031 612.37C766.241 614.711 773.523 632.251 773.989 636.442C773.546 637.857 772.013 638.695 770.879 639.562Z"/>
	<path fill="#C18325" d="M950.529 615.461C963.523 615.886 975.142 619.918 984.204 629.489C996.004 641.951 1001.25 659.41 1008.82 674.479C1013.01 682.839 1018.22 690.835 1021.98 699.379C1021.4 699.23 1020.81 699.083 1020.25 698.867C1016.19 697.304 1012.12 694.501 1008.54 692.054C986.898 677.273 972.841 656.267 960.272 633.73C956.926 627.73 953.398 621.706 950.529 615.461Z"/>
	<path fill="#B8F2E6" d="M788.884 675.349C787.641 675.231 786.056 675.27 785.008 674.539C784.069 673.883 774.929 654.13 774.541 652.198C775.142 650.65 776.489 649.777 777.73 648.749L779.428 648.994C782.24 651.393 790.665 668.393 790.663 672.003C790.662 673.534 789.852 674.32 788.884 675.349Z"/>
	<defs>
		<linearGradient id="gradient_0" gradientUnits="userSpaceOnUse" x1="168.61853" y1="668.88965" x2="264.28558" y2="892.20251">
			<stop offset="0" stop-color="#EAEAC9"/>
			<stop offset="1" stop-color="#D7E7E1"/>
		</linearGradient>
	</defs>
	<path fill="url(#gradient_0)" d="M0 745.583C14.6629 739.627 28.8841 732.039 43.0827 725.049C83.6603 705.071 130.994 681.184 175.098 671.63C219.626 661.983 260.105 668.681 298.574 693.456C304.324 697.159 310.389 700.93 315.728 705.199C319.038 707.847 321.998 711.33 325.62 713.543C325.853 713.685 326.091 713.82 326.326 713.959L326.831 714.374C333.811 720.226 340.094 727.269 346.457 733.778C363.83 751.551 380.154 769.233 400.568 783.708C411.811 791.679 423.429 798.117 435.872 804.041C441.715 806.823 448.373 809.199 453.925 812.448C450.854 813.115 447.765 813.692 444.66 814.177C421.425 817.859 396.254 815.449 373.878 808.289C354.538 802.1 336.049 793.505 316.786 787.043C281.479 775.201 244.843 766.259 207.372 766.23C188.17 766.215 169.715 768.083 150.954 772.168C142.189 774.077 133.094 776.074 124.611 779.006C116.906 781.668 108.906 785.646 100.906 787.172C98.4788 787.635 97.282 787.571 94.9561 786.711C93.106 786.027 91.2372 785.43 89.3584 784.83C92.5846 782.783 98.5769 780.464 100.611 777.401C113.721 770.362 126.99 763.639 140.173 756.745C143.987 754.751 148.121 753.312 151.855 751.189C146.887 751.401 130.089 757.457 124.349 759.269C104.522 765.53 84.5539 772.412 64.345 777.277C47.3292 782.295 30.011 786.222 12.8986 790.921C8.62088 792.096 4.2148 792.996 0 794.365L0 745.583Z"/>
	<path fill="#B8F2E6" d="M805.381 708.838C804.791 708.721 804.124 708.599 803.626 708.236C801.257 706.512 793.114 690.555 792.577 687.3C793.026 685.726 794.593 684.722 795.786 683.685C796.742 683.83 797.283 684.058 797.952 684.796C800.643 687.767 808.707 702.418 808.031 705.999C807.752 707.481 806.551 708.114 805.381 708.838Z"/>
	<path fill="#D4E09B" d="M808.35 733.283C740.607 716.369 695.373 724.544 630.22 745.456C620.559 748.557 588.828 758.696 579.839 758.54C592.216 747.144 616.748 733.149 631.591 724.35C640.956 718.799 649.979 712.806 659.794 708.045C684.474 696.074 708.61 686.78 736.749 689.385C744.125 690.068 751.572 691.32 758.577 693.786C764.854 695.997 771.134 698.959 776.737 702.56C785.075 707.916 804.168 724.62 808.35 733.283Z"/>
	<path fill="#AD6D09" d="M981.425 701.227C988.065 714.166 996.991 727.629 1004.52 740.241C1011.17 751.37 1017.15 762.929 1024 773.922L1024 781.965C1007.22 760.01 992.134 736.739 976.763 713.794C978.271 709.588 979.825 705.399 981.425 701.227Z"/>
	<path fill="#AD6D09" d="M862.097 716.428C866.573 713.198 872.935 709.93 878.585 710.907C884.57 711.942 889.101 717.59 892.272 722.398C895.258 727.022 897.759 731.943 899.734 737.081C902.081 743.024 914.11 781.644 912.983 785.495C912.939 785.644 912.858 785.78 912.796 785.922C908.762 783.287 904.919 779.848 901.2 776.775C878.409 757.941 873.527 742.262 862.097 716.428Z"/>
	<path fill="#D9E6D7" d="M326.326 713.959C335.996 714.385 345.786 714.055 355.416 714.835C407.224 719.032 453.742 735.027 496.87 764.17C514.642 763.688 532.529 762.465 550.277 761.367C559.307 760.808 568.437 759.715 577.485 759.951C567.19 767.198 556.681 774.136 545.972 780.756C541.947 783.26 537.811 786.255 533.525 788.233C528.869 790.54 524.245 793.154 519.487 795.212C503.455 802.146 486.587 806.303 469.591 810.035C464.896 811.066 458.639 813.123 453.925 812.448C448.373 809.199 441.715 806.823 435.872 804.041C423.429 798.117 411.811 791.679 400.568 783.708C380.154 769.233 363.83 751.551 346.457 733.778C340.094 727.269 333.811 720.226 326.831 714.374L326.326 713.959Z"/>
	<path fill="#B8F2E6" d="M822.591 742.258C822.053 742.013 821.784 741.922 821.279 741.526C817.949 738.912 810.411 724.136 809.921 719.816C810.43 718.001 811.86 716.979 813.199 715.749C817.934 718.709 823.76 732.857 826.265 738.251C825.243 739.707 823.826 740.979 822.591 742.258Z"/>
	<path fill="#FAF3DD" d="M579.839 758.54C588.828 758.696 620.559 748.557 630.22 745.456C695.373 724.544 740.607 716.369 808.35 733.283C811.821 736.376 825.547 753.385 828.049 753.982L828.515 753.456C831.262 756.456 833.276 760.548 835.31 764.061C836.892 766.177 837.846 769.071 839.811 770.884C840.877 771.866 841.413 771.872 842.816 771.813C844.563 770.837 845.178 769.454 846.126 767.745C842.584 762.278 838.965 756.863 836.182 750.959C845.717 755.93 852.416 767.011 859.32 774.992C865.41 782.032 871.798 788.803 877.963 795.774C887.663 806.743 916.018 840.625 928.525 844.944C946.247 854.541 967.916 860.574 988.087 862.196C984.428 856.496 981.301 850.168 978.412 844.042C985.952 843.114 1018.75 836.403 1022.21 832.08L1024 832.088L1024 871.78L1024 880.128C1013.24 884.071 1002.22 888.169 991.06 890.838C988.024 891.564 982.486 890.622 980.069 892.178C975.624 889.312 970.577 887.39 965.78 885.182C963.529 886.818 962.174 888.493 960.812 890.892C963.913 892.785 967.288 894.074 970.406 895.896C968.55 896.711 875.383 895.963 865.776 895.804C857.178 895.663 846.264 893.768 837.963 895.213L836.709 894.68C833.275 895.15 829.167 894.618 825.671 894.383C803.439 892.889 774.685 887.307 754.432 877.973C740.571 871.585 728.588 862.835 713.535 858.922C699.543 855.284 682.688 856.405 668.333 856.79C672.389 852.019 676.974 847.581 681.363 843.113L681.838 843.044C686.252 837.669 693.383 834.301 697.585 828.774L697.445 828.026L696.089 827.773C665.524 828.736 634.242 830.159 604.369 837.161C591.627 838.996 549.391 853.54 538.149 860.465C518.071 868.009 498.945 877.877 481.162 889.867C476.329 892.898 471.649 896.101 466.971 899.364C459.033 904.793 451.421 910.694 443.448 916.073C439.7 918.602 435.423 920.564 431.785 923.169C419.943 922.726 407.946 919.994 396.321 917.841C381.786 915.11 367.221 912.544 352.628 910.144C333.926 907.064 315.049 904.133 296.244 901.787C280.914 899.874 265.517 898.493 250.201 896.471C232.163 894.09 214.344 890.381 196.226 888.552C162.084 885.106 128.095 888.575 93.9834 889.9C62.7079 891.116 31.2964 891.024 0 890.962L0 874.088C4.22012 871.804 8.24634 869.179 12.0383 866.239L0 866.242L0 849.116L0 801.928L0 794.365C4.2148 792.996 8.62088 792.096 12.8986 790.921C30.011 786.222 47.3292 782.295 64.345 777.277C71.7396 781.373 80.1584 781.481 87.8012 784.565C92.0095 782.127 96.2014 779.456 100.611 777.401C98.5769 780.464 92.5846 782.783 89.3584 784.83C91.2372 785.43 93.106 786.027 94.9561 786.711C97.282 787.571 98.4788 787.635 100.906 787.172C108.906 785.646 116.906 781.668 124.611 779.006C133.094 776.074 142.189 774.077 150.954 772.168C169.715 768.083 188.17 766.215 207.372 766.23C244.843 766.259 281.479 775.201 316.786 787.043C336.049 793.505 354.538 802.1 373.878 808.289C396.254 815.449 421.425 817.859 444.66 814.177C447.765 813.692 450.854 813.115 453.925 812.448C458.639 813.123 464.896 811.066 469.591 810.035C486.587 806.303 503.455 802.146 519.487 795.212C524.245 793.154 528.869 790.54 533.525 788.233C537.811 786.255 541.947 783.26 545.972 780.756C556.681 774.136 567.19 767.198 577.485 759.951L579.839 758.54ZM801.18 828.154C791.458 815.894 774.348 791.966 758.248 790.13C737.052 787.712 713.597 814.811 698.308 827.472C715.981 826.308 733.83 827.433 751.53 827.466C763.649 827.489 775.755 827.316 787.872 827.638C792.242 827.754 796.861 827.583 801.18 828.154ZM853.326 777.341C851.773 778.48 850.174 779.554 848.862 780.975C850.326 785.618 858.571 798.979 862.617 801.887L863.246 801.923C864.929 800.384 866.67 798.878 868.242 797.224C865.447 793.579 857.642 779.534 854.976 777.829C854.492 777.521 853.876 777.504 853.326 777.341ZM876.858 808.446C875.012 809.39 872.447 810.432 871.605 812.498C871.298 813.253 871.824 814.162 872.204 814.826C874.757 819.277 882.639 828.479 887.046 830.887C889.168 829.916 890.158 828.871 891.571 827.066C886.508 821.04 882.085 814.252 876.858 808.446ZM901.734 837.823C900.181 838.942 898.681 839.812 897.857 841.6C897.778 843.408 898.451 843.956 899.679 845.253C903.328 849.106 912.05 858.156 915.921 860.711C917.289 860.239 918.82 859.882 919.533 858.489C920.106 857.369 919.935 856.178 919.42 855.08C918.098 852.258 905.696 839.034 903.195 838.1C902.47 837.829 902.41 837.866 901.734 837.823ZM349.034 841.372C356.322 847.787 361.081 849.952 370.955 849.309L371.911 849.246C370.285 848.454 349.896 841.413 349.034 841.372ZM934.113 864.344C931.982 865.867 930.23 867.443 928.413 869.313C934.626 874.476 942.011 879.424 949.058 883.386C950.397 882.423 951.3 881.572 952.294 880.252C952.459 879.231 952.728 879.097 952.082 878.208C950.351 875.826 936.924 865.47 934.113 864.344Z"/>
	<path fill="#B8F2E6" d="M828.515 753.456C828.418 753.169 828.276 752.892 828.225 752.593C828.02 751.396 828.452 750.364 829.002 749.346C830.196 748.548 830.937 748.149 832.422 748.255C834.083 748.374 835.125 749.822 836.182 750.959C838.965 756.863 842.584 762.278 846.126 767.745C845.178 769.454 844.563 770.837 842.816 771.813C841.413 771.872 840.877 771.866 839.811 770.884C837.846 769.071 836.892 766.177 835.31 764.061C833.276 760.548 831.262 756.456 828.515 753.456Z"/>
	<path fill="#B8F2E6" d="M64.345 777.277C84.5539 772.412 104.522 765.53 124.349 759.269C130.089 757.457 146.887 751.401 151.855 751.189C148.121 753.312 143.987 754.751 140.173 756.745C126.99 763.639 113.721 770.362 100.611 777.401C96.2014 779.456 92.0095 782.127 87.8012 784.565C80.1584 781.481 71.7396 781.373 64.345 777.277Z"/>
	<path fill="#B8F2E6" d="M848.862 780.975C850.174 779.554 851.773 778.48 853.326 777.341C853.876 777.504 854.492 777.521 854.976 777.829C857.642 779.534 865.447 793.579 868.242 797.224C866.67 798.878 864.929 800.384 863.246 801.923L862.617 801.887C858.571 798.979 850.326 785.618 848.862 780.975Z"/>
	<path fill="#AD6D09" d="M975.861 820.783C975.834 820.598 975.809 820.412 975.78 820.227C974.758 813.791 962.448 786.077 964.327 782.082C965.716 782.536 966.634 783.557 967.574 784.635C970.299 787.761 972.584 791.279 975.253 794.462L992.011 814.725C994.717 817.938 999.924 822.422 1001.61 826.175C1001.99 827.008 1001.85 827.926 1001.76 828.804C992.899 826.679 984.436 823.844 975.861 820.783Z"/>
	<path fill="#FAF3DD" d="M698.308 827.472C713.597 814.811 737.052 787.712 758.248 790.13C774.348 791.966 791.458 815.894 801.18 828.154C796.861 827.583 792.242 827.754 787.872 827.638C775.755 827.316 763.649 827.489 751.53 827.466C733.83 827.433 715.981 826.308 698.308 827.472Z"/>
	<path fill="#B8F2E6" d="M887.046 830.887C882.639 828.479 874.757 819.277 872.204 814.826C871.824 814.162 871.298 813.253 871.605 812.498C872.447 810.432 875.012 809.39 876.858 808.446C882.085 814.252 886.508 821.04 891.571 827.066C890.158 828.871 889.168 829.916 887.046 830.887Z"/>
	<path fill="#AED9E0" d="M604.369 837.161C634.242 830.159 665.524 828.736 696.089 827.773L697.445 828.026L697.585 828.774C693.383 834.301 686.252 837.669 681.838 843.044L681.363 843.113C661.943 841.891 642.661 839.873 623.279 838.405C617.215 837.945 610.172 838.9 604.369 837.161Z"/>
	<path fill="#AED9E0" d="M538.149 860.465C549.391 853.54 591.627 838.996 604.369 837.161C610.172 838.9 617.215 837.945 623.279 838.405C642.661 839.873 661.943 841.891 681.363 843.113C676.974 847.581 672.389 852.019 668.333 856.79L667.834 857.247C656.845 857.053 645.805 858.081 634.802 858.173C616.471 858.327 598.136 857.733 579.814 858.443C572.278 858.73 564.748 859.134 557.226 859.657C551.069 860.103 544.297 861.16 538.149 860.465Z"/>
	<path fill="#B8F2E6" d="M915.921 860.711C912.05 858.156 903.328 849.106 899.679 845.253C898.451 843.956 897.778 843.408 897.857 841.6C898.681 839.812 900.181 838.942 901.734 837.823C902.41 837.866 902.47 837.829 903.195 838.1C905.696 839.034 918.098 852.258 919.42 855.08C919.935 856.178 920.106 857.369 919.533 858.489C918.82 859.882 917.289 860.239 915.921 860.711Z"/>
	<path fill="#B8F2E6" d="M371.911 849.246L370.955 849.309C361.081 849.952 356.322 847.787 349.034 841.372C349.896 841.413 370.285 848.454 371.911 849.246Z"/>
	<path fill="#D9E6D7" d="M928.525 844.944C945.248 844.835 961.67 845.003 978.412 844.042C981.301 850.168 984.428 856.496 988.087 862.196C967.916 860.574 946.247 854.541 928.525 844.944Z"/>
	<path fill="#FAF3DD" d="M667.834 857.247L668.333 856.79C682.688 856.405 699.543 855.284 713.535 858.922C728.588 862.835 740.571 871.585 754.432 877.973C774.685 887.307 803.439 892.889 825.671 894.383C829.167 894.618 833.275 895.15 836.709 894.68L837.963 895.213C845.721 899.421 853.981 903.806 860.654 909.633C820.056 909.153 779.649 903.661 739.166 901.191C723.693 900.247 708.166 899.212 692.671 898.833C669.997 898.279 647.333 898.447 624.69 897.004C632.901 889.76 640.722 882.103 648.835 874.754C655.209 868.98 662.031 863.61 667.834 857.247Z"/>
	<path fill="#AED9E0" d="M538.149 860.465C544.297 861.16 551.069 860.103 557.226 859.657C564.748 859.134 572.278 858.73 579.814 858.443C598.136 857.733 616.471 858.327 634.802 858.173C645.805 858.081 656.845 857.053 667.834 857.247C662.031 863.61 655.209 868.98 648.835 874.754C640.722 882.103 632.901 889.76 624.69 897.004L624.124 897.082C598.517 895.146 572.381 894.047 546.708 894.584C538.935 894.747 531.091 894.831 523.329 895.3C516.898 895.688 510.456 896.429 504.016 896.529C498.122 897.315 471.253 900.769 466.971 899.364C471.649 896.101 476.329 892.898 481.162 889.867C498.945 877.877 518.071 868.009 538.149 860.465Z"/>
	<path fill="#B8F2E6" d="M928.413 869.313C930.23 867.443 931.982 865.867 934.113 864.344C936.924 865.47 950.351 875.826 952.082 878.208C952.728 879.097 952.459 879.231 952.294 880.252C951.3 881.572 950.397 882.423 949.058 883.386C942.011 879.424 934.626 874.476 928.413 869.313Z"/>
	<path fill="#FAF3DD" d="M0 866.242L12.0383 866.239C8.24634 869.179 4.22012 871.804 0 874.088L0 866.242Z"/>
	<path fill="#D9E6D7" d="M980.069 892.178C982.486 890.622 988.024 891.564 991.06 890.838C1002.22 888.169 1013.24 884.071 1024 880.128L1024 895.82C1019.77 896.36 1015.46 897.092 1011.19 897.064C1001.44 896.96 992.069 893.58 982.489 893.43L980.069 892.178Z"/>
	<path fill="#B8F2E6" d="M960.812 890.892C962.174 888.493 963.529 886.818 965.78 885.182C970.577 887.39 975.624 889.312 980.069 892.178L982.489 893.43L986.791 895.852C988.397 896.736 989.481 897.577 990.165 899.335C990.709 900.731 990.182 903.483 990.056 904.981C984.973 904.879 975.255 898.461 970.406 895.896C967.288 894.074 963.913 892.785 960.812 890.892Z"/>
	<path fill="#AED9E0" d="M0 890.962C31.2964 891.024 62.7079 891.116 93.9834 889.9C128.095 888.575 162.084 885.106 196.226 888.552C214.344 890.381 232.163 894.09 250.201 896.471C265.517 898.493 280.914 899.874 296.244 901.787C315.049 904.133 333.926 907.064 352.628 910.144C367.221 912.544 381.786 915.11 396.321 917.841C407.946 919.994 419.943 922.726 431.785 923.169C435.423 920.564 439.7 918.602 443.448 916.073C451.421 910.694 459.033 904.793 466.971 899.364C471.253 900.769 498.122 897.315 504.016 896.529C510.456 896.429 516.898 895.688 523.329 895.3C531.091 894.831 538.935 894.747 546.708 894.584C572.381 894.047 598.517 895.146 624.124 897.082C616.757 903.963 608.54 909.497 600.988 916.073C597.767 917.955 594.379 919.743 591.392 921.979L589.762 922.785C567.964 938.669 544.747 949.198 521.844 962.727C518.954 963.644 514.673 966.229 512.815 968.581C500.808 968.671 488.801 968.653 476.795 968.526L479.673 967.874L479.747 967.5C448.137 955.115 414.043 949.902 381.869 939.373C367.552 933.847 352.516 929.81 337.773 925.573C313.132 918.491 287.975 911.362 262.603 907.531C219.452 901.016 175.166 900.783 131.625 901.975C87.1687 903.192 43.1946 905.358 0 916.887L0 890.962Z"/>
	<path fill="#B8F2E6" d="M982.489 893.43C992.069 893.58 1001.44 896.96 1011.19 897.064C1003.74 897.881 997.244 902.062 990.763 905.584L990.056 904.981C990.182 903.483 990.709 900.731 990.165 899.335C989.481 897.577 988.397 896.736 986.791 895.852L982.489 893.43Z"/>
	<path fill="#AED9E0" d="M837.963 895.213C846.264 893.768 857.178 895.663 865.776 895.804C875.383 895.963 968.55 896.711 970.406 895.896C975.255 898.461 984.973 904.879 990.056 904.981L990.763 905.584C997.244 902.062 1003.74 897.881 1011.19 897.064C1015.46 897.092 1019.77 896.36 1024 895.82L1024 919.13L1024 930.057C1012.46 929.572 1000.63 927.648 989.156 926.186C980.379 925.069 971.269 924.345 962.606 922.608L961.966 922.642L893.4 914.073C883.542 912.89 873.014 910.814 863.139 910.727C862.39 910.27 861.466 909.974 860.654 909.633C853.981 903.806 845.721 899.421 837.963 895.213Z"/>
	<path fill="#FAF3DD" d="M624.124 897.082L624.69 897.004C647.333 898.447 669.997 898.279 692.671 898.833C708.166 899.212 723.693 900.247 739.166 901.191C779.649 903.661 820.056 909.153 860.654 909.633C861.466 909.974 862.39 910.27 863.139 910.727C873.014 910.814 883.542 912.89 893.4 914.073L961.966 922.642C951.009 929.364 939.546 935.221 927.679 940.161C921.985 942.467 916.118 944.239 910.412 946.483L910.084 946.422C889.118 953.112 868.135 958.285 845.934 958.05L845.406 957.911C839.717 953.562 833.072 950.031 827.116 945.98C811.207 935.159 787.656 916.811 770.145 910.777C760.416 907.424 748.466 907.315 738.211 906.846C708.366 905.48 678.946 906.085 649.256 909.398C639.929 910.395 630.626 911.606 621.354 913.029C614.895 914.066 608.077 915.9 601.549 916.067C601.362 916.072 601.175 916.071 600.988 916.073C608.54 909.497 616.757 903.963 624.124 897.082Z"/>
	<path fill="#AED9E0" d="M0 916.887C43.1946 905.358 87.1687 903.192 131.625 901.975C175.166 900.783 219.452 901.016 262.603 907.531C287.975 911.362 313.132 918.491 337.773 925.573C352.516 929.81 367.552 933.847 381.869 939.373C374.937 940.47 368.112 942.148 361.155 943.187C355.341 944.055 347.92 943.686 342.495 945.641L343.02 946.174C340.75 947.968 286.562 932.873 281.199 931.203C257.866 923.937 235.096 915.472 211.099 910.488C190.348 906.194 169.203 904.099 148.013 904.238C125.026 904.541 101.665 908.155 78.9802 911.698C52.567 915.678 26.2352 920.179 0 925.2L0 916.887Z"/>
	<path fill="#D9E6D7" d="M0 925.2C26.2352 920.179 52.567 915.678 78.9802 911.698C101.665 908.155 125.026 904.541 148.013 904.238C169.203 904.099 190.348 906.194 211.099 910.488C235.096 915.472 257.866 923.937 281.199 931.203C286.562 932.873 340.75 947.968 343.02 946.174L342.495 945.641C347.92 943.686 355.341 944.055 361.155 943.187C368.112 942.148 374.937 940.47 381.869 939.373C414.043 949.902 448.137 955.115 479.747 967.5L479.673 967.874L476.795 968.526C470.017 969.562 461.291 968.808 454.313 968.782L404.998 968.494L318.119 968.036C300.522 967.984 282.748 968.487 265.178 967.602C264.513 966.787 264.13 966.3 263.144 965.857C260.089 964.485 255.776 963.978 252.47 963.24C234.302 959.371 215.995 956.19 197.586 953.703C146.006 946.31 96.9776 951.496 45.9845 960.338C38.512 961.633 22.2718 963.055 16.3604 967.485C10.9661 967.803 5.41128 967.57 0 967.57L0 925.2Z"/>
	<path fill="#FAF3DD" d="M591.392 921.979C594.379 919.743 597.767 917.955 600.988 916.073C601.175 916.071 601.362 916.072 601.549 916.067C608.077 915.9 614.895 914.066 621.354 913.029C630.626 911.606 639.929 910.395 649.256 909.398C678.946 906.085 708.366 905.48 738.211 906.846C748.466 907.315 760.416 907.424 770.145 910.777C787.656 916.811 811.207 935.159 827.116 945.98C833.072 950.031 839.717 953.562 845.406 957.911C809.828 958.949 773.291 954.916 740.117 941.49C726.976 936.172 714.602 927.943 700.629 924.987C675.196 919.606 647.916 919.841 622.038 920.814C611.868 921.197 601.559 922.189 591.392 921.979Z"/>
	<path fill="#D9E6D7" d="M589.762 922.785L591.392 921.979C601.559 922.189 611.868 921.197 622.038 920.814C647.916 919.841 675.196 919.606 700.629 924.987C714.602 927.943 726.976 936.172 740.117 941.49C773.291 954.916 809.828 958.949 845.406 957.911L845.934 958.05C851.635 961.238 858.165 965.472 864.314 967.496L717.607 967.539C710.076 959.364 686.185 943.239 675.474 941.14C656.419 937.406 636.069 952.826 621.049 962.778C614.03 961.801 606.275 963.539 599.204 963.849C588.956 964.3 528.391 965.493 521.844 962.727C544.747 949.198 567.964 938.669 589.762 922.785Z"/>
	<path fill="#D9E6D7" d="M961.966 922.642L962.606 922.608C971.269 924.345 980.379 925.069 989.156 926.186C1000.63 927.648 1012.46 929.572 1024 930.057L1024 967.592C990.153 968.306 956.085 967.653 922.219 967.396C926.279 966.535 930.828 966.911 934.974 966.919C927.329 959.624 917.523 954.479 910.412 946.483C916.118 944.239 921.985 942.467 927.679 940.161C939.546 935.221 951.009 929.364 961.966 922.642Z"/>
	<path fill="#D4E09B" d="M621.049 962.778C636.069 952.826 656.419 937.406 675.474 941.14C686.185 943.239 710.076 959.364 717.607 967.539L614.317 968.468C616.198 966.272 618.759 964.533 621.049 962.778Z"/>
	<path fill="#FAF3DD" d="M845.934 958.05C868.135 958.285 889.118 953.112 910.084 946.422L910.412 946.483C917.523 954.479 927.329 959.624 934.974 966.919C930.828 966.911 926.279 966.535 922.219 967.396C902.918 967.549 883.616 967.583 864.314 967.496C858.165 965.472 851.635 961.238 845.934 958.05Z"/>
	<path fill="#D4E09B" d="M16.3604 967.485C22.2718 963.055 38.512 961.633 45.9845 960.338C96.9776 951.496 146.006 946.31 197.586 953.703C215.995 956.19 234.302 959.371 252.47 963.24C255.776 963.978 260.089 964.485 263.144 965.857C264.13 966.3 264.513 966.787 265.178 967.602C255.762 968 246.137 967.51 236.704 967.448C219.362 967.329 202.019 967.298 184.676 967.356L16.3604 967.485Z"/>
	<path fill="#FAF3DD" d="M512.815 968.581C514.673 966.229 518.954 963.644 521.844 962.727C528.391 965.493 588.956 964.3 599.204 963.849C606.275 963.539 614.03 961.801 621.049 962.778C618.759 964.533 616.198 966.272 614.317 968.468L512.815 968.581Z"/>
	<path fill="#AD6D09" d="M0 967.57C5.41128 967.57 10.9661 967.803 16.3604 967.485L184.676 967.356C202.019 967.298 219.362 967.329 236.704 967.448C246.137 967.51 255.762 968 265.178 967.602C282.748 968.487 300.522 967.984 318.119 968.036L404.998 968.494L454.313 968.782C461.291 968.808 470.017 969.562 476.795 968.526C488.801 968.653 500.808 968.671 512.815 968.581L614.317 968.468L717.607 967.539L864.314 967.496C883.616 967.583 902.918 967.549 922.219 967.396C956.085 967.653 990.153 968.306 1024 967.592L1024 974.989C1018.22 974.947 992.662 973.259 989.424 977.35C988.652 978.325 988.273 979.274 988.582 980.531C988.925 981.925 990.511 983.62 991.873 984.079C996.53 985.647 1017.15 984.062 1024 984.158L1024 1024L72.9579 1024C73.4102 1022.66 74.008 1020.64 73.6503 1019.23C73.2731 1017.74 72.5003 1016.72 71.1132 1016.03C69.5948 1015.27 67.8145 1015 66.1399 1014.87C61.1717 1014.48 55.9701 1015.09 50.9702 1015.06C42.5657 1015.03 33.8862 1014.38 25.5131 1014.9C23.9259 1015 22.3446 1015.24 20.866 1015.85C19.3722 1016.46 18.0508 1017.36 17.5991 1019.01C17.0573 1020.99 18.0941 1022.42 19.0982 1024L0 1024L0 967.57ZM817.536 977.243C813.559 977.246 805.942 976.339 803.061 979.506C802.169 980.487 801.854 981.374 801.94 982.709C802.021 983.968 802.57 985.355 803.617 986.126C806.84 988.498 845.051 987.097 852.037 987.055C855.767 987.166 861.775 987.987 864.645 984.97C865.206 984.38 865.485 983.572 865.512 982.754C865.566 981.038 864.476 979.162 863.179 978.121C861.093 976.448 823.096 977.271 817.536 977.243ZM571.178 978.095C569.992 978.744 568.845 979.101 568.374 980.515C567.958 981.764 568.352 982.392 568.879 983.47C573.257 986.627 583.244 984.985 588.613 984.971C589.417 984.587 590.461 984.359 590.809 983.502C591.184 982.578 591.079 981.932 590.988 980.969C590.248 979.499 589.419 978.885 587.876 978.427C582.993 976.98 576.272 977.927 571.178 978.095ZM277.315 978.587C275.635 979.359 273.266 980.344 272.563 982.23C272.171 983.282 272.295 984.641 272.814 985.625C273.687 987.28 275.502 988.14 277.267 988.454C283.425 989.549 290.689 988.736 296.949 988.702C309.184 988.634 321.426 988.782 333.657 988.462C335.391 987.897 336.967 987.394 337.835 985.614C338.409 984.432 338.47 983.067 338.005 981.839C337.539 980.618 336.699 979.808 335.517 979.285C331.488 977.505 285.298 978.436 277.315 978.587ZM624.309 978.715C618.574 979.007 606.976 977.458 602.707 981.43C602.243 982.67 602.043 983.362 602.542 984.649C603.21 986.374 604.443 987.679 606.208 988.262C607.863 988.81 610.309 988.547 612.052 988.528C617.399 988.515 628.514 989.604 632.652 985.806C633.72 984.826 633.765 984.429 633.987 983.072C633.34 981.305 632.245 980.017 630.531 979.165C628.668 978.238 626.306 978.572 624.309 978.715ZM131.67 985.647C130.054 987.046 128.967 988.13 128.762 990.386C128.639 991.739 128.924 992.999 129.914 993.994C131.134 995.22 132.762 995.575 134.415 995.781C143.948 996.971 158.175 995.988 168.117 995.971C186.606 995.942 205.183 996.464 223.66 995.953C225.332 994.142 227.149 992.222 226.788 989.534C226.63 988.361 225.708 987.434 224.686 986.914C220.712 984.893 143.566 985.194 131.67 985.647ZM473.881 993.096C472.055 994.292 470.416 995.201 469.902 997.478C469.689 998.422 469.988 998.735 470.328 999.588C471.801 1000.97 473.152 1001.63 475.133 1002.08C481.532 1003.54 503.601 1002.73 510.997 1002.48C511.521 1002.47 512.045 1002.44 512.567 1002.4C514.297 1001.05 516.077 999.732 516.522 997.457C516.699 996.548 516.363 996.124 516.04 995.303C514.585 993.996 513.293 993.409 511.363 993.036C505.847 991.972 483.919 992.488 477.306 992.836C476.162 992.898 475.021 992.985 473.881 993.096ZM665.347 996.144C663.687 996.656 662.018 997.201 661.269 998.966C660.672 1000.37 660.95 1002.26 661.813 1003.5C663.132 1005.38 665.225 1005.49 667.312 1005.62C675.124 1006.13 683.266 1005.64 691.105 1005.59L735.762 1005.43C737.075 1004.86 737.991 1004.47 738.712 1003.12C739.329 1001.97 739.579 1000.04 739.172 998.824C738.762 997.594 737.84 996.906 736.665 996.489C733.022 995.197 673.078 995.742 665.347 996.144ZM808.321 996.573C806.738 997.926 805.167 999.282 804.951 1001.48C804.857 1002.44 805.094 1002.73 805.448 1003.58C806.288 1004.4 806.902 1004.86 808.063 1005.13C815.037 1006.78 834.263 1005.54 842.843 1005.42C850.375 1005.31 857.907 1005.16 865.438 1004.97C866.882 1003.96 868.223 1003.05 868.571 1001.19C868.815 999.883 868.599 999.468 868.117 998.282C866.965 997.275 866.044 996.741 864.49 996.533C857.545 995.604 849.652 996.321 842.608 996.354C831.224 996.408 819.682 996.077 808.321 996.573ZM218.449 1001.55C216.362 1003.01 214.776 1004.09 214.209 1006.73C213.995 1007.72 214.158 1008.84 214.786 1009.65C216.23 1011.5 218.104 1011.78 220.339 1011.93C226.818 1012.36 233.466 1012.09 239.963 1012.08L272.958 1012.07L295.83 1012.05C300.541 1012.05 305.654 1012.4 310.306 1011.65C312.352 1010.59 313.617 1009.87 314.391 1007.56C314.788 1006.38 315.019 1005.03 314.406 1003.87C313.75 1002.63 312.247 1001.9 310.916 1001.68C303.78 1000.47 290.527 1001.44 282.55 1001.46C261.183 1001.6 239.816 1001.63 218.449 1001.55Z"/>
	<path fill="#974C00" d="M1024 984.158C1017.15 984.062 996.53 985.647 991.873 984.079C990.511 983.62 988.925 981.925 988.582 980.531C988.273 979.274 988.652 978.325 989.424 977.35C992.662 973.259 1018.22 974.947 1024 974.989L1024 984.158Z"/>
	<path fill="#974C00" d="M852.037 987.055C845.051 987.097 806.84 988.498 803.617 986.126C802.57 985.355 802.021 983.968 801.94 982.709C801.854 981.374 802.169 980.487 803.061 979.506C805.942 976.339 813.559 977.246 817.536 977.243C823.096 977.271 861.093 976.448 863.179 978.121C864.476 979.162 865.566 981.038 865.512 982.754C865.485 983.572 865.206 984.38 864.645 984.97C861.775 987.987 855.767 987.166 852.037 987.055Z"/>
	<path fill="#974C00" d="M588.613 984.971C583.244 984.985 573.257 986.627 568.879 983.47C568.352 982.392 567.958 981.764 568.374 980.515C568.845 979.101 569.992 978.744 571.178 978.095C576.272 977.927 582.993 976.98 587.876 978.427C589.419 978.885 590.248 979.499 590.988 980.969C591.079 981.932 591.184 982.578 590.809 983.502C590.461 984.359 589.417 984.587 588.613 984.971Z"/>
	<path fill="#974C00" d="M333.657 988.462C321.426 988.782 309.184 988.634 296.949 988.702C290.689 988.736 283.425 989.549 277.267 988.454C275.502 988.14 273.687 987.28 272.814 985.625C272.295 984.641 272.171 983.282 272.563 982.23C273.266 980.344 275.635 979.359 277.315 978.587C285.298 978.436 331.488 977.505 335.517 979.285C336.699 979.808 337.539 980.618 338.005 981.839C338.47 983.067 338.409 984.432 337.835 985.614C336.967 987.394 335.391 987.897 333.657 988.462Z"/>
	<path fill="#974C00" d="M612.052 988.528C610.309 988.547 607.863 988.81 606.208 988.262C604.443 987.679 603.21 986.374 602.542 984.649C602.043 983.362 602.243 982.67 602.707 981.43C606.976 977.458 618.574 979.007 624.309 978.715C626.306 978.572 628.668 978.238 630.531 979.165C632.245 980.017 633.34 981.305 633.987 983.072C633.765 984.429 633.72 984.826 632.652 985.806C628.514 989.604 617.399 988.515 612.052 988.528Z"/>
	<path fill="#974C00" d="M223.66 995.953C205.183 996.464 186.606 995.942 168.117 995.971C158.175 995.988 143.948 996.971 134.415 995.781C132.762 995.575 131.134 995.22 129.914 993.994C128.924 992.999 128.639 991.739 128.762 990.386C128.967 988.13 130.054 987.046 131.67 985.647C143.566 985.194 220.712 984.893 224.686 986.914C225.708 987.434 226.63 988.361 226.788 989.534C227.149 992.222 225.332 994.142 223.66 995.953Z"/>
	<path fill="#974C00" d="M512.567 1002.4C512.045 1002.44 511.521 1002.47 510.997 1002.48C503.601 1002.73 481.532 1003.54 475.133 1002.08C473.152 1001.63 471.801 1000.97 470.328 999.588C469.988 998.735 469.689 998.422 469.902 997.478C470.416 995.201 472.055 994.292 473.881 993.096C475.021 992.985 476.162 992.898 477.306 992.836C483.919 992.488 505.847 991.972 511.363 993.036C513.293 993.409 514.585 993.996 516.04 995.303C516.363 996.124 516.699 996.548 516.522 997.457C516.077 999.732 514.297 1001.05 512.567 1002.4Z"/>
	<path fill="#974C00" d="M735.762 1005.43L691.105 1005.59C683.266 1005.64 675.124 1006.13 667.312 1005.62C665.225 1005.49 663.132 1005.38 661.813 1003.5C660.95 1002.26 660.672 1000.37 661.269 998.966C662.018 997.201 663.687 996.656 665.347 996.144C673.078 995.742 733.022 995.197 736.665 996.489C737.84 996.906 738.762 997.594 739.172 998.824C739.579 1000.04 739.329 1001.97 738.712 1003.12C737.991 1004.47 737.075 1004.86 735.762 1005.43Z"/>
	<path fill="#974C00" d="M865.438 1004.97C857.907 1005.16 850.375 1005.31 842.843 1005.42C834.263 1005.54 815.037 1006.78 808.063 1005.13C806.902 1004.86 806.288 1004.4 805.448 1003.58C805.094 1002.73 804.857 1002.44 804.951 1001.48C805.167 999.282 806.738 997.926 808.321 996.573C819.682 996.077 831.224 996.408 842.608 996.354C849.652 996.321 857.545 995.604 864.49 996.533C866.044 996.741 866.965 997.275 868.117 998.282C868.599 999.468 868.815 999.883 868.571 1001.19C868.223 1003.05 866.882 1003.96 865.438 1004.97Z"/>
	<path fill="#974C00" d="M310.306 1011.65C305.654 1012.4 300.541 1012.05 295.83 1012.05L272.958 1012.07L239.963 1012.08C233.466 1012.09 226.818 1012.36 220.339 1011.93C218.104 1011.78 216.23 1011.5 214.786 1009.65C214.158 1008.84 213.995 1007.72 214.209 1006.73C214.776 1004.09 216.362 1003.01 218.449 1001.55C239.816 1001.63 261.183 1001.6 282.55 1001.46C290.527 1001.44 303.78 1000.47 310.916 1001.68C312.247 1001.9 313.75 1002.63 314.406 1003.87C315.019 1005.03 314.788 1006.38 314.391 1007.56C313.617 1009.87 312.352 1010.59 310.306 1011.65Z"/>
	<path fill="#974C00" d="M19.0982 1024C18.0941 1022.42 17.0573 1020.99 17.5991 1019.01C18.0508 1017.36 19.3722 1016.46 20.866 1015.85C22.3446 1015.24 23.9259 1015 25.5131 1014.9C33.8862 1014.38 42.5657 1015.03 50.9702 1015.06C55.9701 1015.09 61.1717 1014.48 66.1399 1014.87C67.8145 1015 69.5948 1015.27 71.1132 1016.03C72.5003 1016.72 73.2731 1017.74 73.6503 1019.23C74.008 1020.64 73.4102 1022.66 72.9579 1024L19.0982 1024Z"/>
</svg>
