<?xml version="1.0" encoding="utf-8" ?>
<svg xmlns="http://www.w3.org/2000/svg" xmlns:xlink="http://www.w3.org/1999/xlink" width="1024" height="1024">
	<defs>
		<linearGradient id="gradient_0" gradientUnits="userSpaceOnUse" x1="-21.011131" y1="374.88959" x2="101.16115" y2="381.73688">
			<stop offset="0" stop-color="#F5EEBB"/>
			<stop offset="1" stop-color="#FFFFE6"/>
		</linearGradient>
	</defs>
	<path fill="url(#gradient_0)" d="M0 0L123.755 0C123.695 0.225645 123.638 0.452097 123.575 0.676934C122.452 4.69905 119.976 8.01491 118.835 11.9547C117.585 16.2741 116.854 20.7996 115.73 25.1637C113.398 34.2175 110.654 43.1955 108.713 52.3442C102.088 83.5791 98.5367 116.544 96.7731 148.403C96.0768 160.982 96.1689 173.583 96.0295 186.175L95.1674 242.945C94.9125 256.03 93.6321 269.253 93.0015 282.344C92.3853 295.135 92.1184 307.901 90.7129 320.639C90.0538 326.613 88.0949 332.468 87.3585 338.477C86.2245 347.73 85.9315 357.086 84.715 366.315C83.0173 379.195 80.0899 391.983 78.0978 404.842C73.4956 434.551 69.3365 464.337 64.1441 493.948C61.9274 506.589 58.7463 519.038 55.8033 531.528C54.5255 536.951 52.4274 542.96 52.0736 548.487L52.4816 548.771L52.6096 547.961C52.943 545.977 53.6909 544.103 54.1045 542.141C57.1894 527.509 61.288 513.036 64.0845 498.343C68.6429 473.073 72.6218 447.702 76.018 422.25C76.3333 420.041 77.1117 417.928 77.4596 415.725C78.0682 411.873 78.1053 407.925 78.7097 404.064C80.3759 393.422 82.9694 382.891 84.561 372.212L84.9901 372.876C84.9413 373.042 84.8897 373.208 84.8437 373.375C82.9481 380.277 83.1028 388.284 82.2089 395.42C81.115 404.152 79.7569 412.916 78.6155 421.663C70.552 483.454 66.8652 546.022 51.5706 606.587C49.6862 614.049 48.936 622.059 46.4148 629.327L47.119 629.919C38.5353 668.662 29.2136 699.666 12.6528 735.864C8.88379 744.102 4.96944 753.466 0 761.017L0 397.532L0.87204 398.166C2.68476 395.323 7.12142 365.28 8.30351 359.441C18.237 309.135 28.7351 258.943 39.796 208.873C42.5486 196.98 45.3666 185.101 48.2497 173.239C49.921 166.219 51.3489 159.112 53.353 152.179C59.3002 131.604 67.3555 111.179 70.8468 89.9864C57.2838 112.378 47.0175 160.866 40.5027 187.324C30.5827 227.611 20.8624 267.897 13.1942 308.685L5.97641 347.687C4.54796 355.286 3.43385 366.886 0 373.518L0 0Z"/>
	<defs>
		<linearGradient id="gradient_1" gradientUnits="userSpaceOnUse" x1="-2.6083097" y1="512.21118" x2="245.67438" y2="510.91156">
			<stop offset="0" stop-color="#F6EDB7"/>
			<stop offset="1" stop-color="#FCFBE0"/>
		</linearGradient>
	</defs>
	<path fill="url(#gradient_1)" d="M123.755 0L244.554 0C244.498 20.4298 244.504 40.9639 243.985 61.3834C243.75 70.6055 242.854 79.806 242.718 89.0411C242.548 100.601 242.803 112.149 242.44 123.708C242.321 127.481 242.492 131.617 241.937 135.331C238.699 134.263 235.476 133.15 232.167 132.32L226.573 130.443C210.862 124.286 193.38 121.664 177.886 114.901C174.755 114.173 171.632 113.103 168.542 112.199C162.626 110.716 156.778 108.946 150.919 107.256L150.579 106.975C150.328 88.7237 149.745 70.4784 148.831 52.2483C148.504 44.2794 149.008 35.9584 147.983 28.0716C146.951 33.2762 146.78 38.7768 146.178 44.056C145.055 53.8988 143.733 63.744 142.814 73.608C142.29 79.2243 141.558 98.8946 139.855 102.492C139.678 102.866 139.315 103.119 139.045 103.432C132.477 101.375 125.808 99.4558 119.364 97.035C120.128 177.211 122.075 257.371 125.203 337.489C126.362 385.063 128.145 432.62 130.552 480.148C130.279 491.367 131.637 503.102 132.135 514.352C133.059 534.333 133.551 554.333 133.611 574.335C133.259 587.452 134.216 600.547 134.515 613.655C134.962 636.125 134.933 658.602 134.427 681.071C134.223 687.649 135.249 695.108 134.065 701.548C133.893 699.128 133.896 696.535 133.39 694.166L112.326 791.966C110.222 801.896 107.823 811.759 105.952 821.737C101.702 844.466 97.593 867.222 93.6269 890.003C89.5081 913.416 85.7306 936.768 78.1304 959.378C73.3344 973.646 67.1016 987.999 60.1577 1001.35C56.1861 1008.98 51.7198 1016.36 47.7579 1024L14.0778 1024C21.5518 1011.39 29.6568 998.892 37.8097 986.714C44.4428 976.806 51.647 967.042 57.0117 956.353C67.7642 934.929 71.5313 910.599 78.6173 887.866C82.0528 877.061 85.7627 866.345 89.7434 855.728C92.1717 849.242 94.9281 842.911 96.9727 836.287C87.5569 851.544 77.7526 866.566 70.1171 882.834C66.6461 890.229 64.0846 898.002 61.0109 905.563C58.0355 912.882 54.4338 920.074 50.7582 927.068C44.9103 938.195 37.7846 948.681 31.327 959.462L0 1012.94L0 920.564C0.474104 920.047 0.914355 919.512 1.32439 918.942C5.83967 912.663 8.86556 904.689 11.1021 897.34C15.1438 884.059 17.2254 870.004 20.0759 856.414C24.2301 836.641 28.6132 816.916 33.2243 797.244C37.006 780.478 40.8112 763.164 45.7351 746.708C54.6032 717.07 65.1597 688.08 71.5818 657.767C89.7583 571.973 92.0826 483.347 96.5119 396.036L99.3207 332.047C99.6529 324.305 101.35 309.955 100.109 302.802C99.5061 301.971 99.1567 301.465 98.2146 300.984C97.407 300.572 97.702 300.649 96.8512 300.959C95.2132 305.674 95.3406 311.826 94.7424 316.817C93.7375 325.202 92.6086 333.626 91.0807 341.933C82.8226 386.832 77.828 432.477 72.7466 477.843C68.3035 517.511 64.0197 556.899 55.0671 595.867C53.3618 603.21 51.7087 610.564 50.108 617.93C49.2838 621.586 48.6766 625.698 47.3885 629.207C47.3012 629.445 47.2089 629.682 47.119 629.919L46.4148 629.327C48.936 622.059 49.6862 614.049 51.5706 606.587C66.8652 546.022 70.552 483.454 78.6155 421.663C79.7569 412.916 81.115 404.152 82.2089 395.42C83.1028 388.284 82.9481 380.277 84.8437 373.375C84.8897 373.208 84.9413 373.042 84.9901 372.876L84.561 372.212C82.9694 382.891 80.3759 393.422 78.7097 404.064C78.1053 407.925 78.0682 411.873 77.4596 415.725C77.1117 417.928 76.3333 420.041 76.018 422.25C72.6218 447.702 68.6429 473.073 64.0845 498.343C61.288 513.036 57.1894 527.509 54.1045 542.141C53.6909 544.103 52.943 545.977 52.6096 547.961L52.4816 548.771L52.0736 548.487C52.4274 542.96 54.5255 536.951 55.8033 531.528C58.7463 519.038 61.9274 506.589 64.1441 493.948C69.3365 464.337 73.4956 434.551 78.0978 404.842C80.0899 391.983 83.0173 379.195 84.715 366.315C85.9315 357.086 86.2245 347.73 87.3585 338.477C88.0949 332.468 90.0538 326.613 90.7129 320.639C92.1184 307.901 92.3853 295.135 93.0015 282.344C93.6321 269.253 94.9125 256.03 95.1674 242.945L96.0295 186.175C96.1689 173.583 96.0768 160.982 96.7731 148.403C98.5367 116.544 102.088 83.5791 108.713 52.3442C110.654 43.1955 113.398 34.2175 115.73 25.1637C116.854 20.7996 117.585 16.2741 118.835 11.9547C119.976 8.01491 122.452 4.69905 123.575 0.676934C123.638 0.452097 123.695 0.225645 123.755 0Z"/>
	<path fill="#FAF3DD" d="M244.554 0L327.542 0C324.744 10.5129 323.781 22.0967 321.942 32.8707L311.011 97.7555C308.683 112.162 306.719 126.751 303.369 140.97C283.97 139.158 260.084 142.887 241.937 135.331C242.492 131.617 242.321 127.481 242.44 123.708C242.803 112.149 242.548 100.601 242.718 89.0411C242.854 79.806 243.75 70.6055 243.985 61.3834C244.504 40.9639 244.498 20.4298 244.554 0Z"/>
	<path fill="#FBF4C6" d="M327.542 0L697.84 0C699.099 15.6633 702.648 31.6319 704.947 47.214C710.13 82.3323 715.353 117.699 721.865 152.594C694.957 152.696 667.85 153.189 640.981 151.636C621.845 150.531 602.871 147.597 583.691 147.076C533.903 145.723 484.067 147.437 434.293 146.471C417.406 146.143 400.463 144.588 383.585 143.767C356.857 142.56 330.117 141.628 303.369 140.97C306.719 126.751 308.683 112.162 311.011 97.7555L321.942 32.8707C323.781 22.0967 324.744 10.5129 327.542 0Z"/>
	<path fill="#FAF3DD" d="M697.84 0L774.493 0C774.446 21.0616 776.119 42.1345 777.561 63.1302C778.228 72.8561 778.422 82.5945 779.173 92.3229C780.311 107.046 782.43 122.221 782.385 136.974C768.484 141.602 754.977 147.401 741.033 151.87C736.579 153.297 725.639 155.153 722.652 157.578C722.151 156.006 722.063 154.234 721.865 152.594C715.353 117.699 710.13 82.3323 704.947 47.214C702.648 31.6319 699.099 15.6633 697.84 0Z"/>
	<path fill="#FAF3DD" d="M774.493 0L842.538 0C844.247 28.166 848.448 56.1011 850.877 84.2037C851.674 93.4247 853.193 103.343 852.897 112.544C840.401 117.606 827.342 121.868 814.586 126.259C807.187 128.807 799.353 132.032 791.747 133.768C788.779 134.782 785.789 135.751 782.871 136.9C783.872 142.644 783.917 148.639 784.294 154.455C784.961 163.671 785.56 172.891 786.089 182.116L785.981 182.836C773.432 186.447 761.022 190.459 748.516 194.202C742.394 196.034 735.168 197.346 729.436 200.072C729.122 200.783 728.982 200.889 729.066 201.682C729.161 202.575 729.149 202.225 729.023 203.163C728.726 202.05 728.559 200.899 728.353 199.765C727.369 191.7 726.152 183.666 724.705 175.671C723.868 170.027 722.995 164.39 722.394 158.715L722.652 157.578C725.639 155.153 736.579 153.297 741.033 151.87C754.977 147.401 768.484 141.602 782.385 136.974C782.43 122.221 780.311 107.046 779.173 92.3229C778.422 82.5945 778.228 72.8561 777.561 63.1302C776.119 42.1345 774.446 21.0616 774.493 0Z"/>
	<path fill="#FBF4C6" d="M842.538 0L885.316 0C885.826 16.899 886.031 33.8059 885.931 50.7123L885.973 75.2418C885.978 79.5162 885.617 84.0955 886.053 88.3348C886.873 92.1512 886.499 96.3991 886.5 100.297C890.487 98.3419 894.739 97.7148 898.921 96.2516C902.246 95.0884 908.488 91.1007 911.786 91.2714C913.75 93.3147 912.982 129.009 913.047 134.23C913.594 178.095 916.832 221.73 920.513 265.433C921.443 276.467 923.802 287.489 925.074 298.524C925.429 301.608 926.165 305.155 925.996 308.254C925.936 309.373 925.701 310.488 925.452 311.578C924.893 310.018 924.562 309.605 923.199 308.663L922.221 308.61C921.273 309.923 921.231 310.768 921.186 312.408C921.096 315.768 921.708 319.187 921.846 322.548C922.32 334.063 923.142 345.627 923.398 357.141C924.141 386.151 925.341 415.147 926.998 444.119C928.64 477.773 930.294 511.613 933.291 545.176C935.329 568.006 938.779 591.118 942.457 613.749C946.722 639.996 952.361 666.035 957.477 692.109C957.515 692.301 957.614 692.476 957.673 692.663C957.889 693.351 957.807 693.658 957.634 694.335L956.731 691.752C956.715 691.816 977.835 763.564 980.248 771.898C981.359 775.737 985.514 786.495 985.219 789.618C983.857 789.158 983.282 788.628 982.463 787.429C980.672 784.812 979.324 781.77 977.605 779.066C973.256 772.223 968.695 765.494 964.188 758.754C951.274 739.444 937.732 720.4 925.484 700.662C917.586 687.935 910.288 675.116 903.001 662.053C900.495 657.561 897.519 653.297 895.24 648.685C891.962 642.051 891.428 635.932 891.646 628.637C892.502 630.292 892.154 633.981 892.231 635.931C892.289 630.309 892.931 624.86 893.21 619.272C893.483 613.807 893.207 608.31 893.313 602.84C893.401 598.301 893.881 593.779 893.951 589.247C894.038 583.709 893.473 578.167 893.417 572.629L892.576 518.829C891.97 490.223 891.966 461.59 891.645 432.978C891.398 411.025 890.905 389.2 890.035 367.265C889.75 360.083 890.463 351.934 889.014 344.923C888.556 338.379 889.334 331.924 889.462 325.386L889.932 287.959C890.147 270.073 890.87 102.955 888.513 100.266L886.017 100.558L885.413 101.199L882.501 102.356C881.106 97.2966 882.108 89.9069 882.015 84.5067C881.81 72.5749 880.935 60.6523 880.779 48.6868C880.676 40.7759 881.673 32.0172 880.656 24.2522C875.788 51.3744 870.364 79.1212 869.557 106.726C864.396 108.598 859.2 110.373 853.973 112.05L852.897 112.544C853.193 103.343 851.674 93.4247 850.877 84.2037C848.448 56.1011 844.247 28.166 842.538 0Z"/>
	<defs>
		<linearGradient id="gradient_2" gradientUnits="userSpaceOnUse" x1="925.21375" y1="382.7905" x2="990.09589" y2="373.93951">
			<stop offset="0" stop-color="#FDF6C7"/>
			<stop offset="1" stop-color="#FFFFFA"/>
		</linearGradient>
	</defs>
	<path fill="url(#gradient_2)" d="M885.316 0L927.591 0C932.649 26.5784 937.547 53.6751 944.2 79.9211C948.255 95.917 955.325 110.968 957.239 127.512C950.753 141.216 950.686 157.903 949.533 172.876C947.466 199.722 947.6 225.884 948.544 252.755C949.17 270.581 950.04 288.679 952.383 306.365C955.736 331.674 961.333 356.59 965.208 381.794L971.884 424.521C973.384 434.608 974.443 444.883 976.569 454.856C978.682 464.766 981.452 474.554 983.696 484.442C987.374 500.652 990.638 517.003 994.739 533.105C998.651 548.467 1003.54 561.549 1005.99 577.508C1010.08 604.141 1006.67 630.714 1008.51 657.403C1010.11 680.678 1011.26 704.298 1014.42 727.41C1015.84 737.821 1019.66 747.739 1020.56 758.169L1019.79 757.929C1019.67 757.702 1019.56 757.474 1019.44 757.248C1018.89 756.189 1018.11 755.319 1017.33 754.419C1012.38 744.135 1006.78 735.972 1002.28 724.874C992.585 700.944 986.925 675.794 980.898 650.782C973.618 620.565 965.835 589.972 960.853 559.286C958.403 544.196 956.95 528.869 955.095 513.694C951.372 483.24 947.716 452.686 943.344 422.318C940.047 399.188 936.479 376.097 932.641 353.05C930.406 340.271 926.33 324.173 925.452 311.578C925.701 310.488 925.936 309.373 925.996 308.254C926.165 305.155 925.429 301.608 925.074 298.524C923.802 287.489 921.443 276.467 920.513 265.433C916.832 221.73 913.594 178.095 913.047 134.23C912.982 129.009 913.75 93.3147 911.786 91.2714C908.488 91.1007 902.246 95.0884 898.921 96.2516C894.739 97.7148 890.487 98.3419 886.5 100.297C886.499 96.3991 886.873 92.1512 886.053 88.3348C885.617 84.0955 885.978 79.5162 885.973 75.2418L885.931 50.7123C886.031 33.8059 885.826 16.899 885.316 7.10543e-15L885.316 0Z"/>
	<path fill="#FBF4C6" d="M927.591 0L991.513 0L1024 0L1024 253.04L1024 730.771C1022.71 731.798 1021.82 732.541 1021.58 734.274C1021.05 738.028 1021.75 742.185 1021.73 746.005C1021.7 751.118 1021.07 756.213 1021.11 761.333C1019.63 759.119 1018.27 756.934 1017.33 754.419C1018.11 755.319 1018.89 756.189 1019.44 757.248C1019.56 757.474 1019.67 757.702 1019.79 757.929L1020.56 758.169C1019.66 747.739 1015.84 737.821 1014.42 727.41C1011.26 704.298 1010.11 680.678 1008.51 657.403C1006.67 630.714 1010.08 604.141 1005.99 577.508C1003.54 561.549 998.651 548.467 994.739 533.105C990.638 517.003 987.374 500.652 983.696 484.442C981.452 474.554 978.682 464.766 976.569 454.856C974.443 444.883 973.384 434.608 971.884 424.521L965.208 381.794C961.333 356.59 955.736 331.674 952.383 306.365C950.04 288.679 949.17 270.581 948.544 252.755C947.6 225.884 947.466 199.722 949.533 172.876C950.686 157.903 950.753 141.216 957.239 127.512C955.325 110.968 948.255 95.917 944.2 79.9211C937.547 53.6751 932.649 26.5784 927.591 0Z"/>
	<path fill="#D4E09B" d="M880.656 24.2522C881.673 32.0172 880.676 40.7759 880.779 48.6868C880.935 60.6523 881.81 72.5749 882.015 84.5067C882.108 89.9069 881.106 97.2966 882.501 102.356L881.774 102.682C877.847 104.103 873.649 105.934 869.557 106.726C870.364 79.1212 875.788 51.3744 880.656 24.2522Z"/>
	<path fill="#D4E09B" d="M139.045 103.432C139.315 103.119 139.678 102.866 139.855 102.492C141.558 98.8946 142.29 79.2243 142.814 73.608C143.733 63.744 145.055 53.8988 146.178 44.056C146.78 38.7768 146.951 33.2762 147.983 28.0716C149.008 35.9584 148.504 44.2794 148.831 52.2483C149.745 70.4784 150.328 88.7237 150.579 106.975C146.728 105.853 142.804 104.833 139.045 103.432Z"/>
	<path fill="#FAF3DD" d="M0 373.518C3.43385 366.886 4.54796 355.286 5.97641 347.687L13.1942 308.685C20.8624 267.897 30.5827 227.611 40.5027 187.324C47.0175 160.866 57.2838 112.378 70.8468 89.9864C67.3555 111.179 59.3002 131.604 53.353 152.179C51.3489 159.112 49.921 166.219 48.2497 173.239C45.3666 185.101 42.5486 196.98 39.796 208.873C28.7351 258.943 18.237 309.135 8.30351 359.441C7.12142 365.28 2.68476 395.323 0.87204 398.166L0 397.532L0 373.518Z"/>
	<defs>
		<linearGradient id="gradient_3" gradientUnits="userSpaceOnUse" x1="151.98672" y1="287.25491" x2="110.89407" y2="285.25125">
			<stop offset="0" stop-color="#BC9C66"/>
			<stop offset="1" stop-color="#E5CB92"/>
		</linearGradient>
	</defs>
	<path fill="url(#gradient_3)" d="M119.364 97.035C125.808 99.4558 132.477 101.375 139.045 103.432C142.804 104.833 146.728 105.853 150.579 106.975L150.919 107.256L151.03 123.746C151.397 149.113 152.742 174.64 152.302 199.993C151.922 221.805 151.45 243.683 150.667 265.482C150.037 283.053 149.457 300.504 149.936 318.095C150.037 321.804 149.731 326.804 150.575 330.337C149.774 340.431 148.844 350.515 147.786 360.585C146.448 372.527 133.939 475.284 130.552 480.148C128.145 432.62 126.362 385.063 125.203 337.489C122.075 257.371 120.128 177.211 119.364 97.035Z"/>
	<path fill="#DAC99B" d="M886.017 100.558L888.513 100.266C890.87 102.955 890.147 270.073 889.932 287.959L889.462 325.386C889.334 331.924 888.556 338.379 889.014 344.923C888.942 347.323 889.129 350.074 888.572 352.404L888.397 346.703C887.925 360.123 888.163 373.542 888.211 386.966C888.231 392.612 888.938 399.418 887.984 404.919L887.53 405.329C886.638 401.357 887.66 395.633 887.642 391.435L887.617 339.11L886.103 153.41C886.101 147.87 886.449 102.952 885.413 101.199L886.017 100.558Z"/>
	<path fill="#D8B980" d="M882.501 102.356L885.413 101.199C886.449 102.952 886.101 147.87 886.103 153.41L887.617 339.11L887.642 391.435C887.66 395.633 886.638 401.357 887.53 405.329C887.037 413.547 885.884 421.538 885.928 429.804C884.341 424.989 884.586 418.67 884.697 413.679C885.299 401.735 884.072 389.673 883.65 377.743C883.09 358.791 882.747 339.833 882.621 320.873C882.233 290.837 881.396 260.827 881.426 230.786C881.45 206.941 882.378 183.118 881.929 159.267C882.298 152.998 882.037 146.572 882.048 140.287C882.07 127.772 882.026 115.193 881.774 102.682L882.501 102.356Z"/>
	<path fill="#D0A760" d="M869.557 106.726C873.649 105.934 877.847 104.103 881.774 102.682C882.026 115.193 882.07 127.772 882.048 140.287C882.037 146.572 882.298 152.998 881.929 159.267C882.378 183.118 881.45 206.941 881.426 230.786C881.396 260.827 882.233 290.837 882.621 320.873C882.747 339.833 883.09 358.791 883.65 377.743C884.072 389.673 885.299 401.735 884.697 413.679C883.443 409.211 883.728 403.453 883.493 398.799C883.003 389.127 882.641 379.373 881.728 369.733L875.874 307.084C873.695 285.811 871.071 264.237 870.043 242.878C869.516 231.927 869.824 220.846 869.742 209.877L869.18 137.411C869.611 133.833 869.272 129.831 869.385 126.185C869.764 119.709 869.607 113.21 869.557 106.726Z"/>
	<path fill="#D8B980" d="M853.973 112.05C859.2 110.373 864.396 108.598 869.557 106.726C869.607 113.21 869.764 119.709 869.385 126.185C869.272 129.831 869.611 133.833 869.18 137.411C868.261 134.629 868.709 131.113 868.508 128.176L867.67 127.643C865.055 127.907 862.281 128.578 859.841 129.578C857.779 130.423 856.555 131.452 855.75 133.534C854.906 126.426 854.612 119.189 853.973 112.05Z"/>
	<path fill="#D8B980" d="M150.919 107.256C156.778 108.946 162.626 110.716 168.542 112.199C168.322 118.222 167.62 124.264 166.986 130.257C165.479 151.207 152.83 326.957 150.575 330.337C149.731 326.804 150.037 321.804 149.936 318.095C149.457 300.504 150.037 283.053 150.667 265.482C151.45 243.683 151.922 221.805 152.302 199.993C152.742 174.64 151.397 149.113 151.03 123.746L150.919 107.256Z"/>
	<defs>
		<linearGradient id="gradient_4" gradientUnits="userSpaceOnUse" x1="1054.8395" y1="497.39752" x2="769.85217" y2="647.03864">
			<stop offset="0" stop-color="#E3D996"/>
			<stop offset="1" stop-color="#F0E9C7"/>
		</linearGradient>
	</defs>
	<path fill="url(#gradient_4)" d="M852.897 112.544L853.973 112.05C854.612 119.189 854.906 126.426 855.75 133.534C858.491 166.274 859.02 199.176 860.11 232C861.505 288.642 863.272 345.275 865.411 401.894C866.498 426.419 867.523 451.032 869.739 475.487C870.883 488.115 872.767 500.712 874.467 513.277C876.348 527.668 878.374 542.04 880.544 556.39C882.689 569.766 884.877 583.11 887.832 596.337C888.746 600.424 889.441 605.066 891.099 608.894C891.963 612.072 891.189 623.763 891.646 628.637C891.428 635.932 891.962 642.051 895.24 648.685C897.519 653.297 900.495 657.561 903.001 662.053C910.288 675.116 917.586 687.935 925.484 700.662C937.732 720.4 951.274 739.444 964.188 758.754C968.695 765.494 973.256 772.223 977.605 779.066C979.324 781.77 980.672 784.812 982.463 787.429C983.282 788.628 983.857 789.158 985.219 789.618C985.514 786.495 981.359 775.737 980.248 771.898C977.835 763.564 956.715 691.816 956.731 691.752L957.634 694.335C957.807 693.658 957.889 693.351 957.673 692.663C957.614 692.476 957.515 692.301 957.477 692.109C952.361 666.035 946.722 639.996 942.457 613.749C938.779 591.118 935.329 568.006 933.291 545.176C930.294 511.613 928.64 477.773 926.998 444.119C925.341 415.147 924.141 386.151 923.398 357.141C923.142 345.627 922.32 334.063 921.846 322.548C921.708 319.187 921.096 315.768 921.186 312.408C921.231 310.768 921.273 309.923 922.221 308.61L923.199 308.663C924.562 309.605 924.893 310.018 925.452 311.578C926.33 324.173 930.406 340.271 932.641 353.05C936.479 376.097 940.047 399.188 943.344 422.318C947.716 452.686 951.372 483.24 955.095 513.694C956.95 528.869 958.403 544.196 960.853 559.286C965.835 589.972 973.618 620.565 980.898 650.782C986.925 675.794 992.585 700.944 1002.28 724.874C1006.78 735.972 1012.38 744.135 1017.33 754.419C1018.27 756.934 1019.63 759.119 1021.11 761.333C1021.07 756.213 1021.7 751.118 1021.73 746.005C1021.75 742.185 1021.05 738.028 1021.58 734.274C1021.82 732.541 1022.71 731.798 1024 730.771L1024 1017.12C1019.53 1010.5 1015.69 1003.35 1011.58 996.49L989.854 960.159C982.809 948.136 974.856 936.467 968.682 923.967C962.828 912.114 958.675 899.818 953.434 887.754C946.242 871.204 936.24 853.348 926.052 838.469C933.732 858.84 940.558 878.99 946.545 899.926C951.774 918.21 955.742 937.979 963.704 955.289C967.978 964.579 974.265 973.069 979.984 981.52C989.289 995.266 998.986 1009.24 1006.6 1024L974.207 1024C959.792 998.785 947.525 970.851 940.096 942.746C935.325 924.699 932.43 906.119 928.803 887.82C924.537 866.301 919.567 844.624 914.25 823.34C909.262 803.376 904.169 783.404 894.019 765.325C894.521 779.721 893.24 872.639 888.626 880.871C886.174 842.594 887.07 804.377 888.569 766.074C892.658 757.893 891.157 746.175 889.21 737.639C887.502 730.514 886.856 722.92 885.584 715.674C882.336 697.168 879.128 678.533 875.304 660.138C873.488 651.408 871.225 642.766 869.245 634.072C867.337 625.692 865.717 617.202 863.477 608.905C855.848 581.488 847.364 554.316 838.037 527.429L837.458 517.4C837.615 500.142 837.139 482.849 836.906 465.591C836.738 450.867 837.52 436.179 836.933 421.449C834.112 421.729 831.288 421.979 828.461 422.197C826.313 414.464 825.833 406.221 823.726 398.441C828.374 397.926 832.829 397.276 837.394 396.223C834.146 394.888 827.198 396.611 823.657 397.136C822.994 393.521 822.457 389.903 821.701 386.302C826.984 385.434 832.663 385.289 838.007 384.92L840.081 243.47C840.436 225.015 841.108 206.595 841.119 188.132C841.123 181.475 841.949 173.152 840.273 166.697L839.376 166.444C825.289 170.521 811.412 175.287 797.327 179.374C797.906 168.504 795.258 157.589 793.388 146.925C792.63 142.604 791.604 138.17 791.747 133.768C799.353 132.032 807.187 128.807 814.586 126.259C827.342 121.868 840.401 117.606 852.897 112.544Z"/>
	<path fill="#DAC99B" d="M168.542 112.199C171.632 113.103 174.755 114.173 177.886 114.901C178.001 164.287 173.342 213.501 171.015 262.804C166.883 350.359 166.786 432.598 149.591 519.321C145.468 540.118 141.06 561.158 134.107 581.218C133.975 578.922 133.809 576.627 133.611 574.335C133.551 554.333 133.059 534.333 132.135 514.352C131.637 503.102 130.279 491.367 130.552 480.148C133.939 475.284 146.448 372.527 147.786 360.585C148.844 350.515 149.774 340.431 150.575 330.337C152.83 326.957 165.479 151.207 166.986 130.257C167.62 124.264 168.322 118.222 168.542 112.199Z"/>
	<path fill="#FAF3DD" d="M177.886 114.901C193.38 121.664 210.862 124.286 226.573 130.443C226.474 137.768 225.356 145.1 224.519 152.371C223.665 159.798 222.987 167.275 221.909 174.673C208.189 170.834 195.046 164.961 181.379 160.976C181.521 164.496 181.32 168.531 182.326 171.899C183.186 172.507 184.023 173.109 184.835 173.782C185.126 176.474 184.927 179.381 185.417 182.014L186.83 278.5C186.959 301.378 186.459 324.195 186.262 347.055C186.207 353.321 187.531 375.202 185.41 379.871L184.73 379.917C182.879 374.907 185.404 367.033 184.949 361.532L184.672 361.407L184.827 360.664L184.934 361.832L184.624 361.758C184.275 367.767 183.552 373.955 183.591 379.962C185.134 380.437 187.851 380.954 188.726 382.341C189.741 383.951 189.525 385.865 189.93 387.646C191.331 394.381 189.816 413.239 189.991 421.675L184.889 420.941C184.877 433.498 183.964 445.961 183.732 458.501C183.545 468.629 183.962 478.771 183.818 488.901C183.745 493.996 182.709 499.158 182.794 504.21C182.812 505.302 182.877 506.555 183.419 507.515C183.976 501.458 184.837 495.326 184.964 489.245C185.176 479.06 184.394 468.881 184.507 458.686C184.644 446.266 185.514 433.895 185.561 421.449L191.703 422.804L191.239 423.452L190.58 423.375C189.892 439.128 189.639 454.977 189.223 470.742C189.034 477.893 187.148 489.97 188.889 496.656C189.781 498.107 188.723 514.045 188.639 516.75C188.452 522.834 187.91 528.908 187.784 534.994C187.437 551.727 187.551 568.489 187.257 585.231C187.108 593.7 187.878 602.23 187.312 610.675L186.795 611.431C185.66 606.957 183.669 524.228 184.24 522.973L184.816 525.042L185.26 524.845C185.315 520.995 185.227 517.058 185.547 513.223C185.926 508.683 186.87 504.171 187.041 499.616C187.182 495.831 186.801 472.571 185.77 470.618C184.369 474.705 185.929 499.537 185.112 506.814C184.374 513.39 182.162 519.804 180.657 526.23C178.793 534.191 177.318 542.289 175.767 550.318C175.263 552.925 173.971 556.9 174.362 559.455C175.903 553.94 181.053 521.746 183.514 519.932C183.731 520.949 183.635 521.635 183.509 522.646C182.653 529.525 183.986 537.544 184.085 544.583C184.214 562.618 184.611 580.65 185.277 598.674C185.555 606.067 186.296 613.452 186.522 620.835C186.679 625.948 185.133 642.953 186.851 646.579C187.004 654.367 187.011 662.212 187.267 669.993C187.419 674.62 188.185 679.5 187.732 684.101C187.51 689.396 187.596 696.417 188.821 701.562L188.72 703.757C185.593 714.764 183.463 726.154 180.904 737.315C178.972 745.742 176.528 754.159 174.819 762.618C171.89 775.057 168.772 787.449 165.465 799.792C163.024 808.666 159.769 817.897 158.201 826.955C155.748 836.589 153.571 846.288 150.989 855.889C148.504 865.13 145.329 874.64 143.973 884.113C143.218 889.384 143.326 894.752 143.339 900.065L142.955 900.251C142.665 896.254 143.458 892.13 142.693 888.189L141.181 888.325C139.714 886.32 139.548 873.662 139.322 870.593C135.285 814.339 133.532 757.944 134.065 701.548C135.249 695.108 134.223 687.649 134.427 681.071C134.933 658.602 134.962 636.125 134.515 613.655C134.216 600.547 133.259 587.452 133.611 574.335C133.809 576.627 133.975 578.922 134.107 581.218C141.06 561.158 145.468 540.118 149.591 519.321C166.786 432.598 166.883 350.359 171.015 262.804C173.342 213.501 178.001 164.287 177.886 114.901Z"/>
	<defs>
		<linearGradient id="gradient_5" gradientUnits="userSpaceOnUse" x1="861.82001" y1="366.08975" x2="886.73041" y2="364.17502">
			<stop offset="0" stop-color="#D3A667"/>
			<stop offset="1" stop-color="#EFC476"/>
		</linearGradient>
	</defs>
	<path fill="url(#gradient_5)" d="M855.75 133.534C856.555 131.452 857.779 130.423 859.841 129.578C862.281 128.578 865.055 127.907 867.67 127.643L868.508 128.176C868.709 131.113 868.261 134.629 869.18 137.411L869.742 209.877C869.824 220.846 869.516 231.927 870.043 242.878C871.071 264.237 873.695 285.811 875.874 307.084L881.728 369.733C882.641 379.373 883.003 389.127 883.493 398.799C883.728 403.453 883.443 409.211 884.697 413.679C884.586 418.67 884.341 424.989 885.928 429.804C886.186 442.141 887.369 454.251 888.006 466.548C888.861 483.058 889.189 499.732 889.596 516.265C890.035 534.956 890.358 553.651 890.564 572.346C890.678 584.483 890.443 596.779 891.099 608.894C889.441 605.066 888.746 600.424 887.832 596.337C884.877 583.11 882.689 569.766 880.544 556.39C878.374 542.04 876.348 527.668 874.467 513.277C872.767 500.712 870.883 488.115 869.739 475.487C867.523 451.032 866.498 426.419 865.411 401.894C863.272 345.275 861.505 288.642 860.11 232C859.02 199.176 858.491 166.274 855.75 133.534Z"/>
	<path fill="#DAC99B" d="M226.573 130.443L232.167 132.32C235.476 133.15 238.699 134.263 241.937 135.331C241.122 143.737 243.26 176.608 241.009 180.856C238.794 180.118 236.574 179.394 234.349 178.685L233.151 178.303C229.432 177.181 225.72 176.039 222.013 174.878L221.909 174.673C222.987 167.275 223.665 159.798 224.519 152.371C225.356 145.1 226.474 137.768 226.573 130.443Z"/>
	<path fill="#DAC99B" d="M782.871 136.9C785.789 135.751 788.779 134.782 791.747 133.768C791.604 138.17 792.63 142.604 793.388 146.925C795.258 157.589 797.906 168.504 797.327 179.374L796.966 179.542C793.425 180.356 789.995 181.453 786.49 182.382L786.089 182.116C785.56 172.891 784.961 163.671 784.294 154.455C783.917 148.639 783.872 142.644 782.871 136.9Z"/>
	<path fill="#FAF3DD" d="M241.937 135.331C260.084 142.887 283.97 139.158 303.369 140.97L300.711 158.063L300.387 160.705C299.893 163.919 299.468 167.163 298.866 170.357L295.752 190.906L294.872 197.085L294.618 197.098C287.667 196.593 277.07 192.103 270.139 189.852C260.808 186.826 251.435 183.936 242.021 181.182L241.009 180.856C243.26 176.608 241.122 143.737 241.937 135.331Z"/>
	<path fill="#974C00" d="M303.369 140.97C330.117 141.628 356.857 142.56 383.585 143.767C400.463 144.588 417.406 146.143 434.293 146.471C484.067 147.437 533.903 145.723 583.691 147.076C602.871 147.597 621.845 150.531 640.981 151.636C667.85 153.189 694.957 152.696 721.865 152.594C722.063 154.234 722.151 156.006 722.652 157.578L722.394 158.715C714.144 161.944 705.036 166.425 696.42 168.34C680.051 167.882 663.727 168.157 647.363 167.254C622.242 165.866 599.998 163.341 574.519 164.072C564.064 164.331 553.619 164.896 543.197 165.767C519.551 167.913 495.923 171.277 472.123 170.361C457.483 169.798 443.118 166.889 428.586 165.288C402.374 162.337 376.084 160.125 349.747 158.656C333.359 157.804 317.117 157.05 300.711 158.063L303.369 140.97Z"/>
	<path fill="#C67603" d="M300.387 160.705L300.711 158.063C317.117 157.05 333.359 157.804 349.747 158.656C376.084 160.125 402.374 162.337 428.586 165.288C443.118 166.889 457.483 169.798 472.123 170.361C495.923 171.277 519.551 167.913 543.197 165.767C553.619 164.896 564.064 164.331 574.519 164.072C599.998 163.341 622.242 165.866 647.363 167.254C663.727 168.157 680.051 167.882 696.42 168.34C689.3 175.193 659.7 178.402 656.023 183.858C643.672 184.818 630.455 182.842 618.112 181.865C600.898 180.503 583.377 179.441 566.113 179.085C531.396 178.37 496.653 182.94 462.004 179.9L375.162 172.379C363.325 171.347 351.503 170.197 339.632 169.636C335.677 169.449 331.57 168.975 327.629 169.33L328.045 170.091C340.337 175.187 352.571 181.258 365.39 184.91L365.396 201.955C366.136 257.644 366.159 313.34 365.465 369.029C365.28 384.732 364.556 400.438 364.196 416.139C363.784 437.647 363.53 459.157 363.435 480.668C363.198 522.411 365.037 564.176 364.405 605.896C363.787 642.562 362.864 679.221 361.638 715.871C360.951 736.604 359.504 757.289 359.295 778.035C359.029 804.438 360.507 830.464 362.893 856.737C397.809 855.397 432.758 855.618 467.659 854.133L515.496 851.872C532.451 850.935 549.331 849.758 566.327 850.147C598.433 850.881 630.354 855.658 662.309 858.268L662.069 874.107C639.035 872.384 615.725 871.873 592.641 870.883C579.658 870.326 566.542 868.893 553.557 868.944C543.614 868.984 533.695 869.975 523.79 870.751C510.659 871.854 497.51 872.709 484.347 873.314C464.408 874.229 444.492 873.74 424.548 874.125C404.203 874.518 383.879 875.744 363.549 876.168L363.033 890.85C350.813 892.044 338.372 895.102 326.285 897.387C300.973 902.171 275.801 907.318 250.925 914.077C239.42 917.203 227.474 920.528 216.45 925.105C190.928 934.623 169.277 950.011 144.892 959.788C147.299 956.9 149.624 953.791 152.212 951.074C157.685 949.152 170.348 939.285 176.257 935.645C187.138 928.943 198.419 923.572 210.232 918.737C256.363 899.859 304.46 894.358 352.526 883.149C352.355 837.234 351.515 791.257 352.079 745.351C352.528 708.736 354.396 672.159 354.419 635.52C354.27 595.468 353.827 555.418 353.088 515.373L352.979 372.124C353.231 330.532 353.221 288.938 352.949 247.346C352.905 235.909 352.607 224.487 352.456 213.053C352.365 206.193 351.934 198.907 352.809 192.094C345.933 188.826 338.616 186.247 331.535 183.453L298.866 170.357C299.468 167.163 299.893 163.919 300.387 160.705Z"/>
	<path fill="#BF6902" d="M696.42 168.34C705.036 166.425 714.144 161.944 722.394 158.715C722.995 164.39 723.868 170.027 724.705 175.671C715.797 178.059 706.963 180.716 698.215 183.639C684.436 188.15 670.656 194.126 655.856 192.668L656.023 183.858C659.7 178.402 689.3 175.193 696.42 168.34Z"/>
	<path fill="#FBF4C6" d="M181.379 160.976C195.046 164.961 208.189 170.834 221.909 174.673L222.013 174.878C221.447 178.497 220.821 182.105 220.137 185.703C208.531 182.059 196.97 178.273 185.457 174.345C185.546 176.901 185.465 179.458 185.417 182.014C184.927 179.381 185.126 176.474 184.835 173.782C184.023 173.109 183.186 172.507 182.326 171.899C181.32 168.531 181.521 164.496 181.379 160.976Z"/>
	<path fill="#FAF3DD" d="M797.327 179.374C811.412 175.287 825.289 170.521 839.376 166.444L840.273 166.697C841.949 173.152 841.123 181.475 841.119 188.132C841.108 206.595 840.436 225.015 840.081 243.47L838.007 384.92C832.663 385.289 826.984 385.434 821.701 386.302C817.615 387.013 813.519 387.551 809.404 388.069C808.724 382.486 806.901 376.677 805.688 371.146C803.127 359.955 800.908 348.688 799.034 337.362C795.154 313.945 790.644 290.234 788.488 266.598C787.751 258.525 787.907 250.315 787.574 242.213C786.746 224.807 786.248 207.386 786.08 189.961L788.161 189.195L795.939 186.843C795.874 186.567 795.8 186.294 795.744 186.017C795.268 183.669 795.717 181.546 796.966 179.542L797.327 179.374Z"/>
	<path fill="#974C00" d="M328.045 170.091L327.629 169.33C331.57 168.975 335.677 169.449 339.632 169.636C351.503 170.197 363.325 171.347 375.162 172.379L462.004 179.9C496.653 182.94 531.396 178.37 566.113 179.085C583.377 179.441 600.898 180.503 618.112 181.865C630.455 182.842 643.672 184.818 656.023 183.858L655.856 192.668C670.656 194.126 684.436 188.15 698.215 183.639C706.963 180.716 715.797 178.059 724.705 175.671C726.152 183.666 727.369 191.7 728.353 199.765C716.553 203.725 704.439 206.895 692.743 211.123C692.585 209.542 692.694 208.709 691.728 207.42C689.768 206.849 687.41 208.258 685.557 208.938C685.485 259.653 684.681 310.416 685.078 361.125L689.461 660.872C689.954 710.155 684.287 759.603 686.626 808.847C687.278 822.583 689.426 840.694 695.204 853.128C720.816 864.644 747.284 874.502 773.744 883.891C789.834 889.6 806.138 894.812 821.924 901.335C830.797 905.038 839.484 909.17 847.955 913.717C851.755 915.767 865.498 924.543 868.494 925.326C875.581 930.786 880.682 935.073 884.565 943.387C884.541 946.182 884.198 948.973 883.935 951.755C866.784 946.987 848.64 938.55 831.737 932.322C807.6 923.429 783.294 915.086 759.339 905.696C731.552 894.803 704.2 882.871 676.249 872.416C677.387 834.058 677.641 795.68 677.011 757.311C676.75 744.671 676.034 732.05 675.692 719.412C675.132 688.515 674.199 657.627 672.894 626.753C671.928 605.3 670.387 583.878 669.468 562.421C666.161 485.229 664.889 407.978 661.965 330.774C661.157 307.415 660.113 284.064 658.832 260.726C657.733 241.637 656.162 222.526 655.454 203.425C641.822 203.623 628.211 203.162 614.582 203.089C603.252 203.029 591.897 203.355 580.566 203.528C550.837 203.983 521.178 205.442 491.435 204.95C479.514 204.684 467.612 203.866 455.766 202.5C447.74 201.621 439.644 200.374 431.575 200.043C409.651 199.142 387.341 201.369 365.396 201.955L365.39 184.91C352.571 181.258 340.337 175.187 328.045 170.091Z"/>
	<path fill="#974C00" d="M298.866 170.357L331.535 183.453C338.616 186.247 345.933 188.826 352.809 192.094C351.934 198.907 352.365 206.193 352.456 213.053C352.607 224.487 352.905 235.909 352.949 247.346C353.221 288.938 353.231 330.532 352.979 372.124L353.088 515.373C353.827 555.418 354.27 595.468 354.419 635.52C354.396 672.159 352.528 708.736 352.079 745.351C351.515 791.257 352.355 837.234 352.526 883.149C304.46 894.358 256.363 899.859 210.232 918.737C198.419 923.572 187.138 928.943 176.257 935.645C170.348 939.285 157.685 949.152 152.212 951.074C154.093 946.853 162.534 937.085 162.812 933.521L163.493 932.426C163.828 932.56 164.12 932.697 164.487 932.745C165.637 932.895 167.556 931.642 168.549 931.027C171.158 929.413 173.434 927.088 175.986 925.321C182.034 921.132 188.548 917.362 195.089 914.013C208.414 907.341 222.187 901.607 236.309 896.851C263.316 887.72 299.946 881.008 320.422 860.006C327.732 852.402 332.568 842.762 334.294 832.356C336.649 818.496 335.821 803.614 335.724 789.584L335.783 741.835C336.044 698.906 336.935 655.786 335.875 612.873C335.419 594.397 334.105 575.945 333.326 557.483C332.631 541.005 332.861 524.484 332.343 508.001C331.634 485.485 330.239 463.001 329.809 440.474C326.476 440.038 319.354 438.324 316.533 439.762C315.204 439.566 313.811 439.508 312.471 439.387L312.472 439.229C313.54 439.056 313.933 438.919 314.7 438.147C314.929 436.573 314.714 435.146 314.516 433.585C314.345 424.636 312.662 415.603 313.059 406.659C318.845 408.63 325.583 409.234 331.606 410.379C331.164 408.634 330.617 406.932 330.067 405.219C329.568 390.06 329.92 374.805 329.949 359.634C329.878 330.792 330.013 301.95 330.355 273.11L330.476 229.421C330.499 221.102 329.956 212.308 331.115 204.073C319.423 199.568 307.682 194.724 295.752 190.906L298.866 170.357Z"/>
	<path fill="#FAF3DD" d="M234.052 189.706C233.972 186.881 233.037 181.057 234.349 178.685C236.574 179.394 238.794 180.118 241.009 180.856L242.021 181.182C240.786 183.327 241.351 187.976 241.455 190.434L240.957 191.705C239.602 192.129 238.703 191.612 237.367 191.236C235.087 194.337 237.234 213.391 236.457 218.804C236.37 218.487 236.276 218.171 236.196 217.852C234.54 211.264 237.324 194.891 235.091 190.916C234.542 191.334 234.328 193.976 234.215 194.777C233.352 200.881 233.616 207.283 233.147 213.459C232.03 228.58 230.584 243.675 228.811 258.733C225.759 284.892 222.877 311.106 218.554 337.092C215.842 353.388 211.983 369.461 209.219 385.731C206.338 385.122 191.866 381.503 190.175 382.467C189.9 384.246 189.863 385.85 189.93 387.646C189.525 385.865 189.741 383.951 188.726 382.341C187.851 380.954 185.134 380.437 183.591 379.962C183.552 373.955 184.275 367.767 184.624 361.758L184.934 361.832L184.827 360.664L184.672 361.407L184.949 361.532C185.404 367.033 182.879 374.907 184.73 379.917L185.41 379.871C187.531 375.202 186.207 353.321 186.262 347.055C186.459 324.195 186.959 301.378 186.83 278.5L185.417 182.014C185.465 179.458 185.546 176.901 185.457 174.345C196.97 178.273 208.531 182.059 220.137 185.703L220.589 186.142C224.733 186.306 229.995 188.554 234.052 189.706Z"/>
	<path fill="#D4E09B" d="M222.013 174.878C225.72 176.039 229.432 177.181 233.151 178.303L234.349 178.685C233.037 181.057 233.972 186.881 234.052 189.706C229.995 188.554 224.733 186.306 220.589 186.142L220.137 185.703C220.821 182.105 221.447 178.497 222.013 174.878Z"/>
	<path fill="#FBF4C6" d="M786.49 182.382C789.995 181.453 793.425 180.356 796.966 179.542C795.717 181.546 795.268 183.669 795.744 186.017C795.8 186.294 795.874 186.567 795.939 186.843L788.161 189.195C788.322 187.947 788.696 186.188 788.523 184.959C788.31 183.449 787.633 183.22 786.49 182.382Z"/>
	<path fill="#D4E4D6" d="M241.455 190.434C241.351 187.976 240.786 183.327 242.021 181.182C251.435 183.936 260.808 186.826 270.139 189.852C277.07 192.103 287.667 196.593 294.618 197.098C294.189 200.792 293.639 204.512 293.368 208.219L293.356 208.641C288.517 208.9 248.34 195.212 241.674 192.539C241.384 204.551 242.272 216.68 242.738 228.686C243.297 243.104 243.561 257.611 244.374 272.007C245.054 284.041 246.471 296.054 247.344 308.083C248.996 330.873 249.954 353.457 249.954 376.31C249.954 380.901 250.956 388.825 249.072 392.946C246.282 392.52 243.48 392.144 240.725 391.526C241.703 387.59 241.725 382.953 242.015 378.897C244.286 347.059 240.205 314.432 238.265 282.628C237.523 270.478 237.546 258.365 237.259 246.206C237.043 237.076 236.441 227.936 236.457 218.804C237.234 213.391 235.087 194.337 237.367 191.236C238.703 191.612 239.602 192.129 240.957 191.705L241.455 190.434Z"/>
	<path fill="#D4E4D6" d="M786.089 182.116L786.49 182.382C787.633 183.22 788.31 183.449 788.523 184.959C788.696 186.188 788.322 187.947 788.161 189.195L786.08 189.961L785.981 182.836L786.089 182.116Z"/>
	<defs>
		<linearGradient id="gradient_6" gradientUnits="userSpaceOnUse" x1="817.53717" y1="276.10339" x2="729.22534" y2="307.30109">
			<stop offset="0" stop-color="#F6FBEF"/>
			<stop offset="1" stop-color="#FFFDFF"/>
		</linearGradient>
	</defs>
	<path fill="url(#gradient_6)" d="M729.023 203.163C729.149 202.225 729.161 202.575 729.066 201.682C728.982 200.889 729.122 200.783 729.436 200.072C735.168 197.346 742.394 196.034 748.516 194.202C761.022 190.459 773.432 186.447 785.981 182.836L786.08 189.961C786.248 207.386 786.746 224.807 787.574 242.213C787.907 250.315 787.751 258.525 788.488 266.598C790.644 290.234 795.154 313.945 799.034 337.362C800.908 348.688 803.127 359.955 805.688 371.146C806.901 376.677 808.724 382.486 809.404 388.069C804.377 388.252 799.298 389.201 794.31 389.843C782.728 391.334 770.785 393.237 759.17 394.046C757.556 388.807 756.79 382.859 755.85 377.448C753.698 365.061 751.981 352.594 749.991 340.179C743.154 296.913 736.584 253.606 730.281 210.259C729.723 207.884 729.255 205.6 729.023 203.163Z"/>
	<path fill="#FAF3DD" d="M209.219 385.731C211.983 369.461 215.842 353.388 218.554 337.092C222.877 311.106 225.759 284.892 228.811 258.733C230.584 243.675 232.03 228.58 233.147 213.459C233.616 207.283 233.352 200.881 234.215 194.777C234.328 193.976 234.542 191.334 235.091 190.916C237.324 194.891 234.54 211.264 236.196 217.852C236.276 218.171 236.37 218.487 236.457 218.804C236.441 227.936 237.043 237.076 237.259 246.206C237.546 258.365 237.523 270.478 238.265 282.628C240.205 314.432 244.286 347.059 242.015 378.897C241.725 382.953 241.703 387.59 240.725 391.526L240.158 391.517C230.179 389.834 220.218 388.042 210.278 386.141L209.219 385.731Z"/>
	<path fill="#974C00" d="M294.872 197.085L295.752 190.906C307.682 194.724 319.423 199.568 331.115 204.073C329.956 212.308 330.499 221.102 330.476 229.421L330.355 273.11C330.013 301.95 329.878 330.792 329.949 359.634C329.92 374.805 329.568 390.06 330.067 405.219C320.392 403.154 309.729 402.172 299.865 401.434C297.258 400.003 267.652 396.523 263.859 396.74L264.36 397.178L264.202 396.734L264.855 396.717L265.065 397.413C271.811 399.3 279.091 400.161 285.981 401.549C282.677 401.381 263.588 398.891 261.794 397.167L262.148 394.712C272.657 396.136 283.153 397.66 293.634 399.282C299.436 400.131 305.352 400.676 311.094 401.825C315.014 402.52 319.074 402.818 323.032 403.28C322.848 379.507 322.511 355.735 322.019 331.967L320.619 207.268C317.029 205.872 296.677 199.527 295.385 198.14C295.118 197.854 295.043 197.437 294.872 197.085Z"/>
	<path fill="#FAF3DD" d="M249.072 392.946C250.956 388.825 249.954 380.901 249.954 376.31C249.954 353.457 248.996 330.873 247.344 308.083C246.471 296.054 245.054 284.041 244.374 272.007C243.561 257.611 243.297 243.104 242.738 228.686C242.272 216.68 241.384 204.551 241.674 192.539C248.34 195.212 288.517 208.9 293.356 208.641C292.511 212.96 291.93 217.312 291.326 221.669C290.024 226.06 289.727 231.171 289.05 235.712L284.741 264.125L272.363 340.498C270.056 354.629 268.233 368.919 265.228 382.923L262.148 394.712C258.741 394.413 255.347 393.984 251.973 393.425L249.072 392.946Z"/>
	<path fill="#939461" d="M294.618 197.098L294.872 197.085C295.043 197.437 295.118 197.854 295.385 198.14C296.677 199.527 317.029 205.872 320.619 207.268L322.019 331.967C322.511 355.735 322.848 379.507 323.032 403.28C319.074 402.818 315.014 402.52 311.094 401.825C311.085 387.678 310.474 373.499 310.144 359.354L305.824 214.097C302.264 212.851 296.934 212.365 293.934 210.135C293.209 209.596 293.43 209.05 293.368 208.219C293.639 204.512 294.189 200.792 294.618 197.098Z"/>
	<path fill="#B8F2E6" d="M692.743 211.123C704.439 206.895 716.553 203.725 728.353 199.765C728.559 200.899 728.726 202.05 729.023 203.163C729.255 205.6 729.723 207.884 730.281 210.259C725.86 212.23 721.147 213.552 716.537 215.009C716.098 258.905 715.315 302.796 714.187 346.68C713.787 363.743 712.712 381.022 712.835 398.068C712.844 399.336 712.794 400.451 713.31 401.634L713.041 401.883C707.048 402.403 701.003 403.417 695.024 404.149C693.724 361.915 693.936 319.571 693.446 277.319L692.874 234.265C692.752 226.681 692.084 218.669 692.743 211.123Z"/>
	<path fill="#974C00" d="M365.396 201.955C387.341 201.369 409.651 199.142 431.575 200.043C439.644 200.374 447.74 201.621 455.766 202.5C467.612 203.866 479.514 204.684 491.435 204.95C521.178 205.442 550.837 203.983 580.566 203.528C591.897 203.355 603.252 203.029 614.582 203.089C628.211 203.162 641.822 203.623 655.454 203.425C656.162 222.526 657.733 241.637 658.832 260.726C660.113 284.064 661.157 307.415 661.965 330.774C664.889 407.978 666.161 485.229 669.468 562.421C670.387 583.878 671.928 605.3 672.894 626.753C674.199 657.627 675.132 688.515 675.692 719.412C676.034 732.05 676.75 744.671 677.011 757.311C677.641 795.68 677.387 834.058 676.249 872.416C704.2 882.871 731.552 894.803 759.339 905.696C783.294 915.086 807.6 923.429 831.737 932.322C848.64 938.55 866.784 946.987 883.935 951.755C884.198 948.973 884.541 946.182 884.565 943.387C885.348 937.513 885.684 916.615 887.777 912.804L889.088 916.022C889.362 933.355 889.163 950.692 888.491 968.015C863.012 956.26 835.409 948.125 808.966 938.79L778.865 928.224C771.42 925.635 763.586 922.434 755.775 921.262C745.346 919.696 734.403 919.207 723.868 918.709C704.539 917.797 685.536 917.499 666.2 918.509C654.48 919.12 642.821 920.68 631.12 921.575C614.634 922.836 597.925 923.333 581.39 923.471C536.546 923.845 491.809 920.933 446.972 920.98C412.909 921.015 379.048 923.77 345.049 925.324C333.037 925.772 321.018 926.013 308.997 926.046C301.584 926.127 293.897 925.889 286.545 926.935C274.061 928.712 256.923 935.061 244.194 938.522C222.462 944.431 200.718 949.665 178.754 954.622C167.181 957.234 155.66 960.178 143.938 962.059C143.887 941.393 143.688 920.728 143.339 900.065C143.326 894.752 143.218 889.384 143.973 884.113C145.329 874.64 148.504 865.13 150.989 855.889C153.571 846.288 155.748 836.589 158.201 826.955C158.523 827.357 158.93 827.703 159.167 828.16C160.073 829.904 159.357 843.732 159.356 846.584C159.356 857.639 158.928 928.832 162.812 933.521C162.534 937.085 154.093 946.853 152.212 951.074C149.624 953.791 147.299 956.9 144.892 959.788C169.277 950.011 190.928 934.623 216.45 925.105C219.45 927.013 235.244 921.239 239.608 920.177C261.548 914.842 287.848 912.352 310.556 910.271C348.925 906.758 387.455 905.32 425.979 905.961C444.823 906.304 463.648 907.633 482.48 908.352C497.623 908.87 512.774 909.072 527.925 908.958C559.917 909.245 591.912 908.744 623.88 907.455C644.938 906.466 666.236 903.334 687.297 904.172C696.24 904.541 705.15 905.468 713.978 906.946C720.365 908.022 726.699 909.594 733.14 910.303L733.908 910.384C726.913 906.843 719.364 904.142 712.062 901.285C695.471 894.793 678.679 888.928 661.939 882.842L662.069 874.107L662.309 858.268C630.354 855.658 598.433 850.881 566.327 850.147C549.331 849.758 532.451 850.935 515.496 851.872L467.659 854.133C432.758 855.618 397.809 855.397 362.893 856.737C360.507 830.464 359.029 804.438 359.295 778.035C359.504 757.289 360.951 736.604 361.638 715.871C362.864 679.221 363.787 642.562 364.405 605.896C365.037 564.176 363.198 522.411 363.435 480.668C363.53 459.157 363.784 437.647 364.196 416.139C364.556 400.438 365.28 384.732 365.465 369.029C366.159 313.34 366.136 257.644 365.396 201.955ZM540.115 222.044C486.85 221.418 433.538 222.4 380.287 221.637C380.448 230.4 380.523 239.164 380.512 247.929C380.431 282.815 377.23 317.948 375.269 352.783C373.703 370.376 373.132 388.162 372.585 405.816C371.371 444.925 371.689 483.816 372.473 522.926C373.163 557.355 374.369 591.153 371.468 625.561C370.895 632.352 370.712 639.496 369.622 646.21C367.707 672.64 366.662 699.125 366.49 725.624C366.421 747.168 366.474 769.703 367.77 791.179C368.335 805.483 369.086 819.779 370.023 834.064C443.736 830.728 516.928 833.075 590.509 838.14L634.633 841.308C643.928 841.959 653.336 842.325 662.586 843.446C662.053 809.518 661.788 775.587 661.792 741.655C660.977 720.242 661.666 698.726 661.07 677.287C660.906 651.693 659.444 625.368 657.053 599.911C653.338 575.007 654.019 549.454 654.335 524.363L654.545 469.341C654.569 446.778 655.059 424.063 654.421 401.514C653.554 370.915 651.3 340.238 649.517 309.672C649.462 300.301 648.393 290.766 647.89 281.385L644.983 221.901C610.063 221.667 575.032 221.524 540.115 222.044Z"/>
	<path fill="#C67603" d="M685.557 208.938C687.41 208.258 689.768 206.849 691.728 207.42C692.694 208.709 692.585 209.542 692.743 211.123C692.084 218.669 692.752 226.681 692.874 234.265L693.446 277.319C693.936 319.571 693.724 361.915 695.024 404.149C701.003 403.417 707.048 402.403 713.041 401.883C713.109 406.932 713.235 411.98 713.419 417.026C707.533 417.818 701.445 418.922 695.507 419.051C695.539 425.812 695.138 432.875 695.683 439.597C696.422 485.826 696.829 532.06 696.905 578.295L696.9 629.297C696.865 638.321 697.185 647.649 696.544 656.647C696.099 659.527 695.993 662.293 695.95 665.2C703.309 664.163 715.653 663.143 722.423 661.152L722.538 661.352C722.495 663.579 722.395 665.82 722.418 668.046L722.116 668.132C713.418 669.107 704.726 670.127 696.039 671.191L695.771 688.1C695.897 697.186 695.108 706.364 694.78 715.451C694.197 734.792 693.462 754.128 692.575 773.457C692.045 786.74 690.816 801.02 692.459 814.181C693.719 824.273 696.754 833.909 700.928 843.151C716.338 851.706 733.226 857.765 749.585 864.231C754.495 866.171 759.674 867.901 764.452 870.126C777.095 874.828 789.785 879.402 802.521 883.846C811.648 887.058 820.968 890.072 829.883 893.827C833.785 895.821 838.084 896.64 842.02 898.453L845.938 900.119L845.926 805.285L845.72 778.89C845.671 773.833 845.191 768.386 846.066 763.394C847.029 768.082 848.091 772.77 848.89 777.488C848.007 787.193 849.665 797.511 849.718 807.306L849.6 866.513C849.567 878.267 849.922 890.176 849.401 901.912C851.66 903.049 854.771 904.209 856.723 905.747C862.557 907.902 868.148 910.637 874.029 912.724C873.871 900.244 872.821 886.93 874.105 874.529C877.924 886.415 881.585 898.653 886.353 910.19L887.777 912.804C885.684 916.615 885.348 937.513 884.565 943.387C880.682 935.073 875.581 930.786 868.494 925.326C865.498 924.543 851.755 915.767 847.955 913.717C839.484 909.17 830.797 905.038 821.924 901.335C806.138 894.812 789.834 889.6 773.744 883.891C747.284 874.502 720.816 864.644 695.204 853.128C689.426 840.694 687.278 822.583 686.626 808.847C684.287 759.603 689.954 710.155 689.461 660.872L685.078 361.125C684.681 310.416 685.485 259.653 685.557 208.938Z"/>
	<path fill="#AED9E0" d="M293.356 208.641L293.368 208.219C293.43 209.05 293.209 209.596 293.934 210.135C296.934 212.365 302.264 212.851 305.824 214.097L310.144 359.354C310.474 373.499 311.085 387.678 311.094 401.825C305.352 400.676 299.436 400.131 293.634 399.282C283.153 397.66 272.657 396.136 262.148 394.712L265.228 382.923C269.937 378.593 272.544 370.17 274.725 364.247C287.519 329.515 291.383 285.716 292.544 248.877C292.843 239.395 292.147 230.044 292.702 220.51L292.273 220.292L291.892 222.088L291.326 221.669C291.93 217.312 292.511 212.96 293.356 208.641Z"/>
	<path fill="#AED9E0" d="M716.537 215.009C721.147 213.552 725.86 212.23 730.281 210.259C736.584 253.606 743.154 296.913 749.991 340.179C751.981 352.594 753.698 365.061 755.85 377.448C756.79 382.859 757.556 388.807 759.17 394.046C744.018 396.492 728.577 400.266 713.31 401.634C712.794 400.451 712.844 399.336 712.835 398.068C712.712 381.022 713.787 363.743 714.187 346.68C715.315 302.796 716.098 258.905 716.537 215.009Z"/>
	<path fill="#D4E4D6" d="M265.228 382.923C268.233 368.919 270.056 354.629 272.363 340.498L284.741 264.125L289.05 235.712C289.727 231.171 290.024 226.06 291.326 221.669L291.892 222.088L292.273 220.292L292.702 220.51C292.147 230.044 292.843 239.395 292.544 248.877C291.383 285.716 287.519 329.515 274.725 364.247C272.544 370.17 269.937 378.593 265.228 382.923Z"/>
	<path fill="#B8F2E6" d="M380.287 221.637C433.538 222.4 486.85 221.418 540.115 222.044C575.032 221.524 610.063 221.667 644.983 221.901L647.89 281.385C648.393 290.766 649.462 300.301 649.517 309.672C634.992 310.861 620.368 313.902 605.975 316.256L540.322 326.854L375.269 352.783C377.23 317.948 380.431 282.815 380.512 247.929C380.523 239.164 380.448 230.4 380.287 221.637Z"/>
	<path fill="#D4E09B" d="M47.119 629.919C47.2089 629.682 47.3012 629.445 47.3885 629.207C48.6766 625.698 49.2838 621.586 50.108 617.93C51.7087 610.564 53.3618 603.21 55.0671 595.867C64.0197 556.899 68.3035 517.511 72.7466 477.843C77.828 432.477 82.8226 386.832 91.0807 341.933C92.6086 333.626 93.7375 325.202 94.7424 316.817C95.3406 311.826 95.2132 305.674 96.8512 300.959C97.702 300.649 97.407 300.572 98.2146 300.984C99.1567 301.465 99.5061 301.971 100.109 302.802C101.35 309.955 99.6529 324.305 99.3207 332.047L96.5119 396.036C92.0826 483.347 89.7583 571.973 71.5818 657.767C65.1597 688.08 54.6032 717.07 45.7351 746.708C40.8112 763.164 37.006 780.478 33.2243 797.244C28.6132 816.916 24.2301 836.641 20.0759 856.414C17.2254 870.004 15.1438 884.059 11.1021 897.34C8.86556 904.689 5.83967 912.663 1.32439 918.942C0.914355 919.512 0.474104 920.047 0 920.564L0 761.017C4.96944 753.466 8.88379 744.102 12.6528 735.864C29.2136 699.666 38.5353 668.662 47.119 629.919Z"/>
	<path fill="#B8F2E6" d="M375.269 352.783L540.322 326.854L605.975 316.256C620.368 313.902 634.992 310.861 649.517 309.672C651.3 340.238 653.554 370.915 654.421 401.514C655.059 424.063 654.569 446.778 654.545 469.341L654.335 524.363C654.019 549.454 653.338 575.007 657.053 599.911C629.807 603.248 601.522 608.652 574.302 613.055L435.148 635.361L390.829 642.462C383.799 643.631 376.67 645.364 369.622 646.21C370.712 639.496 370.895 632.352 371.468 625.561C374.369 591.153 373.163 557.355 372.473 522.926C371.689 483.816 371.371 444.925 372.585 405.816C373.132 388.162 373.703 370.376 375.269 352.783Z"/>
	<path fill="#D4E09B" d="M889.014 344.923C890.463 351.934 889.75 360.083 890.035 367.265C890.905 389.2 891.398 411.025 891.645 432.978C891.966 461.59 891.97 490.223 892.576 518.829L893.417 572.629C893.473 578.167 894.038 583.709 893.951 589.247C893.881 593.779 893.401 598.301 893.313 602.84C893.207 608.31 893.483 613.807 893.21 619.272C892.931 624.86 892.289 630.309 892.231 635.931C892.154 633.981 892.502 630.292 891.646 628.637C891.189 623.763 891.963 612.072 891.099 608.894C890.443 596.779 890.678 584.483 890.564 572.346C890.358 553.651 890.035 534.956 889.596 516.265C889.189 499.732 888.861 483.058 888.006 466.548C887.369 454.251 886.186 442.141 885.928 429.804C885.884 421.538 887.037 413.547 887.53 405.329L887.984 404.919C888.938 399.418 888.231 392.612 888.211 386.966C888.163 373.542 887.925 360.123 888.397 346.703L888.572 352.404C889.129 350.074 888.942 347.323 889.014 344.923Z"/>
	<path fill="#D4E09B" d="M189.93 387.646C189.863 385.85 189.9 384.246 190.175 382.467C191.866 381.503 206.338 385.122 209.219 385.731L210.278 386.141C207.902 395.454 204.648 415.377 200.576 423.38C198.365 422.904 196.13 422.563 193.899 422.199C192.758 421.861 191.191 421.83 189.991 421.675C189.816 413.239 191.331 394.381 189.93 387.646Z"/>
	<path fill="#FAF3DD" d="M210.278 386.141C220.218 388.042 230.179 389.834 240.158 391.517C239.25 398.479 238.217 405.423 237.06 412.347C236.161 417.485 234.351 423.658 234.426 428.823L200.576 423.38C204.648 415.377 207.902 395.454 210.278 386.141Z"/>
	<path fill="#FBF4C6" d="M809.404 388.069C813.519 387.551 817.615 387.013 821.701 386.302C822.457 389.903 822.994 393.521 823.657 397.136C827.198 396.611 834.146 394.888 837.394 396.223C832.829 397.276 828.374 397.926 823.726 398.441C825.833 406.221 826.313 414.464 828.461 422.197C831.288 421.979 834.112 421.729 836.933 421.449C837.52 436.179 836.738 450.867 836.906 465.591C836.111 460.282 834.824 455.092 833.879 449.81C832.241 440.646 830.821 431.411 828.795 422.324C825.786 422.593 822.792 422.834 819.818 423.382C806.962 424.334 794.15 425.808 781.413 427.801C775.974 428.59 770.52 429.506 765.047 430.023C763.949 423.326 762.934 416.616 762.003 409.894L761.932 409.475C764.735 409.665 777.759 406.641 781.515 405.981C793.763 403.828 806.163 402.314 818.335 399.764C820.46 399.319 822.39 398.764 824.351 397.829C820.174 397.845 816.022 398.64 811.903 399.277C811.773 399.178 811.623 399.1 811.512 398.98C810.174 397.534 809.687 390.184 809.404 388.069Z"/>
	<path fill="#FAF3DD" d="M759.17 394.046C770.785 393.237 782.728 391.334 794.31 389.843C799.298 389.201 804.377 388.252 809.404 388.069C809.687 390.184 810.174 397.534 811.512 398.98C811.623 399.1 811.773 399.178 811.903 399.277C816.022 398.64 820.174 397.845 824.351 397.829C822.39 398.764 820.46 399.319 818.335 399.764C806.163 402.314 793.763 403.828 781.515 405.981C777.759 406.641 764.735 409.665 761.932 409.475L761.881 408.948C760.336 404.407 759.922 398.822 759.17 394.046Z"/>
	<path fill="#DAC99B" d="M240.158 391.517L240.725 391.526C243.48 392.144 246.282 392.52 249.072 392.946L251.973 393.425C252.241 397.926 254.434 417 257.106 419.568C257.459 423.401 255.834 427.999 254.944 431.757C248.857 429.658 240.835 429.577 234.426 428.823C234.351 423.658 236.161 417.485 237.06 412.347C238.217 405.423 239.25 398.479 240.158 391.517Z"/>
	<path fill="#FAF3DD" d="M251.973 393.425C255.347 393.984 258.741 394.413 262.148 394.712L261.794 397.167C259.988 403.835 259.142 411.039 257.859 417.852L257.106 419.568C254.434 417 252.241 397.926 251.973 393.425Z"/>
	<path fill="#D0A760" d="M713.31 401.634C728.577 400.266 744.018 396.492 759.17 394.046C759.922 398.822 760.336 404.407 761.881 408.948L761.932 409.475C757.121 409.135 751.284 411.03 746.484 411.981C735.959 414.068 724.105 416.837 713.419 417.026C713.235 411.98 713.109 406.932 713.041 401.883L713.31 401.634Z"/>
	<path fill="#C67603" d="M257.859 417.852C259.142 411.039 259.988 403.835 261.794 397.167C263.588 398.891 282.677 401.381 285.981 401.549C279.091 400.161 271.811 399.3 265.065 397.413L264.855 396.717L264.202 396.734L264.36 397.178L263.859 396.74C267.652 396.523 297.258 400.003 299.865 401.434L299.194 402.01C296.174 401.465 293.07 400.749 290.013 400.515L289.882 400.858C293.225 402.052 299.806 401.627 302.226 403.835C304.784 403.896 311.22 404.866 313.059 406.659C312.662 415.603 314.345 424.636 314.516 433.585C295.126 430.363 276.134 425.089 257.859 417.852Z"/>
	<path fill="#BE903B" d="M299.865 401.434C309.729 402.172 320.392 403.154 330.067 405.219C330.617 406.932 331.164 408.634 331.606 410.379C325.583 409.234 318.845 408.63 313.059 406.659C311.22 404.866 304.784 403.896 302.226 403.835C299.806 401.627 293.225 402.052 289.882 400.858L290.013 400.515C293.07 400.749 296.174 401.465 299.194 402.01L299.865 401.434Z"/>
	<path fill="#BE903B" d="M713.419 417.026C724.105 416.837 735.959 414.068 746.484 411.981C751.284 411.03 757.121 409.135 761.932 409.475L762.003 409.894C762.934 416.616 763.949 423.326 765.047 430.023L763.303 430.363C746.693 432.374 730.216 435.403 713.566 437.246L713.419 417.026Z"/>
	<path fill="#974C00" d="M695.507 419.051C701.445 418.922 707.533 417.818 713.419 417.026L713.566 437.246C707.704 437.919 701.4 438.232 695.683 439.597C695.138 432.875 695.539 425.812 695.507 419.051Z"/>
	<path fill="#BF6902" d="M257.859 417.852C276.134 425.089 295.126 430.363 314.516 433.585C314.714 435.146 314.929 436.573 314.7 438.147C313.933 438.919 313.54 439.056 312.472 439.229C296.328 436.823 280.098 435.045 263.939 432.73L254.944 431.757C255.834 427.999 257.459 423.401 257.106 419.568L257.859 417.852Z"/>
	<path fill="#FAF3DD" d="M184.889 420.941L189.991 421.675C191.191 421.83 192.758 421.861 193.899 422.199L192.722 422.72C191.716 427.302 192.4 433.252 192.333 438.01C192.274 442.225 191.265 474.7 190.674 475.988C189.925 496.055 189.041 516.219 188.674 536.29C188.263 558.754 188.532 581.27 188.399 603.741C188.37 608.737 186.953 613.402 186.973 618.304C187.001 625.26 188.591 632.084 188.631 639.051C188.641 640.9 187.978 644.512 189.004 646.033L190.108 646.505L186.851 646.579C185.133 642.953 186.679 625.948 186.522 620.835C186.296 613.452 185.555 606.067 185.277 598.674C184.611 580.65 184.214 562.618 184.085 544.583C183.986 537.544 182.653 529.525 183.509 522.646C183.635 521.635 183.731 520.949 183.514 519.932C181.053 521.746 175.903 553.94 174.362 559.455C173.971 556.9 175.263 552.925 175.767 550.318C177.318 542.289 178.793 534.191 180.657 526.23C182.162 519.804 184.374 513.39 185.112 506.814C185.929 499.537 184.369 474.705 185.77 470.618C186.801 472.571 187.182 495.831 187.041 499.616C186.87 504.171 185.926 508.683 185.547 513.223C185.227 517.058 185.315 520.995 185.26 524.845L184.816 525.042L184.24 522.973C183.669 524.228 185.66 606.957 186.795 611.431L187.312 610.675C187.878 602.23 187.108 593.7 187.257 585.231C187.551 568.489 187.437 551.727 187.784 534.994C187.91 528.908 188.452 522.834 188.639 516.75C188.723 514.045 189.781 498.107 188.889 496.656C187.148 489.97 189.034 477.893 189.223 470.742C189.639 454.977 189.892 439.128 190.58 423.375L191.239 423.452L191.703 422.804L185.561 421.449C185.514 433.895 184.644 446.266 184.507 458.686C184.394 468.881 185.176 479.06 184.964 489.245C184.837 495.326 183.976 501.458 183.419 507.515C182.877 506.555 182.812 505.302 182.794 504.21C182.709 499.158 183.745 493.996 183.818 488.901C183.962 478.771 183.545 468.629 183.732 458.501C183.964 445.961 184.877 433.498 184.889 420.941Z"/>
	<path fill="#FAF3DD" d="M190.674 475.988C191.265 474.7 192.274 442.225 192.333 438.01C192.4 433.252 191.716 427.302 192.722 422.72L193.899 422.199C196.13 422.563 198.365 422.904 200.576 423.38L234.426 428.823C240.835 429.577 248.857 429.658 254.944 431.757C252.846 440.54 251.551 449.593 249.704 458.447L235.81 521.911C230.589 544.718 224.377 567.108 218.425 589.708L203.606 646.885C199.294 646.093 194.49 646.47 190.108 646.505L189.004 646.033C187.978 644.512 188.641 640.9 188.631 639.051C188.591 632.084 187.001 625.26 186.973 618.304C186.953 613.402 188.37 608.737 188.399 603.741C188.532 581.27 188.263 558.754 188.674 536.29C189.041 516.219 189.925 496.055 190.674 475.988Z"/>
	<path fill="#FAF3DD" d="M819.818 423.382C822.792 422.834 825.786 422.593 828.795 422.324C830.821 431.411 832.241 440.646 833.879 449.81C834.824 455.092 836.111 460.282 836.906 465.591C837.139 482.849 837.615 500.142 837.458 517.4C834.813 512.918 834.519 505.063 833.65 499.843C832.104 490.548 826.703 458.94 823.019 451.894C821.736 449.543 819.835 427.187 819.818 423.382Z"/>
	<path fill="#AED9E0" d="M781.413 427.801C794.15 425.808 806.962 424.334 819.818 423.382C819.835 427.187 821.736 449.543 823.019 451.894C823.878 462.817 824.773 474.07 826.478 484.887C828.234 496.026 831.614 507.56 831.255 518.93C830.375 516.398 829.353 514.881 827.598 512.88C826.598 511.74 825.586 510.611 824.674 509.398C825.274 517.198 825.841 525.223 825.408 533.043C825.003 540.386 823.942 547.698 823.498 555.047C822.381 573.536 821.478 592.229 821.125 610.748C820.92 621.45 825.338 632.323 825.008 642.973C821.622 643.262 818.148 643.406 814.786 643.873C810.952 636.573 808.902 627.675 806.428 619.83C802.64 607.821 798.542 595.76 795.437 583.555C786.392 552.973 781.456 521.915 775.858 490.598C772.254 470.435 767.939 450.297 765.047 430.023C770.52 429.506 775.974 428.59 781.413 427.801Z"/>
	<path fill="#B8F2E6" d="M763.303 430.363L765.047 430.023C767.939 450.297 772.254 470.435 775.858 490.598C781.456 521.915 786.392 552.973 795.437 583.555C788.656 586.15 779.293 585.507 772.042 586.488C768.134 534.507 765.22 482.456 763.303 430.363Z"/>
	<path fill="#AED9E0" d="M713.566 437.246C730.216 435.403 746.693 432.374 763.303 430.363C765.22 482.456 768.134 534.507 772.042 586.488C772.497 600.716 773.896 615.015 774.914 629.217C775.358 635.424 776.142 641.767 775.959 647.988L775.632 648.152C758.193 650.524 740.495 651.146 723.1 653.738L713.766 654.726C713.358 647.239 713.965 639.492 713.963 631.975L713.967 583.661L714.001 501.619C713.984 480.177 714.278 458.677 713.566 437.246Z"/>
	<path fill="#B8F2E6" d="M254.944 431.757L263.939 432.73C264.118 473.858 262.823 514.979 260.055 556.014C258.726 575.224 256.473 594.372 254.671 613.54C253.576 625.184 252.922 636.878 251.958 648.535L251.584 648.592C235.627 647.598 219.585 647.572 203.606 646.885L218.425 589.708C224.377 567.108 230.589 544.718 235.81 521.911L249.704 458.447C251.551 449.593 252.846 440.54 254.944 431.757Z"/>
	<path fill="#D4E4D6" d="M263.939 432.73C280.098 435.045 296.328 436.823 312.472 439.229L312.471 439.387C312.269 469.963 314.344 500.723 315.248 531.302C315.962 555.449 315.505 579.687 315.664 603.847L315.929 635.031C315.97 639.865 316.645 645.769 315.746 650.47C314.451 651.349 313.313 651.106 311.769 651.142C291.95 649.949 271.667 650.646 251.958 648.535C252.922 636.878 253.576 625.184 254.671 613.54C256.473 594.372 258.726 575.224 260.055 556.014C262.823 514.979 264.118 473.858 263.939 432.73Z"/>
	<path fill="#B8F2E6" d="M695.683 439.597C701.4 438.232 707.704 437.919 713.566 437.246C714.278 458.677 713.984 480.177 714.001 501.619L713.967 583.661L713.963 631.975C713.965 639.492 713.358 647.239 713.766 654.726C708.033 655.431 702.292 656.071 696.544 656.647C697.185 647.649 696.865 638.321 696.9 629.297L696.905 578.295C696.829 532.06 696.422 485.826 695.683 439.597Z"/>
	<defs>
		<linearGradient id="gradient_7" gradientUnits="userSpaceOnUse" x1="359.14398" y1="671.17017" x2="131.8454" y2="701.49768">
			<stop offset="0" stop-color="#813F00"/>
			<stop offset="1" stop-color="#A55904"/>
		</linearGradient>
	</defs>
	<path fill="url(#gradient_7)" d="M316.533 439.762C319.354 438.324 326.476 440.038 329.809 440.474C330.239 463.001 331.634 485.485 332.343 508.001C332.861 524.484 332.631 541.005 333.326 557.483C334.105 575.945 335.419 594.397 335.875 612.873C336.935 655.786 336.044 698.906 335.783 741.835L335.724 789.584C335.821 803.614 336.649 818.496 334.294 832.356C332.568 842.762 327.732 852.402 320.422 860.006C299.946 881.008 263.316 887.72 236.309 896.851C222.187 901.607 208.414 907.341 195.089 914.013C188.548 917.362 182.034 921.132 175.986 925.321C173.434 927.088 171.158 929.413 168.549 931.027C167.556 931.642 165.637 932.895 164.487 932.745C164.12 932.697 163.828 932.56 163.493 932.426L162.812 933.521C158.928 928.832 159.356 857.639 159.356 846.584C159.357 843.732 160.073 829.904 159.167 828.16C158.93 827.703 158.523 827.357 158.201 826.955C159.769 817.897 163.024 808.666 165.465 799.792C168.772 787.449 171.89 775.057 174.819 762.618C176.324 765.792 175.497 786.766 175.56 791.997C176.03 815.444 176.296 838.896 176.359 862.348C176.448 875.9 175.962 889.637 176.706 903.153C181.164 900.83 186.913 898.761 190.963 895.889C194.891 894.27 198.794 892.591 202.672 890.854C223.14 882.611 243.943 876.079 264.969 869.427C273.25 867.182 281.493 864.801 289.695 862.286C297.597 859.431 305.217 855.903 311.22 849.876C318.457 842.611 323.245 832.385 325.235 822.399C328.448 806.273 326.115 787.682 326.071 771.216L326.596 687.549C326.624 680.831 326.579 674.114 326.463 667.397C326.356 662.175 326.437 656.931 326.43 651.708C326.646 616.461 327.046 581.081 326.434 545.844C325.825 510.778 324.205 475.708 323.426 440.637C321.123 440.498 318.817 440.087 316.533 439.762Z"/>
	<path fill="#95AE93" d="M312.471 439.387C313.811 439.508 315.204 439.566 316.533 439.762C318.817 440.087 321.123 440.498 323.426 440.637C324.205 475.708 325.825 510.778 326.434 545.844C327.046 581.081 326.646 616.461 326.43 651.708C321.534 651.467 316.657 651.659 311.769 651.142C313.313 651.106 314.451 651.349 315.746 650.47C316.645 645.769 315.97 639.865 315.929 635.031L315.664 603.847C315.505 579.687 315.962 555.449 315.248 531.302C314.344 500.723 312.269 469.963 312.471 439.387Z"/>
	<path fill="#D4E4D6" d="M823.019 451.894C826.703 458.94 832.104 490.548 833.65 499.843C834.519 505.063 834.813 512.918 837.458 517.4L838.037 527.429L837.982 605.252C838.054 617.175 837.386 629.484 838.488 641.354C834.001 642.05 829.526 642.536 825.008 642.973C825.338 632.323 820.92 621.45 821.125 610.748C821.478 592.229 822.381 573.536 823.498 555.047C823.942 547.698 825.003 540.386 825.408 533.043C825.841 525.223 825.274 517.198 824.674 509.398C825.586 510.611 826.598 511.74 827.598 512.88C829.353 514.881 830.375 516.398 831.255 518.93C831.614 507.56 828.234 496.026 826.478 484.887C824.773 474.07 823.878 462.817 823.019 451.894Z"/>
	<path fill="#DAC99B" d="M838.037 527.429C847.364 554.316 855.848 581.488 863.477 608.905C865.717 617.202 867.337 625.692 869.245 634.072C871.225 642.766 873.488 651.408 875.304 660.138C879.128 678.533 882.336 697.168 885.584 715.674C886.856 722.92 887.502 730.514 889.21 737.639C888.123 744.758 886.845 759.328 888.569 766.074C887.07 804.377 886.174 842.594 888.626 880.871C888.442 886.906 889.409 906.703 887.441 910.635L886.353 910.19C881.585 898.653 877.924 886.415 874.105 874.529C866.667 851.168 860.566 827.569 854.847 803.736C852.754 795.011 851.117 786.175 848.89 777.488C848.091 772.77 847.029 768.082 846.066 763.394C845.052 757.504 843.861 751.645 842.497 745.826C842.507 742.031 840.757 737.297 839.96 733.527C838.091 724.692 836.524 715.801 834.289 707.047C832.326 699.357 829.701 691.819 828.097 684.045L828.57 683.827C827.854 679.783 828.132 675.645 827.563 671.584C827.586 673.431 827.701 675.301 827.32 677.118C826.244 677.279 826.434 677.221 825.585 676.724C825.243 675.23 825.087 674.318 823.87 673.261C821.649 668.174 820.327 662.22 818.73 656.876L816.877 650.386C816.242 648.2 815.49 646.039 814.786 643.873C818.148 643.406 821.622 643.262 825.008 642.973C829.526 642.536 834.001 642.05 838.488 641.354C837.386 629.484 838.054 617.175 837.982 605.252L838.037 527.429Z"/>
	<path fill="#D4E4D6" d="M795.437 583.555C798.542 595.76 802.64 607.821 806.428 619.83C808.902 627.675 810.952 636.573 814.786 643.873C801.908 645.04 788.762 646.199 775.959 647.988C776.142 641.767 775.358 635.424 774.914 629.217C773.896 615.015 772.497 600.716 772.042 586.488C779.293 585.507 788.656 586.15 795.437 583.555Z"/>
	<path fill="#B8F2E6" d="M369.622 646.21C376.67 645.364 383.799 643.631 390.829 642.462L435.148 635.361L574.302 613.055C601.522 608.652 629.807 603.248 657.053 599.911C659.444 625.368 660.906 651.693 661.07 677.287C661.666 698.726 660.977 720.242 661.792 741.655C661.788 775.587 662.053 809.518 662.586 843.446C653.336 842.325 643.928 841.959 634.633 841.308L590.509 838.14C516.928 833.075 443.736 830.728 370.023 834.064C369.086 819.779 368.335 805.483 367.77 791.179C366.474 769.703 366.421 747.168 366.49 725.624C366.662 699.125 367.707 672.64 369.622 646.21Z"/>
	<path fill="#974C00" d="M775.959 647.988C788.762 646.199 801.908 645.04 814.786 643.873C815.49 646.039 816.242 648.2 816.877 650.386C814.356 651.333 779.752 654.995 775.581 655.12C775.368 652.82 775.556 650.459 775.632 648.152L775.959 647.988Z"/>
	<path fill="#DAC99B" d="M186.851 646.579L190.108 646.505C194.49 646.47 199.294 646.093 203.606 646.885C202.187 652.211 200.765 657.571 199.126 662.834C196.919 669.864 194.946 676.966 193.208 684.126L193.065 684.578C191.295 684.557 189.494 684.287 187.732 684.101C188.185 679.5 187.419 674.62 187.267 669.993C187.011 662.212 187.004 654.367 186.851 646.579Z"/>
	<path fill="#BF6902" d="M203.606 646.885C219.585 647.572 235.627 647.598 251.584 648.592C251.122 653.449 249.526 659.186 250.481 663.98C251.134 664.335 251.693 664.577 252.384 664.828C250.988 664.991 249.46 664.647 248.057 664.473C231.876 664.944 215.352 663.061 199.126 662.834C200.765 657.571 202.187 652.211 203.606 646.885Z"/>
	<path fill="#C67603" d="M723.1 653.738C740.495 651.146 758.193 650.524 775.632 648.152C775.556 650.459 775.368 652.82 775.581 655.12C779.752 654.995 814.356 651.333 816.877 650.386L818.73 656.876C804.42 659.227 789.777 659.455 775.479 661.751L775.378 655.447C768.505 655.467 761.229 657.17 754.356 657.935C743.912 659.096 732.807 659.412 722.538 661.352L722.423 661.152C722.564 658.681 722.867 656.203 723.1 653.738Z"/>
	<path fill="#C67603" d="M251.584 648.592L251.958 648.535C271.667 650.646 291.95 649.949 311.769 651.142C316.657 651.659 321.534 651.467 326.43 651.708C326.437 656.931 326.356 662.175 326.463 667.397C317.962 667.77 308.994 666.952 300.475 666.633L252.384 664.828C251.693 664.577 251.134 664.335 250.481 663.98C249.526 659.186 251.122 653.449 251.584 648.592Z"/>
	<path fill="#974C00" d="M713.766 654.726L723.1 653.738C722.867 656.203 722.564 658.681 722.423 661.152C715.653 663.143 703.309 664.163 695.95 665.2C695.993 662.293 696.099 659.527 696.544 656.647C702.292 656.071 708.033 655.431 713.766 654.726Z"/>
	<path fill="#BE903B" d="M722.538 661.352C732.807 659.412 743.912 659.096 754.356 657.935C761.229 657.17 768.505 655.467 775.378 655.447L775.479 661.751C765.596 663.126 755.697 664.388 745.784 665.536C738.02 666.372 730.137 666.874 722.418 668.046C722.395 665.82 722.495 663.579 722.538 661.352Z"/>
	<path fill="#974C00" d="M775.479 661.751C789.777 659.455 804.42 659.227 818.73 656.876C820.327 662.22 821.649 668.174 823.87 673.261C824.154 674.808 824.697 676.206 824.197 677.715C809.895 679.926 791.78 681.316 777.369 682.015L775.479 661.751Z"/>
	<path fill="#C67603" d="M722.418 668.046C730.137 666.874 738.02 666.372 745.784 665.536C755.697 664.388 765.596 663.126 775.479 661.751L777.369 682.015C759.063 683.1 740.765 684.322 722.477 685.68C722.534 679.901 722.676 673.881 722.116 668.132L722.418 668.046Z"/>
	<path fill="#974C00" d="M199.126 662.834C215.352 663.061 231.876 664.944 248.057 664.473L249.564 665.369C250.657 671.895 247.333 678.918 247.391 685.562C237.229 685.513 199.918 686.195 193.208 684.126C194.946 676.966 196.919 669.864 199.126 662.834Z"/>
	<path fill="#974C00" d="M248.057 664.473C249.46 664.647 250.988 664.991 252.384 664.828L300.475 666.633C308.994 666.952 317.962 667.77 326.463 667.397C326.579 674.114 326.624 680.831 326.596 687.549C322.558 687.508 318.51 687.21 314.478 686.996C294.609 686.602 274.6 685.735 254.734 685.914C252.334 685.587 249.814 685.644 247.391 685.562C247.333 678.918 250.657 671.895 249.564 665.369L248.057 664.473Z"/>
	<path fill="#974C00" d="M696.039 671.191C704.726 670.127 713.418 669.107 722.116 668.132C722.676 673.881 722.534 679.901 722.477 685.68C719.438 686.017 716.415 686.305 713.363 686.49C707.516 686.94 701.586 687.328 695.771 688.1L696.039 671.191Z"/>
	<path fill="#AED9E0" d="M823.87 673.261C825.087 674.318 825.243 675.23 825.585 676.724C826.434 677.221 826.244 677.279 827.32 677.118C827.701 675.301 827.586 673.431 827.563 671.584C828.132 675.645 827.854 679.783 828.57 683.827L828.097 684.045L827.544 683.997C825.498 689.06 825.725 705.24 825.404 711.297C823.41 748.961 822.882 786.669 820.917 824.343C820.442 834.809 819.787 845.265 818.953 855.709C818.6 859.694 818.444 864.192 817.515 868.066C812.027 858.563 807.924 843.558 804.74 832.849C796.464 805.811 790.155 778.21 785.86 750.262C782.501 727.579 780.795 704.661 777.369 682.015C791.78 681.316 809.895 679.926 824.197 677.715C824.697 676.206 824.154 674.808 823.87 673.261Z"/>
	<path fill="#FAF3DD" d="M722.477 685.68C740.765 684.322 759.063 683.1 777.369 682.015C780.795 704.661 782.501 727.579 785.86 750.262C790.155 778.21 796.464 805.811 804.74 832.849C807.924 843.558 812.027 858.563 817.515 868.066C820.455 877.423 825.015 885.387 829.883 893.827C820.968 890.072 811.648 887.058 802.521 883.846C789.785 879.402 777.095 874.828 764.452 870.126C764.747 857.993 763.122 845.278 762.424 833.132C761.389 814.696 760.034 796.278 758.358 777.888C757.562 769.255 756.955 760.523 755.674 751.95C754.886 746.682 754.095 738.093 750.842 733.76L749.956 733.703C745.839 738.361 744.457 759.936 738.81 768.586C737.575 770.48 735.846 772.268 733.5 772.597C731.439 772.886 729.519 771.932 728.053 770.565C715.884 759.206 713.786 703.392 713.363 686.49C716.415 686.305 719.438 686.017 722.477 685.68Z"/>
	<path fill="#95AE93" d="M817.515 868.066C818.444 864.192 818.6 859.694 818.953 855.709C819.787 845.265 820.442 834.809 820.917 824.343C822.882 786.669 823.41 748.961 825.404 711.297C825.725 705.24 825.498 689.06 827.544 683.997L828.097 684.045C829.701 691.819 832.326 699.357 834.289 707.047C836.524 715.801 838.091 724.692 839.96 733.527C840.757 737.297 842.507 742.031 842.497 745.826C841.323 751.587 841.85 758.257 841.879 764.139L842.003 792.332L842.02 898.453C838.084 896.64 833.785 895.821 829.883 893.827C825.015 885.387 820.455 877.423 817.515 868.066Z"/>
	<path fill="#FAF3DD" d="M187.732 684.101C189.494 684.287 191.295 684.557 193.065 684.578C191.961 690.228 190.591 696.085 188.821 701.562C187.596 696.417 187.51 689.396 187.732 684.101Z"/>
	<path fill="#B8F2E6" d="M193.065 684.578L193.208 684.126C199.918 686.195 237.229 685.513 247.391 685.562C249.814 685.644 252.334 685.587 254.734 685.914C251.872 686.082 249.062 686.125 246.196 686.055C236.913 743.753 227.464 801.168 212.387 857.718C210.608 864.391 208.875 871.147 206.699 877.702C205.434 881.509 203.228 885.73 202.465 889.565C202.385 889.967 202.43 890.51 202.672 890.854C198.794 892.591 194.891 894.27 190.963 895.889C190.099 879.153 190.75 862.164 190.662 845.393L189.545 747.799L189.269 720.176C189.221 714.769 189.472 709.114 188.72 703.757L188.821 701.562C190.591 696.085 191.961 690.228 193.065 684.578Z"/>
	<path fill="#D4E4D6" d="M246.196 686.055C249.062 686.125 251.872 686.082 254.734 685.914C274.6 685.735 294.609 686.602 314.478 686.996C315.432 687.853 315.483 687.953 315.533 689.302C315.697 693.755 314.863 698.623 314.454 703.074C313.145 717.347 311.112 731.559 309.448 745.794C307.927 753.016 304.737 767.783 298.558 772.036C296.991 773.115 295.159 773.636 293.279 773.159C289.705 772.252 287.121 768.239 285.505 765.201C279.069 753.103 276.194 738.842 275.18 725.294C267.687 761.329 268.676 799.604 267.371 836.256C266.976 847.32 265.162 858.392 264.969 869.427C243.943 876.079 223.14 882.611 202.672 890.854C202.43 890.51 202.385 889.967 202.465 889.565C203.228 885.73 205.434 881.509 206.699 877.702C208.875 871.147 210.608 864.391 212.387 857.718C227.464 801.168 236.913 743.753 246.196 686.055Z"/>
	<path fill="#AED9E0" d="M695.771 688.1C701.586 687.328 707.516 686.94 713.363 686.49C713.786 703.392 715.884 759.206 728.053 770.565C729.519 771.932 731.439 772.886 733.5 772.597C735.846 772.268 737.575 770.48 738.81 768.586C744.457 759.936 745.839 738.361 749.956 733.703L750.842 733.76C754.095 738.093 754.886 746.682 755.674 751.95C756.955 760.523 757.562 769.255 758.358 777.888C760.034 796.278 761.389 814.696 762.424 833.132C763.122 845.278 764.747 857.993 764.452 870.126C759.674 867.901 754.495 866.171 749.585 864.231C733.226 857.765 716.338 851.706 700.928 843.151C696.754 833.909 693.719 824.273 692.459 814.181C690.816 801.02 692.045 786.74 692.575 773.457C693.462 754.128 694.197 734.792 694.78 715.451C695.108 706.364 695.897 697.186 695.771 688.1Z"/>
	<defs>
		<linearGradient id="gradient_8" gradientUnits="userSpaceOnUse" x1="255.06435" y1="809.26044" x2="358.9725" y2="737.40088">
			<stop offset="0" stop-color="#B0BAA2"/>
			<stop offset="1" stop-color="#9DC3AA"/>
		</linearGradient>
	</defs>
	<path fill="url(#gradient_8)" d="M314.478 686.996C318.51 687.21 322.558 687.508 326.596 687.549L326.071 771.216C326.115 787.682 328.448 806.273 325.235 822.399C323.245 832.385 318.457 842.611 311.22 849.876C305.217 855.903 297.597 859.431 289.695 862.286C290.12 859.793 291.625 856.977 292.489 854.566C294.124 850.006 295.607 845.418 296.695 840.694C300.52 824.084 303.041 807.265 305.416 790.4C307.463 775.868 309.776 760.49 309.448 745.794C311.112 731.559 313.145 717.347 314.454 703.074C314.863 698.623 315.697 693.755 315.533 689.302C315.483 687.953 315.432 687.853 314.478 686.996Z"/>
	<path fill="#FAF3DD" d="M133.39 694.166C133.896 696.535 133.893 699.128 134.065 701.548C133.532 757.944 135.285 814.339 139.322 870.593C139.548 873.662 139.714 886.32 141.181 888.325L142.693 888.189C143.458 892.13 142.665 896.254 142.955 900.251C139.59 904.108 137.194 909.397 134.567 913.847C131.831 918.48 128.883 922.98 125.986 927.513C111.591 950.359 96.8528 972.987 81.7753 995.388C75.4485 1004.84 69.6018 1015.18 62.417 1024L47.7579 1024C51.7198 1016.36 56.1861 1008.98 60.1577 1001.35C67.1016 987.999 73.3344 973.646 78.1304 959.378C85.7306 936.768 89.5081 913.416 93.6269 890.003C97.593 867.222 101.702 844.466 105.952 821.737C107.823 811.759 110.222 801.896 112.326 791.966L133.39 694.166Z"/>
	<path fill="#C67603" d="M188.72 703.757C189.472 709.114 189.221 714.769 189.269 720.176L189.545 747.799L190.662 845.393C190.75 862.164 190.099 879.153 190.963 895.889C186.913 898.761 181.164 900.83 176.706 903.153C175.962 889.637 176.448 875.9 176.359 862.348C176.296 838.896 176.03 815.444 175.56 791.997C175.497 786.766 176.324 765.792 174.819 762.618C176.528 754.159 178.972 745.742 180.904 737.315C183.463 726.154 185.593 714.764 188.72 703.757Z"/>
	<path fill="#AED9E0" d="M275.18 725.294C276.194 738.842 279.069 753.103 285.505 765.201C287.121 768.239 289.705 772.252 293.279 773.159C295.159 773.636 296.991 773.115 298.558 772.036C304.737 767.783 307.927 753.016 309.448 745.794C309.776 760.49 307.463 775.868 305.416 790.4C303.041 807.265 300.52 824.084 296.695 840.694C295.607 845.418 294.124 850.006 292.489 854.566C291.625 856.977 290.12 859.793 289.695 862.286C281.493 864.801 273.25 867.182 264.969 869.427C265.162 858.392 266.976 847.32 267.371 836.256C268.676 799.604 267.687 761.329 275.18 725.294Z"/>
	<path fill="#D4E09B" d="M889.21 737.639C891.157 746.175 892.658 757.893 888.569 766.074C886.845 759.328 888.123 744.758 889.21 737.639Z"/>
	<path fill="#974C00" d="M842.02 898.453L842.003 792.332L841.879 764.139C841.85 758.257 841.323 751.587 842.497 745.826C843.861 751.645 845.052 757.504 846.066 763.394C845.191 768.386 845.671 773.833 845.72 778.89L845.926 805.285L845.938 900.119L842.02 898.453Z"/>
	<path fill="#FAF3DD" d="M888.626 880.871C893.24 872.639 894.521 779.721 894.019 765.325C904.169 783.404 909.262 803.376 914.25 823.34C919.567 844.624 924.537 866.301 928.803 887.82C932.43 906.119 935.325 924.699 940.096 942.746C947.525 970.851 959.792 998.785 974.207 1024L960.696 1024C947.08 1006.48 934.639 988.127 922.244 969.746C910.374 952.145 898.685 935.021 889.088 916.022L887.777 912.804L886.353 910.19L887.441 910.635C889.409 906.703 888.442 886.906 888.626 880.871Z"/>
	<path fill="#974C00" d="M849.401 901.912C849.922 890.176 849.567 878.267 849.6 866.513L849.718 807.306C849.665 797.511 848.007 787.193 848.89 777.488C851.117 786.175 852.754 795.011 854.847 803.736C860.566 827.569 866.667 851.168 874.105 874.529C872.821 886.93 873.871 900.244 874.029 912.724C868.148 910.637 862.557 907.902 856.723 905.747C854.771 904.209 851.66 903.049 849.401 901.912Z"/>
	<path fill="#D4E09B" d="M0 1012.94L31.327 959.462C37.7846 948.681 44.9103 938.195 50.7582 927.068C54.4338 920.074 58.0355 912.882 61.0109 905.563C64.0846 898.002 66.6461 890.229 70.1171 882.834C77.7526 866.566 87.5569 851.544 96.9727 836.287C94.9281 842.911 92.1717 849.242 89.7434 855.728C85.7627 866.345 82.0528 877.061 78.6173 887.866C71.5313 910.599 67.7642 934.929 57.0117 956.353C51.647 967.042 44.4428 976.806 37.8097 986.714C29.6568 998.892 21.5518 1011.39 14.0778 1024L0 1024L0 1012.94Z"/>
	<path fill="#D4E09B" d="M926.052 838.469C936.24 853.348 946.242 871.204 953.434 887.754C958.675 899.818 962.828 912.114 968.682 923.967C974.856 936.467 982.809 948.136 989.854 960.159L1011.58 996.49C1015.69 1003.35 1019.53 1010.5 1024 1017.12L1024 1024L1006.6 1024C998.986 1009.24 989.289 995.266 979.984 981.52C974.265 973.069 967.978 964.579 963.704 955.289C955.742 937.979 951.774 918.21 946.545 899.926C940.558 878.99 933.732 858.84 926.052 838.469Z"/>
	<path fill="#974C00" d="M363.549 876.168C383.879 875.744 404.203 874.518 424.548 874.125C444.492 873.74 464.408 874.229 484.347 873.314C497.51 872.709 510.659 871.854 523.79 870.751C533.695 869.975 543.614 868.984 553.557 868.944C566.542 868.893 579.658 870.326 592.641 870.883C615.725 871.873 639.035 872.384 662.069 874.107L661.939 882.842C678.679 888.928 695.471 894.793 712.062 901.285C719.364 904.142 726.913 906.843 733.908 910.384L733.14 910.303C726.699 909.594 720.365 908.022 713.978 906.946C705.15 905.468 696.24 904.541 687.297 904.172C666.236 903.334 644.938 906.466 623.88 907.455C591.912 908.744 559.917 909.245 527.925 908.958C512.774 909.072 497.623 908.87 482.48 908.352C463.648 907.633 444.823 906.304 425.979 905.961C387.455 905.32 348.925 906.758 310.556 910.271C287.848 912.352 261.548 914.842 239.608 920.177C235.244 921.239 219.45 927.013 216.45 925.105C227.474 920.528 239.42 917.203 250.925 914.077C275.801 907.318 300.973 902.171 326.285 897.387C338.372 895.102 350.813 892.044 363.033 890.85L363.549 876.168Z"/>
	<path fill="#D4E09B" d="M142.955 900.251L143.339 900.065C143.688 920.728 143.887 941.393 143.938 962.059C155.66 960.178 167.181 957.234 178.754 954.622C200.718 949.665 222.462 944.431 244.194 938.522C256.923 935.061 274.061 928.712 286.545 926.935C293.897 925.889 301.584 926.127 308.997 926.046C321.018 926.013 333.037 925.772 345.049 925.324C379.048 923.77 412.909 921.015 446.972 920.98C491.809 920.933 536.546 923.845 581.39 923.471C597.925 923.333 614.634 922.836 631.12 921.575C642.821 920.68 654.48 919.12 666.2 918.509C685.536 917.499 704.539 917.797 723.868 918.709C734.403 919.207 745.346 919.696 755.775 921.262C763.586 922.434 771.42 925.635 778.865 928.224L808.966 938.79C835.409 948.125 863.012 956.26 888.491 968.015C889.163 950.692 889.362 933.355 889.088 916.022C898.685 935.021 910.374 952.145 922.244 969.746C934.639 988.127 947.08 1006.48 960.696 1024L62.417 1024C69.6018 1015.18 75.4485 1004.84 81.7753 995.388C96.8528 972.987 111.591 950.359 125.986 927.513C128.883 922.98 131.831 918.48 134.567 913.847C137.194 909.397 139.59 904.108 142.955 900.251Z"/>
</svg>
