<?xml version="1.0" encoding="utf-8" ?>
<svg xmlns="http://www.w3.org/2000/svg" xmlns:xlink="http://www.w3.org/1999/xlink" width="1024" height="1024">
	<path fill="#B8F2E6" d="M0 0L145.18 0C127.021 18.9364 108.521 32.4298 86.7927 46.9273C79.81 51.5863 72.8433 56.5053 65.5969 60.7396C52.7828 68.2272 39.5999 74.7109 26.2043 81.0658C18.0209 84.948 8.73486 90.0501 0 92.391L0 0Z"/>
	<path fill="#B8F2E6" d="M145.18 0L362.37 0C357.812 4.68821 352.051 8.47061 346.812 12.3682C331.435 23.6769 315.703 34.496 299.641 44.8091C278.715 58.523 257.181 71.0137 235.364 83.2352C221.189 91.1752 207.206 99.0438 192.538 106.069C148.799 127.222 101.931 141.175 53.7442 147.388C40.0513 149.042 26.589 149.652 12.8446 150.283C8.56457 150.48 4.27844 151.005 0 151.111L0 92.391C8.73486 90.0501 18.0209 84.948 26.2043 81.0658C39.5999 74.7109 52.7828 68.2272 65.5969 60.7396C72.8433 56.5053 79.81 51.5863 86.7927 46.9273C108.521 32.4298 127.021 18.9364 145.18 0Z"/>
	<path fill="#B8F2E6" d="M362.37 0L540.747 0C532.726 7.20666 523.259 13.4614 514.552 19.8507C494.205 35.0731 473.265 49.486 451.78 63.0558C441.127 69.8324 430.743 77.0437 419.971 83.6353C392.294 100.572 359.733 117.981 329.735 130.478C310.233 138.602 289.551 144.842 269.241 150.599C238.212 159.395 207.077 166.752 175.624 173.818C153.337 178.825 131.195 184.406 108.947 189.569C84.4524 195.397 60.0163 201.468 35.6422 207.782C28.6074 209.57 21.5616 211.314 14.5054 213.015C9.72984 214.214 4.88627 215.805 0 216.442L0 151.111C4.27844 151.005 8.56457 150.48 12.8446 150.283C26.589 149.652 40.0513 149.042 53.7442 147.388C101.931 141.175 148.799 127.222 192.538 106.069C207.206 99.0438 221.189 91.1752 235.364 83.2352C257.181 71.0137 278.715 58.523 299.641 44.8091C315.703 34.496 331.435 23.6769 346.812 12.3682C352.051 8.47061 357.812 4.68821 362.37 0Z"/>
	<path fill="#B8F2E6" d="M540.747 0L613.714 0C559.282 80.3229 465.037 143.457 374.537 176.265C332.11 191.646 288.989 201.432 244.768 209.919C232.467 212.279 220.085 213.934 207.757 216.101C193.893 218.538 180.101 221.375 166.233 223.79C136.585 228.659 106.987 233.824 77.4418 239.283C62.1399 242.204 46.9288 245.899 31.7977 249.601C21.2553 252.181 10.7363 255.032 0 256.697L0 216.442C4.88627 215.805 9.72984 214.214 14.5054 213.015C21.5616 211.314 28.6074 209.57 35.6422 207.782C60.0163 201.468 84.4524 195.397 108.947 189.569C131.195 184.406 153.337 178.825 175.624 173.818C207.077 166.752 238.212 159.395 269.241 150.599C289.551 144.842 310.233 138.602 329.735 130.478C359.733 117.981 392.294 100.572 419.971 83.6353C430.743 77.0437 441.127 69.8324 451.78 63.0558C473.265 49.486 494.205 35.0731 514.552 19.8507C523.259 13.4614 532.726 7.20666 540.747 0Z"/>
	<path fill="#FAF3DD" d="M613.714 0L717.452 0C706.385 16.1874 696.322 33.0412 685.444 49.3577C676.437 62.8679 666.714 75.7369 657.245 88.9043C652.11 96.0446 647.37 103.435 642.092 110.481C617.874 142.808 590.341 173.656 559.107 199.329C532.887 220.882 506.581 237.373 478.343 255.676C457.034 266.761 436.111 278.689 414.255 288.705C392.295 298.768 369.343 306.945 347.983 318.289L347.878 318.664C349.584 318.611 351.405 318.421 353.075 318.792C350.135 319.172 347.011 319.294 344.145 319.997C332.949 322.741 321.637 328.751 310.911 333.102C288.267 342.289 265.949 352.211 243.33 361.414C241.294 362.425 239.826 362.764 237.544 362.534C228.537 361.625 218.745 357.914 210.159 355.165C196.344 350.741 182.522 346.016 168.525 342.213C148.593 336.797 128.526 331.97 107.882 330.32C71.7776 327.433 33.8878 336.231 0 348.049L0 256.697C10.7363 255.032 21.2553 252.181 31.7977 249.601C46.9288 245.899 62.1399 242.204 77.4418 239.283C106.987 233.824 136.585 228.659 166.233 223.79C180.101 221.375 193.893 218.538 207.757 216.101C220.085 213.934 232.467 212.279 244.768 209.919C288.989 201.432 332.11 191.646 374.537 176.265C465.037 143.457 559.282 80.3229 613.714 0Z"/>
	<path fill="#B8F2E6" d="M717.452 0L970.525 0L968.646 2.42966C968.492 2.51511 968.336 2.59788 968.184 2.68601C963.753 5.24806 959.729 9.24419 955.795 12.5242C948.562 18.5835 941.289 24.5952 933.977 30.5588C920.166 41.7365 905.037 52.0798 890.36 62.1101C844.981 92.6229 798.443 121.376 750.85 148.305C741.907 153.374 732.714 157.978 723.745 162.992C694.265 179.473 664.721 195.318 634.492 210.401C613.97 220.642 592.928 230.952 571.452 239.04C546.068 248.599 519.148 254.868 491.984 255.877C487.933 256.027 482.825 256.578 478.851 255.806C478.679 255.773 478.512 255.719 478.343 255.676C506.581 237.373 532.887 220.882 559.107 199.329C590.341 173.656 617.874 142.808 642.092 110.481C647.37 103.435 652.11 96.0446 657.245 88.9043C666.714 75.7369 676.437 62.8679 685.444 49.3577C696.322 33.0412 706.385 16.1874 717.452 0Z"/>
	<path fill="#FAF3DD" d="M970.525 0L1024 0L1024 220.203C945.342 242.037 900.868 276.011 856.419 343.969C841.236 367.182 827.536 391.183 811.218 413.671C796.967 432.925 781.525 451.269 764.983 468.595C760.059 473.761 753.589 477.69 749.04 483.086C749.122 484.123 749.175 483.95 749.851 484.628C750.942 484.702 751.401 484.372 752.328 483.872C754.949 482.458 757.908 481.684 760.696 480.647C770.746 476.909 781.047 474.101 791.141 470.538C806.465 465.13 821.647 458.359 836.58 451.951C862.975 440.543 888.963 428.215 914.496 414.991C927.098 408.572 940.138 402.271 952.233 394.939C968.017 385.418 983.437 375.307 998.462 364.628C1007.06 358.525 1015.31 351.931 1024 345.949L1024 415.854C1020.64 416.908 1011.11 429.041 1007.57 432.41C1003.02 436.732 997.988 440.813 993.095 444.735C972.133 461.672 949.381 476.263 925.243 488.247C918.469 491.589 911.197 493.219 903.919 495.1C893.789 497.719 883.602 500.356 873.385 502.609C870.444 503.258 867.416 503.577 864.493 504.265C858.46 505.686 852.073 508.161 845.689 509.66C782.724 524.483 719.515 538.248 656.089 550.951C650.933 551.995 630.039 557.219 626.971 556.803C626.505 556.74 626.121 556.401 625.696 556.199L624.639 554.434C642.242 539.304 660.268 524.652 677.82 509.469C680.266 510.355 682.636 510.81 685.236 510.387C689.857 509.634 694.334 507.011 697.05 503.17C699.372 499.885 699.96 496.367 699.375 492.448C705.963 486.069 715.609 483.283 722.694 477.521C725.752 468.564 739.364 435.88 739.054 429.199C740.314 428.58 741.784 428.238 743.086 427.672C747.325 425.831 751.806 422.146 753.408 417.715C754.791 413.891 753.892 410.499 752.13 407.017C753.331 401.059 755.582 395.32 757.547 389.58C762.001 376.571 767.094 363.555 770.765 350.306C773.101 349.469 775.592 348.616 777.66 347.217C783.493 343.271 784.713 337.14 786.018 330.695C791.849 324.938 798.701 319.955 805.215 315.007C815.637 307.153 826.119 299.379 836.66 291.685C841.718 287.961 849.764 283.217 853.597 278.51C855.92 277.218 858.127 273.545 860.368 272.754C861.748 272.267 865.992 273.816 868.47 273.281C872.597 272.389 876.031 270.091 878.231 266.46C880.767 262.275 881.46 257.005 880.385 252.27L903.117 221.165C908.274 214.088 913.293 206.812 919.002 200.169C924.804 203.306 930.375 207.236 935.954 210.773C937.113 193.847 939.178 176.983 941.107 160.131C924.296 166.957 906.835 173.014 890.709 181.348C896.306 185.933 903.642 189.506 909.925 193.131C902.151 206.062 892.838 218.712 883.733 230.743C880.685 234.77 877.716 239.345 874.252 243.012C873.282 244.039 872.054 244.716 870.804 245.342C867.796 244.435 864.956 244.212 862.06 245.659C857.466 247.956 855.334 253.249 853.889 257.852C853.485 260.308 853.406 262.623 853.412 265.098C835.714 277.86 818.305 291.045 800.758 304.017C793.931 309.065 785.037 317.536 777.234 320.543C775.045 320.085 773.077 319.874 770.841 319.899C767.035 320.02 763.729 321.127 761.067 323.968C758.066 327.172 756.768 331.53 756.243 335.794C756.382 340.823 758.3 342.877 761.78 346.193C756.507 364.535 748.024 382.043 742.637 400.372C737.78 400.338 733.426 400.733 729.723 404.291C727.789 406.151 726.352 408.448 725.236 410.876C724.661 410.685 724.109 410.396 723.51 410.301C722.505 410.141 700.175 415.721 697.021 416.42C659.998 424.626 622.292 430.692 586.003 441.957C571.201 446.589 556.808 452.438 542.971 459.444C523.361 469.252 505.599 482.847 490.211 498.426C482.373 506.361 475.149 515.054 466.692 522.352C489.469 524.854 510.801 531.546 532.063 539.839C541.645 543.576 550.908 547.904 560.763 550.943C567.709 553.086 575.238 554.879 582.472 555.73C585.995 556.145 589.418 555.875 592.903 556.671C594.283 555.097 595.554 552.534 597.137 551.324C599.136 549.796 604.93 548.99 607.516 548.808C609.458 548.672 610.765 549.12 612.54 549.799C615.592 549.312 641.116 524.653 647.787 520.801C650.387 519.3 652.757 514.363 655.689 514.056L656.02 514.301C642.232 526.948 626.985 538.039 613.57 551.061C608.665 549.451 604.154 548.907 599.371 551.48C596.325 553.119 593.732 556.143 592.792 559.503C592.396 560.92 592.343 562.468 592.249 563.931C592.024 564.949 591.825 565.36 591.105 566.157C586.607 571.139 580.841 575.557 575.834 580.046C563.885 590.757 551.345 601.603 540.367 613.305C540.2 613.306 540.033 613.326 539.868 613.309C538.963 613.215 538.411 612.853 537.615 612.453C533.973 610.62 529.391 610.092 525.475 611.421C521.707 612.701 519.367 616.213 517.862 619.724C517.55 620.45 517.348 621.193 517.137 621.953C501.332 621.618 475.37 624.542 459.964 627.968C458.244 623.835 456.281 620.744 451.976 619.009C447.803 617.328 442.624 617.66 438.605 619.624C434.819 621.474 432.261 624.649 430.904 628.614C430.802 628.91 430.73 629.215 430.644 629.516C430.543 630.763 430.67 633.731 429.706 634.478C427.503 636.183 417.091 638.69 413.858 639.768C394.946 646.106 376.166 652.832 357.529 659.941C353.309 661.565 347.688 662.973 343.869 665.324C341.134 661.826 336.941 659.78 332.5 659.778C327.164 659.775 322.261 662.715 319.75 667.424C313.47 666.754 307.082 666.829 300.774 666.47C286.271 665.643 271.777 664.662 257.239 664.955C256.389 661.701 255.279 658.682 253.128 656.033C250.549 652.857 247.317 651.658 243.353 651.237C241.014 650.93 239.198 651.51 237.155 652.628C233.53 654.125 230.728 656.103 229.095 659.797C227.522 663.355 227.729 667.875 229.164 671.463C229.256 671.691 229.358 671.915 229.455 672.142C222.032 681.157 215.158 690.846 208.307 700.309C204.383 705.729 198.042 716.501 193.115 720.289C188.141 724.112 181.657 726.437 175.566 727.674C173.181 724.562 170.211 722.492 166.233 722.068C162.382 721.693 158.545 722.911 155.616 725.44C152.45 728.158 150.745 732.015 150.54 736.157C150.48 737.37 150.658 738.371 150.952 739.542C142.15 743.279 94.4889 766.142 90.1575 770.718C89.9489 770.747 89.7422 770.798 89.5318 770.804C87.5995 770.863 85.6338 769.751 83.7663 769.295C79.2974 768.202 73.8999 770.413 70.6776 773.494C68.2638 775.802 66.3648 779.319 66.4698 782.733C66.51 784.043 66.8421 785.416 67.2204 786.664C64.9216 790.395 51.4696 797.507 47.062 800.267C43.7165 797.734 40.5149 796.297 36.1904 796.818C33.6481 797.124 30.9498 798.302 29.3948 800.386C29.3719 800.416 29.3553 800.451 29.3356 800.484C28.4188 801.415 27.5854 802.315 26.8015 803.363C26.1392 804.248 25.6789 804.543 24.6057 804.9C23.4236 804.742 22.2879 804.563 21.1232 804.296C14.5876 801.432 6.84393 799.771 0 797.505L0 581.54C14.2299 570.993 31.7948 558.003 48.6052 552.386C66.649 546.356 87.564 546.416 106.419 545.963L149.448 544.707C166.026 544.245 182.458 543.964 198.895 541.401C234.067 535.917 268.462 519.728 294.3 495.223C270.24 507.189 242.355 516.449 215.392 518.166C204.434 518.864 192.68 518.719 181.773 517.629C172.169 516.669 162.665 514.941 153.053 514.001C137.382 512.469 121.867 511.422 106.104 512.06C75.2897 513.307 42.2992 520.989 14.9203 535.371C9.77082 538.076 4.89019 541.417 0 544.561L0 416.256C12.0448 409.673 24.7566 405.437 38.2305 402.902C68.3363 397.237 96.5001 405.856 123.166 419.428C139.386 427.684 154.667 436.172 172.494 440.658C180.752 442.737 189.211 444.096 197.74 443.332C216.393 441.66 230.903 432.276 246.618 423.078C259.722 415.409 272.909 407.305 286.847 401.226C297.938 396.388 309.513 393.371 320.975 389.62C340.201 383.328 363.728 375.174 383.267 371.152C374.591 370.82 365.838 371.45 357.136 371.271C337.81 370.875 318.153 370.715 298.874 369.462C286.545 368.661 274.239 367.191 261.965 365.795C257.664 365.306 248.291 365.012 244.841 363.594C244.111 363.295 244.224 362.995 243.997 362.311C247.589 361.264 251.174 359.546 254.672 358.176C263.016 354.908 271.344 351.523 279.773 348.488C294.213 343.287 309.017 339.016 323.539 334.028C343.587 327.141 363.622 319.528 384.089 314.018C395.28 312.768 410.195 306.95 421.271 303.768C448.906 295.83 476.691 287.545 504.61 280.677C513.704 278.44 523.392 276.723 532.738 276.239C539.869 275.871 547.002 276.102 554.127 275.461C573.97 273.676 594.355 269.239 613.277 263.028C625.883 258.89 637.625 252.824 649.447 246.887C674.163 234.208 698.103 220.071 721.14 204.552C736.091 194.431 750.459 183.583 765.067 172.988C782.653 160.234 800.638 147.676 818.67 135.577C850.762 114.045 885.133 95.8575 919.151 77.5952C928.688 72.4755 934.162 62.6163 940.238 54.0489C952.196 37.187 962.717 22.6152 968.646 2.42966L970.525 0Z"/>
	<path fill="#B8F2E6" d="M478.343 255.676C478.512 255.719 478.679 255.773 478.851 255.806C482.825 256.578 487.933 256.027 491.984 255.877C519.148 254.868 546.068 248.599 571.452 239.04C592.928 230.952 613.97 220.642 634.492 210.401C664.721 195.318 694.265 179.473 723.745 162.992C732.714 157.978 741.907 153.374 750.85 148.305C798.443 121.376 844.981 92.6229 890.36 62.1101C905.037 52.0798 920.166 41.7365 933.977 30.5588C941.289 24.5952 948.562 18.5835 955.795 12.5242C959.729 9.24419 963.753 5.24806 968.184 2.68601C968.336 2.59788 968.492 2.51511 968.646 2.42966C962.717 22.6152 952.196 37.187 940.238 54.0489C934.162 62.6163 928.688 72.4755 919.151 77.5952C885.133 95.8575 850.762 114.045 818.67 135.577C800.638 147.676 782.653 160.234 765.067 172.988C750.459 183.583 736.091 194.431 721.14 204.552C698.103 220.071 674.163 234.208 649.447 246.887C637.625 252.824 625.883 258.89 613.277 263.028C594.355 269.239 573.97 273.676 554.127 275.461C547.002 276.102 539.869 275.871 532.738 276.239C523.392 276.723 513.704 278.44 504.61 280.677C476.691 287.545 448.906 295.83 421.271 303.768C410.195 306.95 395.28 312.768 384.089 314.018C373.619 314.167 363.402 318.749 353.075 318.792C351.405 318.421 349.584 318.611 347.878 318.664L347.983 318.289C369.343 306.945 392.295 298.768 414.255 288.705C436.111 278.689 457.034 266.761 478.343 255.676Z"/>
	<path fill="#5494A0" d="M870.804 245.342C872.054 244.716 873.282 244.039 874.252 243.012C877.716 239.345 880.685 234.77 883.733 230.743C892.838 218.712 902.151 206.062 909.925 193.131C903.642 189.506 896.306 185.933 890.709 181.348C906.835 173.014 924.296 166.957 941.107 160.131C939.178 176.983 937.113 193.847 935.954 210.773C930.375 207.236 924.804 203.306 919.002 200.169C913.293 206.812 908.274 214.088 903.117 221.165L880.385 252.27C881.46 257.005 880.767 262.275 878.231 266.46C876.031 270.091 872.597 272.389 868.47 273.281C865.992 273.816 861.748 272.267 860.368 272.754C858.127 273.545 855.92 277.218 853.597 278.51C855.543 275.526 860.148 271.409 859.739 267.881C860.535 267.933 860.221 267.876 860.961 268.061C863.297 268.644 865.929 269.448 868.344 268.955C871.23 268.374 873.737 266.603 875.249 264.077C877.264 260.727 877.738 256.236 876.798 252.477C875.844 248.667 874.082 247.285 870.804 245.342Z"/>
	<path fill="#B8F2E6" d="M1024 345.949C1015.31 351.931 1007.06 358.525 998.462 364.628C983.437 375.307 968.017 385.418 952.233 394.939C940.138 402.271 927.098 408.572 914.496 414.991C888.963 428.215 862.975 440.543 836.58 451.951C821.647 458.359 806.465 465.13 791.141 470.538C781.047 474.101 770.746 476.909 760.696 480.647C757.908 481.684 754.949 482.458 752.328 483.872C751.401 484.372 750.942 484.702 749.851 484.628C749.175 483.95 749.122 484.123 749.04 483.086C753.589 477.69 760.059 473.761 764.983 468.595C781.525 451.269 796.967 432.925 811.218 413.671C827.536 391.183 841.236 367.182 856.419 343.969C900.868 276.011 945.342 242.037 1024 220.203L1024 345.949Z"/>
	<path fill="#204E5E" d="M853.889 257.852C855.334 253.249 857.466 247.956 862.06 245.659C864.956 244.212 867.796 244.435 870.804 245.342C874.082 247.285 875.844 248.667 876.798 252.477C877.738 256.236 877.264 260.727 875.249 264.077C873.737 266.603 871.23 268.374 868.344 268.955C865.929 269.448 863.297 268.644 860.961 268.061C860.221 267.876 860.535 267.933 859.739 267.881C857.081 265.919 857.02 263.891 856.299 260.926C855.829 258.997 855.492 258.859 853.889 257.852ZM863.516 248.241C860.373 249.713 859.276 251.185 858.051 254.408C857.771 256.854 857.871 259.285 859.092 261.495C860.164 263.436 861.868 264.972 864.046 265.509C866.046 266.003 868.241 265.605 869.995 264.545C872.069 263.29 873.538 261.143 874.122 258.805C874.845 255.906 874.254 251.492 872.659 248.971C872.303 248.465 871.955 247.929 871.477 247.525C869.749 246.064 867.344 245.516 865.164 245.867C863.908 246.752 863.914 246.755 863.516 248.241Z"/>
	<path fill="#3C8796" d="M863.516 248.241C863.914 246.755 863.908 246.752 865.164 245.867C867.344 245.516 869.749 246.064 871.477 247.525C871.955 247.929 872.303 248.465 872.659 248.971C871.172 249.315 869.676 249.301 868.672 250.485L868.729 252.533L868.149 252.716C867.959 251.682 867.614 250.817 867.238 249.842C866.016 248.618 865.142 248.492 863.516 248.241Z"/>
	<path fill="#FAF3DD" d="M858.051 254.408C859.276 251.185 860.373 249.713 863.516 248.241C865.142 248.492 866.016 248.618 867.238 249.842C867.614 250.817 867.959 251.682 868.149 252.716C867.286 254.587 866.254 256.597 864.225 257.434C863.073 257.91 861.935 258.053 860.767 257.509C859.578 256.955 858.666 255.522 858.051 254.408Z"/>
	<path fill="#5494A0" d="M868.149 252.716L868.729 252.533L868.672 250.485C869.676 249.301 871.172 249.315 872.659 248.971C874.254 251.492 874.845 255.906 874.122 258.805C873.538 261.143 872.069 263.29 869.995 264.545C868.241 265.605 866.046 266.003 864.046 265.509C861.868 264.972 860.164 263.436 859.092 261.495C857.871 259.285 857.771 256.854 858.051 254.408C858.666 255.522 859.578 256.955 860.767 257.509C861.935 258.053 863.073 257.91 864.225 257.434C866.254 256.597 867.286 254.587 868.149 252.716Z"/>
	<path fill="#5494A0" d="M853.412 265.098C853.406 262.623 853.485 260.308 853.889 257.852C855.492 258.859 855.829 258.997 856.299 260.926C857.02 263.891 857.081 265.919 859.739 267.881C860.148 271.409 855.543 275.526 853.597 278.51C849.764 283.217 841.718 287.961 836.66 291.685C826.119 299.379 815.637 307.153 805.215 315.007C798.701 319.955 791.849 324.938 786.018 330.695C784.713 337.14 783.493 343.271 777.66 347.217C775.592 348.616 773.101 349.469 770.765 350.306C767.094 363.555 762.001 376.571 757.547 389.58C755.582 395.32 753.331 401.059 752.13 407.017L750.752 405.749C748.364 403.542 745.863 401.22 742.637 400.372C748.024 382.043 756.507 364.535 761.78 346.193C758.3 342.877 756.382 340.823 756.243 335.794L757.661 335.235C757.778 335.528 757.893 335.823 758.013 336.115C759.692 340.186 762.651 343.373 766.846 344.923C769.36 345.851 772.14 345.977 774.575 344.747C777.336 343.351 779.121 340.58 779.897 337.653C781.003 333.483 780.914 328.965 778.776 325.207C778.456 324.642 778.034 323.543 777.435 323.382L778.882 327.656C778.687 327.641 775.108 322.676 774.153 321.979L773.809 321.296C774.954 320.949 776.057 320.742 777.234 320.543C785.037 317.536 793.931 309.065 800.758 304.017C818.305 291.045 835.714 277.86 853.412 265.098Z"/>
	<path fill="#B8F2E6" d="M353.075 318.792C363.402 318.749 373.619 314.167 384.089 314.018C363.622 319.528 343.587 327.141 323.539 334.028C309.017 339.016 294.213 343.287 279.773 348.488C271.344 351.523 263.016 354.908 254.672 358.176C251.174 359.546 247.589 361.264 243.997 362.311C244.224 362.995 244.111 363.295 244.841 363.594C248.291 365.012 257.664 365.306 261.965 365.795C274.239 367.191 286.545 368.661 298.874 369.462C318.153 370.715 337.81 370.875 357.136 371.271C365.838 371.45 374.591 370.82 383.267 371.152C363.728 375.174 340.201 383.328 320.975 389.62C309.513 393.371 297.938 396.388 286.847 401.226C272.909 407.305 259.722 415.409 246.618 423.078C230.903 432.276 216.393 441.66 197.74 443.332C189.211 444.096 180.752 442.737 172.494 440.658C154.667 436.172 139.386 427.684 123.166 419.428C96.5001 405.856 68.3363 397.237 38.2305 402.902C24.7566 405.437 12.0448 409.673 0 416.256L0 348.049C33.8878 336.231 71.7776 327.433 107.882 330.32C128.526 331.97 148.593 336.797 168.525 342.213C182.522 346.016 196.344 350.741 210.159 355.165C218.745 357.914 228.537 361.625 237.544 362.534C239.826 362.764 241.294 362.425 243.33 361.414C265.949 352.211 288.267 342.289 310.911 333.102C321.637 328.751 332.949 322.741 344.145 319.997C347.011 319.294 350.135 319.172 353.075 318.792Z"/>
	<path fill="#204E5E" d="M756.243 335.794C756.768 331.53 758.066 327.172 761.067 323.968C763.729 321.127 767.035 320.02 770.841 319.899C766.532 321.441 761.721 323.123 759.759 327.689C758.748 330.042 758.583 332.369 758.913 334.874C759.1 335.186 759.293 335.493 759.472 335.809C760.949 338.431 762.347 339.94 765.262 341.006C767.967 341.995 770.93 341.92 773.493 340.554C775.78 339.341 777.426 337.195 778.005 334.672C778.982 330.449 776.944 327.29 774.836 323.858C774.438 323.335 774.335 322.607 774.153 321.979C775.108 322.676 778.687 327.641 778.882 327.656L777.435 323.382C778.034 323.543 778.456 324.642 778.776 325.207C780.914 328.965 781.003 333.483 779.897 337.653C779.121 340.58 777.336 343.351 774.575 344.747C772.14 345.977 769.36 345.851 766.846 344.923C762.651 343.373 759.692 340.186 758.013 336.115C757.893 335.823 757.778 335.528 757.661 335.235L756.243 335.794Z"/>
	<path fill="#3C8796" d="M770.841 319.899C773.077 319.874 775.045 320.085 777.234 320.543C776.057 320.742 774.954 320.949 773.809 321.296L774.153 321.979C774.335 322.607 774.438 323.335 774.836 323.858C774.054 324.73 773.671 325.376 773.264 326.474L772.854 326.771C771.783 325.203 770.896 324.076 768.835 323.852C767.099 323.662 765.804 324.507 764.657 325.697C762.745 327.681 762.559 329.466 762.664 332.114L761.876 332.014C761.164 330.86 761.15 329.872 761.453 328.568C761.584 328.004 761.755 327.445 761.923 326.891C761.068 327.04 761.178 326.873 760.601 327.785C759.568 329.413 759.059 332.941 758.913 334.874C758.583 332.369 758.748 330.042 759.759 327.689C761.721 323.123 766.532 321.441 770.841 319.899Z"/>
	<path fill="#FAF3DD" d="M762.664 332.114C762.559 329.466 762.745 327.681 764.657 325.697C765.804 324.507 767.099 323.662 768.835 323.852C770.896 324.076 771.783 325.203 772.854 326.771C771.97 328.925 770.976 331.599 768.852 332.844C767.41 333.69 765.604 333.448 764.138 332.851C763.549 332.611 763.201 332.406 762.664 332.114Z"/>
	<path fill="#5494A0" d="M772.854 326.771L773.264 326.474C773.671 325.376 774.054 324.73 774.836 323.858C776.944 327.29 778.982 330.449 778.005 334.672C777.426 337.195 775.78 339.341 773.493 340.554C770.93 341.92 767.967 341.995 765.262 341.006C762.347 339.94 760.949 338.431 759.472 335.809C759.293 335.493 759.1 335.186 758.913 334.874C759.059 332.941 759.568 329.413 760.601 327.785C761.178 326.873 761.068 327.04 761.923 326.891C761.755 327.445 761.584 328.004 761.453 328.568C761.15 329.872 761.164 330.86 761.876 332.014L762.664 332.114C763.201 332.406 763.549 332.611 764.138 332.851C765.604 333.448 767.41 333.69 768.852 332.844C770.976 331.599 771.97 328.925 772.854 326.771Z"/>
	<path fill="#3C8796" d="M725.236 410.876C726.352 408.448 727.789 406.151 729.723 404.291C733.426 400.733 737.78 400.338 742.637 400.372C745.863 401.22 748.364 403.542 750.752 405.749L752.13 407.017C753.892 410.499 754.791 413.891 753.408 417.715C751.806 422.146 747.325 425.831 743.086 427.672C741.784 428.238 740.314 428.58 739.054 429.199C736.466 429.292 732.861 427.373 730.602 426.14C728.882 425.108 727.256 423.482 726.219 421.761C724.054 418.166 724.377 414.763 725.236 410.876ZM736.686 404.026C733.775 405.433 731.774 406.826 730.738 410.025C730.286 411.42 730.124 412.955 731.003 414.237C731.765 415.349 732.967 415.84 734.271 415.919C734.973 415.962 735.69 415.893 736.385 415.798C739.282 414.418 740.973 413.386 742.077 410.258C742.54 408.948 742.706 407.574 742.056 406.28C741.549 405.271 740.344 404.386 739.232 404.162C738.416 403.997 737.516 404.024 736.686 404.026Z"/>
	<path fill="#FAF3DD" d="M736.385 415.798C735.69 415.893 734.973 415.962 734.271 415.919C732.967 415.84 731.765 415.349 731.003 414.237C730.124 412.955 730.286 411.42 730.738 410.025C731.774 406.826 733.775 405.433 736.686 404.026C737.516 404.024 738.416 403.997 739.232 404.162C740.344 404.386 741.549 405.271 742.056 406.28C742.706 407.574 742.54 408.948 742.077 410.258C740.973 413.386 739.282 414.418 736.385 415.798Z"/>
	<path fill="#B8F2E6" d="M466.692 522.352C475.149 515.054 482.373 506.361 490.211 498.426C505.599 482.847 523.361 469.252 542.971 459.444C556.808 452.438 571.201 446.589 586.003 441.957C622.292 430.692 659.998 424.626 697.021 416.42C700.175 415.721 722.505 410.141 723.51 410.301C724.109 410.396 724.661 410.685 725.236 410.876C724.377 414.763 724.054 418.166 726.219 421.761C727.256 423.482 728.882 425.108 730.602 426.14C724.643 440.359 718.783 455.856 715.087 470.814C708.407 475.032 700.469 479.213 694.814 484.774C694.643 484.766 694.47 484.772 694.301 484.748C688.183 483.893 684.544 478.117 676.07 483.964C672.853 486.209 670.685 489.664 670.063 493.538C669.641 496.216 670.054 498.865 670.967 501.389C666.063 505.753 661.14 510.193 656.02 514.301L655.689 514.056C652.757 514.363 650.387 519.3 647.787 520.801C641.116 524.653 615.592 549.312 612.54 549.799C610.765 549.12 609.458 548.672 607.516 548.808C604.93 548.99 599.136 549.796 597.137 551.324C595.554 552.534 594.283 555.097 592.903 556.671C589.418 555.875 585.995 556.145 582.472 555.73C575.238 554.879 567.709 553.086 560.763 550.943C550.908 547.904 541.645 543.576 532.063 539.839C510.801 531.546 489.469 524.854 466.692 522.352Z"/>
	<defs>
		<linearGradient id="gradient_0" gradientUnits="userSpaceOnUse" x1="541.36133" y1="815.48187" x2="482.1795" y2="528.71606">
			<stop offset="0" stop-color="#FFFEB0"/>
			<stop offset="1" stop-color="#FBFEF8"/>
		</linearGradient>
	</defs>
	<path fill="url(#gradient_0)" d="M624.639 554.434L625.696 556.199C626.121 556.401 626.505 556.74 626.971 556.803C630.039 557.219 650.933 551.995 656.089 550.951C719.515 538.248 782.724 524.483 845.689 509.66C852.073 508.161 858.46 505.686 864.493 504.265C867.416 503.577 870.444 503.258 873.385 502.609C883.602 500.356 893.789 497.719 903.919 495.1C911.197 493.219 918.469 491.589 925.243 488.247C949.381 476.263 972.133 461.672 993.095 444.735C997.988 440.813 1003.02 436.732 1007.57 432.41C1011.11 429.041 1020.64 416.908 1024 415.854L1024 423.856C1020.17 430.171 1017.15 436.993 1013.11 443.174C1002.49 459.437 990.745 473.626 977.664 487.951C970.549 495.743 963.785 503.665 956.182 511.009C943.277 523.471 928.795 534.418 914.371 545.044C906.461 550.945 898.326 556.539 889.985 561.814C885.25 564.751 879.733 566.985 875.463 570.568C852.211 563.997 829.007 558.239 805.272 553.655C797.458 552.147 789.145 549.982 781.198 549.662C777.868 549.528 774.346 549.797 771.392 551.463C768.178 553.276 742.659 578.888 741.722 582.066C741.682 582.199 741.68 582.341 741.659 582.478C734.918 588.052 729.699 595.45 722.694 600.573C718.014 603.995 712.554 606.723 707.577 609.714C691.663 619.279 674.906 628.373 660.332 639.911C650.306 647.848 627.542 671.872 618.381 675.798C605.954 681.123 583.978 676.325 569.774 677.958C548.864 680.361 523.683 698.398 504.854 708.334C500.493 710.635 492.686 713.078 489.149 716.132C482.566 719.146 475.903 721.985 469.332 725.023C456.705 713.526 444.437 700.307 428.703 693.099L427.406 692.822C413.689 683.266 399.042 677.189 382.035 680.332C375.125 681.609 368.376 684.283 361.982 687.13C355.321 690.095 348.611 693.173 342.503 697.179C334.947 702.135 328.08 708.197 321.162 713.987C309.894 723.416 298.223 733.105 285.651 740.769C255.698 759.029 206.658 768.512 186.707 798.019C184.836 800.787 182.094 805.487 181.914 808.808C164.991 812.774 148.85 819.543 132.815 826.153C126 828.963 118.729 831.56 112.299 835.159C109.234 836.874 106.599 839.019 103.924 841.276C97.5759 846.702 91.2717 852.178 85.0117 857.704C78.7406 863.281 72.6693 869.413 65.2141 873.415C63.6533 873.935 61.758 874.446 60.459 875.48C56.8996 878.312 53.6421 882.728 50.5829 886.143C41.4149 896.378 30.3182 910.275 19.6714 918.515C14.1202 922.811 6.49258 926.099 0 928.743L0 809.787C7.8186 812.038 15.8222 813.821 23.5195 816.449C25.8902 820.966 28.6121 825.026 33.7818 826.628C36.9002 827.594 40.1097 827.329 43.0817 825.991C46.4162 824.769 49.214 822.465 50.9036 819.319C52.7115 815.953 52.9675 812.227 51.9617 808.576C55.6526 806.859 68.0913 798.754 70.7123 795.869L71.7659 795.584C75.2775 797.162 78.7173 798.016 82.604 797.749C86.0655 797.511 89.8487 796.255 92.1213 793.505C95.1197 789.877 95.3968 784.491 95.0815 780.008C103.255 772.065 143.054 754.208 155.643 748.134C158.891 750.665 161.255 752.513 165.626 751.97C165.891 751.937 166.154 751.895 166.418 751.857C168.201 751.514 169.759 751.045 171.364 750.174C176.032 747.642 177.842 743.583 179.225 738.739C185.576 735.229 193.554 732.962 199.368 728.8C204.468 725.147 231.091 687.799 236.3 680.194C240.653 680.969 245.355 681.583 249.545 679.728C251.812 678.725 253.582 676.988 254.438 674.661C275.455 675.046 297.012 674.677 317.96 676.687C318.266 677.46 318.599 678.232 318.872 679.018C321.128 685.422 327.541 689.389 334.278 688.55C341.016 687.71 346.259 682.29 346.875 675.528C348.591 671.821 423.72 648.769 434.06 642.797C435.029 643.684 436.041 644.616 437.158 645.317C440.463 647.39 444.544 648.454 448.394 647.488C453.913 646.104 457.149 641.956 460.049 637.417C467.492 635.393 475.929 635.048 483.615 634.172C494.615 632.918 506.898 630.79 517.962 631.137C518.511 632.614 519.928 634.105 521.044 635.179C523.697 637.731 527.011 638.801 530.665 638.614C535.02 638.407 539.095 636.409 541.924 633.092C544.492 630.119 545.76 626.24 545.446 622.324C549.619 614.033 588.007 584.822 597.418 575.37C597.764 575.586 598.113 575.796 598.465 576C601.913 577.988 605.384 578.423 609.213 577.237C613.653 575.861 617.687 572.326 619.759 568.18C621.362 564.973 621.997 561.194 620.812 557.776C621.72 556.47 623.392 555.429 624.639 554.434Z"/>
	<path fill="#D4E09B" d="M875.463 570.568C879.733 566.985 885.25 564.751 889.985 561.814C898.326 556.539 906.461 550.945 914.371 545.044C928.795 534.418 943.277 523.471 956.182 511.009C963.785 503.665 970.549 495.743 977.664 487.951C990.745 473.626 1002.49 459.437 1013.11 443.174C1017.15 436.993 1020.17 430.171 1024 423.856L1024 500.48C1018.24 502.33 1009.69 503.356 1004.67 506.476C1001.71 508.313 999.364 511.986 996.596 514.259C980.58 527.411 965.621 541.843 950.65 556.148C945.702 560.875 940.274 565.052 935.379 569.847C929.58 575.528 924.114 581.6 918.333 587.26C904.216 580.6 890.384 575.194 875.463 570.568Z"/>
	<path fill="#5494A0" d="M730.602 426.14C732.861 427.373 736.466 429.292 739.054 429.199C739.364 435.88 725.752 468.564 722.694 477.521C715.609 483.283 705.963 486.069 699.375 492.448C698.226 489.68 696.471 487.255 694.814 484.774C700.469 479.213 708.407 475.032 715.087 470.814C718.783 455.856 724.643 440.359 730.602 426.14Z"/>
	<path fill="#3C8796" d="M670.967 501.389C670.054 498.865 669.641 496.216 670.063 493.538C670.685 489.664 672.853 486.209 676.07 483.964C684.544 478.117 688.183 483.893 694.301 484.748C694.47 484.772 694.643 484.766 694.814 484.774C696.471 487.255 698.226 489.68 699.375 492.448C699.96 496.367 699.372 499.885 697.05 503.17C694.334 507.011 689.857 509.634 685.236 510.387C682.636 510.81 680.266 510.355 677.82 509.469C675.114 508.408 672.618 503.737 670.967 501.389ZM679.396 486.14C677.457 487.678 675.968 488.812 675.731 491.441C675.592 492.987 675.967 494.675 677.071 495.821C678.032 496.819 679.606 497.487 680.997 497.477C681.942 497.471 682.9 497.088 683.773 496.774C685.705 495.101 688.06 493.19 688.137 490.398C688.173 489.097 687.636 488.108 686.674 487.274C684.673 485.538 681.795 485.853 679.396 486.14Z"/>
	<path fill="#FAF3DD" d="M683.773 496.774C682.9 497.088 681.942 497.471 680.997 497.477C679.606 497.487 678.032 496.819 677.071 495.821C675.967 494.675 675.592 492.987 675.731 491.441C675.968 488.812 677.457 487.678 679.396 486.14C681.795 485.853 684.673 485.538 686.674 487.274C687.636 488.108 688.173 489.097 688.137 490.398C688.06 493.19 685.705 495.101 683.773 496.774Z"/>
	<path fill="#B8F2E6" d="M0 544.561C4.89019 541.417 9.77082 538.076 14.9203 535.371C42.2992 520.989 75.2897 513.307 106.104 512.06C121.867 511.422 137.382 512.469 153.053 514.001C162.665 514.941 172.169 516.669 181.773 517.629C192.68 518.719 204.434 518.864 215.392 518.166C242.355 516.449 270.24 507.189 294.3 495.223C268.462 519.728 234.067 535.917 198.895 541.401C182.458 543.964 166.026 544.245 149.448 544.707L106.419 545.963C87.564 546.416 66.649 546.356 48.6052 552.386C31.7948 558.003 14.2299 570.993 0 581.54L0 544.561Z"/>
	<path fill="#FAF3DD" d="M918.333 587.26C924.114 581.6 929.58 575.528 935.379 569.847C940.274 565.052 945.702 560.875 950.65 556.148C965.621 541.843 980.58 527.411 996.596 514.259C999.364 511.986 1001.71 508.313 1004.67 506.476C1009.69 503.356 1018.24 502.33 1024 500.48L1024 553.241C1017.58 557.81 1011.54 562.914 1005.32 567.749C993.529 576.912 981.5 586.022 969.27 594.58C963.952 598.302 956.146 599.832 951.635 604.303L918.333 587.26Z"/>
	<path fill="#5494A0" d="M670.967 501.389C672.618 503.737 675.114 508.408 677.82 509.469C660.268 524.652 642.242 539.304 624.639 554.434C623.392 555.429 621.72 556.47 620.812 557.776C618.778 555.069 616.293 553.033 613.57 551.061C626.985 538.039 642.232 526.948 656.02 514.301C661.14 510.193 666.063 505.753 670.967 501.389Z"/>
	<path fill="#3C8796" d="M592.249 563.931C592.343 562.468 592.396 560.92 592.792 559.503C593.732 556.143 596.325 553.119 599.371 551.48C604.154 548.907 608.665 549.451 613.57 551.061C616.293 553.033 618.778 555.069 620.812 557.776C621.997 561.194 621.362 564.973 619.759 568.18C617.687 572.326 613.653 575.861 609.213 577.237C605.384 578.423 601.913 577.988 598.465 576C598.113 575.796 597.764 575.586 597.418 575.37C594.611 572.289 592.324 568.165 592.249 563.931ZM600.911 554.047C598.947 555.551 597.406 556.875 597.126 559.47C597.005 560.6 597.221 561.807 597.886 562.749C598.825 564.081 600.637 564.885 602.242 564.969C602.931 565.006 603.629 564.924 604.313 564.863C606.335 563.58 607.917 562.377 608.493 559.934C608.761 558.799 608.642 557.598 608.073 556.57C607.381 555.321 606.033 554.319 604.629 554.04C603.448 553.805 602.107 553.968 600.911 554.047Z"/>
	<path fill="#FAF3DD" d="M741.659 582.478C741.68 582.341 741.682 582.199 741.722 582.066C742.659 578.888 768.178 553.276 771.392 551.463C774.346 549.797 777.868 549.528 781.198 549.662C789.145 549.982 797.458 552.147 805.272 553.655C829.007 558.239 852.211 563.997 875.463 570.568C890.384 575.194 904.216 580.6 918.333 587.26L951.635 604.303C954.422 605.758 958.024 607.172 960.473 609.136C960.379 624.778 960.621 641.885 964.016 657.226C966.368 667.854 971.501 678.113 975.439 688.234C984.179 710.696 993.194 732.969 1001.62 755.555C1003.95 761.824 1011.53 776.036 1012.52 780.618L1009.61 780.442C1000.84 779.089 991.742 779.728 983.121 777.468C969.19 772.43 962.326 755.073 946.26 750.351C934.221 746.813 909.809 761.546 898.857 767.344C894.896 769.441 892.223 770.582 890.84 775.055C878.467 775.747 866.202 776.432 853.848 777.504L850.974 775.668C821.501 751.832 799.991 721.387 775.732 692.686C771.047 686.793 766.091 681.509 759.97 677.079C756.856 675.364 752.573 674.82 749.11 675.702C743.013 677.255 736.571 684.312 732.015 688.463C703.45 714.485 669.063 753.195 627.851 754.491C618.369 754.789 608.702 753.831 600.255 749.225C583.242 739.951 569.019 724.12 549.38 719.855C536.478 723.435 525.347 734.711 514.661 742.485C504.194 750.1 493.714 757.668 482.661 764.42C459.381 778.954 435.197 791.988 410.257 803.442C391.303 812.219 371.822 819.804 352.98 828.817C351.073 830.052 348.69 831.256 347.451 833.213C343.908 831.868 340.41 829.293 337.07 827.449C332.48 824.916 327.742 822.681 323.009 820.431L321.504 819.867C316.781 817.704 311.886 815.847 307.078 813.88C300.292 810.905 293.07 808.596 286.032 806.282C294.351 801.113 310.827 801.854 320.294 797.144C335.279 789.689 346.476 760.644 359.015 747.763C363.96 742.587 369.898 738.461 376.475 735.632C402.916 724.266 410.673 750.464 420.171 748.846C423.727 748.24 430.783 737.772 432.565 734.612C438.314 724.414 436.256 712.328 433.184 701.617C433.329 701.753 433.475 701.887 433.617 702.024C438.289 706.526 446.971 719.103 448.834 725.447L449.149 724.89C447.093 719.716 444.024 714.833 441.265 710.002C442.138 709.051 443.147 708.936 444.348 708.661C445.157 707.297 444.334 706.271 445.421 705.318C445.796 705.345 446.195 705.263 446.546 705.398C448.589 706.183 453.03 711.189 454.916 712.958C458.493 716.316 482.778 739.254 484.342 739.634C485.594 739.557 486.75 739.432 487.979 739.764L486.662 740.195C488.469 743.1 493.894 745.878 497.11 746.935C507.094 743.137 514.147 734.172 521.505 726.873C526.266 722.149 531.194 717.443 536.284 713.078C538.857 710.873 542.297 708.057 545.702 707.499C554.325 706.087 573.46 715.52 581.237 719.526C588.36 723.195 595.871 728.101 603.487 730.537C607.146 731.707 613.124 731.08 617.07 731.369C614.666 731.382 610.069 730.889 607.997 731.858C611.756 734.694 628.228 738.663 633.368 739.946C635.793 740.552 639.027 739.745 641.441 739.325C659.637 736.16 675.705 722.621 688.268 709.683C693.462 704.334 697.68 697.776 703.524 693.107C713.925 684.797 726.426 679.236 737.919 672.658C749.449 666.058 760.318 657.237 763.932 643.954C766.762 647.765 769.559 651.731 772.815 655.196C775.752 658.32 779.081 661.051 782.079 664.12C789.404 671.619 796.784 678.92 804.262 686.257C805.963 681.182 807.389 674.224 807.303 668.885C807.175 660.931 801.527 641.319 799.351 632.99C798.634 630.244 798.635 627.414 798.032 624.654C794.048 606.428 791.33 593.44 791.745 574.5C787.081 574.805 781.306 576.806 776.787 576.001C770.655 574.909 767.978 569.953 759.293 571.305C756.655 571.715 753.529 572.969 751.892 575.13C748.288 577.34 744.996 579.895 741.659 582.478ZM812.039 592.991C813.504 595.12 814.901 597.296 816.226 599.515C818.743 605.651 822.006 611.555 824.065 617.861C830.77 638.389 831.17 664.441 831.609 686.01C831.69 689.972 830.898 705.015 831.64 707.191L832.116 706.551C832.054 706.268 831.978 705.987 831.931 705.701C831.73 704.467 834.694 692.356 835.043 689.98C836.191 682.605 837.092 675.194 837.745 667.759C838.334 661.232 838.116 653.806 840.123 647.557C842.419 640.407 847.399 633.849 851.445 627.567C850.07 626.011 848.741 624.314 847.081 623.055C842.687 616.626 819.043 597.624 812.039 592.991Z"/>
	<path fill="#D4E09B" d="M951.635 604.303C956.146 599.832 963.952 598.302 969.27 594.58C981.5 586.022 993.529 576.912 1005.32 567.749C1011.54 562.914 1017.58 557.81 1024 553.241L1024 639.594C1013.48 634.524 1002.17 630.892 991.545 625.951C981.932 621.483 973.035 615.83 963.611 611.092C962.599 610.381 961.534 609.769 960.473 609.136C958.024 607.172 954.422 605.758 951.635 604.303Z"/>
	<path fill="#FAF3DD" d="M604.313 564.863C603.629 564.924 602.931 565.006 602.242 564.969C600.637 564.885 598.825 564.081 597.886 562.749C597.221 561.807 597.005 560.6 597.126 559.47C597.406 556.875 598.947 555.551 600.911 554.047C602.107 553.968 603.448 553.805 604.629 554.04C606.033 554.319 607.381 555.321 608.073 556.57C608.642 557.598 608.761 558.799 608.493 559.934C607.917 562.377 606.335 563.58 604.313 564.863Z"/>
	<path fill="#5494A0" d="M540.367 613.305C551.345 601.603 563.885 590.757 575.834 580.046C580.841 575.557 586.607 571.139 591.105 566.157C591.825 565.36 592.024 564.949 592.249 563.931C592.324 568.165 594.611 572.289 597.418 575.37C588.007 584.822 549.619 614.033 545.446 622.324C544.057 619.061 542.397 616.209 540.367 613.305Z"/>
	<path fill="#FAF3DD" d="M751.892 575.13C753.529 572.969 756.655 571.715 759.293 571.305C767.978 569.953 770.655 574.909 776.787 576.001C781.306 576.806 787.081 574.805 791.745 574.5C791.33 593.44 794.048 606.428 798.032 624.654C798.635 627.414 798.634 630.244 799.351 632.99C801.527 641.319 807.175 660.931 807.303 668.885C807.389 674.224 805.963 681.182 804.262 686.257C796.784 678.92 789.404 671.619 782.079 664.12C779.081 661.051 775.752 658.32 772.815 655.196C769.559 651.731 766.762 647.765 763.932 643.954C760.318 657.237 749.449 666.058 737.919 672.658C726.426 679.236 713.925 684.797 703.524 693.107C697.68 697.776 693.462 704.334 688.268 709.683C675.705 722.621 659.637 736.16 641.441 739.325C639.027 739.745 635.793 740.552 633.368 739.946C628.228 738.663 611.756 734.694 607.997 731.858C610.069 730.889 614.666 731.382 617.07 731.369C613.124 731.08 607.146 731.707 603.487 730.537C595.871 728.101 588.36 723.195 581.237 719.526C573.46 715.52 554.325 706.087 545.702 707.499C542.297 708.057 538.857 710.873 536.284 713.078C531.194 717.443 526.266 722.149 521.505 726.873C514.147 734.172 507.094 743.137 497.11 746.935C493.894 745.878 488.469 743.1 486.662 740.195L487.979 739.764C486.75 739.432 485.594 739.557 484.342 739.634C481.78 735.236 473.3 728.627 469.332 725.023C475.903 721.985 482.566 719.146 489.149 716.132C500.587 716.114 517.246 707.28 527.131 701.586C539.606 694.399 556.072 682.025 571.308 685.581C576.318 686.75 580.836 689.488 585.068 692.317C592.015 696.961 598.536 702.228 605.483 706.88C611.361 710.815 618.23 715.045 625.298 716.326C630.164 717.21 635.186 716.452 639.574 714.171C660.962 703.1 656.28 671.793 672.851 656.035C688.662 641 711.538 643.719 726.203 632.667C735.914 625.349 741.591 610.78 749.286 601.287C756.998 591.773 767.508 584.797 777.583 578.025C774.683 576.317 771.69 574.363 768.529 573.191C762.478 570.948 757.453 572.492 751.892 575.13Z"/>
	<path fill="#FAF3DD" d="M741.659 582.478C744.996 579.895 748.288 577.34 751.892 575.13C757.453 572.492 762.478 570.948 768.529 573.191C771.69 574.363 774.683 576.317 777.583 578.025C767.508 584.797 756.998 591.773 749.286 601.287C741.591 610.78 735.914 625.349 726.203 632.667C711.538 643.719 688.662 641 672.851 656.035C656.28 671.793 660.962 703.1 639.574 714.171C635.186 716.452 630.164 717.21 625.298 716.326C618.23 715.045 611.361 710.815 605.483 706.88C598.536 702.228 592.015 696.961 585.068 692.317C580.836 689.488 576.318 686.75 571.308 685.581C556.072 682.025 539.606 694.399 527.131 701.586C517.246 707.28 500.587 716.114 489.149 716.132C492.686 713.078 500.493 710.635 504.854 708.334C523.683 698.398 548.864 680.361 569.774 677.958C583.978 676.325 605.954 681.123 618.381 675.798C627.542 671.872 650.306 647.848 660.332 639.911C674.906 628.373 691.663 619.279 707.577 609.714C712.554 606.723 718.014 603.995 722.694 600.573C729.699 595.45 734.918 588.052 741.659 582.478Z"/>
	<path fill="#C4C1B7" d="M816.226 599.515C814.901 597.296 813.504 595.12 812.039 592.991C819.043 597.624 842.687 616.626 847.081 623.055C848.741 624.314 850.07 626.011 851.445 627.567C847.399 633.849 842.419 640.407 840.123 647.557C838.116 653.806 838.334 661.232 837.745 667.759C837.092 675.194 836.191 682.605 835.043 689.98C834.694 692.356 831.73 704.467 831.931 705.701C831.978 705.987 832.054 706.268 832.116 706.551L831.64 707.191C830.898 705.015 831.69 689.972 831.609 686.01C831.17 664.441 830.77 638.389 824.065 617.861C822.006 611.555 818.743 605.651 816.226 599.515Z"/>
	<path fill="#C4C1B7" d="M1012.52 780.618C1011.53 776.036 1003.95 761.824 1001.62 755.555C993.194 732.969 984.179 710.696 975.439 688.234C971.501 678.113 966.368 667.854 964.016 657.226C960.621 641.885 960.379 624.778 960.473 609.136C961.534 609.769 962.599 610.381 963.611 611.092C963.675 611.267 963.741 611.441 963.803 611.617C967.345 621.65 968.526 632.625 971.892 642.817C980.911 670.123 993.098 693.812 1004.18 719.962C1009.11 731.581 1013.37 743.418 1018.58 754.926C1020.28 758.673 1021.84 762.706 1024 766.209L1024 781.24C1020.18 781.02 1016.3 781.279 1012.52 780.618Z"/>
	<path fill="#3C8796" d="M517.137 621.953C517.348 621.193 517.55 620.45 517.862 619.724C519.367 616.213 521.707 612.701 525.475 611.421C529.391 610.092 533.973 610.62 537.615 612.453C538.411 612.853 538.963 613.215 539.868 613.309C540.033 613.326 540.2 613.306 540.367 613.305C542.397 616.209 544.057 619.061 545.446 622.324C545.76 626.24 544.492 630.119 541.924 633.092C539.095 636.409 535.02 638.407 530.665 638.614C527.011 638.801 523.697 637.731 521.044 635.179C519.928 634.105 518.511 632.614 517.962 631.137C518.825 628.526 517.542 624.638 517.137 621.953ZM526.603 615.022C524.579 615.996 522.931 616.792 522.131 619.018C521.673 620.292 521.677 621.688 522.287 622.917C523.111 624.577 524.709 625.549 526.484 625.895C527.25 626.044 527.258 626.03 527.949 626.092C530.002 625.225 531.299 624.473 532.224 622.368C532.948 620.72 533.11 618.865 532.204 617.243C531.572 616.111 530.565 615.275 529.283 615.031C528.461 614.874 527.442 614.985 526.603 615.022Z"/>
	<path fill="#FAF3DD" d="M963.611 611.092C973.035 615.83 981.932 621.483 991.545 625.951C1002.17 630.892 1013.48 634.524 1024 639.594L1024 766.209C1021.84 762.706 1020.28 758.673 1018.58 754.926C1013.37 743.418 1009.11 731.581 1004.18 719.962C993.098 693.812 980.911 670.123 971.892 642.817C968.526 632.625 967.345 621.65 963.803 611.617C963.741 611.441 963.675 611.267 963.611 611.092Z"/>
	<path fill="#FAF3DD" d="M527.949 626.092C527.258 626.03 527.25 626.044 526.484 625.895C524.709 625.549 523.111 624.577 522.287 622.917C521.677 621.688 521.673 620.292 522.131 619.018C522.931 616.792 524.579 615.996 526.603 615.022C527.442 614.985 528.461 614.874 529.283 615.031C530.565 615.275 531.572 616.111 532.204 617.243C533.11 618.865 532.948 620.72 532.224 622.368C531.299 624.473 530.002 625.225 527.949 626.092Z"/>
	<path fill="#3C8796" d="M430.644 629.516C430.73 629.215 430.802 628.91 430.904 628.614C432.261 624.649 434.819 621.474 438.605 619.624C442.624 617.66 447.803 617.328 451.976 619.009C456.281 620.744 458.244 623.835 459.964 627.968C460.673 631.473 460.595 633.873 460.049 637.417C457.149 641.956 453.913 646.104 448.394 647.488C444.544 648.454 440.463 647.39 437.158 645.317C436.041 644.616 435.029 643.684 434.06 642.797C433.366 637.805 430.691 636.921 430.644 629.516ZM440.589 621.974C438.166 623.375 436.244 624.761 435.416 627.564C435.041 628.835 435.081 630.189 435.758 631.362C436.397 632.469 437.686 633.337 438.953 633.529C440.111 633.705 441.368 633.619 442.536 633.567C444.523 632.592 446.327 631.831 447.259 629.668C447.897 628.19 447.923 626.455 447.09 625.046C446.144 623.444 444.41 622.469 442.62 622.154C441.931 622.032 441.293 622.006 440.589 621.974Z"/>
	<path fill="#FAF3DD" d="M442.536 633.567C441.368 633.619 440.111 633.705 438.953 633.529C437.686 633.337 436.397 632.469 435.758 631.362C435.081 630.189 435.041 628.835 435.416 627.564C436.244 624.761 438.166 623.375 440.589 621.974C441.293 622.006 441.931 622.032 442.62 622.154C444.41 622.469 446.144 623.444 447.09 625.046C447.923 626.455 447.897 628.19 447.259 629.668C446.327 631.831 444.523 632.592 442.536 633.567Z"/>
	<path fill="#5494A0" d="M459.964 627.968C475.37 624.542 501.332 621.618 517.137 621.953C517.542 624.638 518.825 628.526 517.962 631.137C506.898 630.79 494.615 632.918 483.615 634.172C475.929 635.048 467.492 635.393 460.049 637.417C460.595 633.873 460.673 631.473 459.964 627.968Z"/>
	<path fill="#5494A0" d="M343.869 665.324C347.688 662.973 353.309 661.565 357.529 659.941C376.166 652.832 394.946 646.106 413.858 639.768C417.091 638.69 427.503 636.183 429.706 634.478C430.67 633.731 430.543 630.763 430.644 629.516C430.691 636.921 433.366 637.805 434.06 642.797C423.72 648.769 348.591 671.821 346.875 675.528C347.208 671.869 346.133 668.219 343.869 665.324Z"/>
	<path fill="#3C8796" d="M243.353 651.237L242.514 651.783C243.808 652.507 245.303 652.398 246.704 652.823C250.593 654.002 254.062 658.668 255.129 662.424C256.039 665.632 255.797 669.009 254.074 671.905C252.264 674.947 249.125 677.169 245.705 678.02C242.183 678.896 237.951 678.328 234.86 676.383C233.424 675.48 232.182 674.275 231.025 673.047C229.555 668.534 228.224 664.327 230.424 659.752C231.76 656.974 237.186 653.109 237.155 652.628C239.198 651.51 241.014 650.93 243.353 651.237ZM240.292 656.204C237.305 656.359 234.96 658.821 234.95 661.812C234.941 664.803 237.27 667.28 240.256 667.454C242.34 667.576 244.319 666.536 245.401 664.751C246.483 662.967 246.49 660.731 245.42 658.94C244.349 657.149 242.376 656.096 240.292 656.204Z"/>
	<path fill="#204E5E" d="M231.025 673.047C232.182 674.275 233.424 675.48 234.86 676.383C237.951 678.328 242.183 678.896 245.705 678.02C249.125 677.169 252.264 674.947 254.074 671.905C255.797 669.009 256.039 665.632 255.129 662.424C254.062 658.668 250.593 654.002 246.704 652.823C245.303 652.398 243.808 652.507 242.514 651.783L243.353 651.237C247.317 651.658 250.549 652.857 253.128 656.033C255.279 658.682 256.389 661.701 257.239 664.955C256.964 668.357 254.398 672.012 254.438 674.661C253.582 676.988 251.812 678.725 249.545 679.728C245.355 681.583 240.653 680.969 236.3 680.194C231.091 687.799 204.468 725.147 199.368 728.8C193.554 732.962 185.576 735.229 179.225 738.739C177.842 743.583 176.032 747.642 171.364 750.174C169.759 751.045 168.201 751.514 166.418 751.857L165.572 751.38L165.731 750.931C168.066 750.513 169.528 749.94 171.492 748.611C174.342 746.683 176.372 744.488 177.036 741.059L177.275 740.574C177.385 740.355 177.506 740.14 177.609 739.917C180.368 733.971 194.732 732.259 199.832 727.24C204.93 722.222 209.195 715.455 213.5 709.714C221.196 699.453 229.009 689.332 236.259 678.745C233.368 676.884 231.405 674.986 229.455 672.142C229.358 671.915 229.256 671.691 229.164 671.463C227.729 667.875 227.522 663.355 229.095 659.797C230.728 656.103 233.53 654.125 237.155 652.628C237.186 653.109 231.76 656.974 230.424 659.752C228.224 664.327 229.555 668.534 231.025 673.047Z"/>
	<path fill="#FAF3DD" d="M240.256 667.454C237.27 667.28 234.941 664.803 234.95 661.812C234.96 658.821 237.305 656.359 240.292 656.204C242.376 656.096 244.349 657.149 245.42 658.94C246.49 660.731 246.483 662.967 245.401 664.751C244.319 666.536 242.34 667.576 240.256 667.454Z"/>
	<path fill="#3C8796" d="M332.5 659.778C336.941 659.78 341.134 661.826 343.869 665.324C346.133 668.219 347.208 671.869 346.875 675.528C346.259 682.29 341.016 687.71 334.278 688.55C327.541 689.389 321.128 685.422 318.872 679.018C317.527 675.201 317.846 670.995 319.75 667.424C322.261 662.715 327.164 659.775 332.5 659.778ZM328.556 663.497C326.28 664.601 324.703 665.673 323.934 668.198C323.483 669.681 323.616 671.436 324.486 672.754C325.661 674.534 327.224 675.213 329.233 675.656C331.377 674.953 332.828 674.447 333.959 672.353C334.752 670.884 335.119 669.103 334.642 667.472C334.21 665.974 333.162 664.731 331.759 664.052C330.839 663.603 329.562 663.526 328.556 663.497Z"/>
	<path fill="#FAF3DD" d="M329.233 675.656C327.224 675.213 325.661 674.534 324.486 672.754C323.616 671.436 323.483 669.681 323.934 668.198C324.703 665.673 326.28 664.601 328.556 663.497C329.562 663.526 330.839 663.603 331.759 664.052C333.162 664.731 334.21 665.974 334.642 667.472C335.119 669.103 334.752 670.884 333.959 672.353C332.828 674.447 331.377 674.953 329.233 675.656Z"/>
	<path fill="#5494A0" d="M257.239 664.955C271.777 664.662 286.271 665.643 300.774 666.47C307.082 666.829 313.47 666.754 319.75 667.424C317.846 670.995 317.527 675.201 318.872 679.018C318.599 678.232 318.266 677.46 317.96 676.687C297.012 674.677 275.455 675.046 254.438 674.661C254.398 672.012 256.964 668.357 257.239 664.955Z"/>
	<path fill="#5494A0" d="M175.566 727.674C181.657 726.437 188.141 724.112 193.115 720.289C198.042 716.501 204.383 705.729 208.307 700.309C215.158 690.846 222.032 681.157 229.455 672.142C231.405 674.986 233.368 676.884 236.259 678.745C229.009 689.332 221.196 699.453 213.5 709.714C209.195 715.455 204.93 722.222 199.832 727.24C194.732 732.259 180.368 733.971 177.609 739.917C177.506 740.14 177.385 740.355 177.275 740.574L177.036 741.059L176.826 740.795C178.506 733.786 176.875 734.521 175.691 728.367C175.647 728.136 175.608 727.905 175.566 727.674Z"/>
	<path fill="#C38134" d="M759.97 677.079C759.084 692.308 753.26 701.042 744.011 712.771C740.778 716.872 737.678 720.576 735.613 725.42C735.781 725.546 735.947 725.676 736.117 725.799C743.148 730.893 752.158 731.21 753.93 741.302C755.766 751.758 755.522 770.091 755.741 781.199C755.947 791.69 756.688 802.118 757.028 812.592C761.92 812.461 771.81 811.2 775.649 814.553C781.366 819.545 787.231 850.245 788.996 859.001C779.428 847.541 770.036 834.216 758.094 825.107C753.961 821.955 749.038 820.023 744.853 816.995C741.551 799.215 742.897 769.679 737.312 754.596C735.845 750.636 733.514 747.004 729.957 744.624C725.577 741.693 719.605 741.09 714.548 742.303C707.401 744.017 702.157 749.886 698.618 756.03C687.097 776.03 689.113 807.566 679.452 829.94C675.191 839.807 668.102 849.105 662.391 858.247C647.991 881.301 632.501 904.626 621.779 929.668C638.556 927.306 657.905 926.335 673.299 918.976C690.972 910.527 707.316 886.298 724.923 881.771C728.441 880.866 732.114 881.044 735.661 881.676C737.728 882.045 741.002 882.487 742.773 883.608C744.114 884.458 744.704 885.798 744.839 887.331C745.372 893.353 740.68 902.833 737.89 908.053C736.453 903.493 734.823 896.681 730.117 894.389C727.778 893.25 724.795 893.983 722.52 894.917C712.289 899.116 698.84 915.866 690.201 923.98C680.58 933.016 670.544 940.5 658.521 946.055C641.783 953.788 621.035 956.356 603.017 960.733C579.867 966.356 557.734 973.244 535.282 981.143C528.916 983.382 522.242 985.161 516.027 987.746C526.027 973.427 535.668 958.825 545.796 944.603C550.163 939.773 553.887 934.525 558.525 929.879C571.06 917.322 584.956 906.267 597.284 893.42C609.087 881.119 619.748 867.491 629.796 853.738C650.462 825.452 668.343 796.267 679.755 762.947C669.391 763.144 659.081 761.188 648.775 760.358C642.518 759.854 636.187 760.216 629.917 760.351C613.959 760.743 600.658 753.409 587.522 745.168C582.717 742.153 577.918 738.883 572.332 737.515C565.61 735.868 558.477 737.389 552.483 740.655C540.866 746.985 530.756 757.791 520.393 765.958C510.478 773.733 500.503 781.432 490.47 789.054C484.938 793.24 477.996 797.541 473.273 802.585C464.667 811.778 462.59 880.568 457.527 898.506C457.16 899.808 456.275 903.531 454.942 903.672C452.557 900.154 450.287 890.089 449.658 885.743C448.791 879.745 448.688 873.504 448.188 867.454C447.276 857.189 446.23 846.936 445.051 836.698C444.439 831.45 444.255 824.698 442.046 819.837C441.506 818.649 441.018 818.092 439.683 817.832C434.924 816.904 424.208 823.499 420.712 826.689C417.775 829.371 416.074 832.498 416.077 836.531C416.085 844.298 419.007 851.431 417.027 859.295C415.934 863.635 413.489 867.264 410.691 870.672C398.458 885.572 391.94 889.817 398.408 910.666C402.42 923.599 409.358 936.365 415.675 948.299C418.637 953.895 422.044 959.54 424.262 965.471C417.41 960.718 410.86 955.447 404.232 950.385C392.942 941.762 381.569 933.591 372.264 922.713C368.563 918.387 365.566 913.199 362.453 908.434C356.752 898.71 352.507 887.72 349.232 876.979C347.186 868.02 345.593 858.944 345.532 849.723C345.505 845.698 348.3 835.692 347.451 833.213C348.69 831.256 351.073 830.052 352.98 828.817C371.822 819.804 391.303 812.219 410.257 803.442C435.197 791.988 459.381 778.954 482.661 764.42C493.714 757.668 504.194 750.1 514.661 742.485C525.347 734.711 536.478 723.435 549.38 719.855C569.019 724.12 583.242 739.951 600.255 749.225C608.702 753.831 618.369 754.789 627.851 754.491C669.063 753.195 703.45 714.485 732.015 688.463C736.571 684.312 743.013 677.255 749.11 675.702C752.573 674.82 756.856 675.364 759.97 677.079Z"/>
	<defs>
		<linearGradient id="gradient_1" gradientUnits="userSpaceOnUse" x1="941.78302" y1="1011.4355" x2="595.29498" y2="828.85779">
			<stop offset="0" stop-color="#9C5001"/>
			<stop offset="1" stop-color="#BD6100"/>
		</linearGradient>
	</defs>
	<path fill="url(#gradient_1)" d="M735.613 725.42C737.678 720.576 740.778 716.872 744.011 712.771C753.26 701.042 759.084 692.308 759.97 677.079C766.091 681.509 771.047 686.793 775.732 692.686C775.045 694.365 774.945 695.03 775.642 696.723C777.728 701.784 781.114 706.679 783.964 711.349C788.789 719.253 793.62 727.185 799.213 734.575C806.117 743.698 813.97 752.179 821.208 761.051L855.53 803.452C863.617 813.39 870.364 824.411 878.301 834.479C886.007 844.255 895.291 853.191 903.777 862.32C912.727 871.948 922.539 880.772 931.74 890.159C947.243 905.976 961.269 922.698 973.683 941.042C977.205 946.246 981.211 951.478 984.208 956.979C979.491 952.031 975.315 946.603 970.578 941.692C964.155 935.033 957 929.103 950.166 922.881C942.103 915.541 929.706 902.558 920.276 897.7C919.489 897.294 918.8 896.905 917.957 896.6C906.511 889.72 899.748 880.313 885.043 879.962C876.474 878.872 871.831 881.436 863.831 882.258C858.772 882.777 854.111 881.93 849.117 881.418C838.36 875.258 829.579 866.21 820.035 858.406C819.975 876.322 812.61 893.438 799.642 905.799C798.009 907.371 796.198 908.74 794.537 910.284L793.794 910.686C772.493 925.863 768.722 917.703 745.957 922.34C731.787 923.069 719.105 932.734 709.239 942.095C705.277 945.854 701.335 950.208 696.849 953.33C693.184 955.881 688.72 957.498 684.71 959.465C679.758 961.894 674.924 964.598 670.033 967.151C660.931 971.902 651.271 976.071 641.377 978.873C624.343 983.696 606.452 983.592 589.31 988.396C580.971 990.733 572.85 993.783 564.534 996.205C553.577 999.397 542.434 1001.96 531.51 1005.26C524.443 1007.38 501.259 1015.93 495.706 1015.71C502.883 1006.68 509.078 996.946 516.027 987.746C522.242 985.161 528.916 983.382 535.282 981.143C557.734 973.244 579.867 966.356 603.017 960.733C621.035 956.356 641.783 953.788 658.521 946.055C670.544 940.5 680.58 933.016 690.201 923.98C698.84 915.866 712.289 899.116 722.52 894.917C724.795 893.983 727.778 893.25 730.117 894.389C734.823 896.681 736.453 903.493 737.89 908.053C740.68 902.833 745.372 893.353 744.839 887.331C744.704 885.798 744.114 884.458 742.773 883.608C741.002 882.487 737.728 882.045 735.661 881.676C732.114 881.044 728.441 880.866 724.923 881.771C707.316 886.298 690.972 910.527 673.299 918.976C657.905 926.335 638.556 927.306 621.779 929.668C632.501 904.626 647.991 881.301 662.391 858.247C668.102 849.105 675.191 839.807 679.452 829.94C689.113 807.566 687.097 776.03 698.618 756.03C702.157 749.886 707.401 744.017 714.548 742.303C719.605 741.09 725.577 741.693 729.957 744.624C733.514 747.004 735.845 750.636 737.312 754.596C742.897 769.679 741.551 799.215 744.853 816.995C749.038 820.023 753.961 821.955 758.094 825.107C770.036 834.216 779.428 847.541 788.996 859.001C787.231 850.245 781.366 819.545 775.649 814.553C771.81 811.2 761.92 812.461 757.028 812.592C756.688 802.118 755.947 791.69 755.741 781.199C755.522 770.091 755.766 751.758 753.93 741.302C752.158 731.21 743.148 730.893 736.117 725.799C735.947 725.676 735.781 725.546 735.613 725.42ZM787.964 727.731C793.959 760.572 813.968 797.092 830.056 826.083C834.863 834.745 839.416 843.892 845.019 852.049C841.873 840.631 791.723 730.552 787.964 727.731Z"/>
	<path fill="#FAF3DD" d="M181.914 808.808C182.094 805.487 184.836 800.787 186.707 798.019C206.658 768.512 255.698 759.029 285.651 740.769C298.223 733.105 309.894 723.416 321.162 713.987C328.08 708.197 334.947 702.135 342.503 697.179C348.611 693.173 355.321 690.095 361.982 687.13C368.376 684.283 375.125 681.609 382.035 680.332C399.042 677.189 413.689 683.266 427.406 692.822C427.134 692.794 426.861 692.769 426.59 692.736C422.002 692.178 417.05 689.567 412.444 688.513C394.772 684.471 373.049 684.116 357.845 695.501C351.775 700.047 347.417 706.32 343.012 712.393C333.997 724.821 325.059 738.55 312.216 747.389C298.861 756.581 284.382 756.15 269.064 758.098C238.201 762.022 214.615 775.794 202.272 805.269C195.433 806.114 188.679 807.511 181.914 808.808Z"/>
	<path fill="#FAF3DD" d="M427.406 692.822L428.703 693.099C430.448 695.597 432.306 698.681 433.184 701.617C436.256 712.328 438.314 724.414 432.565 734.612C430.783 737.772 423.727 748.24 420.171 748.846C410.673 750.464 402.916 724.266 376.475 735.632C369.898 738.461 363.96 742.587 359.015 747.763C346.476 760.644 335.279 789.689 320.294 797.144C310.827 801.854 294.351 801.113 286.032 806.282L278.971 804.018C272.813 802.664 266.426 800.828 260.114 800.513C250.788 800.048 241.191 802.646 231.897 803.477C222.047 804.357 212.109 804.141 202.272 805.269C214.615 775.794 238.201 762.022 269.064 758.098C284.382 756.15 298.861 756.581 312.216 747.389C325.059 738.55 333.997 724.821 343.012 712.393C347.417 706.32 351.775 700.047 357.845 695.501C373.049 684.116 394.772 684.471 412.444 688.513C417.05 689.567 422.002 692.178 426.59 692.736C426.861 692.769 427.134 692.794 427.406 692.822Z"/>
	<path fill="#974C00" d="M984.208 956.979C981.211 951.478 977.205 946.246 973.683 941.042C961.269 922.698 947.243 905.976 931.74 890.159C922.539 880.772 912.727 871.948 903.777 862.32C895.291 853.191 886.007 844.255 878.301 834.479C870.364 824.411 863.617 813.39 855.53 803.452L821.208 761.051C813.97 752.179 806.117 743.698 799.213 734.575C793.62 727.185 788.789 719.253 783.964 711.349C781.114 706.679 777.728 701.784 775.642 696.723C774.945 695.03 775.045 694.365 775.732 692.686C799.991 721.387 821.501 751.832 850.974 775.668C850.703 776.396 850.331 776.826 850.623 777.604C852.529 782.687 872.682 799.065 877.747 804.974C887.948 816.879 897.105 829.689 907.388 841.579C920.686 856.957 935.048 871.434 948.372 886.827C961.861 902.41 974.632 918.832 989.482 933.153C1000.03 943.323 1011.98 949.735 1024 957.776L1024 1009.47C1008.93 1003.12 966.851 981.93 956.903 970.832C956.885 970.575 956.903 970.313 956.848 970.062C956.055 966.386 932.126 946.081 928.079 942.224C919.555 934.099 911.382 925.558 902.535 917.778C895.453 911.55 888.049 905.478 880.386 899.977C870.695 893.021 859.005 888.955 849.584 881.782C849.427 881.663 849.273 881.539 849.117 881.418C854.111 881.93 858.772 882.777 863.831 882.258C871.831 881.436 876.474 878.872 885.043 879.962C883.452 880.438 882.413 880.529 881.248 881.74C881.819 883.104 882.624 883.461 883.89 884.182C889.31 887.268 895.022 889.782 900.39 892.999C913.222 900.689 925.324 909.437 937.774 917.683L938.364 917.575C932.251 910.029 924.446 903.785 917.957 896.6C918.8 896.905 919.489 897.294 920.276 897.7C929.706 902.558 942.103 915.541 950.166 922.881C957 929.103 964.155 935.033 970.578 941.692C975.315 946.603 979.491 952.031 984.208 956.979Z"/>
	<path fill="#C4C1B7" d="M428.703 693.099C444.437 700.307 456.705 713.526 469.332 725.023C473.3 728.627 481.78 735.236 484.342 739.634C482.778 739.254 458.493 716.316 454.916 712.958C453.03 711.189 448.589 706.183 446.546 705.398C446.195 705.263 445.796 705.345 445.421 705.318C444.334 706.271 445.157 707.297 444.348 708.661C443.147 708.936 442.138 709.051 441.265 710.002C444.024 714.833 447.093 719.716 449.149 724.89L448.834 725.447C446.971 719.103 438.289 706.526 433.617 702.024C433.475 701.887 433.329 701.753 433.184 701.617C432.306 698.681 430.448 695.597 428.703 693.099Z"/>
	<path fill="#3C8796" d="M150.952 739.542C150.658 738.371 150.48 737.37 150.54 736.157C150.745 732.015 152.45 728.158 155.616 725.44C158.545 722.911 162.382 721.693 166.233 722.068C170.211 722.492 173.181 724.562 175.566 727.674C175.608 727.905 175.647 728.136 175.691 728.367C176.875 734.521 178.506 733.786 176.826 740.795L177.036 741.059C176.372 744.488 174.342 746.683 171.492 748.611C169.528 749.94 168.066 750.513 165.731 750.931L165.572 751.38L166.418 751.857C166.154 751.895 165.891 751.937 165.626 751.97C161.255 752.513 158.891 750.665 155.643 748.134C154.81 745.325 152.425 742.134 150.952 739.542ZM160.461 726.597C158.672 728.104 157.381 729.496 157.218 731.939C157.113 733.513 157.494 735.183 158.64 736.331C159.524 737.217 160.959 737.9 162.238 737.821C163.004 737.773 163.793 737.531 164.528 737.321C166.39 735.795 168.27 733.993 168.372 731.407C168.421 730.14 167.964 728.915 167.033 728.045C165.126 726.263 162.87 726.378 160.461 726.597Z"/>
	<path fill="#FAF3DD" d="M164.528 737.321C163.793 737.531 163.004 737.773 162.238 737.821C160.959 737.9 159.524 737.217 158.64 736.331C157.494 735.183 157.113 733.513 157.218 731.939C157.381 729.496 158.672 728.104 160.461 726.597C162.87 726.378 165.126 726.263 167.033 728.045C167.964 728.915 168.421 730.14 168.372 731.407C168.27 733.993 166.39 735.795 164.528 737.321Z"/>
	<path fill="#974C00" d="M845.019 852.049C839.416 843.892 834.863 834.745 830.056 826.083C813.968 797.092 793.959 760.572 787.964 727.731C791.723 730.552 841.873 840.631 845.019 852.049Z"/>
	<path fill="#974C00" d="M424.262 965.471C422.044 959.54 418.637 953.895 415.675 948.299C409.358 936.365 402.42 923.599 398.408 910.666C391.94 889.817 398.458 885.572 410.691 870.672C413.489 867.264 415.934 863.635 417.027 859.295C419.007 851.431 416.085 844.298 416.077 836.531C416.074 832.498 417.775 829.371 420.712 826.689C424.208 823.499 434.924 816.904 439.683 817.832C441.018 818.092 441.506 818.649 442.046 819.837C444.255 824.698 444.439 831.45 445.051 836.698C446.23 846.936 447.276 857.189 448.188 867.454C448.688 873.504 448.791 879.745 449.658 885.743C450.287 890.089 452.557 900.154 454.942 903.672C456.275 903.531 457.16 899.808 457.527 898.506C462.59 880.568 464.667 811.778 473.273 802.585C477.996 797.541 484.938 793.24 490.47 789.054C500.503 781.432 510.478 773.733 520.393 765.958C530.756 757.791 540.866 746.985 552.483 740.655C558.477 737.389 565.61 735.868 572.332 737.515C577.918 738.883 582.717 742.153 587.522 745.168C600.658 753.409 613.959 760.743 629.917 760.351L629.975 770.004C618.342 769.481 606.11 767.924 595.641 762.496C596.408 764.964 597.114 767.616 598.464 769.835C603.356 777.874 613.619 784.07 608.171 794.789C607.594 795.925 606.78 797.013 605.917 797.945C604.131 798.065 602.346 798.186 600.562 797.969C592.323 796.966 587.094 790.565 582.248 784.532C574.528 772.922 568.447 761.61 563.979 748.358C560.092 767.659 558.937 788.232 563.035 807.638C564.817 816.074 568.304 824.98 567.92 833.683C567.686 838.962 565.217 843.288 561.391 846.832C561.233 846.882 561.075 846.934 560.916 846.981C554.849 848.798 547.939 848.169 541.659 849.401C534.079 850.887 526.894 853.494 519.782 856.445C502.49 863.622 490.502 872.019 481.318 888.685C472.382 904.903 465.982 923.37 459.035 940.518C453.41 954.404 447.785 969.706 437.547 980.989C433.511 975.493 429.07 970.306 424.262 965.471ZM547.039 751.3L546.445 752.032C540.086 760.016 535.865 769.259 528.1 776.26C521.056 782.61 490.127 801.717 488.34 807.375L489.064 807.841C497.877 805.511 524.627 797.946 531.477 793.492C534.604 791.459 537.049 788.709 538.935 785.508C542.014 780.282 549.462 756.968 548.368 752.083C547.925 751.78 547.546 751.485 547.039 751.3Z"/>
	<path fill="#5494A0" d="M150.952 739.542C152.425 742.134 154.81 745.325 155.643 748.134C143.054 754.208 103.255 772.065 95.0815 780.008C94.6236 778.961 93.4854 777.897 92.7468 777.003C92.7389 776.741 92.7951 776.47 92.7231 776.219C92.4357 775.214 91.7375 774.51 90.929 773.934C90.2638 772.577 89.9343 772.25 90.1575 770.718C94.4889 766.142 142.15 743.279 150.952 739.542Z"/>
	<path fill="#974C00" d="M629.917 760.351C636.187 760.216 642.518 759.854 648.775 760.358C659.081 761.188 669.391 763.144 679.755 762.947C668.343 796.267 650.462 825.452 629.796 853.738C619.748 867.491 609.087 881.119 597.284 893.42C584.956 906.267 571.06 917.322 558.525 929.879C553.887 934.525 550.163 939.773 545.796 944.603C542.77 945.294 537.515 951.196 535.179 953.497C523.546 964.957 511.978 977.322 502.461 990.629C494.633 1001.58 487.778 1013.51 479.352 1024L446.8 1024C431.16 1008.07 414.751 992.525 400.46 975.355C393.086 966.497 386.484 957.052 380.133 947.445C380.025 947.314 379.907 947.19 379.809 947.051C375.272 940.616 361.633 914.984 362.453 908.434C365.566 913.199 368.563 918.387 372.264 922.713C381.569 933.591 392.942 941.762 404.232 950.385C410.86 955.447 417.41 960.718 424.262 965.471C429.07 970.306 433.511 975.493 437.547 980.989C447.785 969.706 453.41 954.404 459.035 940.518C465.982 923.37 472.382 904.903 481.318 888.685C490.502 872.019 502.49 863.622 519.782 856.445C526.894 853.494 534.079 850.887 541.659 849.401C547.939 848.169 554.849 848.798 560.916 846.981C561.075 846.934 561.233 846.882 561.391 846.832C565.217 843.288 567.686 838.962 567.92 833.683C568.304 824.98 564.817 816.074 563.035 807.638C558.937 788.232 560.092 767.659 563.979 748.358C568.447 761.61 574.528 772.922 582.248 784.532C582.319 789.121 588.102 796.968 591.38 800.197C594.933 803.696 598.296 805.506 603.302 805.3C603.462 805.294 603.621 805.279 603.781 805.269C604.7 802.857 605.73 800.544 605.917 797.945C606.78 797.013 607.594 795.925 608.171 794.789C613.619 784.07 603.356 777.874 598.464 769.835C597.114 767.616 596.408 764.964 595.641 762.496C606.11 767.924 618.342 769.481 629.975 770.004L629.917 760.351Z"/>
	<path fill="#C4C1B7" d="M890.84 775.055C892.223 770.582 894.896 769.441 898.857 767.344C909.809 761.546 934.221 746.813 946.26 750.351C962.326 755.073 969.19 772.43 983.121 777.468C970.493 778.052 953.932 773.001 940.653 772.183C932.63 771.689 924.498 772.937 916.499 773.554C907.969 774.212 899.383 774.542 890.84 775.055Z"/>
	<path fill="#974C00" d="M489.064 807.841L488.34 807.375C490.127 801.717 521.056 782.61 528.1 776.26C535.865 769.259 540.086 760.016 546.445 752.032L547.039 751.3C547.546 751.485 547.925 751.78 548.368 752.083C549.462 756.968 542.014 780.282 538.935 785.508C537.049 788.709 534.604 791.459 531.477 793.492C524.627 797.946 497.877 805.511 489.064 807.841Z"/>
	<path fill="#225E70" d="M67.2204 786.664C66.8421 785.416 66.51 784.043 66.4698 782.733C66.3648 779.319 68.2638 775.802 70.6776 773.494C73.8999 770.413 79.2974 768.202 83.7663 769.295C85.6338 769.751 87.5995 770.863 89.5318 770.804C89.7422 770.798 89.9489 770.747 90.1575 770.718C89.9343 772.25 90.2638 772.577 90.929 773.934C89.9194 773.169 88.9102 772.492 87.8357 771.826C84.6828 770.215 81.1559 769.72 77.735 770.735C75.0488 771.532 72.8163 773.169 70.8088 775.076C68.7952 777.258 67.5393 779.64 67.7016 782.687C67.9026 786.462 70.0563 789.801 71.9589 792.947C76.3516 794.609 80.999 796.141 85.5919 794.186C89.1856 792.657 91.1567 789.834 93.32 786.766C93.829 783.147 93.6774 780.574 92.7468 777.003C93.4854 777.897 94.6236 778.961 95.0815 780.008C95.3968 784.491 95.1197 789.877 92.1213 793.505C89.8487 796.255 86.0655 797.511 82.604 797.749C78.7173 798.016 75.2775 797.162 71.7659 795.584L70.7123 795.869C72.2216 792.909 68.049 789.679 67.2204 786.664Z"/>
	<path fill="#5494A0" d="M70.8088 775.076C72.8163 773.169 75.0488 771.532 77.735 770.735C81.1559 769.72 84.6828 770.215 87.8357 771.826L85.8446 773.004C84.7843 773.64 84.2631 773.829 83.0467 773.836C82.7389 773.837 82.4311 773.849 82.1233 773.853L81.3784 773.857C78.42 773.667 76.6691 773.898 74.1749 775.526C73.5638 775.839 72.9911 776.051 72.3446 776.276L70.8088 775.076Z"/>
	<path fill="#3C8796" d="M87.8357 771.826C88.9102 772.492 89.9194 773.169 90.929 773.934C91.7375 774.51 92.4357 775.214 92.7231 776.219C92.7951 776.47 92.7389 776.741 92.7468 777.003C93.6774 780.574 93.829 783.147 93.32 786.766C91.1567 789.834 89.1856 792.657 85.5919 794.186C80.999 796.141 76.3516 794.609 71.9589 792.947C70.0563 789.801 67.9026 786.462 67.7016 782.687C67.5393 779.64 68.7952 777.258 70.8088 775.076L72.3446 776.276C72.9911 776.051 73.5638 775.839 74.1749 775.526C73.7761 776.312 73.3456 777.166 73.1224 778.02C72.8093 779.218 72.8941 780.8 73.5922 781.841C74.2249 782.784 75.1692 783.308 76.2628 783.544C78.1888 783.959 80.418 783.443 82.0275 782.328C83.2457 781.483 84.1627 780.184 84.2059 778.655C84.2692 776.417 82.9023 775.221 81.3784 773.857L82.1233 773.853C82.4311 773.849 82.7389 773.837 83.0467 773.836C84.2631 773.829 84.7843 773.64 85.8446 773.004L87.8357 771.826Z"/>
	<path fill="#C38134" d="M853.848 777.504C866.202 776.432 878.467 775.747 890.84 775.055C899.383 774.542 907.969 774.212 916.499 773.554C924.498 772.937 932.63 771.689 940.653 772.183C953.932 773.001 970.493 778.052 983.121 777.468C991.742 779.728 1000.84 779.089 1009.61 780.442C1001.09 780.391 994.399 783.732 986.217 785.021C979.322 786.107 972.336 785.692 965.404 786.151L964.746 786.271C959.881 787.197 956.783 789.159 953.919 793.252C950.552 798.064 945.774 815.691 942.909 817.094C941.537 816.829 940.937 816.636 940.075 815.479C935.163 808.891 936.965 788.565 929.499 787.097C922.747 785.768 916.487 792.243 909.73 792.57C904.3 792.832 899.498 790.096 894.256 789.346C889.992 788.736 885.329 789.405 880.995 789.257C876.707 789.112 872.154 787.905 867.913 788.264C863.231 784.675 858.42 781.234 853.848 777.504Z"/>
	<path fill="#FAF3DD" d="M74.1749 775.526C76.6691 773.898 78.42 773.667 81.3784 773.857C82.9023 775.221 84.2692 776.417 84.2059 778.655C84.1627 780.184 83.2457 781.483 82.0275 782.328C80.418 783.443 78.1888 783.959 76.2628 783.544C75.1692 783.308 74.2249 782.784 73.5922 781.841C72.8941 780.8 72.8093 779.218 73.1224 778.02C73.3456 777.166 73.7761 776.312 74.1749 775.526Z"/>
	<path fill="#653A03" d="M1024 957.776C1011.98 949.735 1000.03 943.323 989.482 933.153C974.632 918.832 961.861 902.41 948.372 886.827C935.048 871.434 920.686 856.957 907.388 841.579C897.105 829.689 887.948 816.879 877.747 804.974C872.682 799.065 852.529 782.687 850.623 777.604C850.331 776.826 850.703 776.396 850.974 775.668L853.848 777.504C858.42 781.234 863.231 784.675 867.913 788.264C891.387 808.953 910.984 832.797 931.165 856.593C943.614 871.458 956.438 886.006 969.624 900.222C978.142 909.584 985.836 920.7 995.796 928.555C1003.87 934.922 1014.9 938.886 1024 943.769L1024 957.776Z"/>
	<path fill="#974C00" d="M965.404 786.151C972.336 785.692 979.322 786.107 986.217 785.021C994.399 783.732 1001.09 780.391 1009.61 780.442L1012.52 780.618C1016.3 781.279 1020.18 781.02 1024 781.24L1024 855.283C1023.96 855.189 1023.93 855.095 1023.89 855.002C1020.31 845.998 1019.58 835.409 1016.75 826.013C1014.25 817.707 1005.43 794.066 996.492 790.627C995.182 790.123 994.978 790.259 993.834 790.865C992.312 794.358 999.147 817.801 1000.13 823.209C1001.15 829.066 1001.88 834.967 1002.32 840.894C1003.89 862.275 1000.94 883.291 996.355 904.116L986.489 891.877C986.691 891.424 986.89 890.97 987.086 890.514C990.436 882.705 990.155 874.384 990.096 866.043C989.941 844.391 987.673 822.98 979.438 802.737C977.102 796.997 974.033 789.954 967.949 787.454C967.219 787.153 966.657 786.925 965.963 786.51C965.773 786.396 965.59 786.27 965.404 786.151Z"/>
	<path fill="#653A03" d="M603.781 805.269C603.621 805.279 603.462 805.294 603.302 805.3C598.296 805.506 594.933 803.696 591.38 800.197C588.102 796.968 582.319 789.121 582.248 784.532C587.094 790.565 592.323 796.966 600.562 797.969C602.346 798.186 604.131 798.065 605.917 797.945C605.73 800.544 604.7 802.857 603.781 805.269Z"/>
	<path fill="#5494A0" d="M67.2204 786.664C68.049 789.679 72.2216 792.909 70.7123 795.869C68.0913 798.754 55.6526 806.859 51.9617 808.576C50.2884 806.93 49.5612 804.615 47.8047 802.872C47.4886 802 47.2768 801.167 47.062 800.267C51.4696 797.507 64.9216 790.395 67.2204 786.664Z"/>
	<path fill="#974C00" d="M867.913 788.264C872.154 787.905 876.707 789.112 880.995 789.257C885.329 789.405 889.992 788.736 894.256 789.346C899.498 790.096 904.3 792.832 909.73 792.57C916.487 792.243 922.747 785.768 929.499 787.097C936.965 788.565 935.163 808.891 940.075 815.479C940.937 816.636 941.537 816.829 942.909 817.094C945.774 815.691 950.552 798.064 953.919 793.252C956.783 789.159 959.881 787.197 964.746 786.271L965.404 786.151C965.59 786.27 965.773 786.396 965.963 786.51C966.657 786.925 967.219 787.153 967.949 787.454C974.033 789.954 977.102 796.997 979.438 802.737C987.673 822.98 989.941 844.391 990.096 866.043C990.155 874.384 990.436 882.705 987.086 890.514C986.89 890.97 986.691 891.424 986.489 891.877L996.355 904.116C1000.94 883.291 1003.89 862.275 1002.32 840.894C1001.88 834.967 1001.15 829.066 1000.13 823.209C999.147 817.801 992.312 794.358 993.834 790.865C994.978 790.259 995.182 790.123 996.492 790.627C1005.43 794.066 1014.25 817.707 1016.75 826.013C1019.58 835.409 1020.31 845.998 1023.89 855.002C1023.93 855.095 1023.96 855.189 1024 855.283L1024 943.769C1014.9 938.886 1003.87 934.922 995.796 928.555C985.836 920.7 978.142 909.584 969.624 900.222C956.438 886.006 943.614 871.458 931.165 856.593C910.984 832.797 891.387 808.953 867.913 788.264Z"/>
	<path fill="#3C8796" d="M29.3356 800.484C29.3553 800.451 29.3719 800.416 29.3948 800.386C30.9498 798.302 33.6481 797.124 36.1904 796.818C40.5149 796.297 43.7165 797.734 47.062 800.267C47.2768 801.167 47.4886 802 47.8047 802.872L48.0643 803.836C48.3622 804.903 48.7883 805.816 49.2513 806.818C50.2811 809.046 50.946 811.999 50.1374 814.417C49.0064 817.797 44.1417 821.186 41.201 823.109C37.8092 823.565 34.3578 823.826 31.3904 821.755C28.6084 819.814 27.8428 816.642 27.2728 813.496L27.1467 812.773C26.9447 813.873 26.7123 814.8 26.2746 815.83C24.4149 809.996 26.9056 805.671 29.3356 800.484ZM35.9322 801.526C34.165 802.599 32.5166 803.538 31.8311 805.631C31.4333 806.845 31.5133 808.084 32.1442 809.205C32.9318 810.605 34.4122 811.58 35.964 811.912C36.8375 812.1 37.7393 812.08 38.6268 812.083C40.4927 811.338 42.0397 810.388 42.7646 808.396C43.384 806.694 43.2867 805.355 42.3663 803.783C41.712 802.665 40.3219 801.695 39.0409 801.544C38.0239 801.424 36.9539 801.489 35.9322 801.526Z"/>
	<path fill="#5494A0" d="M0 797.505C6.84393 799.771 14.5876 801.432 21.1232 804.296C21.2405 804.426 21.3502 804.563 21.4752 804.685C22.1564 805.352 22.856 805.543 23.635 806.039C23.9901 806.265 24.4144 806.655 24.74 806.941C24.6725 810.006 24.3357 813.049 24.3782 816.114C16.9331 812.627 7.89821 811.328 0 808.999L0 797.505Z"/>
	<path fill="#C38134" d="M278.971 804.018C278.131 814.966 277.749 825.871 275.151 836.6C272.497 847.564 267.468 858.078 263.003 868.398C262.889 858.266 265.205 825.345 262.853 817.901C257.659 816.372 236.259 839.473 203.26 821.11C197.198 822.926 191.738 825.672 186.104 828.5C174.692 834.23 164.003 839.613 157.725 851.355C151.672 862.676 153.083 874.585 156.605 886.469C157.713 890.207 159.405 894.3 159.566 898.213C159.758 902.903 158.68 907.803 158.058 912.446C156.804 921.81 156.986 932.856 159.975 941.896C160.509 943.511 161.239 944.997 162.119 946.448C167.871 949.405 179.784 955.922 181.908 962.488C182.262 963.584 182.288 964.718 181.765 965.768C180.766 967.776 177.752 968.712 175.777 969.425C168.128 961.788 159.147 955.556 151.908 947.452C149.162 941.909 145.024 937.251 142.546 931.489C136.173 916.671 142.774 904.098 140.784 889.407C139.703 881.423 133.523 866.971 126.966 862.275C125.047 860.901 122.855 860.081 120.48 860.2C114.118 860.518 107.312 863.372 101.251 865.228C90.5452 868.508 79.9546 871.926 68.8954 873.822L66.582 873.833L65.7684 874.827C67.7335 879.781 75.9103 882.566 77.5205 887.995L76.3838 889.369C73.839 890.029 71.4333 892.524 69.2416 893.982C65.9292 896.186 62.107 897.986 59.1338 900.635C53.0773 906.03 48.9698 913.813 44.5787 920.521C39.8472 927.749 33.7113 935.493 27.1009 941.07C17.9792 948.766 9.46346 943.952 0 954.522L0 928.743C6.49258 926.099 14.1202 922.811 19.6714 918.515C30.3182 910.275 41.4149 896.378 50.5829 886.143C53.6421 882.728 56.8996 878.312 60.459 875.48C61.758 874.446 63.6533 873.935 65.2141 873.415C72.6693 869.413 78.7406 863.281 85.0117 857.704C91.2717 852.178 97.5759 846.702 103.924 841.276C106.599 839.019 109.234 836.874 112.299 835.159C118.729 831.56 126 828.963 132.815 826.153C148.85 819.543 164.991 812.774 181.914 808.808C188.679 807.511 195.433 806.114 202.272 805.269C212.109 804.141 222.047 804.357 231.897 803.477C241.191 802.646 250.788 800.048 260.114 800.513C266.426 800.828 272.813 802.664 278.971 804.018Z"/>
	<path fill="#204E5E" d="M21.1232 804.296C22.2879 804.563 23.4236 804.742 24.6057 804.9C25.6789 804.543 26.1392 804.248 26.8015 803.363C27.5854 802.315 28.4188 801.415 29.3356 800.484C26.9056 805.671 24.4149 809.996 26.2746 815.83C26.7123 814.8 26.9447 813.873 27.1467 812.773L27.2728 813.496C27.8428 816.642 28.6084 819.814 31.3904 821.755C34.3578 823.826 37.8092 823.565 41.201 823.109C40.9992 823.279 40.8002 823.454 40.5956 823.621C39.4341 824.571 37.9783 825.143 36.594 825.691C38.3957 826.343 41.0513 825.622 43.0817 825.991C40.1097 827.329 36.9002 827.594 33.7818 826.628C28.6121 825.026 25.8902 820.966 23.5195 816.449C15.8222 813.821 7.8186 812.038 0 809.787L0 808.999C7.89821 811.328 16.9331 812.627 24.3782 816.114C24.3357 813.049 24.6725 810.006 24.74 806.941C24.4144 806.655 23.9901 806.265 23.635 806.039C22.856 805.543 22.1564 805.352 21.4752 804.685C21.3502 804.563 21.2405 804.426 21.1232 804.296Z"/>
	<path fill="#FAF3DD" d="M38.6268 812.083C37.7393 812.08 36.8375 812.1 35.964 811.912C34.4122 811.58 32.9318 810.605 32.1442 809.205C31.5133 808.084 31.4333 806.845 31.8311 805.631C32.5166 803.538 34.165 802.599 35.9322 801.526C36.9539 801.489 38.0239 801.424 39.0409 801.544C40.3219 801.695 41.712 802.665 42.3663 803.783C43.2867 805.355 43.384 806.694 42.7646 808.396C42.0397 810.388 40.4927 811.338 38.6268 812.083Z"/>
	<path fill="#225E70" d="M47.8047 802.872C49.5612 804.615 50.2884 806.93 51.9617 808.576C52.9675 812.227 52.7115 815.953 50.9036 819.319C49.214 822.465 46.4162 824.769 43.0817 825.991C41.0513 825.622 38.3957 826.343 36.594 825.691C37.9783 825.143 39.4341 824.571 40.5956 823.621C40.8002 823.454 40.9992 823.279 41.201 823.109C44.1417 821.186 49.0064 817.797 50.1374 814.417C50.946 811.999 50.2811 809.046 49.2513 806.818C48.7883 805.816 48.3622 804.903 48.0643 803.836L47.8047 802.872Z"/>
	<path fill="#974C00" d="M263.003 868.398C267.468 858.078 272.497 847.564 275.151 836.6C277.749 825.871 278.131 814.966 278.971 804.018L286.032 806.282C293.07 808.596 300.292 810.905 307.078 813.88C306.189 826.975 303.208 840.072 301.008 853C300.905 853.098 300.804 853.199 300.699 853.294C297.774 855.932 293.513 857.519 289.951 859.125C280.202 863.522 269.941 867.477 262.234 875.175C254.632 882.768 243.986 893.728 237.758 902.147C229.262 913.632 221.928 926.499 214.223 938.556C208.247 947.907 202.537 959.116 194.964 967.18C191.662 970.696 187.407 972.521 182.803 973.671C179.781 972.66 177.844 971.933 175.777 969.425C177.752 968.712 180.766 967.776 181.765 965.768C182.288 964.718 182.262 963.584 181.908 962.488C179.784 955.922 167.871 949.405 162.119 946.448C161.239 944.997 160.509 943.511 159.975 941.896C156.986 932.856 156.804 921.81 158.058 912.446C158.68 907.803 159.758 902.903 159.566 898.213C159.405 894.3 157.713 890.207 156.605 886.469C153.083 874.585 151.672 862.676 157.725 851.355C164.003 839.613 174.692 834.23 186.104 828.5C191.738 825.672 197.198 822.926 203.26 821.11C236.259 839.473 257.659 816.372 262.853 817.901C265.205 825.345 262.889 858.266 263.003 868.398ZM197.99 831.111C196.145 845.484 193.572 859.666 191.452 873.983C190.18 882.576 189.326 891.228 188.046 899.821C188.731 897.856 189.489 895.893 190.028 893.883C194.005 881.175 202.952 856.145 203.777 843.989C203.973 841.089 203.623 837.905 202.202 835.327C201.177 833.468 200.017 831.808 197.99 831.111Z"/>
	<path fill="#653A03" d="M307.078 813.88C311.886 815.847 316.781 817.704 321.504 819.867C319.133 824.833 318.309 831.14 317.088 836.525C315.13 845.155 312.449 853.508 308.352 861.38C306.11 858.504 303.907 855.242 301.008 853C303.208 840.072 306.189 826.975 307.078 813.88Z"/>
	<path fill="#974C00" d="M321.504 819.867L323.009 820.431C327.742 822.681 332.48 824.916 337.07 827.449C340.41 829.293 343.908 831.868 347.451 833.213C348.3 835.692 345.505 845.698 345.532 849.723C345.593 858.944 347.186 868.02 349.232 876.979C346.642 893.736 357.667 925.435 365.472 940.532C370.18 949.638 376.103 958.294 382.154 966.553C397.673 987.732 417.087 1006.6 436.678 1024L290.383 1024C293.262 1018.4 294.799 1011.18 296.846 1005.14C300.927 993.376 305.086 981.641 309.323 969.934C311.054 976.746 312.732 983.602 315.002 990.258C318.852 1001.54 322.494 1012.83 333.83 1018.41C341.142 1015.86 348.221 1010.96 355.108 1007.3C362.029 1003.63 369.313 1000.39 376.014 996.331C378.16 995.03 382.731 992.273 383.122 989.718C383.456 987.532 382.083 985.443 380.851 983.761C378.387 980.395 375.273 977.307 372.463 974.214C364.027 964.93 354.355 955.717 346.701 945.823C335.716 931.624 328.08 914.869 316.871 900.739C313.587 897.117 310.283 893.63 306.172 890.931C283.316 892.973 270.045 906.092 255.878 923.082C246.507 934.32 238.614 946.82 229.804 958.503C221.29 969.617 212.911 980.834 204.67 992.152C201.008 997.136 196.857 1002.08 193.605 1007.31C191.968 1008.52 191.042 1010.66 190.772 1012.64C190.262 1016.38 191.543 1020.89 193.617 1024L0 1024L0 1002.45C20.648 1001.04 41.2582 999.097 61.937 998.135C71.5884 997.686 81.2523 998.033 90.9056 997.669C92.9414 993.825 93.7582 989.343 94.2895 985.065C97.6686 957.853 93.6304 928.128 83.1175 902.79C81.2462 898.279 79.3959 893.222 76.3838 889.369L77.5205 887.995C75.9103 882.566 67.7335 879.781 65.7684 874.827L66.582 873.833L68.8954 873.822C85.9296 892.456 106.74 906.601 125.58 923.224C131.762 928.678 146.454 944.434 151.908 947.452C159.147 955.556 168.128 961.788 175.777 969.425C177.844 971.933 179.781 972.66 182.803 973.671C187.407 972.521 191.662 970.696 194.964 967.18C202.537 959.116 208.247 947.907 214.223 938.556C221.928 926.499 229.262 913.632 237.758 902.147C243.986 893.728 254.632 882.768 262.234 875.175C269.941 867.477 280.202 863.522 289.951 859.125C293.513 857.519 297.774 855.932 300.699 853.294C300.804 853.199 300.905 853.098 301.008 853C303.907 855.242 306.11 858.504 308.352 861.38C312.449 853.508 315.13 845.155 317.088 836.525C318.309 831.14 319.133 824.833 321.504 819.867ZM94.3903 907.926C103.954 917.904 114.681 926.698 124.011 936.912C130.213 943.703 134.992 951.776 140.146 959.365C144.969 966.467 150.146 973.506 154.553 980.869C157.384 985.599 159.916 990.624 161.796 995.81C162.811 998.611 163.528 1001.59 164.695 1004.32C165.12 1005.32 165.087 1005.58 166.117 1006.03C166.319 1002.11 167.223 996.664 166.238 992.906C162.883 980.105 137.576 947.445 128.561 937.468C122.272 930.507 102.772 910.402 94.3903 907.926ZM94.1722 915.386C96.2135 926.6 97.2554 937.833 100.142 948.901C103.861 963.162 115.129 982.744 123.223 995.489C120.752 985.675 100.074 918.969 94.1722 915.386Z"/>
	<path fill="#974C00" d="M188.046 899.821C189.326 891.228 190.18 882.576 191.452 873.983C193.572 859.666 196.145 845.484 197.99 831.111C200.017 831.808 201.177 833.468 202.202 835.327C203.623 837.905 203.973 841.089 203.777 843.989C202.952 856.145 194.005 881.175 190.028 893.883C189.489 895.893 188.731 897.856 188.046 899.821Z"/>
	<path fill="#653A03" d="M820.035 858.406C829.579 866.21 838.36 875.258 849.117 881.418C849.273 881.539 849.427 881.663 849.584 881.782C859.005 888.955 870.695 893.021 880.386 899.977C888.049 905.478 895.453 911.55 902.535 917.778C911.382 925.558 919.555 934.099 928.079 942.224C932.126 946.081 956.055 966.386 956.848 970.062C956.903 970.313 956.885 970.575 956.903 970.832C950.578 966.47 943.709 962.877 937.361 958.53C927.524 951.796 918.364 944.091 908.542 937.338C900.344 931.702 891.4 927.202 882.725 922.355C873.059 916.954 863.36 909.867 852.52 907.203L850.129 906.247C855.003 904.718 859.271 910.112 863.672 909.686C862.05 907.523 858.827 906.396 856.712 904.614C845.23 894.939 836.24 882.683 825.564 872.207C825.019 883.063 818.181 892.27 810.381 899.358C806.273 903.09 799.765 908.392 794.537 910.284C796.198 908.74 798.009 907.371 799.642 905.799C812.61 893.438 819.975 876.322 820.035 858.406Z"/>
	<path fill="#974C00" d="M68.8954 873.822C79.9546 871.926 90.5452 868.508 101.251 865.228C107.312 863.372 114.118 860.518 120.48 860.2C122.855 860.081 125.047 860.901 126.966 862.275C133.523 866.971 139.703 881.423 140.784 889.407C142.774 904.098 136.173 916.671 142.546 931.489C145.024 937.251 149.162 941.909 151.908 947.452C146.454 944.434 131.762 928.678 125.58 923.224C106.74 906.601 85.9296 892.456 68.8954 873.822Z"/>
	<path fill="#974C00" d="M850.129 906.247C846 904.835 841.856 903.327 837.656 902.147C832.476 906.873 827.452 911.563 821.795 915.736C805.933 927.438 788.137 936.901 773.173 949.776C753.59 966.624 738.731 988.273 718.841 1004.9C725.49 1003.68 732.289 1002.69 738.862 1001.13C741.851 1002.58 745.2 1002.7 748.469 1002.53C755.943 1002.12 763.407 1000.13 770.755 998.782C782.846 996.57 795.763 994.908 807.396 990.905C827.847 983.867 848.085 967.951 857.516 948.202C860.331 942.307 861.865 936.081 863.214 929.721C864.676 942.403 867.463 974.314 859.056 984.271C851.602 993.1 822.501 1000.67 811.058 1004.72C808.412 1005.66 804.643 1005.6 802.368 1007.24C806.549 1007.84 811.475 1007 815.724 1006.7C832.604 1005.5 853.317 1004.53 867.287 994.005C872.528 990.058 875.349 985 876.237 978.543C878.138 964.714 875.446 952.9 869.447 940.536C879.688 949.158 887.75 960.442 895.042 971.608C900.774 980.383 904.634 990.867 913.783 996.832C926.898 1005.38 945.189 1004.76 960.246 1006.11C978.93 1007.79 1002.75 1012.38 1017.77 1024L664.481 1024C667.62 1021.94 672.601 1020.89 676.202 1019.76C683.485 1017.47 712.348 1009.55 716.264 1005.38L715.772 1004.79C712.215 1004.01 708.554 1004.24 704.992 1004.88C692.982 1007.01 680.919 1011.93 669.424 1015.93C661.975 1018.52 654.149 1020.78 646.968 1024L592.566 1024C597.686 1021.18 603.126 1018.81 608.35 1016.16C639.093 1000.62 671.129 987.273 701.431 970.929C710.907 965.819 720.723 959.699 729.008 952.822C739.912 943.77 750.723 931.146 763.688 925.254C771.524 921.694 778.654 924.2 785.451 921.577C790.332 919.693 791.873 915.09 793.794 910.686L794.537 910.284C799.765 908.392 806.273 903.09 810.381 899.358C818.181 892.27 825.019 883.063 825.564 872.207C836.24 882.683 845.23 894.939 856.712 904.614C858.827 906.396 862.05 907.523 863.672 909.686C859.271 910.112 855.003 904.718 850.129 906.247Z"/>
	<path fill="#653A03" d="M436.678 1024C417.087 1006.6 397.673 987.732 382.154 966.553C376.103 958.294 370.18 949.638 365.472 940.532C357.667 925.435 346.642 893.736 349.232 876.979C352.507 887.72 356.752 898.71 362.453 908.434C361.633 914.984 375.272 940.616 379.809 947.051C379.907 947.19 380.025 947.314 380.133 947.445C386.484 957.052 393.086 966.497 400.46 975.355C414.751 992.525 431.16 1008.07 446.8 1024L436.678 1024Z"/>
	<path fill="#653A03" d="M885.043 879.962C899.748 880.313 906.511 889.72 917.957 896.6C924.446 903.785 932.251 910.029 938.364 917.575L937.774 917.683C925.324 909.437 913.222 900.689 900.39 892.999C895.022 889.782 889.31 887.268 883.89 884.182C882.624 883.461 881.819 883.104 881.248 881.74C882.413 880.529 883.452 880.438 885.043 879.962Z"/>
	<path fill="#974C00" d="M0 954.522C9.46346 943.952 17.9792 948.766 27.1009 941.07C33.7113 935.493 39.8472 927.749 44.5787 920.521C48.9698 913.813 53.0773 906.03 59.1338 900.635C62.107 897.986 65.9292 896.186 69.2416 893.982C71.4333 892.524 73.839 890.029 76.3838 889.369C79.3959 893.222 81.2462 898.279 83.1175 902.79C93.6304 928.128 97.6686 957.853 94.2895 985.065C93.7582 989.343 92.9414 993.825 90.9056 997.669C81.2523 998.033 71.5884 997.686 61.937 998.135C41.2582 999.097 20.648 1001.04 0 1002.45L0 954.522ZM76.1315 903.937C73.4743 905.354 70.8536 906.739 68.0647 907.885C71.1222 922.897 69.925 942.546 61.1953 955.644C57.6743 960.927 52.8625 965.251 47.5813 968.724C40.5794 973.329 4.65707 987.803 2.57499 991.276C3.80366 991.827 5.01074 991.491 6.27115 991.202C21.7252 987.714 53.0838 983.646 65.5652 976.364C69.162 974.265 71.9182 971.516 74.1333 968.005C83.3577 953.382 84.0725 930.674 80.2366 914.32C79.6364 911.761 78.4619 905.399 76.2346 903.969C76.2044 903.949 76.1659 903.948 76.1315 903.937Z"/>
	<path fill="#C38134" d="M306.172 890.931C310.283 893.63 313.587 897.117 316.871 900.739C303.714 908.235 295.175 914.647 286.538 927.415C282.928 932.752 279.577 938.362 274.832 942.795C268.439 948.769 260.579 952.733 253.677 958.015C244.445 965.081 236.299 973.599 227.196 980.855C221.48 985.411 214.91 988.6 209.169 993.018C203.665 997.253 199.271 1003.45 193.605 1007.31C196.857 1002.08 201.008 997.136 204.67 992.152C212.911 980.834 221.29 969.617 229.804 958.503C238.614 946.82 246.507 934.32 255.878 923.082C270.045 906.092 283.316 892.973 306.172 890.931Z"/>
	<path fill="#974C00" d="M316.871 900.739C328.08 914.869 335.716 931.624 346.701 945.823C354.355 955.717 364.027 964.93 372.463 974.214C375.273 977.307 378.387 980.395 380.851 983.761C382.083 985.443 383.456 987.532 383.122 989.718C382.731 992.273 378.16 995.03 376.014 996.331C369.313 1000.39 362.029 1003.63 355.108 1007.3C348.221 1010.96 341.142 1015.86 333.83 1018.41C322.494 1012.83 318.852 1001.54 315.002 990.258C312.732 983.602 311.054 976.746 309.323 969.934C305.086 981.641 300.927 993.376 296.846 1005.14C294.799 1011.18 293.262 1018.4 290.383 1024L280.168 1024C282.851 1016.35 285.615 1008.71 288.129 1001C291.542 990.526 296.72 967.76 304.285 960.586C313.396 951.947 334.465 957.191 346.008 957.798C341.344 955.782 336.662 953.847 331.764 952.465C304.957 944.901 296.573 955.472 287.713 979.098C285.9 983.93 284.325 989.768 280.595 993.498C277.484 996.608 273.484 999.051 269.823 1001.45C263.37 1005.69 256.904 1009.81 250.013 1013.31C242.801 1016.97 235.234 1020.06 228.178 1024L193.617 1024C191.543 1020.89 190.262 1016.38 190.772 1012.64C191.042 1010.66 191.968 1008.52 193.605 1007.31C199.271 1003.45 203.665 997.253 209.169 993.018C214.91 988.6 221.48 985.411 227.196 980.855C236.299 973.599 244.445 965.081 253.677 958.015C260.579 952.733 268.439 948.769 274.832 942.795C279.577 938.362 282.928 932.752 286.538 927.415C295.175 914.647 303.714 908.235 316.871 900.739Z"/>
	<path fill="#C38134" d="M837.656 902.147C841.856 903.327 846 904.835 850.129 906.247L852.52 907.203C846.877 923.577 836.199 943.502 820.007 951.537C811.492 955.762 801.739 956.511 793.637 961.659C774.371 973.899 763.225 993.689 738.862 1001.13C732.289 1002.69 725.49 1003.68 718.841 1004.9C738.731 988.273 753.59 966.624 773.173 949.776C788.137 936.901 805.933 927.438 821.795 915.736C827.452 911.563 832.476 906.873 837.656 902.147Z"/>
	<path fill="#974C00" d="M68.0647 907.885C70.8536 906.739 73.4743 905.354 76.1315 903.937C76.1659 903.948 76.2044 903.949 76.2346 903.969C78.4619 905.399 79.6364 911.761 80.2366 914.32C84.0725 930.674 83.3577 953.382 74.1333 968.005C71.9182 971.516 69.162 974.265 65.5652 976.364C53.0838 983.646 21.7252 987.714 6.27115 991.202C5.01074 991.491 3.80366 991.827 2.57499 991.276C4.65707 987.803 40.5794 973.329 47.5813 968.724C52.8625 965.251 57.6743 960.927 61.1953 955.644C69.925 942.546 71.1222 922.897 68.0647 907.885Z"/>
	<path fill="#974C00" d="M852.52 907.203C863.36 909.867 873.059 916.954 882.725 922.355C891.4 927.202 900.344 931.702 908.542 937.338C918.364 944.091 927.524 951.796 937.361 958.53C943.709 962.877 950.578 966.47 956.903 970.832C966.851 981.93 1008.93 1003.12 1024 1009.47L1024 1024L1017.77 1024C1002.75 1012.38 978.93 1007.79 960.246 1006.11C945.189 1004.76 926.898 1005.38 913.783 996.832C904.634 990.867 900.774 980.383 895.042 971.608C887.75 960.442 879.688 949.158 869.447 940.536C875.446 952.9 878.138 964.714 876.237 978.543C875.349 985 872.528 990.058 867.287 994.005C853.317 1004.53 832.604 1005.5 815.724 1006.7C811.475 1007 806.549 1007.84 802.368 1007.24C804.643 1005.6 808.412 1005.66 811.058 1004.72C822.501 1000.67 851.602 993.1 859.056 984.271C867.463 974.314 864.676 942.403 863.214 929.721C861.865 936.081 860.331 942.307 857.516 948.202C848.085 967.951 827.847 983.867 807.396 990.905C795.763 994.908 782.846 996.57 770.755 998.782C763.407 1000.13 755.943 1002.12 748.469 1002.53C745.2 1002.7 741.851 1002.58 738.862 1001.13C763.225 993.689 774.371 973.899 793.637 961.659C801.739 956.511 811.492 955.762 820.007 951.537C836.199 943.502 846.877 923.577 852.52 907.203ZM861.734 917.778C865.949 921.517 869.556 925.678 873.472 929.705C878.808 935.192 884.386 940.319 889.273 946.236C900.133 959.386 913.154 983.686 928.251 991.145C937.656 995.793 962.483 1000.94 973.641 1003.57C978.756 1004.77 983.952 1005.84 988.984 1007.35C994.739 1009.09 1002.44 1013.12 1008.2 1013.42C1004.92 1005.34 982.315 995.181 974.265 991.792C961.929 986.599 949.856 983.17 938.436 975.731C927.266 968.456 918.452 958.489 908.163 950.147C897.363 941.391 885.624 934.293 874.339 926.241C871.289 924.064 865.371 918.357 861.734 917.778Z"/>
	<path fill="#653A03" d="M166.117 1006.03C165.087 1005.58 165.12 1005.32 164.695 1004.32C163.528 1001.59 162.811 998.611 161.796 995.81C159.916 990.624 157.384 985.599 154.553 980.869C150.146 973.506 144.969 966.467 140.146 959.365C134.992 951.776 130.213 943.703 124.011 936.912C114.681 926.698 103.954 917.904 94.3903 907.926C102.772 910.402 122.272 930.507 128.561 937.468C137.576 947.445 162.883 980.105 166.238 992.906C167.223 996.664 166.319 1002.11 166.117 1006.03Z"/>
	<path fill="#653A03" d="M745.957 922.34C768.722 917.703 772.493 925.863 793.794 910.686C791.873 915.09 790.332 919.693 785.451 921.577C778.654 924.2 771.524 921.694 763.688 925.254C750.723 931.146 739.912 943.77 729.008 952.822C720.723 959.699 710.907 965.819 701.431 970.929C671.129 987.273 639.093 1000.62 608.35 1016.16C603.126 1018.81 597.686 1021.18 592.566 1024L575.479 1024C584.789 1018.34 598.965 1013.5 609.274 1008.37C630.611 997.762 651.353 985.784 671.831 973.617C685.025 965.779 698.347 957.091 710.65 947.935C718.382 942.18 725.59 935.68 733.41 930.066C737.391 927.208 741.731 924.815 745.957 922.34Z"/>
	<path fill="#653A03" d="M123.223 995.489C115.129 982.744 103.861 963.162 100.142 948.901C97.2554 937.833 96.2135 926.6 94.1722 915.386C100.074 918.969 120.752 985.675 123.223 995.489Z"/>
	<path fill="#974C00" d="M1008.2 1013.42C1002.44 1013.12 994.739 1009.09 988.984 1007.35C983.952 1005.84 978.756 1004.77 973.641 1003.57C962.483 1000.94 937.656 995.793 928.251 991.145C913.154 983.686 900.133 959.386 889.273 946.236C884.386 940.319 878.808 935.192 873.472 929.705C869.556 925.678 865.949 921.517 861.734 917.778C865.371 918.357 871.289 924.064 874.339 926.241C885.624 934.293 897.363 941.391 908.163 950.147C918.452 958.489 927.266 968.456 938.436 975.731C949.856 983.17 961.929 986.599 974.265 991.792C982.315 995.181 1004.92 1005.34 1008.2 1013.42Z"/>
	<path fill="#974C00" d="M495.706 1015.71C501.259 1015.93 524.443 1007.38 531.51 1005.26C542.434 1001.96 553.577 999.397 564.534 996.205C572.85 993.783 580.971 990.733 589.31 988.396C606.452 983.592 624.343 983.696 641.377 978.873C651.271 976.071 660.931 971.902 670.033 967.151C674.924 964.598 679.758 961.894 684.71 959.465C688.72 957.498 693.184 955.881 696.849 953.33C701.335 950.208 705.277 945.854 709.239 942.095C719.105 932.734 731.787 923.069 745.957 922.34C741.731 924.815 737.391 927.208 733.41 930.066C725.59 935.68 718.382 942.18 710.65 947.935C698.347 957.091 685.025 965.779 671.831 973.617C651.353 985.784 630.611 997.762 609.274 1008.37C598.965 1013.5 584.789 1018.34 575.479 1024L489.764 1024C491.393 1020.98 493.335 1018.19 495.706 1015.71Z"/>
	<path fill="#653A03" d="M479.352 1024C487.778 1013.51 494.633 1001.58 502.461 990.629C511.978 977.322 523.546 964.957 535.179 953.497C537.515 951.196 542.77 945.294 545.796 944.603C535.668 958.825 526.027 973.427 516.027 987.746C509.078 996.946 502.883 1006.68 495.706 1015.71C493.335 1018.19 491.393 1020.98 489.764 1024L479.352 1024Z"/>
	<path fill="#974C00" d="M228.178 1024C235.234 1020.06 242.801 1016.97 250.013 1013.31C256.904 1009.81 263.37 1005.69 269.823 1001.45C273.484 999.051 277.484 996.608 280.595 993.498C284.325 989.768 285.9 983.93 287.713 979.098C296.573 955.472 304.957 944.901 331.764 952.465C336.662 953.847 341.344 955.782 346.008 957.798C334.465 957.191 313.396 951.947 304.285 960.586C296.72 967.76 291.542 990.526 288.129 1001C285.615 1008.71 282.851 1016.35 280.168 1024L228.178 1024Z"/>
	<path fill="#653A03" d="M646.968 1024C654.149 1020.78 661.975 1018.52 669.424 1015.93C680.919 1011.93 692.982 1007.01 704.992 1004.88C708.554 1004.24 712.215 1004.01 715.772 1004.79L716.264 1005.38C712.348 1009.55 683.485 1017.47 676.202 1019.76C672.601 1020.89 667.62 1021.94 664.481 1024L646.968 1024Z"/>
</svg>
