<?xml version="1.0" encoding="utf-8" ?>
<svg xmlns="http://www.w3.org/2000/svg" xmlns:xlink="http://www.w3.org/1999/xlink" width="1024" height="1024">
	<path fill="#613501" d="M0 0L19.367 0C19.4089 7.14192 19.5361 14.2941 19.4771 21.4352C12.8172 15.4058 6.82905 8.68514 0 2.82481L0 0Z"/>
	<path fill="#974C00" d="M19.367 0L32.0109 0C32.283 11.1319 31.7227 22.2928 32.1393 33.4102C27.7862 29.542 23.6236 25.5218 19.4771 21.4352C19.5361 14.2941 19.4089 7.14192 19.367 0Z"/>
	<path fill="#613501" d="M32.0109 0L36.6356 0C36.715 10.5161 35.9333 28.5448 37.3806 38.2219C35.5663 36.6996 33.8661 35.0308 32.1393 33.4102C31.7227 22.2928 32.283 11.1319 32.0109 0Z"/>
	<path fill="#974C00" d="M36.6356 0L86.0374 0L91.9772 0C92.0083 28.9221 92.8663 58.1357 91.8533 87.0224C90.0846 85.9485 88.457 84.7147 86.8016 83.4779C80.4735 78.4876 74.6884 72.5968 68.7313 67.162C58.2108 57.5638 47.6243 48.123 37.3806 38.2219C35.9333 28.5448 36.715 10.5161 36.6356 0Z"/>
	<path fill="#502C01" d="M91.9772 0L96.4665 0L96.3756 62.8664C96.3399 71.6406 97.2802 81.5418 96.0833 90.1879L91.8533 87.0224C92.8663 58.1357 92.0083 28.9221 91.9772 0Z"/>
	<path fill="#613501" d="M96.4665 0L812.861 0C813.401 22.3238 813.061 44.7297 813.026 67.0624C813.194 90.0688 813.021 113.076 812.508 136.078C798.574 120.921 775.26 104.287 757.699 93.1682C682.738 42.1501 576.953 14.8969 486.985 13.09C444.852 12.4495 402.77 16.2684 361.441 24.483C303.12 35.5662 241.425 58.2673 192.361 91.987C185.511 96.695 177.274 101.742 171.272 107.502C157.32 106.009 143.333 104.867 129.324 104.079C123.298 103.765 116.905 103.109 110.903 103.836C107.202 102.977 99.4122 93.1252 96.0833 90.1879C97.2802 81.5418 96.3399 71.6406 96.3756 62.8664L96.4665 0Z"/>
	<path fill="#502C01" d="M812.861 0L817.707 0C817.461 32.5301 817.38 65.0612 817.463 97.5921L817.499 124.586C817.517 130.014 817.801 135.625 817.299 141.03L817.444 141.569C817.129 153.943 817.031 166.322 817.149 178.699C817.214 185.987 817.948 194.066 816.928 201.256C815.358 200.637 813.663 200.23 812.042 199.753L811.952 198.442L812.568 136.445L812.508 136.078C813.021 113.076 813.194 90.0688 813.026 67.0624C813.061 44.7297 813.401 22.3238 812.861 0Z"/>
	<path fill="#974C00" d="M817.707 0L832.715 0C833.624 16.9361 832.718 34.2807 832.715 51.2655L832.726 157.155C827.856 151.68 822.773 146.604 817.444 141.569L817.299 141.03C817.801 135.625 817.517 130.014 817.499 124.586L817.463 97.5921C817.38 65.0612 817.461 32.5301 817.707 0Z"/>
	<path fill="#974C00" d="M832.715 0L857.903 0C857.923 43.2822 857.599 86.5639 856.931 129.841C856.802 149.7 857.711 169.558 856.959 189.409L857.05 189.946C863.676 198.833 867.156 210.094 873.657 218.961C875.089 229.343 873.773 240.84 873.911 251.369L873.963 251.897C873.821 268.831 874.044 285.764 873.818 302.697C873.727 309.477 874.062 316.648 873.407 323.374C854.981 320.308 836.602 316.968 818.275 313.355C817.683 312.261 817.258 311.504 817.149 310.245C816.183 299.121 816.928 287.266 816.892 276.07C816.799 251.387 816.844 226.703 817.026 202.02L816.928 201.256C817.948 194.066 817.214 185.987 817.149 178.699C817.031 166.322 817.129 153.943 817.444 141.569C822.773 146.604 827.856 151.68 832.726 157.155L832.715 51.2655C832.718 34.2807 833.624 16.9361 832.715 0ZM856.929 233.16C849.587 227.794 841.375 217.285 833.037 213.76C832.928 227.791 832.936 241.824 833.059 255.856C833.095 264.355 832.381 273.715 833.836 282.074C834.152 283.889 834.712 285.347 836.021 286.67C838.299 288.975 841.455 289.556 844.585 289.478C848.318 289.384 852.842 288.535 855.508 285.674C856.666 284.431 857.045 282.866 857.3 281.231C858.158 275.739 857.637 269.651 857.587 264.082C857.543 253.909 857.378 243.736 857.091 233.567L856.929 233.16Z"/>
	<path fill="#974C00" d="M857.903 0L873.666 0L873.36 155.845L873.59 200.034C873.631 206.082 874.47 213.037 873.657 218.961C867.156 210.094 863.676 198.833 857.05 189.946L856.959 189.409C857.711 169.558 856.802 149.7 856.931 129.841C857.599 86.5639 857.923 43.2822 857.903 2.66454e-15L857.903 0Z"/>
	<path fill="#502C01" d="M873.666 0L878.282 0C877.64 45.9824 877.432 91.9699 877.659 137.956L877.935 197.802C877.979 207.86 878.292 217.972 878.069 228.022L877.43 228.204C876.835 232.49 879.667 250.046 877.509 252.505C876.158 252.535 875.237 252.283 873.963 251.897L873.911 251.369C873.773 240.84 875.089 229.343 873.657 218.961C874.47 213.037 873.631 206.082 873.59 200.034L873.36 155.845L873.666 0Z"/>
	<path fill="#5C491D" d="M878.282 0L1024 0L1024 351.326C989.263 345.367 954.754 338.123 920.034 332.029C913.536 313.863 906.773 295.285 897.869 278.139C896.992 273.689 894.877 269.199 893.228 264.974C888.666 253.407 883.803 241.962 878.643 230.649C878.559 229.653 878.37 228.964 878.069 228.022C878.292 217.972 877.979 207.86 877.935 197.802L877.659 137.956C877.432 91.9699 877.64 45.9824 878.282 0Z"/>
	<path fill="#228F81" d="M0 2.82481C6.82905 8.68514 12.8172 15.4058 19.4771 21.4352C23.6236 25.5218 27.7862 29.542 32.1393 33.4102C33.8661 35.0308 35.5663 36.6996 37.3806 38.2219C47.6243 48.123 58.2108 57.5638 68.7313 67.162C74.6884 72.5968 80.4735 78.4876 86.8016 83.4779C88.457 84.7147 90.0846 85.9485 91.8533 87.0224L96.0833 90.1879C99.4122 93.1252 107.202 102.977 110.903 103.836L109.65 104.362L109.034 104.388C102.751 104.603 96.4604 103.869 90.1547 104.007C84.7442 104.126 78.9362 104.417 73.6701 105.768C60.9005 109.044 47.8743 119.69 39.0433 129.124C26.8511 142.15 18.8509 158.154 19.5338 176.245C19.6858 180.274 20.1743 184.277 20.6627 188.276C16.8227 188.076 13.0089 188.74 9.16967 188.157C8.8938 188.116 8.61986 188.062 8.3445 188.017C5.33505 187.523 2.68411 185.955 0 184.571L0 163.272C0.80235 160.652 1.6709 158.052 2.60482 155.477C12.7087 127.987 36.6673 103.786 62.9968 91.584C66.6577 91.613 70.7983 89.4628 74.1232 88.0767C49.299 65.3535 26.2989 41.1299 0 20.0018L0 2.82481Z"/>
	<path fill="#974C00" d="M171.272 107.502C177.274 101.742 185.511 96.695 192.361 91.987C241.425 58.2673 303.12 35.5662 361.441 24.483C402.77 16.2684 444.852 12.4495 486.985 13.09C576.953 14.8969 682.738 42.1501 757.699 93.1682C775.26 104.287 798.574 120.921 812.508 136.078L812.568 136.445L811.952 198.442C794.273 187.446 776.736 175.569 757.481 167.397L757.395 167.166C753.832 165.446 750.249 163.766 746.648 162.127C657.801 121.839 557.207 110.957 461.094 124.795C436.759 128.298 412.11 132.709 388.59 140.043C381.119 142.373 373.784 145.331 366.463 148.089C366.504 148.57 368.129 149.537 368.675 150.25L363.561 148.281C358.024 145.162 350.812 143.242 344.782 141.232C312.506 130.468 275.102 120.871 241.257 117.806C234.514 116.233 227.518 115.533 220.671 114.508C204.625 110.409 187.656 109.706 171.272 107.502Z"/>
	<path fill="#49AFA5" d="M0 20.0018C26.2989 41.1299 49.299 65.3535 74.1232 88.0767C70.7983 89.4628 66.6577 91.613 62.9968 91.584C40.7034 75.4717 21.0719 53.3515 0 35.299L0 20.0018Z"/>
	<defs>
		<linearGradient id="gradient_0" gradientUnits="userSpaceOnUse" x1="30.431179" y1="36.701973" x2="29.614859" y2="159.69655">
			<stop offset="0" stop-color="#50B0AA"/>
			<stop offset="1" stop-color="#5FCECB"/>
		</linearGradient>
	</defs>
	<path fill="url(#gradient_0)" d="M0 35.299C21.0719 53.3515 40.7034 75.4717 62.9968 91.584C36.6673 103.786 12.7087 127.987 2.60482 155.477C1.6709 158.052 0.80235 160.652 0 163.272L0 141.472C10.0004 131.075 17.0202 116.362 29.6181 108.615C19.2696 100.754 9.39145 89.8787 0 80.7893L0 35.299Z"/>
	<path fill="#8CD6E5" d="M0 80.7893C9.39145 89.8787 19.2696 100.754 29.6181 108.615C17.0202 116.362 10.0004 131.075 0 141.472L0 80.7893Z"/>
	<path fill="#49AFA5" d="M110.903 103.836C116.905 103.109 123.298 103.765 129.324 104.079C143.333 104.867 157.32 106.009 171.272 107.502C187.656 109.706 204.625 110.409 220.671 114.508C219.731 115.003 219.084 115.412 218.04 115.612C216.348 114.761 205.44 114.734 202.472 114.447C171.554 111.456 140.716 105.837 109.65 104.362L110.903 103.836Z"/>
	<path fill="#6ED0C5" d="M20.6627 188.276C20.1743 184.277 19.6858 180.274 19.5338 176.245C18.8509 158.154 26.8511 142.15 39.0433 129.124C47.8743 119.69 60.9005 109.044 73.6701 105.768C78.9362 104.417 84.7442 104.126 90.1547 104.007C96.4604 103.869 102.751 104.603 109.034 104.388L109.65 104.362C140.716 105.837 171.554 111.456 202.472 114.447C205.44 114.734 216.348 114.761 218.04 115.612C158.45 132.597 105.519 180.465 75.8157 234.016C67.383 249.219 60.6002 264.682 55.9396 281.447C54.1676 287.822 53.301 294.63 51.3268 300.886C48.5378 294.292 46.4995 287.228 44.2936 280.418L37.9357 256.835C32.1614 234.109 25.0665 211.291 20.6627 188.276ZM82.6333 121.739C76.0796 121.947 69.4892 122.035 62.9484 122.48C49.1108 133.371 36.2025 147.996 26.5079 162.715C28.357 169.642 29.4354 176.743 30.9411 183.748C32.3813 190.449 34.2481 197.096 35.9901 203.725C40.6079 221.297 46.5048 238.67 50.3757 256.402C54.0089 242.562 61.2973 228.376 68.7816 216.195C88.0346 185.612 110.976 159.098 141.988 139.945C148.976 135.628 156.509 132.371 163.624 128.304C137.109 123.921 109.566 120.652 82.6333 121.739Z"/>
	<path fill="#228F81" d="M220.671 114.508C227.518 115.533 234.514 116.233 241.257 117.806C232.476 122.536 218.538 121.391 208.664 125.925L203.466 127.708C200.905 128.229 198.428 128.997 195.927 129.747C202.584 130.378 209.335 131.073 215.898 132.378C232.265 135.635 263.54 145.247 277.958 153.405C269.701 152.491 261.643 150.473 253.496 148.904C241.942 146.689 230.323 144.831 218.655 143.333C212.83 142.621 206.629 141.784 200.767 141.977C198.435 141.826 196.105 141.647 193.777 141.443C190.554 140.778 187.338 140.875 184.076 140.635C175.775 145.206 167.936 150.63 160.121 155.976C166.423 159.5 172.689 163.043 178.72 167.02C187.351 172.712 213.012 191.358 216.648 199.63C218.851 199.498 228.46 191.623 231.37 189.773C236.631 186.429 272.385 165.058 275.513 167.278C208.471 201.414 148.516 269.408 125.21 341.236C114.756 373.457 108.147 415.26 117.468 448.299C119.874 456.83 124.389 463.828 127.375 471.964C118.684 466.193 102.567 437.928 97.2943 428.362C95.9744 424.221 93.8981 420.227 91.8242 416.42C86.4416 403.324 79.5764 390.87 74.6332 377.575C67.8345 359.29 63.3803 340.077 57.6298 321.429C56.0111 314.53 53.4562 307.656 51.3268 300.886C53.301 294.63 54.1676 287.822 55.9396 281.447C60.6002 264.682 67.383 249.219 75.8157 234.016C105.519 180.465 158.45 132.597 218.04 115.612C219.084 115.412 219.731 115.003 220.671 114.508ZM70.109 269.369C64.7653 280.793 58.3247 307.518 60.1388 319.934C60.8179 324.697 62.4777 329.365 63.7322 334.004C66.1076 342.789 67.8705 351.446 72.3214 359.529C74.5871 366.447 78.4794 373.358 81.5115 380.005C89.902 398.401 97.0015 414.099 107.486 431.614C107.286 425.119 106.758 418.606 106.914 412.107C108.304 369.176 119.93 327.199 140.825 289.67C144.94 282.245 149.834 275.126 154.427 267.982C130.361 257.84 112.426 235.455 99.3935 213.635C99.201 213.955 99.0163 214.279 98.8397 214.608C96.2464 219.371 93.4255 224.621 93.0417 230.127C91.8578 247.109 101.789 279.101 106.524 296.189C109.459 306.778 112.231 317.401 115.284 327.958C113.874 331.342 112.099 334.637 110.485 337.932C93.5706 312.094 82.0675 290.156 73.3042 260.434C72.2213 263.406 71.1562 266.384 70.109 269.369ZM136.726 172.887C130.267 179.373 123.182 185.982 117.992 193.561C120.671 201.292 123.702 208.747 127.722 215.899C134.676 228.27 150.339 248.502 154.13 260.727C154.839 263.011 154.85 265.188 154.721 267.552C160.083 258.898 166.137 251.03 172.656 243.227C185.931 227.542 199.563 213.536 215.686 200.748C195.721 192.638 175.425 185.854 155.03 178.942C149.853 177.187 141.85 173.556 136.726 172.887Z"/>
	<path fill="#49AFA5" d="M208.664 125.925C218.538 121.391 232.476 122.536 241.257 117.806C275.102 120.871 312.506 130.468 344.782 141.232C350.812 143.242 358.024 145.162 363.561 148.281L363.413 149.093L364.762 149.924L364.8 150.617C362.561 152.009 358.697 149.33 357.108 150.588C349.286 149.893 324.755 147.84 318.993 151.395C319.929 152.015 320.591 152.102 321.697 152.223C311.849 153.821 302.042 156.148 292.766 159.888C286.964 162.227 281.374 165.074 275.513 167.278C272.385 165.058 236.631 186.429 231.37 189.773C228.46 191.623 218.851 199.498 216.648 199.63C213.012 191.358 187.351 172.712 178.72 167.02C172.689 163.043 166.423 159.5 160.121 155.976C167.936 150.63 175.775 145.206 184.076 140.635C187.338 140.875 190.554 140.778 193.777 141.443L186.5 141.307C207.63 152.365 230.056 160.786 251.288 171.632C259.719 167.009 268.43 161.772 277.72 159.086C272.785 156.95 267.144 155.971 261.924 154.712C250.269 151.902 238.701 149.418 226.903 147.275C218.356 145.722 208.992 144.782 200.767 141.977C206.629 141.784 212.83 142.621 218.655 143.333C230.323 144.831 241.942 146.689 253.496 148.904C261.643 150.473 269.701 152.491 277.958 153.405C263.54 145.247 232.265 135.635 215.898 132.378C209.335 131.073 202.584 130.378 195.927 129.747C198.428 128.997 200.905 128.229 203.466 127.708C206.961 129.207 215.23 128.348 219.487 128.95C239.018 131.711 268.877 141.632 283.478 154.485C291.27 152.082 299.294 150.255 306.876 147.236C282.685 136.665 235.074 125.96 208.664 125.925Z"/>
	<path fill="#974C00" d="M368.675 150.25C368.129 149.537 366.504 148.57 366.463 148.089C373.784 145.331 381.119 142.373 388.59 140.043C412.11 132.709 436.759 128.298 461.094 124.795C557.207 110.957 657.801 121.839 746.648 162.127C750.249 163.766 753.832 165.446 757.395 167.166L757.481 167.397C776.736 175.569 794.273 187.446 811.952 198.442L812.042 199.753L811.54 311.912C793.205 308.383 774.906 304.518 756.515 301.306C645.472 280.139 534.275 259.794 422.931 240.271L423.042 237.637C422.159 214.987 415.718 189.815 399.829 172.945C391.861 162.373 379.656 156.938 368.675 150.25Z"/>
	<path fill="#B8F2E6" d="M62.9484 122.48C69.4892 122.035 76.0796 121.947 82.6333 121.739C109.566 120.652 137.109 123.921 163.624 128.304C156.509 132.371 148.976 135.628 141.988 139.945C110.976 159.098 88.0346 185.612 68.7816 216.195C61.2973 228.376 54.0089 242.562 50.3757 256.402C46.5048 238.67 40.6079 221.297 35.9901 203.725C34.2481 197.096 32.3813 190.449 30.9411 183.748C29.4354 176.743 28.357 169.642 26.5079 162.715C36.2025 147.996 49.1108 133.371 62.9484 122.48Z"/>
	<path fill="#6ED0C5" d="M203.466 127.708L208.664 125.925C235.074 125.96 282.685 136.665 306.876 147.236C299.294 150.255 291.27 152.082 283.478 154.485C268.877 141.632 239.018 131.711 219.487 128.95C215.23 128.348 206.961 129.207 203.466 127.708Z"/>
	<path fill="#6ED0C5" d="M186.5 141.307L193.777 141.443C196.105 141.647 198.435 141.826 200.767 141.977C208.992 144.782 218.356 145.722 226.903 147.275C238.701 149.418 250.269 151.902 261.924 154.712C267.144 155.971 272.785 156.95 277.72 159.086C268.43 161.772 259.719 167.009 251.288 171.632C230.056 160.786 207.63 152.365 186.5 141.307Z"/>
	<path fill="#49AFA5" d="M357.108 150.588C358.697 149.33 362.561 152.009 364.8 150.617L364.762 149.924L363.413 149.093L363.561 148.281L368.675 150.25C379.656 156.938 391.861 162.373 399.829 172.945C395.992 171.181 392.089 166.932 388.674 164.309C378.117 156.201 369.625 154.197 357.108 150.588Z"/>
	<path fill="#228F81" d="M321.697 152.223C320.591 152.102 319.929 152.015 318.993 151.395C324.755 147.84 349.286 149.893 357.108 150.588C369.625 154.197 378.117 156.201 388.674 164.309C392.089 166.932 395.992 171.181 399.829 172.945C415.718 189.815 422.159 214.987 423.042 237.637L422.107 237.511C421.854 237.193 421.517 236.927 421.348 236.558C421.075 235.962 419.315 219.909 418.739 217.321C417.237 210.541 415.086 203.922 412.317 197.555C402.75 175.926 389.441 167.851 368.13 159.626C353.695 153.299 337.359 149.907 321.697 152.223Z"/>
	<path fill="#6ED0C5" d="M321.697 152.223C337.359 149.907 353.695 153.299 368.13 159.626C367.865 159.704 367.602 159.788 367.335 159.858C363.758 160.788 355.041 158.483 350.67 158.433C341.661 158.331 331.191 159.993 322.456 162.036C261.045 176.397 204.91 228.845 171.476 280.593C142.795 324.986 120.901 390.919 132.306 443.763C135.956 460.672 142.502 479.545 154.199 492.645C158.026 496.931 162.94 500.486 166.553 504.835C162.364 503.521 158.639 501.182 154.887 498.957C143.894 492.22 134.551 482.628 127.375 471.964C124.389 463.828 119.874 456.83 117.468 448.299C108.147 415.26 114.756 373.457 125.21 341.236C148.516 269.408 208.471 201.414 275.513 167.278C281.374 165.074 286.964 162.227 292.766 159.888C302.042 156.148 311.849 153.821 321.697 152.223Z"/>
	<path fill="#B8F2E6" d="M166.553 504.835C162.94 500.486 158.026 496.931 154.199 492.645C142.502 479.545 135.956 460.672 132.306 443.763C120.901 390.919 142.795 324.986 171.476 280.593C204.91 228.845 261.045 176.397 322.456 162.036C331.191 159.993 341.661 158.331 350.67 158.433C355.041 158.483 363.758 160.788 367.335 159.858C367.602 159.788 367.865 159.704 368.13 159.626C389.441 167.851 402.75 175.926 412.317 197.555C415.086 203.922 417.237 210.541 418.739 217.321C419.315 219.909 421.075 235.962 421.348 236.558C421.517 236.927 421.854 237.193 422.107 237.511L423.042 237.637L422.931 240.271C422.819 240.276 422.706 240.279 422.594 240.287C417.96 240.604 413.322 239.5 408.714 239.038C402.36 237.067 394.734 236.568 388.114 235.3L387.352 234.679C387.333 234.495 387.323 234.31 387.294 234.128C385.075 220.247 377.991 207.049 366.503 198.732C354.394 189.965 341.61 188.914 327.207 191.179C323.769 191.421 320.206 192.345 316.88 193.248C305.26 196.696 292.479 201.466 282.727 208.776L282.937 209.388C265.096 211.813 220.828 255.067 209.355 270.081C201.179 280.78 195.476 290.347 189.174 302.112L188.481 301.958C184.711 308.79 180.552 315.636 177.249 322.697C164.27 350.449 154.892 383.983 155.465 414.795C155.571 420.541 155.26 427.565 156.935 433.013C157.024 433.302 157.088 433.604 157.234 433.867C159.542 444.019 162.406 454.224 167.396 463.429C170.704 464.459 174.041 465.394 177.403 466.232C180.62 472.751 206.586 511.73 206.393 513.903C191.257 514.464 180.089 511.454 166.553 504.835Z"/>
	<path fill="#49AFA5" d="M117.992 193.561C123.182 185.982 130.267 179.373 136.726 172.887C141.85 173.556 149.853 177.187 155.03 178.942C175.425 185.854 195.721 192.638 215.686 200.748C199.563 213.536 185.931 227.542 172.656 243.227C166.137 251.03 160.083 258.898 154.721 267.552C154.85 265.188 154.839 263.011 154.13 260.727C150.339 248.502 134.676 228.27 127.722 215.899C123.702 208.747 120.671 201.292 117.992 193.561Z"/>
	<path fill="#5C491D" d="M0 184.571C2.68411 185.955 5.33505 187.523 8.3445 188.017C8.61986 188.062 8.8938 188.116 9.16967 188.157C13.0089 188.74 16.8227 188.076 20.6627 188.276C25.0665 211.291 32.1614 234.109 37.9357 256.835C35.5432 259.111 35.8202 260.881 35.7421 263.951C35.1332 287.893 35.6208 311.937 35.5234 335.893L35.4822 526.157L35.2965 769.25C35.2026 797.085 35.2895 824.92 35.5574 852.754C39.4474 852.544 43.2722 852.342 47.1639 852.592C31.4127 853.673 15.7293 854.247 0 855.843L0 184.571Z"/>
	<path fill="#56AEC9" d="M327.207 191.179C341.61 188.914 354.394 189.965 366.503 198.732C377.991 207.049 385.075 220.247 387.294 234.128C387.323 234.31 387.333 234.495 387.352 234.679C383.449 234.245 379.532 233.512 375.645 232.926C375.052 225.611 372.669 217.835 368.679 211.656C362.446 202.004 350.424 195.411 339.373 193.076C335.514 192.261 331.548 192.176 327.693 191.295C327.531 191.258 327.369 191.218 327.207 191.179Z"/>
	<path fill="#8CD6E5" d="M316.88 193.248C320.206 192.345 323.769 191.421 327.207 191.179C327.369 191.218 327.531 191.258 327.693 191.295C331.548 192.176 335.514 192.261 339.373 193.076C350.424 195.411 362.446 202.004 368.679 211.656C372.669 217.835 375.052 225.611 375.645 232.926C360.827 231.218 346.378 227.664 331.684 225.221C328.807 213.579 323.65 203.102 316.88 193.248Z"/>
	<path fill="#AED9E0" d="M282.937 209.388L282.727 208.776C292.479 201.466 305.26 196.696 316.88 193.248C323.65 203.102 328.807 213.579 331.684 225.221C325.036 223.517 316.748 222.471 309.88 222.44C309.782 222.308 309.695 222.167 309.586 222.045C303.074 214.754 292.354 210.73 282.937 209.388Z"/>
	<path fill="#613501" d="M812.042 199.753C813.663 200.23 815.358 200.637 816.928 201.256L817.026 202.02C816.844 226.703 816.799 251.387 816.892 276.07C816.928 287.266 816.183 299.121 817.149 310.245C817.258 311.504 817.683 312.261 818.275 313.355L811.54 311.912L812.042 199.753Z"/>
	<path fill="#FAF3DD" d="M189.174 302.112C195.476 290.347 201.179 280.78 209.355 270.081C220.828 255.067 265.096 211.813 282.937 209.388C292.354 210.73 303.074 214.754 309.586 222.045C309.695 222.167 309.782 222.308 309.88 222.44C314.86 228.164 318.416 235.508 323.56 240.861C327.754 251.588 331.329 262.15 331.494 273.805C331.675 293.743 326.899 312.415 319.08 330.644C307.231 359.925 273.507 401.513 244.062 414.011C241.067 415.282 237.64 416.232 234.774 417.706C233.219 418.242 231.618 418.48 229.993 418.701C219.556 420.124 210.121 418.117 201.724 411.612C192.164 404.205 184.905 390.009 182.393 378.37C181.31 373.35 181.198 368.006 180.548 362.907C181.16 356.478 180.872 349.914 181.285 343.452C182.162 329.71 184.902 315.239 189.174 302.112Z"/>
	<path fill="#49AFA5" d="M60.1388 319.934C58.3247 307.518 64.7653 280.793 70.109 269.369C74.9227 299.276 84.5967 324.435 94.3817 352.834C97.3252 361.377 100.916 370.024 103.202 378.749C104.654 365.161 107.767 351.336 110.485 337.932C112.099 334.637 113.874 331.342 115.284 327.958C112.231 317.401 109.459 306.778 106.524 296.189C101.789 279.101 91.8578 247.109 93.0417 230.127C93.4255 224.621 96.2464 219.371 98.8397 214.608C99.0163 214.279 99.201 213.955 99.3935 213.635C112.426 235.455 130.361 257.84 154.427 267.982C149.834 275.126 144.94 282.245 140.825 289.67C119.93 327.199 108.304 369.176 106.914 412.107C106.758 418.606 107.286 425.119 107.486 431.614C97.0015 414.099 89.902 398.401 81.5115 380.005C78.4794 373.358 74.5871 366.447 72.3214 359.529C71.6273 352.783 64.3941 341.29 64.8382 333.044L65.5836 333.101C65.9824 334.083 66.167 334.905 66.3941 335.936L67.2022 335.976C69.3558 340.449 70.1469 345.629 72.1796 350.188C80.5588 368.983 91.0338 389.103 104.325 404.916L105.611 393.702C100.958 386.204 96.8681 378.359 92.2639 370.831C81.7618 353.658 71.0616 337.128 63.8661 318.18C63.5406 317.323 63.4745 317.207 62.8019 316.492L61.7664 314.435L61.2398 314.421C61.0627 316.177 61.102 318.427 60.1388 319.934Z"/>
	<path fill="#974C00" d="M833.037 213.76C841.375 217.285 849.587 227.794 856.929 233.16L857.091 233.567C857.378 243.736 857.543 253.909 857.587 264.082C857.637 269.651 858.158 275.739 857.3 281.231C857.045 282.866 856.666 284.431 855.508 285.674C852.842 288.535 848.318 289.384 844.585 289.478C841.455 289.556 838.299 288.975 836.021 286.67C834.712 285.347 834.152 283.889 833.836 282.074C832.381 273.715 833.095 264.355 833.059 255.856C832.936 241.824 832.928 227.791 833.037 213.76Z"/>
	<path fill="#FAF3DD" d="M309.88 222.44C316.748 222.471 325.036 223.517 331.684 225.221C346.378 227.664 360.827 231.218 375.645 232.926C379.532 233.512 383.449 234.245 387.352 234.679L388.114 235.3L387.964 244.057C387.76 247.017 387.412 250.033 387.502 253C377.876 252.84 367.197 249.495 357.813 247.492C346.493 245.077 334.951 242.979 323.56 240.861C318.416 235.508 314.86 228.164 309.88 222.44Z"/>
	<path fill="#613501" d="M873.963 251.897C875.237 252.283 876.158 252.535 877.509 252.505C879.667 250.046 876.835 232.49 877.43 228.204L878.069 228.022C878.37 228.964 878.559 229.653 878.643 230.649C878.364 238.369 878.509 246.114 878.542 253.838C878.455 271.007 878.868 288.178 878.962 305.347C878.989 310.256 879.87 318.121 878.882 322.783C878.755 323.385 878.524 323.849 878.145 324.314L873.407 323.374C874.062 316.648 873.727 309.477 873.818 302.697C874.044 285.764 873.821 268.831 873.963 251.897Z"/>
	<path fill="#974C00" d="M878.643 230.649C883.803 241.962 888.666 253.407 893.228 264.974C894.877 269.199 896.992 273.689 897.869 278.139C906.773 295.285 913.536 313.863 920.034 332.029C906.033 329.668 892.068 327.096 878.145 324.314C878.524 323.849 878.755 323.385 878.882 322.783C879.87 318.121 878.989 310.256 878.962 305.347C878.868 288.178 878.455 271.007 878.542 253.838C878.509 246.114 878.364 238.369 878.643 230.649Z"/>
	<path fill="#FAF3DD" d="M388.114 235.3C394.734 236.568 402.36 237.067 408.714 239.038C407.625 239.142 406.572 239.241 405.499 239.467C404.8 240.893 404.329 241.912 404.271 243.544C404.867 244.751 405.259 245.389 406.582 245.881C409.453 246.949 412.639 247.009 415.641 248.157C458.383 257.454 501.676 264.497 544.614 272.9L762.334 315.447C849.682 331.552 936.906 348.316 1024 365.738L1024 381.816C1015.48 379.248 1006.1 378.382 997.317 376.89C984.573 374.638 971.85 372.266 959.15 369.776L785.48 336.49C739.132 327.18 692.865 317.464 646.687 307.344L520.042 281.291L449.835 266.47C439.693 264.305 429.602 261.67 419.408 259.787C410.07 256.996 397.111 253.75 387.502 253C387.412 250.033 387.76 247.017 387.964 244.057L388.114 235.3Z"/>
	<path fill="#FDDF93" d="M415.641 248.157C412.639 247.009 409.453 246.949 406.582 245.881C405.259 245.389 404.867 244.751 404.271 243.544C404.329 241.912 404.8 240.893 405.499 239.467C406.572 239.241 407.625 239.142 408.714 239.038C413.322 239.5 417.96 240.604 422.594 240.287C422.706 240.279 422.819 240.276 422.931 240.271C534.275 259.794 645.472 280.139 756.515 301.306C774.906 304.518 793.205 308.383 811.54 311.912L818.275 313.355C836.602 316.968 854.981 320.308 873.407 323.374L878.145 324.314C892.068 327.096 906.033 329.668 920.034 332.029C954.754 338.123 989.263 345.367 1024 351.326L1024 365.738C936.906 348.316 849.682 331.552 762.334 315.447L544.614 272.9C501.676 264.497 458.383 257.454 415.641 248.157Z"/>
	<path fill="#B8F2E6" d="M323.56 240.861C334.951 242.979 346.493 245.077 357.813 247.492C367.197 249.495 377.876 252.84 387.502 253C386.785 266.19 383.697 275.57 381.753 288.105C373.511 284.963 364.444 283.167 355.961 280.645C350.354 278.665 344.25 277.269 338.494 275.729L331.494 273.805C331.329 262.15 327.754 251.588 323.56 240.861Z"/>
	<path fill="#FAF3DD" d="M387.502 253C397.111 253.75 410.07 256.996 419.408 259.787C418.008 260.656 414.816 259.534 413.216 259.16C407.833 257.9 392.835 253.23 388.181 254.236C387.983 255.149 388.014 255.747 388.118 256.649C388.557 260.448 385.423 264.963 387.568 268.347C388.915 268.922 389.986 268.923 391.415 268.921C390.118 269.257 388.889 269.337 387.9 270.264C390.345 271.97 413.851 276.858 417.632 277.141C424.061 279.465 430.894 280.987 437.519 282.664C451.946 286.317 466.395 289.421 480.907 292.673L558.73 310.776L657.803 333.291L717.262 347.616C745.684 354.106 774.183 360.25 802.754 366.048C858.999 377.067 915.029 389.153 970.815 402.3C980.051 404.484 989.314 406.547 998.604 408.488C1007.06 410.205 1015.77 411.638 1024 414.245L1024 1024L674.64 1024C677.237 1016.41 684.123 1006.94 687.866 999.216C680.031 988.126 670.653 978.228 662.929 967.056C657.589 978.024 652.778 989.164 647.608 1000.2C644.198 994.785 639.829 989.928 635.79 984.98C630.138 978.024 624.569 971.002 619.082 963.916C606.931 947.94 594.969 931.759 582.589 915.961C576.42 908.089 569.848 900.516 563.612 892.69C551.462 877.443 539.611 861.897 527.896 846.319C522.958 839.754 517.904 833.196 512.699 826.839C510.036 823.586 506.319 820.194 504.33 816.529C510.179 807.881 516.372 799.157 520.904 789.743C505.294 770.046 489.889 750.187 474.691 730.171C467.15 720.188 459.217 710.425 452.228 700.042C447.926 709.526 440.705 718.449 434.943 727.139C430.926 725.805 348.754 616.114 335.837 602.3C327.125 591.713 319.07 580.558 310.537 569.82C304.364 562.053 297.205 554.448 291.701 546.221L291.304 544.961C298.322 538.715 305.447 527.65 311.332 520.1C307.722 515.382 303.808 510.911 300.277 506.125C295.011 498.986 290.045 491.249 284.115 484.661C281.161 486.092 257.371 498.279 256.382 499.994L257.032 502.033L256.021 502.293C255.219 501.754 254.552 501.05 253.572 501.059C253.269 502.173 253.308 502.177 253.907 503.115C255.721 505.954 258.741 508.15 260.854 510.796C264.12 514.884 288 546.264 289.499 547.139C298.338 557.77 306.972 568.569 315.397 579.531C321.906 588.062 328.139 596.915 335.1 605.085C337.94 610.96 350.427 625.149 355.335 631.506C359.457 636.844 363.142 642.585 367.36 647.831C369.697 650.736 372.568 652.948 374.451 656.208C377.333 661.2 381.382 665.476 384.873 670.044C391.294 678.587 397.804 687.062 404.401 695.47C408.14 700.144 412.185 704.571 415.944 709.23C426.886 722.79 437.057 737.192 447.704 751.002C452.814 757.63 458.386 763.958 463.632 770.489C474.048 783.456 483.833 796.895 494.269 809.851C498.981 815.702 503.606 821.78 508.459 827.496C511.818 831.453 515.656 835.211 518.777 839.328C521.43 842.827 523.725 846.629 526.275 850.209C532.199 858.582 538.269 866.851 544.481 875.013C546.904 878.202 549.809 881.032 552.361 884.119C557.124 889.88 561.648 896.027 566.316 901.902C569.385 905.765 571.797 910.11 574.848 913.98C583.074 924.413 591.79 934.546 599.932 945.047C606.254 953.201 612.085 961.776 618.205 970.086C623.098 976.73 628.313 983.141 633.237 989.766C636.809 994.572 640.08 999.638 643.818 1004.31C649.044 1010.85 655.964 1016.62 660.009 1024L620.635 1024C597.14 994.3 575.259 963.348 552.558 933.052L394.948 721.66L289.832 579.458L260.432 539.815C252.497 529.159 244.651 518.812 237.569 507.54C232.179 508.814 226.751 510.31 221.265 511.081C213.176 497.158 205.492 483.041 195.824 470.111C222.615 471.867 239.519 465.251 262.911 453.758C294.428 433.098 321.239 406.03 341.597 374.317C344.863 369.226 348.136 364.06 351.064 358.765C353.742 353.92 356.1 348.882 359.096 344.22L359.52 343.567C369.147 326.504 376.921 307.09 381.753 288.105C383.697 275.57 386.785 266.19 387.502 253ZM414.649 297.185C410.821 315.354 402.398 339.642 393.998 356.109C403.81 360.009 413.955 364.066 424.103 366.997C426.711 363.373 429.283 359.716 432.052 356.212C442.222 340.82 453.852 326.354 463.963 310.975C447.479 306.572 431.231 301.206 414.649 297.185ZM681.065 378.294C673.753 387.27 667.393 397.019 660.796 406.521L631.561 448.297C639.984 451.232 648.011 455.007 656.237 458.431C672.542 465.282 688.907 471.99 705.331 478.553C706.395 478.465 706.46 478.686 707.212 477.829C711.11 473.389 714.216 467.22 717.384 462.179C729.735 442.528 740.158 421.531 753.2 402.354C739.939 397.304 726.356 393.337 712.949 388.716C705.814 386.257 687.815 378.909 681.065 378.294ZM343.398 432.29L337.65 438.011C341.925 442.263 353.811 455.433 358.082 457.705C358.683 457.415 358.917 457.337 359.32 456.786C361.458 453.298 363.651 450.004 366.534 447.076C358.946 442.017 351.5 436.503 343.398 432.29ZM904.224 458.151L872.926 521.242C869.162 528.982 865.813 536.929 861.966 544.627C868.01 547.064 912.503 566.401 914.914 566.381C915.914 565.483 916.38 564.769 917.006 563.611C923.198 551.192 930.002 539.11 936.291 526.755C944.596 510.438 952.467 493.764 961.293 477.727C948.35 474.297 935.796 469.133 923.236 464.505C917.118 462.25 910.669 459.216 904.224 458.151ZM548.555 566.285C537.907 581.071 527.848 596.251 517.761 611.409C524.637 622.087 542.877 638.753 552.437 648.314C563.637 659.514 574.513 671.163 585.969 682.087C587.14 680.157 588.264 678.174 589.503 676.287C597.168 663.792 604.708 651.221 612.122 638.575C616.199 631.77 621.12 624.872 624.379 617.655C617.109 611.578 608.402 607.061 600.523 601.832C592.698 596.64 585.099 591.076 577.3 585.83C567.706 579.379 557.834 573.182 548.555 566.285ZM777.99 720.309C769.499 737.09 761.938 754.126 753.971 771.146C745.683 788.854 736.945 806.615 729.697 824.777C734.508 830.795 740.468 835.957 745.989 841.313C751.646 846.803 757.104 852.49 762.752 857.982L766.517 850.614C777.092 828.937 789.175 807.877 800.728 786.705C807.586 774.138 813.881 761.206 820.923 748.75C811.619 742.404 802.449 735.82 793.017 729.669C788.161 726.502 782.554 723.798 777.99 720.309Z"/>
	<path fill="#FAF3DD" d="M419.408 259.787C429.602 261.67 439.693 264.305 449.835 266.47L520.042 281.291L646.687 307.344C692.865 317.464 739.132 327.18 785.48 336.49L959.15 369.776C971.85 372.266 984.573 374.638 997.317 376.89C1006.1 378.382 1015.48 379.248 1024 381.816L1024 412.329C1019.28 411.569 1014.6 410.047 1009.93 408.987L974.322 400.732C945.833 394.064 917.108 388.007 888.504 381.834C857.135 375.064 825.504 369.407 794.125 362.659C739.266 350.645 684.531 338.075 629.927 324.951C611.435 320.622 592.752 317.014 574.254 312.678C551.067 307.063 527.829 301.665 504.542 296.484C497.393 294.855 490.134 293.638 483.009 291.928L443.787 282.483C435.31 280.397 426.585 277.736 417.935 276.555C413.957 274.27 397.68 271.274 391.415 268.921C389.986 268.923 388.915 268.922 387.568 268.347C385.423 264.963 388.557 260.448 388.118 256.649C388.014 255.747 387.983 255.149 388.181 254.236C392.835 253.23 407.833 257.9 413.216 259.16C414.816 259.534 418.008 260.656 419.408 259.787Z"/>
	<path fill="#613501" d="M35.5574 852.754C35.2895 824.92 35.2026 797.085 35.2965 769.25L35.4822 526.157L35.5234 335.893C35.6208 311.937 35.1332 287.893 35.7421 263.951C35.8202 260.881 35.5432 259.111 37.9357 256.835L44.2936 280.418C42.0228 284.097 42.1531 316.464 42.0667 323.516C41.9068 336.567 42.3358 349.606 42.3453 362.654L42.4795 484L42.2098 838.94C50.1345 831.307 57.2837 822.815 64.6409 814.639C73.7543 804.512 83.6599 794.187 91.4564 782.993C90.9373 724.756 90.8161 666.516 91.0929 608.277C92.4147 602.879 91.5507 595.507 91.549 589.903L91.565 554.596C93.318 556.753 95.0952 558.85 96.9764 560.897L97.0355 563.04C96.5901 615.193 96.4076 667.348 96.4878 719.502C96.5171 740.319 96.3002 761.184 96.659 781.995C114.304 781.607 131.966 781.97 149.615 781.911C199.453 781.483 249.294 781.527 299.131 782.04C316.421 782.088 333.712 781.977 351 781.705C360.135 781.593 372.668 780.559 381.488 782.148L384.507 786.661L94.3023 787.461C89.2438 791.047 45.0835 841.053 40.6167 847.456C55.4182 846.898 70.1976 847.289 85.0017 847.205L214.691 847.647C284.251 847.889 353.885 846.489 423.433 847.4L426.797 852.687C411.846 851.993 396.587 852.519 381.612 852.514L295.573 852.525L47.1639 852.592C43.2722 852.342 39.4474 852.544 35.5574 852.754Z"/>
	<path fill="#6ED0C5" d="M70.109 269.369C71.1562 266.384 72.2213 263.406 73.3042 260.434C82.0675 290.156 93.5706 312.094 110.485 337.932C107.767 351.336 104.654 365.161 103.202 378.749C100.916 370.024 97.3252 361.377 94.3817 352.834C84.5967 324.435 74.9227 299.276 70.109 269.369Z"/>
	<path fill="#FAF3DD" d="M417.632 277.141C413.851 276.858 390.345 271.97 387.9 270.264C388.889 269.337 390.118 269.257 391.415 268.921C397.68 271.274 413.957 274.27 417.935 276.555L417.632 277.141Z"/>
	<path fill="#AED9E0" d="M331.494 273.805L338.494 275.729C337.739 290.59 330.604 318.813 321.24 330.674L319.08 330.644C326.899 312.415 331.675 293.743 331.494 273.805Z"/>
	<path fill="#AED9E0" d="M338.494 275.729C344.25 277.269 350.354 278.665 355.961 280.645C354.054 287.136 353.105 293.9 351.08 300.371C347.33 312.349 342.669 324.067 338.985 336.059C345.67 339.183 352.454 341.511 359.52 343.567L359.096 344.22C356.1 348.882 353.742 353.92 351.064 358.765C348.136 364.06 344.863 369.226 341.597 374.317C321.239 406.03 294.428 433.098 262.911 453.758C257.041 447.379 251.835 440.221 246.457 433.418C230.197 437.71 211.039 439.907 195.645 431.487C185.867 426.14 179.992 416.568 177.061 406.035C174.074 395.303 175.196 372.425 180.548 362.907C181.198 368.006 181.31 373.35 182.393 378.37C184.905 390.009 192.164 404.205 201.724 411.612C210.121 418.117 219.556 420.124 229.993 418.701C231.618 418.48 233.219 418.242 234.774 417.706C237.8 422.481 242.301 429.41 246.486 433.133C250.624 431.974 254.47 430.192 258.291 428.242C288.159 412.998 312.471 384.185 329.218 355.748C332.783 349.694 336.927 343.049 339.08 336.357C333.255 334.204 326.88 333.193 321.24 330.674C330.604 318.813 337.739 290.59 338.494 275.729Z"/>
	<path fill="#FAF3DD" d="M417.935 276.555C426.585 277.736 435.31 280.397 443.787 282.483L483.009 291.928C490.134 293.638 497.393 294.855 504.542 296.484C527.829 301.665 551.067 307.063 574.254 312.678C592.752 317.014 611.435 320.622 629.927 324.951C684.531 338.075 739.266 350.645 794.125 362.659C825.504 369.407 857.135 375.064 888.504 381.834C917.108 388.007 945.833 394.064 974.322 400.732L1009.93 408.987C1014.6 410.047 1019.28 411.569 1024 412.329L1024 414.245C1015.77 411.638 1007.06 410.205 998.604 408.488C989.314 406.547 980.051 404.484 970.815 402.3C915.029 389.153 858.999 377.067 802.754 366.048C774.183 360.25 745.684 354.106 717.262 347.616L657.803 333.291L558.73 310.776L480.907 292.673C466.395 289.421 451.946 286.317 437.519 282.664C430.894 280.987 424.061 279.465 417.632 277.141L417.935 276.555Z"/>
	<path fill="#974C00" d="M42.2098 838.94L42.4795 484L42.3453 362.654C42.3358 349.606 41.9068 336.567 42.0667 323.516C42.1531 316.464 42.0228 284.097 44.2936 280.418C46.4995 287.228 48.5378 294.292 51.3268 300.886C53.4562 307.656 56.0111 314.53 57.6298 321.429C63.3803 340.077 67.8345 359.29 74.6332 377.575C79.5764 390.87 86.4416 403.324 91.8242 416.42C90.994 456.924 91.6918 497.456 91.4429 537.965C91.7664 545.416 91.295 552.848 91.1414 560.298C91.0178 570.865 90.9506 581.433 90.9399 592C90.9317 597.377 90.6868 602.927 91.0929 608.277C90.8161 666.516 90.9373 724.756 91.4564 782.993C83.6599 794.187 73.7543 804.512 64.6409 814.639C57.2837 822.815 50.1345 831.307 42.2098 838.94Z"/>
	<path fill="#AED9E0" d="M338.985 336.059C342.669 324.067 347.33 312.349 351.08 300.371C353.105 293.9 354.054 287.136 355.961 280.645C364.444 283.167 373.511 284.963 381.753 288.105C376.921 307.09 369.147 326.504 359.52 343.567C352.454 341.511 345.67 339.183 338.985 336.059Z"/>
	<path fill="#FAF3DD" d="M393.998 356.109C402.398 339.642 410.821 315.354 414.649 297.185C431.231 301.206 447.479 306.572 463.963 310.975C453.852 326.354 442.222 340.82 432.052 356.212C429.283 359.716 426.711 363.373 424.103 366.997C413.955 364.066 403.81 360.009 393.998 356.109Z"/>
	<path fill="#8CD6E5" d="M157.234 433.867C157.088 433.604 157.024 433.302 156.935 433.013C155.26 427.565 155.571 420.541 155.465 414.795C154.892 383.983 164.27 350.449 177.249 322.697C180.552 315.636 184.711 308.79 188.481 301.958L189.174 302.112C184.902 315.239 182.162 329.71 181.285 343.452C180.872 349.914 181.16 356.478 180.548 362.907C175.196 372.425 174.074 395.303 177.061 406.035C179.992 416.568 185.867 426.14 195.645 431.487C211.039 439.907 230.197 437.71 246.457 433.418C251.835 440.221 257.041 447.379 262.911 453.758C239.519 465.251 222.615 471.867 195.824 470.111C195.179 470.068 194.542 469.822 193.921 469.645C194.061 469.39 194.028 469.072 194.064 468.783C186.122 466.283 172.856 456.653 166.992 450.448C164.821 448.151 163.31 445.273 161.125 443.038C157.589 439.421 160.55 436.241 157.774 433.205L157.234 433.867Z"/>
	<path fill="#49AFA5" d="M60.1388 319.934C61.102 318.427 61.0627 316.177 61.2398 314.421L61.7664 314.435L62.8019 316.492C62.7554 322.862 65.4678 329.891 67.2022 335.976L66.3941 335.936C66.167 334.905 65.9824 334.083 65.5836 333.101L64.8382 333.044C64.3941 341.29 71.6273 352.783 72.3214 359.529C67.8705 351.446 66.1076 342.789 63.7322 334.004C62.4777 329.365 60.8179 324.697 60.1388 319.934Z"/>
	<path fill="#6ED0C5" d="M62.8019 316.492C63.4745 317.207 63.5406 317.323 63.8661 318.18C71.0616 337.128 81.7618 353.658 92.2639 370.831C96.8681 378.359 100.958 386.204 105.611 393.702L104.325 404.916C91.0338 389.103 80.5588 368.983 72.1796 350.188C70.1469 345.629 69.3558 340.449 67.2022 335.976C65.4678 329.891 62.7554 322.862 62.8019 316.492Z"/>
	<path fill="#B8F2E6" d="M234.774 417.706C237.64 416.232 241.067 415.282 244.062 414.011C273.507 401.513 307.231 359.925 319.08 330.644L321.24 330.674C326.88 333.193 333.255 334.204 339.08 336.357C336.927 343.049 332.783 349.694 329.218 355.748C312.471 384.185 288.159 412.998 258.291 428.242C254.47 430.192 250.624 431.974 246.486 433.133C242.301 429.41 237.8 422.481 234.774 417.706Z"/>
	<path fill="#FAF3DD" d="M631.561 448.297L660.796 406.521C667.393 397.019 673.753 387.27 681.065 378.294C687.815 378.909 705.814 386.257 712.949 388.716C726.356 393.337 739.939 397.304 753.2 402.354C740.158 421.531 729.735 442.528 717.384 462.179C714.216 467.22 711.11 473.389 707.212 477.829C706.46 478.686 706.395 478.465 705.331 478.553C688.907 471.99 672.542 465.282 656.237 458.431C648.011 455.007 639.984 451.232 631.561 448.297Z"/>
	<path fill="#974C00" d="M91.8242 416.42C93.8981 420.227 95.9744 424.221 97.2943 428.362C96.6801 433.092 96.9817 438.061 96.9879 442.825L97.0153 467.707L96.9764 560.897C95.0952 558.85 93.318 556.753 91.565 554.596L91.549 589.903C91.5507 595.507 92.4147 602.879 91.0929 608.277C90.6868 602.927 90.9317 597.377 90.9399 592C90.9506 581.433 91.0178 570.865 91.1414 560.298C91.295 552.848 91.7664 545.416 91.4429 537.965C91.6918 497.456 90.994 456.924 91.8242 416.42Z"/>
	<path fill="#974C00" d="M96.9764 560.897L97.0153 467.707L96.9879 442.825C96.9817 438.061 96.6801 433.092 97.2943 428.362C102.567 437.928 118.684 466.193 127.375 471.964C134.551 482.628 143.894 492.22 154.887 498.957C153.245 510.299 154.09 527.05 154.032 538.927L154.061 604.509C154.146 615.708 154.569 626.928 154.472 638.125C161.689 644.377 168.216 651.397 175.229 657.874C188.795 670.405 203.862 682.344 219.355 692.389C230.8 699.81 242.863 707.143 255.002 713.374C261.893 716.912 269.438 719.687 276.053 723.651C261.209 724.51 246.083 724.032 231.205 724.034L154.073 724.008C153.998 715.358 154.451 706.693 154.478 698.038L154.245 638.247C131.954 615.555 113.66 590.098 97.0355 563.04L96.9764 560.897Z"/>
	<path fill="#FAF3DD" d="M337.65 438.011L343.398 432.29C351.5 436.503 358.946 442.017 366.534 447.076C363.651 450.004 361.458 453.298 359.32 456.786C358.917 457.337 358.683 457.415 358.082 457.705C353.811 455.433 341.925 442.263 337.65 438.011Z"/>
	<path fill="#56AEC9" d="M157.234 433.867L157.774 433.205C160.55 436.241 157.589 439.421 161.125 443.038C163.31 445.273 164.821 448.151 166.992 450.448C172.856 456.653 186.122 466.283 194.064 468.783C194.028 469.072 194.061 469.39 193.921 469.645C188.347 469.077 182.836 467.554 177.403 466.232C174.041 465.394 170.704 464.459 167.396 463.429C162.406 454.224 159.542 444.019 157.234 433.867Z"/>
	<path fill="#FAF3DD" d="M861.966 544.627C865.813 536.929 869.162 528.982 872.926 521.242L904.224 458.151C910.669 459.216 917.118 462.25 923.236 464.505C935.796 469.133 948.35 474.297 961.293 477.727C952.467 493.764 944.596 510.438 936.291 526.755C930.002 539.11 923.198 551.192 917.006 563.611C916.38 564.769 915.914 565.483 914.914 566.381C912.503 566.401 868.01 547.064 861.966 544.627Z"/>
	<path fill="#FAF3DD" d="M177.403 466.232C182.836 467.554 188.347 469.077 193.921 469.645C194.542 469.822 195.179 470.068 195.824 470.111C205.492 483.041 213.176 497.158 221.265 511.081L221.131 511.367C216.436 512.484 211.641 512.991 206.917 513.946L206.393 513.903C206.586 511.73 180.62 472.751 177.403 466.232Z"/>
	<path fill="#FAF3DD" d="M257.032 502.033L256.382 499.994C257.371 498.279 281.161 486.092 284.115 484.661C290.045 491.249 295.011 498.986 300.277 506.125C303.808 510.911 307.722 515.382 311.332 520.1C305.447 527.65 298.322 538.715 291.304 544.961C290.958 543.99 290.604 542.964 289.966 542.141C286.504 537.678 259.029 503.145 257.032 502.033Z"/>
	<path fill="#974C00" d="M154.887 498.957C158.639 501.182 162.364 503.521 166.553 504.835C180.089 511.454 191.257 514.464 206.393 513.903L206.917 513.946L343.401 724.523C322.138 723.717 300.471 724.419 279.18 724.547L276.053 723.651C269.438 719.687 261.893 716.912 255.002 713.374C242.863 707.143 230.8 699.81 219.355 692.389C203.862 682.344 188.795 670.405 175.229 657.874C168.216 651.397 161.689 644.377 154.472 638.125C154.569 626.928 154.146 615.708 154.061 604.509L154.032 538.927C154.09 527.05 153.245 510.299 154.887 498.957Z"/>
	<path fill="#FAF3DD" d="M257.032 502.033C259.029 503.145 286.504 537.678 289.966 542.141C290.604 542.964 290.958 543.99 291.304 544.961L291.701 546.221L290.499 545.814C289.664 546.704 289.975 546.246 289.499 547.139C288 546.264 264.12 514.884 260.854 510.796C258.741 508.15 255.721 505.954 253.907 503.115C253.308 502.177 253.269 502.173 253.572 501.059C254.552 501.05 255.219 501.754 256.021 502.293L257.032 502.033Z"/>
	<path fill="#FAF3DD" d="M221.265 511.081C226.751 510.31 232.179 508.814 237.569 507.54C244.651 518.812 252.497 529.159 260.432 539.815L289.832 579.458L394.948 721.66L552.558 933.052C575.259 963.348 597.14 994.3 620.635 1024L565.607 1024C559.713 1014.63 553.148 1005.71 546.946 996.541L519.718 955.484C484.728 901.814 449.302 848.43 413.444 795.336L326.127 668.017L258.925 568.224C253.335 559.855 225.72 514.298 221.131 511.367L221.265 511.081Z"/>
	<path fill="#FDDF93" d="M206.917 513.946C211.641 512.991 216.436 512.484 221.131 511.367C225.72 514.298 253.335 559.855 258.925 568.224L326.127 668.017L413.444 795.336C449.302 848.43 484.728 901.814 519.718 955.484L546.946 996.541C553.148 1005.71 559.713 1014.63 565.607 1024L535.516 1024L464.858 913.584C458.5 903.837 453.141 893.401 446.4 883.913C440.25 873.332 433.293 863.073 426.797 852.687L423.433 847.4C419.049 839.832 413.864 832.616 409.109 825.268L384.507 786.661L381.488 782.148C374.492 771.753 367.912 761.083 360.91 750.686C355.225 741.864 349.388 733.142 343.401 724.523L206.917 513.946Z"/>
	<path fill="#FAF3DD" d="M289.499 547.139C289.975 546.246 289.664 546.704 290.499 545.814L291.701 546.221C297.205 554.448 304.364 562.053 310.537 569.82C319.07 580.558 327.125 591.713 335.837 602.3C335.628 602.215 335.415 602.137 335.21 602.044C334.292 601.63 333.677 601.142 332.895 600.524C333.813 601.857 334.752 603.176 335.596 604.557L335.1 605.085C328.139 596.915 321.906 588.062 315.397 579.531C306.972 568.569 298.338 557.77 289.499 547.139Z"/>
	<path fill="#974C00" d="M97.0355 563.04C113.66 590.098 131.954 615.555 154.245 638.247L154.478 698.038C154.451 706.693 153.998 715.358 154.073 724.008L231.205 724.034C246.083 724.032 261.209 724.51 276.053 723.651L279.18 724.547C295.606 734.624 341.741 749.077 360.91 750.686C367.912 761.083 374.492 771.753 381.488 782.148C372.668 780.559 360.135 781.593 351 781.705C333.712 781.977 316.421 782.088 299.131 782.04C249.294 781.527 199.453 781.483 149.615 781.911C131.966 781.97 114.304 781.607 96.659 781.995C96.3002 761.184 96.5171 740.319 96.4878 719.502C96.4076 667.348 96.5901 615.193 97.0355 563.04Z"/>
	<path fill="#FAF3DD" d="M517.761 611.409C527.848 596.251 537.907 581.071 548.555 566.285C557.834 573.182 567.706 579.379 577.3 585.83C585.099 591.076 592.698 596.64 600.523 601.832C608.402 607.061 617.109 611.578 624.379 617.655C621.12 624.872 616.199 631.77 612.122 638.575C604.708 651.221 597.168 663.792 589.503 676.287C588.264 678.174 587.14 680.157 585.969 682.087C574.513 671.163 563.637 659.514 552.437 648.314C542.877 638.753 524.637 622.087 517.761 611.409Z"/>
	<path fill="#FAF3DD" d="M335.837 602.3C348.754 616.114 430.926 725.805 434.943 727.139C440.726 732.044 453.159 749.908 458.468 756.75C473.283 775.843 488.721 794.581 503.121 813.974C503.755 814.828 504.011 815.529 504.33 816.529C506.319 820.194 510.036 823.586 512.699 826.839C517.904 833.196 522.958 839.754 527.896 846.319C539.611 861.897 551.462 877.443 563.612 892.69C569.848 900.516 576.42 908.089 582.589 915.961C594.969 931.759 606.931 947.94 619.082 963.916C624.569 971.002 630.138 978.024 635.79 984.98C639.829 989.928 644.198 994.785 647.608 1000.2C649.428 1006.65 662.567 1016.87 666.739 1024L660.009 1024C655.964 1016.62 649.044 1010.85 643.818 1004.31C640.08 999.638 636.809 994.572 633.237 989.766C628.313 983.141 623.098 976.73 618.205 970.086C612.085 961.776 606.254 953.201 599.932 945.047C591.79 934.546 583.074 924.413 574.848 913.98C571.797 910.11 569.385 905.765 566.316 901.902C561.648 896.027 557.124 889.88 552.361 884.119C549.809 881.032 546.904 878.202 544.481 875.013C538.269 866.851 532.199 858.582 526.275 850.209C523.725 846.629 521.43 842.827 518.777 839.328C515.656 835.211 511.818 831.453 508.459 827.496C503.606 821.78 498.981 815.702 494.269 809.851C483.833 796.895 474.048 783.456 463.632 770.489C458.386 763.958 452.814 757.63 447.704 751.002C437.057 737.192 426.886 722.79 415.944 709.23C412.185 704.571 408.14 700.144 404.401 695.47C397.804 687.062 391.294 678.587 384.873 670.044C381.382 665.476 377.333 661.2 374.451 656.208C372.568 652.948 369.697 650.736 367.36 647.831C363.142 642.585 359.457 636.844 355.335 631.506C350.427 625.149 337.94 610.96 335.1 605.085L335.596 604.557C334.752 603.176 333.813 601.857 332.895 600.524C333.677 601.142 334.292 601.63 335.21 602.044C335.415 602.137 335.628 602.215 335.837 602.3Z"/>
	<path fill="#FAF3DD" d="M434.943 727.139C440.705 718.449 447.926 709.526 452.228 700.042C459.217 710.425 467.15 720.188 474.691 730.171C489.889 750.187 505.294 770.046 520.904 789.743C516.372 799.157 510.179 807.881 504.33 816.529C504.011 815.529 503.755 814.828 503.121 813.974C488.721 794.581 473.283 775.843 458.468 756.75C453.159 749.908 440.726 732.044 434.943 727.139Z"/>
	<path fill="#FAF3DD" d="M729.697 824.777C736.945 806.615 745.683 788.854 753.971 771.146C761.938 754.126 769.499 737.09 777.99 720.309C782.554 723.798 788.161 726.502 793.017 729.669C802.449 735.82 811.619 742.404 820.923 748.75C813.881 761.206 807.586 774.138 800.728 786.705C789.175 807.877 777.092 828.937 766.517 850.614L762.752 857.982C757.104 852.49 751.646 846.803 745.989 841.313C740.468 835.957 734.508 830.795 729.697 824.777Z"/>
	<path fill="#974C00" d="M279.18 724.547C300.471 724.419 322.138 723.717 343.401 724.523C349.388 733.142 355.225 741.864 360.91 750.686C341.741 749.077 295.606 734.624 279.18 724.547Z"/>
	<path fill="#974C00" d="M94.3023 787.461L384.507 786.661L409.109 825.268C413.864 832.616 419.049 839.832 423.433 847.4C353.885 846.489 284.251 847.889 214.691 847.647L85.0017 847.205C70.1976 847.289 55.4182 846.898 40.6167 847.456C45.0835 841.053 89.2438 791.047 94.3023 787.461ZM160.811 808.234C147.894 808.568 136.387 809.156 123.865 812.724C140.736 824.4 164.279 823.826 183.702 821.128C196.212 818.974 208.476 816.729 220.73 813.33C204.457 807.101 178.427 807.811 160.811 808.234ZM304.579 808.786C297.669 809.206 285.086 809.175 280.236 814.755C279.445 815.666 279.457 816.05 279.343 817.204C280.555 819.528 283.349 820.288 285.715 821.037C298.635 825.126 325.929 823.339 339.75 821.05C346.524 820.231 361.36 818.578 366.949 814.893L367.26 814.075C363.135 809.657 337.152 808.852 330.17 808.61C321.694 808.316 313.045 808.284 304.579 808.786Z"/>
	<path fill="#974C00" d="M123.865 812.724C136.387 809.156 147.894 808.568 160.811 808.234C178.427 807.811 204.457 807.101 220.73 813.33C208.476 816.729 196.212 818.974 183.702 821.128C164.279 823.826 140.736 824.4 123.865 812.724Z"/>
	<path fill="#974C00" d="M339.75 821.05C325.929 823.339 298.635 825.126 285.715 821.037C283.349 820.288 280.555 819.528 279.343 817.204C279.457 816.05 279.445 815.666 280.236 814.755C285.086 809.175 297.669 809.206 304.579 808.786C313.045 808.284 321.694 808.316 330.17 808.61C337.152 808.852 363.135 809.657 367.26 814.075L366.949 814.893C361.36 818.578 346.524 820.231 339.75 821.05Z"/>
	<path fill="#936D61" d="M47.1639 852.592L295.573 852.525L381.612 852.514C396.587 852.519 411.846 851.993 426.797 852.687C433.293 863.073 440.25 873.332 446.4 883.913C445.535 884.355 445.034 884.432 444.056 884.417C434.949 884.281 425.766 883.214 416.651 882.831C392.563 881.785 368.464 881.024 344.358 880.548C265.587 879.424 186.802 881.184 108.16 885.823C85.8789 887.015 63.6119 888.46 41.3636 890.161C28.039 891.283 13.2554 893.706 0 893.548L0 855.843C15.7293 854.247 31.4127 853.673 47.1639 852.592Z"/>
	<path fill="#A0837C" d="M446.4 883.913C453.141 893.401 458.5 903.837 464.858 913.584L535.516 1024L109.062 1024C104.456 1022.42 98.1708 1022.19 93.3314 1021.54C84.8659 1020.44 76.4151 1019.24 67.9813 1017.92C45.1811 1014.31 22.508 1009.94 0 1004.82L0 893.548C13.2554 893.706 28.039 891.283 41.3636 890.161C63.6119 888.46 85.8789 887.015 108.16 885.823C186.802 881.184 265.587 879.424 344.358 880.548C368.464 881.024 392.563 881.785 416.651 882.831C425.766 883.214 434.949 884.281 444.056 884.417C445.034 884.432 445.535 884.355 446.4 883.913Z"/>
	<path fill="#FAF3DD" d="M647.608 1000.2C652.778 989.164 657.589 978.024 662.929 967.056C670.653 978.228 680.031 988.126 687.866 999.216C684.123 1006.94 677.237 1016.41 674.64 1024L666.739 1024C662.567 1016.87 649.428 1006.65 647.608 1000.2Z"/>
	<path fill="#936D61" d="M0 1004.82C22.508 1009.94 45.1811 1014.31 67.9813 1017.92C76.4151 1019.24 84.8659 1020.44 93.3314 1021.54C98.1708 1022.19 104.456 1022.42 109.062 1024L0 1024L0 1004.82Z"/>
</svg>
