<?xml version="1.0" encoding="utf-8" ?>
<svg xmlns="http://www.w3.org/2000/svg" xmlns:xlink="http://www.w3.org/1999/xlink" width="1024" height="1024">
	<path fill="#D6B46E" d="M0 0L120.983 0C160.324 29.9262 199.317 60.3077 237.954 91.1383C210.54 102.103 182.82 112.149 155.592 123.603C130.825 134.021 106.532 145.763 82.2282 157.215C66.5568 164.599 50.7402 172.172 35.3779 180.17C23.6853 186.257 11.9777 193.113 0 198.567L0 0Z"/>
	<path fill="#D69D35" d="M120.983 0L557.654 0C548.178 2.78411 538.372 4.4597 528.761 6.72429C513.119 10.41 497.532 14.3837 481.934 18.2581C423.696 32.4583 365.989 48.7565 308.927 67.1211C293.145 72.0765 277.439 77.2715 261.815 82.7041C254.344 85.2965 246.649 87.7147 239.364 90.7769L237.954 91.1383C199.317 60.3077 160.324 29.9262 120.983 0Z"/>
	<path fill="#D4E09B" d="M557.654 0L627.879 0C642.714 18.8121 655.941 39.2685 669.545 59.0071C673.617 64.9153 690.374 90.6904 693.358 92.7944C730.26 83.2469 767.987 76.4468 805.547 70.053C855.807 61.4367 906.287 54.1585 956.934 48.2259C979.259 45.601 1001.69 43.854 1024 41.1215L1024 141.853C1015.32 142.15 1006.73 143.568 998.143 144.812L965.207 149.559C926.647 155.074 888.5 161.253 850.315 168.978C819.434 175.226 788.729 182.782 757.779 188.571C751.063 179.888 745.261 170.062 739.01 161.004C723.525 138.426 708.174 115.756 692.959 92.9942C687.087 93.1508 680.559 95.3706 674.858 96.7848L644.844 104.235C549.156 127.06 455.174 156.523 363.581 192.411C352.877 181.788 340.612 172.293 329.014 162.651C312.122 148.609 295.373 134.312 278.144 120.692L249.112 98.0557C245.898 95.5721 242.508 93.3468 239.364 90.7769C246.649 87.7147 254.344 85.2965 261.815 82.7041C277.439 77.2715 293.145 72.0765 308.927 67.1211C365.989 48.7565 423.696 32.4583 481.934 18.2581C497.532 14.3837 513.119 10.41 528.761 6.72429C538.372 4.4597 548.178 2.78411 557.654 0Z"/>
	<path fill="#D69D35" d="M627.879 0L1024 0L1024 41.1215C1001.69 43.854 979.259 45.601 956.934 48.2259C906.287 54.1585 855.807 61.4367 805.547 70.053C767.987 76.4468 730.26 83.2469 693.358 92.7944C690.374 90.6904 673.617 64.9153 669.545 59.0071C655.941 39.2685 642.714 18.8121 627.879 0Z"/>
	<path fill="#FAF3DD" d="M237.954 91.1383L239.364 90.7769C242.508 93.3468 245.898 95.5721 249.112 98.0557L278.144 120.692C295.373 134.312 312.122 148.609 329.014 162.651C340.612 172.293 352.877 181.788 363.581 192.411C305.011 216.044 246.382 240.034 190.247 269.111C166.757 281.278 142.867 293.429 119.917 306.585C102.455 316.594 85.4481 328.183 67.5829 337.42C61.8729 333.608 55.1767 330.666 49.0541 327.561C32.7424 319.288 15.9147 311.846 0 302.826L0 198.567C11.9777 193.113 23.6853 186.257 35.3779 180.17C50.7402 172.172 66.5568 164.599 82.2282 157.215C106.532 145.763 130.825 134.021 155.592 123.603C182.82 112.149 210.54 102.103 237.954 91.1383Z"/>
	<defs>
		<linearGradient id="gradient_0" gradientUnits="userSpaceOnUse" x1="585.6377" y1="917.29938" x2="416.8374" y2="154.1461">
			<stop offset="0" stop-color="#E8F9FC"/>
			<stop offset="1" stop-color="#FFFEF1"/>
		</linearGradient>
	</defs>
	<path fill="url(#gradient_0)" d="M363.581 192.411C455.174 156.523 549.156 127.06 644.844 104.235L674.858 96.7848C680.559 95.3706 687.087 93.1508 692.959 92.9942C708.174 115.756 723.525 138.426 739.01 161.004C745.261 170.062 751.063 179.888 757.779 188.571C788.729 182.782 819.434 175.226 850.315 168.978C888.5 161.253 926.647 155.074 965.207 149.559L998.143 144.812C1006.73 143.568 1015.32 142.15 1024 141.853L1024 230.553C973.505 237.273 923.317 246.121 873.568 257.074C858.25 260.301 843.02 263.938 827.896 267.981C822.671 269.326 817.178 270.334 812.043 271.947C823.742 289.402 835.3 306.95 846.718 324.59C850.144 329.944 854.373 335.205 857.389 340.742C858.032 341.923 858.324 342.37 858.172 343.755C858.164 343.826 858.122 343.889 858.098 343.956C851.514 345.231 845.039 347.252 838.563 348.989C821.124 353.665 803.954 358.965 786.626 363.988C753.354 373.634 720.873 384.718 688.339 396.573C654.055 408.896 620.211 422.411 586.868 437.094C507.237 472.881 431.527 516.82 360.948 568.206C336.466 586.139 312.141 605.651 289.545 625.907C281.757 632.888 274.226 640.535 266.82 647.94C262.306 652.455 253.362 663.12 248.559 665.604C229.886 684.758 212.952 706.166 197.207 727.746C181.618 749.113 166.559 771.848 153.975 795.136C122.543 853.303 103.621 919.595 104.508 985.946C104.678 998.677 106.874 1011.34 107.091 1024L0 1024L0 381.787C11.4578 375.085 22.4803 367.028 33.5222 359.619C44.7798 352.065 56.306 344.939 67.5829 337.42C85.4481 328.183 102.455 316.594 119.917 306.585C142.867 293.429 166.757 281.278 190.247 269.111C246.382 240.034 305.011 216.044 363.581 192.411Z"/>
	<path fill="#FAF3DD" d="M812.043 271.947C817.178 270.334 822.671 269.326 827.896 267.981C843.02 263.938 858.25 260.301 873.568 257.074C923.317 246.121 973.505 237.273 1024 230.553L1024 310.323C988.684 315.853 953.517 322.3 918.536 329.658C898.839 333.81 878.599 337.61 859.406 343.73L858.098 343.956C858.122 343.889 858.164 343.826 858.172 343.755C858.324 342.37 858.032 341.923 857.389 340.742C854.373 335.205 850.144 329.944 846.718 324.59C835.3 306.95 823.742 289.402 812.043 271.947Z"/>
	<path fill="#FAF3DD" d="M0 302.826C15.9147 311.846 32.7424 319.288 49.0541 327.561C55.1767 330.666 61.8729 333.608 67.5829 337.42C56.306 344.939 44.7798 352.065 33.5222 359.619C22.4803 367.028 11.4578 375.085 0 381.787L0 302.826Z"/>
	<path fill="#FAF3DD" d="M859.406 343.73C878.599 337.61 898.839 333.81 918.536 329.658C953.517 322.3 988.684 315.853 1024 310.323L1024 386.769C996.776 391.797 969.656 397.379 942.659 403.512C933.226 405.515 923.831 407.697 914.481 410.058C910.875 410.981 906.687 411.738 903.275 413.204C905.786 418.634 909.375 423.789 912.496 428.912C919.748 440.88 927.255 452.691 935.012 464.337C938.386 469.449 943.08 475.08 945.622 480.594C936.89 483.598 927.656 485.584 918.754 488.072C904.381 492.242 890.034 496.503 875.714 500.854C854.701 507.247 834.075 514.966 813.505 522.642C793.388 530.149 773.058 537.658 753.539 546.64L753.236 546.863C750.538 542.977 744.554 538.399 740.973 535.109C732.228 527.034 723.324 519.134 714.265 511.413C705.268 503.726 694.951 495.691 687.355 486.642C708.291 478.6 728.695 469.306 749.733 461.493C785.729 448.125 822.482 435.492 859.349 424.767C873.723 420.585 888.384 417.153 902.845 413.249C900.26 407.799 896.72 402.641 893.606 397.463C886.411 385.269 878.882 373.275 871.026 361.495C868.769 358.045 860.221 346.908 859.406 343.73Z"/>
	<defs>
		<linearGradient id="gradient_1" gradientUnits="userSpaceOnUse" x1="561.08057" y1="370.30988" x2="588.08765" y2="679.95526">
			<stop offset="0" stop-color="#EBF6D8"/>
			<stop offset="1" stop-color="#F3F8F1"/>
		</linearGradient>
	</defs>
	<path fill="url(#gradient_1)" d="M858.098 343.956L859.406 343.73C860.221 346.908 868.769 358.045 871.026 361.495C878.882 373.275 886.411 385.269 893.606 397.463C896.72 402.641 900.26 407.799 902.845 413.249C888.384 417.153 873.723 420.585 859.349 424.767C822.482 435.492 785.729 448.125 749.733 461.493C728.695 469.306 708.291 478.6 687.355 486.642C678.172 490.928 668.697 494.583 659.531 498.906C638.069 509.285 616.806 520.074 595.756 531.266C575.427 542.075 555.349 552.962 535.794 565.157C525.815 571.381 514.571 577.426 505.455 584.836C485.603 596.641 467.016 610.453 448.842 624.66C429.561 639.583 410.988 655.398 393.182 672.053C383.297 681.45 374.117 691.52 364.492 701.164C353.846 698.647 343.433 695.045 332.96 691.894C304.743 683.404 276.77 674.078 248.559 665.604C253.362 663.12 262.306 652.455 266.82 647.94C274.226 640.535 281.757 632.888 289.545 625.907C312.141 605.651 336.466 586.139 360.948 568.206C431.527 516.82 507.237 472.881 586.868 437.094C620.211 422.411 654.055 408.896 688.339 396.573C720.873 384.718 753.354 373.634 786.626 363.988C803.954 358.965 821.124 353.665 838.563 348.989C845.039 347.252 851.514 345.231 858.098 343.956Z"/>
	<path fill="#D4E09B" d="M903.275 413.204C906.687 411.738 910.875 410.981 914.481 410.058C923.831 407.697 933.226 405.515 942.659 403.512C969.656 397.379 996.776 391.797 1024 386.769L1024 462.017C1006.63 465.747 989.298 469.687 972.019 473.838C963.527 475.896 954.154 477.669 945.95 480.626L945.622 480.594C943.08 475.08 938.386 469.449 935.012 464.337C927.255 452.691 919.748 440.88 912.496 428.912C909.375 423.789 905.786 418.634 903.275 413.204Z"/>
	<path fill="#D69D35" d="M945.95 480.626C954.154 477.669 963.527 475.896 972.019 473.838C989.298 469.687 1006.63 465.747 1024 462.017L1024 533.385C1011.57 537.125 999.062 541.086 986.456 544.157L986.117 544.164C976.621 531.183 968.156 517.038 959.713 503.352C955.12 495.907 949.902 488.399 945.95 480.626Z"/>
	<path fill="#D6B46E" d="M945.622 480.594L945.95 480.626C949.902 488.399 955.12 495.907 959.713 503.352C968.156 517.038 976.621 531.183 986.117 544.164C978.419 547.369 969.935 549.531 961.976 552.053C942.841 558.119 923.507 563.685 904.44 569.94C893.82 573.423 883.419 577.714 873.028 581.822C854.79 589.005 836.647 596.429 818.605 604.091L818.221 604.205C804.86 593.251 792.021 581.414 779.106 569.931C770.623 562.388 761.247 554.934 753.539 546.64C773.058 537.658 793.388 530.149 813.505 522.642C834.075 514.966 854.701 507.247 875.714 500.854C890.034 496.503 904.381 492.242 918.754 488.072C927.656 485.584 936.89 483.598 945.622 480.594Z"/>
	<path fill="#FAF3DD" d="M505.455 584.836C514.571 577.426 525.815 571.381 535.794 565.157C555.349 552.962 575.427 542.075 595.756 531.266C616.806 520.074 638.069 509.285 659.531 498.906C668.697 494.583 678.172 490.928 687.355 486.642C694.951 495.691 705.268 503.726 714.265 511.413C723.324 519.134 732.228 527.034 740.973 535.109C744.554 538.399 750.538 542.977 753.236 546.863C742.785 551.876 731.926 555.964 721.522 561.088C688.945 577.132 657.689 595.004 626.464 613.49C618.63 618.128 600.875 627.827 595.012 633.659L594.405 633.733C586.684 629.887 579.274 625.335 571.692 621.212L505.455 584.836Z"/>
	<path fill="#974C00" d="M986.456 544.157C999.062 541.086 1011.57 537.125 1024 533.385L1024 603.858C1018.97 597.44 986.945 548.208 986.456 544.157Z"/>
	<path fill="#974C00" d="M986.117 544.164L986.456 544.157C986.945 548.208 1018.97 597.44 1024 603.858L1024 604.453C1010.34 609.873 996.059 613.701 982.239 618.708C948.585 630.61 915.454 643.94 882.936 658.663L882.615 658.701C869.653 648.284 857.257 636.856 844.519 626.129C838.264 620.881 832.042 615.592 825.854 610.263C823.468 608.224 820.722 606.394 818.605 604.091C836.647 596.429 854.79 589.005 873.028 581.822C883.419 577.714 893.82 573.423 904.44 569.94C923.507 563.685 942.841 558.119 961.976 552.053C969.935 549.531 978.419 547.369 986.117 544.164Z"/>
	<path fill="#D4E09B" d="M753.236 546.863L753.539 546.64C761.247 554.934 770.623 562.388 779.106 569.931C792.021 581.414 804.86 593.251 818.221 604.205L817.458 604.627C812.029 607.595 806.12 610.008 800.514 612.642C790.551 617.299 780.657 622.103 770.835 627.052C749.47 637.83 728.908 650.116 708.487 662.57C700.493 667.446 688.869 673.538 682.034 679.542L681.715 679.564C668.975 673.372 656.556 666.305 644.095 659.566C627.82 650.767 611.458 642.131 595.012 633.659C600.875 627.827 618.63 618.128 626.464 613.49C657.689 595.004 688.945 577.132 721.522 561.088C731.926 555.964 742.785 551.876 753.236 546.863Z"/>
	<path fill="#B8F2E6" d="M364.492 701.164C374.117 691.52 383.297 681.45 393.182 672.053C410.988 655.398 429.561 639.583 448.842 624.66C467.016 610.453 485.603 596.641 505.455 584.836L571.692 621.212C579.274 625.335 586.684 629.887 594.405 633.733L595.012 633.659C611.458 642.131 627.82 650.767 644.095 659.566C656.556 666.305 668.975 673.372 681.715 679.564C677.782 683.151 671.714 685.398 668.327 689.274C661.757 693.365 655.672 698.518 649.594 703.31C628.657 719.844 608.867 737.78 590.358 756.994C586.969 760.535 582.681 764.338 580.024 768.446L579.176 768.933C544.537 757.863 509.851 746.581 474.94 736.392L474.578 736.458C467.692 733.851 460.478 731.826 453.476 729.511C438.476 724.472 423.417 719.608 408.303 714.922C393.728 710.384 379.296 705.083 364.505 701.305L364.492 701.164Z"/>
	<path fill="#AA905C" d="M818.221 604.205L818.605 604.091C820.722 606.394 823.468 608.224 825.854 610.263C832.042 615.592 838.264 620.881 844.519 626.129C857.257 636.856 869.653 648.284 882.615 658.701C875.196 663.804 863.456 667.962 854.985 672.188C832.92 683.194 811.828 695.55 790.685 708.193C783.48 712.501 773.916 717.175 767.706 722.611L767.294 722.768C764.428 718.929 694.876 687.219 682.034 679.542C688.869 673.538 700.493 667.446 708.487 662.57C728.908 650.116 749.47 637.83 770.835 627.052C780.657 622.103 790.551 617.299 800.514 612.642C806.12 610.008 812.029 607.595 817.458 604.627L818.221 604.205Z"/>
	<path fill="#974C00" d="M882.936 658.663C915.454 643.94 948.585 630.61 982.239 618.708C996.059 613.701 1010.34 609.873 1024 604.453L1024 676.356C1006.8 683.338 989.772 690.579 972.711 697.881C963.602 701.78 953.421 705.486 944.841 710.436C952.471 717.772 961.067 724.265 969.313 730.894C980.832 740.153 992.367 749.61 1003.37 759.473C1010.1 765.001 1017.33 769.938 1024 775.512L1024 1024L954.462 1024C952.447 1019.29 949.042 1015.06 946.834 1010.39C941.019 998.095 937.361 985.23 934.249 972.047L865.112 971.435C858.181 971.418 846.381 972.754 840.045 971.653C837.43 955.081 841.401 933.232 845.969 917.006C852.748 896.863 861.672 874.625 876.005 858.559C870.258 855.714 863.141 853.982 857.003 851.972C840.253 846.487 823.176 841.813 806.25 836.891C798.34 834.591 790.105 832.58 782.418 829.644C796.677 812.824 812.34 797.247 829.237 783.08C836.462 776.958 844.14 771.38 851.302 765.184L851.808 764.978C859.796 760.058 867.534 754.679 875.444 749.623C886.531 742.618 897.748 735.822 909.089 729.238C920.689 722.495 932.886 717.022 944.441 710.398C930.532 697.549 914.687 685.319 899.919 673.347C894.713 669.126 889.189 665.049 884.232 660.554C883.525 659.912 883.237 659.56 882.936 658.663Z"/>
	<path fill="#974C00" d="M882.615 658.701L882.936 658.663C883.237 659.56 883.525 659.912 884.232 660.554C889.189 665.049 894.713 669.126 899.919 673.347C914.687 685.319 930.532 697.549 944.441 710.398C932.886 717.022 920.689 722.495 909.089 729.238C897.748 735.822 886.531 742.618 875.444 749.623C867.534 754.679 859.796 760.058 851.808 764.978L851.302 765.184C840.118 760.64 829.391 754.278 818.678 748.709L767.706 722.611C773.916 717.175 783.48 712.501 790.685 708.193C811.828 695.55 832.92 683.194 854.985 672.188C863.456 667.962 875.196 663.804 882.615 658.701Z"/>
	<path fill="#AED9E0" d="M107.091 1024C106.874 1011.34 104.678 998.677 104.508 985.946C103.621 919.595 122.543 853.303 153.975 795.136C166.559 771.848 181.618 749.113 197.207 727.746C212.952 706.166 229.886 684.758 248.559 665.604C276.77 674.078 304.743 683.404 332.96 691.894C343.433 695.045 353.846 698.647 364.492 701.164L364.505 701.305C354.89 710.075 346.451 720.788 338.292 730.911C321.919 751.226 306.15 772.54 292.869 795.041C284.842 808.639 277.847 822.785 271.061 837.03C274.849 839.005 293.132 840.231 298.495 840.867L361.996 848.7C370.89 849.746 384.678 850.397 392.789 852.281C393.602 852.47 394.076 852.603 394.7 853.126C381.985 883.571 375.329 906.207 371.024 938.973C369.704 949.02 368.302 960.013 368.979 970.136L368.887 970.468C369.094 985.254 370.345 1010.42 375.798 1024L245.391 1024L107.091 1024Z"/>
	<path fill="#5E3F15" d="M944.841 710.436C953.421 705.486 963.602 701.78 972.711 697.881C989.772 690.579 1006.8 683.338 1024 676.356L1024 748.75L1024 775.512C1017.33 769.938 1010.1 765.001 1003.37 759.473C992.367 749.61 980.832 740.153 969.313 730.894C961.067 724.265 952.471 717.772 944.841 710.436Z"/>
	<path fill="#8ECAC5" d="M681.715 679.564L682.034 679.542C694.876 687.219 764.428 718.929 767.294 722.768C761.756 726.783 756.28 730.885 750.868 735.07C731.949 749.444 713.559 765.515 697.288 782.846C691.986 788.493 687.258 794.573 682.108 800.333L681.785 800.447C679.37 798.795 665.142 794.991 661.476 793.816C634.462 784.928 607.308 776.47 580.024 768.446C582.681 764.338 586.969 760.535 590.358 756.994C608.867 737.78 628.657 719.844 649.594 703.31C655.672 698.518 661.757 693.365 668.327 689.274C671.714 685.398 677.782 683.151 681.715 679.564Z"/>
	<path fill="#AED9E0" d="M271.061 837.03C277.847 822.785 284.842 808.639 292.869 795.041C306.15 772.54 321.919 751.226 338.292 730.911C346.451 720.788 354.89 710.075 364.505 701.305C379.296 705.083 393.728 710.384 408.303 714.922C423.417 719.608 438.476 724.472 453.476 729.511C460.478 731.826 467.692 733.851 474.578 736.458C442.946 768.694 413.378 811.253 395.029 852.581C401.963 854.926 414.251 855.416 421.917 856.466C447.947 860.032 474.142 862.927 500.086 867.02C504.694 867.747 510.904 867.115 515.125 868.799C501.563 900.358 492.721 935.949 493.455 970.534C494.208 982.897 495.27 994.823 498.232 1006.88C499.658 1012.69 501.711 1018.26 503.305 1024L375.798 1024C370.345 1010.42 369.094 985.254 368.887 970.468L368.979 970.136C368.302 960.013 369.704 949.02 371.024 938.973C375.329 906.207 381.985 883.571 394.7 853.126C394.076 852.603 393.602 852.47 392.789 852.281C384.678 850.397 370.89 849.746 361.996 848.7L298.495 840.867C293.132 840.231 274.849 839.005 271.061 837.03Z"/>
	<path fill="#665F39" d="M767.294 722.768L767.706 722.611L818.678 748.709C829.391 754.278 840.118 760.64 851.302 765.184C844.14 771.38 836.462 776.958 829.237 783.08C812.34 797.247 796.677 812.824 782.418 829.644L782.126 829.553C779.381 828.334 776.128 827.658 773.237 826.778L754.463 820.963C738.378 816.076 722.241 811.362 706.055 806.822C698.177 804.605 690.142 801.86 682.108 800.333C687.258 794.573 691.986 788.493 697.288 782.846C713.559 765.515 731.949 749.444 750.868 735.07C756.28 730.885 761.756 726.783 767.294 722.768Z"/>
	<path fill="#8ECAC5" d="M474.578 736.458L474.94 736.392C509.851 746.581 544.537 757.863 579.176 768.933C552.438 798.352 530.882 832.091 515.425 868.717C520.751 870.682 527.739 870.326 533.414 871.14L602.8 881.021C608.612 881.874 624.776 883.183 629.146 885.477C626.393 893.534 623.155 901.418 620.676 909.567C615.193 927.593 611.272 952.23 612.955 970.963C614.514 988.746 617.218 1007.57 624.67 1024L503.305 1024C501.711 1018.26 499.658 1012.69 498.232 1006.88C495.27 994.823 494.208 982.897 493.455 970.534C492.721 935.949 501.563 900.358 515.125 868.799C510.904 867.115 504.694 867.747 500.086 867.02C474.142 862.927 447.947 860.032 421.917 856.466C414.251 855.416 401.963 854.926 395.029 852.581C413.378 811.253 442.946 768.694 474.578 736.458Z"/>
	<path fill="#79B5AC" d="M579.176 768.933L580.024 768.446C607.308 776.47 634.462 784.928 661.476 793.816C665.142 794.991 679.37 798.795 681.785 800.447C677.891 805.487 673.658 810.271 669.84 815.367C654.606 835.705 637.974 861.458 629.351 885.414L629.146 885.477C624.776 883.183 608.612 881.874 602.8 881.021L533.414 871.14C527.739 870.326 520.751 870.682 515.425 868.717C530.882 832.091 552.438 798.352 579.176 768.933Z"/>
	<path fill="#5C7258" d="M681.785 800.447L682.108 800.333C690.142 801.86 698.177 804.605 706.055 806.822C722.241 811.362 738.378 816.076 754.463 820.963L773.237 826.778C776.128 827.658 779.381 828.334 782.126 829.553C777.627 836.11 772.479 842.25 767.849 848.724C757.524 863.16 744.981 883.932 739.87 900.943L739.579 900.977C734.752 899.454 729.024 899.072 723.992 898.402L699.02 895.06C675.844 891.846 652.652 887.499 629.351 885.414C637.974 861.458 654.606 835.705 669.84 815.367C673.658 810.271 677.891 805.487 681.785 800.447Z"/>
	<path fill="#5E3F15" d="M782.126 829.553L782.418 829.644C790.105 832.58 798.34 834.591 806.25 836.891C823.176 841.813 840.253 846.487 857.003 851.972C863.141 853.982 870.258 855.714 876.005 858.559C861.672 874.625 852.748 896.863 845.969 917.006C838.894 916.645 831.652 915.086 824.653 913.946L788.725 908.158C772.61 905.669 755.679 904.832 739.87 900.943C744.981 883.932 757.524 863.16 767.849 848.724C772.479 842.25 777.627 836.11 782.126 829.553Z"/>
	<path fill="#618875" d="M629.146 885.477L629.351 885.414C652.652 887.499 675.844 891.846 699.02 895.06L723.992 898.402C729.024 899.072 734.752 899.454 739.579 900.977C731.933 923.675 726.612 947.818 728.109 971.964C719.779 971.241 711.302 971.466 702.938 971.291C681.748 970.959 660.555 970.872 639.363 971.03C630.617 971.062 621.679 971.469 612.955 970.963C611.272 952.23 615.193 927.593 620.676 909.567C623.155 901.418 626.393 893.534 629.146 885.477Z"/>
	<path fill="#665F39" d="M739.579 900.977L739.87 900.943C755.679 904.832 772.61 905.669 788.725 908.158L824.653 913.946C831.652 915.086 838.894 916.645 845.969 917.006C841.401 933.232 837.43 955.081 840.045 971.653L839.921 971.95C829.302 971.294 818.436 971.754 807.788 971.691L728.109 971.964C726.612 947.818 731.933 923.675 739.579 900.977Z"/>
	<path fill="#79B5AC" d="M612.955 970.963C621.679 971.469 630.617 971.062 639.363 971.03C660.555 970.872 681.748 970.959 702.938 971.291C711.302 971.466 719.779 971.241 728.109 971.964C730.435 991.563 734.141 1006.1 742.777 1024L624.67 1024C617.218 1007.57 614.514 988.746 612.955 970.963Z"/>
	<path fill="#5C7258" d="M728.109 971.964L807.788 971.691C818.436 971.754 829.302 971.294 839.921 971.95C842.492 990.594 846.463 1007.27 855.414 1024L742.777 1024C734.141 1006.1 730.435 991.563 728.109 971.964Z"/>
	<path fill="#5E3F15" d="M840.045 971.653C846.381 972.754 858.181 971.418 865.112 971.435L934.249 972.047C937.361 985.23 941.019 998.095 946.834 1010.39C949.042 1015.06 952.447 1019.29 954.462 1024L855.414 1024C846.463 1007.27 842.492 990.594 839.921 971.95L840.045 971.653Z"/>
</svg>
