<?xml version="1.0" encoding="utf-8" ?>
<svg xmlns="http://www.w3.org/2000/svg" xmlns:xlink="http://www.w3.org/1999/xlink" width="1024" height="1024">
	<path fill="#C46F02" d="M0 0L177.641 0C171.397 3.68967 165.059 7.26223 158.914 11.1122C151.875 15.5221 145.035 20.2364 137.631 24.0297C112.276 37.0194 82.7764 39.7811 54.8989 42.5257C43.2415 43.6734 28.1545 46.655 16.8448 46.528C22.4221 42.472 36.4745 38.4337 43.7592 35.2003C29.625 32.6643 14.3532 31.7412 0 32.8306L0 0Z"/>
	<defs>
		<linearGradient id="gradient_0" gradientUnits="userSpaceOnUse" x1="183.71466" y1="72.804382" x2="45.229767" y2="-17.13945">
			<stop offset="0" stop-color="#6C2F02"/>
			<stop offset="1" stop-color="#A65A02"/>
		</linearGradient>
	</defs>
	<path fill="url(#gradient_0)" d="M177.641 0L233.243 0C219.667 8.32242 206.256 16.9603 192.383 24.7788C184.757 29.0764 176.83 32.9017 169.011 36.8364L165.932 38.2974C160.292 37.3843 150.994 39.1605 144.925 39.5876C121.32 41.2491 97.0523 41.9549 73.7149 45.9626C69.2201 46.7345 62.5295 47.8802 58.844 50.6554C57.2105 51.8854 55.9778 53.3954 55.7155 55.4756C55.5769 56.574 55.5553 57.6968 55.5224 58.8026C38.9698 56.9406 17.091 57.98 0 57.7937L0 52.1943C5.64086 50.3835 11.2563 48.4945 16.8448 46.528C28.1545 46.655 43.2415 43.6734 54.8989 42.5257C82.7764 39.7811 112.276 37.0194 137.631 24.0297C145.035 20.2364 151.875 15.5221 158.914 11.1122C165.059 7.26223 171.397 3.68967 177.641 0Z"/>
	<path fill="#C46F02" d="M233.243 0L309.3 0C301.589 8.30071 291.691 15.3777 283.052 22.7382C279.708 25.5875 275.919 28.5733 273.137 31.9754L272.689 32.0267C261.633 31.8267 250.341 31.6422 239.301 32.243C232.254 32.6264 171.016 37.9308 169.011 36.8364C176.83 32.9017 184.757 29.0764 192.383 24.7788C206.256 16.9603 219.667 8.32242 233.243 0Z"/>
	<path fill="#C46F02" d="M309.3 0L322.658 0C311.802 11.2075 300.382 21.615 288.909 32.1727C283.68 31.929 278.375 32.0377 273.137 31.9754C275.919 28.5733 279.708 25.5875 283.052 22.7382C291.691 15.3777 301.589 8.30071 309.3 0Z"/>
	<path fill="#B09E6E" d="M322.658 0L330.187 0C319.585 10.2462 308.744 20.3109 298.452 30.8667L296.055 33.1377C293.974 32.2463 291.183 32.4951 288.929 32.4451L288.909 32.1727C300.382 21.615 311.802 11.2075 322.658 0Z"/>
	<path fill="#BBBD95" d="M330.187 0L334.278 0C328.427 11.1382 321.993 21.8821 313.893 31.5591L313.626 31.5679C308.596 31.0889 303.499 31.359 298.452 30.8667C308.744 20.3109 319.585 10.2462 330.187 0Z"/>
	<path fill="#C46F02" d="M334.278 0L394.132 0C389.152 8.24541 375.88 24.7637 373 32.1794L372.453 32.5807C367.986 32.0419 363.161 32.2558 358.648 32.1669C349.247 31.9816 339.726 31.7279 330.335 32.1794C324.849 32.1073 319.355 32.1354 313.893 31.5591C321.993 21.8821 328.427 11.1382 334.278 0Z"/>
	<path fill="#D68A1A" d="M394.132 0L426.918 0L422.599 6.87904C420.144 8.81218 405.097 29.0147 403.873 31.9536L403.462 32.0483C393.309 31.8539 383.152 31.8976 373 32.1794C375.88 24.7637 389.152 8.24541 394.132 0Z"/>
	<path fill="#FAF3DD" d="M426.918 0L458.005 0C453.582 6.93839 448.883 13.6975 443.92 20.2611C440.964 24.2151 437.361 28.2529 434.848 32.4695L434.569 32.445C428.366 31.2272 416.655 31.2962 410.216 31.66C414.468 23.5587 419.083 15.3184 422.599 6.87904L426.918 0Z"/>
	<path fill="#C46F02" d="M458.005 0L513.757 0C507.324 5.73483 499.898 10.0877 492.642 14.6786C482.085 21.3583 471.404 27.9059 461.093 34.9632L460.854 34.9629C452.517 33.0317 442.946 34.8127 434.848 32.4695C437.361 28.2529 440.964 24.2151 443.92 20.2611C448.883 13.6975 453.582 6.93839 458.005 2.84217e-14L458.005 0Z"/>
	<path fill="#974C00" d="M513.757 0L556.539 0C543.883 15.9035 531.307 30.6046 516.597 44.6762L516.051 45.0116L515.339 45.2153C513.272 42.4845 484.833 37.6391 480.102 37.0183C473.955 36.2117 467.657 36.1273 461.559 35.0495L461.093 34.9632C471.404 27.9059 482.085 21.3583 492.642 14.6786C499.898 10.0877 507.324 5.73483 513.757 0Z"/>
	<path fill="#C46F02" d="M556.539 0L655.389 0C651.298 4.03682 647.12 8.00369 643.403 12.3941C627.039 8.12519 608.799 17.329 595.002 25.4121C580.73 33.7737 566.643 44.0133 554.245 54.9393L553.89 54.9754C544.31 51.0776 526.918 46.5085 516.597 44.6762C531.307 30.6046 543.883 15.9035 556.539 0Z"/>
	<path fill="#D93" d="M655.389 0L677.714 0C670.751 6.19744 663.972 12.8871 656.592 18.572C652.406 16.0909 647.989 14.0219 643.403 12.3941C647.12 8.00369 651.298 4.03682 655.389 0Z"/>
	<path fill="#C46F02" d="M677.714 0L719.629 0C695.262 16.3746 679.585 52.3262 667.278 78.1016C663.428 86.1638 659.229 94.0749 655.441 102.156C651.396 100.281 646.188 97.5087 642.815 94.6243C651.177 76.9239 671.269 54.2937 667.328 33.9406C666.023 27.1998 662.243 22.3038 656.592 18.572C663.972 12.8871 670.751 6.19744 677.714 0Z"/>
	<path fill="#FAF3DD" d="M719.629 0L729.062 0C724.695 5.84606 720.468 11.834 715.954 17.5646C710.864 24.0262 694.113 40.5045 694.959 48.7549C695.103 50.1605 695.554 50.8593 696.683 51.6937C697.717 52.4571 699.126 52.8832 700.324 53.3191C688.433 66.6464 683.02 98.832 676.348 116.093C669.118 112.332 662.42 106.743 655.442 102.424L655.441 102.156C659.229 94.0749 663.428 86.1638 667.278 78.1016C679.585 52.3262 695.262 16.3746 719.629 0Z"/>
	<path fill="#974C00" d="M729.062 0L767.549 0C753.209 10.805 740.047 23.1451 726.643 35.0716C720.741 40.3229 714.893 46.3999 708.281 50.7195C705.802 52.3386 703.372 53.7378 700.324 53.3191C699.126 52.8832 697.717 52.4571 696.683 51.6937C695.554 50.8593 695.103 50.1605 694.959 48.7549C694.113 40.5045 710.864 24.0262 715.954 17.5646C720.468 11.834 724.695 5.84606 729.062 0Z"/>
	<path fill="#D68A1A" d="M767.549 0L798.251 0L797.923 1.59505C790.753 4.44987 784.025 7.74069 777.481 11.8485C752.711 27.3994 713.315 62.6624 696.452 86.7883C689.656 96.5118 684.481 107.702 679.789 118.572C678.723 117.663 677.649 116.996 676.442 116.306L676.348 116.093C683.02 98.832 688.433 66.6464 700.324 53.3191C703.372 53.7378 705.802 52.3386 708.281 50.7195C714.893 46.3999 720.741 40.3229 726.643 35.0716C740.047 23.1451 753.209 10.805 767.549 0Z"/>
	<path fill="#974C00" d="M798.251 0L836.134 0C828.147 4.94658 814.996 13.277 805.076 10.7323C802.642 10.1078 800.253 8.47687 799.052 6.22438C798.343 4.89503 798.155 3.07182 797.923 1.59505L798.251 0Z"/>
	<path fill="#C46F02" d="M836.134 0L850.415 0C853.194 3.40846 855.655 5.17402 860.155 5.57192C863.581 5.87495 867.597 4.86975 870.208 2.54251C871.047 1.79477 871.701 0.945691 872.304 0L989.62 0C975.562 16.0356 958.844 30.1947 946.401 47.563C938.813 53.9403 929.402 60.503 920.61 65.0976C914.983 61.2243 910.697 60.7187 904.004 62.0048C893.414 64.0396 880.837 69.3607 870.921 73.6852C853.007 81.4975 835.979 91.4056 818.371 99.8944C796.249 110.56 773.181 119.893 751.899 132.164C747.692 134.589 743.028 137.191 740.262 141.299C736.654 146.656 734.504 153.326 732.623 159.45C721.475 146.073 694.631 128.736 679.789 118.572C684.481 107.702 689.656 96.5118 696.452 86.7883C713.315 62.6624 752.711 27.3994 777.481 11.8485C784.025 7.74069 790.753 4.44987 797.923 1.59505C798.155 3.07182 798.343 4.89503 799.052 6.22438C800.253 8.47687 802.642 10.1078 805.076 10.7323C814.996 13.277 828.147 4.94658 836.134 0ZM837.191 37.711C805.793 40.5782 739.107 60.7533 718.793 84.8477C712.45 92.371 706.765 102.836 707.795 112.966C708.117 116.132 709.439 119.111 711.966 121.128C717.166 125.276 725.46 124.209 731.706 124.007C758.93 120.411 787.233 110.472 810.582 95.9762C817.539 91.6568 823.848 86.2981 830.761 81.8781C839.529 76.2718 850.774 71.0721 857.274 62.823C859.732 59.7025 861.23 56.0893 860.696 52.0689C860.177 48.1583 857.828 43.8129 854.567 41.5305C849.957 38.3047 842.748 37.229 837.191 37.711Z"/>
	<path fill="#974C00" d="M850.415 0L872.304 0C871.701 0.945691 871.047 1.79477 870.208 2.54251C867.597 4.86975 863.581 5.87495 860.155 5.57192C855.655 5.17402 853.194 3.40846 850.415 0Z"/>
	<path fill="#D68A1A" d="M989.62 0L1009.87 0C989.165 15.3252 969.119 31.0313 949.289 47.4802L946.401 47.563C958.844 30.1947 975.562 16.0356 989.62 0Z"/>
	<path fill="#FAF3DD" d="M1009.87 0L1024 0L1024 38.0516C1015.5 42.3522 1007.8 48.1449 999.319 52.5148C986.072 59.344 972.145 65.0184 959.354 72.6902C940.463 84.0204 925.981 101.436 911.815 117.977C907.402 123.032 903.283 128.338 899.481 133.868C894.929 140.428 890.664 147.522 885.059 153.246C876.808 161.673 867.329 168.778 858.583 176.664C843.015 190.905 829.142 206.893 817.238 224.313C813.718 228.216 810.952 232.747 807.502 236.675C803.53 233.634 799.457 226.859 796.114 222.806C791.035 216.742 785.838 210.778 780.526 204.917L780.473 204.636C802.493 169.506 831.798 147.122 863.347 121.188C879.008 108.314 894.145 94.8541 909.6 81.7467C922.837 70.5193 936.849 59.5896 949.289 47.4802C969.119 31.0313 989.165 15.3252 1009.87 0Z"/>
	<path fill="#D93" d="M403.873 31.9536C405.097 29.0147 420.144 8.81218 422.599 6.87904C419.083 15.3184 414.468 23.5587 410.216 31.66L409.798 31.8865L403.873 31.9536Z"/>
	<path fill="#974C00" d="M554.245 54.9393C566.643 44.0133 580.73 33.7737 595.002 25.4121C608.799 17.329 627.039 8.12519 643.403 12.3941C647.989 14.0219 652.406 16.0909 656.592 18.572C662.243 22.3038 666.023 27.1998 667.328 33.9406C671.269 54.2937 651.177 76.9239 642.815 94.6243L642.591 94.7121C636.514 90.7684 629.602 87.5801 623.156 84.2707C600.988 72.7068 577.947 62.8996 554.245 54.9393Z"/>
	<path fill="#B09E6E" d="M296.055 33.1377L298.452 30.8667C303.499 31.359 308.596 31.0889 313.626 31.5679C308.864 37.8523 302.803 43.2828 297.142 48.7478L296.766 48.9056C291.216 47.9592 285.037 48.5796 279.567 49.8199L279.067 49.938L279.459 49.8113L279.135 49.5867C281.141 47.9283 282.847 45.7766 284.696 43.9356C288.426 40.2772 292.213 36.6774 296.055 33.1377Z"/>
	<path fill="#974C00" d="M313.626 31.5679L313.893 31.5591C319.355 32.1354 324.849 32.1073 330.335 32.1794C339.726 31.7279 349.247 31.9816 358.648 32.1669C363.161 32.2558 367.986 32.0419 372.453 32.5807C369.067 37.9187 365.37 43.0351 361.944 48.3382L361.362 48.8768C345.887 50.01 330.976 50.8874 315.456 49.995L314.825 50.0579C303.759 59.9198 293.125 70.4073 281.796 79.9444C274.287 86.2654 266.818 92.741 259.147 98.857C255.431 101.82 251.276 104.46 247.745 107.615C240.045 108.316 232.147 108.48 224.414 108.518C231 102.531 240.8 96.9188 248.172 91.0077C264.906 77.5916 280.773 63.185 296.766 48.9056L297.142 48.7478C302.803 43.2828 308.864 37.8523 313.626 31.5679Z"/>
	<path fill="#B09E6E" d="M409.798 31.8865L410.216 31.66C416.655 31.2962 428.366 31.2272 434.569 32.445C424.709 45.8474 416.029 60.1134 406.098 73.4082C397.145 85.3945 386.832 96.4067 376.81 107.498C368.681 107.165 360.547 106.995 352.411 106.989C345.562 107.006 337.954 107.666 331.198 106.602C332.669 106.528 334.132 106.43 335.606 106.457L345.228 106.498C353.55 98.927 362.946 92.6465 371.353 85.1727C388.244 70.1565 399.116 51.4622 409.798 31.8865Z"/>
	<path fill="#974C00" d="M169.011 36.8364C171.016 37.9308 232.254 32.6264 239.301 32.243C250.341 31.6422 261.633 31.8267 272.689 32.0267C267.867 38.9343 259.315 43.7534 253.403 49.826C257.292 51.4622 262.98 50.6103 267.203 50.6838C249.562 66.3231 228.035 84.7428 206.469 94.7323C199.137 98.1285 191.512 100.752 183.772 103.035C180.144 104.105 175.191 104.873 171.861 106.51C171.215 106.827 170.86 107.242 170.4 107.762C164.439 109.644 155.697 110.72 150.512 114.018C140.17 115.816 129.245 115.463 118.758 115.918C105.912 116.477 92.8287 117.555 79.9793 117.153C52.9714 116.307 26.4503 110.58 0 105.519L0 57.7937C17.091 57.98 38.9698 56.9406 55.5224 58.8026C56.1553 59.5008 56.7898 60.1446 57.5915 60.6478C67.3436 66.7687 105.224 58.0212 116.975 55.7315C133.881 51.7205 150.297 45.8744 165.932 38.2974L169.011 36.8364Z"/>
	<path fill="#974C00" d="M272.689 32.0267L273.137 31.9754C278.375 32.0377 283.68 31.929 288.909 32.1727L288.929 32.4451C262.301 54.9762 237.21 81.8887 204.833 96.4761C193.892 101.405 182.008 104.794 170.4 107.762C170.86 107.242 171.215 106.827 171.861 106.51C175.191 104.873 180.144 104.105 183.772 103.035C191.512 100.752 199.137 98.1285 206.469 94.7323C228.035 84.7428 249.562 66.3231 267.203 50.6838C262.98 50.6103 257.292 51.4622 253.403 49.826C259.315 43.7534 267.867 38.9343 272.689 32.0267Z"/>
	<path fill="#A2752C" d="M373 32.1794C383.152 31.8976 393.309 31.8539 403.462 32.0483C400.857 37.9883 395.85 44.4943 390.371 48.0335C379.398 60.5458 368.847 73.6918 357.286 85.6513C353.31 89.7422 349.207 93.7072 344.981 97.5404C341.874 100.367 338.178 103.143 335.606 106.457C334.132 106.43 332.669 106.528 331.198 106.602L330.477 106.537C333.794 101.879 337.168 97.2069 339.866 92.1535C343.363 85.6021 345.929 78.5151 348.962 71.7393C352.523 63.7862 356.761 56.2673 361.362 48.8768L361.944 48.3382C365.37 43.0351 369.067 37.9187 372.453 32.5807L373 32.1794Z"/>
	<path fill="#974C00" d="M403.462 32.0483L403.873 31.9536L409.798 31.8865C399.116 51.4622 388.244 70.1565 371.353 85.1727C362.946 92.6465 353.55 98.927 345.228 106.498L335.606 106.457C338.178 103.143 341.874 100.367 344.981 97.5404C349.207 93.7072 353.31 89.7422 357.286 85.6513C368.847 73.6918 379.398 60.5458 390.371 48.0335C395.85 44.4943 400.857 37.9883 403.462 32.0483Z"/>
	<path fill="#D68A1A" d="M0 32.8306C14.3532 31.7412 29.625 32.6643 43.7592 35.2003C36.4745 38.4337 22.4221 42.472 16.8448 46.528C11.2563 48.4945 5.64086 50.3835 0 52.1943L0 32.8306Z"/>
	<defs>
		<linearGradient id="gradient_1" gradientUnits="userSpaceOnUse" x1="224.24086" y1="71.472153" x2="239.86765" y2="97.776306">
			<stop offset="0" stop-color="#8D8C6B"/>
			<stop offset="1" stop-color="#ACAB92"/>
		</linearGradient>
	</defs>
	<path fill="url(#gradient_1)" d="M170.4 107.762C182.008 104.794 193.892 101.405 204.833 96.4761C237.21 81.8887 262.301 54.9762 288.929 32.4451C291.183 32.4951 293.974 32.2463 296.055 33.1377C292.213 36.6774 288.426 40.2772 284.696 43.9356C282.847 45.7766 281.141 47.9283 279.135 49.5867L279.459 49.8113L279.067 49.938L279.567 49.8199C285.037 48.5796 291.216 47.9592 296.766 48.9056C280.773 63.185 264.906 77.5916 248.172 91.0077C240.8 96.9188 231 102.531 224.414 108.518C213.039 110.129 201.041 110.144 189.549 111.078C176.769 112.118 163.303 114.374 150.512 114.018C155.697 110.72 164.439 109.644 170.4 107.762Z"/>
	<path fill="#974C00" d="M434.569 32.445L434.848 32.4695C442.946 34.8127 452.517 33.0317 460.854 34.9629L460.514 35.2704C455.422 39.7905 449.299 43.0867 444.321 47.7613C433.475 57.9464 403.369 93.5023 399.571 107.504L399.908 108.457C392.24 108.483 384.466 107.992 376.81 107.498C386.832 96.4067 397.145 85.3945 406.098 73.4082C416.029 60.1134 424.709 45.8474 434.569 32.445Z"/>
	<path fill="#622D02" d="M460.854 34.9629L461.093 34.9632L461.559 35.0495C467.657 36.1273 473.955 36.2117 480.102 37.0183C484.833 37.6391 513.272 42.4845 515.339 45.2153C503.391 54.9446 492.515 65.3125 481.749 76.3259C476.776 81.4136 471.565 86.507 467.128 92.0721C464.246 95.1968 452.867 108.922 450.618 110.15C450.188 110.385 449.233 110.608 448.741 110.723C432.536 109.382 416.164 108.814 399.908 108.457L399.571 107.504C403.369 93.5023 433.475 57.9464 444.321 47.7613C449.299 43.0867 455.422 39.7905 460.514 35.2704L460.854 34.9629Z"/>
	<path fill="#D68A1A" d="M731.706 124.007C725.46 124.209 717.166 125.276 711.966 121.128C709.439 119.111 708.117 116.132 707.795 112.966C706.765 102.836 712.45 92.371 718.793 84.8477C739.107 60.7533 805.793 40.5782 837.191 37.711C842.748 37.229 849.957 38.3047 854.567 41.5305C857.828 43.8129 860.177 48.1583 860.696 52.0689C861.23 56.0893 859.732 59.7025 857.274 62.823C850.774 71.0721 839.529 76.2718 830.761 81.8781C823.848 86.2981 817.539 91.6568 810.582 95.9762C787.233 110.472 758.93 120.411 731.706 124.007Z"/>
	<path fill="#622D02" d="M165.932 38.2974C150.297 45.8744 133.881 51.7205 116.975 55.7315C105.224 58.0212 67.3436 66.7687 57.5915 60.6478C56.7898 60.1446 56.1553 59.5008 55.5224 58.8026C55.5553 57.6968 55.5769 56.574 55.7155 55.4756C55.9778 53.3954 57.2105 51.8854 58.844 50.6554C62.5295 47.8802 69.2201 46.7345 73.7149 45.9626C97.0523 41.9549 121.32 41.2491 144.925 39.5876C150.994 39.1605 160.292 37.3843 165.932 38.2974Z"/>
	<path fill="#C46F02" d="M817.238 224.313C829.142 206.893 843.015 190.905 858.583 176.664C867.329 168.778 876.808 161.673 885.059 153.246C890.664 147.522 894.929 140.428 899.481 133.868C903.283 128.338 907.402 123.032 911.815 117.977C925.981 101.436 940.463 84.0204 959.354 72.6902C972.145 65.0184 986.072 59.344 999.319 52.5148C1007.8 48.1449 1015.5 42.3522 1024 38.0516L1024 52.5538C1011.56 57.2558 1000.47 63.0106 990.3 71.6895C983.979 77.0812 978.086 83.2917 973.616 90.3245C965.953 102.382 965.198 108.169 954.012 118.993C940.245 132.315 922.55 141.942 906.818 152.72C897.014 159.436 887.841 167.297 879.08 175.307C873.078 180.794 866.695 186.613 863.395 194.216C863.125 194.839 862.929 195.454 862.735 196.104C853.311 199.594 821.778 223.845 817.238 224.313Z"/>
	<path fill="#974C00" d="M516.051 45.0116L516.597 44.6762C526.918 46.5085 544.31 51.0776 553.89 54.9754C541.527 66.5969 529.759 78.8542 519.722 92.5807C519.442 92.1025 519.373 92.0129 519.13 91.4263C517.699 87.9755 516.764 83.9853 515.698 80.3828C511.813 67.2489 511.093 57.9739 516.051 45.0116Z"/>
	<path fill="#974C00" d="M515.339 45.2153L516.051 45.0116C511.093 57.9739 511.813 67.2489 515.698 80.3828C516.764 83.9853 517.699 87.9755 519.13 91.4263C519.373 92.0129 519.442 92.1025 519.722 92.5807C516.656 98.8494 508.637 107.164 507.224 113.416C506.215 114.57 504.667 115.61 503.484 116.616C491.335 114.166 478.705 113.308 466.384 112.088C466.502 105.402 466.622 98.7429 467.128 92.0721C471.565 86.507 476.776 81.4136 481.749 76.3259C492.515 65.3125 503.391 54.9446 515.339 45.2153Z"/>
	<path fill="#B09E6E" d="M946.401 47.563L949.289 47.4802C936.849 59.5896 922.837 70.5193 909.6 81.7467C894.145 94.8541 879.008 108.314 863.347 121.188C831.798 147.122 802.493 169.506 780.473 204.636C776.627 201.02 762.539 187.543 760.905 183.69C767.809 169.846 776.67 154.826 788.039 144.27C803.215 130.181 826.482 120.373 844.671 110.021C852.742 105.427 860.514 100.304 868.529 95.6113C885.908 85.4366 903.441 75.6432 920.61 65.0976C929.402 60.503 938.813 53.9403 946.401 47.563Z"/>
	<path fill="#622D02" d="M315.456 49.995C330.976 50.8874 345.887 50.01 361.362 48.8768C356.761 56.2673 352.523 63.7862 348.962 71.7393C345.929 78.5151 343.363 85.6021 339.866 92.1535C337.168 97.2069 333.794 101.879 330.477 106.537L247.745 107.615C251.276 104.46 255.431 101.82 259.147 98.857C266.818 92.741 274.287 86.2654 281.796 79.9444C293.125 70.4073 303.759 59.9198 314.825 50.0579L315.456 49.995Z"/>
	<path fill="#974C00" d="M862.735 196.104C862.929 195.454 863.125 194.839 863.395 194.216C866.695 186.613 873.078 180.794 879.08 175.307C887.841 167.297 897.014 159.436 906.818 152.72C922.55 141.942 940.245 132.315 954.012 118.993C965.198 108.169 965.953 102.382 973.616 90.3245C978.086 83.2917 983.979 77.0812 990.3 71.6895C1000.47 63.0106 1011.56 57.2558 1024 52.5538L1024 104.862C1018.95 109.447 1013.27 113.475 1007.73 117.453C980.002 137.384 948.996 151.549 920.109 169.648C906.742 178.022 895.608 189.555 882.206 197.8C879.07 199.729 872.357 203.797 868.591 203.608C866.63 203.509 865.419 202.416 864.26 200.959C864.05 200.695 863.851 200.422 863.647 200.154L862.735 196.104Z"/>
	<path fill="#622D02" d="M553.89 54.9754L554.245 54.9393C577.947 62.8996 600.988 72.7068 623.156 84.2707C629.602 87.5801 636.514 90.7684 642.591 94.7121L640.002 100.207C630.639 123.861 631.607 151.107 619.534 173.699C595.661 155.446 568.782 138.442 540.593 127.809C530.706 124.079 520.582 121.308 510.384 118.578C519.982 111.86 529.844 106.598 540.288 101.364C546.16 98.4213 552.502 95.6973 557.997 92.099C540.118 97.0759 523.425 104.48 507.224 113.416C508.637 107.164 516.656 98.8494 519.722 92.5807C529.759 78.8542 541.527 66.5969 553.89 54.9754Z"/>
	<path fill="#974C00" d="M732.623 159.45C734.504 153.326 736.654 146.656 740.262 141.299C743.028 137.191 747.692 134.589 751.899 132.164C773.181 119.893 796.249 110.56 818.371 99.8944C835.979 91.4056 853.007 81.4975 870.921 73.6852C880.837 69.3607 893.414 64.0396 904.004 62.0048C910.697 60.7187 914.983 61.2243 920.61 65.0976C903.441 75.6432 885.908 85.4366 868.529 95.6113C860.514 100.304 852.742 105.427 844.671 110.021C826.482 120.373 803.215 130.181 788.039 144.27C776.67 154.826 767.809 169.846 760.905 183.69L760.624 183.677C756.547 180.29 752.926 176.327 749.223 172.541C746.562 169.048 742.093 163.781 737.674 162.757C735.937 162.354 735.089 163.086 733.649 163.894C727.282 171.752 720.517 179.192 714.084 186.965C711.465 184.23 710.081 178.118 708.368 174.575C700.985 159.311 692.638 146.089 680.361 134.206C678.032 131.953 675.657 129.405 672.964 127.604C674.341 123.962 675.304 120.038 676.442 116.306C677.649 116.996 678.723 117.663 679.789 118.572C694.631 128.736 721.475 146.073 732.623 159.45Z"/>
	<path fill="#974C00" d="M448.741 110.723C449.233 110.608 450.188 110.385 450.618 110.15C452.867 108.922 464.246 95.1968 467.128 92.0721C466.622 98.7429 466.502 105.402 466.384 112.088L448.741 110.723Z"/>
	<path fill="#FAF3DD" d="M0 105.519C26.4503 110.58 52.9714 116.307 79.9793 117.153C92.8287 117.555 105.912 116.477 118.758 115.918C129.245 115.463 140.17 115.816 150.512 114.018C163.303 114.374 176.769 112.118 189.549 111.078C201.041 110.144 213.039 110.129 224.414 108.518C232.147 108.48 240.045 108.316 247.745 107.615L330.477 106.537L331.198 106.602C337.954 107.666 345.562 107.006 352.411 106.989C360.547 106.995 368.681 107.165 376.81 107.498C384.466 107.992 392.24 108.483 399.908 108.457C416.164 108.814 432.536 109.382 448.741 110.723L466.384 112.088C478.705 113.308 491.335 114.166 503.484 116.616C504.667 115.61 506.215 114.57 507.224 113.416C523.425 104.48 540.118 97.0759 557.997 92.099C552.502 95.6973 546.16 98.4213 540.288 101.364C529.844 106.598 519.982 111.86 510.384 118.578C520.582 121.308 530.706 124.079 540.593 127.809C568.782 138.442 595.661 155.446 619.534 173.699C633.259 184.19 646.439 195.498 660.553 205.464C670.271 212.511 680.231 219.388 689.475 227.052C704.755 240.162 716.557 252.232 728.309 268.624C730.444 271.954 732.628 275.254 734.859 278.52C739.444 285.822 744.211 293.039 748.21 300.684C753.384 312.016 759.469 323.022 765.036 334.175C770.144 344.408 774.787 355.725 781.316 365.108C784.857 370.914 788.31 376.744 791.441 382.783C794.368 388.428 796.996 394.331 800.348 399.735C800.702 395.939 800.619 389.366 802.682 386.247L803.536 385.953C803.54 392.185 802.508 401.857 805.357 407.371C805.488 407.626 805.612 407.885 805.748 408.137C805.833 408.294 805.928 408.445 806.018 408.599C811.975 420.091 819.007 431.003 823.905 443.011L823.743 443.494L821.612 442.493C822.889 445.95 825.753 449.542 827.715 452.687C831.313 458.455 834.66 464.525 838.576 470.079C843.275 476.743 848.334 482.308 852.375 489.507C855.185 493.979 858.123 498.41 860.509 503.127C861.048 500.985 861.35 498.633 862.838 496.934L863.86 496.63C867.219 499.001 867.51 509.765 870.064 513.946C872.142 516.881 874.32 519.743 876.594 522.529C881.815 515.626 887.545 510.048 893.878 504.188C895.756 511.209 892.419 524.146 892.398 531.613L890.127 538.831C891.636 542.059 893.07 545.108 895.15 548.019C898.997 542.242 902.929 524.088 907.291 521.079C907.003 530.632 905.928 540.145 904.076 549.522C903.308 553.375 900.319 560.036 900.483 563.569C901.814 564.367 902.504 564.46 904.002 564.526C910.426 562.236 917.502 549.542 921.145 543.851C922.796 556.243 922.534 566.057 916.422 577.331L928.434 601.175C930.464 605.284 932.239 609.831 934.678 613.681C938.428 622.582 942.994 631.219 947.308 639.861C956.233 657.454 963.303 675.873 971.945 693.563L974.092 698.894C977.417 707.092 980.629 715.502 984.45 723.477C991.214 737.59 999.074 751.187 1005.76 765.347C1009.67 773.848 1013.5 782.388 1017.25 790.963C1019.43 795.98 1021.37 801.265 1024 806.052L1024 835.381C1016.61 825.633 1010.12 814.861 1003.58 804.511C983.812 773.208 966.383 740.685 947.909 708.626C928.322 674.636 906.873 642.43 883.801 610.749C855.491 571.875 825.114 534.726 790.015 501.73C748.733 462.922 704.869 428.189 656.166 399.057C639.819 389.279 622.882 380.516 606.044 371.63C573.587 354.501 540.294 338.38 504.245 330.313C482.134 325.364 458.645 324.371 436.07 325.115C371.163 327.253 326.502 342.232 269.098 372.126C255.6 379.155 242.389 386.749 228.978 393.949C221.267 398.088 191.746 412.751 187.501 417.295C174.447 404.073 160.436 391.912 146.609 379.513C129.516 364.186 108.855 344.284 88.8936 333.229L147.502 386.707C159.635 397.691 172.9 408.509 184.122 420.355C171.807 424.463 146.349 441.905 134.861 449.244C128.75 453.148 122.275 456.443 116.129 460.292C102.955 468.698 90.0004 477.444 77.2783 486.52C69.3884 492.085 59.9592 501.169 51.8624 505.435L51.9524 226.491C46.997 226.365 42.031 226.305 37.079 226.093C37.7306 240.203 37.2543 254.482 37.2115 268.611L37.1207 342.036L37.1251 448.321C37.1739 471.973 37.6386 495.66 37.1076 519.307L36.9647 519.687C31.9151 523.278 28.2668 530.599 24.3454 535.464C16.3706 545.356 8.25888 555.289 0 564.941L0 105.519ZM44.8122 180.607C40.4056 181.903 36.9594 183.858 34.6905 188.026C33.0891 190.969 32.5828 194.361 33.5728 197.588C34.5839 200.816 36.8996 203.474 39.9588 204.917C42.59 206.179 45.2909 206.602 48.1789 206.402C52.4776 205.13 56.2969 203.444 58.5972 199.335C60.3069 196.281 60.4341 192.604 59.3253 189.323C58.236 185.996 55.8194 183.267 52.6483 181.783C50.0415 180.568 47.6315 180.365 44.8122 180.607Z"/>
	<path fill="#A2752C" d="M642.591 94.7121L642.815 94.6243C646.188 97.5087 651.396 100.281 655.441 102.156L655.442 102.424C654.447 104.665 653.629 107.112 652.521 109.285C649.222 105.455 644.27 102.835 640.002 100.207L642.591 94.7121Z"/>
	<path fill="#B09E6E" d="M640.002 100.207C644.27 102.835 649.222 105.455 652.521 109.285C654.895 112.636 669.319 125.869 672.964 127.604C665.75 152.355 661.466 179.711 660.553 205.464C646.439 195.498 633.259 184.19 619.534 173.699C631.607 151.107 630.639 123.861 640.002 100.207Z"/>
	<path fill="#B09E6E" d="M652.521 109.285C653.629 107.112 654.447 104.665 655.442 102.424C662.42 106.743 669.118 112.332 676.348 116.093L676.442 116.306C675.304 120.038 674.341 123.962 672.964 127.604C669.319 125.869 654.895 112.636 652.521 109.285Z"/>
	<path fill="#C46F02" d="M863.647 200.154C863.851 200.422 864.05 200.695 864.26 200.959C865.419 202.416 866.63 203.509 868.591 203.608C872.357 203.797 879.07 199.729 882.206 197.8C895.608 189.555 906.742 178.022 920.109 169.648C948.996 151.549 980.002 137.384 1007.73 117.453C1013.27 113.475 1018.95 109.447 1024 104.862L1024 183.242L1023.77 183.646C1019.72 190.838 1016.73 198.859 1013.13 206.309C1007.81 217.071 1002.35 227.767 996.757 238.393C984.613 261.937 973.027 283.959 953.162 302.103C949.767 305.203 945.888 309.348 941.901 311.586L942.069 304.817C940.951 305.676 939.939 306.629 938.909 307.589C935.248 308.305 932.32 311.527 929.879 314.195C924.597 319.968 920.546 326.883 916.036 333.261C912.701 337.977 908.973 342.403 905.579 347.075C901.585 352.574 897.902 358.319 894.044 363.915C887.911 354.896 883.059 344.97 876.956 335.902L876.896 334.958C882.052 324.568 888.793 314.833 893.552 304.3C900.059 289.898 904.08 274.716 911.999 260.885C914.71 256.149 917.884 251.609 921.094 247.198C924.193 242.941 934.008 232.667 934.915 228.633C935.386 226.541 934.693 224.002 933.495 222.272C931.555 219.47 928.048 217.767 924.729 217.347C921.696 216.963 918.92 217.634 916.197 218.958C908.26 222.819 901.307 229.677 894.275 234.995C888.624 239.269 882.678 243.127 876.964 247.31C873.805 246.922 871.787 246.642 869.162 248.651C866.826 250.439 864.96 253.331 863.16 255.651C854.858 262.106 847.535 270.771 840.649 278.693C835.374 272.822 830.723 265.941 825.928 259.643C830.792 252.557 834.497 244.246 838.713 236.726C843.868 227.533 850.102 219.08 856.203 210.509C858.648 207.073 860.89 203.334 863.647 200.154Z"/>
	<path fill="#974C00" d="M672.964 127.604C675.657 129.405 678.032 131.953 680.361 134.206C692.638 146.089 700.985 159.311 708.368 174.575C710.081 178.118 711.465 184.23 714.084 186.965C703.443 199.405 695.398 211.704 689.475 227.052C680.231 219.388 670.271 212.511 660.553 205.464C661.466 179.711 665.75 152.355 672.964 127.604Z"/>
	<path fill="#622D02" d="M733.649 163.894C735.089 163.086 735.937 162.354 737.674 162.757C742.093 163.781 746.562 169.048 749.223 172.541C740.046 193.355 730.883 212.639 727.469 235.374C726.461 242.09 726.482 249.129 727.129 255.883C727.422 258.95 729.415 265.953 728.309 268.624C716.557 252.232 704.755 240.162 689.475 227.052C695.398 211.704 703.443 199.405 714.084 186.965C720.517 179.192 727.282 171.752 733.649 163.894Z"/>
	<path fill="#974C00" d="M749.223 172.541C752.926 176.327 756.547 180.29 760.624 183.677L760.473 184.102C757.793 191.408 753.611 198.208 750.696 205.462C742.185 226.644 735.465 255.751 734.859 278.52C732.628 275.254 730.444 271.954 728.309 268.624C729.415 265.953 727.422 258.95 727.129 255.883C726.482 249.129 726.461 242.09 727.469 235.374C730.883 212.639 740.046 193.355 749.223 172.541Z"/>
	<path fill="#A2752C" d="M48.1789 206.402C45.2909 206.602 42.59 206.179 39.9588 204.917C36.8996 203.474 34.5839 200.816 33.5728 197.588C32.5828 194.361 33.0891 190.969 34.6905 188.026C36.9594 183.858 40.4056 181.903 44.8122 180.607C47.6315 180.365 50.0415 180.568 52.6483 181.783C55.8194 183.267 58.236 185.996 59.3253 189.323C60.4341 192.604 60.3069 196.281 58.5972 199.335C56.2969 203.444 52.4776 205.13 48.1789 206.402Z"/>
	<path fill="#A2752C" d="M760.624 183.677L760.905 183.69C762.539 187.543 776.627 201.02 780.473 204.636L780.526 204.917C777.571 209.439 775.168 214.484 772.74 219.308C763.474 237.714 756.919 256.399 752.502 276.538C751.148 282.713 750.108 295.754 748.21 300.684C744.211 293.039 739.444 285.822 734.859 278.52C735.465 255.751 742.185 226.644 750.696 205.462C753.611 198.208 757.793 191.408 760.473 184.102L760.624 183.677Z"/>
	<path fill="#D68A1A" d="M941.901 311.586C945.888 309.348 949.767 305.203 953.162 302.103C973.027 283.959 984.613 261.937 996.757 238.393C1002.35 227.767 1007.81 217.071 1013.13 206.309C1016.73 198.859 1019.72 190.838 1023.77 183.646L1024 183.242L1024 225.35C1017.32 236.368 1010.2 247.088 1003.33 257.987C996.492 268.847 989.909 279.972 982.252 290.286C966.453 311.568 948.302 331.069 934.5 353.851C934.556 349.2 935.986 343.963 936.892 339.408C938.731 330.162 940.777 320.953 941.901 311.586Z"/>
	<path fill="#D68A1A" d="M817.238 224.313C821.778 223.845 853.311 199.594 862.735 196.104L863.647 200.154C860.89 203.334 858.648 207.073 856.203 210.509C850.102 219.08 843.868 227.533 838.713 236.726C834.497 244.246 830.792 252.557 825.928 259.643C823.622 257.336 821.669 254.08 819.594 251.492C815.652 246.575 811.517 241.797 807.443 236.99L807.502 236.675C810.952 232.747 813.718 228.216 817.238 224.313Z"/>
	<path fill="#B09E6E" d="M780.526 204.917C785.838 210.778 791.035 216.742 796.114 222.806C799.457 226.859 803.53 233.634 807.502 236.675L807.443 236.99C791.268 258.506 791.477 283.299 789.385 308.811C788.331 320.282 786.994 331.724 785.375 343.129C784.399 350.195 783.963 358.434 781.316 365.108C774.787 355.725 770.144 344.408 765.036 334.175C759.469 323.022 753.384 312.016 748.21 300.684C750.108 295.754 751.148 282.713 752.502 276.538C756.919 256.399 763.474 237.714 772.74 219.308C775.168 214.484 777.571 209.439 780.526 204.917Z"/>
	<path fill="#974C00" d="M876.964 247.31C882.678 243.127 888.624 239.269 894.275 234.995C901.307 229.677 908.26 222.819 916.197 218.958C918.92 217.634 921.696 216.963 924.729 217.347C928.048 217.767 931.555 219.47 933.495 222.272C934.693 224.002 935.386 226.541 934.915 228.633C934.008 232.667 924.193 242.941 921.094 247.198C917.884 251.609 914.71 256.149 911.999 260.885C904.08 274.716 900.059 289.898 893.552 304.3C888.793 314.833 882.052 324.568 876.896 334.958C870.938 328.166 866.676 319.799 861.328 312.512C865.09 306.215 870.142 300.322 874.522 294.418C882.822 283.231 890.333 272.093 896.612 259.652C898.914 255.091 901.578 250.084 901.752 244.875L901.063 244.155C900.913 244.17 900.76 244.172 900.612 244.201C897.948 244.713 894.75 247.122 892.412 248.54C888.072 251.172 883.142 253.676 879.292 256.979C874.642 260.969 871.026 266.249 867.176 270.984C861.008 278.57 854.817 286.018 849.16 294C846.837 291.304 845.497 287.939 843.582 284.959L843.598 284.615C850.651 277.06 855.216 266.896 862.688 259.882C867.728 256.898 872.611 251.293 876.964 247.31Z"/>
	<path fill="#BBBD95" d="M51.9524 226.491L51.8624 505.435C51.8415 520.178 52.6393 535.744 51.8272 550.374L52.0013 756.373L51.941 756.756C46.9465 757.084 41.9927 757.065 36.9928 756.988L36.9513 756.646C37.9424 728.447 37.0522 699.949 37.0204 671.723L36.9647 519.687L37.1076 519.307C37.6386 495.66 37.1739 471.973 37.1251 448.321L37.1207 342.036L37.2115 268.611C37.2543 254.482 37.7306 240.203 37.079 226.093C42.031 226.305 46.997 226.365 51.9524 226.491Z"/>
	<path fill="#FAF3DD" d="M934.5 353.851C948.302 331.069 966.453 311.568 982.252 290.286C989.909 279.972 996.492 268.847 1003.33 257.987C1010.2 247.088 1017.32 236.368 1024 225.35L1024 309.632C1003.69 324.131 988.778 341.256 974.047 361.117C968.98 367.948 963.85 374.737 959.252 381.898C954.997 388.523 951.813 395.881 947.389 402.378C941.563 410.933 934.513 418.713 928.322 427.017C924.053 421.516 923.03 412.609 919.028 407.629C919.46 404.169 920.631 400.542 921.48 397.153C923.017 391.017 924.475 384.819 926.418 378.797C929.104 370.477 932.395 362.35 934.5 353.851Z"/>
	<defs>
		<linearGradient id="gradient_2" gradientUnits="userSpaceOnUse" x1="825.62762" y1="323.69519" x2="781.21753" y2="310.40808">
			<stop offset="0" stop-color="#8D4E02"/>
			<stop offset="1" stop-color="#BB6C04"/>
		</linearGradient>
	</defs>
	<path fill="url(#gradient_2)" d="M781.316 365.108C783.963 358.434 784.399 350.195 785.375 343.129C786.994 331.724 788.331 320.282 789.385 308.811C791.477 283.299 791.268 258.506 807.443 236.99C811.517 241.797 815.652 246.575 819.594 251.492C821.669 254.08 823.622 257.336 825.928 259.643C830.723 265.941 835.374 272.822 840.649 278.693L840.456 279.171C836.781 283.245 833.809 287.992 831.042 292.713C827.917 298.046 816.285 320.918 816.22 326.15C809.888 342.279 806.225 359.332 805.375 376.639C805.263 378.605 805.41 385.019 803.536 385.953L802.682 386.247C800.619 389.366 800.702 395.939 800.348 399.735C796.996 394.331 794.368 388.428 791.441 382.783C788.31 376.744 784.857 370.914 781.316 365.108Z"/>
	<path fill="#974C00" d="M816.22 326.15C820.589 314.4 835.592 295.152 843.582 284.959C845.497 287.939 846.837 291.304 849.16 294C854.817 286.018 861.008 278.57 867.176 270.984C871.026 266.249 874.642 260.969 879.292 256.979C883.142 253.676 888.072 251.172 892.412 248.54C894.75 247.122 897.948 244.713 900.612 244.201C900.76 244.172 900.913 244.17 901.063 244.155L901.752 244.875C901.578 250.084 898.914 255.091 896.612 259.652C890.333 272.093 882.822 283.231 874.522 294.418C870.142 300.322 865.09 306.215 861.328 312.512L861.154 312.518C857.439 306.513 853.265 300.194 848.76 294.763C838.09 308.38 816.316 333.745 811.678 350.498C810.051 356.377 809.869 363.156 809.311 369.226C808.103 382.348 807.286 395.478 806.018 408.599C805.928 408.445 805.833 408.294 805.748 408.137C805.612 407.885 805.488 407.626 805.357 407.371C802.508 401.857 803.54 392.185 803.536 385.953C805.41 385.019 805.263 378.605 805.375 376.639C806.225 359.332 809.888 342.279 816.22 326.15Z"/>
	<path fill="#D68A1A" d="M863.16 255.651C864.96 253.331 866.826 250.439 869.162 248.651C871.787 246.642 873.805 246.922 876.964 247.31C872.611 251.293 867.728 256.898 862.688 259.882L863.16 255.651Z"/>
	<path fill="#D4E09B" d="M840.649 278.693C847.535 270.771 854.858 262.106 863.16 255.651L862.688 259.882C855.216 266.896 850.651 277.06 843.598 284.615C842.337 283.013 841.432 280.964 840.456 279.171L840.649 278.693Z"/>
	<path fill="#A2752C" d="M816.22 326.15C816.285 320.918 827.917 298.046 831.042 292.713C833.809 287.992 836.781 283.245 840.456 279.171C841.432 280.964 842.337 283.013 843.598 284.615L843.582 284.959C835.592 295.152 820.589 314.4 816.22 326.15Z"/>
	<path fill="#622D02" d="M848.76 294.763C853.265 300.194 857.439 306.513 861.154 312.518C857.43 317.899 853.254 323.291 850.481 329.246C841.689 348.131 837.521 380.115 841.375 400.614C843.844 413.745 851.868 425.346 857.382 437.325C860.038 443.094 861.901 448.922 863.459 455.064C863.481 456.874 863.386 458.566 862.987 460.338C861.921 465.069 854.924 486.581 852.375 489.507C848.334 482.308 843.275 476.743 838.576 470.079C834.66 464.525 831.313 458.455 827.715 452.687C825.753 449.542 822.889 445.95 821.612 442.493L823.743 443.494L823.905 443.011C819.007 431.003 811.975 420.091 806.018 408.599C807.286 395.478 808.103 382.348 809.311 369.226C809.869 363.156 810.051 356.377 811.678 350.498C816.316 333.745 838.09 308.38 848.76 294.763Z"/>
	<path fill="#974C00" d="M938.909 307.589C939.939 306.629 940.951 305.676 942.069 304.817L941.901 311.586C940.777 320.953 938.731 330.162 936.892 339.408C935.986 343.963 934.556 349.2 934.5 353.851C932.395 362.35 929.104 370.477 926.418 378.797C924.475 384.819 923.017 391.017 921.48 397.153C920.631 400.542 919.46 404.169 919.028 407.629L918.345 408.883C914.209 405.463 904.823 384.646 901.819 378.772L901.899 378.405C906.318 370.974 910.197 363.234 913.503 355.245C917.929 344.61 921.723 333.476 927.434 323.448C930.705 317.703 934.671 312.63 938.909 307.589Z"/>
	<path fill="#974C00" d="M894.044 363.915C897.902 358.319 901.585 352.574 905.579 347.075C908.973 342.403 912.701 337.977 916.036 333.261C920.546 326.883 924.597 319.968 929.879 314.195C932.32 311.527 935.248 308.305 938.909 307.589C934.671 312.63 930.705 317.703 927.434 323.448C921.723 333.476 917.929 344.61 913.503 355.245C910.197 363.234 906.318 370.974 901.899 378.405C899.454 375.279 895.928 366.125 893.221 364.534C889.124 370.079 885.066 375.631 881.765 381.702C874.859 394.403 868.715 412.854 866.751 427.157C866.703 427.51 866.599 427.946 866.518 428.305C865.732 427.522 865.702 425.577 865.5 424.46C865.332 393.105 860.293 364.827 876.956 335.902C883.059 344.97 887.911 354.896 894.044 363.915Z"/>
	<path fill="#FAF3DD" d="M928.322 427.017C934.513 418.713 941.563 410.933 947.389 402.378C951.813 395.881 954.997 388.523 959.252 381.898C963.85 374.737 968.98 367.948 974.047 361.117C988.778 341.256 1003.69 324.131 1024 309.632L1024 329.895C1010.77 340.227 1000.09 351.839 991.709 366.43C983.835 380.141 977.442 394.419 967.846 407.106C957.965 420.17 944.189 429.404 932.415 440.61C929.881 438.935 927.872 432.811 926.562 429.951C923.269 423.457 920.824 416.624 918.312 409.804L918.345 408.883L919.028 407.629C923.03 412.609 924.053 421.516 928.322 427.017Z"/>
	<path fill="#974C00" d="M861.154 312.518L861.328 312.512C866.676 319.799 870.938 328.166 876.896 334.958L876.956 335.902C860.293 364.827 865.332 393.105 865.5 424.46C865.322 434.624 866.093 445.123 863.459 455.064C861.901 448.922 860.038 443.094 857.382 437.325C851.868 425.346 843.844 413.745 841.375 400.614C837.521 380.115 841.689 348.131 850.481 329.246C853.254 323.291 857.43 317.899 861.154 312.518Z"/>
	<path fill="#FAF3DD" d="M187.501 417.295C191.746 412.751 221.267 398.088 228.978 393.949C242.389 386.749 255.6 379.155 269.098 372.126C326.502 342.232 371.163 327.253 436.07 325.115C458.645 324.371 482.134 325.364 504.245 330.313C540.294 338.38 573.587 354.501 606.044 371.63C622.882 380.516 639.819 389.279 656.166 399.057C704.869 428.189 748.733 462.922 790.015 501.73C825.114 534.726 855.491 571.875 883.801 610.749C906.873 642.43 928.322 674.636 947.909 708.626C966.383 740.685 983.812 773.208 1003.58 804.511C1010.12 814.861 1016.61 825.633 1024 835.381L1024 939.152C1007.88 921.39 990.991 904.34 974.379 887.042C968.977 881.417 964.01 875.391 958.563 869.806C949.068 860.07 939.223 850.674 929.852 840.815C904.359 813.995 879.292 786.837 853.117 760.662C823.842 731.711 793.58 703.775 762.384 676.904C733.654 652.366 703.258 628.242 670.844 608.756C647.97 595.118 623.882 583.629 598.887 574.437C537.048 551.681 466.49 550.723 402.66 565.359C385.583 569.275 368.758 574.058 352.825 581.429C330.895 560.004 310.353 537.197 288.729 515.47C266.92 493.42 244.882 471.597 222.618 450.005C211.065 438.938 199.04 428.375 187.501 417.295Z"/>
	<path fill="#C46F02" d="M932.415 440.61C944.189 429.404 957.965 420.17 967.846 407.106C977.442 394.419 983.835 380.141 991.709 366.43C1000.09 351.839 1010.77 340.227 1024 329.895L1024 405.84C1017.58 416.914 1013.09 429.769 1008.06 441.563C999.366 461.955 989.771 481.146 977.642 499.769C975.011 503.809 972.47 508.084 969.537 511.901C968.114 507.268 965.333 501.951 962.905 497.744L963.206 496.62C967.85 482.419 973.743 468.662 978.692 454.575C983.257 441.583 986.832 428.301 992.199 415.591C994.78 409.566 997.716 403.699 1000.99 398.022C1006.96 387.855 1014.79 377.767 1016.65 365.883C1011.77 367.91 1007.49 370.523 1003.59 374.123C997.296 379.94 992.209 387.367 986.859 394.045C970.936 413.918 954.732 433.987 942.269 456.28C938.841 451.494 935.058 446.098 932.298 440.909L932.415 440.61Z"/>
	<path fill="#36D2E6" d="M88.8936 333.229C108.855 344.284 129.516 364.186 146.609 379.513C160.436 391.912 174.447 404.073 187.501 417.295C199.04 428.375 211.065 438.938 222.618 450.005C244.882 471.597 266.92 493.42 288.729 515.47C310.353 537.197 330.895 560.004 352.825 581.429C379.436 607.139 407.012 631.831 435.494 655.452C455.017 671.902 474.6 688.004 495.31 702.956C521.285 721.709 549.624 737.51 576.599 754.784C652.607 802.475 728.306 850.657 803.69 899.329C815.113 906.864 879.3 946.647 883.224 952.745C882.982 955.278 882.736 957.375 881.845 959.779C881.758 960.012 881.684 960.25 881.603 960.486L875.285 960.525C872.853 958.734 870.963 956.802 869.353 954.239C870.211 952.486 871.437 950.943 872.579 949.366C856.016 939.6 840.301 928.443 824.193 917.962C791.212 896.455 758.108 875.135 724.884 854.005L573.813 758.377C542.937 738.791 511.353 720.477 481.92 698.707C434.14 663.366 390.466 622.71 347.028 582.28C327.551 562.927 308.927 542.786 289.695 523.203C255.288 488.124 220.088 453.833 184.122 420.355C172.9 408.509 159.635 397.691 147.502 386.707L88.8936 333.229Z"/>
	<path fill="#974C00" d="M865.5 424.46C865.702 425.577 865.732 427.522 866.518 428.305C866.599 427.946 866.703 427.51 866.751 427.157C868.715 412.854 874.859 394.403 881.765 381.702C885.066 375.631 889.124 370.079 893.221 364.534C895.928 366.125 899.454 375.279 901.899 378.405L901.819 378.772C896.811 385.971 892.187 392.911 888.861 401.089C882.264 417.311 881.202 433.961 879.307 451.119C877.62 466.392 876.016 481.768 873.488 496.928C872.601 502.245 872.768 509.25 870.064 513.946C867.51 509.765 867.219 499.001 863.86 496.63L862.838 496.934C861.35 498.633 861.048 500.985 860.509 503.127C858.123 498.41 855.185 493.979 852.375 489.507C854.924 486.581 861.921 465.069 862.987 460.338C863.386 458.566 863.481 456.874 863.459 455.064C866.093 445.123 865.322 434.624 865.5 424.46Z"/>
	<path fill="#974C00" d="M942.269 456.28C954.732 433.987 970.936 413.918 986.859 394.045C992.209 387.367 997.296 379.94 1003.59 374.123C1007.49 370.523 1011.77 367.91 1016.65 365.883C1014.79 377.767 1006.96 387.855 1000.99 398.022C997.716 403.699 994.78 409.566 992.199 415.591C986.832 428.301 983.257 441.583 978.692 454.575C973.743 468.662 967.85 482.419 963.206 496.62C960.523 492.883 958.574 488.121 956.483 484C951.89 474.946 947.456 465.608 942.147 456.955L942.269 456.28Z"/>
	<path fill="#622D02" d="M870.064 513.946C872.768 509.25 872.601 502.245 873.488 496.928C876.016 481.768 877.62 466.392 879.307 451.119C881.202 433.961 882.264 417.311 888.861 401.089C892.187 392.911 896.811 385.971 901.819 378.772C904.823 384.646 914.209 405.463 918.345 408.883L918.312 409.804C915.877 419.352 913.205 428.942 911.564 438.666C907.941 460.131 908.924 486.851 893.878 504.188C887.545 510.048 881.815 515.626 876.594 522.529C874.32 519.743 872.142 516.881 870.064 513.946Z"/>
	<path fill="#FAF3DD" d="M969.537 511.901C972.47 508.084 975.011 503.809 977.642 499.769C989.771 481.146 999.366 461.955 1008.06 441.563C1013.09 429.769 1017.58 416.914 1024 405.84L1024 431.112C1014.46 453.175 1009.89 476.5 1003.52 499.569C998.709 516.997 992.614 534.029 987.562 551.386C981.474 542.895 974.463 522.693 969.439 512.257L969.537 511.901Z"/>
	<path fill="#B09E6E" d="M893.878 504.188C908.924 486.851 907.941 460.131 911.564 438.666C913.205 428.942 915.877 419.352 918.312 409.804C920.824 416.624 923.269 423.457 926.562 429.951C927.872 432.811 929.881 438.935 932.415 440.61L932.298 440.909C929.633 443.827 926.73 446.753 924.948 450.324C919.248 459.906 915.234 470.669 911.68 481.217C907.488 493.661 900.134 522.557 892.398 531.613C892.419 524.146 895.756 511.209 893.878 504.188Z"/>
	<path fill="#FAF3DD" d="M184.122 420.355C220.088 453.833 255.288 488.124 289.695 523.203C308.927 542.786 327.551 562.927 347.028 582.28C332.13 589.084 317.444 596.344 302.992 604.049C293.92 608.969 285.279 614.677 276.386 619.906C269.57 623.914 262.542 627.555 255.735 631.582C241.317 640.249 226.978 649.049 212.722 657.98C191.833 670.913 170.713 683.574 149.969 696.72C124.69 712.739 99.55 729.218 73.7273 744.337C66.9375 748.313 59.363 753.836 52.0013 756.373L51.8272 550.374C52.6393 535.744 51.8415 520.178 51.8624 505.435C59.9592 501.169 69.3884 492.085 77.2783 486.52C90.0004 477.444 102.955 468.698 116.129 460.292C122.275 456.443 128.75 453.148 134.861 449.244C146.349 441.905 171.807 424.463 184.122 420.355Z"/>
	<path fill="#D68A1A" d="M987.562 551.386C992.614 534.029 998.709 516.997 1003.52 499.569C1009.89 476.5 1014.46 453.175 1024 431.112L1024 480.817C1020.88 491.406 1019.47 502.594 1016.78 513.328C1013.74 525.447 1009.61 537.15 1005.95 549.08C1003.09 558.389 1000.77 567.93 997.629 577.14C994.869 568.894 991.588 559.57 987.567 551.873L987.562 551.386Z"/>
	<path fill="#974C00" d="M924.948 450.324C926.73 446.753 929.633 443.827 932.298 440.909C935.058 446.098 938.841 451.494 942.269 456.28L942.147 456.955C933.8 472.499 924.903 489.958 920.99 507.22C919.064 515.715 921.23 522.761 921.781 531.145C922.302 539.067 912.541 552.995 906.987 558.495C904.997 560.466 902.6 561.789 900.483 563.569C900.319 560.036 903.308 553.375 904.076 549.522C905.928 540.145 907.003 530.632 907.291 521.079C907.715 520.869 908.099 520.705 908.472 520.396C911.527 517.867 923.02 466.946 924.092 460.875C924.719 457.32 925.083 453.935 924.948 450.324Z"/>
	<path fill="#974C00" d="M892.398 531.613C900.134 522.557 907.488 493.661 911.68 481.217C915.234 470.669 919.248 459.906 924.948 450.324C925.083 453.935 924.719 457.32 924.092 460.875C923.02 466.946 911.527 517.867 908.472 520.396C908.099 520.705 907.715 520.869 907.291 521.079C902.929 524.088 898.997 542.242 895.15 548.019C893.07 545.108 891.636 542.059 890.127 538.831L892.398 531.613Z"/>
	<path fill="#622D02" d="M900.483 563.569C902.6 561.789 904.997 560.466 906.987 558.495C912.541 552.995 922.302 539.067 921.781 531.145C921.23 522.761 919.064 515.715 920.99 507.22C924.903 489.958 933.8 472.499 942.147 456.955C947.456 465.608 951.89 474.946 956.483 484C958.574 488.121 960.523 492.883 963.206 496.62L962.905 497.744C960.462 502.509 958.975 508.189 957.276 513.265C952.457 527.66 948.449 542.113 944.384 556.725C941.479 567.167 937.846 577.535 936.043 588.241C934.869 595.213 936.123 608.809 934.678 613.681C932.239 609.831 930.464 605.284 928.434 601.175L916.422 577.331C922.534 566.057 922.796 556.243 921.145 543.851C917.502 549.542 910.426 562.236 904.002 564.526C902.504 564.46 901.814 564.367 900.483 563.569Z"/>
	<path fill="#974C00" d="M997.629 577.14C1000.77 567.93 1003.09 558.389 1005.95 549.08C1009.61 537.15 1013.74 525.447 1016.78 513.328C1019.47 502.594 1020.88 491.406 1024 480.817L1024 576.197C1021.26 584.274 1019.79 593.391 1018.54 601.823C1017.95 605.777 1017.66 609.985 1016.68 613.854L1016.13 612.702C1016.11 612.99 1016.1 613.278 1016.09 613.565C1016.02 614.702 1016.11 614.259 1015.75 615.193C1013.9 610.941 1011.64 606.908 1009.71 602.696C1005.82 594.202 1002.17 585.54 998.057 577.155C995.591 587.836 993.167 598.488 991.311 609.297C989.558 619.657 987.871 630.028 986.251 640.41C984.847 649.827 980.184 693.861 974.092 698.894L971.945 693.563C972.759 690.28 970.937 662.697 971.141 656.061C972.173 622.409 977.768 584.078 987.567 551.873C991.588 559.57 994.869 568.894 997.629 577.14Z"/>
	<path fill="#974C00" d="M934.678 613.681C936.123 608.809 934.869 595.213 936.043 588.241C937.846 577.535 941.479 567.167 944.384 556.725C948.449 542.113 952.457 527.66 957.276 513.265C958.975 508.189 960.462 502.509 962.905 497.744C965.333 501.951 968.114 507.268 969.537 511.901L969.439 512.257C965.138 517.851 961.703 524.3 958.571 530.616C941.423 565.181 951.401 590.65 948.948 626.272C948.684 630.112 948.935 636.469 947.308 639.861C942.994 631.219 938.428 622.582 934.678 613.681Z"/>
	<path fill="#B09E6E" d="M947.308 639.861C948.935 636.469 948.684 630.112 948.948 626.272C951.401 590.65 941.423 565.181 958.571 530.616C961.703 524.3 965.138 517.851 969.439 512.257C974.463 522.693 981.474 542.895 987.562 551.386L987.567 551.873C977.768 584.078 972.173 622.409 971.141 656.061C970.937 662.697 972.759 690.28 971.945 693.563C963.303 675.873 956.233 657.454 947.308 639.861Z"/>
	<path fill="#FAF3DD" d="M0 564.941C8.25888 555.289 16.3706 545.356 24.3454 535.464C28.2668 530.599 31.9151 523.278 36.9647 519.687L37.0204 671.723C37.0522 699.949 37.9424 728.447 36.9513 756.646C33.5434 757.141 29.2631 756.31 25.7767 756.006C17.2016 755.258 8.60549 754.175 0 753.92L0 564.941Z"/>
	<path fill="#B8F2E6" d="M352.825 581.429C368.758 574.058 385.583 569.275 402.66 565.359C466.49 550.723 537.048 551.681 598.887 574.437C623.882 583.629 647.97 595.118 670.844 608.756C703.258 628.242 733.654 652.366 762.384 676.904C793.58 703.775 823.842 731.711 853.117 760.662C879.292 786.837 904.359 813.995 929.852 840.815C939.223 850.674 949.068 860.07 958.563 869.806C964.01 875.391 968.977 881.417 974.379 887.042C990.991 904.34 1007.88 921.39 1024 939.152L1024 953.398C989.895 952.959 955.872 953.96 921.774 953.989C910.193 953.998 898.267 954.589 886.721 953.999C885.063 953.914 884.379 953.979 883.224 952.745C879.3 946.647 815.113 906.864 803.69 899.329C728.306 850.657 652.607 802.475 576.599 754.784C549.624 737.51 521.285 721.709 495.31 702.956C474.6 688.004 455.017 671.902 435.494 655.452C407.012 631.831 379.436 607.139 352.825 581.429Z"/>
	<path fill="#B09E6E" d="M1016.68 613.854C1017.66 609.985 1017.95 605.777 1018.54 601.823C1019.79 593.391 1021.26 584.274 1024 576.197L1024 729.699C1022.02 723.025 1022.45 713.646 1021.67 706.494C1020.21 693.099 1018.07 679.809 1016.9 666.375C1015.53 648.898 1015.45 631.342 1016.68 613.854Z"/>
	<path fill="#974C00" d="M998.057 577.155C1002.17 585.54 1005.82 594.202 1009.71 602.696C1011.64 606.908 1013.9 610.941 1015.75 615.193C1016.11 614.259 1016.02 614.702 1016.09 613.565C1016.1 613.278 1016.11 612.99 1016.13 612.702L1016.68 613.854C1015.45 631.342 1015.53 648.898 1016.9 666.375C1018.07 679.809 1020.21 693.099 1021.67 706.494C1022.45 713.646 1022.02 723.025 1024 729.699L1024 806.052C1021.37 801.265 1019.43 795.98 1017.25 790.963C1013.5 782.388 1009.67 773.848 1005.76 765.347C999.074 751.187 991.214 737.59 984.45 723.477C980.629 715.502 977.417 707.092 974.092 698.894C980.184 693.861 984.847 649.827 986.251 640.41C987.871 630.028 989.558 619.657 991.311 609.297C993.167 598.488 995.591 587.836 998.057 577.155Z"/>
	<path fill="#B8F2E6" d="M347.028 582.28C390.466 622.71 434.14 663.366 481.92 698.707C511.353 720.477 542.937 738.791 573.813 758.377L724.884 854.005C758.108 875.135 791.212 896.455 824.193 917.962C840.301 928.443 856.016 939.6 872.579 949.366C871.437 950.943 870.211 952.486 869.353 954.239C865.435 954.761 859.359 954.151 855.113 954.211C839.048 954.408 822.981 954.407 806.916 954.206L707.809 954.049C691.366 954.047 674.895 953.73 658.457 953.999C656.473 952.131 654.676 950.366 651.769 950.368C649.483 950.369 647.495 951.793 646.024 953.432C645.421 954.105 644.841 954.811 644.272 955.513C637.71 954.897 630.75 955.333 624.149 955.375L581.903 955.873C575.392 955.905 568.348 956.54 561.923 955.437C546.567 952.8 530.984 946.167 516.691 940.205C505.892 935.702 494.99 931.212 484.451 926.126C471.578 919.914 459.383 912.901 446.967 905.863C414.228 887.668 382.811 867.191 352.947 844.584C325.364 824.035 293.315 796.837 262.56 782.38C211.77 758.505 174.83 760.663 122.361 777.959C107.984 782.564 93.7453 787.589 79.6631 793.03C73.5795 795.385 67.5372 797.847 61.539 800.412C58.6746 801.646 55.8696 803.2 52.9259 804.213L51.9623 804.535L51.941 756.756L52.0013 756.373C59.363 753.836 66.9375 748.313 73.7273 744.337C99.55 729.218 124.69 712.739 149.969 696.72C170.713 683.574 191.833 670.913 212.722 657.98C226.978 649.049 241.317 640.249 255.735 631.582C262.542 627.555 269.57 623.914 276.386 619.906C285.279 614.677 293.92 608.969 302.992 604.049C317.444 596.344 332.13 589.084 347.028 582.28Z"/>
	<path fill="#B8F2E6" d="M0 753.92C8.60549 754.175 17.2016 755.258 25.7767 756.006C29.2631 756.31 33.5434 757.141 36.9513 756.646L36.9928 756.988C36.2878 775.253 37.339 793.615 36.5948 811.864C24.7006 818.661 11.9784 824.151 0 830.901L0 753.92Z"/>
	<path fill="#75B3A2" d="M36.9928 756.988C41.9927 757.065 46.9465 757.084 51.941 756.756L51.9623 804.535C51.7052 856.528 51.7172 908.523 51.9983 960.517C94.859 960.855 137.721 960.959 180.583 960.829L218.584 960.741C224.905 960.73 231.438 961.119 237.732 960.664C237.083 958.128 236.112 955.818 237.574 953.382C238.609 951.658 240.138 950.847 242.062 950.454C244.087 950.04 246.603 949.976 248.372 951.226C249.65 952.129 250.583 953.987 250.557 955.575C250.527 957.344 249.683 958.836 248.919 960.389L384.889 960.672L421.42 960.714C428.441 960.742 435.703 961.127 442.688 960.531C442.565 959.558 442.518 959.523 442.075 958.743C441.311 957.396 441.213 956.24 441.631 954.735C442.184 952.739 444.189 951 446.025 950.207C447.777 949.45 450.32 949.244 452.032 950.175C453.737 951.102 454.558 952.867 454.897 954.699C455.315 956.959 454.608 958.613 453.547 960.565C517.486 961.267 581.466 959.929 645.4 960.611C644.878 958.902 644.33 957.309 644.272 955.513C644.841 954.811 645.421 954.105 646.024 953.432C647.495 951.793 649.483 950.369 651.769 950.368C654.676 950.366 656.473 952.131 658.457 953.999C659.036 955.99 658.928 957.22 658.655 959.251C658.619 959.52 658.59 959.79 658.556 960.059L658.49 960.543C730.754 960.949 803.02 960.943 875.285 960.525L881.603 960.486C929.038 961.038 976.589 959.505 1024 960.736L1024 975.758L493.937 975.583L239.876 975.494C177.265 975.398 114.568 974.901 51.964 975.568L52.0185 1024L36.9232 1024L37.0253 975.43C24.6903 975.259 12.3371 975.368 0 975.342L0 960.551L36.6464 960.615C36.9176 911.032 36.9003 861.447 36.5948 811.864C37.339 793.615 36.2878 775.253 36.9928 756.988Z"/>
	<path fill="#B8F2E6" d="M51.9623 804.535L52.9259 804.213C55.8696 803.2 58.6746 801.646 61.539 800.412C67.5372 797.847 73.5795 795.385 79.6631 793.03C93.7453 787.589 107.984 782.564 122.361 777.959C174.83 760.663 211.77 758.505 262.56 782.38C293.315 796.837 325.364 824.035 352.947 844.584C382.811 867.191 414.228 887.668 446.967 905.863C459.383 912.901 471.578 919.914 484.451 926.126C494.99 931.212 505.892 935.702 516.691 940.205C530.984 946.167 546.567 952.8 561.923 955.437C568.348 956.54 575.392 955.905 581.903 955.873L624.149 955.375C630.75 955.333 637.71 954.897 644.272 955.513C644.33 957.309 644.878 958.902 645.4 960.611C581.466 959.929 517.486 961.267 453.547 960.565C454.608 958.613 455.315 956.959 454.897 954.699C454.558 952.867 453.737 951.102 452.032 950.175C450.32 949.244 447.777 949.45 446.025 950.207C444.189 951 442.184 952.739 441.631 954.735C441.213 956.24 441.311 957.396 442.075 958.743C442.518 959.523 442.565 959.558 442.688 960.531C435.703 961.127 428.441 960.742 421.42 960.714L384.889 960.672L248.919 960.389C249.683 958.836 250.527 957.344 250.557 955.575C250.583 953.987 249.65 952.129 248.372 951.226C246.603 949.976 244.087 950.04 242.062 950.454C240.138 950.847 238.609 951.658 237.574 953.382C236.112 955.818 237.083 958.128 237.732 960.664C231.438 961.119 224.905 960.73 218.584 960.741L180.583 960.829C137.721 960.959 94.859 960.855 51.9983 960.517C51.7172 908.523 51.7052 856.528 51.9623 804.535Z"/>
	<path fill="#B8F2E6" d="M0 830.901C11.9784 824.151 24.7006 818.661 36.5948 811.864C36.9003 861.447 36.9176 911.032 36.6464 960.615L0 960.551L0 830.901Z"/>
	<path fill="#B8F2E6" d="M883.224 952.745C884.379 953.979 885.063 953.914 886.721 953.999C898.267 954.589 910.193 953.998 921.774 953.989C955.872 953.96 989.895 952.959 1024 953.398L1024 960.736C976.589 959.505 929.038 961.038 881.603 960.486C881.684 960.25 881.758 960.012 881.845 959.779C882.736 957.375 882.982 955.278 883.224 952.745Z"/>
	<path fill="#B8F2E6" d="M658.457 953.999C674.895 953.73 691.366 954.047 707.809 954.049L806.916 954.206C822.981 954.407 839.048 954.408 855.113 954.211C859.359 954.151 865.435 954.761 869.353 954.239C870.963 956.802 872.853 958.734 875.285 960.525C803.02 960.943 730.754 960.949 658.49 960.543L658.556 960.059C658.59 959.79 658.619 959.52 658.655 959.251C658.928 957.22 659.036 955.99 658.457 953.999Z"/>
	<path fill="#B8F2E6" d="M0 975.342C12.3371 975.368 24.6903 975.259 37.0253 975.43L36.9232 1024L0 1024L0 975.342Z"/>
	<path fill="#B8F2E6" d="M51.964 975.568C114.568 974.901 177.265 975.398 239.876 975.494L493.937 975.583L1024 975.758L1024 1024L52.0185 1024L51.964 975.568ZM874.217 986.657C870.827 987.406 867.611 988.761 865.656 991.798C864.419 993.695 864.009 996.014 864.519 998.219C865.123 1000.84 866.958 1002.94 869.283 1004.22C871.904 1005.66 874.642 1005.66 877.554 1005.61C880.747 1004.7 883.655 1003.67 885.407 1000.64C886.587 998.603 886.818 996.304 886.063 994.069C885.076 991.147 882.617 988.954 879.845 987.741C878.044 986.953 876.164 986.743 874.217 986.657ZM649.561 988.048C646.551 989.396 643.919 990.904 642.67 994.139C641.947 996.012 641.983 998.086 642.845 999.907C643.922 1002.18 646.14 1003.84 648.537 1004.51C649.942 1004.9 651.496 1004.94 652.949 1005C655.718 1004.34 657.906 1003.49 659.482 1000.97C660.688 999.025 660.996 996.654 660.327 994.465C659.528 991.847 657.573 989.868 655.121 988.73C653.259 987.865 651.569 987.91 649.561 988.048ZM447.339 990.015C444.277 990.892 441.555 992.247 439.882 995.095C438.777 996.974 438.353 999.142 439.007 1001.26C439.649 1003.33 441.201 1004.88 443.125 1005.81C444.807 1006.62 446.667 1006.69 448.5 1006.74C451.206 1006.06 453.76 1005.37 455.369 1002.9C456.475 1001.21 456.854 999.147 456.423 997.173C455.861 994.656 454.069 992.608 451.863 991.358C450.484 990.577 448.9 990.219 447.339 990.015ZM237.135 990.581C234.255 991.627 231.55 992.917 230.099 995.786C229.232 997.501 229.113 999.437 229.791 1001.24C230.704 1003.67 232.905 1005.47 235.279 1006.39C237.761 1007.35 240.341 1007.23 242.937 1006.9C245.905 1005.58 248.79 1004.26 250.071 1001.03C250.769 999.296 250.682 997.345 249.833 995.68C248.63 993.292 246.188 991.73 243.699 990.95C241.508 990.264 239.391 990.387 237.135 990.581Z"/>
	<path fill="#5E5407" d="M877.554 1005.61C874.642 1005.66 871.904 1005.66 869.283 1004.22C866.958 1002.94 865.123 1000.84 864.519 998.219C864.009 996.014 864.419 993.695 865.656 991.798C867.611 988.761 870.827 987.406 874.217 986.657C876.164 986.743 878.044 986.953 879.845 987.741C882.617 988.954 885.076 991.147 886.063 994.069C886.818 996.304 886.587 998.603 885.407 1000.64C883.655 1003.67 880.747 1004.7 877.554 1005.61Z"/>
	<path fill="#5E5407" d="M652.949 1005C651.496 1004.94 649.942 1004.9 648.537 1004.51C646.14 1003.84 643.922 1002.18 642.845 999.907C641.983 998.086 641.947 996.012 642.67 994.139C643.919 990.904 646.551 989.396 649.561 988.048C651.569 987.91 653.259 987.865 655.121 988.73C657.573 989.868 659.528 991.847 660.327 994.465C660.996 996.654 660.688 999.025 659.482 1000.97C657.906 1003.49 655.718 1004.34 652.949 1005Z"/>
	<path fill="#5E5407" d="M448.5 1006.74C446.667 1006.69 444.807 1006.62 443.125 1005.81C441.201 1004.88 439.649 1003.33 439.007 1001.26C438.353 999.142 438.777 996.974 439.882 995.095C441.555 992.247 444.277 990.892 447.339 990.015C448.9 990.219 450.484 990.577 451.863 991.358C454.069 992.608 455.861 994.656 456.423 997.173C456.854 999.147 456.475 1001.21 455.369 1002.9C453.76 1005.37 451.206 1006.06 448.5 1006.74Z"/>
	<path fill="#5E5407" d="M242.937 1006.9C240.341 1007.23 237.761 1007.35 235.279 1006.39C232.905 1005.47 230.704 1003.67 229.791 1001.24C229.113 999.437 229.232 997.501 230.099 995.786C231.55 992.917 234.255 991.627 237.135 990.581C239.391 990.387 241.508 990.264 243.699 990.95C246.188 991.73 248.63 993.292 249.833 995.68C250.682 997.345 250.769 999.296 250.071 1001.03C248.79 1004.26 245.905 1005.58 242.937 1006.9Z"/>
</svg>
