<?xml version="1.0" encoding="utf-8" ?>
<svg xmlns="http://www.w3.org/2000/svg" xmlns:xlink="http://www.w3.org/1999/xlink" width="1024" height="1024">
	<path fill="#FAF3DD" d="M0 0L112.78 0C100.682 11.433 87.0054 21.4281 74.5614 32.5712C47.5236 56.7601 22.5809 83.1932 -5.68434e-14 111.588L0 0Z"/>
	<path fill="#B8F2E6" d="M112.78 0L219.651 0C206.715 8.13013 193.615 15.8069 180.99 24.45C148.883 46.4303 117.539 71.7656 90.3631 99.6804C69.4156 121.198 50.346 144.762 32.5353 168.914C21.0032 184.552 11.297 201.404 0 217.193L0 111.588C22.5809 83.1932 47.5236 56.7601 74.5614 32.5712C87.0054 21.4281 100.682 11.433 112.78 0Z"/>
	<path fill="#B8F2E6" d="M219.651 0L402.718 0L622.962 0L806.284 0C817.28 6.51898 828.284 12.977 838.917 20.0821C872.684 42.8715 904.067 69.0071 932.59 98.0923C944.916 110.505 956.938 123.143 967.962 136.744C988.58 162.181 1006.59 189.508 1024 217.203L1024 393.567L1024 512.294C1017.56 511.471 1010.53 511.964 1004.02 511.968L968.354 512.016C968.76 508.654 968.652 505.152 968.54 501.766C964.777 380.915 913.065 266.533 824.823 183.875C738.503 101.122 622.654 56.3587 503.118 59.5696C489.006 59.9831 474.978 60.5327 460.94 62.1337C389.029 70.3351 316.865 96.2674 257.235 137.54C228.114 158.077 201.227 181.611 177.015 207.756C133.152 254.313 97.0106 318.151 77.456 378.867C69.9687 402.114 64.7225 426.325 60.6372 450.376C57.2403 470.374 53.9407 491.529 54.5558 511.85L0 511.991L0 394.741L0 217.193C11.297 201.404 21.0032 184.552 32.5353 168.914C50.346 144.762 69.4156 121.198 90.3631 99.6804C117.539 71.7656 148.883 46.4303 180.99 24.45C193.615 15.8069 206.715 8.13013 219.651 0Z"/>
	<path fill="#B8F2E6" d="M806.284 0L911.22 0C921.04 8.87039 931.897 16.7498 941.959 25.3834C964.956 45.1603 986.474 66.595 1006.34 89.5155C1012.43 96.5725 1018.75 103.647 1024 111.361L1024 217.203C1006.59 189.508 988.58 162.181 967.962 136.744C956.938 123.143 944.916 110.505 932.59 98.0923C904.067 69.0071 872.684 42.8715 838.917 20.0821C828.284 12.977 817.28 6.51898 806.284 0Z"/>
	<path fill="#FAF3DD" d="M911.22 0L1024 0L1024 111.361C1018.75 103.647 1012.43 96.5725 1006.34 89.5155C986.474 66.595 964.956 45.1603 941.959 25.3834C931.897 16.7498 921.04 8.87039 911.22 0Z"/>
	<path fill="#AED9E0" d="M124.165 511.542L70.4348 511.793L54.9167 511.919L54.5558 511.85C53.9407 491.529 57.2403 470.374 60.6372 450.376C64.7225 426.325 69.9687 402.114 77.456 378.867C97.0106 318.151 133.152 254.313 177.015 207.756C201.227 181.611 228.114 158.077 257.235 137.54C316.865 96.2674 389.029 70.3351 460.94 62.1337C474.978 60.5327 489.006 59.9831 503.118 59.5696C622.654 56.3587 738.503 101.122 824.823 183.875C913.065 266.533 964.777 380.915 968.54 501.766C968.652 505.152 968.76 508.654 968.354 512.016L953.5 512.005L920.051 511.871C913.053 511.819 905.941 511.489 898.955 511.855L898.89 511.619C898.996 509.832 899.047 508.043 899.044 506.252C899.013 482.67 895.782 458.748 890.803 435.733C875.312 362.335 838.708 295.064 785.494 242.192C736.895 193.293 676.15 158.22 609.504 140.579C598.407 137.651 587.302 134.881 575.964 133.045C553.97 129.69 531.736 128.158 509.489 128.464C407.294 129.054 309.577 170.475 238.088 243.506C185.575 295.977 149.223 362.417 133.348 434.935C127.619 460.506 124.18 485.171 124.398 511.426L124.165 511.542Z"/>
	<path fill="#FAF3DD" d="M124.398 511.426C124.18 485.171 127.619 460.506 133.348 434.935C149.223 362.417 185.575 295.977 238.088 243.506C309.577 170.475 407.294 129.054 509.489 128.464C531.736 128.158 553.97 129.69 575.964 133.045C587.302 134.881 598.407 137.651 609.504 140.579C676.15 158.22 736.895 193.293 785.494 242.192C838.708 295.064 875.312 362.335 890.803 435.733C895.782 458.748 899.013 482.67 899.044 506.252C899.047 508.043 898.996 509.832 898.89 511.619L898.955 511.855C898.782 535.622 896.186 559.871 891.781 583.218L891.349 584.643C887.2 587.827 881.221 593.893 876.196 595.134L875.703 594.842C882.3 568.09 886.745 539.217 886.445 511.611C872.056 512.05 857.622 511.459 843.225 511.518C838.931 515.182 834.599 518.801 830.229 522.375C826.718 525.376 821.773 530.607 817.475 532.06C818.603 517.485 818.716 502.85 817.814 488.26C813.586 407.417 773.582 335.106 714.002 281.458C654.26 227.663 574.796 202.315 495.002 206.575C413.043 211.031 336.255 248.029 281.694 309.351C227.653 369.576 200.183 449.049 205.498 529.79L192.73 521.93C187.706 517.933 180.913 514.813 175.343 511.465C163.048 511.239 150.709 511.463 138.41 511.48C133.739 511.527 129.068 511.509 124.398 511.426Z"/>
	<path fill="#FAF3DD" d="M205.498 529.79C200.183 449.049 227.653 369.576 281.694 309.351C336.255 248.029 413.043 211.031 495.002 206.575C574.796 202.315 654.26 227.663 714.002 281.458C773.582 335.106 813.586 407.417 817.814 488.26C818.716 502.85 818.603 517.485 817.475 532.06L817.553 532.627C808.435 539.394 753.902 585.849 750.492 586.961C765.404 535.828 766.195 486.469 749.467 435.553C728.707 372.127 683.644 319.522 624.158 289.27C565.755 259.753 498.062 254.479 435.791 274.594C372.105 295.221 319.276 340.397 289.015 400.11C266.849 444.352 258.588 492.372 263.649 541.552C264.732 552.081 265.928 563.989 269.268 574.039L270.386 579.962C261.746 574.492 253.685 567.201 245.671 560.832C232.635 550.432 219.467 540.201 206.168 530.14L205.498 529.79Z"/>
	<path fill="#FAF3DD" d="M269.268 574.039C265.928 563.989 264.732 552.081 263.649 541.552C258.588 492.372 266.849 444.352 289.015 400.11C319.276 340.397 372.105 295.221 435.791 274.594C498.062 254.479 565.755 259.753 624.158 289.27C683.644 319.522 728.707 372.127 749.467 435.553C766.195 486.469 765.404 535.828 750.492 586.961C738.444 622.935 718.583 655.796 692.334 683.185C684.963 690.81 676.956 697.625 669.048 704.665C667.539 705.52 666.036 706.386 664.54 707.262C657.004 707.823 642.818 714.083 635.026 716.577C632.72 717.316 630.013 718.498 627.604 718.644C636.043 712.833 645.122 707.835 653.385 701.791C693.48 672.463 714.561 642.313 735.394 597.934C727.495 603.973 719.493 610.182 711.126 615.56C699.481 623.045 654.592 647.553 641.82 647.782C697.494 594.629 715.086 512.879 686.204 441.53C657.323 370.181 587.819 323.687 510.848 324.227C433.877 324.767 365.032 372.231 337.154 443.978C309.277 515.725 328.013 597.22 384.427 649.587C376.617 650.29 334.809 624.439 326.508 619.15C315.016 611.829 303.717 603.948 292.442 596.286C289.67 594.403 287.681 591.551 284.742 589.921C285.24 595.283 288.819 602.265 291.051 607.221C304.673 637.461 325.441 666.436 351.05 687.674C358.342 693.721 366.167 699.602 374.115 704.767C380.685 709.038 387.612 712.849 393.883 717.564C389.175 718.037 373.108 710.52 364.286 711.107C361.946 709.385 359.539 707.756 357.071 706.222C349.759 699.428 341.308 693.896 334.06 686.916C310.519 664.244 291.536 635.464 279.233 605.216C275.859 596.919 273.328 588.408 270.386 579.962L269.268 574.039Z"/>
	<path fill="#FAF3DD" d="M641.82 647.782C569.999 716.353 457.203 717.144 384.427 649.587C328.013 597.22 309.277 515.725 337.154 443.978C365.032 372.231 433.877 324.767 510.848 324.227C587.819 323.687 657.323 370.181 686.204 441.53C715.086 512.879 697.494 594.629 641.82 647.782Z"/>
	<path fill="#C7A979" d="M70.4348 511.793L124.165 511.542C125.491 518.202 124.625 526.099 124.994 532.954C125.818 548.221 127.361 564.159 130.648 579.116C123.097 574.327 116.147 568.518 108.68 563.572C96.6555 555.607 84.0796 548.77 71.4038 541.929L71.1699 541.611C72.4727 536.866 70.5233 518.357 70.4348 511.793Z"/>
	<path fill="#FAF3DD" d="M124.165 511.542L124.398 511.426C129.068 511.509 133.739 511.527 138.41 511.48C138.588 538.075 141.486 564.581 147.059 590.586C141.755 586.794 136.441 582.738 130.866 579.368L130.648 579.116C127.361 564.159 125.818 548.221 124.994 532.954C124.625 526.099 125.491 518.202 124.165 511.542Z"/>
	<path fill="#D6C399" d="M138.41 511.48C150.709 511.463 163.048 511.239 175.343 511.465C180.913 514.813 187.706 517.933 192.73 521.93C195.496 562.27 204.144 600.18 219.931 637.458C209.387 632.057 151.667 591.843 147.315 591.105L147.059 590.586C141.486 564.581 138.588 538.075 138.41 511.48Z"/>
	<path fill="#D6C399" d="M843.225 511.518C857.622 511.459 872.056 512.05 886.445 511.611C886.745 539.217 882.3 568.09 875.703 594.842L875.356 596.088C849.95 609.066 826.663 624.807 802.479 639.804C805.317 629.289 810.497 619.139 814.031 608.785C823.612 580.925 829.069 551.814 830.229 522.375C834.599 518.801 838.931 515.182 843.225 511.518Z"/>
	<path fill="#C7A979" d="M898.955 511.855C905.941 511.489 913.053 511.819 920.051 511.871L953.5 512.005C953.613 522.789 951.722 533.93 952.559 544.637L953.008 545.011L952.614 545.097C945.601 546.215 910.428 570.164 902.929 575.298C899.334 577.758 895.537 581.159 891.781 583.218C896.186 559.871 898.782 535.622 898.955 511.855Z"/>
	<path fill="#C7A979" d="M0 511.991L54.5558 511.85L54.9167 511.919C54.9386 519.038 54.7324 526.244 55.1067 533.35C36.9398 525.84 18.5635 518.847 5.68434e-14 512.379L0 511.991Z"/>
	<path fill="#D6C399" d="M54.9167 511.919L70.4348 511.793C70.5233 518.357 72.4727 536.866 71.1699 541.611C66.3834 538.42 60.6671 536.037 55.4093 533.715L55.1067 533.35C54.7324 526.244 54.9386 519.038 54.9167 511.919Z"/>
	<path fill="#FAF3DD" d="M953.5 512.005L968.354 512.016C967.197 519.952 968.261 528.494 967.755 536.547L967.597 536.811C962.496 539.147 957.239 541.518 952.559 544.637C951.722 533.93 953.613 522.789 953.5 512.005Z"/>
	<path fill="#C7A979" d="M968.354 512.016L1004.02 511.968C1010.53 511.964 1017.56 511.471 1024 512.294L1024 513.483C1010.53 517.223 997.295 522.465 984.62 528.33C979.02 530.921 973.481 534.362 967.755 536.547C968.261 528.494 967.197 519.952 968.354 512.016Z"/>
	<path fill="#BA854B" d="M5.68434e-14 512.379C18.5635 518.847 36.9398 525.84 55.1067 533.35L55.4093 533.715C58.0676 571.84 66.4196 608.899 77.2735 645.476C71.3179 643.655 65.6564 639.678 60.0557 636.943C42.8982 628.565 24.6606 619.575 5.81136 615.882C4.12178 615.111 1.84051 614.955 0 614.615L0 512.379L5.68434e-14 512.379Z"/>
	<path fill="#BA854B" d="M967.755 536.547C973.481 534.362 979.02 530.921 984.62 528.33C997.295 522.465 1010.53 517.223 1024 513.483L1024 566.024C1023.19 567.569 1022.82 569.089 1022.45 570.779C1020.23 580.992 1018.75 591.424 1016.73 601.692C1015.86 606.091 1013.76 612.561 1013.59 616.698L1014.37 617.32L1013 617.654C989.37 624.376 967.923 635.086 946.428 646.818C950.161 635.292 952.887 623.555 955.65 611.768C961.416 587.169 966.522 562.123 967.597 536.811L967.755 536.547Z"/>
	<path fill="#FAF3DD" d="M192.73 521.93L205.498 529.79L206.168 530.14C204.879 532.968 206.411 539.577 206.793 542.697C209.704 566.432 214.274 587.716 222.666 610.229C227.515 623.239 232.829 636.27 238.676 648.862C237.206 648.689 224.186 640.632 221.355 639.291L219.931 637.458C204.144 600.18 195.496 562.27 192.73 521.93Z"/>
	<path fill="#FAF3DD" d="M817.475 532.06C821.773 530.607 826.718 525.376 830.229 522.375C829.069 551.814 823.612 580.925 814.031 608.785C810.497 619.139 805.317 629.289 802.479 639.804L800.887 641.54C794.61 644.458 788.998 650.107 782.13 651.585C801.105 613.816 813.2 574.766 817.553 532.627L817.475 532.06Z"/>
	<path fill="#D6C399" d="M238.676 648.862C232.829 636.27 227.515 623.239 222.666 610.229C214.274 587.716 209.704 566.432 206.793 542.697C206.411 539.577 204.879 532.968 206.168 530.14C219.467 540.201 232.635 550.432 245.671 560.832C253.685 567.201 261.746 574.492 270.386 579.962C273.328 588.408 275.859 596.919 279.233 605.216C291.536 635.464 310.519 664.244 334.06 686.916C341.308 693.896 349.759 699.428 357.071 706.222C353.024 706.504 346.749 703.454 342.858 702.025C307.165 688.912 272.887 670.665 240.495 650.839L239.864 651.153L238.976 650.641L238.676 648.862Z"/>
	<path fill="#D6C399" d="M750.492 586.961C753.902 585.849 808.435 539.394 817.553 532.627C813.2 574.766 801.105 613.816 782.13 651.585L781.287 652.978C779.035 653.585 766.033 661.276 762.519 663.074C745.561 671.753 684.404 703.4 669.048 704.665C676.956 697.625 684.963 690.81 692.334 683.185C718.583 655.796 738.444 622.935 750.492 586.961Z"/>
	<path fill="#C7A979" d="M55.4093 533.715C60.6671 536.037 66.3834 538.42 71.1699 541.611L71.4038 541.929C71.1701 567.086 80.0913 604.551 87.3232 628.763C89.756 636.908 95.3396 649.259 96.4155 656.802C90.0131 653.503 84.199 649.162 77.7262 646.029L77.2735 645.476C66.4196 608.899 58.0676 571.84 55.4093 533.715Z"/>
	<path fill="#D6C399" d="M952.559 544.637C957.239 541.518 962.496 539.147 967.597 536.811C966.522 562.123 961.416 587.169 955.65 611.768C952.887 623.555 950.161 635.292 946.428 646.818L945.697 647.477C941.262 649.921 932.91 655.871 928.237 656.609C937.563 629.809 944.791 601.202 949.201 573.174C950.669 563.841 951.46 554.465 952.614 545.097L953.008 545.011L952.559 544.637Z"/>
	<path fill="#BA854B" d="M71.4038 541.929C84.0796 548.77 96.6555 555.607 108.68 563.572C116.147 568.518 123.097 574.327 130.648 579.116L130.866 579.368C132.183 588.014 134.791 596.447 137.164 604.85C144.226 629.855 152.853 653.74 164.08 677.159C167.957 685.246 173.213 692.864 176.83 700.982C149.29 688.316 124.162 670.351 96.8007 657.201C99.9743 667.464 104.444 677.339 108.891 687.101C120.542 712.678 133.848 736.678 150.064 759.644C152.467 763.048 167.795 782.924 167.501 785.086C167.491 785.155 167.434 785.208 167.401 785.27C159.264 781.7 151.356 777.447 143.514 773.275L141.451 771.894C135.585 763.251 129.378 754.649 123.958 745.725C104.815 714.205 90.2175 680.634 77.7262 646.029C84.199 649.162 90.0131 653.503 96.4155 656.802C95.3396 649.259 89.756 636.908 87.3232 628.763C80.0913 604.551 71.1701 567.086 71.4038 541.929Z"/>
	<path fill="#C7A979" d="M891.781 583.218C895.537 581.159 899.334 577.758 902.929 575.298C910.428 570.164 945.601 546.215 952.614 545.097C951.46 554.465 950.669 563.841 949.201 573.174C944.791 601.202 937.563 629.809 928.237 656.609C932.91 655.871 941.262 649.921 945.697 647.477C935.549 681.273 921.168 713.651 902.897 743.838C898.82 750.699 894.051 757.223 889.532 763.798C887.601 766.608 885.29 769.489 883.717 772.501C882.902 773.216 881.803 773.973 881.172 774.842C873.056 778.477 865.055 782.557 856.747 785.73C857.144 784.22 880.616 752.957 883.765 747.988C903.292 717.183 914.777 691.605 927.713 657.626C909.629 666.109 891.992 676.533 874.59 686.338C866.087 691.129 857.416 696.246 848.569 700.34C850.221 695.811 852.938 691.327 855.083 686.994C859.216 678.717 863.191 670.363 867.009 661.937C878.143 637.219 885.552 611.079 891.349 584.643L891.781 583.218Z"/>
	<path fill="#C7A979" d="M1014.37 617.32L1013.59 616.698C1013.76 612.561 1015.86 606.091 1016.73 601.692C1018.75 591.424 1020.23 580.992 1022.45 570.779C1022.82 569.089 1023.19 567.569 1024 566.024L1024 615.216C1020.8 615.949 1017.6 616.765 1014.37 617.32Z"/>
	<path fill="#D6C399" d="M130.866 579.368C136.441 582.738 141.755 586.794 147.059 590.586L147.315 591.105C155.424 625.357 168.112 658.359 185.038 689.221C189.742 697.688 195.669 705.457 200.353 713.864C192.66 710.415 185.237 705.852 177.757 701.916L176.83 700.982C173.213 692.864 167.957 685.246 164.08 677.159C152.853 653.74 144.226 629.855 137.164 604.85C134.791 596.447 132.183 588.014 130.866 579.368Z"/>
	<path fill="#D6C399" d="M875.703 594.842L876.196 595.134C881.221 593.893 887.2 587.827 891.349 584.643C885.552 611.079 878.143 637.219 867.009 661.937C863.191 670.363 859.216 678.717 855.083 686.994C852.938 691.327 850.221 695.811 848.569 700.34C847.986 700.993 847.391 701.82 846.729 702.379C841.362 704.638 827.558 714.19 822.995 714.393C837.855 691.766 851.53 666.364 861.049 640.983C866.592 626.202 870.777 611.174 875.356 596.088L875.703 594.842Z"/>
	<path fill="#FAF3DD" d="M284.742 589.921C287.681 591.551 289.67 594.403 292.442 596.286C303.717 603.948 315.016 611.829 326.508 619.15C334.809 624.439 376.617 650.29 384.427 649.587C457.203 717.144 569.999 716.353 641.82 647.782C654.592 647.553 699.481 623.045 711.126 615.56C719.493 610.182 727.495 603.973 735.394 597.934C714.561 642.313 693.48 672.463 653.385 701.791C645.122 707.835 636.043 712.833 627.604 718.644C630.013 718.498 632.72 717.316 635.026 716.577C642.818 714.083 657.004 707.823 664.54 707.262C658.189 712.714 650.742 717.266 643.656 721.702C598.445 749.474 545.562 762.12 492.678 757.804C445.824 754.255 402.599 738.07 364.286 711.107C373.108 710.52 389.175 718.037 393.883 717.564C387.612 712.849 380.685 709.038 374.115 704.767C366.167 699.602 358.342 693.721 351.05 687.674C325.441 666.436 304.673 637.461 291.051 607.221C288.819 602.265 285.24 595.283 284.742 589.921ZM620.448 721.455L619.898 721.539C606.273 723.72 592.947 728.126 579.332 730.669C542.227 737.307 504.341 738.389 466.918 733.88C456.37 732.67 445.718 731.031 435.328 728.854C427.61 727.238 408.994 721.175 402.332 721.682C412.085 725.99 421.775 730.32 431.849 733.838C493.872 754.865 561.706 750.411 620.448 721.455Z"/>
	<path fill="#C7A979" d="M147.315 591.105C151.667 591.843 209.387 632.057 219.931 637.458L221.355 639.291C237.296 679.752 273.246 723.655 306.417 751.469C310.735 755.109 315.168 758.611 319.709 761.969C324.07 765.143 334.68 771.535 337.604 775.246C324.298 772.481 310.666 766.122 298.179 760.872C274.868 751.159 251.848 740.76 229.152 729.687C220.525 725.557 211.97 719.954 203.012 716.743C215.304 737.272 231.444 756.399 248.409 773.209C288.952 813.386 326.384 835.797 378.143 859.32C364.342 860.548 336.249 845.486 322.91 846.897C319.825 845.242 316.773 843.568 313.544 842.206C309.498 838.257 303.497 835.293 298.761 832.146C291.716 827.461 284.842 822.522 278.154 817.341C243.344 790.411 212.866 758.479 189.379 721.174C185.44 714.917 180.855 708.632 177.757 701.916C185.237 705.852 192.66 710.415 200.353 713.864C195.669 705.457 189.742 697.688 185.038 689.221C168.112 658.359 155.424 625.357 147.315 591.105Z"/>
	<path fill="#C7A979" d="M802.479 639.804C826.663 624.807 849.95 609.066 875.356 596.088C870.777 611.174 866.592 626.202 861.049 640.983C851.53 666.364 837.855 691.766 822.995 714.393C822.466 715.053 821.952 715.653 821.333 716.23C815.4 717.674 800.396 726.323 793.598 729.54C779.503 736.038 765.338 742.385 751.106 748.579C735.284 755.514 719.621 762.413 703.408 768.412C698.422 770.257 692.366 773.168 687.129 773.763C691.863 769.688 697.517 766.297 702.572 762.597C709.856 757.195 716.936 751.524 723.798 745.596C752.466 721.156 787.256 676.869 800.887 641.54L802.479 639.804Z"/>
	<path fill="#B76F1C" d="M0 614.615C1.84051 614.955 4.12178 615.111 5.81136 615.882C24.6606 619.575 42.8982 628.565 60.0557 636.943C65.6564 639.678 71.3179 643.655 77.2735 645.476L77.7262 646.029C90.2175 680.634 104.815 714.205 123.958 745.725C129.378 754.649 135.585 763.251 141.451 771.894C125.675 766.063 110.598 758.156 94.9875 751.845C86.5403 748.382 77.9816 745.197 69.3252 742.296C63.0845 740.24 56.7125 738.563 50.5423 736.302C45.3588 734.759 40.2016 733.236 34.9311 732.01L34.3003 731.885C25.8551 711.92 17.1704 691.945 10.5705 671.276C6.45103 658.375 3.73444 645.166 0 632.179L0 614.615Z"/>
	<path fill="#BA854B" d="M1014.37 617.32C1017.6 616.765 1020.8 615.949 1024 615.216L1024 631.76C1020.89 642.443 1018.11 653.21 1014.79 663.831C1008.28 684.798 1000.41 705.315 991.216 725.249L990.722 725.549C984.243 727.641 977.88 729.949 971.515 732.365C974.436 723.552 980.041 715.245 983.641 706.628C995.763 677.618 1006.88 648.597 1013 617.654L1014.37 617.32Z"/>
	<path fill="#B76F1C" d="M946.428 646.818C967.923 635.086 989.37 624.376 1013 617.654C1006.88 648.597 995.763 677.618 983.641 706.628C980.041 715.245 974.436 723.552 971.515 732.365C960.664 738.071 948.182 741.411 936.885 746.331C918.774 754.219 901.34 763.635 883.717 772.501C885.29 769.489 887.601 766.608 889.532 763.798C894.051 757.223 898.82 750.699 902.897 743.838C921.168 713.651 935.549 681.273 945.697 647.477L946.428 646.818Z"/>
	<path fill="#974C00" d="M991.216 725.249C1000.41 705.315 1008.28 684.798 1014.79 663.831C1018.11 653.21 1020.89 642.443 1024 631.76L1024 717.25C1013.01 719.199 1001.72 720.666 991.435 725.177C991.365 725.208 991.289 725.225 991.216 725.249Z"/>
	<path fill="#974C00" d="M0 632.179C3.73444 645.166 6.45103 658.375 10.5705 671.276C17.1704 691.945 25.8551 711.92 34.3003 731.885C23.6244 728.177 11.1553 726.631 0 724.784L0 632.179Z"/>
	<path fill="#D6C399" d="M221.355 639.291C224.186 640.632 237.206 648.689 238.676 648.862L238.976 650.641L239.864 651.153L240.435 651.952C247.989 662.648 254.135 674.357 261.766 685.086C288.261 722.812 323.132 753.89 363.647 775.885C370.824 779.752 384.12 788.259 391.265 790.168C391.332 790.186 391.402 790.19 391.471 790.202C401.728 794.156 412.001 798.206 422.555 801.31C492.072 821.757 561.794 817.578 629.1 791.691C629.252 791.668 629.411 791.672 629.556 791.622C634.262 790.025 645.685 782.988 650.983 780.292C708.347 751.107 749.645 708.546 781.287 652.978L782.13 651.585C788.998 650.107 794.61 644.458 800.887 641.54C787.256 676.869 752.466 721.156 723.798 745.596C716.936 751.524 709.856 757.195 702.572 762.597C697.517 766.297 691.863 769.688 687.129 773.763C679.59 777.445 672.697 782.231 665.544 786.586C657.128 791.675 648.415 796.255 639.451 800.302C566.405 832.393 483.931 835.7 408.55 809.56C393.463 804.4 378.797 798.083 364.682 790.664C358.049 787.159 343.28 776.677 337.604 775.246C334.68 771.535 324.07 765.143 319.709 761.969C315.168 758.611 310.735 755.109 306.417 751.469C273.246 723.655 237.296 679.752 221.355 639.291Z"/>
	<path fill="#C7A979" d="M239.864 651.153L240.495 650.839C272.887 670.665 307.165 688.912 342.858 702.025C346.749 703.454 353.024 706.504 357.071 706.222C359.539 707.756 361.946 709.385 364.286 711.107C402.599 738.07 445.824 754.255 492.678 757.804C545.562 762.12 598.445 749.474 643.656 721.702C650.742 717.266 658.189 712.714 664.54 707.262C666.036 706.386 667.539 705.52 669.048 704.665C684.404 703.4 745.561 671.753 762.519 663.074C766.033 661.276 779.035 653.585 781.287 652.978C749.645 708.546 708.347 751.107 650.983 780.292C645.685 782.988 634.262 790.025 629.556 791.622C629.411 791.672 629.252 791.668 629.1 791.691C623.955 791.415 614.586 794.175 609.195 795.196C599.087 797.075 588.955 798.824 578.802 800.445C556.218 804.109 533.379 805.971 510.499 806.013C479.945 806.196 451.383 801.804 421.397 796.55C412.279 794.953 401.31 790.51 392.341 790.217C392.051 790.207 391.761 790.207 391.471 790.202C391.402 790.19 391.332 790.186 391.265 790.168C384.12 788.259 370.824 779.752 363.647 775.885C323.132 753.89 288.261 722.812 261.766 685.086C254.135 674.357 247.989 662.648 240.435 651.952L239.864 651.153Z"/>
	<path fill="#B76F1C" d="M96.8007 657.201C124.162 670.351 149.29 688.316 176.83 700.982L177.757 701.916C180.855 708.632 185.44 714.917 189.379 721.174C212.866 758.479 243.344 790.411 278.154 817.341C284.842 822.522 291.716 827.461 298.761 832.146C303.497 835.293 309.498 838.257 313.544 842.206C309.061 841.495 304.193 839.295 299.873 837.822C286.303 833.198 273.077 828.193 259.805 822.785L209.057 802.521C195.941 797.216 182.959 791.555 169.667 786.697L167.401 785.27C167.434 785.208 167.491 785.155 167.501 785.086C167.795 782.924 152.467 763.048 150.064 759.644C133.848 736.678 120.542 712.678 108.891 687.101C104.444 677.339 99.9743 667.464 96.8007 657.201Z"/>
	<path fill="#BA854B" d="M848.569 700.34C857.416 696.246 866.087 691.129 874.59 686.338C891.992 676.533 909.629 666.109 927.713 657.626C914.777 691.605 903.292 717.183 883.765 747.988C880.616 752.957 857.144 784.22 856.747 785.73L855.373 786.596C812.093 805.103 766.266 825.171 721.262 838.693C717.775 839.74 712.602 842.018 709.01 841.72C713.743 838.124 719.351 835.368 724.319 832.056C733.669 825.823 742.858 819.039 751.795 812.238C778.656 791.799 801.034 767.255 821.346 740.457C830.537 728.332 839.467 715.777 846.729 702.379C847.391 701.82 847.986 700.993 848.569 700.34Z"/>
	<path fill="#C7A979" d="M822.995 714.393C827.558 714.19 841.362 704.638 846.729 702.379C839.467 715.777 830.537 728.332 821.346 740.457C801.034 767.255 778.656 791.799 751.795 812.238C742.858 819.039 733.669 825.823 724.319 832.056C719.351 835.368 713.743 838.124 709.01 841.72L703.334 844.436C699.006 844.54 694.372 846.327 690.211 847.522C679.888 850.487 665.089 855.606 654.62 856.592C670.084 848.679 685.612 841.452 700.641 832.646C737.694 810.557 770.513 782.039 797.557 748.431C805.933 738.083 813.554 727.037 821.333 716.23C821.952 715.653 822.466 715.053 822.995 714.393Z"/>
	<path fill="#BA854B" d="M687.129 773.763C692.366 773.168 698.422 770.257 703.408 768.412C719.621 762.413 735.284 755.514 751.106 748.579C765.338 742.385 779.503 736.038 793.598 729.54C800.396 726.323 815.4 717.674 821.333 716.23C813.554 727.037 805.933 738.083 797.557 748.431C770.513 782.039 737.694 810.557 700.641 832.646C685.612 841.452 670.084 848.679 654.62 856.592C652.627 857.194 650.639 857.811 648.655 858.443L648.037 858.541C632.952 861.034 618.153 865.501 603.009 868.072C552.386 876.865 500.764 878.358 449.716 872.507C436.771 870.957 423.883 868.964 411.074 866.534C402.611 864.898 394.063 862.674 385.521 861.595C383.071 861.063 380.544 860.077 378.143 859.32C326.384 835.797 288.952 813.386 248.409 773.209C231.444 756.399 215.304 737.272 203.012 716.743C211.97 719.954 220.525 725.557 229.152 729.687C251.848 740.76 274.868 751.159 298.179 760.872C310.666 766.122 324.298 772.481 337.604 775.246C343.28 776.677 358.049 787.159 364.682 790.664C378.797 798.083 393.463 804.4 408.55 809.56C483.931 835.7 566.405 832.393 639.451 800.302C648.415 796.255 657.128 791.675 665.544 786.586C672.697 782.231 679.59 777.445 687.129 773.763Z"/>
	<path fill="#974C00" d="M991.216 725.249C991.289 725.225 991.365 725.208 991.435 725.177C1001.72 720.666 1013.01 719.199 1024 717.25L1024 808.344C1020.24 813.707 1016.93 819.366 1013.3 824.817C1009.89 829.941 1006.16 834.79 1002.66 839.84L1001.99 840.291C972.983 846.949 945.014 855.146 917.796 867.315C909.322 871.166 901.055 875.457 893.028 880.169C888.303 882.909 883.384 886.408 878.365 888.497C877.362 888.915 876.616 888.925 875.551 888.887C879.101 884.498 884.038 880.592 888.102 876.597C895.677 869.165 902.952 861.433 909.91 853.42C943.106 815.067 969.332 771.449 990.722 725.549L991.216 725.249Z"/>
	<path fill="#D4E09B" d="M402.332 721.682C408.994 721.175 427.61 727.238 435.328 728.854C445.718 731.031 456.37 732.67 466.918 733.88C504.341 738.389 542.227 737.307 579.332 730.669C592.947 728.126 606.273 723.72 619.898 721.539L620.448 721.455C561.706 750.411 493.872 754.865 431.849 733.838C421.775 730.32 412.085 725.99 402.332 721.682Z"/>
	<path fill="#974C00" d="M0 724.784C11.1553 726.631 23.6244 728.177 34.3003 731.885L34.9311 732.01C39.3095 740.798 43.4163 749.759 48.1254 758.375C66.7783 792.17 89.2441 823.715 115.083 852.392C121.233 859.461 127.693 866.253 134.443 872.75C140.33 878.43 147.67 884.218 152.49 890.849C140.451 885.867 130.075 877.977 118.445 872.236C86.6784 856.553 56.9755 847.758 22.3043 840.816L21.8873 840.676C15.015 829.64 7.34198 818.944 0 808.204L0 724.784Z"/>
	<path fill="#974C00" d="M971.515 732.365C977.88 729.949 984.243 727.641 990.722 725.549C969.332 771.449 943.106 815.067 909.91 853.42C902.952 861.433 895.677 869.165 888.102 876.597C884.038 880.592 879.101 884.498 875.551 888.887C870.135 893.653 864.072 897.572 857.66 900.866C849.196 904.957 839.92 911.79 830.819 913.895C819.996 916.399 808.491 916.664 797.434 917.293C783.876 918.063 770.451 918.858 756.964 920.504C743.619 922.19 730.316 924.194 717.066 926.514C707.702 928.172 694.434 931.755 685.442 931.53C693.305 927.165 702 923.954 710.147 920.135C720.183 915.431 730.018 909.946 739.659 904.475C790.034 875.889 849.716 823.267 881.172 774.842C881.803 773.973 882.902 773.216 883.717 772.501C901.34 763.635 918.774 754.219 936.885 746.331C948.182 741.411 960.664 738.071 971.515 732.365Z"/>
	<path fill="#974C00" d="M34.9311 732.01C40.2016 733.236 45.3588 734.759 50.5423 736.302C56.7125 738.563 63.0845 740.24 69.3252 742.296C77.9816 745.197 86.5403 748.382 94.9875 751.845C110.598 758.156 125.675 766.063 141.451 771.894L143.514 773.275C143.923 783.697 193.672 834.629 203.159 843.397C231.096 869.668 262.217 892.332 295.794 910.858C303.766 915.304 311.977 919.295 320.182 923.289C324.108 925.2 328.41 926.919 332.14 929.171C322.866 929.6 313.292 928.259 304.069 927.312C289.886 925.855 275.691 924.183 261.484 923.002C250.321 922.161 239.152 921.412 227.977 920.754C221.628 920.368 213.97 920.673 207.882 918.944C196.932 915.834 185.579 910.327 175.649 904.807C170.468 901.927 165.418 898.664 160.042 896.161L159.418 895.874C157.159 894.114 154.938 892.342 152.49 890.849C147.67 884.218 140.33 878.43 134.443 872.75C127.693 866.253 121.233 859.461 115.083 852.392C89.2441 823.715 66.7783 792.17 48.1254 758.375C43.4163 749.759 39.3095 740.798 34.9311 732.01Z"/>
	<path fill="#B76F1C" d="M143.514 773.275C151.356 777.447 159.264 781.7 167.401 785.27L169.667 786.697C171.585 792.632 178.983 799.429 183.039 804.155C212.716 838.228 247.602 867.385 286.402 890.541C294.178 895.269 301.911 900.039 310.024 904.175C334.155 916.476 359.784 925.961 385.464 934.428C393.488 937.073 402.936 940.832 411.378 941.322C423.936 943.739 436.429 946.294 449.124 947.922C505.758 955.186 571.059 953.066 626.245 937.328C627.228 937.288 627.026 937.355 627.805 937.158C702.304 918.325 782.763 869.417 833.995 812.265C841.087 804.354 850 795.776 855.373 786.596L856.747 785.73C865.055 782.557 873.056 778.477 881.172 774.842C849.716 823.267 790.034 875.889 739.659 904.475C730.018 909.946 720.183 915.431 710.147 920.135C702 923.954 693.305 927.165 685.442 931.53C666.808 938.062 648.398 945.18 629.311 950.315C573.641 965.291 517.207 968.811 459.994 962.572C444.423 960.874 428.778 958.819 413.501 955.29C385.563 948.837 358.928 939.201 332.14 929.171C328.41 926.919 324.108 925.2 320.182 923.289C311.977 919.295 303.766 915.304 295.794 910.858C262.217 892.332 231.096 869.668 203.159 843.397C193.672 834.629 143.923 783.697 143.514 773.275Z"/>
	<path fill="#974C00" d="M169.667 786.697C182.959 791.555 195.941 797.216 209.057 802.521L259.805 822.785C273.077 828.193 286.303 833.198 299.873 837.822C304.193 839.295 309.061 841.495 313.544 842.206C316.773 843.568 319.825 845.242 322.91 846.897C330.965 852.539 340.797 856.92 349.741 860.957C378.395 873.89 408.019 883.969 438.976 889.724C516.123 904.067 599.957 895.992 671.047 861.934C681.927 856.721 693.368 851.27 703.334 844.436L709.01 841.72C712.602 842.018 717.775 839.74 721.262 838.693C766.266 825.171 812.093 805.103 855.373 786.596C850 795.776 841.087 804.354 833.995 812.265C782.763 869.417 702.304 918.325 627.805 937.158C627.026 937.355 627.228 937.288 626.245 937.328C620.141 936.705 606.19 939.79 599.278 940.56C579.718 942.741 559.582 944.685 539.886 944.988C512.645 945.612 485.389 945.26 458.173 943.932C448.83 943.369 439.495 942.683 430.17 941.872C424.214 941.315 417.146 939.82 411.225 940.417L411.157 941.056L411.378 941.322C402.936 940.832 393.488 937.073 385.464 934.428C359.784 925.961 334.155 916.476 310.024 904.175C301.911 900.039 294.178 895.269 286.402 890.541C247.602 867.385 212.716 838.228 183.039 804.155C178.983 799.429 171.585 792.632 169.667 786.697Z"/>
	<path fill="#BA854B" d="M391.471 790.202C391.761 790.207 392.051 790.207 392.341 790.217C401.31 790.51 412.279 794.953 421.397 796.55C451.383 801.804 479.945 806.196 510.499 806.013C533.379 805.971 556.218 804.109 578.802 800.445C588.955 798.824 599.087 797.075 609.195 795.196C614.586 794.175 623.955 791.415 629.1 791.691C561.794 817.578 492.072 821.757 422.555 801.31C412.001 798.206 401.728 794.156 391.471 790.202Z"/>
	<path fill="#974C00" d="M0 808.204C7.34198 818.944 15.015 829.64 21.8873 840.676C14.6415 839.57 7.26557 839.677 0 838.444L0 808.204Z"/>
	<path fill="#974C00" d="M1002.66 839.84C1006.16 834.79 1009.89 829.941 1013.3 824.817C1016.93 819.366 1020.24 813.707 1024 808.344L1024 838.425L1024 910.53C1018.48 916.022 1014.01 922.086 1009.46 928.363C1014.1 928.755 1019.29 927.548 1024 927.239L1024 1024L909.853 1024C935.253 1003.5 959.222 982.695 982.049 959.316C991.116 950.029 1000.39 940.706 1007.92 930.094C1005.38 928.801 999.685 929.398 996.725 929.39C978.529 929.339 961.68 929.984 944.211 935.69C929.583 940.434 915.768 947.389 903.246 956.314C897.948 960.13 887.076 971.329 881.471 972.316C885.984 967.13 891.618 962.632 896.779 958.102C906.458 949.604 916.354 941.194 925.572 932.198C936.464 921.571 946.446 910.4 956.53 899.015C964.338 890.2 972.285 881.448 979.445 872.088C987.362 861.74 994.436 850.883 1001.99 840.291L1002.66 839.84Z"/>
	<path fill="#974C00" d="M0 838.444C7.26557 839.677 14.6415 839.57 21.8873 840.676L22.3043 840.816C45.2017 876.829 75.1707 908.504 105.255 938.581C113.219 946.542 122.308 953.595 129.957 961.814C124.562 960.476 113.302 952.504 107.691 949.413C91.8844 940.706 72.4355 933.117 54.5923 930.521C46.385 929.328 38.3842 929.263 30.1309 929.114C25.6752 929.034 19.4024 928.168 15.2317 929.359C23.397 940.503 32.7467 950.246 42.4527 960.052C58.9875 976.757 76.0965 992.042 94.3391 1006.84C101.435 1012.6 108.517 1018.66 115.93 1024L0 1024L0 928.463C5.0134 928.75 10.0315 928.949 15.052 929.058C10.4516 922.391 5.4714 916.451 0 910.504L0 838.444Z"/>
	<path fill="#974C00" d="M875.551 888.887C876.616 888.925 877.362 888.915 878.365 888.497C883.384 886.408 888.303 882.909 893.028 880.169C901.055 875.457 909.322 871.166 917.796 867.315C945.014 855.146 972.983 846.949 1001.99 840.291C994.436 850.883 987.362 861.74 979.445 872.088C972.285 881.448 964.338 890.2 956.53 899.015C946.446 910.4 936.464 921.571 925.572 932.198C916.354 941.194 906.458 949.604 896.779 958.102C891.618 962.632 885.984 967.13 881.471 972.316C858.739 991.715 832.527 1008.68 806.906 1024L628.857 1024C632.961 1021.59 639.365 1020.76 643.988 1019.44C652.295 1017.03 660.573 1014.52 668.819 1011.91C691.836 1004.66 713.231 995.477 734.928 984.976C773.159 966.472 809.541 944.898 841.219 916.388C846.17 911.932 854.596 906.754 857.66 900.866C864.072 897.572 870.135 893.653 875.551 888.887Z"/>
	<path fill="#974C00" d="M22.3043 840.816C56.9755 847.758 86.6784 856.553 118.445 872.236C130.075 877.977 140.451 885.867 152.49 890.849C154.938 892.342 157.159 894.114 159.418 895.874C168.192 906.645 180.866 916.233 191.794 924.675C235.837 958.697 284.833 987.382 337.515 1005.85C348.715 1009.77 360.23 1013.54 371.751 1016.4C381.271 1018.77 392.794 1020.29 401.75 1024L218.731 1024C205.415 1015.07 191.297 1007.3 177.997 998.259C161.356 986.942 145.813 974.169 129.957 961.814C122.308 953.595 113.219 946.542 105.255 938.581C75.1707 908.504 45.2017 876.829 22.3043 840.816Z"/>
	<path fill="#BA854B" d="M654.62 856.592C665.089 855.606 679.888 850.487 690.211 847.522C694.372 846.327 699.006 844.54 703.334 844.436C693.368 851.27 681.927 856.721 671.047 861.934C599.957 895.992 516.123 904.067 438.976 889.724C408.019 883.969 378.395 873.89 349.741 860.957C340.797 856.92 330.965 852.539 322.91 846.897C336.249 845.486 364.342 860.548 378.143 859.32C380.544 860.077 383.071 861.063 385.521 861.595C385.675 861.662 385.828 861.731 385.983 861.796C402.793 868.882 421.577 873.388 439.432 876.89C509.49 891.085 582.161 884.677 648.655 858.443C650.639 857.811 652.627 857.194 654.62 856.592Z"/>
	<path fill="#974C00" d="M385.521 861.595C394.063 862.674 402.611 864.898 411.074 866.534C423.883 868.964 436.771 870.957 449.716 872.507C500.764 878.358 552.386 876.865 603.009 868.072C618.153 865.501 632.952 861.034 648.037 858.541L648.655 858.443C582.161 884.677 509.49 891.085 439.432 876.89C421.577 873.388 402.793 868.882 385.983 861.796C385.828 861.731 385.675 861.662 385.521 861.595Z"/>
	<path fill="#974C00" d="M159.418 895.874L160.042 896.161C165.418 898.664 170.468 901.927 175.649 904.807C185.579 910.327 196.932 915.834 207.882 918.944C213.97 920.673 221.628 920.368 227.977 920.754C239.152 921.412 250.321 922.161 261.484 923.002C275.691 924.183 289.886 925.855 304.069 927.312C313.292 928.259 322.866 929.6 332.14 929.171C358.928 939.201 385.563 948.837 413.501 955.29C428.778 958.819 444.423 960.874 459.994 962.572C517.207 968.811 573.641 965.291 629.311 950.315C648.398 945.18 666.808 938.062 685.442 931.53C694.434 931.755 707.702 928.172 717.066 926.514C730.316 924.194 743.619 922.19 756.964 920.504C770.451 918.858 783.876 918.063 797.434 917.293C808.491 916.664 819.996 916.399 830.819 913.895C839.92 911.79 849.196 904.957 857.66 900.866C854.596 906.754 846.17 911.932 841.219 916.388C809.541 944.898 773.159 966.472 734.928 984.976C713.231 995.477 691.836 1004.66 668.819 1011.91C660.573 1014.52 652.295 1017.03 643.988 1019.44C639.365 1020.76 632.961 1021.59 628.857 1024L401.75 1024C392.794 1020.29 381.271 1018.77 371.751 1016.4C360.23 1013.54 348.715 1009.77 337.515 1005.85C284.833 987.382 235.837 958.697 191.794 924.675C180.866 916.233 168.192 906.645 159.418 895.874Z"/>
	<path fill="#974C00" d="M0 910.504C5.4714 916.451 10.4516 922.391 15.052 929.058C10.0315 928.949 5.0134 928.75 -3.55271e-15 928.463L0 910.504Z"/>
	<path fill="#974C00" d="M1009.46 928.363C1014.01 922.086 1018.48 916.022 1024 910.53L1024 927.239C1019.29 927.548 1014.1 928.755 1009.46 928.363Z"/>
	<path fill="#622900" d="M15.2317 929.359C19.4024 928.168 25.6752 929.034 30.1309 929.114C38.3842 929.263 46.385 929.328 54.5923 930.521C72.4355 933.117 91.8844 940.706 107.691 949.413C113.302 952.504 124.562 960.476 129.957 961.814C145.813 974.169 161.356 986.942 177.997 998.259C191.297 1007.3 205.415 1015.07 218.731 1024L115.93 1024C108.517 1018.66 101.435 1012.6 94.3391 1006.84C76.0965 992.042 58.9875 976.757 42.4527 960.052C32.7467 950.246 23.397 940.503 15.2317 929.359Z"/>
	<path fill="#622900" d="M881.471 972.316C887.076 971.329 897.948 960.13 903.246 956.314C915.768 947.389 929.583 940.434 944.211 935.69C961.68 929.984 978.529 929.339 996.725 929.39C999.685 929.398 1005.38 928.801 1007.92 930.094C1000.39 940.706 991.116 950.029 982.049 959.316C959.222 982.695 935.253 1003.5 909.853 1024L806.906 1024C832.527 1008.68 858.739 991.715 881.471 972.316Z"/>
	<path fill="#974C00" d="M626.245 937.328C571.059 953.066 505.758 955.186 449.124 947.922C436.429 946.294 423.936 943.739 411.378 941.322L411.157 941.056L411.225 940.417C417.146 939.82 424.214 941.315 430.17 941.872C439.495 942.683 448.83 943.369 458.173 943.932C485.389 945.26 512.645 945.612 539.886 944.988C559.582 944.685 579.718 942.741 599.278 940.56C606.19 939.79 620.141 936.705 626.245 937.328Z"/>
</svg>
