<?xml version="1.0" encoding="utf-8" ?>
<svg xmlns="http://www.w3.org/2000/svg" xmlns:xlink="http://www.w3.org/1999/xlink" width="1024" height="1024">
	<path fill="#AED9E0" d="M0 0L1024 0L1024 70.4197L0 73.9361L0 0Z"/>
	<path fill="#D4E09B" d="M0 73.9361L1024 70.4197L1024 73.5201C987.12 73.5923 950.423 73.827 913.61 76.2102C891.742 77.6259 870.234 81.3886 848.247 81.6788C824.066 81.9456 799.883 81.4639 775.732 80.2344C753.491 78.9448 731.394 76.6229 709.073 76.9027C727.924 87.4162 753.448 88.5098 774.08 93.7493C762.353 95.8313 749.203 94.8133 737.263 95.0313C713.247 95.4697 689.319 95.9845 665.293 96.027C619.528 96.108 573.765 97.6354 528.001 98.1616L0 106.1L0 73.9361Z"/>
	<path fill="#D6C273" d="M709.073 76.9027C731.394 76.6229 753.491 78.9448 775.732 80.2344C799.883 81.4639 824.066 81.9456 848.247 81.6788C870.234 81.3886 891.742 77.6259 913.61 76.2102C950.423 73.827 987.12 73.5923 1024 73.5201L1024 90.9729L846.875 93.1806L796.545 94.0202C789.499 94.1017 780.942 95.0187 774.08 93.7493C753.448 88.5098 727.924 87.4162 709.073 76.9027Z"/>
	<path fill="#FAF3DD" d="M774.08 93.7493C780.942 95.0187 789.499 94.1017 796.545 94.0202L846.875 93.1806L1024 90.9729L1024 1024L152.621 1024L53.5403 769.827L20.8202 685.667C14.2013 668.548 8.2191 650.305 0 633.902L0 410.073C4.6554 408.179 9.20244 406.115 14.2187 405.399C22.8027 404.172 32.2292 406.997 40.1863 402.292C42.4684 400.943 45.4432 398.747 46.0768 396.1L45.3591 395.141C39.3151 392.366 28.3731 394.336 21.4537 393.791C6.84751 392.64 11.3981 385.354 3.68805 376.281C6.18816 374.613 8.89451 373.17 11.4987 371.666C11.5148 368.062 11.764 364.177 10.1229 360.861C8.14827 356.871 3.94805 355.509 0 354.226L0 334.747C5.10154 333.446 9.16106 329.483 14.3782 328.043C16.5717 327.437 19.9994 326.831 21.9759 328.335C25.5048 331.019 21.6967 334.957 21.7741 338.224L22.7067 338.752C27.0452 338.616 33.4139 337.529 37.0417 335.042C40.9502 332.362 39.2642 329.284 40.7062 325.63C42.9113 320.043 59.7741 321.851 64.9358 319.962C67.3277 319.087 69.9015 317.366 71.0263 315.016L70.4712 314.359C67.7825 313.612 64.6855 314.037 61.913 314.136C65.9313 310.253 70.6755 307.034 74.9035 303.362C86.9628 292.888 97.0521 278.373 101.532 262.954C103.62 255.769 104.899 248.261 107.69 241.293C110.999 233.029 116.483 226.355 117.016 217.092C117.241 213.188 116.822 209.21 115.425 205.538C113.389 200.187 109.357 196.31 106.627 191.399C105.208 188.848 104.309 185.874 103.29 183.143C100.407 175.42 97.5792 168.804 92.0495 162.58C71.8094 139.799 30.2783 121.698 0 119.909L0 106.1L528.001 98.1616C573.765 97.6354 619.528 96.108 665.293 96.027C689.319 95.9845 713.247 95.4697 737.263 95.0313C749.203 94.8133 762.353 95.8313 774.08 93.7493ZM502.305 273.437C480.755 273.413 459.282 276.667 438.331 281.528C394.678 291.655 356.567 308.105 320.575 335.012C310.578 342.486 300.938 350.264 292.087 359.081C287.651 363.554 283.262 368.074 278.923 372.642C268.107 375.247 255.644 384.111 246.345 390.312C239.758 394.704 233.033 399.005 226.641 403.673C192.067 428.921 159.839 461.025 137.436 497.649C98.7455 560.901 82.7886 630.449 100.437 703.449C102.762 713.068 105.151 722.654 108.451 731.992C123.917 775.756 154.383 820.167 188.727 851.309C203.871 865.041 220.278 876.738 237.706 887.369C297.518 923.853 367.106 941.014 436.597 944.844C447.935 945.468 459.475 946.133 470.828 945.908C488.901 945.549 506.565 942.913 524.513 941.236C519.819 940.063 503.799 943.184 497.722 943.728C488.595 944.581 479.443 945.14 470.281 945.406C456.992 945.676 443.296 944.68 430.027 943.84C425.371 943.545 420.498 942.759 415.858 942.789C412.3 942.812 408.769 941.461 405.16 941.382L405.551 940.833C405.718 940.813 405.886 940.794 406.053 940.772C407.365 940.599 408.391 940.357 409.606 939.836C415.001 937.52 427.071 935.638 432.958 935.992C436.006 936.176 439.018 937.004 441.841 938.144C444.273 939.126 449.469 943.693 451.627 943.361C446.652 938.65 438.104 934.442 431.215 934.684C425.154 934.896 418.872 936.357 412.986 937.792C408.657 938.847 404.081 941.203 399.622 940.671C388.714 939.369 374.101 937.945 363.988 934.442C357.871 932.323 351.738 928.18 346.157 924.907C327.509 913.971 307.922 902.376 291.3 888.503C288.342 886.035 274.964 873.429 272.441 872.816L270.836 869.883C271.806 869.853 272.265 869.953 273.173 870.22L274.034 869.746C274.362 867.77 273.602 866.318 274.45 864.477L275.271 864.123C276.394 864.939 276.763 865.624 278.196 865.399C279.519 862.787 279.191 858.852 280.246 855.848C280.882 854.036 281.295 852.797 282.548 851.31L283.688 850.985C283.879 851.117 284.064 851.257 284.26 851.382C285.241 852.005 286.256 852.368 287.339 852.764C288.392 852.315 288.645 852.115 289.055 850.995C289.467 849.866 289.284 847.816 289.296 846.588C291.462 847.476 292.19 849.067 294.576 849.498L295.403 849.15C296.556 848.673 296.084 848.845 297.232 848.5C301.291 851.112 304.851 854.363 308.734 857.221C315.837 862.449 323.25 867.574 330.729 872.245C377.297 901.173 429.968 918.848 484.56 923.865C494.503 924.681 515.58 926.724 524.193 924.732C524.537 924.653 524.876 924.553 525.213 924.452C539.405 923.712 553.556 922.351 567.628 920.371C572.898 920.976 594.201 916.094 599.907 914.25C629.782 907.569 658.119 894.74 684.813 880.062C689.511 877.479 696.173 874.535 700.052 870.8C716.46 863.048 751.022 832.646 763.271 818.583C767.025 815.892 770.685 810.993 773.724 807.434C790.863 787.705 805.097 765.629 815.994 741.875C847.541 673.543 845.935 596.64 820.202 526.852C818.617 520.759 818.175 514.223 817.17 507.997C815.999 500.74 814.224 493.497 812.321 486.397C800.649 442.852 781.287 407.937 750.569 375.047C741.189 365.003 731.498 355.503 720.813 346.846C669.904 305.973 608.148 280.891 543.157 274.691C529.913 273.394 515.556 272.047 502.305 273.437ZM436.61 134.595C433.372 135.744 429.598 136.938 428.117 140.356C427.308 142.223 427.539 144.153 428.418 145.954C429.909 149.004 434.087 153.067 437.394 154.186C438.5 154.561 439.486 154.415 440.611 154.253C445.002 151.777 449 146.135 450.433 141.28C450.844 139.888 451.026 138.616 450.36 137.263C449.891 136.311 448.936 135.835 447.95 135.559C444.579 134.617 440.081 134.297 436.61 134.595ZM392.967 149.443C383.182 154.284 375.618 159.742 369.252 168.758C373.948 170.301 377.591 170.73 382.498 170.262C386.435 169.021 388.562 164.569 392.427 162.776C395.608 161.3 402.198 162.452 404.394 159.729C404.717 158.343 404.46 157.392 403.756 156.184C402.151 153.429 398.325 150.238 395.15 149.592C394.388 149.437 393.736 149.397 392.967 149.443ZM842.398 912.487C834.305 916.571 823.55 921.039 820.471 930.367C818.869 935.218 819.452 940.812 819.637 945.84C824.808 948.614 829.962 949.274 835.633 947.616C837.84 946.821 840.332 946.08 842.256 944.712C849.746 939.385 855.432 927.152 859.303 918.893L859.599 918.25C855.039 914.249 848.447 912.333 842.398 912.487Z"/>
	<path fill="#D4E09B" d="M0 119.909C30.2783 121.698 71.8094 139.799 92.0495 162.58C97.5792 168.804 100.407 175.42 103.29 183.143C104.309 185.874 105.208 188.848 106.627 191.399C109.357 196.31 113.389 200.187 115.425 205.538C116.822 209.21 117.241 213.188 117.016 217.092C116.483 226.355 110.999 233.029 107.69 241.293C104.899 248.261 103.62 255.769 101.532 262.954C97.0521 278.373 86.9628 292.888 74.9035 303.362C70.6755 307.034 65.9313 310.253 61.913 314.136C64.6855 314.037 67.7825 313.612 70.4712 314.359L71.0263 315.016C69.9015 317.366 67.3277 319.087 64.9358 319.962C59.7741 321.851 42.9113 320.043 40.7062 325.63C39.2642 329.284 40.9502 332.362 37.0417 335.042C33.4139 337.529 27.0452 338.616 22.7067 338.752L21.7741 338.224C21.6967 334.957 25.5048 331.019 21.9759 328.335C19.9994 326.831 16.5717 327.437 14.3782 328.043C9.16106 329.483 5.10154 333.446 0 334.747L0 323.513C25.7629 319.015 46.9318 311.278 66.8185 293.602C86.3984 276.069 98.2938 251.536 99.9344 225.304C101.094 204.804 96.6479 196.083 87.4357 178.521C84.5972 173.11 81.8408 167.041 77.633 162.539C74.3064 158.98 69.0447 157.943 64.812 155.694C60.9779 153.658 57.5001 150.976 53.6497 148.956C36.5148 139.968 19.324 135.432 0 134.823L0 119.909Z"/>
	<path fill="#FAF3DD" d="M440.611 154.253C439.486 154.415 438.5 154.561 437.394 154.186C434.087 153.067 429.909 149.004 428.418 145.954C427.539 144.153 427.308 142.223 428.117 140.356C429.598 136.938 433.372 135.744 436.61 134.595C440.081 134.297 444.579 134.617 447.95 135.559C448.936 135.835 449.891 136.311 450.36 137.263C451.026 138.616 450.844 139.888 450.433 141.28C449 146.135 445.002 151.777 440.611 154.253Z"/>
	<path fill="#D6C273" d="M0 134.823C19.324 135.432 36.5148 139.968 53.6497 148.956C57.5001 150.976 60.9779 153.658 64.812 155.694C69.0447 157.943 74.3064 158.98 77.633 162.539C81.8408 167.041 84.5972 173.11 87.4357 178.521C96.6479 196.083 101.094 204.804 99.9344 225.304C98.2938 251.536 86.3984 276.069 66.8185 293.602C46.9318 311.278 25.7629 319.015 0 323.513L0 312.284C24.3395 304.671 43.218 297.32 62.036 278.808C62.8044 278.618 63.2151 278.393 63.8612 277.893C66.167 276.111 68.211 273.201 70.0224 270.901C79.635 258.692 86.7924 244.182 88.7441 228.629C91.176 209.249 86.6009 188.892 74.3998 173.474C56.6961 151.102 30.5148 141.609 2.97148 138.524L0 138.224L0 134.823Z"/>
	<path fill="#BD6015" d="M0 138.224L2.97148 138.524L2.48304 139.461L1.33811 139.799C-0.0593371 145.34 1.16717 151.491 0 157.156L0 138.224Z"/>
	<path fill="#C4A73E" d="M2.97148 138.524C30.5148 141.609 56.6961 151.102 74.3998 173.474C86.6009 188.892 91.176 209.249 88.7441 228.629C86.7924 244.182 79.635 258.692 70.0224 270.901C68.211 273.201 66.167 276.111 63.8612 277.893C63.2151 278.393 62.8044 278.618 62.036 278.808C62.479 278.324 62.908 277.848 63.3195 277.336C65.4918 274.637 71.4067 267.704 71.0587 264.164L69.5875 263.902C70.1431 260.548 73.2772 255.806 74.7683 252.611C76.574 248.741 78.1327 244.801 79.3153 240.694C83.901 224.771 81.8226 206.198 73.669 191.78C67.1181 180.196 57.5483 172.28 47.0879 164.414C44.7537 162.659 41.9817 160.027 39.1626 159.228C29.9355 148.561 15.6338 143.219 2.48304 139.461L2.97148 138.524Z"/>
	<path fill="#F0AB83" d="M0 157.156C1.16717 151.491 -0.0593371 145.34 1.33811 139.799L2.48304 139.461C15.6338 143.219 29.9355 148.561 39.1626 159.228C48.0628 167.571 59.8029 180.338 64.8199 191.42L63.142 190.007C62.8655 191.148 64.3172 206.69 64.5054 209.759C65.6983 229.211 59.2335 253.414 41.6212 264.141C34.7724 268.312 26.1012 270.058 18.2205 268.219C10.389 266.391 5.91903 262.4 1.02471 256.271C0.442614 255.542 0.718033 255.837 0 255.222L0 157.156ZM41.9358 181.837C43.4035 197.806 41.4317 211.211 30.9989 223.895C22.5048 234.222 11.2407 238.39 0.822855 246.001C3.34402 245.372 5.88291 244.779 8.39204 244.105C23.2036 239.224 38.3627 230.393 45.638 215.961C50.1111 207.088 48.8524 199.453 45.811 190.47C45.0682 188.276 43.8202 183.291 41.9358 181.837Z"/>
	<path fill="#FAF3DD" d="M369.252 168.758C375.618 159.742 383.182 154.284 392.967 149.443C393.736 149.397 394.388 149.437 395.15 149.592C398.325 150.238 402.151 153.429 403.756 156.184C404.46 157.392 404.717 158.343 404.394 159.729C402.198 162.452 395.608 161.3 392.427 162.776C388.562 164.569 386.435 169.021 382.498 170.262C377.591 170.73 373.948 170.301 369.252 168.758Z"/>
	<path fill="#371105" d="M39.1626 159.228C41.9817 160.027 44.7537 162.659 47.0879 164.414C57.5483 172.28 67.1181 180.196 73.669 191.78C81.8226 206.198 83.901 224.771 79.3153 240.694C78.1327 244.801 76.574 248.741 74.7683 252.611C73.2772 255.806 70.1431 260.548 69.5875 263.902C68.1324 268.092 64.177 271.63 61.1661 274.758C61.2296 272.722 63.401 269.934 64.4383 268.157C65.0998 267.299 65.676 266.435 66.2243 265.5C76.2636 248.387 78.2133 228.6 73.2001 209.576C71.1674 204.062 68.8422 195.756 64.8199 191.42C59.8029 180.338 48.0628 167.571 39.1626 159.228Z"/>
	<defs>
		<linearGradient id="gradient_0" gradientUnits="userSpaceOnUse" x1="15.241736" y1="212.19659" x2="43.430767" y2="220.96913">
			<stop offset="0" stop-color="#F6CFB1"/>
			<stop offset="1" stop-color="#FFECD1"/>
		</linearGradient>
	</defs>
	<path fill="url(#gradient_0)" d="M0.822855 246.001C11.2407 238.39 22.5048 234.222 30.9989 223.895C41.4317 211.211 43.4035 197.806 41.9358 181.837C43.8202 183.291 45.0682 188.276 45.811 190.47C48.8524 199.453 50.1111 207.088 45.638 215.961C38.3627 230.393 23.2036 239.224 8.39204 244.105C5.88291 244.779 3.34402 245.372 0.822855 246.001Z"/>
	<path fill="#DFA26E" d="M0 255.222C0.718033 255.837 0.442614 255.542 1.02471 256.271C5.91903 262.4 10.389 266.391 18.2205 268.219C26.1012 270.058 34.7724 268.312 41.6212 264.141C59.2335 253.414 65.6983 229.211 64.5054 209.759C64.3172 206.69 62.8655 191.148 63.142 190.007L64.8199 191.42C68.8422 195.756 71.1674 204.062 73.2001 209.576C72.1426 214.427 72.3108 219.626 71.8334 224.569C71.2377 230.737 70.2552 236.902 69.332 243.028C68.7558 246.851 68.1942 250.682 67.339 254.456C66.339 258.868 64.6186 263.647 64.4383 268.157C63.401 269.934 61.2296 272.722 61.1661 274.758C59.3915 277.081 56.9158 279.047 54.6918 280.952C40.2511 293.321 20.8556 301.141 2.11669 303.606C1.412 303.698 0.706402 303.784 0 303.862L0 255.222Z"/>
	<path fill="#D27F2B" d="M73.2001 209.576C78.2133 228.6 76.2636 248.387 66.2243 265.5C65.676 266.435 65.0998 267.299 64.4383 268.157C64.6186 263.647 66.339 258.868 67.339 254.456C68.1942 250.682 68.7558 246.851 69.332 243.028C70.2552 236.902 71.2377 230.737 71.8334 224.569C72.3108 219.626 72.1426 214.427 73.2001 209.576Z"/>
	<path fill="#F3FAFB" d="M69.5875 263.902L71.0587 264.164C71.4067 267.704 65.4918 274.637 63.3195 277.336C62.908 277.848 62.479 278.324 62.036 278.808C43.218 297.32 24.3395 304.671 0 312.284L0 303.862C0.706402 303.784 1.412 303.698 2.11669 303.606C20.8556 301.141 40.2511 293.321 54.6918 280.952C56.9158 279.047 59.3915 277.081 61.1661 274.758C64.177 271.63 68.1324 268.092 69.5875 263.902Z"/>
	<path fill="#D27F2B" d="M502.305 273.437C515.556 272.047 529.913 273.394 543.157 274.691C608.148 280.891 669.904 305.973 720.813 346.846C731.498 355.503 741.189 365.003 750.569 375.047C781.287 407.937 800.649 442.852 812.321 486.397C814.224 493.497 815.999 500.74 817.17 507.997C818.175 514.223 818.617 520.759 820.202 526.852C819.128 535.572 821.716 545.267 821.29 553.693C820.158 558.068 820.948 563.137 820.712 567.688C820.606 566.798 820.539 566.333 820.139 565.512C818.242 568.141 817.217 572.267 815.92 575.336C812.043 584.683 808.62 594.212 805.661 603.89C801.372 617.854 798.01 631.772 790.513 644.518C785.762 652.594 781.066 658.946 773.349 664.277C769.568 666.889 765.779 669.336 762.491 672.578C756.376 678.609 752.177 685.785 745.124 690.935C735.613 697.88 724.819 702.48 715.585 709.969C703.783 719.542 694.577 732.31 680.619 739.09C664.33 747.001 644.379 746.802 627 751.746C612.502 755.87 599.136 762.085 585.04 767.234C572.805 771.627 560.189 774.874 547.355 776.935C509.666 782.989 450.861 781.764 414.92 768.019C402.865 763.409 391.244 756.227 380.839 748.647C379.244 747.485 377.676 746.305 376.037 745.203C375.306 743.971 372.568 742.253 371.394 741.247C370.494 739.038 369.657 736.474 369.331 734.11C368.959 731.414 369.424 729.61 370.997 727.421C374.072 725.908 376.736 723.478 380.036 722.387C389.276 719.333 404.674 723.632 415.204 721.4L415.765 721.499C424.204 723.07 434.22 726.047 441.773 730.026C446.252 732.385 449.184 736.261 454.258 737.707C466.568 741.216 491.827 745.042 504.552 744.881C510.923 744.801 517.291 743.762 523.502 742.395C529.77 741.016 542.485 735.934 547.745 735.71C553.836 736.604 580.349 732.525 588.552 731.577C588.226 731.882 587.895 732.18 587.551 732.463C584.727 734.786 580.581 736.275 577.279 737.879C569.179 741.812 561.566 745.614 552.711 747.643C547.585 748.818 542.221 749.211 537.157 750.579C524.87 753.899 514.896 759.37 501.746 757.955C490.109 756.702 491.979 755.313 485.389 747.128C483.822 746.74 482.359 746.601 480.741 746.609C477.591 746.626 474.456 747.372 471.305 747.485C468.199 747.596 463.745 746.388 460.9 747.288C466.613 748.25 472.757 748.27 478.553 748.612C482.514 754.673 484.357 757.399 491.583 759.281C503.379 762.353 514.369 761.714 526.301 760.719C539.387 759.627 552.07 758.152 564.903 755.274C577.839 752.372 590.522 748.339 603.425 745.258C617.008 742.016 639.357 738.118 650.909 731.298L650.75 730.715C659.802 726.623 667.537 721.146 676.061 716.234C683.992 714.822 697.797 703.98 704.612 698.983C710.491 688.256 716.981 680.843 724.977 671.728C728.409 667.816 731.501 663.605 734.993 659.746C738.784 655.556 743.03 651.793 747.042 647.82C751.025 643.875 754.934 639.482 759.387 636.088C755.401 643.151 751.218 650.579 746.216 656.971C741.413 663.109 723.893 677.215 723.087 683.348C723.698 685.23 724.832 686.206 726.546 687.111C727.45 687.588 728.181 687.825 729.212 687.898C730.631 687.29 731.724 686.608 732.957 685.683C734.661 682.97 738.744 679.898 741.085 677.464C745.899 672.489 750.505 667.318 754.892 661.962C757.73 658.513 770.653 643.283 770.283 639.49C771.478 638.168 772.277 637.368 772.539 635.569C772.923 635.303 773.312 635.042 773.677 634.75C787.805 623.436 804.504 583.391 806.563 565.846C807.385 558.838 806.782 550.253 802.249 544.581C806.11 532.48 807.605 523.937 803.285 511.671C802.18 508.532 800.157 504.665 799.775 501.408C799.743 501.136 799.72 500.863 799.693 500.591C799.685 500.355 799.649 500.119 799.669 499.885C799.81 498.211 800.316 496.674 800.184 494.945C799.879 490.948 795.193 480.622 793.733 476.046C789.936 464.152 789.017 450.858 782.334 440.06C779.131 434.885 774.982 430.517 771.425 425.615C768.26 421.254 765.394 415.298 761.112 411.901C759.544 410.657 756.691 411.047 754.824 411.178C754.872 411.424 754.914 411.67 754.968 411.915C755.799 415.685 765.462 430.112 768.005 434.679C771.059 440.094 773.755 445.703 776.078 451.469C782.164 466.558 786.376 482.706 787.375 498.976C788.614 519.135 784.085 539.317 780.507 559.036C779.124 566.656 778.188 574.621 776.155 582.083C773.937 590.224 771.297 597.96 766.994 605.266C761.292 614.95 754.242 624.06 747.596 633.12C745.773 635.606 743.181 638.058 741.635 640.638L740.886 639.736C741.252 636.886 747.187 630.498 748.875 627.113C751.678 624.626 756.609 612.992 758.22 609.08C763.992 595.073 766.585 579.601 769.038 564.736C770.768 554.25 772.638 543.734 773.622 533.146C775.358 514.451 775.343 479.834 768.214 463.018C764.54 454.351 760.476 445.78 756.599 437.196C753.58 430.51 750.778 423.392 747.024 417.097C741.545 407.909 730.552 399.818 723.792 390.624C717.231 381.701 702.941 355.237 695.966 350.294C691.346 347.019 683.281 344.972 677.844 342.755L624.61 321.239C619.451 318.571 614.058 316.07 609.29 312.742C607.86 311.632 606.047 310.255 605.721 308.336C605.282 305.756 607.704 302.734 608.992 300.649C597.761 293.203 600.192 299.567 592.053 297.271C584.322 295.089 577.328 289.453 569.592 287.671C562.611 286.062 554.637 292.354 547.779 293.678C539.079 295.358 530.613 294.5 521.976 295.476C532.975 296.988 544.643 296.037 555.104 292.211C559.145 290.733 563.274 288.499 567.518 287.792C566.538 289.534 563.601 290.919 561.948 292.102C560.448 293.175 558.997 294.488 557.35 295.328C545.434 301.4 526.306 296.722 513.449 295.946C506.092 295.502 498.683 296.023 491.327 295.509C486.009 295.137 479.767 292.797 474.822 295.022C469.412 293.969 440.269 310.341 432.947 313.351C414.421 320.969 394.829 325.948 376.354 333.797C370.717 336.192 365.151 339.251 360.079 342.68C351.381 348.559 344.774 357.994 337.489 365.5C330.242 372.967 322.331 379.76 315.049 387.183C301.816 400.671 290.986 416.971 283.105 434.121C280.585 439.606 277.296 446.035 276.112 451.942C275.942 452.79 275.846 453.637 275.746 454.496C275.533 456.331 274.998 457.911 275.88 459.597C275.056 462.503 274.532 465.782 273.062 468.424C272.335 467.592 272.526 467.291 272.466 466.223C274.582 457.533 275.437 448.607 277.387 439.881C278.054 436.894 281.09 432.11 279.973 429.32L279.065 429.196C277.147 431.571 275.874 434.28 274.145 436.771C267.042 447 258.318 458.177 254.847 470.418C253.842 470.27 254.117 470.179 253.293 470.46C248.594 472.067 243.983 474.202 238.879 473.97C236.641 473.868 234.417 473.08 232.973 471.289C230.113 467.742 229.365 463.977 229.997 459.579L230.444 459.485C231.356 460.535 232.111 461.635 233.468 462.107C235.608 461.433 237.209 458.766 238.422 456.951C240.004 454.586 241.396 452.009 242.319 449.312C242.762 448.017 245.67 433.938 245.482 433.17C245.039 431.361 244.045 429.116 243.942 427.304C243.739 423.758 246.713 422.75 244.925 418.782C244.587 418.033 244.45 418.27 244.847 417.738C246.653 415.318 249.595 413.316 251.784 411.21C256.99 406.199 268.434 392.741 270.189 386.206C270.626 384.579 270.433 383.305 271.68 382.08C271.808 383.117 271.702 383.318 272.381 384.166C275.208 383.233 273.755 380.11 275.283 377.996L276.356 378.745C278.372 377.174 285.382 370.975 286.272 368.916C287.238 366.68 285.468 367.402 288.308 364.445C334.461 316.388 399.012 286.514 464.619 277.262C481.297 274.91 497.778 274.385 514.575 274.022C510.537 273.508 506.38 273.752 502.305 273.437Z"/>
	<path fill="#BD6015" d="M278.923 372.642C283.262 368.074 287.651 363.554 292.087 359.081C300.938 350.264 310.578 342.486 320.575 335.012C356.567 308.105 394.678 291.655 438.331 281.528C459.282 276.667 480.755 273.413 502.305 273.437C506.38 273.752 510.537 273.508 514.575 274.022C497.778 274.385 481.297 274.91 464.619 277.262C399.012 286.514 334.461 316.388 288.308 364.445C285.468 367.402 287.238 366.68 286.272 368.916C285.382 370.975 278.372 377.174 276.356 378.745L275.283 377.996C273.755 380.11 275.208 383.233 272.381 384.166C271.702 383.318 271.808 383.117 271.68 382.08C270.433 383.305 270.626 384.579 270.189 386.206C268.434 392.741 256.99 406.199 251.784 411.21C249.595 413.316 246.653 415.318 244.847 417.738C244.45 418.27 244.587 418.033 244.925 418.782C246.713 422.75 243.739 423.758 243.942 427.304C244.045 429.116 245.039 431.361 245.482 433.17C245.67 433.938 242.762 448.017 242.319 449.312C241.396 452.009 240.004 454.586 238.422 456.951C237.209 458.766 235.608 461.433 233.468 462.107C232.111 461.635 231.356 460.535 230.444 459.485L229.997 459.579C229.365 463.977 230.113 467.742 232.973 471.289C234.417 473.08 236.641 473.868 238.879 473.97C243.983 474.202 248.594 472.067 253.293 470.46C254.117 470.179 253.842 470.27 254.847 470.418L254.701 471.485C251.056 470.724 244.771 476.862 234.543 473.902C234.092 473.543 233.651 473.172 233.22 472.79C227.032 467.256 229.157 460.295 229.788 453.057C230.04 450.171 229.92 447.327 229.789 444.439C241.228 417.444 259.388 394.204 278.923 372.642Z"/>
	<path fill="#D47206" d="M474.822 295.022C479.767 292.797 486.009 295.137 491.327 295.509C498.683 296.023 506.092 295.502 513.449 295.946C526.306 296.722 545.434 301.4 557.35 295.328C558.997 294.488 560.448 293.175 561.948 292.102C563.601 290.919 566.538 289.534 567.518 287.792C563.274 288.499 559.145 290.733 555.104 292.211C544.643 296.037 532.975 296.988 521.976 295.476C530.613 294.5 539.079 295.358 547.779 293.678C554.637 292.354 562.611 286.062 569.592 287.671C577.328 289.453 584.322 295.089 592.053 297.271C600.192 299.567 597.761 293.203 608.992 300.649C607.704 302.734 605.282 305.756 605.721 308.336C606.047 310.255 607.86 311.632 609.29 312.742C614.058 316.07 619.451 318.571 624.61 321.239C621.008 321.306 616.934 319.797 613.466 318.806C599.638 314.853 595.907 310.486 585.309 301.504C583.024 299.568 580.524 297.241 577.975 295.693C577.794 295.584 577.61 295.478 577.428 295.371C574.908 292.48 571.421 290.624 568.088 288.818C563.126 292.599 558.391 296.352 552.2 297.898C539.265 301.127 524.148 297.416 511.02 296.86C502.531 296.5 493.645 297.143 485.244 295.971C484.211 295.83 483.189 295.62 482.184 295.344C479.601 294.196 477.533 294.689 474.822 295.022Z"/>
	<path fill="#BD6015" d="M275.88 459.597C274.998 457.911 275.533 456.331 275.746 454.496C275.846 453.637 275.942 452.79 276.112 451.942C277.296 446.035 280.585 439.606 283.105 434.121C290.986 416.971 301.816 400.671 315.049 387.183C322.331 379.76 330.242 372.967 337.489 365.5C344.774 357.994 351.381 348.559 360.079 342.68C365.151 339.251 370.717 336.192 376.354 333.797C394.829 325.948 414.421 320.969 432.947 313.351C440.269 310.341 469.412 293.969 474.822 295.022C477.533 294.689 479.601 294.196 482.184 295.344C483.189 295.62 484.211 295.83 485.244 295.971C493.645 297.143 502.531 296.5 511.02 296.86C524.148 297.416 539.265 301.127 552.2 297.898C558.391 296.352 563.126 292.599 568.088 288.818C571.421 290.624 574.908 292.48 577.428 295.371C574.332 293.541 571.3 291.609 568.207 289.778C559.718 295.734 553.01 304.11 543.664 308.845C524.094 307.555 507.454 308.008 487.958 310.309C486.674 306.332 485.45 302.353 483.553 298.614C459.818 322.767 420.751 328.177 389.758 338.536C383.641 340.581 376.128 342.437 370.502 345.521C368.487 346.625 304.795 416.588 300.51 422.312C291.526 434.311 284.03 447.524 276.625 460.529C274.041 468.639 272.215 476.969 269.616 485.047L269.331 484.579C269.432 478.751 270.459 471.712 272.466 466.223C272.526 467.291 272.335 467.592 273.062 468.424C274.532 465.782 275.056 462.503 275.88 459.597Z"/>
	<path fill="#974C00" d="M568.207 289.778C571.3 291.609 574.332 293.541 577.428 295.371C577.61 295.478 577.794 295.584 577.975 295.693C580.524 297.241 583.024 299.568 585.309 301.504C595.907 310.486 599.638 314.853 613.466 318.806C616.934 319.797 621.008 321.306 624.61 321.239L677.844 342.755C683.281 344.972 691.346 347.019 695.966 350.294C702.941 355.237 717.231 381.701 723.792 390.624C730.552 399.818 741.545 407.909 747.024 417.097C750.778 423.392 753.58 430.51 756.599 437.196C760.476 445.78 764.54 454.351 768.214 463.018C775.343 479.834 775.358 514.451 773.622 533.146C772.638 543.734 770.768 554.25 769.038 564.736C766.585 579.601 763.992 595.073 758.22 609.08C756.609 612.992 751.678 624.626 748.875 627.113C746.525 628.957 744.918 632.108 743.049 634.483C735.374 644.238 728.175 654.925 719.158 663.498C708.289 673.831 696.659 683.775 684.137 692.021C678.277 695.88 669.357 700.147 664.314 704.208C654.868 708.843 645.291 713.206 635.595 717.292C629.598 719.867 623.358 722.156 617.534 725.096C602.985 728.538 588.245 731.12 573.392 732.827C565.2 733.826 555.545 733.326 547.745 735.71C542.485 735.934 529.77 741.016 523.502 742.395C517.291 743.762 510.923 744.801 504.552 744.881C491.827 745.042 466.568 741.216 454.258 737.707C449.184 736.261 446.252 732.385 441.773 730.026C434.22 726.047 424.204 723.07 415.765 721.499L415.204 721.4C405.989 717.942 396.906 714.514 388.055 710.179C357.132 695.033 322.139 669.565 303.179 640.565C280.688 606.164 261.971 560.591 263.976 518.88C264.523 507.49 267.332 496.192 269.616 485.047C272.215 476.969 274.041 468.639 276.625 460.529C284.03 447.524 291.526 434.311 300.51 422.312C304.795 416.588 368.487 346.625 370.502 345.521C376.128 342.437 383.641 340.581 389.758 338.536C420.751 328.177 459.818 322.767 483.553 298.614C485.45 302.353 486.674 306.332 487.958 310.309C507.454 308.008 524.094 307.555 543.664 308.845C553.01 304.11 559.718 295.734 568.207 289.778ZM575.004 327.804C556.848 322.685 537.994 320.575 519.183 319.934C473.631 318.38 435.829 325.496 395.734 347.982C365.845 364.744 338.017 389.259 319.98 418.572C316.837 423.681 313.725 428.899 311.107 434.298C309.268 438.09 307.641 443.111 305.256 446.513C302.266 450.326 299.959 455.152 297.696 459.442C284.13 485.158 275.236 517.919 278.669 547.039C281.996 576.856 293.002 605.299 310.611 629.59C313.493 633.49 316.686 638.472 320.4 641.527C334.49 659.617 365.79 688.293 386.63 697.84C394.095 702.62 402.456 706.226 410.488 709.933C461.956 733.683 515.73 738.159 571.003 726.047C590.038 721.981 608.475 715.5 625.867 706.76C626.321 706.622 626.772 706.47 627.214 706.295C634.358 703.467 641.517 699.168 648.138 695.267C681.027 675.886 709.945 647.976 725.857 612.785C737.225 587.645 742.465 559.368 738.323 532.004C737.485 526.471 736.507 520.578 734.52 515.324C733.925 501.432 733.142 487.355 729.261 473.929C725.767 457.65 718.427 441.387 710.208 426.979C682.598 378.575 633.3 343.644 580.091 329.025L575.004 327.804Z"/>
	<path fill="#B8F2E6" d="M305.256 446.513C307.641 443.111 309.268 438.09 311.107 434.298C313.725 428.899 316.837 423.681 319.98 418.572C338.017 389.259 365.845 364.744 395.734 347.982C435.829 325.496 473.631 318.38 519.183 319.934C537.994 320.575 556.848 322.685 575.004 327.804L580.091 329.025L579.243 331.422C585.271 333.456 591.14 336.243 596.936 338.859C638.668 357.696 681.943 390.166 702.621 431.963C709.398 445.662 715.349 461.002 718.467 475.968C720.96 484.802 721.619 495.428 722.088 504.603C722.375 528.35 721.347 545.022 714.183 567.969L713.847 567.446C715.656 559.717 722.793 536.024 720.645 529.315L719.42 529.807C719.405 521.643 722.828 500.598 719.102 493.928C719.132 508.919 719.996 524.986 717.424 539.79C715.28 552.134 710.541 564.76 705.962 576.384C703.808 581.851 701.293 589.851 697.349 594.145C696.914 594.619 696.99 594.496 696.323 594.816C694.768 593.642 694.248 592.159 693.085 590.688L692.673 590.456C680.207 609.067 664.353 627.03 645.749 639.774C636.828 645.885 627.536 650.832 617.871 655.631C609.837 659.62 600.467 663.238 593.568 669.015C591.389 670.84 589.78 673.8 588.214 676.161C588.102 679 588.014 681.839 587.948 684.679C586.759 686.584 585.621 688.312 584.099 689.976C578.583 689.613 572.112 687.393 566.774 688.821L566.094 688.31C567.692 685.499 566.758 683.371 566.079 680.268C551.442 689.433 521.623 692.715 505.237 688.399C504.439 688.188 503.758 687.915 503.003 687.587L500.246 685.974C514.271 685.943 528.25 684.361 541.927 681.255C549.536 682.161 558.543 678.036 565.887 676.209L564.761 677.96L565.057 678.845L566.138 678.945C568.237 677.222 570.513 675.683 572.49 673.826C578.338 669.422 585.062 666.035 590.598 661.271C586.997 658.164 582.915 655.76 579.533 652.365C581.565 649.019 588.252 643.374 588.911 640.319C594.724 637.835 601.643 636.822 607.746 634.958C615.085 632.717 623.287 630.382 630.135 626.935C641.406 621.263 655.815 608.395 663.403 598.24C670.628 593.083 680.573 574.116 684.499 565.427C698.939 533.462 703.038 500.496 692.961 466.583C690.302 457.635 686.492 449.255 683.231 440.542C683.516 440.04 683.633 439.552 683.792 439C680.564 425.675 667.004 410.839 657.491 400.957L656.426 401.033C650.236 395.299 644.147 389.542 637.438 384.404C615.372 367.506 587.886 354.079 560.611 348.366C561.187 348.259 561.69 347.975 562.221 347.734L562.607 346.159C564.053 345.201 565.079 347.086 566.879 346.522L566.474 345.822C565.568 345.504 564.48 345.246 563.775 344.571C563.324 344.139 563.309 343.107 563.362 342.503C563.441 341.589 564.146 338.68 564.958 338.15C565.479 337.809 566.201 338.197 566.924 337.669C566.3 337.636 565.234 337.712 564.67 337.496C563.621 337.095 564.56 335.67 564.071 334.469C556.278 331.578 536.443 329.933 527.65 329.042C524.878 327.753 522.039 328.019 519.057 327.724C510.825 326.91 501.101 324.455 493.023 327.166C489.853 328.23 485.2 327.972 481.81 328.217C474.971 328.711 468.108 329.146 461.401 330.656C429.931 337.545 400.189 350.76 373.982 369.497C367.292 374.223 360.631 378.951 354.793 384.76C353.451 386.096 352.517 387.643 351.252 389.011C348.552 391.929 345.41 394.321 342.81 397.381L342.83 397.971C333.88 405.296 319.553 425.237 313.979 435.645C310.902 441.392 308.801 447.434 305.985 453.261C305.264 454.755 303.007 459.766 301.291 459.677C301.079 459.666 300.889 459.537 300.688 459.467C301.901 455.107 303.726 450.78 305.256 446.513Z"/>
	<path fill="#B8F2E6" d="M527.65 329.042C515.557 329.203 502.988 328.072 490.964 329.533L500.04 330.24C495.141 330.416 490.398 329.872 485.524 329.747C480.01 329.607 473.7 330.105 468.247 330.91C465.094 331.375 452.543 335.499 450.681 334.911C445.169 335.508 439.304 337.695 434.065 339.524C408.932 348.295 381.919 362.113 361.693 379.682C358.308 382.623 345.49 396.975 342.83 397.971L342.81 397.381C345.41 394.321 348.552 391.929 351.252 389.011C352.517 387.643 353.451 386.096 354.793 384.76C360.631 378.951 367.292 374.223 373.982 369.497C400.189 350.76 429.931 337.545 461.401 330.656C468.108 329.146 474.971 328.711 481.81 328.217C485.2 327.972 489.853 328.23 493.023 327.166C501.101 324.455 510.825 326.91 519.057 327.724C522.039 328.019 524.878 327.753 527.65 329.042Z"/>
	<path fill="#AED9E0" d="M450.681 334.911C452.543 335.499 465.094 331.375 468.247 330.91C473.7 330.105 480.01 329.607 485.524 329.747C490.398 329.872 495.141 330.416 500.04 330.24L490.964 329.533C502.988 328.072 515.557 329.203 527.65 329.042C536.443 329.933 556.278 331.578 564.071 334.469C564.56 335.67 563.621 337.095 564.67 337.496C565.234 337.712 566.3 337.636 566.924 337.669C566.201 338.197 565.479 337.809 564.958 338.15C564.146 338.68 563.441 341.589 563.362 342.503C563.309 343.107 563.324 344.139 563.775 344.571C564.48 345.246 565.568 345.504 566.474 345.822L566.879 346.522C565.079 347.086 564.053 345.201 562.607 346.159L562.221 347.734C561.69 347.975 561.187 348.259 560.611 348.366C548.137 344.904 534.337 342.696 521.408 341.901C515.893 341.562 510.357 341.755 504.841 341.443C502.75 340.733 494.553 341.429 494.136 341.05C496.128 339.826 497.452 339.669 499.749 339.552L502.009 339.415L501.749 339.09C494.836 339.21 488.739 340.084 481.814 338.979C487.503 338.252 493.32 338.286 498.949 337.339L498.693 336.818C482.783 336.457 450.228 343.509 434.547 348.816C428.655 350.81 423.255 354.12 417.441 356.174C415.043 357.021 412.551 356.219 410.057 357.161L409.566 357.7C411.457 357.929 413.201 357.778 415.093 357.607L415.023 358.035C405.561 363.817 377.002 379.917 371.595 387.952C365.643 393.766 359.057 399.348 353.615 405.633C347.031 413.237 341.983 421.59 336.796 430.152C331.975 438.106 326.699 446.134 322.855 454.611C314.807 472.357 310.603 497.603 310.32 517.168C309.766 555.459 327.602 594.741 354.146 621.845C367.174 635.149 383.577 646.979 399.087 657.204C403.102 659.85 413.876 664.938 416.444 667.719C419.74 671.886 437.746 674.62 442.985 679.135C444.012 679.503 445.039 679.914 446.084 680.224C449.345 683.261 468.499 691.449 472.519 691.082C473.267 691.014 473.383 690.648 473.857 690.139C473.928 689.041 473.983 687.941 474.021 686.841L474.553 686.595L476.501 687.461C478.062 686.263 476.967 684.728 479.456 685.106C485.216 685.983 490.703 686.26 496.473 686.812C498.63 687.018 500.849 687.6 503.003 687.587C503.758 687.915 504.439 688.188 505.237 688.399C521.623 692.715 551.442 689.433 566.079 680.268C566.758 683.371 567.692 685.499 566.094 688.31L566.774 688.821C572.112 687.393 578.583 689.613 584.099 689.976C585.621 688.312 586.759 686.584 587.948 684.679C588.014 681.839 588.102 679 588.214 676.161C589.78 673.8 591.389 670.84 593.568 669.015C600.467 663.238 609.837 659.62 617.871 655.631C627.536 650.832 636.828 645.885 645.749 639.774C664.353 627.03 680.207 609.067 692.673 590.456L693.085 590.688C693.594 592.544 694.313 594.54 695.964 595.644C697.368 595.423 697.809 594.97 698.656 593.822C705.755 584.211 720.741 540.361 719.42 529.807L720.645 529.315C722.793 536.024 715.656 559.717 713.847 567.446L714.183 567.969C721.347 545.022 722.375 528.35 722.088 504.603C724.662 495.388 718.204 468.529 714.774 459.069C712.135 451.788 707.727 443.867 705.732 436.516C705.268 434.803 706.09 435.175 706.417 433.817C706.854 432.003 705.899 427.51 705.775 425.441C706.861 425.743 706.272 425.676 707.548 425.561L707.834 424.624L708.481 424.994C711.407 432.961 716.575 440.11 719.861 447.987C722.265 453.749 724.707 460.305 726.496 466.278C727.229 468.724 727.485 471.147 728.499 473.522L729.261 473.929C733.142 487.355 733.925 501.432 734.52 515.324C734.586 523.685 733.515 531.972 733.49 540.288C732.254 546.855 731.453 553.479 730.054 560.017C727.169 573.493 722.409 586.72 716.622 599.224C714.755 603.259 712.626 608.301 710.045 611.919C703.932 622.152 697.007 631.879 689.337 641.004C648.817 688.253 599.351 710.483 537.703 715.112C517.413 716.635 497.496 715.751 477.682 710.849C465.167 707.754 454.033 702.191 442.42 696.804C412.518 682.934 385.912 669.075 360.796 647.382C327.686 618.426 307.137 577.727 303.495 533.893C302.298 531.273 303.096 525.57 303.06 522.628C303.044 521.326 303.278 519.796 302.334 518.866L301.354 519.999C299.209 522.566 297.747 525.837 296.178 528.793C295.568 516.453 295.527 504.462 296.094 492.11C297.326 488.94 297.116 483.107 297.449 479.582L298.409 479.75L299.113 478.924C299.331 476.865 302.059 464.306 302.989 463.28C303.538 462.675 306.772 462.102 307.679 461.475C310.559 459.484 313.118 455.725 315.304 453.025C320.126 446.562 324.076 439.262 328.166 432.319C328.238 432.13 328.301 431.938 328.381 431.753C333.958 418.793 350.877 399.825 361.175 390.508C367.161 385.091 373.717 380.375 379.458 374.692C364.198 385.312 342.903 405.038 334.068 421.342L333.493 420.611C329.311 422.936 318.344 443.047 316.853 448.106C316.275 450.066 316.168 451.061 314.781 452.648C311.801 454.922 310.155 459.126 306.718 461.304C305.459 462.102 304.46 462.322 302.985 461.968C302.223 460.108 305.224 457.886 306.088 456.284C306.688 455.171 306.933 453.897 307.437 452.737C315.204 434.86 326.285 419.146 339.115 404.58C344.583 398.373 350.093 391.925 356.067 386.218C373.776 369.302 395.666 356.414 417.961 346.557C428.527 341.886 439.528 339.146 450.248 335.078L450.681 334.911ZM483.869 690.214C483.954 692.609 483.98 695.022 484.187 697.409C500.798 704.971 537.213 704.437 555.387 701.218L556.053 700.761C552.628 700.307 549.137 700.356 545.688 699.973C535.635 698.855 525.606 697.326 515.592 695.904C505.006 694.4 494.191 693.072 483.869 690.214Z"/>
	<path fill="#B8F2E6" d="M580.091 329.025C633.3 343.644 682.598 378.575 710.208 426.979C718.427 441.387 725.767 457.65 729.261 473.929L728.499 473.522C727.485 471.147 727.229 468.724 726.496 466.278C724.707 460.305 722.265 453.749 719.861 447.987C716.575 440.11 711.407 432.961 708.481 424.994L707.834 424.624L707.548 425.561C706.272 425.676 706.861 425.743 705.775 425.441C705.899 427.51 706.854 432.003 706.417 433.817C706.09 435.175 705.268 434.803 705.732 436.516C707.727 443.867 712.135 451.788 714.774 459.069C718.204 468.529 724.662 495.388 722.088 504.603C721.619 495.428 720.96 484.802 718.467 475.968C715.349 461.002 709.398 445.662 702.621 431.963C681.943 390.166 638.668 357.696 596.936 338.859C591.14 336.243 585.271 333.456 579.243 331.422L580.091 329.025Z"/>
	<path fill="#78C9C8" d="M342.83 397.971C345.49 396.975 358.308 382.623 361.693 379.682C381.919 362.113 408.932 348.295 434.065 339.524C439.304 337.695 445.169 335.508 450.681 334.911L450.248 335.078C439.528 339.146 428.527 341.886 417.961 346.557C395.666 356.414 373.776 369.302 356.067 386.218C350.093 391.925 344.583 398.373 339.115 404.58C326.285 419.146 315.204 434.86 307.437 452.737C306.933 453.897 306.688 455.171 306.088 456.284C305.224 457.886 302.223 460.108 302.985 461.968C304.46 462.322 305.459 462.102 306.718 461.304C310.155 459.126 311.801 454.922 314.781 452.648L315.304 453.025C313.118 455.725 310.559 459.484 307.679 461.475C306.772 462.102 303.538 462.675 302.989 463.28C302.059 464.306 299.331 476.865 299.113 478.924L298.409 479.75L297.449 479.582L295.04 478.476C296.605 472.174 297.929 465.361 300.688 459.467C300.889 459.537 301.079 459.666 301.291 459.677C303.007 459.766 305.264 454.755 305.985 453.261C308.801 447.434 310.902 441.392 313.979 435.645C319.553 425.237 333.88 405.296 342.83 397.971Z"/>
	<path fill="#78C9C8" d="M504.841 341.443C492.147 342.351 479.232 343.693 466.759 346.275C461.661 347.33 456.346 349.699 451.237 350.364C435.106 356.278 416.987 363.036 403.581 374.001L402.516 373.538C405.333 370.017 409.66 366.906 413.046 363.863C413.171 363.714 413.293 363.562 413.421 363.416C415.757 360.771 424.426 354.178 427.787 353.491L428.491 352.633C422.295 352.957 394.085 371.523 387.156 376.441C381.965 380.125 376.964 384.616 371.595 387.952C377.002 379.917 405.561 363.817 415.023 358.035L415.093 357.607C413.201 357.778 411.457 357.929 409.566 357.7L410.057 357.161C412.551 356.219 415.043 357.021 417.441 356.174C423.255 354.12 428.655 350.81 434.547 348.816C450.228 343.509 482.783 336.457 498.693 336.818L498.949 337.339C493.32 338.286 487.503 338.252 481.814 338.979C488.739 340.084 494.836 339.21 501.749 339.09L502.009 339.415L499.749 339.552C497.452 339.669 496.128 339.826 494.136 341.05C494.553 341.429 502.75 340.733 504.841 341.443Z"/>
	<defs>
		<linearGradient id="gradient_1" gradientUnits="userSpaceOnUse" x1="439.90057" y1="630.44299" x2="600.9043" y2="362.04443">
			<stop offset="0" stop-color="#D9F5F8"/>
			<stop offset="1" stop-color="#F7FCFC"/>
		</linearGradient>
	</defs>
	<path fill="url(#gradient_1)" d="M451.237 350.364C456.346 349.699 461.661 347.33 466.759 346.275C479.232 343.693 492.147 342.351 504.841 341.443C510.357 341.755 515.893 341.562 521.408 341.901C534.337 342.696 548.137 344.904 560.611 348.366C587.886 354.079 615.372 367.506 637.438 384.404C644.147 389.542 650.236 395.299 656.426 401.033L656.69 401.386C658.931 404.34 661.61 406.917 663.886 409.849C671.355 419.4 677.836 429.684 683.231 440.542C686.492 449.255 690.302 457.635 692.961 466.583C703.038 500.496 698.939 533.462 684.499 565.427C680.573 574.116 670.628 593.083 663.403 598.24C662.816 598.392 662.616 598.403 662.045 598.787C659.816 600.287 657.572 603.488 655.662 605.449C651.068 610.163 646.023 614.573 640.545 618.228L641.64 616.931C638.55 619.113 635.165 622.035 631.646 623.374L631.35 622.981C633.501 619.377 637.078 616.272 640.059 613.319L639.878 612.711C636.798 614.265 627.429 624.782 623.326 628.001C617.493 632.577 587.054 640.293 579.125 641.61L578.824 641.348C582.299 639.552 597.648 631.771 598.803 628.993C595.586 630.714 577.436 640.58 576.482 642.771C576.418 642.92 576.393 643.083 576.348 643.239C574.02 644.492 570.079 645.096 567.452 645.836C562.442 647.246 557.424 648.67 552.246 649.318C545.491 650.163 538.542 649.932 531.749 649.726C521.172 649.37 510.608 648.695 500.072 647.703C487.497 646.449 474.803 644.671 462.143 644.669L461.484 644.673C453.322 639.475 445.41 633.869 437.302 628.582C424.501 620.234 398.843 606.424 390.873 594.093C387.943 589.56 387.712 586.303 388.779 581.236C364.728 562.995 352.742 539.378 346.847 510.292C346.631 520.461 347.371 530.066 348.997 540.083C347.553 538.036 346.209 535.92 344.969 533.743C333.7 513.732 334.409 485.372 340.239 463.764C346.216 442.612 356.664 422.99 370.879 406.224C375.65 400.613 381.11 395.413 386.322 390.206C391.278 385.256 399.03 379.764 403.172 374.532C403.311 374.357 403.445 374.178 403.581 374.001C416.987 363.036 435.106 356.278 451.237 350.364ZM505.844 454.138C500.977 455.091 497.099 457.144 494.343 461.41C490.968 466.632 490.054 475.001 491.601 480.908C495.918 497.385 518.907 496.355 520.926 513.367C521.254 516.13 521 519.596 519.535 522.035C517.806 524.912 515.06 527.571 511.679 528.245C504.793 529.617 497.558 526.083 492.091 522.211C491.761 525.471 491.629 528.958 490.806 532.127C495.24 534.408 499.222 536.465 504.156 537.441C511.432 537.871 518.218 537.801 523.998 532.6C528.304 528.726 529.984 523.23 530.182 517.581C530.454 509.846 528.415 501.702 523.042 495.908C515.271 487.528 498.702 486.268 499.094 471.764C499.163 469.381 500.189 467.126 501.942 465.509C504.801 462.864 508.755 462.228 512.515 462.526C515.625 462.772 518.489 463.606 521.42 464.619C521.732 462.269 522.034 459.957 522.614 457.654C517.02 454.997 512.109 453.753 505.844 454.138ZM476.817 455.739L448.546 457.448C448.247 484.023 445.909 510.555 445.931 537.167L482.411 536.959L482.533 527.124L473.752 527.167C467.502 527.335 461.25 527.427 454.997 527.441C455.003 517.651 455.491 507.881 455.55 498.097L479.068 497.89C479.13 494.711 479.214 491.545 479.033 488.369C471.377 488.468 463.722 488.648 456.07 488.907C456.351 481.159 456.478 473.367 457.044 465.636C464.4 465.004 471.773 464.591 479.153 464.395C479.045 461.627 479.143 458.724 478.353 456.053C477.321 455.517 477.84 455.582 476.817 455.739ZM535.946 455.548L545.612 536.479C557.874 536.657 570.299 537.317 582.546 536.619L580.979 526.589C571.768 526.543 562.557 526.568 553.347 526.663L552.347 518.504C551.421 511.199 550.792 503.678 549.289 496.473C557.203 496.68 565.21 496.736 573.096 497.449C572.514 494.249 572.003 491.009 571.242 487.847C563.607 487.791 555.971 487.69 548.337 487.545C547.38 479.763 545.84 471.79 545.307 463.99C552.856 464.187 560.384 464.787 567.927 465.017C567.378 462.21 566.874 459.386 566.226 456.6C556.177 456.336 545.981 455.362 535.946 455.548ZM573.62 457.05C574.128 459.933 574.706 462.707 575.523 465.52C581.461 465.821 587.394 466.199 593.323 466.653C599.239 489.798 604.789 513.181 608.728 536.752L617.811 536.821C616.803 531.491 615.705 526.179 614.518 520.886C610.476 503.091 605.762 485.302 602.074 467.452C608.637 467.734 615.162 468.388 621.715 468.736C620.766 465.869 619.986 463.035 619.319 460.09C610.062 459.246 600.788 458.593 591.504 458.131C585.609 457.816 579.461 457.85 573.62 457.05ZM413.329 460.159C408.013 460.982 403.092 462.493 398.074 464.403C394.607 488.975 391.913 513.65 389.999 538.392L398.54 538.184C399.865 527.214 400.143 516.13 401.547 505.175C405.265 504.379 409.48 503.588 412.952 505.658C415.254 507.03 416.568 509.338 417.553 511.756C420.372 520.252 422.436 528.969 425.217 537.471L435.199 537.286C430.506 524.296 429.875 508.899 419.045 499.289C425.88 495.126 430.579 490.63 432.553 482.546C433.827 477.329 433.729 471.001 430.892 466.28C428.891 462.949 425.624 461.024 421.861 460.303C419.033 459.762 416.176 459.899 413.329 460.159Z"/>
	<path fill="#3CA5A4" d="M413.046 363.863C409.66 366.906 405.333 370.017 402.516 373.538L402.158 373.878C396.419 379.242 389.61 383.447 383.808 388.772C364.017 406.938 347.935 432.336 339.348 457.777C336.785 462.189 335.348 467.961 333.974 472.88C327.107 497.459 324.823 525.219 331.365 550.063C336.457 569.4 346.65 588.343 359.279 603.817C365.327 611.227 372.647 617.458 379.798 623.761C394.52 636.737 404.903 645.993 415.847 662.736C416.852 664.273 419.315 666.64 419.427 668.413C418.27 668.485 417.505 668.125 416.444 667.719C413.876 664.938 403.102 659.85 399.087 657.204C383.577 646.979 367.174 635.149 354.146 621.845C327.602 594.741 309.766 555.459 310.32 517.168C310.603 497.603 314.807 472.357 322.855 454.611C326.699 446.134 331.975 438.106 336.796 430.152C341.983 421.59 347.031 413.237 353.615 405.633C359.057 399.348 365.643 393.766 371.595 387.952C376.964 384.616 381.965 380.125 387.156 376.441C394.085 371.523 422.295 352.957 428.491 352.633L427.787 353.491C424.426 354.178 415.757 360.771 413.421 363.416C413.293 363.562 413.171 363.714 413.046 363.863Z"/>
	<path fill="#FAF3DD" d="M0 354.226C3.94805 355.509 8.14827 356.871 10.1229 360.861C11.764 364.177 11.5148 368.062 11.4987 371.666C8.89451 373.17 6.18816 374.613 3.68805 376.281C11.3981 385.354 6.84751 392.64 21.4537 393.791C28.3731 394.336 39.3151 392.366 45.3591 395.141L46.0768 396.1C45.4432 398.747 42.4684 400.943 40.1863 402.292C32.2292 406.997 22.8027 404.172 14.2187 405.399C9.20244 406.115 4.6554 408.179 0 410.073L0 354.226Z"/>
	<path fill="#FAF3DD" d="M272.441 872.816C274.964 873.429 288.342 886.035 291.3 888.503C307.922 902.376 327.509 913.971 346.157 924.907C351.738 928.18 357.871 932.323 363.988 934.442C374.101 937.945 388.714 939.369 399.622 940.671C404.081 941.203 408.657 938.847 412.986 937.792C418.872 936.357 425.154 934.896 431.215 934.684C438.104 934.442 446.652 938.65 451.627 943.361C449.469 943.693 444.273 939.126 441.841 938.144C439.018 937.004 436.006 936.176 432.958 935.992C427.071 935.638 415.001 937.52 409.606 939.836C408.391 940.357 407.365 940.599 406.053 940.772C405.886 940.794 405.718 940.813 405.551 940.833L405.16 941.382C408.769 941.461 412.3 942.812 415.858 942.789C420.498 942.759 425.371 943.545 430.027 943.84C443.296 944.68 456.992 945.676 470.281 945.406C479.443 945.14 488.595 944.581 497.722 943.728C503.799 943.184 519.819 940.063 524.513 941.236C506.565 942.913 488.901 945.549 470.828 945.908C459.475 946.133 447.935 945.468 436.597 944.844C367.106 941.014 297.518 923.853 237.706 887.369C220.278 876.738 203.871 865.041 188.727 851.309C154.383 820.167 123.917 775.756 108.451 731.992C105.151 722.654 102.762 713.068 100.437 703.449C82.7886 630.449 98.7455 560.901 137.436 497.649C159.839 461.025 192.067 428.921 226.641 403.673C233.033 399.005 239.758 394.704 246.345 390.312C255.644 384.111 268.107 375.247 278.923 372.642C259.388 394.204 241.228 417.444 229.789 444.439C228.344 447.692 226.518 451.073 225.389 454.429C218.199 458.19 212.787 466.849 208.285 473.389C191.627 497.59 178.882 522.686 170.055 550.751C166.659 561.545 163.392 572.769 161.236 583.883C158.927 595.797 158.006 608.129 157.431 620.231C154.926 672.981 167.192 720.434 191.581 767.098C209.081 801.219 231.638 832.498 258.487 859.876C262.787 864.175 267.412 869.398 272.441 872.816Z"/>
	<path fill="#F3FAFB" d="M402.516 373.538L403.581 374.001C403.445 374.178 403.311 374.357 403.172 374.532C399.03 379.764 391.278 385.256 386.322 390.206C381.11 395.413 375.65 400.613 370.879 406.224C356.664 422.99 346.216 442.612 340.239 463.764C339.671 460.395 341.293 456.377 342.029 453.036C341.244 454.629 340.56 456.24 339.892 457.886L339.348 457.777C347.935 432.336 364.017 406.938 383.808 388.772C389.61 383.447 396.419 379.242 402.158 373.878L402.516 373.538Z"/>
	<path fill="#78C9C8" d="M328.166 432.319C324.076 439.262 320.126 446.562 315.304 453.025L314.781 452.648C316.168 451.061 316.275 450.066 316.853 448.106C318.344 443.047 329.311 422.936 333.493 420.611L334.068 421.342C342.903 405.038 364.198 385.312 379.458 374.692C373.717 380.375 367.161 385.091 361.175 390.508C350.877 399.825 333.958 418.793 328.381 431.753C328.301 431.938 328.238 432.13 328.166 432.319Z"/>
	<path fill="#AED9E0" d="M656.426 401.033L657.491 400.957C667.004 410.839 680.564 425.675 683.792 439C683.633 439.552 683.516 440.04 683.231 440.542C677.836 429.684 671.355 419.4 663.886 409.849C661.61 406.917 658.931 404.34 656.69 401.386L656.426 401.033Z"/>
	<path fill="#DFA26E" d="M754.824 411.178C756.691 411.047 759.544 410.657 761.112 411.901C765.394 415.298 768.26 421.254 771.425 425.615C774.982 430.517 779.131 434.885 782.334 440.06C789.017 450.858 789.936 464.152 793.733 476.046C795.193 480.622 799.879 490.948 800.184 494.945C800.316 496.674 799.81 498.211 799.669 499.885C799.649 500.119 799.685 500.355 799.693 500.591L798.404 499.675L797.638 499.94C796.044 504.045 796.466 513.311 796.071 518.17C795.581 524.196 794.975 530.29 793.979 536.254C792.285 546.408 790.43 556.649 787.325 566.477C785.219 573.144 781.89 579.92 780.463 586.701L781.031 587.062C782.489 588.005 783.467 588.631 784.335 590.146C784.814 593.002 784.708 595.61 782.962 598.039C781.372 600.25 779.693 600.778 777.174 601.492C774.365 607.747 763.896 632.916 759.387 636.088C754.934 639.482 751.025 643.875 747.042 647.82C743.03 651.793 738.784 655.556 734.993 659.746C731.501 663.605 728.409 667.816 724.977 671.728C716.981 680.843 710.491 688.256 704.612 698.983C697.797 703.98 683.992 714.822 676.061 716.234C683.507 709.117 687.678 699.877 694.69 692.555C698.349 688.734 702.505 685.474 706.584 682.12C724.393 667.477 732.658 662.444 741.635 640.638C743.181 638.058 745.773 635.606 747.596 633.12C754.242 624.06 761.292 614.95 766.994 605.266C771.297 597.96 773.937 590.224 776.155 582.083C778.188 574.621 779.124 566.656 780.507 559.036C784.085 539.317 788.614 519.135 787.375 498.976C786.376 482.706 782.164 466.558 776.078 451.469C773.755 445.703 771.059 440.094 768.005 434.679C765.462 430.112 755.799 415.685 754.968 411.915C754.914 411.67 754.872 411.424 754.824 411.178Z"/>
	<path fill="#D47206" d="M272.466 466.223C270.459 471.712 269.432 478.751 269.331 484.579L269.616 485.047C267.332 496.192 264.523 507.49 263.976 518.88C261.971 560.591 280.688 606.164 303.179 640.565C322.139 669.565 357.132 695.033 388.055 710.179C396.906 714.514 405.989 717.942 415.204 721.4C404.674 723.632 389.276 719.333 380.036 722.387C376.736 723.478 374.072 725.908 370.997 727.421C369.424 729.61 368.959 731.414 369.331 734.11C369.657 736.474 370.494 739.038 371.394 741.247C372.568 742.253 375.306 743.971 376.037 745.203L375.793 747.198C371.649 743.814 367.945 739.923 363.77 736.544C349.791 725.23 333.937 714.727 323.707 699.588C312.527 684.872 309.974 666.471 299.938 651.655C290.923 638.346 274.966 630.758 267.626 616.01C263.846 608.415 265.434 599.671 262.999 591.621C259.94 581.505 254.732 576.385 250.642 567.812C247.856 561.974 247.398 554.633 246.837 548.275C244.601 522.941 246.186 495.619 254.701 471.485L254.847 470.418C258.318 458.177 267.042 447 274.145 436.771C275.874 434.28 277.147 431.571 279.065 429.196L279.973 429.32C281.09 432.11 278.054 436.894 277.387 439.881C275.437 448.607 274.582 457.533 272.466 466.223Z"/>
	<defs>
		<linearGradient id="gradient_2" gradientUnits="userSpaceOnUse" x1="244.27065" y1="655.63385" x2="350.76367" y2="609.276">
			<stop offset="0" stop-color="#A84902"/>
			<stop offset="1" stop-color="#C06007"/>
		</linearGradient>
	</defs>
	<path fill="url(#gradient_2)" d="M229.789 444.439C229.92 447.327 230.04 450.171 229.788 453.057C229.157 460.295 227.032 467.256 233.22 472.79C233.651 473.172 234.092 473.543 234.543 473.902C244.771 476.862 251.056 470.724 254.701 471.485C246.186 495.619 244.601 522.941 246.837 548.275C247.398 554.633 247.856 561.974 250.642 567.812C254.732 576.385 259.94 581.505 262.999 591.621C265.434 599.671 263.846 608.415 267.626 616.01C274.966 630.758 290.923 638.346 299.938 651.655C309.974 666.471 312.527 684.872 323.707 699.588C333.937 714.727 349.791 725.23 363.77 736.544C367.945 739.923 371.649 743.814 375.793 747.198C380.689 751.469 385.656 757.283 390.978 760.832C396.884 764.77 403.948 766.964 409.683 771.084C417.546 776.733 424.443 784.091 431.891 790.335C411.014 787.709 392.564 776.549 373.017 769.744C369.832 767.35 365.792 765.726 362.266 763.836C357.201 761.089 352.217 758.195 347.322 755.156C288.85 718.866 242.582 667.14 221.156 601.096C217.154 588.76 215.443 576.454 212.498 563.907C211.651 558.61 211.787 553.241 210.431 548.024C209.818 546.269 209.987 543.954 209.911 542.093C209.711 537.195 211.137 519.936 208.942 516.817C211.78 511.341 213.797 492.39 215.692 484.724C218.23 474.458 221.808 464.37 225.389 454.429C226.518 451.073 228.344 447.692 229.789 444.439Z"/>
	<path fill="#371105" d="M320.4 641.527C316.686 638.472 313.493 633.49 310.611 629.59C293.002 605.299 281.996 576.856 278.669 547.039C275.236 517.919 284.13 485.158 297.696 459.442C299.959 455.152 302.266 450.326 305.256 446.513C303.726 450.78 301.901 455.107 300.688 459.467C297.929 465.361 296.605 472.174 295.04 478.476C293.524 486.153 292.174 494.125 291.912 501.959C291.167 507.308 290.925 513.023 290.928 518.425C287.119 545.387 299.442 596.734 309.907 621.683C312.827 628.646 317.017 634.828 320.4 641.527Z"/>
	<path fill="#78C9C8" d="M416.444 667.719C417.505 668.125 418.27 668.485 419.427 668.413C419.315 666.64 416.852 664.273 415.847 662.736C404.903 645.993 394.52 636.737 379.798 623.761C372.647 617.458 365.327 611.227 359.279 603.817C346.65 588.343 336.457 569.4 331.365 550.063C324.823 525.219 327.107 497.459 333.974 472.88C335.348 467.961 336.785 462.189 339.348 457.777L339.892 457.886C340.56 456.24 341.244 454.629 342.029 453.036C341.293 456.377 339.671 460.395 340.239 463.764C334.409 485.372 333.7 513.732 344.969 533.743C346.209 535.92 347.553 538.036 348.997 540.083C347.371 530.066 346.631 520.461 346.847 510.292C352.742 539.378 364.728 562.995 388.779 581.236C387.712 586.303 387.943 589.56 390.873 594.093C398.843 606.424 424.501 620.234 437.302 628.582C445.41 633.869 453.322 639.475 461.484 644.673L462.143 644.669C474.803 644.671 487.497 646.449 500.072 647.703C510.608 648.695 521.172 649.37 531.749 649.726C538.542 649.932 545.491 650.163 552.246 649.318C557.424 648.67 562.442 647.246 567.452 645.836C570.079 645.096 574.02 644.492 576.348 643.239C580.559 642.711 584.795 641.364 588.911 640.319C588.252 643.374 581.565 649.019 579.533 652.365C582.915 655.76 586.997 658.164 590.598 661.271C585.062 666.035 578.338 669.422 572.49 673.826L571.858 673.308C571.579 669.501 570.953 665.838 569.717 662.223C568.379 663.082 566.822 663.868 565.838 665.139C552.902 671.108 506.116 674.778 491.137 673.671L478.922 684.746C485.962 685.426 493.168 686.279 500.246 685.974L503.003 687.587C500.849 687.6 498.63 687.018 496.473 686.812C490.703 686.26 485.216 685.983 479.456 685.106C476.967 684.728 478.062 686.263 476.501 687.461L474.553 686.595L474.021 686.841C473.983 687.941 473.928 689.041 473.857 690.139C473.383 690.648 473.267 691.014 472.519 691.082C468.499 691.449 449.345 683.261 446.084 680.224C448.944 680.079 460.595 686.533 463.784 687.78C466.746 688.937 469.753 689.778 472.836 690.542C473.11 688.825 473.075 686.717 474.265 685.449C475.045 685.87 475.281 685.994 476.196 686.045C479.632 682.406 481.05 676.561 482.784 671.937C472.885 668.076 463.252 664.13 453.595 659.685C450.274 666.172 446.675 672.85 442.985 679.135C437.746 674.62 419.74 671.886 416.444 667.719Z"/>
	<path fill="#080807" d="M492.091 522.211C497.558 526.083 504.793 529.617 511.679 528.245C515.06 527.571 517.806 524.912 519.535 522.035C521 519.596 521.254 516.13 520.926 513.367C518.907 496.355 495.918 497.385 491.601 480.908C490.054 475.001 490.968 466.632 494.343 461.41C497.099 457.144 500.977 455.091 505.844 454.138C512.109 453.753 517.02 454.997 522.614 457.654C522.034 459.957 521.732 462.269 521.42 464.619C518.489 463.606 515.625 462.772 512.515 462.526C508.755 462.228 504.801 462.864 501.942 465.509C500.189 467.126 499.163 469.381 499.094 471.764C498.702 486.268 515.271 487.528 523.042 495.908C528.415 501.702 530.454 509.846 530.182 517.581C529.984 523.23 528.304 528.726 523.998 532.6C518.218 537.801 511.432 537.871 504.156 537.441C499.222 536.465 495.24 534.408 490.806 532.127C491.629 528.958 491.761 525.471 492.091 522.211Z"/>
	<path fill="#FAF3DD" d="M272.441 872.816C267.412 869.398 262.787 864.175 258.487 859.876C231.638 832.498 209.081 801.219 191.581 767.098C167.192 720.434 154.926 672.981 157.431 620.231C158.006 608.129 158.927 595.797 161.236 583.883C163.392 572.769 166.659 561.545 170.055 550.751C178.882 522.686 191.627 497.59 208.285 473.389C212.787 466.849 218.199 458.19 225.389 454.429C221.808 464.37 218.23 474.458 215.692 484.724C213.797 492.39 211.78 511.341 208.942 516.817C203.803 525.568 200.451 535.672 197.506 545.365C183.482 591.524 182.98 643.784 195.092 690.409C215.748 769.926 268.894 834.936 339.364 876.282C369.937 894.187 403.051 907.347 437.574 915.314C447.163 917.578 457.299 919.81 467.116 920.632C471.438 922.07 476.7 922.199 481.227 922.582C490.799 923.422 500.394 923.986 509.999 924.273C515.038 924.41 520.2 924.093 525.213 924.452C524.876 924.553 524.537 924.653 524.193 924.732C515.58 926.724 494.503 924.681 484.56 923.865C429.968 918.848 377.297 901.173 330.729 872.245C323.25 867.574 315.837 862.449 308.734 857.221C304.851 854.363 301.291 851.112 297.232 848.5C296.084 848.845 296.556 848.673 295.403 849.15L294.576 849.498C292.19 849.067 291.462 847.476 289.296 846.588C289.284 847.816 289.467 849.866 289.055 850.995C288.645 852.115 288.392 852.315 287.339 852.764C286.256 852.368 285.241 852.005 284.26 851.382C284.064 851.257 283.879 851.117 283.688 850.985L282.548 851.31C281.295 852.797 280.882 854.036 280.246 855.848C279.191 858.852 279.519 862.787 278.196 865.399C276.763 865.624 276.394 864.939 275.271 864.123L274.45 864.477C273.602 866.318 274.362 867.77 274.034 869.746L273.173 870.22C272.265 869.953 271.806 869.853 270.836 869.883L272.441 872.816Z"/>
	<path fill="#080807" d="M448.546 457.448L476.817 455.739C477.84 455.582 477.321 455.517 478.353 456.053C479.143 458.724 479.045 461.627 479.153 464.395C471.773 464.591 464.4 465.004 457.044 465.636C456.478 473.367 456.351 481.159 456.07 488.907C463.722 488.648 471.377 488.468 479.033 488.369C479.214 491.545 479.13 494.711 479.068 497.89L455.55 498.097C455.491 507.881 455.003 517.651 454.997 527.441C461.25 527.427 467.502 527.335 473.752 527.167L482.533 527.124L482.411 536.959L445.931 537.167C445.909 510.555 448.247 484.023 448.546 457.448Z"/>
	<path fill="#080807" d="M545.612 536.479L535.946 455.548C545.981 455.362 556.177 456.336 566.226 456.6C566.874 459.386 567.378 462.21 567.927 465.017C560.384 464.787 552.856 464.187 545.307 463.99C545.84 471.79 547.38 479.763 548.337 487.545C555.971 487.69 563.607 487.791 571.242 487.847C572.003 491.009 572.514 494.249 573.096 497.449C565.21 496.736 557.203 496.68 549.289 496.473C550.792 503.678 551.421 511.199 552.347 518.504L553.347 526.663C562.557 526.568 571.768 526.543 580.979 526.589L582.546 536.619C570.299 537.317 557.874 536.657 545.612 536.479Z"/>
	<path fill="#080807" d="M575.523 465.52C574.706 462.707 574.128 459.933 573.62 457.05C579.461 457.85 585.609 457.816 591.504 458.131C600.788 458.593 610.062 459.246 619.319 460.09C619.986 463.035 620.766 465.869 621.715 468.736C615.162 468.388 608.637 467.734 602.074 467.452C605.762 485.302 610.476 503.091 614.518 520.886C615.705 526.179 616.803 531.491 617.811 536.821L608.728 536.752C604.789 513.181 599.239 489.798 593.323 466.653C587.394 466.199 581.461 465.821 575.523 465.52Z"/>
	<path fill="#080807" d="M398.074 464.403C403.092 462.493 408.013 460.982 413.329 460.159C416.176 459.899 419.033 459.762 421.861 460.303C425.624 461.024 428.891 462.949 430.892 466.28C433.729 471.001 433.827 477.329 432.553 482.546C430.579 490.63 425.88 495.126 419.045 499.289C429.875 508.899 430.506 524.296 435.199 537.286L425.217 537.471C422.436 528.969 420.372 520.252 417.553 511.756C416.568 509.338 415.254 507.03 412.952 505.658C409.48 503.588 405.265 504.379 401.547 505.175C400.143 516.13 399.865 527.214 398.54 538.184L389.999 538.392C391.913 513.65 394.607 488.975 398.074 464.403ZM410.208 467.119C408.659 467.524 407.431 467.705 406.358 469C403.507 477.32 403.802 487.32 402.344 496.029C406.882 495.996 411.293 496.041 415.65 494.586C420.042 491.878 422.867 488.175 424.148 483.125C425.099 479.378 425.106 475.071 423 471.696C421.54 469.385 419.219 467.753 416.551 467.16C414.473 466.712 412.304 466.946 410.208 467.119Z"/>
	<path fill="#F3FAFB" d="M402.344 496.029C403.802 487.32 403.507 477.32 406.358 469C407.431 467.705 408.659 467.524 410.208 467.119C412.304 466.946 414.473 466.712 416.551 467.16C419.219 467.753 421.54 469.385 423 471.696C425.106 475.071 425.099 479.378 424.148 483.125C422.867 488.175 420.042 491.878 415.65 494.586C411.293 496.041 406.882 495.996 402.344 496.029Z"/>
	<path fill="#3CA5A4" d="M295.04 478.476L297.449 479.582C297.116 483.107 297.326 488.94 296.094 492.11L295.566 491.936C293.484 495.761 294.609 501.268 292.7 505.294L292.162 505.128L291.912 501.959C292.174 494.125 293.524 486.153 295.04 478.476Z"/>
	<path fill="#098285" d="M291.912 501.959L292.162 505.128L292.7 505.294C294.609 501.268 293.484 495.761 295.566 491.936L296.094 492.11C295.527 504.462 295.568 516.453 296.178 528.793C297.747 525.837 299.209 522.566 301.354 519.999C301.177 522.385 299.214 526.39 297.493 528.074L296.428 528.296C294.947 526.938 294.969 524.765 294.89 522.886C294.67 517.641 294.489 512.433 294.192 507.187L293.803 508.692C292.991 507.818 293.332 508.311 292.792 507.205C290.557 514.388 290.975 525.659 292.925 532.818C293.23 533.935 292.953 534.738 292.629 535.814C292.566 535.668 292.5 535.523 292.439 535.376C292.338 535.13 292.244 534.882 292.143 534.637C290.11 529.668 291.038 523.718 290.928 518.425C290.925 513.023 291.167 507.308 291.912 501.959Z"/>
	<path fill="#78C9C8" d="M719.102 493.928C722.828 500.598 719.405 521.643 719.42 529.807C720.741 540.361 705.755 584.211 698.656 593.822C697.809 594.97 697.368 595.423 695.964 595.644C694.313 594.54 693.594 592.544 693.085 590.688C694.248 592.159 694.768 593.642 696.323 594.816C696.99 594.496 696.914 594.619 697.349 594.145C701.293 589.851 703.808 581.851 705.962 576.384C710.541 564.76 715.28 552.134 717.424 539.79C719.996 524.986 719.132 508.919 719.102 493.928Z"/>
	<path fill="#F3FAFB" d="M777.174 601.492C779.693 600.778 781.372 600.25 782.962 598.039C784.708 595.61 784.814 593.002 784.335 590.146C783.467 588.631 782.489 588.005 781.031 587.062L780.463 586.701C781.89 579.92 785.219 573.144 787.325 566.477C790.43 556.649 792.285 546.408 793.979 536.254C794.975 530.29 795.581 524.196 796.071 518.17C796.466 513.311 796.044 504.045 797.638 499.94L798.404 499.675L799.693 500.591C799.72 500.863 799.743 501.136 799.775 501.408C800.157 504.665 802.18 508.532 803.285 511.671C807.605 523.937 806.11 532.48 802.249 544.581C806.782 550.253 807.385 558.838 806.563 565.846C804.504 583.391 787.805 623.436 773.677 634.75C773.312 635.042 772.923 635.303 772.539 635.569C772.441 633.928 772.579 631.096 771.338 629.894C770.272 628.862 769.656 628.83 768.269 628.689C767.162 629.343 766.454 629.789 766.135 631.127C765.741 632.785 766.083 634.329 767.036 635.705C767.98 637.067 769.138 638.297 770.283 639.49C770.653 643.283 757.73 658.513 754.892 661.962C750.505 667.318 745.899 672.489 741.085 677.464C738.744 679.898 734.661 682.97 732.957 685.683C731.724 686.608 730.631 687.29 729.212 687.898C728.181 687.825 727.45 687.588 726.546 687.111C724.832 686.206 723.698 685.23 723.087 683.348C723.893 677.215 741.413 663.109 746.216 656.971C751.218 650.579 755.401 643.151 759.387 636.088C763.896 632.916 774.365 607.747 777.174 601.492Z"/>
	<path fill="#3CA5A4" d="M301.354 519.999L302.334 518.866C303.278 519.796 303.044 521.326 303.06 522.628C303.096 525.57 302.298 531.273 303.495 533.893C307.137 577.727 327.686 618.426 360.796 647.382C385.912 669.075 412.518 682.934 442.42 696.804C454.033 702.191 465.167 707.754 477.682 710.849C497.496 715.751 517.413 716.635 537.703 715.112C599.351 710.483 648.817 688.253 689.337 641.004C697.007 631.879 703.932 622.152 710.045 611.919C709.798 623.769 678.56 655.573 669.809 663.959C659.328 674.002 647.775 682.093 635.658 690.004C623.773 697.763 611.773 705.14 598.69 710.745C569.508 723.248 531.47 727.723 500.058 727.021C469.149 726.33 436.988 714.429 410.503 698.992C402.156 694.126 394.478 688.339 386.277 683.296C379.197 678.242 372.312 672.921 365.636 667.345C345.15 650.031 325.506 627.293 313.086 603.469C307.5 592.754 303.27 581.437 299.719 569.906C296.257 558.662 293.615 547.573 292.629 535.814C292.953 534.738 293.23 533.935 292.925 532.818C290.975 525.659 290.557 514.388 292.792 507.205C293.332 508.311 292.991 507.818 293.803 508.692L294.192 507.187C294.489 512.433 294.67 517.641 294.89 522.886C294.969 524.765 294.947 526.938 296.428 528.296L297.493 528.074C299.214 526.39 301.177 522.385 301.354 519.999Z"/>
	<path fill="#374835" d="M734.52 515.324C736.507 520.578 737.485 526.471 738.323 532.004C742.465 559.368 737.225 587.645 725.857 612.785C709.945 647.976 681.027 675.886 648.138 695.267C641.517 699.168 634.358 703.467 627.214 706.295C626.772 706.47 626.321 706.622 625.867 706.76C630.306 702.969 636.719 701.182 641.546 697.815C658.997 685.645 675.672 671.202 689.215 654.763C710.705 628.677 726.267 594.932 731.819 561.575C732.983 554.58 734.165 547.387 733.49 540.288C733.515 531.972 734.586 523.685 734.52 515.324Z"/>
	<path fill="#BD6015" d="M467.116 920.632C457.299 919.81 447.163 917.578 437.574 915.314C403.051 907.347 369.937 894.187 339.364 876.282C268.894 834.936 215.748 769.926 195.092 690.409C182.98 643.784 183.482 591.524 197.506 545.365C200.451 535.672 203.803 525.568 208.942 516.817C211.137 519.936 209.711 537.195 209.911 542.093L208.966 542.47C199.074 565.549 195.098 603.316 196.163 628.687C196.652 640.33 198.498 651.809 200.292 663.305C204.143 687.981 209.02 711.636 218.3 734.954C225.237 752.386 235.055 767.915 245.701 783.279C252.195 792.652 258.43 802.477 265.847 811.145C274.31 821.037 284.149 829.711 294.014 838.159C302.524 845.446 310.992 852.817 320.096 859.364C337.608 871.957 357.171 882.226 376.956 890.729C398.858 900.143 421.875 906.29 445.01 911.747C453.616 913.777 461.965 916.095 470.738 917.389C477.774 918.427 484.751 918.483 491.794 919.169C499.575 919.927 507.449 921.371 515.245 920.374C520.838 919.658 527.219 921.294 532.941 921.193C533.811 921.178 534.637 921.571 535.271 922.152L535.418 923.152C535.283 923.137 535.148 923.121 535.013 923.109C531.573 922.789 527.987 923.251 524.527 923.335C517.234 923.512 509.785 923.556 502.499 923.228C493.55 922.826 484.553 921.916 475.631 921.111C473.045 920.877 470.003 920.006 467.482 920.117L467.116 920.632Z"/>
	<path fill="#076761" d="M320.4 641.527C317.017 634.828 312.827 628.646 309.907 621.683C299.442 596.734 287.119 545.387 290.928 518.425C291.038 523.718 290.11 529.668 292.143 534.637C292.244 534.882 292.338 535.13 292.439 535.376C292.5 535.523 292.566 535.668 292.629 535.814C293.615 547.573 296.257 558.662 299.719 569.906C303.27 581.437 307.5 592.754 313.086 603.469C325.506 627.293 345.15 650.031 365.636 667.345C372.312 672.921 379.197 678.242 386.277 683.296L385.421 683.508C375.476 676.626 364.649 668.712 356.239 659.989C353.894 662.74 350.643 665.813 349.36 669.2C350.802 673.494 370.395 686.379 375.362 689.654C378.912 691.994 384.145 694.433 386.63 697.84C365.79 688.293 334.49 659.617 320.4 641.527Z"/>
	<defs>
		<linearGradient id="gradient_3" gradientUnits="userSpaceOnUse" x1="836.74042" y1="670.85236" x2="772.88159" y2="667.02417">
			<stop offset="0" stop-color="#571204"/>
			<stop offset="1" stop-color="#923C08"/>
		</linearGradient>
	</defs>
	<path fill="url(#gradient_3)" d="M821.29 553.693C821.716 545.267 819.128 535.572 820.202 526.852C845.935 596.64 847.541 673.543 815.994 741.875C805.097 765.629 790.863 787.705 773.724 807.434C770.685 810.993 767.025 815.892 763.271 818.583C763.074 818.363 763.026 818.045 762.921 817.768C766.319 813.382 771.246 809.937 773.992 805.119C773.871 804.976 773.787 804.793 773.63 804.691C773.085 804.334 772.438 804.283 771.885 803.854C769.993 802.387 768.87 800.25 766.437 799.51C763.775 798.701 754.296 812.769 750.796 814.476C750.535 814.603 750.264 814.709 749.998 814.825C762.642 800.741 774.146 786.311 784.515 770.461C827.193 705.217 837.052 629.361 821.29 553.693Z"/>
	<path fill="#098285" d="M710.045 611.919C712.626 608.301 714.755 603.259 716.622 599.224C722.409 586.72 727.169 573.493 730.054 560.017C731.453 553.479 732.254 546.855 733.49 540.288C734.165 547.387 732.983 554.58 731.819 561.575C726.267 594.932 710.705 628.677 689.215 654.763C675.672 671.202 658.997 685.645 641.546 697.815C636.719 701.182 630.306 702.969 625.867 706.76C608.475 715.5 590.038 721.981 571.003 726.047C515.73 738.159 461.956 733.683 410.488 709.933C402.456 706.226 394.095 702.62 386.63 697.84C384.145 694.433 378.912 691.994 375.362 689.654C370.395 686.379 350.802 673.494 349.36 669.2C350.643 665.813 353.894 662.74 356.239 659.989C364.649 668.712 375.476 676.626 385.421 683.508L386.277 683.296C394.478 688.339 402.156 694.126 410.503 698.992C436.988 714.429 469.149 726.33 500.058 727.021C531.47 727.723 569.508 723.248 598.69 710.745C611.773 705.14 623.773 697.763 635.658 690.004C647.775 682.093 659.328 674.002 669.809 663.959C678.56 655.573 709.798 623.769 710.045 611.919Z"/>
	<path fill="#B77E59" d="M467.116 920.632L467.482 920.117C470.003 920.006 473.045 920.877 475.631 921.111C484.553 921.916 493.55 922.826 502.499 923.228C509.785 923.556 517.234 923.512 524.527 923.335C527.987 923.251 531.573 922.789 535.013 923.109C535.148 923.121 535.283 923.137 535.418 923.152L535.271 922.152C534.637 921.571 533.811 921.178 532.941 921.193C527.219 921.294 520.838 919.658 515.245 920.374C507.449 921.371 499.575 919.927 491.794 919.169C484.751 918.483 477.774 918.427 470.738 917.389C461.965 916.095 453.616 913.777 445.01 911.747C421.875 906.29 398.858 900.143 376.956 890.729C357.171 882.226 337.608 871.957 320.096 859.364C310.992 852.817 302.524 845.446 294.014 838.159C284.149 829.711 274.31 821.037 265.847 811.145C258.43 802.477 252.195 792.652 245.701 783.279C235.055 767.915 225.237 752.386 218.3 734.954C209.02 711.636 204.143 687.981 200.292 663.305C198.498 651.809 196.652 640.33 196.163 628.687C195.098 603.316 199.074 565.549 208.966 542.47L209.911 542.093C209.987 543.954 209.818 546.269 210.431 548.024L208.104 572.748C201.002 647.837 220.262 720.976 268.596 779.418C319.196 840.601 396.127 878.994 474.828 886.407C512.518 889.957 548.545 887.245 585.588 879.82C597.38 877.457 610.569 874.732 621.569 869.836C668.795 854.444 715.548 824.388 749.302 787.959C775.217 759.99 796.14 723.81 807.115 687.272C810.67 675.435 812.964 663.396 814.97 651.213C816.546 641.646 818.777 630.809 818.419 621.107C819.318 616.461 819.138 611.57 819.924 606.859C825.338 668.01 799.367 737.27 760.254 783.865C752.559 793.031 743.944 801.592 735.149 809.699C732.251 812.354 729.301 814.95 726.299 817.487C720.365 822.096 709.233 828.592 705.064 833.938C701.443 836.794 697.766 839.578 694.037 842.291C693.795 842.406 693.552 842.519 693.312 842.637C689.613 844.455 686.052 847.578 682.624 849.913C677.308 853.477 671.822 856.783 666.187 859.818C617.571 885.453 574.293 896.786 519.19 897.733C508.89 897.91 498.423 898.036 488.138 897.34C479.907 896.784 470.966 895.228 462.774 895.585C453.063 893.438 439.981 891.474 430.065 890.532C438.384 893.727 446.852 896.354 455.312 899.133C467.326 903.079 473.65 905.614 486.642 907.508L486.98 908.172L487.855 908.312C489.95 908.663 491.975 909.504 494.091 909.647C497.494 909.876 500.73 912.335 504.15 912.819C507.543 913.3 511.847 912.572 515.299 912.416C520.498 912.134 525.71 912.165 530.905 912.51C533.416 912.663 536.245 912.686 538.68 913.34C541.815 914.182 544.46 915.838 547.767 916.28C549.812 917.975 552.256 920.503 554.786 921.271C558.836 920.808 563.662 919.361 567.628 920.371C553.556 922.351 539.405 923.712 525.213 924.452C520.2 924.093 515.038 924.41 509.999 924.273C500.394 923.986 490.799 923.422 481.227 922.582C476.7 922.199 471.438 922.07 467.116 920.632Z"/>
	<path fill="#62361C" d="M210.431 548.024C211.787 553.241 211.651 558.61 212.498 563.907L211.405 564.382C210.767 566.234 210.25 567.96 210.154 569.929C209.765 649.631 232.673 731.465 289.924 789.246C313.398 812.938 354.685 845.915 386.386 856.719C449.654 882.953 510.044 889.943 577.966 880.216C587.446 878.859 596.858 876.549 606.075 873.987C610.951 872.632 616.579 870.289 621.569 869.836C610.569 874.732 597.38 877.457 585.588 879.82C548.545 887.245 512.518 889.957 474.828 886.407C396.127 878.994 319.196 840.601 268.596 779.418C220.262 720.976 201.002 647.837 208.104 572.748L210.431 548.024Z"/>
	<path fill="#DFA26E" d="M820.712 567.688C820.948 563.137 820.158 558.068 821.29 553.693C837.052 629.361 827.193 705.217 784.515 770.461C774.146 786.311 762.642 800.741 749.998 814.825C745.66 818.459 741.874 822.849 737.741 826.729C727.606 836.245 716.874 845.971 705.611 854.155C702.41 855.658 697.378 861.352 695.653 860.891C696.61 859.659 697.599 858.475 698.623 857.298L698.285 856.977C683.044 870.97 658.189 888.313 639.315 896.143C634.597 898.101 629.735 899.908 624.893 901.533C620.752 902.922 615.391 903.725 611.744 906.116C613.393 906.113 615.338 905.725 616.922 905.951L617.506 906.894C614.777 910.761 600.374 912.404 599.905 913.368C599.776 913.632 599.906 913.956 599.907 914.25C594.201 916.094 572.898 920.976 567.628 920.371C563.662 919.361 558.836 920.808 554.786 921.271C552.256 920.503 549.812 917.975 547.767 916.28C544.46 915.838 541.815 914.182 538.68 913.34C536.245 912.686 533.416 912.663 530.905 912.51C525.71 912.165 520.498 912.134 515.299 912.416C511.847 912.572 507.543 913.3 504.15 912.819C500.73 912.335 497.494 909.876 494.091 909.647C491.975 909.504 489.95 908.663 487.855 908.312L486.98 908.172L486.642 907.508C473.65 905.614 467.326 903.079 455.312 899.133C446.852 896.354 438.384 893.727 430.065 890.532C439.981 891.474 453.063 893.438 462.774 895.585C470.966 895.228 479.907 896.784 488.138 897.34C498.423 898.036 508.89 897.91 519.19 897.733C574.293 896.786 617.571 885.453 666.187 859.818C671.822 856.783 677.308 853.477 682.624 849.913C686.052 847.578 689.613 844.455 693.312 842.637C693.552 842.519 693.795 842.406 694.037 842.291C694.576 842.273 694.712 842.281 695.303 842.195C701.661 841.274 714.578 832.323 719.09 827.789C720.579 826.294 721.821 824.458 723.056 822.749L725.534 820.767C729.227 817.534 734.371 814.923 735.149 809.699C743.944 801.592 752.559 793.031 760.254 783.865C799.367 737.27 825.338 668.01 819.924 606.859C819.68 596.093 820.655 585.426 820.418 574.676L820.712 567.688Z"/>
	<path fill="#974C00" d="M210.154 569.929C210.25 567.96 210.767 566.234 211.405 564.382L212.498 563.907C215.443 576.454 217.154 588.76 221.156 601.096C242.582 667.14 288.85 718.866 347.322 755.156C352.217 758.195 357.201 761.089 362.266 763.836C365.792 765.726 369.832 767.35 373.017 769.744C377.074 775.82 380.947 782.054 384.126 788.641C390.859 802.593 399.831 827.983 396.486 843.258C395.056 849.787 391.711 853.194 386.386 856.719C354.685 845.915 313.398 812.938 289.924 789.246C232.673 731.465 209.765 649.631 210.154 569.929Z"/>
	<path fill="#D47206" d="M376.037 745.203C377.676 746.305 379.244 747.485 380.839 748.647C391.244 756.227 402.865 763.409 414.92 768.019C450.861 781.764 509.666 782.989 547.355 776.935C560.189 774.874 572.805 771.627 585.04 767.234C599.136 762.085 612.502 755.87 627 751.746C644.379 746.802 664.33 747.001 680.619 739.09C694.577 732.31 703.783 719.542 715.585 709.969C724.819 702.48 735.613 697.88 745.124 690.935C752.177 685.785 756.376 678.609 762.491 672.578C765.779 669.336 769.568 666.889 773.349 664.277C781.066 658.946 785.762 652.594 790.513 644.518C798.01 631.772 801.372 617.854 805.661 603.89C808.62 594.212 812.043 584.683 815.92 575.336C817.217 572.267 818.242 568.141 820.139 565.512C820.539 566.333 820.606 566.798 820.712 567.688L820.418 574.676C820.325 574.964 820.226 575.251 820.138 575.542C818.517 580.926 819.72 588.12 819.008 593.765C818.555 597.352 817.157 601.146 816.077 604.599C793.989 675.19 751.524 723.163 687.995 759.836C628.133 794.391 556.307 807.855 487.757 801.046C470.312 799.313 453.415 794.958 436.177 792.214C434.77 791.546 433.321 790.953 431.891 790.335C424.443 784.091 417.546 776.733 409.683 771.084C403.948 766.964 396.884 764.77 390.978 760.832C385.656 757.283 380.689 751.469 375.793 747.198L376.037 745.203Z"/>
	<path fill="#BD6015" d="M436.177 792.214C453.415 794.958 470.312 799.313 487.757 801.046C556.307 807.855 628.133 794.391 687.995 759.836C751.524 723.163 793.989 675.19 816.077 604.599C817.157 601.146 818.555 597.352 819.008 593.765C819.72 588.12 818.517 580.926 820.138 575.542C820.226 575.251 820.325 574.964 820.418 574.676C820.655 585.426 819.68 596.093 819.924 606.859C819.138 611.57 819.318 616.461 818.419 621.107C818.328 621.209 818.222 621.301 818.146 621.415C817.153 622.906 815.973 634.165 815.507 636.688C813.969 644.999 811.713 653.227 809.163 661.28C802.025 683.591 792.412 705.033 780.503 725.205C772.712 738.659 764.292 752.079 754.327 764.05C742.389 778.391 724.143 794.108 707.724 803.085C699.765 807.437 691.221 810.694 682.526 813.238C633.1 827.699 574.488 823.355 523.609 819.147C509.152 817.951 493.702 817.581 479.603 814.224C469.71 811.869 460.163 807.795 451.256 802.93C446.02 800.07 440.251 796.641 436.177 792.214Z"/>
	<path fill="#F3FAFB" d="M576.348 643.239C576.393 643.083 576.418 642.92 576.482 642.771C577.436 640.58 595.586 630.714 598.803 628.993C597.648 631.771 582.299 639.552 578.824 641.348L579.125 641.61C587.054 640.293 617.493 632.577 623.326 628.001C627.429 624.782 636.798 614.265 639.878 612.711L640.059 613.319C637.078 616.272 633.501 619.377 631.35 622.981L631.646 623.374C635.165 622.035 638.55 619.113 641.64 616.931L640.545 618.228C646.023 614.573 651.068 610.163 655.662 605.449C657.572 603.488 659.816 600.287 662.045 598.787C662.616 598.403 662.816 598.392 663.403 598.24C655.815 608.395 641.406 621.263 630.135 626.935C623.287 630.382 615.085 632.717 607.746 634.958C601.643 636.822 594.724 637.835 588.911 640.319C584.795 641.364 580.559 642.711 576.348 643.239Z"/>
	<path fill="#974C00" d="M436.177 792.214C440.251 796.641 446.02 800.07 451.256 802.93C460.163 807.795 469.71 811.869 479.603 814.224C493.702 817.581 509.152 817.951 523.609 819.147C574.488 823.355 633.1 827.699 682.526 813.238C691.221 810.694 699.765 807.437 707.724 803.085C724.143 794.108 742.389 778.391 754.327 764.05C764.292 752.079 772.712 738.659 780.503 725.205C792.412 705.033 802.025 683.591 809.163 661.28C811.713 653.227 813.969 644.999 815.507 636.688C815.973 634.165 817.153 622.906 818.146 621.415C818.222 621.301 818.328 621.209 818.419 621.107C818.777 630.809 816.546 641.646 814.97 651.213C812.964 663.396 810.67 675.435 807.115 687.272C796.14 723.81 775.217 759.99 749.302 787.959C715.548 824.388 668.795 854.444 621.569 869.836C616.579 870.289 610.951 872.632 606.075 873.987C596.858 876.549 587.446 878.859 577.966 880.216C510.044 889.943 449.654 882.953 386.386 856.719C391.711 853.194 395.056 849.787 396.486 843.258C399.831 827.983 390.859 802.593 384.126 788.641C380.947 782.054 377.074 775.82 373.017 769.744C392.564 776.549 411.014 787.709 431.891 790.335C433.321 790.953 434.77 791.546 436.177 792.214Z"/>
	<path fill="#BD6015" d="M664.314 704.208C669.357 700.147 678.277 695.88 684.137 692.021C696.659 683.775 708.289 673.831 719.158 663.498C728.175 654.925 735.374 644.238 743.049 634.483C744.918 632.108 746.525 628.957 748.875 627.113C747.187 630.498 741.252 636.886 740.886 639.736L741.635 640.638C732.658 662.444 724.393 667.477 706.584 682.12C702.505 685.474 698.349 688.734 694.69 692.555C687.678 699.877 683.507 709.117 676.061 716.234C667.537 721.146 659.802 726.623 650.75 730.715C650.003 730.428 649.733 730.19 649.153 729.665C648.602 726.698 650.537 724.103 651.925 721.617C656.227 717.501 661.256 709.405 664.314 704.208Z"/>
	<path fill="#D47206" d="M770.283 639.49C769.138 638.297 767.98 637.067 767.036 635.705C766.083 634.329 765.741 632.785 766.135 631.127C766.454 629.789 767.162 629.343 768.269 628.689C769.656 628.83 770.272 628.862 771.338 629.894C772.579 631.096 772.441 633.928 772.539 635.569C772.277 637.368 771.478 638.168 770.283 639.49Z"/>
	<path fill="#D6C273" d="M0 633.902C8.2191 650.305 14.2013 668.548 20.8202 685.667L53.5403 769.827L152.621 1024L113.125 1024C100.963 993.728 89.9611 963.009 78.3095 932.545L35.6504 822.097L14.3739 765.708C9.78118 753.327 5.65541 740.401 0 728.462L0 633.902Z"/>
	<defs>
		<linearGradient id="gradient_4" gradientUnits="userSpaceOnUse" x1="446.32321" y1="670.53003" x2="479.38391" y2="679.1781">
			<stop offset="0" stop-color="#79D1D1"/>
			<stop offset="1" stop-color="#D6F6FB"/>
		</linearGradient>
	</defs>
	<path fill="url(#gradient_4)" d="M442.985 679.135C446.675 672.85 450.274 666.172 453.595 659.685C463.252 664.13 472.885 668.076 482.784 671.937C481.05 676.561 479.632 682.406 476.196 686.045C475.281 685.994 475.045 685.87 474.265 685.449C473.075 686.717 473.11 688.825 472.836 690.542C469.753 689.778 466.746 688.937 463.784 687.78C460.595 686.533 448.944 680.079 446.084 680.224C445.039 679.914 444.012 679.503 442.985 679.135Z"/>
	<path fill="#AED9E0" d="M565.838 665.139C566.822 663.868 568.379 663.082 569.717 662.223C570.953 665.838 571.579 669.501 571.858 673.308L572.49 673.826C570.513 675.683 568.237 677.222 566.138 678.945L565.057 678.845L564.761 677.96L565.887 676.209C558.543 678.036 549.536 682.161 541.927 681.255C550.36 679.023 560.366 672.526 566.031 665.99L565.838 665.139Z"/>
	<path fill="#F3FAFB" d="M491.137 673.671C506.116 674.778 552.902 671.108 565.838 665.139L566.031 665.99C560.366 672.526 550.36 679.023 541.927 681.255C528.25 684.361 514.271 685.943 500.246 685.974C493.168 686.279 485.962 685.426 478.922 684.746L491.137 673.671Z"/>
	<path fill="#F3FAFB" d="M484.187 697.409C483.98 695.022 483.954 692.609 483.869 690.214C494.191 693.072 505.006 694.4 515.592 695.904C525.606 697.326 535.635 698.855 545.688 699.973C549.137 700.356 552.628 700.307 556.053 700.761L555.387 701.218C537.213 704.437 500.798 704.971 484.187 697.409Z"/>
	<path fill="#D47206" d="M617.534 725.096C623.358 722.156 629.598 719.867 635.595 717.292C645.291 713.206 654.868 708.843 664.314 704.208C661.256 709.405 656.227 717.501 651.925 721.617C642.452 720.773 627.894 724.681 617.534 725.096Z"/>
	<path fill="#DFA26E" d="M617.534 725.096C627.894 724.681 642.452 720.773 651.925 721.617C650.537 724.103 648.602 726.698 649.153 729.665C649.733 730.19 650.003 730.428 650.75 730.715L650.909 731.298C639.357 738.118 617.008 742.016 603.425 745.258C590.522 748.339 577.839 752.372 564.903 755.274C552.07 758.152 539.387 759.627 526.301 760.719C514.369 761.714 503.379 762.353 491.583 759.281C484.357 757.399 482.514 754.673 478.553 748.612C472.757 748.27 466.613 748.25 460.9 747.288C463.745 746.388 468.199 747.596 471.305 747.485C474.456 747.372 477.591 746.626 480.741 746.609C482.359 746.601 483.822 746.74 485.389 747.128C491.979 755.313 490.109 756.702 501.746 757.955C514.896 759.37 524.87 753.899 537.157 750.579C542.221 749.211 547.585 748.818 552.711 747.643C561.566 745.614 569.179 741.812 577.279 737.879C580.581 736.275 584.727 734.786 587.551 732.463C587.895 732.18 588.226 731.882 588.552 731.577C580.349 732.525 553.836 736.604 547.745 735.71C555.545 733.326 565.2 733.826 573.392 732.827C588.245 731.12 602.985 728.538 617.534 725.096Z"/>
	<path fill="#C4A73E" d="M0 728.462C5.65541 740.401 9.78118 753.327 14.3739 765.708L35.6504 822.097L78.3095 932.545C89.9611 963.009 100.963 993.728 113.125 1024L91.507 1024C84.5798 1004.1 76.504 984.542 69.0634 964.82C55.5007 928.45 41.7541 892.148 27.8241 855.917C21.8565 840.338 16.0142 824.71 10.2978 809.036C7.08185 800.426 4.05645 791.219 0 782.981L0 728.462Z"/>
	<path fill="#D6C273" d="M0 782.981C4.05645 791.219 7.08185 800.426 10.2978 809.036C16.0142 824.71 21.8565 840.338 27.8241 855.917C41.7541 892.148 55.5007 928.45 69.0634 964.82C76.504 984.542 84.5798 1004.1 91.507 1024L44.9312 1024L14.7725 940.805C10.0827 927.899 6.17174 913.646 0 901.387L0 782.981Z"/>
	<path fill="#974C00" d="M705.611 854.155C716.874 845.971 727.606 836.245 737.741 826.729C741.874 822.849 745.66 818.459 749.998 814.825C750.264 814.709 750.535 814.603 750.796 814.476C754.296 812.769 763.775 798.701 766.437 799.51C768.87 800.25 769.993 802.387 771.885 803.854C772.438 804.283 773.085 804.334 773.63 804.691C773.787 804.793 773.871 804.976 773.992 805.119C771.246 809.937 766.319 813.382 762.921 817.768C763.026 818.045 763.074 818.363 763.271 818.583C751.022 832.646 716.46 863.048 700.052 870.8C699.194 870.745 698.846 870.832 698.04 871.127C696.728 871.605 696.15 871.826 694.741 871.631C693.599 870.354 693.622 869.114 693.294 867.453C691.616 867.237 691.014 869.621 689.231 869.787C694.364 864.267 700.458 859.682 705.611 854.155Z"/>
	<path fill="#F0AB83" d="M726.299 817.487C729.301 814.95 732.251 812.354 735.149 809.699C734.371 814.923 729.227 817.534 725.534 820.767L726.299 817.487Z"/>
	<path fill="#DFA26E" d="M705.064 833.938C709.233 828.592 720.365 822.096 726.299 817.487L725.534 820.767L723.056 822.749C715.998 826.68 713.778 830.175 705.064 833.938Z"/>
	<path fill="#F0AB83" d="M705.064 833.938C713.778 830.175 715.998 826.68 723.056 822.749C721.821 824.458 720.579 826.294 719.09 827.789C714.578 832.323 701.661 841.274 695.303 842.195C694.712 842.281 694.576 842.273 694.037 842.291C697.766 839.578 701.443 836.794 705.064 833.938Z"/>
	<defs>
		<linearGradient id="gradient_5" gradientUnits="userSpaceOnUse" x1="663.43372" y1="894.94568" x2="653.09521" y2="880.27246">
			<stop offset="0" stop-color="#B36736"/>
			<stop offset="1" stop-color="#E0A171"/>
		</linearGradient>
	</defs>
	<path fill="url(#gradient_5)" d="M599.907 914.25C599.906 913.956 599.776 913.632 599.905 913.368C600.374 912.404 614.777 910.761 617.506 906.894L616.922 905.951C615.338 905.725 613.393 906.113 611.744 906.116C615.391 903.725 620.752 902.922 624.893 901.533C629.735 899.908 634.597 898.101 639.315 896.143C658.189 888.313 683.044 870.97 698.285 856.977L698.623 857.298C697.599 858.475 696.61 859.659 695.653 860.891C697.378 861.352 702.41 855.658 705.611 854.155C700.458 859.682 694.364 864.267 689.231 869.787C691.014 869.621 691.616 867.237 693.294 867.453C693.622 869.114 693.599 870.354 694.741 871.631C696.15 871.826 696.728 871.605 698.04 871.127C698.846 870.832 699.194 870.745 700.052 870.8C696.173 874.535 689.511 877.479 684.813 880.062C658.119 894.74 629.782 907.569 599.907 914.25Z"/>
	<path fill="#C4A73E" d="M0 901.387C6.17174 913.646 10.0827 927.899 14.7725 940.805L44.9312 1024L15.6269 1024C13.3341 1019.19 11.7686 1013.79 10.0083 1008.76C6.84728 999.715 3.6716 990.686 0 981.835L0 901.387Z"/>
	<path fill="#FAF3DD" d="M819.637 945.84C819.452 940.812 818.869 935.218 820.471 930.367C823.55 921.039 834.305 916.571 842.398 912.487C848.447 912.333 855.039 914.249 859.599 918.25L859.303 918.893C855.432 927.152 849.746 939.385 842.256 944.712C840.332 946.08 837.84 946.821 835.633 947.616C829.962 949.274 824.808 948.614 819.637 945.84Z"/>
	<path fill="#D27F2B" d="M0 981.835C3.6716 990.686 6.84728 999.715 10.0083 1008.76C11.7686 1013.79 13.3341 1019.19 15.6269 1024L0 1024L0 981.835Z"/>
</svg>
