<?xml version="1.0" encoding="utf-8" ?>
<svg xmlns="http://www.w3.org/2000/svg" xmlns:xlink="http://www.w3.org/1999/xlink" width="1024" height="1024">
	<path fill="#D4E09B" d="M0 0L129.44 0C136.233 9.8046 143.882 17.8656 153.321 25.231C159.843 30.3208 166.565 34.7186 172.126 40.9383C175.199 44.3746 176.693 48.5602 179.307 52.2063C183.23 63.6717 184.158 75.5961 186.872 87.333C194.674 121.066 213.795 151.992 245.72 167.658C253.957 171.629 262.634 174.612 271.572 176.545C289.375 180.529 302.973 180.4 311.187 199.676C290.92 186.327 280.66 188.91 257.518 189.839C248.623 190.195 239.404 190.031 230.583 191.192C219.7 182.549 207.604 170.886 193.363 168.764C189.15 168.136 184.62 168.462 180.363 168.527C168.176 157.047 153.485 149.124 139.543 140.077C134.758 136.972 129.717 133.972 125.431 130.192C114.452 120.507 112.09 103.699 102.766 92.4214C92.2596 79.7138 81.2134 76.2936 70.0464 66.345C64.6771 61.5616 61.079 54.9269 56.485 49.4068C49.7441 41.3071 42.401 33.4915 33.0927 28.3338C21.7343 22.04 12.1078 22.5558 0 26.0009L0 0Z"/>
	<path fill="#FAF3DD" d="M129.44 0L173.337 0L298.815 0C299.706 14.8112 306.293 39.1373 312.258 53.0183C323.961 80.2496 342.975 104.105 358.133 129.417C366.729 143.771 372.976 159.611 381.845 173.726C384.531 178.001 387.62 181.918 391.389 185.288C399.869 192.87 414.054 200.704 425.761 199.945C441.58 198.92 472.753 180.735 485.289 170.667C489.997 166.885 494.125 162.481 498.039 157.894C501.356 154.007 506.534 141.052 509.363 139.316C518.597 151.913 529.021 163.09 542.28 171.553C553.956 179.006 565.969 183.395 578.663 188.508C583.659 190.521 588.313 193.389 593.2 195.659C603.903 200.627 615.958 201.879 627.454 199.217C649.248 194.267 667.361 180.036 679.175 161.417C685.81 164.839 691.625 167.402 699.211 167.515C702.264 167.561 705.553 167.329 708.567 167.738C712.17 168.227 715.576 169.76 719.238 169.932C725.709 170.235 732.375 168.078 737.144 163.617C740.825 160.174 742.076 156.701 742.247 151.791C748.163 151.035 754.237 150.15 760.021 148.712C767.51 146.85 774.351 143.592 778.376 136.629C784.182 126.584 782.597 112.091 779.659 101.388C795.722 94.5991 801.984 89.9723 808.999 73.8165C813.852 94.3695 812.967 103.742 813.003 123.941C820.343 116.239 825.982 102.725 829.463 92.8391C835.204 76.5394 839.492 56.7822 827.203 42.3457C822.821 37.1981 817.995 32.7122 815.238 26.3988C811.549 17.9482 811.447 9.03917 811.502 0L890.801 0C881.645 11.123 871.058 24.3505 869.672 39.2234C869.26 43.64 869.777 48.0204 870.078 52.4266C870.599 60.0661 870.522 66.9201 868.327 74.315C862.583 93.6644 851.676 111.155 844.477 129.899C862.912 118.271 881.644 93.1646 890.437 73.412C896.808 59.1013 901.514 44.0578 909.706 30.5995C917.08 18.4854 925.965 9.39367 936.461 0L960.787 0C956.96 10.4643 952.565 20.1917 947.891 30.2833C945.519 35.4021 943.398 41.4558 939.827 45.8618C934.566 52.3521 926.484 56.5034 922.489 64.0883C914.563 79.1365 920.712 100.449 902.718 108.855C897.763 111.17 891.937 111.926 887.282 114.72C887.088 114.836 886.891 114.947 886.699 115.064C886.583 115.135 886.47 115.211 886.356 115.285C885.563 120.402 884.587 124.646 882.252 129.275C877.429 138.833 870.553 148.059 863.817 156.373C854.41 167.982 818.75 202.421 829.943 217.855C831.093 219.442 832.837 220.101 834.763 220.231C836.038 220.316 837.2 219.885 838.277 219.247L838.838 219.997C839.564 220.984 840.072 222.024 840.587 223.13C841.471 223.692 841.632 223.783 842.718 223.528C848.803 222.101 864.879 207.242 870.862 202.7C860.82 224.495 852.06 239.456 851.352 264.347C851.276 267.027 850.635 271.609 851.562 274.011C851.785 274.59 852.075 274.867 852.453 275.308C853.624 275.382 853.359 275.365 854.17 274.708C859.454 256.468 865.207 239.91 875.169 223.591C878.929 220.243 884.512 211.808 886.911 207.27C888.106 205.01 889.611 202.51 888.825 199.925C902.778 185.945 926.837 165.768 944.683 157.186C951.649 153.837 959.756 152.912 967.034 150.183C984.289 143.714 1009.36 129.625 1024 118.311L1024 151.553C1009.4 159.734 967.114 191.894 958.974 205.271C947.553 211.044 934.497 238.954 927.666 250.596C925.703 253.942 922.583 256.293 921.324 260.101C920.922 261.316 920.545 262.556 921.028 263.764C922.554 262.749 923.712 258.539 925.042 256.797C927.478 253.605 944.199 237.149 946.732 236.385C943.317 263.992 929.993 287.694 919.244 312.834C922.077 296.476 923.729 283.198 925.041 266.635C920.195 276.085 914.317 285.539 910.821 295.574C903.471 316.671 903.766 342.095 885.859 357.999L886.59 357.797C900.357 354.05 915.337 353.168 929.434 350.988C955.499 346.959 982.538 337.178 1001.43 318.152C1010.02 309.49 1016.97 299.101 1023.09 288.575C1023.4 288.044 1023.7 287.509 1024 286.972L1024 389.84C1015.68 395.282 1008.29 401.794 999.653 406.831C990.687 412.098 981.601 417.158 972.403 422.009C957.445 429.811 939.554 436.737 927.653 448.936C921.648 455.091 917.601 464.744 915.804 473.049C914.02 481.295 915.184 490.596 919.838 497.74C929.588 512.705 961.635 523.79 978.593 527.038C994.218 530.032 1008.56 529.267 1024 525.686L1024 577.286C1014.36 576.843 1005.91 575.577 997.044 571.494C974.569 561.141 956.166 539.617 929.815 538.943C924.491 538.806 919.042 539.869 914.994 543.531C913.022 545.316 911.125 547.197 909.223 549.057C891.524 542.331 880.355 549.195 864.034 555.057C857.99 545.264 855.127 536.027 857.789 524.521C859.288 518.042 862.464 512.005 866.378 506.669C870.804 500.638 890.422 482.73 887.933 475.222C886.943 474.453 886.426 474.201 885.137 474.348C879.44 474.999 873.652 481.247 869.179 484.486C865.496 487.173 861.659 489.642 857.687 491.881C849.791 496.261 840.593 498.231 833.069 503.04C829.35 505.417 826.503 508.322 823.901 511.863C824.971 507.545 827.59 499.704 825.247 495.512C824.623 494.396 823.626 493.395 822.334 493.123C820.825 492.805 818.845 493.336 817.353 493.605C805.057 502.84 798.02 519.091 795.846 533.995C795.093 539.162 794.716 545.213 798.073 549.598C799.03 550.848 800.324 551.751 801.936 551.887C810.633 552.617 817.985 534.333 827.189 544.036C834.309 551.542 835.623 567.135 838.934 576.745C844.815 593.812 858.431 607 872.425 617.729C878.394 622.305 885.832 629.089 892.894 631.682L893.998 631.569C894.652 630.563 894.805 630.777 894.52 629.484C893.469 624.721 890.595 619.805 888.739 615.245C884.832 605.643 880.97 595.649 877.637 585.835C889.073 596.386 899.369 608.665 911.457 618.37C923.684 628.187 946.558 637.94 955.342 649.229C964.376 660.841 969.826 675.075 976.247 688.201C985.121 706.342 995.713 723.671 1006.6 740.656C1011.91 748.938 1017.14 757.873 1024 764.972L1024 789.897C1007.96 779.375 993.454 767.676 980.065 753.943C974.43 748.165 964.043 733.218 958.317 729.695C957.175 730.27 957.123 730.401 956.8 731.664C954.496 740.694 977.811 788.769 982.338 800.557C986.087 810.322 988.051 820.694 992.441 830.185C998.145 842.518 1005.18 855.527 1013.43 866.317C1016.59 870.443 1019.92 874.457 1024 877.708L1024 922.015C1007.29 903.896 990.117 885.498 976.368 864.977C973.762 861.127 971.307 857.177 969.01 853.135C964.48 844.985 941.442 799.461 936.267 796.887C935.417 797.961 935.641 798.651 935.598 799.973C935.447 811.507 933.3 819.261 927.243 829.016C927.34 835.224 928.085 841.469 927.976 847.663C927.753 860.258 922.85 873.099 914.008 882.179C911.787 884.46 909.263 886.32 906.684 888.17C898.366 891.073 890.897 895.206 882.191 897.236C865.552 901.116 837.471 897.203 828.884 915.284C827.711 917.754 827.553 920.557 827.45 923.255C833.951 930.085 842.38 932.515 851.615 932.781C859.072 932.997 866.264 931.252 873.304 928.943C875.074 928.362 877.507 926.974 879.263 926.686C879.781 926.601 880.71 926.923 881.187 927.107C873.832 934.039 863.587 943.921 863.048 954.643C862.784 959.872 865.243 964.991 868.765 968.753C872.729 972.988 878.011 974.693 883.634 975.198C886.444 964.462 893.738 957.985 903.079 952.566C914.27 946.074 927.714 942.791 940.588 942.362C942.723 955.642 946.972 967.082 958.223 975.262C961.86 977.906 965.875 979.87 969.926 981.786C979.779 980.346 987.55 979.063 996.205 985.475C1007.67 993.968 1012.91 1008.22 1014.8 1021.83L1015.09 1024L821.78 1024C797.526 1000.98 809.291 944.599 780.912 917.245C771.87 908.531 746.693 891.265 735.077 887.656C729.611 885.958 724.492 885.858 718.803 885.977C717.39 887.298 715.975 888.684 714.462 889.888C712.287 891.618 709.54 892.853 706.742 893.022C696.85 893.618 680.163 886.107 668.769 884.84C663.412 884.244 653.09 882.944 648.761 886.799C646.73 888.608 647.083 891.96 646.984 894.462C666.757 907.276 678.63 922.536 691.205 942.076C695.161 948.224 699.297 954.419 702.71 960.887C706.453 967.98 709.131 975.471 713.305 982.366C715.484 985.965 717.696 989.71 720.377 992.958C723.323 996.529 726.755 999.822 729.325 1003.68C733.385 1009.78 735.841 1017.25 738.587 1024L672.094 1024C675.401 1010.82 676.801 998.154 675.217 984.598C672.027 957.297 658.134 935.19 636.725 918.397C640.938 927.099 646.182 935.314 645.756 945.406C645.532 950.723 643.187 956.272 639.086 959.774C635.239 963.058 630.243 962.078 625.612 961.624C597.802 945.686 612.866 881.996 545.377 884.264C541.286 886.46 538.52 889.461 537.149 893.963C532.426 909.482 540.922 926.132 541.475 941.754C541.815 951.343 540.218 960.604 539.052 970.066C536.709 989.069 537.359 1005.41 542.039 1024L517.963 1024C516.359 1014.82 513.81 1005.68 509.878 997.218C507.531 992.164 504.49 987.4 501.828 982.505C496.679 973.04 492.637 962.98 490.359 952.439C486.489 934.537 488.822 917.859 494.603 900.696C496.969 893.671 499.812 886.387 499.773 878.872C499.664 857.648 485.801 838.177 485.395 816.905L559.366 816.967C560.953 820.037 564.371 822.335 567.008 824.532C577.111 832.953 587.483 840.618 599.757 845.633C619.639 853.756 638.725 849.455 658.19 842.646C667.67 839.329 676.393 836.217 686.587 836.455C697.422 836.708 708.382 839.478 718.763 842.407C728.598 845.182 738.124 848.94 747.776 852.276C776.401 862.171 792.954 866.318 822.894 857.708C831.466 855.243 840.111 852.415 848.311 848.895C861.767 843.119 870.657 834.715 876.008 820.967C880.577 809.226 882.323 795.542 882.492 783.036C882.643 771.928 882.493 760.317 878.926 749.682C869.749 722.319 831.433 688.149 809.915 668.951C802.656 662.475 789.959 653.973 784.28 647.009C777.742 638.992 772.77 627.746 768.581 618.298C775.815 624.372 781.401 630.337 790.227 634.288C808.416 642.43 824.91 639.652 842.967 632.772C832.934 629.84 822.705 627.108 813.748 621.521C795.065 609.869 778.028 587.73 773.275 566.056C768.651 544.971 780.657 539.254 790.552 523.616C785.097 518.697 778.987 514.588 775.284 508.061C770.682 499.949 771.967 493.078 774.205 484.575C786.205 485.835 798.053 483.281 809.134 478.711C811.98 477.537 818.502 474.847 819.703 471.967C818.083 469.05 807.803 467.386 804.409 465.55C795.965 460.982 787.998 455.642 781.309 448.705C762.921 429.637 751.857 402.12 749.421 375.983C748.815 369.485 749.173 362.707 749.289 356.18C742.993 359.558 737.793 362.78 733.769 368.822C721.715 386.927 725.997 412.448 729.842 432.388C719.673 415.936 713.728 388.819 713.574 369.799C713.486 358.824 714.562 348.182 717.217 337.508C723.396 312.661 743.38 273.074 761.54 254.675C758.417 252.55 754.025 251.405 750.268 251.13C737.901 250.228 728.872 258.95 720.212 266.398C720.762 262.37 738.843 244.894 742.529 242.076C754.671 232.781 769.286 227.276 784.542 226.251C787.087 226.087 790.043 225.751 792.562 226.148C795.642 226.634 799.649 228.38 802.704 228.142C801.693 226.492 798.544 225.083 796.855 224.064C786.531 217.837 776.373 212.258 764.52 209.472C749.849 206.024 734.102 210.16 719.353 211.468C709.914 212.306 700.493 212.224 691.181 214.207C685.819 215.35 680.383 217.101 675.696 220C665.755 226.149 659.784 238.193 657.235 249.242C652.083 271.571 649.517 306.135 654.419 328.445C662.609 320.219 670.043 311.388 678.069 303.02C674.428 312.988 670.713 321.869 664.846 330.792C656.842 342.963 647.15 353.374 641.419 366.997C639.068 372.585 636.6 378.677 635.815 384.72C635.067 390.488 637.134 400.835 634.728 405.527C626.905 392.759 619.371 379.115 612.737 365.692L613.525 365.613C616.564 361.463 615.432 352.382 616.354 347.224C617.197 342.506 619.046 337.884 620.106 333.184C627.232 301.583 630.408 267.962 612.149 239.219C598.385 217.552 579.515 208.949 557.466 198.427C542.743 191.401 528.679 185.344 512.674 181.777C511.915 180.682 511.839 180.04 510.47 179.762L509.315 180.971L508.824 181.505C495.732 187.749 481.786 190.671 468.361 195.903C437.181 208.054 418.082 238.482 407.344 268.786C403.238 280.639 400.266 292.855 398.467 305.27C395.138 327.317 396 349.787 393.978 371.983C393.54 376.796 390.555 391.371 392.142 394.902C392.252 395.145 392.391 395.375 392.511 395.614C392.567 395.727 392.619 395.843 392.673 395.958C387.52 405.918 382.204 415.792 376.726 425.577C375.863 424.704 375.279 424.062 375.153 422.787C374.88 420.04 375.592 416.3 375.761 413.466L377.542 384.84C378.62 366.803 378.604 348.869 378.3 330.806C377.991 312.476 377.869 293.358 373.46 275.465C368.531 255.458 356.133 234.142 338.035 223.35C331.591 219.508 323.103 216.296 317.91 210.801C315.04 207.764 313.187 203.339 311.187 199.676C302.973 180.4 289.375 180.529 271.572 176.545C262.634 174.612 253.957 171.629 245.72 167.658C213.795 151.992 194.674 121.066 186.872 87.333C184.158 75.5961 183.23 63.6717 179.307 52.2063C176.693 48.5602 175.199 44.3746 172.126 40.9383C166.565 34.7186 159.843 30.3208 153.321 25.231C143.882 17.8656 136.233 9.8046 129.44 0ZM256.797 17.3794C244.392 42.3465 243.5 71.0805 252.303 97.2675C253.656 101.294 261.488 118.158 261.166 121.005C261.704 121.985 262.309 122.69 263.073 123.504C258.771 123.464 255.351 122.91 252.029 126.12C248.985 129.061 247.389 129.519 243.153 129.532C260.902 155.814 279.381 153.362 302.9 167.746C312.378 173.543 318.427 184.255 328.325 189.138C333.858 191.867 340.116 192.844 345.923 194.827L350.291 197.199C342.917 189.184 338.14 180.35 334.526 170.059C332.141 163.271 329.935 150.081 325.288 144.962C322.946 142.382 319.271 141.721 315.963 141.591C308.812 141.309 299.827 142.277 294.313 136.647C291.293 133.564 290.618 130.342 289.688 126.326C284.725 122.246 272.835 115.141 271.146 108.735C271.79 107.629 272.178 107.225 273.446 106.86C280.921 104.708 286.974 104.987 294.406 101.296C290.577 98.398 286.379 96.2256 282.686 93.1137C269.129 81.6926 257.962 64.2667 255.592 46.4864C254.684 39.6802 254.921 33.1568 255.756 26.3615C256.099 23.5618 256.978 20.1254 256.797 17.3794ZM365.396 172.277C362.526 194.389 365.874 206.014 379.574 223.828C383.17 228.505 386.892 232.743 389.263 238.229C391.567 234.695 393.224 230.555 394.98 226.729C398.018 220.351 401.697 216.234 406.819 211.433C400.287 212.996 393.863 214.279 387.771 210.491C379.426 205.301 372.823 192.756 369.508 183.806C368.181 180.223 367.277 175.557 365.396 172.277ZM797.032 354.687C791.798 355.145 788.091 356.634 784.572 360.728C776.753 369.823 776.041 385.104 777.151 396.437C778.563 410.854 786.815 424.075 798.041 433.081C801.079 435.519 804.19 437.083 807.777 438.536C809.949 439.28 812.877 440.649 815.141 439.682C816.73 439.002 817.895 437.059 818.313 435.45C818.901 433.19 817.948 430.867 816.678 429.025C813.582 424.529 808.569 421.306 804.746 417.435C795.677 408.253 794.788 392.819 796.763 380.829C797.178 378.315 797.709 375.759 798.473 373.326C799.618 369.678 804.86 359.609 803.664 356.322C802.46 355.034 801.366 354.718 799.66 354.661C798.792 354.632 797.899 354.623 797.032 354.687ZM940.832 374.693C928.686 376.326 907.082 386.296 897.053 393.279C892.862 396.198 889.427 399.844 885.565 403.137C891.608 403.622 897.599 404.027 903.668 403.986C907.656 404.002 911.791 404.183 915.754 403.742C928.67 402.304 942.826 396.312 952.129 387.101C954.047 385.201 956.739 382.181 956.467 379.242C956.348 377.955 955.552 377.091 954.53 376.397C951.344 374.238 944.599 374.449 940.832 374.693Z"/>
	<path fill="#FAF3DD" d="M298.815 0L307.073 0C313.483 35.8196 331.745 73.5056 351.963 103.47C358.63 113.35 366.605 122.422 372.993 132.45C383.891 149.557 391.155 169.581 408.452 181.59C416.726 187.334 426.327 190.842 436.469 189.026C455.37 185.641 478.684 166.967 489.301 151.415C494.396 143.953 498.149 135.591 502.139 127.504C504.32 131.599 506.826 135.438 509.363 139.316C506.534 141.052 501.356 154.007 498.039 157.894C494.125 162.481 489.997 166.885 485.289 170.667C472.753 180.735 441.58 198.92 425.761 199.945C414.054 200.704 399.869 192.87 391.389 185.288C387.62 181.918 384.531 178.001 381.845 173.726C372.976 159.611 366.729 143.771 358.133 129.417C342.975 104.105 323.961 80.2496 312.258 53.0183C306.293 39.1373 299.706 14.8112 298.815 0Z"/>
	<path fill="#D4E09B" d="M307.073 0L308.426 0C318.008 25.4608 334.036 41.7489 355.47 57.6116C361.383 61.9872 367.279 66.5104 373.588 70.3042L378.563 74.3847C377.043 95.3111 391.389 119.665 404.57 134.937C415.926 148.094 433.67 160.617 451.501 161.944C461.271 162.671 470.575 159.348 477.894 152.882C483.772 147.689 492.489 136.874 494.353 129.166L494.642 128.613C503.49 111.319 502.144 91.6906 505.398 73.1715C505.665 71.6532 505.738 70.228 507.184 69.4942C509.623 69.7919 510.863 70.8395 512.316 72.7698C516.87 78.8221 518.979 87.493 521.765 94.5003C528.88 112.396 543.631 146.009 564.511 149.449C575.663 151.287 588.315 144.439 596.966 138.033C599.695 135.993 602.334 133.836 604.877 131.568C614.225 123.921 621.443 114.133 627.255 103.625C629.19 101.265 630.603 98.4968 632.105 95.8499C632.443 96.0618 632.777 96.279 633.118 96.486C636.706 98.6674 638.777 100.594 640.301 104.624C643.023 111.827 641.6 121.611 638.466 128.494C634.149 137.979 627.141 141.277 617.962 144.63C620.969 144.987 623.989 143.678 626.797 142.732C638.386 138.823 648.199 133.597 657.812 126.043C685.693 104.132 697.143 70.7791 701.189 36.6807C703.294 37.6939 705.35 38.8916 707.206 40.3178C715.741 46.8752 721.986 57.3208 723.359 68.0152C725.075 81.3771 718.96 96.6665 710.899 107.071C722.805 101.143 731.243 91.7312 737.695 80.2484C752.174 54.478 745.67 26.7486 738.298 0L811.502 0C811.447 9.03917 811.549 17.9482 815.238 26.3988C817.995 32.7122 822.821 37.1981 827.203 42.3457C839.492 56.7822 835.204 76.5394 829.463 92.8391C825.982 102.725 820.343 116.239 813.003 123.941C812.967 103.742 813.852 94.3695 808.999 73.8165C801.984 89.9723 795.722 94.5991 779.659 101.388C782.597 112.091 784.182 126.584 778.376 136.629C774.351 143.592 767.51 146.85 760.021 148.712C754.237 150.15 748.163 151.035 742.247 151.791C742.076 156.701 740.825 160.174 737.144 163.617C732.375 168.078 725.709 170.235 719.238 169.932C715.576 169.76 712.17 168.227 708.567 167.738C705.553 167.329 702.264 167.561 699.211 167.515C691.625 167.402 685.81 164.839 679.175 161.417C667.361 180.036 649.248 194.267 627.454 199.217C615.958 201.879 603.903 200.627 593.2 195.659C588.313 193.389 583.659 190.521 578.663 188.508C565.969 183.395 553.956 179.006 542.28 171.553C529.021 163.09 518.597 151.913 509.363 139.316C506.826 135.438 504.32 131.599 502.139 127.504C498.149 135.591 494.396 143.953 489.301 151.415C478.684 166.967 455.37 185.641 436.469 189.026C426.327 190.842 416.726 187.334 408.452 181.59C391.155 169.581 383.891 149.557 372.993 132.45C366.605 122.422 358.63 113.35 351.963 103.47C331.745 73.5056 313.483 35.8196 307.073 0Z"/>
	<path fill="#AED9E0" d="M308.426 0L325.595 0C330.736 22.5584 347.509 41.8316 362.511 58.7453C365.363 61.9599 371.651 67.0837 373.588 70.3042C367.279 66.5104 361.383 61.9872 355.47 57.6116C334.036 41.7489 318.008 25.4608 308.426 0Z"/>
	<path fill="#B8F2E6" d="M325.595 0L363.595 0C366.301 4.98718 368.887 10.1109 371.852 14.9508C378.15 25.2325 385.107 34.9413 390.751 45.6331C394.806 53.315 398.72 61.2175 402.127 69.2123C408.058 83.1266 415.985 107.928 426.107 118.697C432.958 125.985 444.287 128.703 452.997 133.169C456.818 135.128 460.437 137.787 464.287 139.599C463.09 142.479 461.915 145.048 460.143 147.625C465.173 144.311 470.347 141.095 474.389 136.562C480.355 129.87 484.412 120.797 487.04 112.311C497.328 79.0892 485.489 58.6955 478.825 27.6778C476.839 18.4321 476.135 9.40908 475.591 0L486.147 0C487.471 4.05556 487.488 8.73935 488.296 12.9626C489.269 18.0499 491.079 23.2426 491.66 28.3598C492.367 34.5876 490.272 40.8255 492.877 46.8579C494.496 50.6069 495.939 65.1964 495.525 69.2751L496.005 70.2507C496.96 70.1636 496.571 70.3214 497.216 69.9069L498.75 69.6555C503.955 68.0011 509.019 66.362 514.005 64.1041C516.36 66.8549 520.281 68.0976 522.3 71.0557C526.706 77.5113 527.152 90.6407 532.042 97.9753C532.744 99.0288 533.171 99.4188 534.389 99.7085C534.935 99.4005 535.302 99.0994 535.636 98.5581C540.555 90.58 538.779 72.822 541.485 63.0007C544.681 51.4021 552.365 41.6308 553.885 29.4444C555.11 19.6218 553.435 9.50469 551.024 0L599.378 0C596.471 10.9998 592.695 20.759 587.721 30.9681C579.575 47.6894 549.374 93.6266 559.286 111.319C562.113 116.366 567.862 119.123 573.268 120.481C581.421 122.53 593.909 120.882 600.67 126.002C602.353 127.277 603.551 129.368 604.629 131.152L604.877 131.568C602.334 133.836 599.695 135.993 596.966 138.033C588.315 144.439 575.663 151.287 564.511 149.449C543.631 146.009 528.88 112.396 521.765 94.5003C518.979 87.493 516.87 78.8221 512.316 72.7698C510.863 70.8395 509.623 69.7919 507.184 69.4942C505.738 70.228 505.665 71.6532 505.398 73.1715C502.144 91.6906 503.49 111.319 494.642 128.613L494.353 129.166C492.489 136.874 483.772 147.689 477.894 152.882C470.575 159.348 461.271 162.671 451.501 161.944C433.67 160.617 415.926 148.094 404.57 134.937C391.389 119.665 377.043 95.3111 378.563 74.3847L373.588 70.3042C371.651 67.0837 365.363 61.9599 362.511 58.7453C347.509 41.8316 330.736 22.5584 325.595 0Z"/>
	<path fill="#B8F2E6" d="M363.595 0L399.859 0C407.658 11.5548 419.184 20.6145 431.729 26.6104C436.566 28.9221 441.77 30.5683 446.491 33.0788C438.223 32.998 430.315 31.9291 422.326 29.7969L422.684 30.4497C426.786 37.8216 432.54 44.4184 437.223 51.4501C454.179 76.9078 471.269 108.13 464.287 139.599C460.437 137.787 456.818 135.128 452.997 133.169C444.287 128.703 432.958 125.985 426.107 118.697C415.985 107.928 408.058 83.1266 402.127 69.2123C398.72 61.2175 394.806 53.315 390.751 45.6331C385.107 34.9413 378.15 25.2325 371.852 14.9508C368.887 10.1109 366.301 4.98718 363.595 0Z"/>
	<path fill="#FAF3DD" d="M399.859 0L475.591 0C476.135 9.40908 476.839 18.4321 478.825 27.6778C485.489 58.6955 497.328 79.0892 487.04 112.311C484.412 120.797 480.355 129.87 474.389 136.562C470.347 141.095 465.173 144.311 460.143 147.625C461.915 145.048 463.09 142.479 464.287 139.599C471.269 108.13 454.179 76.9078 437.223 51.4501C432.54 44.4184 426.786 37.8216 422.684 30.4497L422.326 29.7969C430.315 31.9291 438.223 32.998 446.491 33.0788C441.77 30.5683 436.566 28.9221 431.729 26.6104C419.184 20.6145 407.658 11.5548 399.859 0Z"/>
	<path fill="#B8F2E6" d="M486.147 0L487.544 0C487.874 15.4352 493.822 30.0792 497.881 44.7469C499.132 49.2673 500.008 56.0386 502.32 60.0366C502.244 60.167 502.17 60.2987 502.092 60.4279C500.429 63.1723 496.182 66.0772 496.4 69.3254L497.216 69.9069C496.571 70.3214 496.96 70.1636 496.005 70.2507L495.525 69.2751C495.939 65.1964 494.496 50.6069 492.877 46.8579C490.272 40.8255 492.367 34.5876 491.66 28.3598C491.079 23.2426 489.269 18.0499 488.296 12.9626C487.488 8.73935 487.471 4.05556 486.147 0Z"/>
	<path fill="#B8F2E6" d="M487.544 0L515.836 0C516.121 22.5915 515.105 40.6525 502.32 60.0366C500.008 56.0386 499.132 49.2673 497.881 44.7469C493.822 30.0792 487.874 15.4352 487.544 0Z"/>
	<path fill="#FAF3DD" d="M515.836 0L547.799 0C547.865 20.584 544.922 37.8005 529.718 52.993C525.264 57.444 519.834 61.636 514.005 64.1041C509.019 66.362 503.955 68.0011 498.75 69.6555L497.216 69.9069L496.4 69.3254C496.182 66.0772 500.429 63.1723 502.092 60.4279C502.17 60.2987 502.244 60.167 502.32 60.0366C515.105 40.6525 516.121 22.5915 515.836 0Z"/>
	<path fill="#AED9E0" d="M547.799 0L551.024 0C553.435 9.50469 555.11 19.6218 553.885 29.4444C552.365 41.6308 544.681 51.4021 541.485 63.0007C538.779 72.822 540.555 90.58 535.636 98.5581C535.302 99.0994 534.935 99.4005 534.389 99.7085C533.171 99.4188 532.744 99.0288 532.042 97.9753C527.152 90.6407 526.706 77.5113 522.3 71.0557C520.281 68.0976 516.36 66.8549 514.005 64.1041C519.834 61.636 525.264 57.444 529.718 52.993C544.922 37.8005 547.865 20.584 547.799 0Z"/>
	<path fill="#B8F2E6" d="M599.378 0L608.636 0C611.014 9.01123 613.626 18.0422 615.566 27.1572C619.625 46.2281 621.332 66.3857 621.267 85.8645C621.242 93.5095 619.966 101.08 619.859 108.736C621.295 106.963 622.548 105.102 624.594 104.008C624.848 103.996 625.102 103.988 625.356 103.972C626.082 103.925 626.579 103.846 627.255 103.625C621.443 114.133 614.225 123.921 604.877 131.568L604.629 131.152C603.551 129.368 602.353 127.277 600.67 126.002C593.909 120.882 581.421 122.53 573.268 120.481C567.862 119.123 562.113 116.366 559.286 111.319C549.374 93.6266 579.575 47.6894 587.721 30.9681C592.695 20.759 596.471 10.9998 599.378 0Z"/>
	<path fill="#AED9E0" d="M608.636 0L639.391 0C646.576 27.4465 649.638 47.9021 640.427 75.5365C638.808 80.2537 636.987 84.8992 634.97 89.4602C634.147 91.3517 632.527 93.9095 632.105 95.8499C630.603 98.4968 629.19 101.265 627.255 103.625C626.579 103.846 626.082 103.925 625.356 103.972C625.102 103.988 624.848 103.996 624.594 104.008C622.548 105.102 621.295 106.963 619.859 108.736C619.966 101.08 621.242 93.5095 621.267 85.8645C621.332 66.3857 619.625 46.2281 615.566 27.1572C613.626 18.0422 611.014 9.01123 608.636 0Z"/>
	<path fill="#FAF3DD" d="M639.391 0L738.298 0C745.67 26.7486 752.174 54.478 737.695 80.2484C731.243 91.7312 722.805 101.143 710.899 107.071C718.96 96.6665 725.075 81.3771 723.359 68.0152C721.986 57.3208 715.741 46.8752 707.206 40.3178C705.35 38.8916 703.294 37.6939 701.189 36.6807C697.143 70.7791 685.693 104.132 657.812 126.043C648.199 133.597 638.386 138.823 626.797 142.732C623.989 143.678 620.969 144.987 617.962 144.63C627.141 141.277 634.149 137.979 638.466 128.494C641.6 121.611 643.023 111.827 640.301 104.624C638.777 100.594 636.706 98.6674 633.118 96.486C632.777 96.279 632.443 96.0618 632.105 95.8499C632.527 93.9095 634.147 91.3517 634.97 89.4602C636.987 84.8992 638.808 80.2537 640.427 75.5365C649.638 47.9021 646.576 27.4465 639.391 0Z"/>
	<path fill="#D4E09B" d="M890.801 0L936.461 0C925.965 9.39367 917.08 18.4854 909.706 30.5995C901.514 44.0578 896.808 59.1013 890.437 73.412C881.644 93.1646 862.912 118.271 844.477 129.899C851.676 111.155 862.583 93.6644 868.327 74.315C870.522 66.9201 870.599 60.0661 870.078 52.4266C869.777 48.0204 869.26 43.64 869.672 39.2234C871.058 24.3505 881.645 11.123 890.801 0Z"/>
	<path fill="#D4E09B" d="M960.787 0L1024 0L1024 23.5117C1008.15 34.3308 991.34 44.6124 977.323 57.8397C968.483 66.1811 961.891 76.5347 954.199 85.8738C943.372 99.0183 931.818 111.677 920.644 124.54C913.259 133.04 905.394 141.063 897.978 149.508C890.762 157.723 883.958 166.329 876.612 174.426C871.099 180.501 864.979 186.011 859.409 192.034C851.5 200.587 844.848 209.664 838.277 219.247C837.2 219.885 836.038 220.316 834.763 220.231C832.837 220.101 831.093 219.442 829.943 217.855C818.75 202.421 854.41 167.982 863.817 156.373C870.553 148.059 877.429 138.833 882.252 129.275C884.587 124.646 885.563 120.402 886.356 115.285C886.47 115.211 886.583 115.135 886.699 115.064C886.891 114.947 887.088 114.836 887.282 114.72C891.937 111.926 897.763 111.17 902.718 108.855C920.712 100.449 914.563 79.1365 922.489 64.0883C926.484 56.5034 934.566 52.3521 939.827 45.8618C943.398 41.4558 945.519 35.4021 947.891 30.2833C952.565 20.1917 956.96 10.4643 960.787 0Z"/>
	<path fill="#D4E09B" d="M263.073 123.504C262.309 122.69 261.704 121.985 261.166 121.005C261.488 118.158 253.656 101.294 252.303 97.2675C243.5 71.0805 244.392 42.3465 256.797 17.3794C256.978 20.1254 256.099 23.5618 255.756 26.3615C254.921 33.1568 254.684 39.6802 255.592 46.4864C257.962 64.2667 269.129 81.6926 282.686 93.1137C286.379 96.2256 290.577 98.398 294.406 101.296C286.974 104.987 280.921 104.708 273.446 106.86C272.178 107.225 271.79 107.629 271.146 108.735C272.835 115.141 284.725 122.246 289.688 126.326C290.618 130.342 291.293 133.564 294.313 136.647C299.827 142.277 308.812 141.309 315.963 141.591C319.271 141.721 322.946 142.382 325.288 144.962C329.935 150.081 332.141 163.271 334.526 170.059C338.14 180.35 342.917 189.184 350.291 197.199L345.923 194.827C340.116 192.844 333.858 191.867 328.325 189.138C318.427 184.255 312.378 173.543 302.9 167.746C279.381 153.362 260.902 155.814 243.153 129.532C247.389 129.519 248.985 129.061 252.029 126.12C255.351 122.91 258.771 123.464 263.073 123.504Z"/>
	<path fill="#FAF3DD" d="M0 26.0009C12.1078 22.5558 21.7343 22.04 33.0927 28.3338C42.401 33.4915 49.7441 41.3071 56.485 49.4068C61.079 54.9269 64.6771 61.5616 70.0464 66.345C81.2134 76.2936 92.2596 79.7138 102.766 92.4214C112.09 103.699 114.452 120.507 125.431 130.192C129.717 133.972 134.758 136.972 139.543 140.077C153.485 149.124 168.176 157.047 180.363 168.527C184.62 168.462 189.15 168.136 193.363 168.764C207.604 170.886 219.7 182.549 230.583 191.192C221.727 192.361 212.914 192.251 204.006 192.291C217.595 208.379 235.747 218.523 253.072 229.963C259.584 234.263 266.226 238.368 271.756 243.938C278.877 251.111 283.935 259.564 287.498 268.988C292.265 281.599 293.641 294.309 294.877 307.597C295.586 315.219 295.796 323.019 298.52 330.246C305.13 323.795 307.254 313.302 308.575 304.447C311.448 324.967 309.525 353.289 305.938 373.777C303.518 387.597 300.02 401.24 297.451 415.043C292.952 411.021 289.615 406.866 286.591 401.63C281.62 393.021 277.258 375.293 264.855 375.934C258.92 376.241 253.542 379.934 248.731 383.089C253.546 390.563 258.825 398.312 261.131 407.004C267.529 431.112 260.131 458.049 256.087 482.007C251.991 506.278 250.173 529.72 253.434 554.207C254.075 559.017 254.554 563.998 255.844 568.687C242.852 584.883 228.396 600.235 207.967 606.641C208.03 606.836 208.09 607.031 208.155 607.225C209.921 612.49 213.826 615.268 218.644 617.626C223.999 620.247 231.029 623.103 233.124 629.23C234.095 632.071 233.523 635.147 232.141 637.751C226.573 648.241 207.692 653.752 197.795 660.389C169.678 679.247 149.18 711.874 144.846 745.506C142.584 763.052 144.552 781.763 149.329 798.792C150.318 802.32 154.073 814.405 157.135 816.141C159.528 828.938 181.082 849.382 191.718 856.703C207.979 867.896 225.573 873.732 245.282 870.022C286.306 862.3 294.418 837.394 338.363 867.154C344.097 871.037 349.817 875.093 355.201 879.453C362.288 885.192 368.929 891.599 377.131 895.76C382.645 898.556 388.629 900.196 394.545 901.903C389.694 882.157 380.419 874.108 368.31 858.946C398.162 874.877 429.011 893.704 445.721 924.287C449.709 931.586 453.518 939.26 456.675 946.953C458.829 952.199 460.515 957.635 462.769 962.838C463.499 968.438 464.926 973.931 465.851 979.502C468.429 995.026 467.033 1009.15 462.167 1024L402.427 1024C400.455 1019.19 399.093 1014.11 397.157 1009.27C391.796 995.87 382.725 986.845 372.189 977.445C370.204 954.142 350.264 922.638 333.754 906.535C319.712 892.663 300.663 885.051 280.928 885.426C279.126 885.449 278.216 885.019 276.657 884.146C271.615 884.585 266.436 886.149 261.3 886.722C247.567 888.252 232.725 889.237 218.994 887.657C211.083 886.748 202.903 884.794 195.127 883.04C173.103 878.071 153.547 862.342 138.977 845.671C136.434 842.761 133.609 839.796 131.468 836.576C129.384 833.38 127.647 829.971 126.286 826.407C125.298 823.815 124.592 820.621 123.037 818.324C122.847 818.043 122.645 817.77 122.45 817.492C119.492 804.311 115.622 799.667 104.699 792.234C106.716 801.918 108.851 812.155 107.799 822.088C107.183 827.909 104.985 833.456 105.745 839.396C106.53 845.527 109.252 851.803 112.408 857.066C116.485 863.865 121.916 869.763 127.104 875.719C138.476 888.774 149.53 901.498 164.189 911.095C166.372 912.524 168.595 913.857 170.979 914.926C179.816 922.692 190.159 929.288 197.019 938.999C205.558 951.087 209.377 964.61 215.631 977.722C221.115 989.219 230.086 999.229 239.65 1007.5C244.684 1011.85 250.433 1017.12 256.462 1019.95L262.47 1024L188.37 1024C167.543 1010.78 144.745 997.803 134.423 974.129C131.315 967.002 129.754 959.204 126.304 952.244C123.343 946.271 118.845 941.238 115.062 935.783C113.493 943.509 110.128 956.295 105.604 962.515C103.302 965.679 98.89 967.6 95.9818 970.321C77.5068 987.608 61.0865 1003.8 35.1417 1008.32C34.3672 1008.17 33.9624 1008.08 33.2624 1007.69C33.9178 1007.1 35.6784 1006.84 36.5487 1006.48C62.2729 995.847 78.6243 958.965 87.9139 934.535C100.009 902.726 97.0054 878.949 86.5296 847.407C84.9613 842.685 82.2274 838.346 80.8341 833.593C79.3752 828.616 78.5106 823.382 77.2891 818.334C75.1532 809.505 72.2786 800.601 68.5456 792.321C68.6516 805.698 65.4071 843.932 58.8589 854.53C45.7593 877.748 23.5195 906.683 0 919.903L0 849.553C1.1172 849.511 2.23294 849.437 3.34578 849.33C15.4804 848.098 30.6089 838.276 38.0811 828.849C41.1314 825.001 43.232 820.736 44.892 816.127C50.2675 801.203 55.3068 769.929 56.3289 753.767C56.8788 745.073 56.7627 736.643 55.8154 727.979C58.9242 726.759 62.3762 725.434 65.1169 723.509C76.1756 715.742 77.127 700.071 79.1164 687.845C80.1103 685.716 81.2646 683.651 82.361 681.572C90.3893 686.535 99.2393 691.01 108.987 689.427C129.481 686.097 159.059 660.38 171.042 643.633C171.481 643.109 171.886 642.613 172.266 642.044C183.467 625.262 181.4 607.43 177.608 588.684C188.556 585.092 199.884 579.848 208.975 572.688C219.243 564.601 224.978 556.311 226.535 543.236C223.817 538.883 221.182 536.221 216.434 534.047C207.021 530.664 195.958 532.185 187.054 536.414C172.144 543.494 162.872 554.706 146.755 560.801C139.883 580.151 126.806 600.206 107.674 609.308C100.624 612.662 93.0257 614.62 85.1986 614.54C94.5314 603.27 104.595 590.778 103.221 575.078C102.988 572.418 102.052 570.309 100.888 567.934C84.8748 592.183 47.4647 615.284 19.4924 620.935C13.1968 622.206 6.41803 623.286 0 623.626L0 561.811C41.6093 562.418 66.4129 548.409 96.202 521.239C106.693 511.67 116.981 501.636 129.124 494.15C139.345 496.825 149.795 499.051 160.308 500.186C166.768 500.882 181.121 502.961 186.303 498.443C187.26 497.61 187.931 496.565 187.869 495.244C187.103 478.831 92.5043 450.279 74.7966 443.947C66.7084 441.061 58.7852 437.733 51.0627 433.977C31.5164 424.295 14.6902 411.953 0 395.767L0 329.62C15.0331 335.692 30.361 340.285 45.8358 345.073C58.2005 348.898 70.4822 352.951 82.917 356.552C81.7345 354.528 80.5766 352.491 79.2801 350.537C63.3323 324.803 41.9216 318.376 14.2193 311.711C9.09483 310.47 5.4181 309.456 0 309.849L0 256.665C10.4863 257.01 35.1483 265.756 44.0644 271.087C53.5633 276.767 67.822 291.345 78.1494 291.816C79.3158 291.87 79.4002 292.098 80.2693 291.292C80.7143 288.485 79.6979 285.219 79.13 282.454C87.4481 290.079 95.2197 297.599 104.411 304.229C105.044 301.364 105.407 298.436 107.01 295.932C107.852 295.43 108.006 295.205 109.037 295.192C117.566 295.084 137.932 307.211 144.598 312.033C149.599 315.65 154.316 319.841 158.704 324.179C165.199 330.599 171.075 337.721 175.067 345.986C182.764 361.923 184.33 386.487 184.422 404.061C195.545 400.676 200.503 397.116 209.377 390.034C211.564 388.289 214.087 386.928 216.968 387.346C222.063 388.085 225.488 393.03 228.366 396.812C229.938 395.438 231.559 394.003 232.8 392.312C238.527 384.509 237.156 370.507 235.772 361.482C233.298 345.342 228.279 329.492 225.184 313.424C220.859 290.969 218.635 259.199 206.468 239.454C202.82 233.533 197.647 228.461 193.189 223.128C186.537 215.169 178.6 206.442 169.68 201.01C162.212 196.463 152.542 194.249 144.255 191.458C136.12 188.718 128.497 185.338 121.05 181.057C115.08 177.626 109.481 173.549 104.138 169.214C94.2461 161.188 83.5082 149.338 70.5366 146.863C63.5851 145.537 56.7587 146.143 49.8113 147.086C29.2062 149.883 17.3732 150.437 0 137.728L0 26.0009ZM133.416 317.733C137.389 325.955 142.312 337.087 149.218 343.145L150.064 343.21C150.794 337.299 147.616 332.51 144.105 328.04C141.491 324.712 137.355 319.408 133.416 317.733Z"/>
	<path fill="#B8F2E6" d="M838.277 219.247C844.848 209.664 851.5 200.587 859.409 192.034C864.979 186.011 871.099 180.501 876.612 174.426C883.958 166.329 890.762 157.723 897.978 149.508C905.394 141.063 913.259 133.04 920.644 124.54C931.818 111.677 943.372 99.0183 954.199 85.8738C961.891 76.5347 968.483 66.1811 977.323 57.8397C991.34 44.6124 1008.15 34.3308 1024 23.5117L1024 74.8491C1019.4 76.4382 1014.92 78.8759 1010.5 80.9255C995.511 87.8804 981.037 95.6466 967.998 105.96C966.125 107.442 964.561 109.352 962.775 110.946C961.961 111.674 961.374 112.417 960.706 113.276L961.486 113.413C964.517 110.441 967.536 106.947 971.467 105.203L972.128 105.305C969.71 110.254 962.719 112.548 959.608 117.046L960.133 117.72C963.541 117.374 981.785 102.529 986.209 99.6468C998.241 91.8085 1011.26 85.9235 1024 79.3794L1024 118.311C1009.36 129.625 984.289 143.714 967.034 150.183C959.756 152.912 951.649 153.837 944.683 157.186C926.837 165.768 902.778 185.945 888.825 199.925C882.384 206.905 876.578 215.09 872.267 223.581C865.277 232.092 853.992 263.355 854.17 274.708C853.359 275.365 853.624 275.382 852.453 275.308C852.075 274.867 851.785 274.59 851.562 274.011C850.635 271.609 851.276 267.027 851.352 264.347C852.06 239.456 860.82 224.495 870.862 202.7C864.879 207.242 848.803 222.101 842.718 223.528C841.632 223.783 841.471 223.692 840.587 223.13C840.072 222.024 839.564 220.984 838.838 219.997L838.277 219.247Z"/>
	<path fill="#B8F2E6" d="M1024 79.3794C1011.26 85.9235 998.241 91.8085 986.209 99.6468C981.785 102.529 963.541 117.374 960.133 117.72L959.608 117.046C962.719 112.548 969.71 110.254 972.128 105.305L971.467 105.203C967.536 106.947 964.517 110.441 961.486 113.413L960.706 113.276C961.374 112.417 961.961 111.674 962.775 110.946C964.561 109.352 966.125 107.442 967.998 105.96C981.037 95.6466 995.511 87.8804 1010.5 80.9255C1014.92 78.8759 1019.4 76.4382 1024 74.8491L1024 79.3794Z"/>
	<path fill="#D4E09B" d="M0 137.728C17.3732 150.437 29.2062 149.883 49.8113 147.086C56.7587 146.143 63.5851 145.537 70.5366 146.863C83.5082 149.338 94.2461 161.188 104.138 169.214C109.481 173.549 115.08 177.626 121.05 181.057C128.497 185.338 136.12 188.718 144.255 191.458C152.542 194.249 162.212 196.463 169.68 201.01C178.6 206.442 186.537 215.169 193.189 223.128C197.647 228.461 202.82 233.533 206.468 239.454C218.635 259.199 220.859 290.969 225.184 313.424C228.279 329.492 233.298 345.342 235.772 361.482C237.156 370.507 238.527 384.509 232.8 392.312C231.559 394.003 229.938 395.438 228.366 396.812C225.488 393.03 222.063 388.085 216.968 387.346C214.087 386.928 211.564 388.289 209.377 390.034C200.503 397.116 195.545 400.676 184.422 404.061C184.33 386.487 182.764 361.923 175.067 345.986C171.075 337.721 165.199 330.599 158.704 324.179C154.316 319.841 149.599 315.65 144.598 312.033C137.932 307.211 117.566 295.084 109.037 295.192C108.006 295.205 107.852 295.43 107.01 295.932C105.407 298.436 105.044 301.364 104.411 304.229C95.2197 297.599 87.4481 290.079 79.13 282.454C76.8765 279.087 73.4762 275.972 70.7443 272.947C71.3708 272.69 71.9439 272.462 72.6014 272.292C99.3921 265.357 128.032 274.925 150.795 288.908C162.216 295.923 174.596 306.915 177.761 320.553C178.067 321.871 178.378 322.994 178.91 324.238L179.716 324.481C180.24 323.703 180.307 323.579 180.412 322.689C181.831 310.597 175.208 296.918 167.939 287.598C150.047 264.657 107.875 237.29 79.1638 232.674C64.7661 230.359 49.5053 232.491 34.9444 231.991C31.3553 231.868 27.8013 231.116 24.2494 230.625C16.18 229.508 8.08534 228.375 0 227.379L0 137.728Z"/>
	<path fill="#D4E09B" d="M958.974 205.271C967.114 191.894 1009.4 159.734 1024 151.553L1024 204.085C1017.69 209.363 1010.59 214.377 1005.22 220.62C994.52 233.072 976.45 266.803 970.746 282.652C969.168 287.035 967.946 292.041 967.503 296.673C967.179 300.065 967.289 303.878 969.524 306.656C970.629 308.029 972.07 309.082 973.857 309.276C976.93 309.609 979.904 307.543 982.052 305.581C992.508 296.03 1007.15 265.69 1015.54 252.451C1018.08 248.429 1020.69 244.002 1024 240.582L1024 286.972C1023.7 287.509 1023.4 288.044 1023.09 288.575C1016.97 299.101 1010.02 309.49 1001.43 318.152C982.538 337.178 955.499 346.959 929.434 350.988C915.337 353.168 900.357 354.05 886.59 357.797L885.859 357.999C903.766 342.095 903.471 316.671 910.821 295.574C914.317 285.539 920.195 276.085 925.041 266.635C923.729 283.198 922.077 296.476 919.244 312.834C929.993 287.694 943.317 263.992 946.732 236.385C949.235 225.788 954.196 215.035 958.974 205.271Z"/>
	<path fill="#D4E09B" d="M389.263 238.229C386.892 232.743 383.17 228.505 379.574 223.828C365.874 206.014 362.526 194.389 365.396 172.277C367.277 175.557 368.181 180.223 369.508 183.806C372.823 192.756 379.426 205.301 387.771 210.491C393.863 214.279 400.287 212.996 406.819 211.433C401.697 216.234 398.018 220.351 394.98 226.729C393.224 230.555 391.567 234.695 389.263 238.229Z"/>
	<path fill="#974C00" d="M509.315 180.971L510.47 179.762C511.839 180.04 511.915 180.682 512.674 181.777C515.435 187.103 518.209 192.898 521.739 197.753C532.613 219.046 544.897 239.835 556.484 260.765C571.602 288.303 586.486 315.968 601.134 343.759C604.543 350.86 607.862 359.54 612.737 365.692C619.371 379.115 626.905 392.759 634.728 405.527C639.262 415.368 644.64 425.386 650.198 434.696C655.206 444.795 661.055 454.581 666.544 464.428C676.46 482.104 686.257 499.846 695.935 517.653C715.083 553.326 734.424 588.896 753.957 624.361L863.681 816.529C863.047 817.282 863.446 816.986 862.444 817.364C853.696 816.118 843.658 816.998 834.771 816.986L777.134 816.924L572.48 816.964L559.366 816.967L485.395 816.905L379.227 816.712L216.307 816.754L178.27 816.77C171.926 816.767 163.807 817.69 157.716 816.143L158.523 814.996C159.527 815.085 160.475 815.115 161.452 814.804C164.13 813.953 166.952 812.254 169.507 811.039C175.486 808.194 181.557 805.262 187.857 803.196C194.466 801.029 201.364 799.763 208.266 799.007C217.948 797.947 227.615 798.276 237.328 798.011C254.314 797.547 271.179 796.929 288.184 797.072C308.708 797.244 329.369 798.21 349.876 796.989C345.549 793.974 341.417 791.618 336.225 790.428C327.626 788.456 317.349 789.547 308.504 789.423C293.299 789.21 277.854 788.944 262.69 787.869C257.797 787.523 247.191 787.083 243.893 782.949C243.174 782.047 243.231 781.831 243.324 780.748C249.192 774.117 294.302 778.083 304.675 778.363C321.407 778.815 338.248 777.859 354.953 778.875C373.305 779.992 391.002 783.206 409.508 782.645C420.683 782.307 431.324 779.425 442.307 777.716C453.081 776.039 464.01 775.679 474.897 775.524C484.037 775.394 493.105 776.191 502.225 776.647C517.932 777.433 540.183 778.144 555.627 776.802C571.127 775.454 580.119 764.057 593.483 763.104C604.932 762.287 617.208 766.417 628.726 766.97C637.244 767.379 646.083 766.162 654.657 766.101C675.159 765.953 695.572 767.166 716.052 767.812C728.006 768.19 740.142 767.556 752.028 769.023C755.312 769.428 761.483 770.167 763.779 772.669C764.788 773.768 764.734 774.026 764.605 775.408C762.517 778.342 758.973 780.165 755.494 780.896C745.273 783.047 733.631 782.101 723.238 781.684C706.166 780.999 688.793 779.688 671.743 781.433C658.784 782.759 646.493 787.731 634.253 791.929C640.258 792.14 646.336 792.292 652.331 791.823C664.087 790.905 675.516 788.723 687.377 788.442C697.137 788.211 706.56 789.844 716.243 790.673C727.414 791.63 738.709 791.975 749.913 792.442C762.231 792.966 774.558 793.252 786.888 793.3C793.27 793.342 800.424 792.731 806.722 793.58C816.775 794.935 849.77 816.167 855.257 815.774C852.761 811.606 828.771 796.179 823.303 793.029C816.433 775.794 804.189 755.442 795.207 738.737C781.124 712.547 767.166 686.512 751.945 660.952C736.225 634.555 718.951 606.21 695.901 585.476C701.32 599.359 709.837 612.59 716.534 625.952C730.68 654.178 742.78 683.812 760.409 710.097C766.153 718.661 773.19 726.596 779.643 734.651C770.955 730.528 763.035 724.95 756.225 718.159C740.632 702.55 732.758 681.057 721.906 662.217C708.932 639.694 694.22 617.974 683.813 594.082C676.279 576.786 672.515 558.166 663.642 541.423C656.73 528.381 647.645 516.716 640.795 503.604C631.471 485.756 625.001 466.478 613.954 449.532C604.274 434.681 593.11 420.843 583.129 406.207C571.991 389.873 561.991 372.726 551.497 355.977C545.11 345.782 537.532 335.92 532.396 325.035C524.875 309.096 524.516 290.26 524.468 272.94C532.845 281.069 539.002 294.174 542.636 305.214C545.58 314.16 547.731 322.89 552.482 331.156C559.182 342.813 568.102 353.289 575.315 364.667C582.994 376.782 589.649 389.445 597.154 401.659C601.752 409.141 606.943 416.286 611.987 423.472C603.974 389.527 584.307 359.885 567.541 329.763C557.742 312.16 548.587 294.179 538.602 276.682C528.798 259.504 514.775 240.835 511.319 221.218C511.683 216.766 511.2 211.951 511.163 207.467C511.101 199.865 511.685 191.589 510.715 184.087C510.545 182.775 510.116 182.002 509.315 180.971Z"/>
	<path fill="#974C00" d="M508.824 181.505L509.315 180.971C510.116 182.002 510.545 182.775 510.715 184.087C511.685 191.589 511.101 199.865 511.163 207.467C511.2 211.951 511.683 216.766 511.319 221.218C510.686 229.037 510.824 236.968 510.755 244.809L510.521 285.118C510.479 292.656 510.954 300.701 510.051 308.169C509.552 312.292 507.094 316.614 505.499 320.45C498.922 336.26 491.216 351.513 484.365 367.19C479.605 378.086 476.128 390.109 470.149 400.402C465.954 407.623 458.528 414.665 452.246 420.197C453.652 406.206 458.188 393.418 464.292 380.829C467.622 373.962 472.42 369.116 476.963 363.148C486.327 350.846 489.512 332.26 489.699 317.205C489.749 313.226 489.467 304.457 486.768 301.597C486.645 301.467 486.492 301.372 486.353 301.259L485.596 301.406C477.57 316.439 478.432 334.255 470.506 350.391C467.157 357.209 463.423 362.691 457.156 367.129C454.44 369.052 451.52 370.857 449.133 373.195C444.002 378.224 440.858 384.217 437.598 390.528C428.529 408.082 422.426 426.596 414.154 444.464C406.063 461.939 395.858 478.432 387.883 495.982C382.686 507.419 378.375 519.276 373.372 530.806C367.925 543.357 338.804 608.613 329.038 611.923C327.881 611.75 327.411 611.671 326.73 610.571C325.631 608.796 326.777 605.944 327.496 604.245C331.217 595.452 337.261 587.405 341.45 578.721C352.022 556.806 354.763 537.33 358.374 513.677C350.035 528.213 346.688 544.138 339.822 559.263C332.298 575.839 322.452 590.895 313.957 606.882C307.731 618.599 284.047 673.98 274.198 677.037C273.503 676.883 273.015 677 272.642 676.314C270.858 673.039 272.513 664.561 272.846 660.916C261.384 672.973 254.965 690.149 247.376 704.798C239.474 720.049 230.955 734.981 222.995 750.203C217.291 761.112 212.28 772.626 205.828 783.107C220.429 776.85 234.665 769.773 248.467 761.909C256.864 757.184 264.971 751.951 273.442 747.356C277.79 744.997 291.964 735.455 295.547 734.951C296.449 734.877 297.547 734.92 298.382 734.58C314.896 734.043 331.472 734.267 347.996 734.252L420.033 734.146L627.37 733.917L693.534 733.901C701.449 733.919 718.369 735.04 725.359 733.418C744.911 743.819 765.684 755.75 784.319 767.796L809.197 784.135C813.733 787.135 818.32 790.852 823.303 793.029C828.771 796.179 852.761 811.606 855.257 815.774C849.77 816.167 816.775 794.935 806.722 793.58C800.424 792.731 793.27 793.342 786.888 793.3C774.558 793.252 762.231 792.966 749.913 792.442C738.709 791.975 727.414 791.63 716.243 790.673C706.56 789.844 697.137 788.211 687.377 788.442C675.516 788.723 664.087 790.905 652.331 791.823C646.336 792.292 640.258 792.14 634.253 791.929C646.493 787.731 658.784 782.759 671.743 781.433C688.793 779.688 706.166 780.999 723.238 781.684C733.631 782.101 745.273 783.047 755.494 780.896C758.973 780.165 762.517 778.342 764.605 775.408C764.734 774.026 764.788 773.768 763.779 772.669C761.483 770.167 755.312 769.428 752.028 769.023C740.142 767.556 728.006 768.19 716.052 767.812C695.572 767.166 675.159 765.953 654.657 766.101C646.083 766.162 637.244 767.379 628.726 766.97C617.208 766.417 604.932 762.287 593.483 763.104C580.119 764.057 571.127 775.454 555.627 776.802C540.183 778.144 517.932 777.433 502.225 776.647C493.105 776.191 484.037 775.394 474.897 775.524C464.01 775.679 453.081 776.039 442.307 777.716C431.324 779.425 420.683 782.307 409.508 782.645C391.002 783.206 373.305 779.992 354.953 778.875C338.248 777.859 321.407 778.815 304.675 778.363C294.302 778.083 249.192 774.117 243.324 780.748C243.231 781.831 243.174 782.047 243.893 782.949C247.191 787.083 257.797 787.523 262.69 787.869C277.854 788.944 293.299 789.21 308.504 789.423C317.349 789.547 327.626 788.456 336.225 790.428C341.417 791.618 345.549 793.974 349.876 796.989C329.369 798.21 308.708 797.244 288.184 797.072C271.179 796.929 254.314 797.547 237.328 798.011C227.615 798.276 217.948 797.947 208.266 799.007C201.364 799.763 194.466 801.029 187.857 803.196C181.557 805.262 175.486 808.194 169.507 811.039C166.952 812.254 164.13 813.953 161.452 814.804C160.475 815.115 159.527 815.085 158.523 814.996C160.196 812.43 161.727 809.776 163.288 807.142L163.68 806.362C179.991 779.369 194.376 751.196 209.709 723.641C226.966 692.628 245.102 662.132 262.486 631.192L329.163 512.103C332.917 504.667 337.348 497.497 341.373 490.197C353.212 468.726 365.463 447.35 376.726 425.577C382.204 415.792 387.52 405.918 392.673 395.958C398.054 387.316 402.817 378.048 407.556 369.044C425.552 335.175 443.889 301.487 462.562 267.986C473.394 248.483 485.045 228.954 494.81 208.918C498.712 204.379 505.982 187.741 508.824 181.505ZM443.894 755.156C430.496 757.768 417.595 762.138 403.855 762.854C398.693 763.087 393.521 763.051 388.363 762.743C363.353 761.319 339.106 758.025 313.984 760.579C311.182 760.864 304.115 761.288 302.409 763.701C302.93 765.082 303.989 765.677 305.305 766.29C305.502 766.381 305.706 766.459 305.906 766.543C319.079 770.569 333.364 768.617 346.951 769.115C380.057 770.33 409.49 778.056 440.619 761.322C442.668 760.22 444.649 759.189 445.706 757.011C445.422 755.813 445.261 755.787 444.18 755.23C444.092 755.185 443.989 755.181 443.894 755.156Z"/>
	<path fill="#AED9E0" d="M392.673 395.958C392.619 395.843 392.567 395.727 392.511 395.614C392.391 395.375 392.252 395.145 392.142 394.902C390.555 391.371 393.54 376.796 393.978 371.983C396 349.787 395.138 327.317 398.467 305.27C400.266 292.855 403.238 280.639 407.344 268.786C418.082 238.482 437.181 208.054 468.361 195.903C481.786 190.671 495.732 187.749 508.824 181.505C505.982 187.741 498.712 204.379 494.81 208.918L494.36 208.192C494.895 206.942 495.458 205.704 496.046 204.479C495.383 203.726 495.245 203.697 494.268 203.599C488.704 203.038 478.146 210.998 474.111 214.638C461.891 225.664 450.773 238.711 443.973 253.817C442.319 257.493 439.303 260.222 437.756 264.006C435.748 268.917 432.542 273.408 430.419 278.319C427.371 285.369 425.493 293.279 421.835 299.995C421.362 300.862 421.1 301.748 420.813 302.689L420.567 302.268C428.235 277.071 434.752 258.165 451.177 236.917C454.485 232.637 463.284 226.141 464.582 221.389C462.431 222.406 460.404 225.51 458.675 227.312C443.915 242.469 432.676 260.693 425.76 280.687C423.415 287.329 421.702 294.231 419.532 300.938C413.041 321.003 406.753 338.413 405.983 359.89C405.913 361.834 405.553 366.07 406.49 367.738C406.773 368.242 407.169 368.627 407.556 369.044C402.817 378.048 398.054 387.316 392.673 395.958Z"/>
	<path fill="#AED9E0" d="M512.674 181.777C528.679 185.344 542.743 191.401 557.466 198.427C579.515 208.949 598.385 217.552 612.149 239.219C630.408 267.962 627.232 301.583 620.106 333.184C619.046 337.884 617.197 342.506 616.354 347.224C615.432 352.382 616.564 361.463 613.525 365.613L612.737 365.692C607.862 359.54 604.543 350.86 601.134 343.759C601.491 343.618 601.97 343.438 602.3 343.264C604.4 342.158 605.27 339.327 606.016 337.166C607.568 332.674 608.411 327.93 609.818 323.384C617.249 299.372 618.75 287.376 607.316 264.157C602.547 254.472 596.758 244.833 590.021 236.378C576.139 218.956 553.332 200.988 532.089 193.966C528.695 192.844 524.26 191.547 520.893 193.228C520.663 194.57 521.493 195.668 522.053 196.889L521.739 197.753C518.209 192.898 515.435 187.103 512.674 181.777Z"/>
	<path fill="#AED9E0" d="M230.583 191.192C239.404 190.031 248.623 190.195 257.518 189.839C280.66 188.91 290.92 186.327 311.187 199.676C313.187 203.339 315.04 207.764 317.91 210.801C323.103 216.296 331.591 219.508 338.035 223.35C356.133 234.142 368.531 255.458 373.46 275.465C377.869 293.358 377.991 312.476 378.3 330.806C378.604 348.869 378.62 366.803 377.542 384.84L375.761 413.466C375.592 416.3 374.88 420.04 375.153 422.787C375.279 424.062 375.863 424.704 376.726 425.577C365.463 447.35 353.212 468.726 341.373 490.197C337.348 497.497 332.917 504.667 329.163 512.103C325.563 506.464 325.876 495.747 327.263 489.398C328.922 481.804 332.889 475.114 335.002 467.706C336.483 462.515 336.168 457.239 337.585 452.035C339.529 453.617 339.268 464.13 343.837 466.646C345.04 465.549 345.403 462.492 345.674 460.856C348.43 444.174 349.814 427.188 352.485 410.466C354.993 394.771 357.503 379.16 359.781 363.426C360.927 355.508 362.506 347.442 362.844 339.439C364.094 309.874 350.229 271.795 329.8 250.558C327.916 248.598 325.676 247.038 324.321 244.65L325.103 244.25C334.5 251.506 342.705 260.923 350.68 269.686C351.379 270.454 351.988 271.609 353.047 271.515C353.037 266.833 336.725 249.535 332.797 245.62C313.751 226.635 287.102 209.725 260.146 205.543C249.381 203.873 238.305 204.17 227.453 202.757C238.518 210.967 251.825 216.28 263.254 224.156C294.426 245.637 317.822 283.147 323.447 320.657C325.869 336.804 322.743 351.712 319.829 367.495C317.972 377.554 317.33 387.977 314.773 397.874C309.157 419.614 300.257 440.649 292.846 461.815C290.32 469.03 288.772 476.559 286.58 483.878C282.824 496.423 278.551 508.756 275.458 521.496C272.578 533.359 269.9 546.044 269.036 558.211C268.453 566.426 269.45 575.577 267.678 583.607C266.86 587.312 265.068 591.058 263.888 594.69C260.92 603.824 259.839 612.04 259.844 621.627C259.845 624.122 259.657 628.165 260.892 630.337L262.486 631.192C245.102 662.132 226.966 692.628 209.709 723.641C194.376 751.196 179.991 779.369 163.68 806.362C161.237 798.398 157.905 790.764 156.019 782.614C154.283 775.115 154.016 767.505 152.526 759.992C150.783 770.72 154.903 796.667 161.197 805.639C161.774 806.462 162.384 806.769 163.288 807.142C161.727 809.776 160.196 812.43 158.523 814.996L157.716 816.143L157.135 816.141C154.073 814.405 150.318 802.32 149.329 798.792C144.552 781.763 142.584 763.052 144.846 745.506C149.18 711.874 169.678 679.247 197.795 660.389C207.692 653.752 226.573 648.241 232.141 637.751C233.523 635.147 234.095 632.071 233.124 629.23C231.029 623.103 223.999 620.247 218.644 617.626C213.826 615.268 209.921 612.49 208.155 607.225C208.09 607.031 208.03 606.836 207.967 606.641C228.396 600.235 242.852 584.883 255.844 568.687C254.554 563.998 254.075 559.017 253.434 554.207C250.173 529.72 251.991 506.278 256.087 482.007C260.131 458.049 267.529 431.112 261.131 407.004C258.825 398.312 253.546 390.563 248.731 383.089C253.542 379.934 258.92 376.241 264.855 375.934C277.258 375.293 281.62 393.021 286.591 401.63C289.615 406.866 292.952 411.021 297.451 415.043C300.02 401.24 303.518 387.597 305.938 373.777C309.525 353.289 311.448 324.967 308.575 304.447C307.254 313.302 305.13 323.795 298.52 330.246C295.796 323.019 295.586 315.219 294.877 307.597C293.641 294.309 292.265 281.599 287.498 268.988C283.935 259.564 278.877 251.111 271.756 243.938C266.226 238.368 259.584 234.263 253.072 229.963C235.747 218.523 217.595 208.379 204.006 192.291C212.914 192.251 221.727 192.361 230.583 191.192Z"/>
	<path fill="#B8F2E6" d="M521.739 197.753L522.053 196.889C521.493 195.668 520.663 194.57 520.893 193.228C524.26 191.547 528.695 192.844 532.089 193.966C553.332 200.988 576.139 218.956 590.021 236.378C596.758 244.833 602.547 254.472 607.316 264.157C618.75 287.376 617.249 299.372 609.818 323.384C608.411 327.93 607.568 332.674 606.016 337.166C605.27 339.327 604.4 342.158 602.3 343.264C601.97 343.438 601.491 343.618 601.134 343.759C586.486 315.968 571.602 288.303 556.484 260.765C544.897 239.835 532.613 219.046 521.739 197.753Z"/>
	<path fill="#AED9E0" d="M872.267 223.581C876.578 215.09 882.384 206.905 888.825 199.925C889.611 202.51 888.106 205.01 886.911 207.27C884.512 211.808 878.929 220.243 875.169 223.591L874.587 223.325C873.584 224.093 874.124 223.788 872.975 224.247L872.267 223.581Z"/>
	<path fill="#B8F2E6" d="M227.453 202.757C238.305 204.17 249.381 203.873 260.146 205.543C287.102 209.725 313.751 226.635 332.797 245.62C336.725 249.535 353.037 266.833 353.047 271.515C351.988 271.609 351.379 270.454 350.68 269.686C342.705 260.923 334.5 251.506 325.103 244.25L324.321 244.65C325.676 247.038 327.916 248.598 329.8 250.558C350.229 271.795 364.094 309.874 362.844 339.439C362.506 347.442 360.927 355.508 359.781 363.426C357.503 379.16 354.993 394.771 352.485 410.466C349.814 427.188 348.43 444.174 345.674 460.856C345.403 462.492 345.04 465.549 343.837 466.646C339.268 464.13 339.529 453.617 337.585 452.035C336.168 457.239 336.483 462.515 335.002 467.706C332.889 475.114 328.922 481.804 327.263 489.398C325.876 495.747 325.563 506.464 329.163 512.103L262.486 631.192L260.892 630.337C259.657 628.165 259.845 624.122 259.844 621.627C259.839 612.04 260.92 603.824 263.888 594.69C265.068 591.058 266.86 587.312 267.678 583.607C269.45 575.577 268.453 566.426 269.036 558.211C269.9 546.044 272.578 533.359 275.458 521.496C278.551 508.756 282.824 496.423 286.58 483.878C288.772 476.559 290.32 469.03 292.846 461.815C300.257 440.649 309.157 419.614 314.773 397.874C317.33 387.977 317.972 377.554 319.829 367.495C322.743 351.712 325.869 336.804 323.447 320.657C317.822 283.147 294.426 245.637 263.254 224.156C251.825 216.28 238.518 210.967 227.453 202.757ZM298.944 529.195C297.448 535.999 292.232 561.565 294.329 567.077L294.417 566.539C294.507 566.011 294.621 565.487 294.728 564.961C295.369 561.798 295 558.655 295 555.457L295.267 555.047C295.645 558.33 295.559 561.654 295.577 564.955L295.977 565.246C296.584 562.373 295.928 558.926 296.263 555.896C296.798 551.047 300.382 533.298 299.618 529.777L298.944 529.195Z"/>
	<defs>
		<linearGradient id="gradient_0" gradientUnits="userSpaceOnUse" x1="429.43533" y1="277.04187" x2="464.66534" y2="289.89401">
			<stop offset="0" stop-color="#A6F6FA"/>
			<stop offset="1" stop-color="#D5F9FC"/>
		</linearGradient>
	</defs>
	<path fill="url(#gradient_0)" d="M407.556 369.044C407.169 368.627 406.773 368.242 406.49 367.738C405.553 366.07 405.913 361.834 405.983 359.89C406.753 338.413 413.041 321.003 419.532 300.938C421.702 294.231 423.415 287.329 425.76 280.687C432.676 260.693 443.915 242.469 458.675 227.312C460.404 225.51 462.431 222.406 464.582 221.389C463.284 226.141 454.485 232.637 451.177 236.917C434.752 258.165 428.235 277.071 420.567 302.268L420.813 302.689C421.1 301.748 421.362 300.862 421.835 299.995C425.493 293.279 427.371 285.369 430.419 278.319C432.542 273.408 435.748 268.917 437.756 264.006C439.303 260.222 442.319 257.493 443.973 253.817C450.773 238.711 461.891 225.664 474.111 214.638C478.146 210.998 488.704 203.038 494.268 203.599C495.245 203.697 495.383 203.726 496.046 204.479C495.458 205.704 494.895 206.942 494.36 208.192L494.81 208.918C485.045 228.954 473.394 248.483 462.562 267.986C443.889 301.487 425.552 335.175 407.556 369.044Z"/>
	<path fill="#B8F2E6" d="M1024 240.582C1020.69 244.002 1018.08 248.429 1015.54 252.451C1007.15 265.69 992.508 296.03 982.052 305.581C979.904 307.543 976.93 309.609 973.857 309.276C972.07 309.082 970.629 308.029 969.524 306.656C967.289 303.878 967.179 300.065 967.503 296.673C967.946 292.041 969.168 287.035 970.746 282.652C976.45 266.803 994.52 233.072 1005.22 220.62C1010.59 214.377 1017.69 209.363 1024 204.085L1024 219.754C1018.52 224.089 1012.9 229.804 1008.51 235.221C1003.03 241.982 986.591 267.986 985.324 276.224C984.914 278.894 985.959 282.514 986.394 285.186C988.201 280.361 989.951 275.546 992.426 271.012C999.142 258.703 1012.73 243.465 1024 235.442L1024 240.582Z"/>
	<path fill="#FAF3DD" d="M946.732 236.385C944.199 237.149 927.478 253.605 925.042 256.797C923.712 258.539 922.554 262.749 921.028 263.764C920.545 262.556 920.922 261.316 921.324 260.101C922.583 256.293 925.703 253.942 927.666 250.596C934.497 238.954 947.553 211.044 958.974 205.271C954.196 215.035 949.235 225.788 946.732 236.385Z"/>
	<path fill="#AED9E0" d="M654.419 328.445C649.517 306.135 652.083 271.571 657.235 249.242C659.784 238.193 665.755 226.149 675.696 220C680.383 217.101 685.819 215.35 691.181 214.207C700.493 212.224 709.914 212.306 719.353 211.468C734.102 210.16 749.849 206.024 764.52 209.472C776.373 212.258 786.531 217.837 796.855 224.064C798.544 225.083 801.693 226.492 802.704 228.142C799.649 228.38 795.642 226.634 792.562 226.148C790.043 225.751 787.087 226.087 784.542 226.251C769.286 227.276 754.671 232.781 742.529 242.076C738.843 244.894 720.762 262.37 720.212 266.398C717.379 269.872 714.05 272.948 711.141 276.382C713.78 270.711 714.92 264.452 717.892 259.001C725.995 244.14 746.52 229.547 762.152 223.838C764.833 222.864 767.521 221.907 770.214 220.967C753.272 218.738 731.158 215.563 714.731 220.982C709.691 222.645 704.876 225.516 700.664 228.711C679.616 244.674 665.354 267.553 661.86 293.846C661.301 298.049 659.801 305.93 661 309.807L661.644 310.253C666.017 308.15 683.39 282.614 691.214 276.399C691.994 283.29 692.629 290.064 691.426 296.953C689.782 306.365 685.49 314.614 681.337 323.102C671.482 343.239 658.138 364.219 653.343 386.259C651.098 396.581 651.414 407.827 651.566 418.352C651.627 422.522 651.945 426.864 651.537 431.017C651.399 432.425 651.031 433.539 650.198 434.696C644.64 425.386 639.262 415.368 634.728 405.527C637.134 400.835 635.067 390.488 635.815 384.72C636.6 378.677 639.068 372.585 641.419 366.997C647.15 353.374 656.842 342.963 664.846 330.792C670.713 321.869 674.428 312.988 678.069 303.02C670.043 311.388 662.609 320.219 654.419 328.445Z"/>
	<path fill="#B8F2E6" d="M720.212 266.398C728.872 258.95 737.901 250.228 750.268 251.13C754.025 251.405 758.417 252.55 761.54 254.675C743.38 273.074 723.396 312.661 717.217 337.508C714.562 348.182 713.486 358.824 713.574 369.799C713.728 388.819 719.673 415.936 729.842 432.388C725.997 412.448 721.715 386.927 733.769 368.822C737.793 362.78 742.993 359.558 749.289 356.18C749.173 362.707 748.815 369.485 749.421 375.983C751.857 402.12 762.921 429.637 781.309 448.705C787.998 455.642 795.965 460.982 804.409 465.55C807.803 467.386 818.083 469.05 819.703 471.967C818.502 474.847 811.98 477.537 809.134 478.711C798.053 483.281 786.205 485.835 774.205 484.575C771.967 493.078 770.682 499.949 775.284 508.061C778.987 514.588 785.097 518.697 790.552 523.616C780.657 539.254 768.651 544.971 773.275 566.056C778.028 587.73 795.065 609.869 813.748 621.521C822.705 627.108 832.934 629.84 842.967 632.772C824.91 639.652 808.416 642.43 790.227 634.288C781.401 630.337 775.815 624.372 768.581 618.298C772.77 627.746 777.742 638.992 784.28 647.009C789.959 653.973 802.656 662.475 809.915 668.951C831.433 688.149 869.749 722.319 878.926 749.682C882.493 760.317 882.643 771.928 882.492 783.036C882.323 795.542 880.577 809.226 876.008 820.967C870.657 834.715 861.767 843.119 848.311 848.895C840.111 852.415 831.466 855.243 822.894 857.708C792.954 866.318 776.401 862.171 747.776 852.276C738.124 848.94 728.598 845.182 718.763 842.407C708.382 839.478 697.422 836.708 686.587 836.455C676.393 836.217 667.67 839.329 658.19 842.646C638.725 849.455 619.639 853.756 599.757 845.633C587.483 840.618 577.111 832.953 567.008 824.532C564.371 822.335 560.953 820.037 559.366 816.967L572.48 816.964L777.134 816.924L834.771 816.986C843.658 816.998 853.696 816.118 862.444 817.364C863.446 816.986 863.047 817.282 863.681 816.529L753.957 624.361C734.424 588.896 715.083 553.326 695.935 517.653C686.257 499.846 676.46 482.104 666.544 464.428C661.055 454.581 655.206 444.795 650.198 434.696C651.031 433.539 651.399 432.425 651.537 431.017C651.945 426.864 651.627 422.522 651.566 418.352C651.414 407.827 651.098 396.581 653.343 386.259C658.138 364.219 671.482 343.239 681.337 323.102C685.49 314.614 689.782 306.365 691.426 296.953C692.629 290.064 691.994 283.29 691.214 276.399C683.39 282.614 666.017 308.15 661.644 310.253L661 309.807C659.801 305.93 661.301 298.049 661.86 293.846C665.354 267.553 679.616 244.674 700.664 228.711C704.876 225.516 709.691 222.645 714.731 220.982C731.158 215.563 753.272 218.738 770.214 220.967C767.521 221.907 764.833 222.864 762.152 223.838C746.52 229.547 725.995 244.14 717.892 259.001C714.92 264.452 713.78 270.711 711.141 276.382C714.05 272.948 717.379 269.872 720.212 266.398ZM742.805 223.292C728.065 224.308 716.362 226.265 704.057 234.967C700.676 237.358 697.175 239.906 694.404 243.01C691.102 246.706 687.26 253.558 687.436 258.679C687.477 259.881 687.798 260.275 688.449 261.234C689.049 261.432 689.52 261.608 690.155 261.639C704.955 252.961 715.886 238.9 732.28 232.599C735.883 231.214 743.788 229.667 745.09 225.586C744.7 224.093 744.839 224.021 743.537 223.235L742.805 223.292Z"/>
	<path fill="#B8F2E6" d="M986.394 285.186C985.959 282.514 984.914 278.894 985.324 276.224C986.591 267.986 1003.03 241.982 1008.51 235.221C1012.9 229.804 1018.52 224.089 1024 219.754L1024 235.442C1012.73 243.465 999.142 258.703 992.426 271.012C989.951 275.546 988.201 280.361 986.394 285.186Z"/>
	<defs>
		<linearGradient id="gradient_1" gradientUnits="userSpaceOnUse" x1="175.02589" y1="596.55914" x2="767.37683" y2="490.37152">
			<stop offset="0" stop-color="#7A3B03"/>
			<stop offset="1" stop-color="#9A4D01"/>
		</linearGradient>
	</defs>
	<path fill="url(#gradient_1)" d="M452.246 420.197C458.528 414.665 465.954 407.623 470.149 400.402C476.128 390.109 479.605 378.086 484.365 367.19C491.216 351.513 498.922 336.26 505.499 320.45C507.094 316.614 509.552 312.292 510.051 308.169C510.954 300.701 510.479 292.656 510.521 285.118L510.755 244.809C510.824 236.968 510.686 229.037 511.319 221.218C514.775 240.835 528.798 259.504 538.602 276.682C548.587 294.179 557.742 312.16 567.541 329.763C584.307 359.885 603.974 389.527 611.987 423.472C606.943 416.286 601.752 409.141 597.154 401.659C589.649 389.445 582.994 376.782 575.315 364.667C568.102 353.289 559.182 342.813 552.482 331.156C547.731 322.89 545.58 314.16 542.636 305.214C539.002 294.174 532.845 281.069 524.468 272.94C524.516 290.26 524.875 309.096 532.396 325.035C537.532 335.92 545.11 345.782 551.497 355.977C561.991 372.726 571.991 389.873 583.129 406.207C593.11 420.843 604.274 434.681 613.954 449.532C625.001 466.478 631.471 485.756 640.795 503.604C647.645 516.716 656.73 528.381 663.642 541.423C672.515 558.166 676.279 576.786 683.813 594.082C694.22 617.974 708.932 639.694 721.906 662.217C732.758 681.057 740.632 702.55 756.225 718.159C763.035 724.95 770.955 730.528 779.643 734.651C773.19 726.596 766.153 718.661 760.409 710.097C742.78 683.812 730.68 654.178 716.534 625.952C709.837 612.59 701.32 599.359 695.901 585.476C718.951 606.21 736.225 634.555 751.945 660.952C767.166 686.512 781.124 712.547 795.207 738.737C804.189 755.442 816.433 775.794 823.303 793.029C818.32 790.852 813.733 787.135 809.197 784.135L784.319 767.796C765.684 755.75 744.911 743.819 725.359 733.418L724.18 731.836C720.261 721.512 709.845 705.505 703.948 695.159C691.98 674.16 680.291 652.845 668.833 631.558C623.571 549.094 579.051 466.224 535.28 382.958C527.276 367.62 518.932 352.466 511.109 337.032C508.113 342.429 505.313 347.931 502.714 353.529C492.094 374.94 481.091 396.158 469.711 417.175C445.369 463.021 420.597 508.637 395.399 554.018C385.019 572.739 374.23 591.237 363.979 610.029L318.554 692.858L303.65 720.571C301.112 725.299 298.755 730.661 295.547 734.951C291.964 735.455 277.79 744.997 273.442 747.356C264.971 751.951 256.864 757.184 248.467 761.909C234.665 769.773 220.429 776.85 205.828 783.107C212.28 772.626 217.291 761.112 222.995 750.203C230.955 734.981 239.474 720.049 247.376 704.798C254.965 690.149 261.384 672.973 272.846 660.916C272.513 664.561 270.858 673.039 272.642 676.314C273.015 677 273.503 676.883 274.198 677.037C284.047 673.98 307.731 618.599 313.957 606.882C322.452 590.895 332.298 575.839 339.822 559.263C346.688 544.138 350.035 528.213 358.374 513.677C354.763 537.33 352.022 556.806 341.45 578.721C337.261 587.405 331.217 595.452 327.496 604.245C326.777 605.944 325.631 608.796 326.73 610.571C327.411 611.671 327.881 611.75 329.038 611.923C338.804 608.613 367.925 543.357 373.372 530.806C378.375 519.276 382.686 507.419 387.883 495.982C395.858 478.432 406.063 461.939 414.154 444.464C422.426 426.596 428.529 408.082 437.598 390.528C440.858 384.217 444.002 378.224 449.133 373.195C451.52 370.857 454.44 369.052 457.156 367.129C463.423 362.691 467.157 357.209 470.506 350.391C478.432 334.255 477.57 316.439 485.596 301.406L486.353 301.259C486.492 301.372 486.645 301.467 486.768 301.597C489.467 304.457 489.749 313.226 489.699 317.205C489.512 332.26 486.327 350.846 476.963 363.148C472.42 369.116 467.622 373.962 464.292 380.829C458.188 393.418 453.652 406.206 452.246 420.197Z"/>
	<path fill="#B8F2E6" d="M690.155 261.639C689.52 261.608 689.049 261.432 688.449 261.234C687.798 260.275 687.477 259.881 687.436 258.679C687.26 253.558 691.102 246.706 694.404 243.01C697.175 239.906 700.676 237.358 704.057 234.967C716.362 226.265 728.065 224.308 742.805 223.292L743.537 223.235C744.839 224.021 744.7 224.093 745.09 225.586C743.788 229.667 735.883 231.214 732.28 232.599C715.886 238.9 704.955 252.961 690.155 261.639Z"/>
	<path fill="#B8F2E6" d="M854.17 274.708C853.992 263.355 865.277 232.092 872.267 223.581L872.975 224.247C874.124 223.788 873.584 224.093 874.587 223.325L875.169 223.591C865.207 239.91 859.454 256.468 854.17 274.708Z"/>
	<path fill="#B8F2E6" d="M0 227.379C8.08534 228.375 16.18 229.508 24.2494 230.625C27.8013 231.116 31.3553 231.868 34.9444 231.991C49.5053 232.491 64.7661 230.359 79.1638 232.674C107.875 237.29 150.047 264.657 167.939 287.598C175.208 296.918 181.831 310.597 180.412 322.689C180.307 323.579 180.24 323.703 179.716 324.481L178.91 324.238C178.378 322.994 178.067 321.871 177.761 320.553C174.596 306.915 162.216 295.923 150.795 288.908C128.032 274.925 99.3921 265.357 72.6014 272.292C71.9439 272.462 71.3708 272.69 70.7443 272.947C66.9253 266.944 62.4014 261.671 57.4193 256.595C40.5651 239.423 22.648 235.006 0 229.959L0 227.379Z"/>
	<path fill="#FAF3DD" d="M0 229.959C22.648 235.006 40.5651 239.423 57.4193 256.595C62.4014 261.671 66.9253 266.944 70.7443 272.947C73.4762 275.972 76.8765 279.087 79.13 282.454C79.6979 285.219 80.7143 288.485 80.2693 291.292C79.4002 292.098 79.3158 291.87 78.1494 291.816C67.822 291.345 53.5633 276.767 44.0644 271.087C35.1483 265.756 10.4863 257.01 0 256.665L0 229.959Z"/>
	<path fill="#FAF3DD" d="M0 309.849C5.4181 309.456 9.09483 310.47 14.2193 311.711C12.6444 311.83 11.2875 311.96 9.7925 312.486C6.89199 311.675 3.05382 311.864 0 311.603L0 309.849Z"/>
	<path fill="#D4E09B" d="M0 311.603C3.05382 311.864 6.89199 311.675 9.7925 312.486C11.2875 311.96 12.6444 311.83 14.2193 311.711C41.9216 318.376 63.3323 324.803 79.2801 350.537C80.5766 352.491 81.7345 354.528 82.917 356.552C70.4822 352.951 58.2005 348.898 45.8358 345.073C30.361 340.285 15.0331 335.692 0 329.62L0 311.603Z"/>
	<path fill="#D4E09B" d="M150.064 343.21L149.218 343.145C142.312 337.087 137.389 325.955 133.416 317.733C137.355 319.408 141.491 324.712 144.105 328.04C147.616 332.51 150.794 337.299 150.064 343.21Z"/>
	<path fill="#DBA74F" d="M513.824 351.978C513.188 350.476 512.778 349.063 511.367 348.114C509.979 348.074 509.333 348.226 508.26 349.172C506.747 350.504 505.635 352.349 504.648 354.083C498.451 369.752 490.31 384.98 482.531 399.931L449.341 462.453L356.673 632.049C343.769 655.392 330.204 678.365 317.562 701.86C315.472 705.743 303.345 727.039 303.978 729.809C302.097 731.38 300.198 732.933 298.382 734.58C297.547 734.92 296.449 734.877 295.547 734.951C298.755 730.661 301.112 725.299 303.65 720.571L318.554 692.858L363.979 610.029C374.23 591.237 385.019 572.739 395.399 554.018C420.597 508.637 445.369 463.021 469.711 417.175C481.091 396.158 492.094 374.94 502.714 353.529C505.313 347.931 508.113 342.429 511.109 337.032C518.932 352.466 527.276 367.62 535.28 382.958C579.051 466.224 623.571 549.094 668.833 631.558C680.291 652.845 691.98 674.16 703.948 695.159C709.845 705.505 720.261 721.512 724.18 731.836C721.247 730.15 718.384 728.459 715.015 727.859L715.022 727.656L715.713 726.863C715.697 723.65 712.687 719.024 711.169 716.204C697.241 690.322 682.26 664.995 668.156 639.191L527.402 376.669C523.032 368.357 518.187 360.304 513.824 351.978Z"/>
	<path fill="#C98826" d="M504.648 354.083C505.635 352.349 506.747 350.504 508.26 349.172C509.333 348.226 509.979 348.074 511.367 348.114C512.778 349.063 513.188 350.476 513.824 351.978C518.187 360.304 523.032 368.357 527.402 376.669L668.156 639.191C682.26 664.995 697.241 690.322 711.169 716.204C712.687 719.024 715.697 723.65 715.713 726.863L715.022 727.656C705.343 725.239 583.934 632.846 565.441 619.143L532.013 594.373C525.673 589.713 518.344 585.217 512.806 579.672C511.127 579.698 510.002 580.643 508.693 581.565C492.716 592.822 477.377 605.189 461.676 616.85L414.24 651.403C388.886 670.143 363.813 689.167 338.119 707.453C332.147 711.703 313.046 726.48 307.457 728.843L303.978 729.809C303.345 727.039 315.472 705.743 317.562 701.86C330.204 678.365 343.769 655.392 356.673 632.049L449.341 462.453L482.531 399.931C490.31 384.98 498.451 369.752 504.648 354.083Z"/>
	<path fill="#D4E09B" d="M807.777 438.536C804.19 437.083 801.079 435.519 798.041 433.081C786.815 424.075 778.563 410.854 777.151 396.437C776.041 385.104 776.753 369.823 784.572 360.728C788.091 356.634 791.798 355.145 797.032 354.687C797.899 354.623 798.792 354.632 799.66 354.661C801.366 354.718 802.46 355.034 803.664 356.322C804.86 359.609 799.618 369.678 798.473 373.326C797.709 375.759 797.178 378.315 796.763 380.829C794.788 392.819 795.677 408.253 804.746 417.435C808.569 421.306 813.582 424.529 816.678 429.025C817.948 430.867 818.901 433.19 818.313 435.45C817.895 437.059 816.73 439.002 815.141 439.682C812.877 440.649 809.949 439.28 807.777 438.536Z"/>
	<path fill="#FAF3DD" d="M885.565 403.137C889.427 399.844 892.862 396.198 897.053 393.279C907.082 386.296 928.686 376.326 940.832 374.693C944.599 374.449 951.344 374.238 954.53 376.397C955.552 377.091 956.348 377.955 956.467 379.242C956.739 382.181 954.047 385.201 952.129 387.101C942.826 396.312 928.67 402.304 915.754 403.742C911.791 404.183 907.656 404.002 903.668 403.986C897.599 404.027 891.608 403.622 885.565 403.137Z"/>
	<path fill="#AED9E0" d="M1024 525.686C1008.56 529.267 994.218 530.032 978.593 527.038C961.635 523.79 929.588 512.705 919.838 497.74C915.184 490.596 914.02 481.295 915.804 473.049C917.601 464.744 921.648 455.091 927.653 448.936C939.554 436.737 957.445 429.811 972.403 422.009C981.601 417.158 990.687 412.098 999.653 406.831C1008.29 401.794 1015.68 395.282 1024 389.84L1024 406.025C1017.47 409.883 1011.43 414.758 1005.11 418.989C983.488 433.484 962.328 448.643 940.683 463.084C935.281 466.689 926.795 473.843 921.449 476.481C923.587 481.111 954.816 494.295 961.685 496.819C967.509 498.959 974.273 501.538 980.471 502.134L978.76 501.319C978.911 501.262 979.062 501.207 979.212 501.148C979.868 500.891 979.614 501.006 980.243 500.646C980.046 500.611 979.848 500.577 979.651 500.539C975.618 499.765 971.885 498.04 967.871 497.284L968.493 497.175C969.118 497.062 969.725 496.93 970.342 496.779C970.069 496.687 969.794 496.6 969.522 496.502C969.232 496.398 968.946 496.283 968.658 496.173C970.289 495.483 980.181 498.919 982.714 499.378C996.283 501.838 1010.18 503.472 1024 503.194L1024 525.686Z"/>
	<path fill="#D4E09B" d="M0 395.767C14.6902 411.953 31.5164 424.295 51.0627 433.977C58.7852 437.733 66.7084 441.061 74.7966 443.947C92.5043 450.279 187.103 478.831 187.869 495.244C187.931 496.565 187.26 497.61 186.303 498.443C181.121 502.961 166.768 500.882 160.308 500.186C149.795 499.051 139.345 496.825 129.124 494.15C126.988 493.475 124.801 492.918 122.644 492.309C74.8211 476.536 35.8797 456.182 0 420.247L0 395.767Z"/>
	<path fill="#B8F2E6" d="M1024 503.194C1010.18 503.472 996.283 501.838 982.714 499.378C980.181 498.919 970.289 495.483 968.658 496.173C968.946 496.283 969.232 496.398 969.522 496.502C969.794 496.6 970.069 496.687 970.342 496.779C969.725 496.93 969.118 497.062 968.493 497.175L967.871 497.284C971.885 498.04 975.618 499.765 979.651 500.539C979.848 500.577 980.046 500.611 980.243 500.646C979.614 501.006 979.868 500.891 979.212 501.148C979.062 501.207 978.911 501.262 978.76 501.319L980.471 502.134C974.273 501.538 967.509 498.959 961.685 496.819C954.816 494.295 923.587 481.111 921.449 476.481C926.795 473.843 935.281 466.689 940.683 463.084C962.328 448.643 983.488 433.484 1005.11 418.989C1011.43 414.758 1017.47 409.883 1024 406.025L1024 411.074C1015.09 415.15 1006.16 422.098 998.028 427.575C986.308 435.468 974.629 443.373 963.081 451.521C951.282 459.846 939.928 468.128 927.315 475.269L927.632 475.912C932.305 477.338 938.26 476.768 943.153 476.629C972.854 475.784 993.786 468.437 1019.77 454.6C1021.2 453.847 1022.6 453.07 1024 452.269L1024 503.194Z"/>
	<path fill="#B8F2E6" d="M1024 452.269C1022.6 453.07 1021.2 453.847 1019.77 454.6C993.786 468.437 972.854 475.784 943.153 476.629C938.26 476.768 932.305 477.338 927.632 475.912L927.315 475.269C939.928 468.128 951.282 459.846 963.081 451.521C974.629 443.373 986.308 435.468 998.028 427.575C1006.16 422.098 1015.09 415.15 1024 411.074L1024 452.269Z"/>
	<path fill="#B8F2E6" d="M0 420.247C35.8797 456.182 74.8211 476.536 122.644 492.309C122.12 492.684 121.903 492.891 121.209 493.089C119.699 493.52 117.644 493.396 116.052 493.645C113.207 494.09 108.885 495.81 106.172 495.656C105.798 495.635 94.3304 489.983 92.3944 489.282C80.7075 485.047 67.3746 480.994 55.0161 479.765C56.3508 479.239 57.7488 479.7 59.1562 479.817C60.1934 479.902 61.4296 480.198 62.2383 479.518C60.0725 479.031 57.899 478.579 55.7185 478.163C60.0344 477.057 86.3755 484.473 91.7581 486.634C97.1442 488.796 101.981 492.087 107.726 493.445C107.309 492.517 107.511 492.711 106.844 492.078C94.0828 479.954 46.496 473.727 28.3028 473.302C18.9467 473.084 9.36425 474.273 0 474.679L0 420.247Z"/>
	<path fill="#AED9E0" d="M0 474.679C9.36425 474.273 18.9467 473.084 28.3028 473.302C46.496 473.727 94.0828 479.954 106.844 492.078C107.511 492.711 107.309 492.517 107.726 493.445C101.981 492.087 97.1442 488.796 91.7581 486.634C86.3755 484.473 60.0344 477.057 55.7185 478.163C57.899 478.579 60.0725 479.031 62.2383 479.518C61.4296 480.198 60.1934 479.902 59.1562 479.817C57.7488 479.7 56.3508 479.239 55.0161 479.765C67.3746 480.994 80.7075 485.047 92.3944 489.282C94.3304 489.983 105.798 495.635 106.172 495.656C108.885 495.81 113.207 494.09 116.052 493.645C117.644 493.396 119.699 493.52 121.209 493.089C121.903 492.891 122.12 492.684 122.644 492.309C124.801 492.918 126.988 493.475 129.124 494.15C116.981 501.636 106.693 511.67 96.202 521.239C66.4129 548.409 41.6093 562.418 0 561.811L0 548.084C4.2433 548.11 8.51031 547.299 12.6948 546.654C33.3843 543.466 50.3509 536.16 67.5467 524.355C72.8464 520.717 78.0407 517.157 81.8821 511.922C73.5044 511.807 65.3845 513.729 57.0386 513.948C43.7054 514.298 30.3472 513.513 17.0067 513.984C11.3335 514.185 5.63775 514.971 0 515.617L0 474.679Z"/>
	<path fill="#D4E09B" d="M909.223 549.057C911.125 547.197 913.022 545.316 914.994 543.531C919.042 539.869 924.491 538.806 929.815 538.943C956.166 539.617 974.569 561.141 997.044 571.494C1005.91 575.577 1014.36 576.843 1024 577.286L1024 641.252C1021.24 638.055 1018.54 634.681 1015.36 631.887C1004.9 621.932 994.193 622.873 983.572 616.167C971.713 608.678 950.867 577.883 936.248 578.26C934.934 578.294 933.7 578.739 932.805 579.737C930.284 582.548 931.121 588.099 931.644 591.554C935.154 614.712 954.985 626.189 968.599 642.991C967.24 650.194 969.23 655.121 973.258 661.054C989.05 684.309 1002.31 686.393 1024 699.73L1024 764.972C1017.14 757.873 1011.91 748.938 1006.6 740.656C995.713 723.671 985.121 706.342 976.247 688.201C969.826 675.075 964.376 660.841 955.342 649.229C946.558 637.94 923.684 628.187 911.457 618.37C899.369 608.665 889.073 596.386 877.637 585.835C880.97 595.649 884.832 605.643 888.739 615.245C890.595 619.805 893.469 624.721 894.52 629.484C894.805 630.777 894.652 630.563 893.998 631.569L892.894 631.682C885.832 629.089 878.394 622.305 872.425 617.729C858.431 607 844.815 593.812 838.934 576.745C835.623 567.135 834.309 551.542 827.189 544.036C817.985 534.333 810.633 552.617 801.936 551.887C800.324 551.751 799.03 550.848 798.073 549.598C794.716 545.213 795.093 539.162 795.846 533.995C798.02 519.091 805.057 502.84 817.353 493.605C818.845 493.336 820.825 492.805 822.334 493.123C823.626 493.395 824.623 494.396 825.247 495.512C827.59 499.704 824.971 507.545 823.901 511.863C826.503 508.322 829.35 505.417 833.069 503.04C840.593 498.231 849.791 496.261 857.687 491.881C861.659 489.642 865.496 487.173 869.179 484.486C873.652 481.247 879.44 474.999 885.137 474.348C886.426 474.201 886.943 474.453 887.933 475.222C890.422 482.73 870.804 500.638 866.378 506.669C862.464 512.005 859.288 518.042 857.789 524.521C855.127 536.027 857.99 545.264 864.034 555.057C880.355 549.195 891.524 542.331 909.223 549.057Z"/>
	<path fill="#B8F2E6" d="M0 515.617C5.63775 514.971 11.3335 514.185 17.0067 513.984C30.3472 513.513 43.7054 514.298 57.0386 513.948C65.3845 513.729 73.5044 511.807 81.8821 511.922C78.0407 517.157 72.8464 520.717 67.5467 524.355C50.3509 536.16 33.3843 543.466 12.6948 546.654C8.51031 547.299 4.2433 548.11 0 548.084L0 515.617Z"/>
	<path fill="#AED9E0" d="M295 555.457C295 558.655 295.369 561.798 294.728 564.961C294.621 565.487 294.507 566.011 294.417 566.539L294.329 567.077C292.232 561.565 297.448 535.999 298.944 529.195L299.618 529.777C300.382 533.298 296.798 551.047 296.263 555.896C295.928 558.926 296.584 562.373 295.977 565.246L295.577 564.955C295.559 561.654 295.645 558.33 295.267 555.047L295 555.457Z"/>
	<path fill="#D4E09B" d="M146.755 560.801C162.872 554.706 172.144 543.494 187.054 536.414C195.958 532.185 207.021 530.664 216.434 534.047C221.182 536.221 223.817 538.883 226.535 543.236C224.978 556.311 219.243 564.601 208.975 572.688C199.884 579.848 188.556 585.092 177.608 588.684C181.4 607.43 183.467 625.262 172.266 642.044C171.886 642.613 171.481 643.109 171.042 643.633C159.059 660.38 129.481 686.097 108.987 689.427C99.2393 691.01 90.3893 686.535 82.361 681.572C81.2646 683.651 80.1103 685.716 79.1164 687.845C77.127 700.071 76.1756 715.742 65.1169 723.509C62.3762 725.434 58.9242 726.759 55.8154 727.979C56.7627 736.643 56.8788 745.073 56.3289 753.767C55.3068 769.929 50.2675 801.203 44.892 816.127C43.232 820.736 41.1314 825.001 38.0811 828.849C30.6089 838.276 15.4804 848.098 3.34578 849.33C2.23294 849.437 1.1172 849.511 0 849.553L0 819.463L0 772.775C2.24571 770.628 3.85563 767.316 5.35374 764.614C7.77202 760.254 10.001 755.816 11.8009 751.162C14.9472 743.025 17.097 734.626 19.5092 726.258C22.673 715.283 26.6327 704.311 27.6705 692.869C28.0934 688.207 27.777 683.456 26.4119 678.962C25.1658 674.86 22.8929 670.739 18.8932 668.786C12.7385 665.78 5.93241 668.692 0 670.833L0 623.626C6.41803 623.286 13.1968 622.206 19.4924 620.935C47.4647 615.284 84.8748 592.183 100.888 567.934C102.052 570.309 102.988 572.418 103.221 575.078C104.595 590.778 94.5314 603.27 85.1986 614.54C93.0257 614.62 100.624 612.662 107.674 609.308C126.806 600.206 139.883 580.151 146.755 560.801Z"/>
	<path fill="#B8F2E6" d="M968.599 642.991C954.985 626.189 935.154 614.712 931.644 591.554C931.121 588.099 930.284 582.548 932.805 579.737C933.7 578.739 934.934 578.294 936.248 578.26C950.867 577.883 971.713 608.678 983.572 616.167C994.193 622.873 1004.9 621.932 1015.36 631.887C1011.76 632.592 997.965 624.899 993.246 623.502C985.961 621.345 976.907 619.927 969.314 619.961C980.633 642.594 997.069 657.425 1014.77 674.677C1017.94 677.77 1020.86 681.099 1024 684.227L1024 699.73C1002.31 686.393 989.05 684.309 973.258 661.054C969.23 655.121 967.24 650.194 968.599 642.991ZM949.365 588.803C950.995 591.954 959.612 605.625 962.29 606.503C962.575 606.596 962.874 606.636 963.166 606.703C961.565 601.46 955.684 592.076 950.814 589.333C950.124 588.944 950.028 588.96 949.365 588.803Z"/>
	<path fill="#DBA74F" d="M307.457 728.843C313.046 726.48 332.147 711.703 338.119 707.453C363.813 689.167 388.886 670.143 414.24 651.403L461.676 616.85C477.377 605.189 492.716 592.822 508.693 581.565C510.002 580.643 511.127 579.698 512.806 579.672C518.344 585.217 525.673 589.713 532.013 594.373L565.441 619.143C583.934 632.846 705.343 725.239 715.022 727.656L715.015 727.859C693.574 728.887 671.694 728.001 650.2 728.027L531.581 728.409L398.37 728.534C368.108 728.714 337.704 729.701 307.457 728.843Z"/>
	<path fill="#AED9E0" d="M963.166 606.703C962.874 606.636 962.575 606.596 962.29 606.503C959.612 605.625 950.995 591.954 949.365 588.803C950.028 588.96 950.124 588.944 950.814 589.333C955.684 592.076 961.565 601.46 963.166 606.703Z"/>
	<path fill="#B8F2E6" d="M1015.36 631.887C1018.54 634.681 1021.24 638.055 1024 641.252L1024 684.227C1020.86 681.099 1017.94 677.77 1014.77 674.677C997.069 657.425 980.633 642.594 969.314 619.961C976.907 619.927 985.961 621.345 993.246 623.502C997.965 624.899 1011.76 632.592 1015.36 631.887Z"/>
	<path fill="#B8F2E6" d="M0 670.833C5.93241 668.692 12.7385 665.78 18.8932 668.786C22.8929 670.739 25.1658 674.86 26.4119 678.962C27.777 683.456 28.0934 688.207 27.6705 692.869C26.6327 704.311 22.673 715.283 19.5092 726.258C17.097 734.626 14.9472 743.025 11.8009 751.162C10.001 755.816 7.77202 760.254 5.35374 764.614C3.85563 767.316 2.24571 770.628 0 772.775L0 764.732C4.85641 759.803 6.98013 747.611 7.62267 741.03C4.47183 746.789 3.96573 753.224 0 758.69L0 745.269C6.74477 738.679 16.6376 707.674 17.7184 697.745C17.934 695.764 18.1467 693.976 16.8614 692.364C11.9317 690.428 5.17363 690.902 0 691.555L0 670.833Z"/>
	<path fill="#B8F2E6" d="M0 691.555C5.17363 690.902 11.9317 690.428 16.8614 692.364C18.1467 693.976 17.934 695.764 17.7184 697.745C16.6376 707.674 6.74477 738.679 0 745.269L0 691.555Z"/>
	<path fill="#FEDC93" d="M307.457 728.843C337.704 729.701 368.108 728.714 398.37 728.534L531.581 728.409L650.2 728.027C671.694 728.001 693.574 728.887 715.015 727.859C718.384 728.459 721.247 730.15 724.18 731.836L725.359 733.418C718.369 735.04 701.449 733.919 693.534 733.901L627.37 733.917L420.033 734.146L347.996 734.252C331.472 734.267 314.896 734.043 298.382 734.58C300.198 732.933 302.097 731.38 303.978 729.809L307.457 728.843Z"/>
	<path fill="#D4E09B" d="M1024 877.708C1019.92 874.457 1016.59 870.443 1013.43 866.317C1005.18 855.527 998.145 842.518 992.441 830.185C988.051 820.694 986.087 810.322 982.338 800.557C977.811 788.769 954.496 740.694 956.8 731.664C957.123 730.401 957.175 730.27 958.317 729.695C964.043 733.218 974.43 748.165 980.065 753.943C993.454 767.676 1007.96 779.375 1024 789.897L1024 877.708Z"/>
	<path fill="#B8F2E6" d="M0 758.69C3.96573 753.224 4.47183 746.789 7.62267 741.03C6.98013 747.611 4.85641 759.803 0 764.732L0 758.69Z"/>
	<path fill="#974C00" d="M305.906 766.543C305.706 766.459 305.502 766.381 305.305 766.29C303.989 765.677 302.93 765.082 302.409 763.701C304.115 761.288 311.182 760.864 313.984 760.579C339.106 758.025 363.353 761.319 388.363 762.743C393.521 763.051 398.693 763.087 403.855 762.854C417.595 762.138 430.496 757.768 443.894 755.156C443.989 755.181 444.092 755.185 444.18 755.23C445.261 755.787 445.422 755.813 445.706 757.011C444.649 759.189 442.668 760.22 440.619 761.322C409.49 778.056 380.057 770.33 346.951 769.115C333.364 768.617 319.079 770.569 305.906 766.543Z"/>
	<path fill="#B8F2E6" d="M152.526 759.992C154.016 767.505 154.283 775.115 156.019 782.614C157.905 790.764 161.237 798.398 163.68 806.362L163.288 807.142C162.384 806.769 161.774 806.462 161.197 805.639C154.903 796.667 150.783 770.72 152.526 759.992Z"/>
	<path fill="#D4E09B" d="M104.699 792.234C115.622 799.667 119.492 804.311 122.45 817.492C122.989 827.565 123.789 840.541 131.699 847.853C134.828 850.746 141.754 853.72 142.153 858.286C142.717 864.747 132.891 868.665 139.288 874.54C145.5 880.244 155.221 875.943 162.592 877.995C169.076 879.8 175.468 884.057 181.485 887.049C195.689 894.111 213.595 897.45 229.326 896.362C237.838 895.773 268.409 889.424 276.148 886.076C275.671 896.847 275.06 907.673 276.065 918.431C279.702 957.358 299.719 993.339 325.799 1021.81C326.471 1022.54 327.147 1023.27 327.829 1024L262.47 1024L256.462 1019.95C250.433 1017.12 244.684 1011.85 239.65 1007.5C230.086 999.229 221.115 989.219 215.631 977.722C209.377 964.61 205.558 951.087 197.019 938.999C190.159 929.288 179.816 922.692 170.979 914.926C168.595 913.857 166.372 912.524 164.189 911.095C149.53 901.498 138.476 888.774 127.104 875.719C121.916 869.763 116.485 863.865 112.408 857.066C109.252 851.803 106.53 845.527 105.745 839.396C104.985 833.456 107.183 827.909 107.799 822.088C108.851 812.155 106.716 801.918 104.699 792.234Z"/>
	<path fill="#D4E09B" d="M58.8589 854.53C65.4071 843.932 68.6516 805.698 68.5456 792.321C72.2786 800.601 75.1532 809.505 77.2891 818.334C78.5106 823.382 79.3752 828.616 80.8341 833.593C82.2274 838.346 84.9613 842.685 86.5296 847.407C97.0054 878.949 100.009 902.726 87.9139 934.535C78.6243 958.965 62.2729 995.847 36.5487 1006.48C35.6784 1006.84 33.9178 1007.1 33.2624 1007.69C33.9624 1008.08 34.3672 1008.17 35.1417 1008.32C61.0865 1003.8 77.5068 987.608 95.9818 970.321C98.89 967.6 103.302 965.679 105.604 962.515C110.128 956.295 113.493 943.509 115.062 935.783C118.845 941.238 123.343 946.271 126.304 952.244C129.754 959.204 131.315 967.002 134.423 974.129C144.745 997.803 167.543 1010.78 188.37 1024L0 1024L0 919.903C23.5195 906.683 45.7593 877.748 58.8589 854.53ZM72.5557 892.873C69.3944 897.948 67.7131 904.143 65.0903 909.551C60.3476 919.331 36.0841 962.983 37.7984 969.562C37.8416 969.728 37.9246 969.881 37.9878 970.041C39.1153 970.308 38.6501 970.401 39.4102 970.075C57.9156 947.419 67.5972 942.79 73.6433 911.375C74.4882 906.985 76.2868 900.796 75.725 896.4C75.5813 895.276 75.3488 894.097 74.2789 893.483C73.898 893.264 72.9946 893.008 72.5557 892.873Z"/>
	<path fill="#B8F2E6" d="M935.598 799.973C935.641 798.651 935.417 797.961 936.267 796.887C941.442 799.461 964.48 844.985 969.01 853.135C971.307 857.177 973.762 861.127 976.368 864.977C990.117 885.498 1007.29 903.896 1024 922.015L1024 977.043C1007.12 966.437 989.831 956.015 976.383 941.035C960.754 923.624 951.834 900.915 946.832 878.308C944.801 869.127 943.321 859.263 942.302 849.914C941.36 841.27 940.862 805.612 935.598 799.973Z"/>
	<path fill="#D4E09B" d="M935.598 799.973C940.862 805.612 941.36 841.27 942.302 849.914C943.321 859.263 944.801 869.127 946.832 878.308C951.834 900.915 960.754 923.624 976.383 941.035C989.831 956.015 1007.12 966.437 1024 977.043L1024 1024L1015.09 1024L1014.8 1021.83C1012.91 1008.22 1007.67 993.968 996.205 985.475C987.55 979.063 979.779 980.346 969.926 981.786C965.875 979.87 961.86 977.906 958.223 975.262C946.972 967.082 942.723 955.642 940.588 942.362C927.714 942.791 914.27 946.074 903.079 952.566C893.738 957.985 886.444 964.462 883.634 975.198C878.011 974.693 872.729 972.988 868.765 968.753C865.243 964.991 862.784 959.872 863.048 954.643C863.587 943.921 873.832 934.039 881.187 927.107C899.215 913.633 902.376 910.742 906.684 888.17C909.263 886.32 911.787 884.46 914.008 882.179C922.85 873.099 927.753 860.258 927.976 847.663C928.085 841.469 927.34 835.224 927.243 829.016C933.3 819.261 935.447 811.507 935.598 799.973Z"/>
	<path fill="#B8F2E6" d="M157.135 816.141L157.716 816.143C163.807 817.69 171.926 816.767 178.27 816.77L216.307 816.754L379.227 816.712C379.376 816.739 379.525 816.768 379.674 816.792C383.634 817.435 387.914 816.522 391.756 817.378C391.629 818.222 391.295 818.779 391.822 819.513C396.138 825.531 412.549 837.136 419.176 843.015C440.026 861.509 458.753 895.147 463.168 922.594C464.367 930.049 463.667 937.495 464.071 944.983C463.946 950.244 464.607 957.949 462.769 962.838C460.515 957.635 458.829 952.199 456.675 946.953C453.518 939.26 449.709 931.586 445.721 924.287C429.011 893.704 398.162 874.877 368.31 858.946C380.419 874.108 389.694 882.157 394.545 901.903C388.629 900.196 382.645 898.556 377.131 895.76C368.929 891.599 362.288 885.192 355.201 879.453C349.817 875.093 344.097 871.037 338.363 867.154C294.418 837.394 286.306 862.3 245.282 870.022C225.573 873.732 207.979 867.896 191.718 856.703C181.082 849.382 159.528 828.938 157.135 816.141Z"/>
	<defs>
		<linearGradient id="gradient_2" gradientUnits="userSpaceOnUse" x1="441.79791" y1="926.25464" x2="517.79742" y2="891.13208">
			<stop offset="0" stop-color="#87EEEE"/>
			<stop offset="1" stop-color="#D3FAFE"/>
		</linearGradient>
	</defs>
	<path fill="url(#gradient_2)" d="M379.227 816.712L485.395 816.905C485.801 838.177 499.664 857.648 499.773 878.872C499.812 886.387 496.969 893.671 494.603 900.696C488.822 917.859 486.489 934.537 490.359 952.439C492.637 962.98 496.679 973.04 501.828 982.505C504.49 987.4 507.531 992.164 509.878 997.218C513.81 1005.68 516.359 1014.82 517.963 1024L495.962 1024C494.894 1018 493.863 1011.98 492.522 1006.03C488.797 989.514 482.207 974.427 474.353 959.509C471.735 954.538 468.969 948.091 464.071 944.983C463.667 937.495 464.367 930.049 463.168 922.594C458.753 895.147 440.026 861.509 419.176 843.015C412.549 837.136 396.138 825.531 391.822 819.513C391.295 818.779 391.629 818.222 391.756 817.378C387.914 816.522 383.634 817.435 379.674 816.792C379.525 816.768 379.376 816.739 379.227 816.712Z"/>
	<path fill="#FAF3DD" d="M122.45 817.492C122.645 817.77 122.847 818.043 123.037 818.324C124.592 820.621 125.298 823.815 126.286 826.407C127.647 829.971 129.384 833.38 131.468 836.576C133.609 839.796 136.434 842.761 138.977 845.671C153.547 862.342 173.103 878.071 195.127 883.04C202.903 884.794 211.083 886.748 218.994 887.657C232.725 889.237 247.567 888.252 261.3 886.722C266.436 886.149 271.615 884.585 276.657 884.146L276.148 886.076C268.409 889.424 237.838 895.773 229.326 896.362C213.595 897.45 195.689 894.111 181.485 887.049C175.468 884.057 169.076 879.8 162.592 877.995C155.221 875.943 145.5 880.244 139.288 874.54C132.891 868.665 142.717 864.747 142.153 858.286C141.754 853.72 134.828 850.746 131.699 847.853C123.789 840.541 122.989 827.565 122.45 817.492Z"/>
	<path fill="#AED9E0" d="M545.377 884.264C612.866 881.996 597.802 945.686 625.612 961.624C626.989 967.797 627.711 974.082 629.092 980.244C631.558 991.241 636.502 1001.43 642.105 1011.15C644.731 1015.7 648.699 1019.32 651.166 1024L648.427 1024C644.781 1019.65 641.159 1015.29 637.562 1010.9C638.448 1015.38 639.659 1019.64 641.033 1024L599.981 1024C598.636 1012.35 596.222 1000.72 593.352 989.351C589.689 974.846 578.96 943.257 571.72 930.474C568.435 924.673 562.96 917.154 556.987 913.916C555.842 913.295 554.918 913.104 553.644 913.456C553.036 914.045 552.428 914.334 552.317 915.214C551.353 922.839 558.659 948.112 559.612 958.885C560.512 969.074 559.856 979.805 556.145 989.44C554.219 994.439 551.755 999.209 550.021 1004.29C547.844 1010.66 546.676 1017.36 545.635 1024L542.039 1024C537.359 1005.41 536.709 989.069 539.052 970.066C540.218 960.604 541.815 951.343 541.475 941.754C540.922 926.132 532.426 909.482 537.149 893.963C538.52 889.461 541.286 886.46 545.377 884.264Z"/>
	<path fill="#B8F2E6" d="M276.657 884.146C278.216 885.019 279.126 885.449 280.928 885.426C281.128 885.673 281.323 885.925 281.527 886.169C284.406 889.607 289.571 892.1 293.057 895.079C301.458 902.259 308.76 910.934 315.26 919.856C329.471 939.364 331.962 963.717 341.624 985.411C345.334 993.743 350.16 1001.68 354.888 1009.47C357.667 1014.04 361.184 1018.95 362.988 1024L327.829 1024C327.147 1023.27 326.471 1022.54 325.799 1021.81C299.719 993.339 279.702 957.358 276.065 918.431C275.06 907.673 275.671 896.847 276.148 886.076L276.657 884.146Z"/>
	<path fill="#D4E09B" d="M738.587 1024C735.841 1017.25 733.385 1009.78 729.325 1003.68C726.755 999.822 723.323 996.529 720.377 992.958C717.696 989.71 715.484 985.965 713.305 982.366C709.131 975.471 706.453 967.98 702.71 960.887C699.297 954.419 695.161 948.224 691.205 942.076C678.63 922.536 666.757 907.276 646.984 894.462C647.083 891.96 646.73 888.608 648.761 886.799C653.09 882.944 663.412 884.244 668.769 884.84C680.163 886.107 696.85 893.618 706.742 893.022C709.54 892.853 712.287 891.618 714.462 889.888C715.975 888.684 717.39 887.298 718.803 885.977C724.492 885.858 729.611 885.958 735.077 887.656C746.693 891.265 771.87 908.531 780.912 917.245C809.291 944.599 797.526 1000.98 821.78 1024L738.587 1024Z"/>
	<path fill="#AED9E0" d="M280.928 885.426C300.663 885.051 319.712 892.663 333.754 906.535C350.264 922.638 370.204 954.142 372.189 977.445C382.725 986.845 391.796 995.87 397.157 1009.27C399.093 1014.11 400.455 1019.19 402.427 1024L362.988 1024C361.184 1018.95 357.667 1014.04 354.888 1009.47C350.16 1001.68 345.334 993.743 341.624 985.411C331.962 963.717 329.471 939.364 315.26 919.856C308.76 910.934 301.458 902.259 293.057 895.079C289.571 892.1 284.406 889.607 281.527 886.169C281.323 885.925 281.128 885.673 280.928 885.426Z"/>
	<path fill="#FAF3DD" d="M827.45 923.255C827.553 920.557 827.711 917.754 828.884 915.284C837.471 897.203 865.552 901.116 882.191 897.236C890.897 895.206 898.366 891.073 906.684 888.17C902.376 910.742 899.215 913.633 881.187 927.107C880.71 926.923 879.781 926.601 879.263 926.686C877.507 926.974 875.074 928.362 873.304 928.943C866.264 931.252 859.072 932.997 851.615 932.781C842.38 932.515 833.951 930.085 827.45 923.255Z"/>
	<path fill="#B8F2E6" d="M39.4102 970.075C38.6501 970.401 39.1153 970.308 37.9878 970.041C37.9246 969.881 37.8416 969.728 37.7984 969.562C36.0841 962.983 60.3476 919.331 65.0903 909.551C67.7131 904.143 69.3944 897.948 72.5557 892.873C72.9946 893.008 73.898 893.264 74.2789 893.483C75.3488 894.097 75.5813 895.276 75.725 896.4C76.2868 900.796 74.4882 906.985 73.6433 911.375C67.5972 942.79 57.9156 947.419 39.4102 970.075Z"/>
	<path fill="#B8F2E6" d="M545.635 1024C546.676 1017.36 547.844 1010.66 550.021 1004.29C551.755 999.209 554.219 994.439 556.145 989.44C559.856 979.805 560.512 969.074 559.612 958.885C558.659 948.112 551.353 922.839 552.317 915.214C552.428 914.334 553.036 914.045 553.644 913.456C554.918 913.104 555.842 913.295 556.987 913.916C562.96 917.154 568.435 924.673 571.72 930.474C578.96 943.257 589.689 974.846 593.352 989.351C596.222 1000.72 598.636 1012.35 599.981 1024L545.635 1024Z"/>
	<path fill="#FAF3DD" d="M625.612 961.624C630.243 962.078 635.239 963.058 639.086 959.774C643.187 956.272 645.532 950.723 645.756 945.406C646.182 935.314 640.938 927.099 636.725 918.397C658.134 935.19 672.027 957.297 675.217 984.598C676.801 998.154 675.401 1010.82 672.094 1024L651.166 1024C648.699 1019.32 644.731 1015.7 642.105 1011.15C636.502 1001.43 631.558 991.241 629.092 980.244C627.711 974.082 626.989 967.797 625.612 961.624Z"/>
	<path fill="#D4E09B" d="M464.071 944.983C468.969 948.091 471.735 954.538 474.353 959.509C482.207 974.427 488.797 989.514 492.522 1006.03C493.863 1011.98 494.894 1018 495.962 1024L462.167 1024C467.033 1009.15 468.429 995.026 465.851 979.502C464.926 973.931 463.499 968.438 462.769 962.838C464.607 957.949 463.946 950.244 464.071 944.983Z"/>
	<path fill="#FAF3DD" d="M641.033 1024C639.659 1019.64 638.448 1015.38 637.562 1010.9C641.159 1015.29 644.781 1019.65 648.427 1024L641.033 1024Z"/>
</svg>
