<?xml version="1.0" encoding="utf-8" ?>
<svg xmlns="http://www.w3.org/2000/svg" xmlns:xlink="http://www.w3.org/1999/xlink" width="1024" height="1024">
	<path fill="#FAF3DD" d="M0 0L273.095 0L531.559 0L531.183 0.224835C525.085 3.81695 518.826 6.50996 513.162 10.8969C499.955 21.1246 489.352 33.8999 477.269 45.2889C468.028 54 457.437 60.8441 449.711 71.1169C443.946 78.7826 440.175 87.1166 437.723 96.3723C433.372 112.8 433.487 130.85 434.34 147.748C434.77 156.274 435.685 164.743 434.814 173.27C433.204 189.022 424.779 202.772 421.228 218.075C418.763 228.699 418.326 239.384 417.564 250.205C415.544 278.91 407.878 296.457 390.693 319.145C388.818 321.622 383.477 331.084 381.308 332.119C381.186 332.177 381.049 332.199 380.919 332.239C372.04 331.699 363.227 331.607 354.389 332.764C320.056 337.256 272.013 357.312 246.202 380.345C241.306 384.715 237.145 389.575 233.228 394.828C224.402 406.662 203.224 442.533 187.317 441.375C181.237 440.933 175.42 435.27 171.785 430.725C164.03 421.029 158.722 408.629 152.131 398.048C131.56 365.02 105.568 352.515 71.4628 337.879L71.1661 337.648C62.6109 334.416 54.1908 330.895 45.4792 328.087C30.7532 323.34 15.3082 320.423 0 318.32L0 0Z"/>
	<path fill="#AED9E0" d="M531.559 0L625.932 0C616.012 14.1804 609.712 24.1714 595.46 35.0748C586.96 41.5786 576.973 47.0434 569.685 54.9336C563.713 61.3997 560.386 70.1936 557.345 78.3181C549.585 99.0511 544.081 119.6 548.06 141.888C549.976 152.624 553.408 163.312 557.347 173.47C560.3 181.086 563.665 188.641 565.828 196.53C567.529 202.733 568.359 209.074 567.489 215.48C564.247 239.353 539.088 283.309 525.265 303.322C512.746 321.447 496.83 336.89 482.662 353.72C468.558 370.474 456.088 389.179 443.904 407.364C435 420.653 425.648 433.925 418.389 448.214C412.7 459.413 408.189 471.2 405.916 483.585C402.217 503.74 405.25 526.848 392.761 544.344C382.698 558.44 365.997 562.724 352.86 572.939C341.771 581.562 333.551 593.642 321.893 601.594C315.992 605.62 309.652 608.762 302.585 610.039C291.691 612.01 280.702 610.092 270.439 606.208C258.627 601.739 248.238 593.312 237.342 587.007C228.378 581.821 218.898 577.292 209.726 572.458C200.533 567.612 191.456 562.386 182.153 557.77C187.255 550.341 191.128 541.522 195.768 533.727C199.885 526.811 204.913 520.479 209.179 513.666C216.324 502.258 219.754 487.091 221.38 473.889C235.727 475.335 250.412 475.472 264.475 471.915C296.869 463.721 322.292 435.194 344.446 411.815C351.043 404.854 359.027 398.242 363.952 389.92C366.494 385.622 369.726 378.172 368.468 373.164L369.378 372.898C375.645 370.208 381.839 367.861 388.454 366.163C401.457 362.824 416.062 361.001 428.218 355.208C430.139 354.292 431.57 353.698 432.301 351.622C432.11 350.653 431.855 349.982 431.226 349.227C423.077 339.436 393.437 333.627 381.418 332.422L380.919 332.239C381.049 332.199 381.186 332.177 381.308 332.119C383.477 331.084 388.818 321.622 390.693 319.145C407.878 296.457 415.544 278.91 417.564 250.205C418.326 239.384 418.763 228.699 421.228 218.075C424.779 202.772 433.204 189.022 434.814 173.27C435.685 164.743 434.77 156.274 434.34 147.748C433.487 130.85 433.372 112.8 437.723 96.3723C440.175 87.1166 443.946 78.7826 449.711 71.1169C457.437 60.8441 468.028 54 477.269 45.2889C489.352 33.8999 499.955 21.1246 513.162 10.8969C518.826 6.50996 525.085 3.81695 531.183 0.224835L531.559 0Z"/>
	<defs>
		<linearGradient id="gradient_0" gradientUnits="userSpaceOnUse" x1="323.71527" y1="205.36522" x2="921.12744" y2="445.5896">
			<stop offset="0" stop-color="#DEF4EA"/>
			<stop offset="1" stop-color="#FCFCF3"/>
		</linearGradient>
	</defs>
	<path fill="url(#gradient_0)" d="M625.932 0L1024 0L1024 191.937C995.31 192.726 921.422 198.882 898.13 210.914C895.484 212.281 893.081 214.347 891.032 216.498C880.848 227.188 882.581 245.04 882.995 258.759C883.097 262.16 883.627 266.229 882.846 269.536C881.141 267.683 879.47 266.595 877.176 265.566C856.215 259.092 831.649 265.685 812.879 275.581C805.227 279.615 797.732 284.396 791 289.819C779.308 299.24 733.191 343.811 728.812 356.012C714.557 376.161 706.512 409.961 705.564 434.59C705.24 443.006 706.42 451.401 706.141 459.793C699.028 458.598 691.351 459.049 684.814 462.352C673.376 458.006 662.597 452.994 652.057 446.751C636.497 437.534 629.908 429.592 611.092 425.748C588.569 421.146 551.129 422.068 528.401 426.79C514.674 429.642 497.976 435.566 486.158 443.313C483.914 443.783 481.716 445.405 479.743 446.559L479.445 447.14C467.806 452.83 455.406 461.31 451.083 474.139C450.498 475.875 450.196 477.266 450.886 479.018C452.082 480.1 453.412 480.298 454.987 480.226C464.884 479.768 475.96 470.211 485.494 466.756C500.757 461.225 519.419 459.014 535.539 458.343C533.108 463.142 523.901 469.386 519.754 473.51C512.603 480.532 505.691 487.793 499.03 495.28C483.948 512.327 469.132 529.778 455.96 548.355C449.983 556.785 445.839 567.154 439.082 574.907C428.015 587.606 409.948 597.217 396.699 607.84C388.716 614.301 380.851 620.906 373.108 627.652C365.59 634.285 358.197 641.297 349.982 647.071C343.606 651.553 336.798 655.265 329.365 657.667C301.921 666.536 275.486 654.37 249.869 645.794C243.457 643.648 236.603 642.22 230.067 640.37C222.663 638.274 212.139 637.936 205.498 635.506C196.296 632.378 175.165 630.226 164.979 629.724L164.871 629.249C166.607 608.065 171.689 578.097 181.357 559.2L182.153 557.77C191.456 562.386 200.533 567.612 209.726 572.458C218.898 577.292 228.378 581.821 237.342 587.007C248.238 593.312 258.627 601.739 270.439 606.208C280.702 610.092 291.691 612.01 302.585 610.039C309.652 608.762 315.992 605.62 321.893 601.594C333.551 593.642 341.771 581.562 352.86 572.939C365.997 562.724 382.698 558.44 392.761 544.344C405.25 526.848 402.217 503.74 405.916 483.585C408.189 471.2 412.7 459.413 418.389 448.214C425.648 433.925 435 420.653 443.904 407.364C456.088 389.179 468.558 370.474 482.662 353.72C496.83 336.89 512.746 321.447 525.265 303.322C539.088 283.309 564.247 239.353 567.489 215.48C568.359 209.074 567.529 202.733 565.828 196.53C563.665 188.641 560.3 181.086 557.347 173.47C553.408 163.312 549.976 152.624 548.06 141.888C544.081 119.6 549.585 99.0511 557.345 78.3181C560.386 70.1936 563.713 61.3997 569.685 54.9336C576.973 47.0434 586.96 41.5786 595.46 35.0748C609.712 24.1714 616.012 14.1804 625.932 0Z"/>
	<path fill="#AED9E0" d="M882.846 269.536C883.627 266.229 883.097 262.16 882.995 258.759C882.581 245.04 880.848 227.188 891.032 216.498C893.081 214.347 895.484 212.281 898.13 210.914C921.422 198.882 995.31 192.726 1024 191.937L1024 478.97C1008.01 491.406 996.045 509.254 978.922 520.08C965.836 528.354 952.279 532.634 937.671 537.134C930.831 539.241 923.71 541.331 917.247 544.43C907.404 549.151 897.907 557.122 890.558 565.12C887.539 568.404 883.954 573.615 880.165 575.914C876.378 578.212 871.67 579.448 867.507 580.966C857.93 584.459 848.374 588.335 840.078 594.366C822.57 607.094 819.244 629.351 802.435 642.52C798.466 645.63 793.863 647.838 789.376 650.086C780.735 627.265 772.086 604.17 761.179 582.314C755.943 571.824 749.73 562.057 743.813 551.964C741.327 547.722 739.269 543.258 736.849 538.985C734.121 531.168 733.478 522.907 732.582 514.729L732.635 509.725C732.84 510.773 732.792 510.348 732.859 511.343C732.944 512.606 732.886 513.76 733.488 514.907C741.584 515.144 751.843 511.053 759.097 507.658C773.302 501.009 784.658 489.128 798.491 481.562C806.344 477.267 814.328 473.653 822.631 470.322C831.09 466.929 840.448 463.862 848.105 458.868C871.122 443.853 880.694 420.162 886.082 394.189C891.289 369.089 895.336 303.079 881.272 281.562C882.316 279.768 882.966 277.981 883.641 276.022C883.551 273.809 883.218 271.713 882.846 269.536Z"/>
	<path fill="#B1AB33" d="M728.812 356.012C733.191 343.811 779.308 299.24 791 289.819C797.732 284.396 805.227 279.615 812.879 275.581C831.649 265.685 856.215 259.092 877.176 265.566C873.19 267.812 868.25 269.123 863.88 270.455C843.971 276.522 833.146 277.361 819.11 294.1L818.956 295.064C817.334 298.01 811.705 305.407 809.009 307.091C803.516 310.808 800.9 320.162 794.842 322.321C792.843 321.521 790.967 319.737 789.256 318.427C789.297 318.255 789.336 318.082 789.379 317.91C791.304 310.154 802.219 300.381 801.639 295.015C800.678 294.37 800.104 294.251 798.935 294.415C788.097 295.938 756.423 325.719 748.156 334.65C742.229 341.045 736.832 347.912 732.02 355.182C730.701 357.164 727.438 361.353 727.166 363.444C726.659 364.657 725.746 366.277 725.73 367.566C726.638 367.179 727.102 366.008 727.633 365.179C729.847 362.672 731.062 361.879 734.279 361.156C734.863 361.327 735.431 361.289 735.719 361.891C738.9 368.529 720.001 405.917 720.761 415.13C719.155 420.537 715.462 425.026 714.199 430.602C710.847 440.153 710.244 451.279 709.553 461.329L706.141 459.793C706.42 451.401 705.24 443.006 705.564 434.59C706.512 409.961 714.557 376.161 728.812 356.012Z"/>
	<path fill="#9C8C0B" d="M877.176 265.566C879.47 266.595 881.141 267.683 882.846 269.536C883.218 271.713 883.551 273.809 883.641 276.022C876.426 281.004 867.342 284.335 861.406 290.848C856.271 296.481 853.097 304.102 849.44 310.733C845.683 317.547 841.491 324.166 837.463 330.823C829.798 343.491 820.916 361.568 806.202 367.091C798.42 370.013 789.361 367.971 781.262 368.167C776.947 368.272 772.883 369.138 768.718 370.202C776.483 362.291 789.253 348.519 795.528 339.65C802.995 329.095 808.79 317.295 817.597 307.713C822.464 302.418 828.044 298.059 834.061 294.145C839.64 290.517 845.823 287.13 850.511 282.349C851.684 281.153 852.888 280.019 852.882 278.244L852.051 277.634C840.365 278.34 834.447 279.842 825.944 288.43C823.911 290.484 821.799 293.038 819.473 294.728C819.307 294.849 819.128 294.952 818.956 295.064L819.11 294.1C833.146 277.361 843.971 276.522 863.88 270.455C868.25 269.123 873.19 267.812 877.176 265.566Z"/>
	<path fill="#846C07" d="M768.718 370.202C772.883 369.138 776.947 368.272 781.262 368.167C789.361 367.971 798.42 370.013 806.202 367.091C820.916 361.568 829.798 343.491 837.463 330.823C841.491 324.166 845.683 317.547 849.44 310.733C853.097 304.102 856.271 296.481 861.406 290.848C867.342 284.335 876.426 281.004 883.641 276.022C882.966 277.981 882.316 279.768 881.272 281.562C878.2 287.124 873.405 291.553 870.472 297.103C867.143 303.404 864.892 310.217 861.869 316.66C854.049 333.04 842.901 347.612 829.137 359.445C814.629 371.834 797.978 375.897 780.653 382.471C760.769 390.015 734.976 408.655 724.24 427.16C717.951 438.001 714.432 450.462 711.946 462.668L709.553 461.329C710.244 451.279 710.847 440.153 714.199 430.602C715.462 425.026 719.155 420.537 720.761 415.13C725.1 406.83 730.979 399.48 736.636 392.062C752.721 370.968 770.352 351.49 788.438 332.12C790.836 330.107 793.863 326.216 795.268 323.475L794.842 322.321C800.9 320.162 803.516 310.808 809.009 307.091C803.864 314.763 797.906 322.563 791.974 329.657C785.126 337.846 777.586 345.465 770.596 353.536C761.574 363.956 717.44 416.211 718.26 426.461C719.813 422.2 721.975 418.186 724.676 414.544C731.298 405.675 740.03 397.646 747.97 389.943C754.82 383.296 761.598 376.562 768.718 370.202Z"/>
	<path fill="#CACA70" d="M818.956 295.064C819.128 294.952 819.307 294.849 819.473 294.728C821.799 293.038 823.911 290.484 825.944 288.43C834.447 279.842 840.365 278.34 852.051 277.634L852.882 278.244C852.888 280.019 851.684 281.153 850.511 282.349C845.823 287.13 839.64 290.517 834.061 294.145C828.044 298.059 822.464 302.418 817.597 307.713C808.79 317.295 802.995 329.095 795.528 339.65C789.253 348.519 776.483 362.291 768.718 370.202C761.598 376.562 754.82 383.296 747.97 389.943C740.03 397.646 731.298 405.675 724.676 414.544C721.975 418.186 719.813 422.2 718.26 426.461C717.44 416.211 761.574 363.956 770.596 353.536C777.586 345.465 785.126 337.846 791.974 329.657C797.906 322.563 803.864 314.763 809.009 307.091C811.705 305.407 817.334 298.01 818.956 295.064Z"/>
	<path fill="#FAF3DD" d="M881.272 281.562C895.336 303.079 891.289 369.089 886.082 394.189C880.694 420.162 871.122 443.853 848.105 458.868C840.448 463.862 831.09 466.929 822.631 470.322C814.328 473.653 806.344 477.267 798.491 481.562C784.658 489.128 773.302 501.009 759.097 507.658C751.843 511.053 741.584 515.144 733.488 514.907C732.886 513.76 732.944 512.606 732.859 511.343C732.792 510.348 732.84 510.773 732.635 509.725C732.482 499.826 732.255 490.181 728.237 480.947C725.129 473.805 719.428 465.66 711.946 462.668C714.432 450.462 717.951 438.001 724.24 427.16C734.976 408.655 760.769 390.015 780.653 382.471C797.978 375.897 814.629 371.834 829.137 359.445C842.901 347.612 854.049 333.04 861.869 316.66C864.892 310.217 867.143 303.404 870.472 297.103C873.405 291.553 878.2 287.124 881.272 281.562Z"/>
	<path fill="#D4E09B" d="M789.256 318.427C780.97 324.148 770.466 324.738 762.9 332.128C764.321 333.724 765.167 334.43 767.405 334.577C774.358 335.035 781.441 330.951 788.438 332.12C770.352 351.49 752.721 370.968 736.636 392.062C730.979 399.48 725.1 406.83 720.761 415.13C720.001 405.917 738.9 368.529 735.719 361.891C735.431 361.289 734.863 361.327 734.279 361.156C731.062 361.879 729.847 362.672 727.633 365.179C727.102 366.008 726.638 367.179 725.73 367.566C725.746 366.277 726.659 364.657 727.166 363.444C727.438 361.353 730.701 357.164 732.02 355.182C736.832 347.912 742.229 341.045 748.156 334.65C756.423 325.719 788.097 295.938 798.935 294.415C800.104 294.251 800.678 294.37 801.639 295.015C802.219 300.381 791.304 310.154 789.379 317.91C789.336 318.082 789.297 318.255 789.256 318.427Z"/>
	<path fill="#D4E09B" d="M0 318.32C15.3082 320.423 30.7532 323.34 45.4792 328.087C54.1908 330.895 62.6109 334.416 71.1661 337.648L71.4628 337.879C71.0693 350.537 65.6794 362.101 61.7102 373.915C58.7238 382.804 56.59 391.512 55.737 400.867L55.3234 401.004C36.1063 397.475 17.8525 389.309 0 381.678L0 318.32Z"/>
	<path fill="#CACA70" d="M762.9 332.128C770.466 324.738 780.97 324.148 789.256 318.427C790.967 319.737 792.843 321.521 794.842 322.321L795.268 323.475C793.863 326.216 790.836 330.107 788.438 332.12C781.441 330.951 774.358 335.035 767.405 334.577C765.167 334.43 764.321 333.724 762.9 332.128Z"/>
	<path fill="#FAF3DD" d="M71.4628 337.879C105.568 352.515 131.56 365.02 152.131 398.048C158.722 408.629 164.03 421.029 171.785 430.725C175.42 435.27 181.237 440.933 187.317 441.375C203.224 442.533 224.402 406.662 233.228 394.828C237.145 389.575 241.306 384.715 246.202 380.345C272.013 357.312 320.056 337.256 354.389 332.764C363.227 331.607 372.04 331.699 380.919 332.239L381.418 332.422C374.477 345.199 370.21 358.26 369.378 372.898L368.468 373.164C351.803 379.937 335.586 387.555 318.683 393.785C284.46 406.398 235.092 416.166 214.137 449.121C220.686 457.231 221.792 463.76 221.38 473.889C202.883 471.802 183.598 471.359 164.986 470.917L164.929 470.641C164.99 461.174 168.292 451.247 163.05 442.628C160.535 438.492 156.9 434.997 153.241 431.88C127.025 409.55 87.5256 408.872 55.737 400.867C56.59 391.512 58.7238 382.804 61.7102 373.915C65.6794 362.101 71.0693 350.537 71.4628 337.879Z"/>
	<path fill="#B8F2E6" d="M381.418 332.422C393.437 333.627 423.077 339.436 431.226 349.227C431.855 349.982 432.11 350.653 432.301 351.622C431.57 353.698 430.139 354.292 428.218 355.208C416.062 361.001 401.457 362.824 388.454 366.163C381.839 367.861 375.645 370.208 369.378 372.898C370.21 358.26 374.477 345.199 381.418 332.422Z"/>
	<path fill="#FAF3DD" d="M214.137 449.121C235.092 416.166 284.46 406.398 318.683 393.785C335.586 387.555 351.803 379.937 368.468 373.164C369.726 378.172 366.494 385.622 363.952 389.92C359.027 398.242 351.043 404.854 344.446 411.815C322.292 435.194 296.869 463.721 264.475 471.915C250.412 475.472 235.727 475.335 221.38 473.889C221.792 463.76 220.686 457.231 214.137 449.121Z"/>
	<path fill="#FAF3DD" d="M0 381.678C17.8525 389.309 36.1063 397.475 55.3234 401.004L55.737 400.867C87.5256 408.872 127.025 409.55 153.241 431.88C156.9 434.997 160.535 438.492 163.05 442.628C168.292 451.247 164.99 461.174 164.929 470.641C161.093 471.824 153.151 471.094 148.86 471.217C121.915 471.992 92.8585 474.195 66.2825 469.233L69.288 475.993C67.1638 476.337 64.4824 476.273 62.442 475.544C56.0903 473.277 50.3321 468.323 44.2628 465.271C30.3047 458.252 14.9849 452.52 0 448.113L0 381.678Z"/>
	<path fill="#9C8C0B" d="M520.061 430.826C514.001 432.514 508.011 434.258 502.154 436.578C498.038 438.209 489.992 442.806 486.158 443.313C497.976 435.566 514.674 429.642 528.401 426.79C551.129 422.068 588.569 421.146 611.092 425.748C629.908 429.592 636.497 437.534 652.057 446.751C662.597 452.994 673.376 458.006 684.814 462.352C680.45 466.848 676.673 471.029 673.391 476.411C673.099 476.156 672.804 475.904 672.507 475.654C664.039 468.535 654.6 462.524 643.723 459.896C628.703 456.268 611.307 459.155 595.927 458.956C575.643 458.694 555.873 456.58 535.539 458.343C519.419 459.014 500.757 461.225 485.494 466.756C475.96 470.211 464.884 479.768 454.987 480.226C453.412 480.298 452.082 480.1 450.886 479.018C450.196 477.266 450.498 475.875 451.083 474.139C455.406 461.31 467.806 452.83 479.445 447.14C477.06 449.824 473.241 451.558 470.448 453.888C463.154 459.972 457.4 466.814 451.998 474.553C464.709 470.604 475.621 462.887 488.656 459.301C518.591 451.067 549.772 448.604 580.71 448.353C597.344 448.218 614.039 448.984 630.631 447.598C612.908 439.977 573.722 440.305 553.444 439.549L553.764 437.848C554.443 437.093 554.838 436.588 555.154 435.618C554.805 434.723 554.474 434.312 553.72 433.713C551.146 431.669 547.889 430.298 544.617 430.667C538.837 431.696 533.137 432.791 527.443 434.229C529.532 431.645 532.788 430.018 535.573 428.274C530.314 428.449 525.099 429.306 520.061 430.826Z"/>
	<path fill="#CACA70" d="M520.061 430.826C525.099 429.306 530.314 428.449 535.573 428.274C532.788 430.018 529.532 431.645 527.443 434.229C527.377 434.258 527.313 434.292 527.245 434.317C524.824 435.212 522.399 436.446 519.928 435.363C519.295 433.664 519.744 432.588 520.061 430.826Z"/>
	<path fill="#CACA70" d="M544.617 430.667C547.889 430.298 551.146 431.669 553.72 433.713C554.474 434.312 554.805 434.723 555.154 435.618C554.838 436.588 554.443 437.093 553.764 437.848L553.444 439.549C551.871 439.475 550.249 439.074 548.696 438.791C547.592 436.151 547.14 432.214 544.617 430.667Z"/>
	<path fill="#D4E09B" d="M486.158 443.313C489.992 442.806 498.038 438.209 502.154 436.578C508.011 434.258 514.001 432.514 520.061 430.826C519.744 432.588 519.295 433.664 519.928 435.363C522.399 436.446 524.824 435.212 527.245 434.317C527.313 434.292 527.377 434.258 527.443 434.229C533.137 432.791 538.837 431.696 544.617 430.667C547.14 432.214 547.592 436.151 548.696 438.791C550.249 439.074 551.871 439.475 553.444 439.549C573.722 440.305 612.908 439.977 630.631 447.598C614.039 448.984 597.344 448.218 580.71 448.353C549.772 448.604 518.591 451.067 488.656 459.301C475.621 462.887 464.709 470.604 451.998 474.553C457.4 466.814 463.154 459.972 470.448 453.888C473.241 451.558 477.06 449.824 479.445 447.14L479.743 446.559C481.716 445.405 483.914 443.783 486.158 443.313Z"/>
	<path fill="#FAF3DD" d="M0 448.113C14.9849 452.52 30.3047 458.252 44.2628 465.271C50.3321 468.323 56.0903 473.277 62.442 475.544C64.4824 476.273 67.1638 476.337 69.288 475.993C71.3435 479.235 73.6461 481.731 76.5952 484.208C72.1506 495.382 81.7118 522.312 85.7986 533.49C78.5523 530.357 71.9179 526.087 65.3358 521.773C41.404 506.087 20.6525 486.942 0 467.247L0 448.113Z"/>
	<defs>
		<linearGradient id="gradient_1" gradientUnits="userSpaceOnUse" x1="520.56439" y1="655.67114" x2="377.9418" y2="488.24921">
			<stop offset="0" stop-color="#F5F9E5"/>
			<stop offset="1" stop-color="white"/>
		</linearGradient>
	</defs>
	<path fill="url(#gradient_1)" d="M535.539 458.343C555.873 456.58 575.643 458.694 595.927 458.956C611.307 459.155 628.703 456.268 643.723 459.896C654.6 462.524 664.039 468.535 672.507 475.654C672.804 475.904 673.099 476.156 673.391 476.411C669.527 483.641 666.93 490.633 669.554 498.86C672.138 506.964 678.667 513.564 684.157 519.82C678.244 520.22 671.835 522.762 666.142 524.429C651.116 528.829 636.57 533.108 622.147 539.262C603.617 547.168 584.683 554.635 566.986 564.301C547.77 574.796 529.357 589.008 513.851 604.425C508.894 609.354 504.39 614.745 499.602 619.839C490.536 629.484 481.442 639.244 472.743 649.221C464.302 658.901 456.648 669.305 448.079 678.859C430.482 698.478 408.998 711.351 383.516 718.05C378.414 714.124 373.415 710.155 368.897 705.547C361.843 698.352 356.969 690.697 347.795 685.915C323.331 685.38 301.39 698.428 279.278 706.975C263.894 691.188 247.746 678.702 227.518 669.791C224.879 660.069 220.155 649.329 212.591 642.36C210.209 640.166 207.431 638.428 204.998 636.27L205.498 635.506C212.139 637.936 222.663 638.274 230.067 640.37C236.603 642.22 243.457 643.648 249.869 645.794C275.486 654.37 301.921 666.536 329.365 657.667C336.798 655.265 343.606 651.553 349.982 647.071C358.197 641.297 365.59 634.285 373.108 627.652C380.851 620.906 388.716 614.301 396.699 607.84C409.948 597.217 428.015 587.606 439.082 574.907C445.839 567.154 449.983 556.785 455.96 548.355C469.132 529.778 483.948 512.327 499.03 495.28C505.691 487.793 512.603 480.532 519.754 473.51C523.901 469.386 533.108 463.142 535.539 458.343Z"/>
	<path fill="#735B09" d="M684.814 462.352C691.351 459.049 699.028 458.598 706.141 459.793L709.553 461.329L711.946 462.668C719.428 465.66 725.129 473.805 728.237 480.947C732.255 490.181 732.482 499.826 732.635 509.725L732.582 514.729C730.259 516.185 729.186 517.846 727.923 520.226C726.598 521.498 725.294 522.731 723.876 523.9C722.844 524.75 721.473 526.005 721.307 527.392C721.192 528.355 721.37 529.001 721.616 529.918C721.146 529.46 720.534 529.113 720.206 528.545C718.814 526.134 718.411 513.652 718.013 509.892C717.257 502.744 714.073 480.4 709.517 475.433C707.051 472.745 703.44 472.184 699.971 472.232C698.785 472.252 697.599 472.289 696.414 472.342C705.573 480.94 712.28 500.79 713.733 513.098C708.052 499.945 702.573 483.799 689.968 475.568C686.064 478.501 683.856 482 683.14 486.904C681.685 496.876 687.651 505.873 693.449 513.427C696.773 517.758 710.922 529.91 711.431 531.126C711.669 531.697 711.66 532.714 711.634 533.327C705.845 532.105 701.49 529.33 695.372 530.674L684.157 519.82C678.667 513.564 672.138 506.964 669.554 498.86C666.93 490.633 669.527 483.641 673.391 476.411C676.673 471.029 680.45 466.848 684.814 462.352Z"/>
	<defs>
		<linearGradient id="gradient_2" gradientUnits="userSpaceOnUse" x1="115.3217" y1="502.21164" x2="45.001183" y2="577.52039">
			<stop offset="0" stop-color="#DAFFE3"/>
			<stop offset="1" stop-color="#F7EDEF"/>
		</linearGradient>
	</defs>
	<path fill="url(#gradient_2)" d="M0 467.247C20.6525 486.942 41.404 506.087 65.3358 521.773C71.9179 526.087 78.5523 530.357 85.7986 533.49C81.7118 522.312 72.1506 495.382 76.5952 484.208C86.6397 492.566 98.5977 497.937 109.428 505.141C121.913 513.446 133.159 524.059 145.003 533.287C152.471 539.105 161.2 544.169 168.174 550.475L167.943 551.227C165.355 559.511 161.421 567.322 158.759 575.595C153.412 592.215 150.685 609.808 148.162 627.043C140.3 624.7 131.559 624.886 124.016 621.373C119.635 619.333 115.548 616.404 111.533 613.74C99.5656 605.799 88.6656 597.081 77.4772 588.117C53.6903 569.06 27.9236 549.016 0 536.359L0 467.247Z"/>
	<path fill="#AED9E0" d="M66.2825 469.233C92.8585 474.195 121.915 471.992 148.86 471.217C153.151 471.094 161.093 471.824 164.929 470.641L164.986 470.917C164.815 477.535 166.665 484.341 167.945 490.796C171.963 511.059 174.824 530.301 168.348 550.445L168.174 550.475C161.2 544.169 152.471 539.105 145.003 533.287C133.159 524.059 121.913 513.446 109.428 505.141C98.5977 497.937 86.6397 492.566 76.5952 484.208C73.6461 481.731 71.3435 479.235 69.288 475.993L66.2825 469.233Z"/>
	<path fill="#B8F2E6" d="M164.986 470.917C183.598 471.359 202.883 471.802 221.38 473.889C219.754 487.091 216.324 502.258 209.179 513.666C204.913 520.479 199.885 526.811 195.768 533.727C191.128 541.522 187.255 550.341 182.153 557.77L181.357 559.2L180.927 558.514C178.667 554.838 172.185 552.414 168.348 550.445C174.824 530.301 171.963 511.059 167.945 490.796C166.665 484.341 164.815 477.535 164.986 470.917Z"/>
	<path fill="#846C07" d="M721.616 529.918C721.37 529.001 721.192 528.355 721.307 527.392C721.473 526.005 722.844 524.75 723.876 523.9C725.294 522.731 726.598 521.498 727.923 520.226C728.125 524.999 729.32 529.541 730.543 534.139C729.948 534.582 729.588 534.994 729.115 535.557C729.017 536.723 729.001 538.585 728.484 539.639C727.865 540.902 727.429 541.11 726.237 541.689C721.771 541.559 716.382 536.789 713.237 533.799L711.634 533.327C711.66 532.714 711.669 531.697 711.431 531.126C710.922 529.91 696.773 517.758 693.449 513.427C687.651 505.873 681.685 496.876 683.14 486.904C683.856 482 686.064 478.501 689.968 475.568C702.573 483.799 708.052 499.945 713.733 513.098C712.28 500.79 705.573 480.94 696.414 472.342C697.599 472.289 698.785 472.252 699.971 472.232C703.44 472.184 707.051 472.745 709.517 475.433C714.073 480.4 717.257 502.744 718.013 509.892C718.411 513.652 718.814 526.134 720.206 528.545C720.534 529.113 721.146 529.46 721.616 529.918Z"/>
	<path fill="#FAF3DD" d="M789.376 650.086C793.863 647.838 798.466 645.63 802.435 642.52C819.244 629.351 822.57 607.094 840.078 594.366C848.374 588.335 857.93 584.459 867.507 580.966C871.67 579.448 876.378 578.212 880.165 575.914C883.954 573.615 887.539 568.404 890.558 565.12C897.907 557.122 907.404 549.151 917.247 544.43C923.71 541.331 930.831 539.241 937.671 537.134C952.279 532.634 965.836 528.354 978.922 520.08C996.045 509.254 1008.01 491.406 1024 478.97L1024 849.67C1022.2 850.77 1020.37 851.827 1018.68 853.089C1012.09 847.85 1006.21 841.587 999.158 836.999C982.998 826.483 948.872 814.777 930.21 816.511C928.239 816.694 926.515 817.229 924.685 817.957L924.076 818.814C928.015 823.268 952.225 833.568 959.388 837.646C968.85 843.032 978.436 849.067 987.07 855.704C980.54 857.258 973.765 858.041 967.133 859.096C954.668 861.078 942.602 863.8 929.886 862.349C919.485 861.163 909.512 857.535 899.717 854.005C868.907 842.902 853.149 843.197 821.435 851.445C821.055 851.111 820.797 850.793 820.649 850.283C819.912 847.74 820.109 843.755 819.891 841.053C819.302 833.853 818.67 826.656 817.994 819.463C814.816 786.595 812.754 753.044 807.203 720.505C803.113 696.533 796.827 673.218 789.376 650.086Z"/>
	<path fill="#B89510" d="M727.923 520.226C729.186 517.846 730.259 516.185 732.582 514.729C733.478 522.907 734.121 531.168 736.849 538.985C735.547 539.474 735.27 539.086 734.004 538.562C733.448 537.762 733.024 537.079 732.242 536.48C732.094 536.367 731.934 536.273 731.78 536.169L730.543 534.139C729.32 529.541 728.125 524.999 727.923 520.226Z"/>
	<path fill="#AED9E0" d="M684.157 519.82L695.372 530.674C699.225 534.331 703.727 537.663 708.097 540.686C713.117 544.958 718.127 549.219 722.957 553.705C730.76 562.951 738.029 572.09 743.401 583.039C748.195 594.003 753.199 604.821 757.167 616.123C760.183 624.711 762.326 633.58 765.267 642.17C766.708 646.381 769.81 651.64 770.333 655.945C756.812 660.851 744.056 661.263 730.055 663.123C718.1 664.615 706.255 666.885 694.596 669.919C680.98 673.276 667.641 677.671 654.696 683.066C647.596 686.076 640.734 690.041 633.462 692.58C625.868 695.232 617.865 696.907 610.047 698.766C596.962 701.878 583.962 704.861 571.118 708.874C558.841 712.637 546.754 716.995 534.901 721.934C528.315 724.622 521.63 728.129 514.846 730.209C508.348 732.202 500.804 731.78 494.055 732.628C478.643 734.565 462.299 738.829 448.069 745.079C434.599 750.995 418.208 759.948 411.685 773.963C408.091 781.685 407.367 790.461 406.726 798.846C405.235 818.334 404.232 838.979 393.121 855.828C374.328 852.912 355.239 849.02 337.188 843.004C323.071 838.299 309.299 832.353 295.343 827.166C289.738 823.552 277.891 819.641 271.246 816.878C254.178 809.779 237.163 802.432 219.275 797.59C208.512 794.677 197.441 792.779 186.516 790.574C175.285 788.364 164.125 785.806 153.052 782.906C154.777 779.5 159.794 727.298 160.126 718.878C171.086 722.64 182.643 726.23 194.159 727.71C214.839 730.369 236.491 728.848 257.283 728.485C285.117 727.997 313.616 729.121 341.285 726.117C355.612 724.562 369.556 721.545 383.516 718.05C408.998 711.351 430.482 698.478 448.079 678.859C456.648 669.305 464.302 658.901 472.743 649.221C481.442 639.244 490.536 629.484 499.602 619.839C504.39 614.745 508.894 609.354 513.851 604.425C529.357 589.008 547.77 574.796 566.986 564.301C584.683 554.635 603.617 547.168 622.147 539.262C636.57 533.108 651.116 528.829 666.142 524.429C671.835 522.762 678.244 520.22 684.157 519.82Z"/>
	<path fill="#9C8C0B" d="M695.372 530.674C701.49 529.33 705.845 532.105 711.634 533.327L713.237 533.799C716.382 536.789 721.771 541.559 726.237 541.689C727.429 541.11 727.865 540.902 728.484 539.639C729.001 538.585 729.017 536.723 729.115 535.557C729.588 534.994 729.948 534.582 730.543 534.139L731.78 536.169C733.624 540.891 735.242 545.767 737.336 550.378C737.625 553.57 740.01 556.224 739.756 559.508C739.679 560.504 739.567 560.338 738.86 560.905C737.417 560.769 736.709 560.291 735.508 559.546C734.538 557.837 734.768 556.502 734.759 554.593C733.362 553.351 731.925 552.03 730.319 551.061C727.767 549.522 710.626 541.149 708.097 540.686C703.727 537.663 699.225 534.331 695.372 530.674Z"/>
	<path fill="#E0BA5A" d="M731.78 536.169C731.934 536.273 732.094 536.367 732.242 536.48C733.024 537.079 733.448 537.762 734.004 538.562C735.27 539.086 735.547 539.474 736.849 538.985C739.269 543.258 741.327 547.722 743.813 551.964C749.73 562.057 755.943 571.824 761.179 582.314C772.086 604.17 780.735 627.265 789.376 650.086C796.827 673.218 803.113 696.533 807.203 720.505C812.754 753.044 814.816 786.595 817.994 819.463C818.67 826.656 819.302 833.853 819.891 841.053C820.109 843.755 819.912 847.74 820.649 850.283C820.797 850.793 821.055 851.111 821.435 851.445L820.534 851.875C820.249 853.345 820.263 853.653 820.72 855.078L821.229 855.514L821.577 856.158C821.253 858.369 821.253 860.323 822.375 862.331L823.079 862.742C823.241 863.978 823.456 865.205 823.447 866.453C823.074 866.778 822.555 866.989 822.328 867.429C821.802 868.446 821.651 870.769 821.386 871.985C820.041 878.151 817.867 884.986 813.366 889.648C801.94 901.484 783.176 911.448 768.266 918.525C761.338 921.813 754.079 924.734 747.363 928.421C742.075 931.324 724.256 943.599 719.412 943.387C719.241 943.379 719.075 943.331 718.906 943.303C723.965 940.646 728.086 936.399 733.017 933.502C752.687 921.946 772.496 911.921 790.473 897.65L791.199 897.605C797.183 892.933 802.471 885.887 805.881 879.129C808.455 874.029 811.136 866.9 811.516 861.193C811.97 854.353 810.903 846.789 810.3 839.978C808.66 821.438 806.074 803.004 804.104 784.504C803.027 774.383 803.335 764.165 802.615 754.02C801.764 742.043 799.755 729.782 797.609 717.964C794.028 698.251 788.719 678.532 782.54 659.476C773.383 631.238 762.25 603.043 748.286 576.845C745.867 572.308 743.07 564.87 738.432 562.499C739.346 561.869 740.218 561.168 740.653 560.102C741.822 557.237 738.667 552.818 737.336 550.378C735.242 545.767 733.624 540.891 731.78 536.169Z"/>
	<path fill="#FAF3DD" d="M0 536.359C27.9236 549.016 53.6903 569.06 77.4772 588.117C88.6656 597.081 99.5656 605.799 111.533 613.74C115.548 616.404 119.635 619.333 124.016 621.373C131.559 624.886 140.3 624.7 148.162 627.043C146.497 637.549 146.021 648.006 144.987 658.569C130.852 662.518 120.396 664.401 105.591 662.345C100.784 661.678 95.8503 659.996 91.0286 659.787C76.8722 646.71 17.9949 615.119 0 611.222L0 536.359Z"/>
	<path fill="#B89510" d="M708.097 540.686C710.626 541.149 727.767 549.522 730.319 551.061C731.925 552.03 733.362 553.351 734.759 554.593C734.768 556.502 734.538 557.837 735.508 559.546C736.709 560.291 737.417 560.769 738.86 560.905C739.567 560.338 739.679 560.504 739.756 559.508C740.01 556.224 737.625 553.57 737.336 550.378C738.667 552.818 741.822 557.237 740.653 560.102C740.218 561.168 739.346 561.869 738.432 562.499C733.237 559.688 728.395 556.033 722.957 553.705C718.127 549.219 713.117 544.958 708.097 540.686Z"/>
	<path fill="#D4E09B" d="M168.174 550.475L168.348 550.445C172.185 552.414 178.667 554.838 180.927 558.514L181.357 559.2C171.689 578.097 166.607 608.065 164.871 629.249C159.439 627.88 153.573 628.499 148.162 627.043C150.685 609.808 153.412 592.215 158.759 575.595C161.421 567.322 165.355 559.511 167.943 551.227L168.174 550.475Z"/>
	<defs>
		<linearGradient id="gradient_3" gradientUnits="userSpaceOnUse" x1="734.61383" y1="736.25208" x2="802.99561" y2="708.32318">
			<stop offset="0" stop-color="#D8AB37"/>
			<stop offset="1" stop-color="#EBCF7D"/>
		</linearGradient>
	</defs>
	<path fill="url(#gradient_3)" d="M722.957 553.705C728.395 556.033 733.237 559.688 738.432 562.499C743.07 564.87 745.867 572.308 748.286 576.845C762.25 603.043 773.383 631.238 782.54 659.476C788.719 678.532 794.028 698.251 797.609 717.964C799.755 729.782 801.764 742.043 802.615 754.02C803.335 764.165 803.027 774.383 804.104 784.504C806.074 803.004 808.66 821.438 810.3 839.978C810.903 846.789 811.97 854.353 811.516 861.193C811.136 866.9 808.455 874.029 805.881 879.129C802.471 885.887 797.183 892.933 791.199 897.605L790.473 897.65C791.45 895.77 794.467 893.349 795.993 891.806C795.873 887.548 796.14 883.291 796.284 879.036C796.347 877.175 796.813 875.063 795.512 873.671C795.925 873.206 795.771 873.479 795.929 872.68C796.282 870.9 796.571 867.283 795.577 865.816C796.302 865.374 796.347 865.133 796.485 864.254C797.035 860.733 797.364 841.383 796.083 839.288C796.162 839.14 796.261 839.001 796.319 838.844C797.894 834.577 796.558 820.039 796.335 814.606C794.73 775.36 792.245 739.296 783.564 700.811C781.653 692.342 779.923 683.642 777.032 675.451C775.515 670.042 773.464 664.792 771.904 659.39C774.231 661.214 775.737 668.664 776.878 671.63C779.175 677.607 781.783 683.586 783.699 689.691C789.514 708.215 792.814 728.311 795.437 747.529C796.06 752.094 797.951 779.555 798.798 781.174L799.538 781.065C800.662 777.232 799.813 771.463 799.621 767.429C797.958 732.62 790.155 696.973 778.918 664.047C774.558 651.271 748.135 577.282 740.585 573.564C740.976 576.588 743.338 579.383 743.406 582.269C743.412 582.526 743.403 582.782 743.401 583.039C738.029 572.09 730.76 562.951 722.957 553.705Z"/>
	<path fill="#F7E2AB" d="M743.401 583.039C743.403 582.782 743.412 582.526 743.406 582.269C743.338 579.383 740.976 576.588 740.585 573.564C748.135 577.282 774.558 651.271 778.918 664.047C790.155 696.973 797.958 732.62 799.621 767.429C799.813 771.463 800.662 777.232 799.538 781.065L798.798 781.174C797.951 779.555 796.06 752.094 795.437 747.529C792.814 728.311 789.514 708.215 783.699 689.691C781.783 683.586 779.175 677.607 776.878 671.63C775.737 668.664 774.231 661.214 771.904 659.39C771.216 658.33 770.81 657.113 770.333 655.945C769.81 651.64 766.708 646.381 765.267 642.17C762.326 633.58 760.183 624.711 757.167 616.123C753.199 604.821 748.195 594.003 743.401 583.039Z"/>
	<path fill="#B8F2E6" d="M0 611.222C17.9949 615.119 76.8722 646.71 91.0286 659.787C96.2936 664.284 101.718 668.686 106.76 673.43C118.323 684.02 129.206 695.165 140.41 706.114L140.513 706.426C137.572 728.937 136.428 751.67 132.571 774.077C111.049 764.422 81.32 747.204 65.2342 729.794C58.4795 722.483 54.1649 714.189 48.5567 706.101C36.5111 688.727 18.7594 672.252 0 662.451L0 611.222Z"/>
	<path fill="#E0BA5A" d="M148.162 627.043C153.573 628.499 159.439 627.88 164.871 629.249L164.979 629.724C164.067 637.968 164.267 646.433 163.064 654.617L162.975 658.853L159.989 718.617C152.72 715.274 146.577 711.679 140.513 706.426L140.41 706.114C141.329 701.104 141.51 695.815 141.948 690.736C142.772 680.362 143.717 669.997 144.785 659.645L144.987 658.569C146.021 648.006 146.497 637.549 148.162 627.043Z"/>
	<path fill="#FAF3DD" d="M164.979 629.724C175.165 630.226 196.296 632.378 205.498 635.506L204.998 636.27C207.431 638.428 210.209 640.166 212.591 642.36C220.155 649.329 224.879 660.069 227.518 669.791C247.746 678.702 263.894 691.188 279.278 706.975C301.39 698.428 323.331 685.38 347.795 685.915C356.969 690.697 361.843 698.352 368.897 705.547C373.415 710.155 378.414 714.124 383.516 718.05C369.556 721.545 355.612 724.562 341.285 726.117C313.616 729.121 285.117 727.997 257.283 728.485C236.491 728.848 214.839 730.369 194.159 727.71C182.643 726.23 171.086 722.64 160.126 718.878L159.989 718.617L162.975 658.853L163.064 654.617C164.267 646.433 164.067 637.968 164.979 629.724Z"/>
	<path fill="#B8F2E6" d="M393.121 855.828C404.232 838.979 405.235 818.334 406.726 798.846C407.367 790.461 408.091 781.685 411.685 773.963C418.208 759.948 434.599 750.995 448.069 745.079C462.299 738.829 478.643 734.565 494.055 732.628C500.804 731.78 508.348 732.202 514.846 730.209C521.63 728.129 528.315 724.622 534.901 721.934C546.754 716.995 558.841 712.637 571.118 708.874C583.962 704.861 596.962 701.878 610.047 698.766C617.865 696.907 625.868 695.232 633.462 692.58C640.734 690.041 647.596 686.076 654.696 683.066C667.641 677.671 680.98 673.276 694.596 669.919C706.255 666.885 718.1 664.615 730.055 663.123C744.056 661.263 756.812 660.851 770.333 655.945C770.81 657.113 771.216 658.33 771.904 659.39C773.464 664.792 775.515 670.042 777.032 675.451L776.429 675.737L776.559 677.006C772.934 679.209 750.164 683.97 743.882 685.748C733.445 688.613 723.226 692.218 713.302 696.537C695.209 704.23 678.28 715.331 662.145 726.485C655.019 731.411 648.357 737.126 640.656 741.166C633.699 744.816 625.594 747.818 617.962 749.714C613.333 750.864 608.328 751.56 603.881 753.284C595.209 756.648 586.203 760.372 577.758 764.285C569.833 767.958 562.225 772.513 554.481 776.568C539.656 784.331 507.364 799.171 497.932 811.569L497.493 811.932C467.337 837.337 473.971 865.754 423.98 861.631C413.441 860.762 403.562 856.572 393.121 855.828Z"/>
	<path fill="#FAF3DD" d="M91.0286 659.787C95.8503 659.996 100.784 661.678 105.591 662.345C120.396 664.401 130.852 662.518 144.987 658.569L144.785 659.645C137.074 661.384 129.223 664.123 121.272 664.262C116.885 664.339 112.622 663.654 108.267 663.337C107.773 666.679 107.425 670.123 106.76 673.43C101.718 668.686 96.2936 664.284 91.0286 659.787Z"/>
	<path fill="#FAF3DD" d="M108.267 663.337C112.622 663.654 116.885 664.339 121.272 664.262C129.223 664.123 137.074 661.384 144.785 659.645C143.717 669.997 142.772 680.362 141.948 690.736C141.51 695.815 141.329 701.104 140.41 706.114C129.206 695.165 118.323 684.02 106.76 673.43C107.425 670.123 107.773 666.679 108.267 663.337Z"/>
	<path fill="#FAF3DD" d="M0 662.451C18.7594 672.252 36.5111 688.727 48.5567 706.101C54.1649 714.189 58.4795 722.483 65.2342 729.794C81.32 747.204 111.049 764.422 132.571 774.077L132.598 774.35C130.984 783.706 129.915 793.141 128.119 802.469L127.92 802.845C122.475 801.736 117.071 799.601 111.955 797.467C86.8209 786.983 68.4728 769.978 45.3081 756.731C30.9737 748.534 16.2412 743.21 0 740.244L0 662.451Z"/>
	<defs>
		<linearGradient id="gradient_4" gradientUnits="userSpaceOnUse" x1="467.74014" y1="714.81775" x2="769.18018" y2="887.78412">
			<stop offset="0" stop-color="#FFFDE7"/>
			<stop offset="1" stop-color="#F4F9F8"/>
		</linearGradient>
	</defs>
	<path fill="url(#gradient_4)" d="M497.932 811.569C507.364 799.171 539.656 784.331 554.481 776.568C562.225 772.513 569.833 767.958 577.758 764.285C586.203 760.372 595.209 756.648 603.881 753.284C608.328 751.56 613.333 750.864 617.962 749.714C625.594 747.818 633.699 744.816 640.656 741.166C648.357 737.126 655.019 731.411 662.145 726.485C678.28 715.331 695.209 704.23 713.302 696.537C723.226 692.218 733.445 688.613 743.882 685.748C750.164 683.97 772.934 679.209 776.559 677.006L776.429 675.737L777.032 675.451C779.923 683.642 781.653 692.342 783.564 700.811C792.245 739.296 794.73 775.36 796.335 814.606C796.558 820.039 797.894 834.577 796.319 838.844C796.261 839.001 796.162 839.14 796.083 839.288C787.9 835.757 779.581 832.346 771.139 829.488C778.36 839.097 786.305 841.302 792.581 854.101C777.36 847.5 752.047 846.382 735.404 847.079C719.12 836.729 704.008 835.928 685.863 832.292C695.568 839.918 707.458 843.946 716.986 851.878C713.718 851.243 710.167 850.774 707.136 849.344C700.203 846.073 694.343 840.909 687.474 837.484C668.242 827.894 647.763 820.32 629.625 808.633C622.72 804.184 616.196 799.026 609.795 793.887C606.682 791.389 603.619 788.553 600.289 786.365C604.249 802.947 613.484 813.09 627.704 821.84C634.158 825.812 640.89 829.335 647.281 833.404C655.395 838.571 663.146 844.366 670.949 849.986C662.302 848.802 653.144 849.568 644.416 849.388C637.434 843.887 630.531 838.309 624.053 832.215C622.793 855.625 637.514 866.441 650.08 883.565C639.122 883.805 626.522 883.068 616.068 886.732C606.843 884.418 592.503 881.676 584.325 877.332C601.781 860.271 607.234 851.613 609.093 826.341C601.949 837.941 595.813 850.598 585.919 860.229C581.084 860.775 561.369 861.268 559.025 863.445C561.144 866.515 574.24 868.788 578.314 869.876C573.83 873.669 569.391 877.724 564.682 881.222C553.185 879.341 542.881 880.053 531.396 880.064C541.024 866.424 553.812 857.088 568.322 849.184C573.039 846.614 578.308 844.354 582.642 841.193C549.173 844.898 522.717 866.238 501.061 890.388C492.551 899.878 483.692 910.713 473.002 917.812C468.531 920.782 463.266 922.626 458.365 924.743C451.25 916.625 446.905 906.941 438.721 899.496C432.83 894.219 426.098 889.964 418.803 886.907C414.893 885.262 410.674 883.842 406.962 881.789C400.638 878.292 394.663 872.198 389.104 867.513L389.036 866.501C387.156 864.689 385.068 863.665 382.768 862.505C389.259 862.422 395.763 862.739 402.244 862.598C406.711 862.501 411.164 861.956 415.635 861.974C428.556 862.024 440.373 864.051 453.035 859.887C457.193 858.52 461.007 856.557 464.213 853.52C472.337 845.827 477.84 834.98 484.952 826.313C488.694 821.752 495.423 816.572 497.932 811.569Z"/>
	<path fill="#D4E09B" d="M140.513 706.426C146.577 711.679 152.72 715.274 159.989 718.617L160.126 718.878C159.794 727.298 154.777 779.5 153.052 782.906C146.044 780.532 139.333 777.394 132.598 774.35L132.571 774.077C136.428 751.67 137.572 728.937 140.513 706.426Z"/>
	<path fill="#B8F2E6" d="M0 740.244C16.2412 743.21 30.9737 748.534 45.3081 756.731C68.4728 769.978 86.8209 786.983 111.955 797.467C117.071 799.601 122.475 801.736 127.92 802.845C127.637 804.469 127.44 806.193 126.968 807.768C120.071 807.178 112.625 804.356 106.035 802.234C93.3733 799.33 81.144 796.267 68.9626 791.72C45.9606 783.135 25.1613 771.03 0 769.816L0 740.244Z"/>
	<path fill="#AED9E0" d="M0 769.816C25.1613 771.03 45.9606 783.135 68.9626 791.72C81.144 796.267 93.3733 799.33 106.035 802.234C105.381 809.01 104.677 815.825 104.567 822.637C104.473 828.482 104.82 834.328 104.712 840.171C104.623 844.933 104.062 849.73 104.069 854.477C82.911 853.705 61.7432 855.706 41.1045 860.427C39.7657 858.549 38.4661 856.633 36.9751 854.872C37.4857 857.209 37.8697 859.69 38.7238 861.926C32.53 861.271 8.00197 869.622 0 871.802L0 769.816Z"/>
	<path fill="#F7E2AB" d="M132.598 774.35C139.333 777.394 146.044 780.532 153.052 782.906C150.703 790.816 150.395 800.028 148.914 808.197C141.879 806.895 134.93 804.63 128.119 802.469C129.915 793.141 130.984 783.706 132.598 774.35Z"/>
	<path fill="#FAF3DD" d="M153.052 782.906C164.125 785.806 175.285 788.364 186.516 790.574C197.441 792.779 208.512 794.677 219.275 797.59C237.163 802.432 254.178 809.779 271.246 816.878C277.891 819.641 289.738 823.552 295.343 827.166C301.81 843.432 323.466 859.855 338.503 867.892C342.134 869.832 350.311 872.267 352.632 875.473C352.854 883.506 354.231 891.719 354.931 899.756C355.685 908.417 355.738 917.243 355.652 925.934C332.427 914.47 309.798 905.3 285.721 895.981C298.023 905.024 309.356 914.693 312.829 930.288C297.319 927.751 281.562 925.007 266.723 919.657C258.874 916.827 251.36 913.089 243.691 909.82C235.855 906.48 227.633 903.584 219.483 901.124C232.037 909.684 243.339 917.661 252.922 929.737C240.975 924.747 226.576 921.477 213.613 920.863C214.062 918.192 214.323 916.499 212.657 914.19C208.846 908.908 200.255 906.066 193.995 905.22C192.08 904.962 190.119 904.885 188.189 904.862C187.976 904.828 187.762 904.799 187.55 904.76C186.64 904.595 185.863 904.224 185.017 903.866C176.146 900.11 166.322 902.485 157.745 906.007C149.07 909.569 140.262 914.291 132.08 918.897C131.917 902.37 133.681 891.347 137.145 875.367L137.358 875.141C151.263 873.902 164.864 871.579 178.542 868.803C185.455 867.538 199.943 864.778 204.791 859.843C206.563 858.521 208.298 857.058 209.144 854.95C210.181 852.369 209.788 849.737 208.615 847.28C200.757 830.82 165.229 819.17 148.403 813.369C148.491 811.647 148.735 809.912 148.914 808.197C150.395 800.028 150.703 790.816 153.052 782.906Z"/>
	<defs>
		<linearGradient id="gradient_5" gradientUnits="userSpaceOnUse" x1="616.40253" y1="954.53693" x2="618.1095" y2="790.15167">
			<stop offset="0" stop-color="#BC6303"/>
			<stop offset="1" stop-color="#DA9806"/>
		</linearGradient>
	</defs>
	<path fill="url(#gradient_5)" d="M771.139 829.488C779.581 832.346 787.9 835.757 796.083 839.288C797.364 841.383 797.035 860.733 796.485 864.254C796.347 865.133 796.302 865.374 795.577 865.816C780.692 860.911 765.852 857.824 750.374 855.399C759.176 864.433 770.625 871.33 782.205 876.199C786.696 875.513 791.091 874.727 795.512 873.671C796.813 875.063 796.347 877.175 796.284 879.036C796.14 883.291 795.873 887.548 795.993 891.806C794.467 893.349 791.45 895.77 790.473 897.65C772.496 911.921 752.687 921.946 733.017 933.502C728.086 936.399 723.965 940.646 718.906 943.303C718.756 943.338 718.604 943.364 718.456 943.408C716.896 943.875 715.364 944.873 713.93 945.644C712.812 946.246 712.187 946.597 710.862 946.467C710.306 946.033 709.664 945.643 709.256 945.064C713.846 939.821 718.284 934.715 723.683 930.271C711.086 929.694 696.485 929.98 686.551 938.91C685.05 940.26 683.793 941.79 682.537 943.363C688.615 944.542 698.353 944.474 703.687 947.056C698.059 949.113 685.904 952.056 680.154 951.393C678.581 950 677.001 948.637 675.354 947.332C673.619 949.274 671.902 951.216 670.256 953.235C667.213 954.781 663.431 955.414 660.116 956.258C660.328 954.409 659.949 951.868 659.652 950.013C658.958 945.659 657.062 942.861 653.58 940.292C657.087 939.655 660.534 937.72 663.584 935.938C662.604 934.793 661.606 933.566 660.296 932.786C653.049 928.474 632.429 928.21 623.521 928.549C612.183 928.981 601.388 931.121 589.92 929.74C572.941 927.697 551.045 917.947 534.85 918.795C519.235 919.612 500.165 924.214 484.618 927.366C469.889 930.351 455.117 932.718 440.673 936.951C439.713 934.179 438.58 931.988 437.01 929.534C443.051 928.635 453.649 928.72 458.365 924.743C463.266 922.626 468.531 920.782 473.002 917.812C483.692 910.713 492.551 899.878 501.061 890.388C522.717 866.238 549.173 844.898 582.642 841.193C578.308 844.354 573.039 846.614 568.322 849.184C553.812 857.088 541.024 866.424 531.396 880.064C542.881 880.053 553.185 879.341 564.682 881.222C569.391 877.724 573.83 873.669 578.314 869.876C574.24 868.788 561.144 866.515 559.025 863.445C561.369 861.268 581.084 860.775 585.919 860.229C595.813 850.598 601.949 837.941 609.093 826.341C607.234 851.613 601.781 860.271 584.325 877.332C592.503 881.676 606.843 884.418 616.068 886.732C626.522 883.068 639.122 883.805 650.08 883.565C637.514 866.441 622.793 855.625 624.053 832.215C630.531 838.309 637.434 843.887 644.416 849.388C653.144 849.568 662.302 848.802 670.949 849.986C663.146 844.366 655.395 838.571 647.281 833.404C640.89 829.335 634.158 825.812 627.704 821.84C613.484 813.09 604.249 802.947 600.289 786.365C603.619 788.553 606.682 791.389 609.795 793.887C616.196 799.026 622.72 804.184 629.625 808.633C647.763 820.32 668.242 827.894 687.474 837.484C694.343 840.909 700.203 846.073 707.136 849.344C710.167 850.774 713.718 851.243 716.986 851.878C707.458 843.946 695.568 839.918 685.863 832.292C704.008 835.928 719.12 836.729 735.404 847.079C752.047 846.382 777.36 847.5 792.581 854.101C786.305 841.302 778.36 839.097 771.139 829.488ZM652.182 856.486C661.998 865.277 678.865 869.714 691.816 869.933C689.187 866.502 686.054 863.527 682.784 860.712C673.392 859.107 661.544 856.051 652.182 856.486ZM720.628 861.948C723.847 865.172 726.975 868.408 729.966 871.85C733.183 872.152 736.454 872.35 739.649 872.811C736.451 868.397 725.797 863.024 720.628 861.948ZM582.073 879.841L577.616 883.921C581.158 883.958 584.44 884.061 587.895 884.957L589.11 885.092C588.374 883.262 584.096 880.873 582.298 879.927C582.227 879.89 582.148 879.869 582.073 879.841ZM677.172 880.292C679.391 883.388 681.796 886.341 684.784 888.732C690.382 888.696 695.895 888.413 701.37 887.166L702.028 886.522C699.826 884.952 692.899 885.198 689.891 884.475C685.532 883.426 681.435 881.28 677.172 880.292ZM576.921 884.596C571.485 888.464 565.96 891.96 560.18 895.295C565.224 894.554 570.293 894 575.378 893.633C581.561 893.313 587.594 891.968 593.706 891.076C588.47 888.268 582.53 886.516 576.921 884.596ZM553.531 888.164C538.748 890.187 516.333 897.281 505.052 906.84L504.873 907.626L506.342 907.459C515.32 904.78 528.616 901.915 536.928 898.612C540.255 897.29 543.296 894.979 546.591 893.462C549.114 892.3 553.872 890.675 555.509 888.386C554.531 888.031 554.473 888.004 553.531 888.164ZM639.423 893.457C656.093 897.465 672.86 900.435 689.654 903.812C698.302 905.55 744.097 916.563 749.051 913.44C749.708 913.025 750.143 912.513 750.37 911.753C750.816 910.263 750.44 908.298 750.276 906.783C744.571 905.224 724.747 908.22 720.422 904.494C721.394 903.418 722.822 903.018 723.07 901.543C721.272 902.217 719.921 903.974 718.604 905.328C698.007 901.806 677.454 897.812 656.721 895.227C651.126 894.53 645.051 893.286 639.423 893.457Z"/>
	<path fill="#AED9E0" d="M106.035 802.234C112.625 804.356 120.071 807.178 126.968 807.768C125.334 817.354 123.613 826.924 121.805 836.479C120.638 842.469 119.012 848.602 118.294 854.644L118.1 854.842C113.517 854.178 108.695 854.466 104.069 854.477C104.062 849.73 104.623 844.933 104.712 840.171C104.82 834.328 104.473 828.482 104.567 822.637C104.677 815.825 105.381 809.01 106.035 802.234Z"/>
	<path fill="#E0BA5A" d="M128.119 802.469C134.93 804.63 141.879 806.895 148.914 808.197C148.735 809.912 148.491 811.647 148.403 813.369L148.18 813.397C141.633 811.018 133.907 808.406 126.968 807.768C127.44 806.193 127.637 804.469 127.92 802.845L128.119 802.469Z"/>
	<path fill="#D4E09B" d="M126.968 807.768C133.907 808.406 141.633 811.018 148.18 813.397C147.445 821.277 145.489 829.219 144.03 837C142.944 842.786 142.216 848.933 140.748 854.619L140.689 854.87C139.716 861.649 138.605 868.408 137.358 875.141L137.145 875.367C129.663 875.459 122.184 875.745 114.716 876.226L118.1 854.842L118.294 854.644C119.012 848.602 120.638 842.469 121.805 836.479C123.613 826.924 125.334 817.354 126.968 807.768Z"/>
	<path fill="#FAF3DD" d="M393.121 855.828C403.562 856.572 413.441 860.762 423.98 861.631C473.971 865.754 467.337 837.337 497.493 811.932L497.932 811.569C495.423 816.572 488.694 821.752 484.952 826.313C477.84 834.98 472.337 845.827 464.213 853.52C461.007 856.557 457.193 858.52 453.035 859.887C440.373 864.051 428.556 862.024 415.635 861.974C411.164 861.956 406.711 862.501 402.244 862.598C395.763 862.739 389.259 862.422 382.768 862.505C385.068 863.665 387.156 864.689 389.036 866.501L389.104 867.513C377.205 859.646 365.929 856.838 351.82 855.927C367.523 868.271 387.516 872.955 403.417 884.636C400.255 884.379 397.069 883.974 393.901 884.269C390.141 883.85 385.692 882.174 381.939 881.304C372.461 879.108 362.492 876.917 352.864 875.547L352.632 875.473C350.311 872.267 342.134 869.832 338.503 867.892C323.466 859.855 301.81 843.432 295.343 827.166C309.299 832.353 323.071 838.299 337.188 843.004C355.239 849.02 374.328 852.912 393.121 855.828Z"/>
	<path fill="#FAF3DD" d="M148.18 813.397L148.403 813.369C165.229 819.17 200.757 830.82 208.615 847.28C209.788 849.737 210.181 852.369 209.144 854.95C208.298 857.058 206.563 858.521 204.791 859.843C199.943 864.778 185.455 867.538 178.542 868.803C164.864 871.579 151.263 873.902 137.358 875.141C138.605 868.408 139.716 861.649 140.689 854.87L140.748 854.619C142.216 848.933 142.944 842.786 144.03 837C145.489 829.219 147.445 821.277 148.18 813.397Z"/>
	<path fill="#CE8106" d="M1018.68 853.089C1020.37 851.827 1022.2 850.77 1024 849.67L1024 854.888C1015.07 857.649 1006.29 859.816 996.915 860.395C1002.08 863.598 1008.28 865.341 1014.15 866.744C995.969 867.949 977.896 871.134 959.665 872.349C934.134 874.051 908.618 873.785 883.086 875.967C873.292 876.741 863.517 877.735 853.767 878.949C843.885 880.253 833.837 882.206 823.847 882.178C821.809 890.73 816.346 897.97 811.766 905.369C810.41 907.56 808.612 909.861 807.901 912.351C805.295 913.067 803.079 914.494 800.918 916.09C795.149 919.301 789.669 923.081 783.779 926.062C776.523 929.735 763.955 934.36 757.884 938.728C734.62 949.235 715.817 960.712 699.855 981.239C693.708 989.145 688.683 997.294 685.145 1006.69C683.011 1012.36 681.381 1018.23 679.531 1024L671.174 1024C673.792 1006.88 678.823 989.174 689.279 975.166C692.264 971.874 694.905 968.522 698.335 965.658C699.312 965.08 700.056 964.474 700.903 963.719C704.679 960.351 709.316 957.214 713.638 954.589C704.5 956.891 695.353 959.038 686.049 960.566C681.062 961.386 676.012 961.748 671.029 962.563C649.199 966.134 631.168 973.095 615.817 989.505C611.345 994.285 607.04 999.269 603.698 1004.92C600.193 1010.86 597.976 1017.46 595.918 1024L591.422 1024C595.101 1007.68 602.203 993.733 614.433 982.173C617.548 979.873 620.453 976.704 623.331 974.074C634.761 965.796 646.533 960.141 660.116 956.258C663.431 955.414 667.213 954.781 670.256 953.235C673.545 952.568 676.845 951.954 680.154 951.393C685.904 952.056 698.059 949.113 703.687 947.056C705.63 946.542 707.411 945.855 709.256 945.064C709.664 945.643 710.306 946.033 710.862 946.467C712.187 946.597 712.812 946.246 713.93 945.644C715.364 944.873 716.896 943.875 718.456 943.408C718.604 943.364 718.756 943.338 718.906 943.303C719.075 943.331 719.241 943.379 719.412 943.387C724.256 943.599 742.075 931.324 747.363 928.421C754.079 924.734 761.338 921.813 768.266 918.525C783.176 911.448 801.94 901.484 813.366 889.648C817.867 884.986 820.041 878.151 821.386 871.985C821.651 870.769 821.802 868.446 822.328 867.429C822.555 866.989 823.074 866.778 823.447 866.453C823.754 866.875 824.106 867.129 824.509 867.454C825.946 867.727 826.808 867.945 828.196 867.284C828.451 866.456 828.588 866.617 828.219 865.923C827.313 864.214 824.762 863.444 823.079 862.742L822.375 862.331C821.253 860.323 821.253 858.369 821.577 856.158C826.673 858.651 830.274 862.107 834.059 866.234C850.551 863.891 867.048 862.674 883.665 861.637C865.336 853.736 840.973 854.595 821.229 855.514L820.72 855.078C820.263 853.653 820.249 853.345 820.534 851.875L821.435 851.445C853.149 843.197 868.907 842.902 899.717 854.005C909.512 857.535 919.485 861.163 929.886 862.349C942.602 863.8 954.668 861.078 967.133 859.096C973.765 858.041 980.54 857.258 987.07 855.704C978.436 849.067 968.85 843.032 959.388 837.646C952.225 833.568 928.015 823.268 924.076 818.814L924.685 817.957C926.515 817.229 928.239 816.694 930.21 816.511C948.872 814.777 982.998 826.483 999.158 836.999C1006.21 841.587 1012.09 847.85 1018.68 853.089Z"/>
	<path fill="#B8F2E6" d="M41.1045 860.427C61.7432 855.706 82.911 853.705 104.069 854.477C108.695 854.466 113.517 854.178 118.1 854.842L114.716 876.226L114.476 877.068C98.1868 881.946 92.1175 882.609 81.1091 896.712C77.8852 884.122 79.9418 870.755 77.7001 858.921C74.906 867.514 72.3813 876.318 70.3991 885.135C68.8764 891.909 67.7909 898.774 66.0353 905.494C58.7914 890.233 50.3765 874.527 41.1045 860.427Z"/>
	<path fill="#FAF3DD" d="M821.229 855.514C840.973 854.595 865.336 853.736 883.665 861.637C867.048 862.674 850.551 863.891 834.059 866.234C830.274 862.107 826.673 858.651 821.577 856.158L821.229 855.514Z"/>
	<defs>
		<linearGradient id="gradient_6" gradientUnits="userSpaceOnUse" x1="913.70117" y1="926.08929" x2="923.13226" y2="843.97278">
			<stop offset="0" stop-color="#BE6502"/>
			<stop offset="1" stop-color="#A35008"/>
		</linearGradient>
	</defs>
	<path fill="url(#gradient_6)" d="M996.915 860.395C1006.29 859.816 1015.07 857.649 1024 854.888L1024 906.491C1011.72 906.504 990.602 904.23 980.891 896.256C979.291 894.941 978.688 893.748 978.544 891.712C979.851 887.492 985.529 883.747 988.677 880.644C983.333 878.938 978.025 877.841 972.441 877.322C954.379 875.645 910.248 877.391 893.058 881.128C902.954 881.883 934.168 886.174 942.249 889.878C944.386 890.857 946.929 892.347 947.691 894.728C948.979 898.756 946.12 903.188 944.395 906.656L944.093 907.131C928.37 905.936 912.506 903.066 896.913 900.645L843.823 892.786C840.019 892.031 832.093 891.157 828.652 892.844C828.301 893.608 828.065 893.675 828.354 894.528C829.599 898.209 835.103 901.22 837.097 904.946C839.328 908.396 841.539 911.857 843.729 915.332L830.767 915.012C827.43 915.27 824.587 915.924 821.57 917.383C820.266 915.946 819.65 914.091 818.026 912.873C815.215 910.764 811.099 911.933 807.901 912.351C808.612 909.861 810.41 907.56 811.766 905.369C816.346 897.97 821.809 890.73 823.847 882.178C833.837 882.206 843.885 880.253 853.767 878.949C863.517 877.735 873.292 876.741 883.086 875.967C908.618 873.785 934.134 874.051 959.665 872.349C977.896 871.134 995.969 867.949 1014.15 866.744C1008.28 865.341 1002.08 863.598 996.915 860.395Z"/>
	<path fill="#FAF3DD" d="M750.374 855.399C765.852 857.824 780.692 860.911 795.577 865.816C796.571 867.283 796.282 870.9 795.929 872.68C795.771 873.479 795.925 873.206 795.512 873.671C791.091 874.727 786.696 875.513 782.205 876.199C770.625 871.33 759.176 864.433 750.374 855.399Z"/>
	<path fill="#CB7903" d="M36.9751 854.872C38.4661 856.633 39.7657 858.549 41.1045 860.427C50.3765 874.527 58.7914 890.233 66.0353 905.494C67.7909 898.774 68.8764 891.909 70.3991 885.135C72.3813 876.318 74.906 867.514 77.7001 858.921C79.9418 870.755 77.8852 884.122 81.1091 896.712C82.58 902.32 85.129 907.153 88.435 911.903C93.2876 918.088 99.1708 925.903 106.062 929.917C106.32 930.002 106.585 930.064 106.852 930.114C112.716 931.229 126.863 922.118 132.08 918.897C140.262 914.291 149.07 909.569 157.745 906.007C166.322 902.485 176.146 900.11 185.017 903.866C185.863 904.224 186.64 904.595 187.55 904.76C187.762 904.799 187.976 904.828 188.189 904.862C190.119 904.885 192.08 904.962 193.995 905.22C200.255 906.066 208.846 908.908 212.657 914.19C214.323 916.499 214.062 918.192 213.613 920.863C226.576 921.477 240.975 924.747 252.922 929.737C243.339 917.661 232.037 909.684 219.483 901.124C227.633 903.584 235.855 906.48 243.691 909.82C251.36 913.089 258.874 916.827 266.723 919.657C281.562 925.007 297.319 927.751 312.829 930.288C309.356 914.693 298.023 905.024 285.721 895.981C309.798 905.3 332.427 914.47 355.652 925.934C355.738 917.243 355.685 908.417 354.931 899.756C354.231 891.719 352.854 883.506 352.632 875.473L352.864 875.547C356.28 882.783 363.28 889.952 367.727 896.901C374.1 906.859 378.188 917.73 382.677 928.589C392.817 927.213 400.903 919.698 409.623 914.845C413.258 912.822 417.048 911.468 420.977 910.13C415.65 905.467 394.224 890.211 392.829 885.153C393.604 884.321 393.199 884.546 393.901 884.269C397.069 883.974 400.255 884.379 403.417 884.636C387.516 872.955 367.523 868.271 351.82 855.927C365.929 856.838 377.205 859.646 389.104 867.513C394.663 872.198 400.638 878.292 406.962 881.789C410.674 883.842 414.893 885.262 418.803 886.907C426.098 889.964 432.83 894.219 438.721 899.496C446.905 906.941 451.25 916.625 458.365 924.743C453.649 928.72 443.051 928.635 437.01 929.534C438.58 931.988 439.713 934.179 440.673 936.951C425.046 943.635 417.856 932.062 401.442 933.811C389.365 935.097 382.202 941.483 372.039 943.547C366.882 944.594 360.99 944.167 355.728 944.249C344.858 944.42 333.953 944.344 323.135 945.549C309.078 947.116 296.014 952.847 281.945 953.924C277.122 954.293 272.015 953.271 267.26 952.523C263.359 951.647 259.653 950.426 255.884 949.111C239.302 945.643 222.398 943.955 205.457 944.077C185.722 944.317 167.257 948.946 147.989 942.089C144.298 944.587 141.039 947.673 137.263 950.09C125.681 957.505 111.145 958.644 97.704 959.004C93.1989 959.125 88.7637 956.417 84.4711 956.847C79.0314 957.392 73.4248 959.795 68.1187 961.164C59.4023 963.413 44.5371 964.737 35.5858 963.959C22.5395 962.825 20.6006 956.665 11.7552 949.047C8.0996 945.899 3.64286 943.415 0.540469 939.685C3.29478 940.214 6.08752 940.714 8.73059 941.673C13.7445 943.491 19.2126 947.021 24.5559 947.329C29.4979 947.613 34.4488 945.821 39.3772 945.546C49.336 945.732 59.3577 947.069 69.257 948.106C62.6469 939.996 57.645 932.2 54.53 922.163C53.4952 919.049 52.7595 915.755 51.8918 912.585C49.7186 903.933 48.1784 895.125 46.0558 886.456C44.023 878.154 41.3591 870.052 38.7238 861.926C37.8697 859.69 37.4857 857.209 36.9751 854.872Z"/>
	<path fill="#FAF3DD" d="M691.816 869.933C678.865 869.714 661.998 865.277 652.182 856.486C661.544 856.051 673.392 859.107 682.784 860.712C686.054 863.527 689.187 866.502 691.816 869.933Z"/>
	<path fill="#B8F2E6" d="M0 871.802C8.00197 869.622 32.53 861.271 38.7238 861.926C41.3591 870.052 44.023 878.154 46.0558 886.456C48.1784 895.125 49.7186 903.933 51.8918 912.585C34.7976 918.847 18.0046 922.846 0 925.375L0 871.802Z"/>
	<path fill="#FAF3DD" d="M729.966 871.85C726.975 868.408 723.847 865.172 720.628 861.948C725.797 863.024 736.451 868.397 739.649 872.811C736.454 872.35 733.183 872.152 729.966 871.85Z"/>
	<path fill="#FAF3DD" d="M823.079 862.742C824.762 863.444 827.313 864.214 828.219 865.923C828.588 866.617 828.451 866.456 828.196 867.284C826.808 867.945 825.946 867.727 824.509 867.454C824.106 867.129 823.754 866.875 823.447 866.453C823.456 865.205 823.241 863.978 823.079 862.742Z"/>
	<path fill="#E0BA5A" d="M114.716 876.226C122.184 875.745 129.663 875.459 137.145 875.367C133.681 891.347 131.917 902.37 132.08 918.897C126.863 922.118 112.716 931.229 106.852 930.114C106.585 930.064 106.32 930.002 106.062 929.917C107.332 926.685 107.325 921.777 107.743 918.256C108.708 910.134 109.516 901.925 111.073 893.891C112.229 888.269 113.492 882.728 114.476 877.068L114.716 876.226Z"/>
	<path fill="#FAF3DD" d="M352.864 875.547C362.492 876.917 372.461 879.108 381.939 881.304C385.692 882.174 390.141 883.85 393.901 884.269C393.199 884.546 393.604 884.321 392.829 885.153C394.224 890.211 415.65 905.467 420.977 910.13C417.048 911.468 413.258 912.822 409.623 914.845C400.903 919.698 392.817 927.213 382.677 928.589C378.188 917.73 374.1 906.859 367.727 896.901C363.28 889.952 356.28 882.783 352.864 875.547Z"/>
	<path fill="#974C00" d="M944.395 906.656C946.12 903.188 948.979 898.756 947.691 894.728C946.929 892.347 944.386 890.857 942.249 889.878C934.168 886.174 902.954 881.883 893.058 881.128C910.248 877.391 954.379 875.645 972.441 877.322C978.025 877.841 983.333 878.938 988.677 880.644C985.529 883.747 979.851 887.492 978.544 891.712C978.688 893.748 979.291 894.941 980.891 896.256C990.602 904.23 1011.72 906.504 1024 906.491L1024 926.551C1012.41 930.566 997.585 934.011 989.246 943.572C995.373 955.411 1005.7 954.863 1008.51 971.601C989.224 977.127 965.173 978.179 954.447 997.834C952.637 1001.15 951.133 1004.66 949.584 1008.11C950.793 1011.37 952.106 1014.52 953.582 1017.67C952.885 1019.78 952.27 1021.97 951.379 1024L905.13 1024C898.9 1009.17 887.136 989.846 875.996 978.498C870.616 973.018 864.332 968.247 858.268 963.554C860.62 970.75 863.885 977.622 866.946 984.533C873.151 998.539 878.792 1010.56 886.289 1024L869.715 1024C862.572 1007.98 858.684 991.013 852.812 974.54C850.412 967.805 846.32 961.707 843.957 954.966C839.884 943.346 836.935 928.758 830.56 918.27L831.103 916.065C833.523 919.638 835.212 923.839 837.046 927.741C842.839 940.062 847.718 952.331 857.301 962.307C857.087 954.205 854.526 947.256 853.197 939.394C856.46 941.506 859.828 943.584 862.786 946.116C875.838 957.288 889.773 977.145 900.112 991.187C904.169 996.696 907.533 1003.33 913.217 1007.36C918.201 1010.89 935.834 1012.86 941.826 1011.71C944.109 1011.27 946.315 1010.31 947.578 1008.26C949.021 1005.91 949.114 1003.17 948.38 1000.58C946.957 995.553 941.595 989.116 944.129 983.865C948.676 974.443 973.444 973.868 968.904 958.253C967.798 954.449 965.266 950.917 962.474 948.171C959.9 947.813 957.301 947.357 954.708 947.185C955.782 946.929 956.729 946.64 957.83 946.926C958.595 947.125 959.326 947.348 960.106 947.514L960.881 946.877C959.092 942.361 948.075 935.553 943.528 933.149C940.85 934.022 938.263 934.948 935.449 935.26C938.105 934.175 940.788 933.157 943.495 932.209C957.743 927.02 972.572 927.374 987.494 926.627C992.568 926.372 998.198 926.462 1003.03 924.73C1005.22 923.946 1006.93 923.016 1007.97 920.865C1007.91 919.401 1007.81 918.666 1006.84 917.515C1004.68 914.946 1000.96 912.731 997.786 911.731C986.44 908.159 957.938 907.849 944.395 906.656Z"/>
	<path fill="#FAF3DD" d="M81.1091 896.712C92.1175 882.609 98.1868 881.946 114.476 877.068C113.492 882.728 112.229 888.269 111.073 893.891C105.894 897.24 92.479 907.38 88.435 911.903C85.129 907.153 82.58 902.32 81.1091 896.712Z"/>
	<path fill="#FAF3DD" d="M577.616 883.921L582.073 879.841C582.148 879.869 582.227 879.89 582.298 879.927C584.096 880.873 588.374 883.262 589.11 885.092L587.895 884.957C584.44 884.061 581.158 883.958 577.616 883.921Z"/>
	<path fill="#FAF3DD" d="M684.784 888.732C681.796 886.341 679.391 883.388 677.172 880.292C681.435 881.28 685.532 883.426 689.891 884.475C692.899 885.198 699.826 884.952 702.028 886.522L701.37 887.166C695.895 888.413 690.382 888.696 684.784 888.732Z"/>
	<path fill="#FAF3DD" d="M560.18 895.295C565.96 891.96 571.485 888.464 576.921 884.596C582.53 886.516 588.47 888.268 593.706 891.076C587.594 891.968 581.561 893.313 575.378 893.633C570.293 894 565.224 894.554 560.18 895.295Z"/>
	<path fill="#FAF3DD" d="M506.342 907.459L504.873 907.626L505.052 906.84C516.333 897.281 538.748 890.187 553.531 888.164C554.473 888.004 554.531 888.031 555.509 888.386C553.872 890.675 549.114 892.3 546.591 893.462C543.296 894.979 540.255 897.29 536.928 898.612C528.616 901.915 515.32 904.78 506.342 907.459Z"/>
	<path fill="#974C00" d="M837.097 904.946C835.103 901.22 829.599 898.209 828.354 894.528C828.065 893.675 828.301 893.608 828.652 892.844C832.093 891.157 840.019 892.031 843.823 892.786C848.687 898.419 861.985 910.898 868.248 914.456C873.807 918.01 879.339 921.815 885.355 924.559C890.96 927.115 896.953 928.826 902.49 931.519C907.58 933.994 912.742 938.148 918.255 939.48C919.891 939.875 921.855 939.592 923.475 939.242C927.571 938.357 931.403 936.062 935.449 935.26C938.263 934.948 940.85 934.022 943.528 933.149C948.075 935.553 959.092 942.361 960.881 946.877L960.106 947.514C959.326 947.348 958.595 947.125 957.83 946.926C956.729 946.64 955.782 946.929 954.708 947.185C948.36 948.011 934.925 946.739 928.037 946.324C919.192 945.792 908.523 945.683 900.048 943.243C894.308 941.591 888.852 938.257 883.745 935.21C871.051 927.635 859.043 919.226 844.436 915.733C843.839 912.507 839.581 907.012 837.097 904.946Z"/>
	<path fill="#974C00" d="M843.823 892.786L896.913 900.645C912.506 903.066 928.37 905.936 944.093 907.131C938.537 914.032 932.501 917.608 925.146 922.343C912.485 916.698 910.112 906.097 893.784 905.807C884.092 905.636 875.398 907.519 868.248 914.456C861.985 910.898 848.687 898.419 843.823 892.786Z"/>
	<path fill="#974C00" d="M750.276 906.783C750.44 908.298 750.816 910.263 750.37 911.753C750.143 912.513 749.708 913.025 749.051 913.44C744.097 916.563 698.302 905.55 689.654 903.812C672.86 900.435 656.093 897.465 639.423 893.457C645.051 893.286 651.126 894.53 656.721 895.227C677.454 897.812 698.007 901.806 718.604 905.328C719.921 903.974 721.272 902.217 723.07 901.543C722.822 903.018 721.394 903.418 720.422 904.494C724.747 908.22 744.571 905.224 750.276 906.783Z"/>
	<path fill="#F7E2AB" d="M88.435 911.903C92.479 907.38 105.894 897.24 111.073 893.891C109.516 901.925 108.708 910.134 107.743 918.256C107.325 921.777 107.332 926.685 106.062 929.917C99.1708 925.903 93.2876 918.088 88.435 911.903Z"/>
	<path fill="#BC6102" d="M837.097 904.946C839.581 907.012 843.839 912.507 844.436 915.733C847.856 923.681 851.351 930.856 853.197 939.394C854.526 947.256 857.087 954.205 857.301 962.307C847.718 952.331 842.839 940.062 837.046 927.741C835.212 923.839 833.523 919.638 831.103 916.065L830.767 915.012L843.729 915.332C841.539 911.857 839.328 908.396 837.097 904.946Z"/>
	<path fill="#642E01" d="M868.248 914.456C875.398 907.519 884.092 905.636 893.784 905.807C910.112 906.097 912.485 916.698 925.146 922.343C930.464 925.789 939.434 927.563 943.495 932.209C940.788 933.157 938.105 934.175 935.449 935.26C931.403 936.062 927.571 938.357 923.475 939.242C921.855 939.592 919.891 939.875 918.255 939.48C912.742 938.148 907.58 933.994 902.49 931.519C896.953 928.826 890.96 927.115 885.355 924.559C879.339 921.815 873.807 918.01 868.248 914.456Z"/>
	<path fill="#642E01" d="M944.395 906.656C957.938 907.849 986.44 908.159 997.786 911.731C1000.96 912.731 1004.68 914.946 1006.84 917.515C1007.81 918.666 1007.91 919.401 1007.97 920.865C1006.93 923.016 1005.22 923.946 1003.03 924.73C998.198 926.462 992.568 926.372 987.494 926.627C972.572 927.374 957.743 927.02 943.495 932.209C939.434 927.563 930.464 925.789 925.146 922.343C932.501 917.608 938.537 914.032 944.093 907.131L944.395 906.656Z"/>
	<path fill="#974C00" d="M800.918 916.09C803.079 914.494 805.295 913.067 807.901 912.351C811.099 911.933 815.215 910.764 818.026 912.873C819.65 914.091 820.266 915.946 821.57 917.383L820.381 918.532C810.985 920.279 802.776 926.526 793.48 928.355C796.2 924.426 799.109 920.539 800.918 916.09Z"/>
	<path fill="#FAF3DD" d="M0 925.375C18.0046 922.846 34.7976 918.847 51.8918 912.585C52.7595 915.755 53.4952 919.049 54.53 922.163C52.3652 925.682 50.5867 929.368 48.3103 932.829C45.4629 937.158 42.1896 941.201 39.3772 945.546C34.4488 945.821 29.4979 947.613 24.5559 947.329C19.2126 947.021 13.7445 943.491 8.73059 941.673C6.08752 940.714 3.29478 940.214 0.540469 939.685L0 938.94L0 925.375Z"/>
	<path fill="#974C00" d="M821.57 917.383C824.587 915.924 827.43 915.27 830.767 915.012L831.103 916.065L830.56 918.27C827.703 924.768 826.6 931.905 824.094 938.532C819.865 946.304 813.454 951.061 805.854 955.333C804.084 956.329 802.005 957.761 800.052 958.309C799.904 958.35 799.75 958.37 799.599 958.401C799.57 958.162 799.534 957.923 799.512 957.683C799.312 955.568 800.346 952.803 800.857 950.742C804.18 937.328 811.698 928.763 820.381 918.532L821.57 917.383Z"/>
	<defs>
		<linearGradient id="gradient_7" gradientUnits="userSpaceOnUse" x1="956.8363" y1="998.27765" x2="864.07703" y2="899.9472">
			<stop offset="0" stop-color="#562600"/>
			<stop offset="1" stop-color="#7F3D02"/>
		</linearGradient>
	</defs>
	<path fill="url(#gradient_7)" d="M844.436 915.733C859.043 919.226 871.051 927.635 883.745 935.21C888.852 938.257 894.308 941.591 900.048 943.243C908.523 945.683 919.192 945.792 928.037 946.324C934.925 946.739 948.36 948.011 954.708 947.185C957.301 947.357 959.9 947.813 962.474 948.171C965.266 950.917 967.798 954.449 968.904 958.253C973.444 973.868 948.676 974.443 944.129 983.865C941.595 989.116 946.957 995.553 948.38 1000.58C949.114 1003.17 949.021 1005.91 947.578 1008.26C946.315 1010.31 944.109 1011.27 941.826 1011.71C935.834 1012.86 918.201 1010.89 913.217 1007.36C907.533 1003.33 904.169 996.696 900.112 991.187C889.773 977.145 875.838 957.288 862.786 946.116C859.828 943.584 856.46 941.506 853.197 939.394C851.351 930.856 847.856 923.681 844.436 915.733Z"/>
	<path fill="#BC6102" d="M757.884 938.728C763.955 934.36 776.523 929.735 783.779 926.062C789.669 923.081 795.149 919.301 800.918 916.09C799.109 920.539 796.2 924.426 793.48 928.355C791.057 930.236 787.659 932.305 786.323 935.147C780.246 937.336 749.645 950.557 747.436 954.846C747.387 954.941 747.354 955.044 747.312 955.143C746.899 955.296 746.351 955.415 746.021 955.707C739.934 960.396 734.026 965.518 729.167 971.503C728.757 973.881 728.39 976.123 728.441 978.551C726.098 979.618 724.852 982.303 723.663 984.522C722.956 994.087 722.506 1002.64 718.506 1011.51C716.615 1015.71 714.151 1019.72 712.486 1024L703.071 1024C704.931 1018.77 707.415 1013.76 709.572 1008.65C712.892 1000.78 715.788 992.549 720.356 985.292C720.131 983.058 719.939 980.821 719.779 978.582L720.24 978.106L719.833 976.86C720.985 978.638 720.893 980.316 721.826 982.094C721.973 982.374 722.127 982.65 722.278 982.928C722.965 980.246 722.732 977.396 723.27 974.672C726.023 960.725 732.679 960.458 742.876 953.597C747.893 948.738 753.062 944.083 758.129 939.29L757.884 938.728Z"/>
	<path fill="#974C00" d="M267.26 952.523C272.015 953.271 277.122 954.293 281.945 953.924C296.014 952.847 309.078 947.116 323.135 945.549C333.953 944.344 344.858 944.42 355.728 944.249C360.99 944.167 366.882 944.594 372.039 943.547C382.202 941.483 389.365 935.097 401.442 933.811C417.856 932.062 425.046 943.635 440.673 936.951C455.117 932.718 469.889 930.351 484.618 927.366C500.165 924.214 519.235 919.612 534.85 918.795C551.045 917.947 572.941 927.697 589.92 929.74C601.388 931.121 612.183 928.981 623.521 928.549C632.429 928.21 653.049 928.474 660.296 932.786C661.606 933.566 662.604 934.793 663.584 935.938C660.534 937.72 657.087 939.655 653.58 940.292L653.169 940.41C647.761 941.906 634.925 942.237 631.253 944.049C633.195 947.068 645.253 946.334 644.237 953.093C638.6 960.714 627.089 965.451 623.331 974.074C620.453 976.704 617.548 979.873 614.433 982.173C609.984 980.67 603.716 981.101 598.991 981.155C585.543 981.307 572.352 982.091 559.122 984.65C550.687 986.282 542.416 988.691 533.99 990.334C526.613 991.772 518.972 991.906 511.851 994.46C511.178 997.348 510.736 1000.14 510.657 1003.11C512.214 1003.65 514.15 1004.1 515.551 1004.95C516.987 1008.3 518.688 1014.32 522.472 1015.67C530.869 1018.68 561.897 1003.88 568.452 1008.83L569.036 1011.08C559.848 1018.75 551.288 1020.99 539.892 1024L467.578 1024C472.17 1021.03 477.901 1019.75 482.624 1016.73C487.792 1013.42 499.607 1003.51 504.653 1002.63C505.44 1002.49 505.598 1002.45 506.215 1001.93C503.82 999.679 487.684 997.849 483.871 997.826C464.221 997.712 454.278 1005.24 440.906 1018.34C415.495 1017.52 403.3 1002.89 383.059 990.358C371.059 982.803 357.87 977.328 344.048 974.163C353.104 984.132 367.795 992.53 372.402 1005.75C374.744 1012.47 371.333 1018.1 368.525 1024L0 1024L0 938.94L0.540469 939.685C3.64286 943.415 8.0996 945.899 11.7552 949.047C20.6006 956.665 22.5395 962.825 35.5858 963.959C44.5371 964.737 59.4023 963.413 68.1187 961.164C73.4248 959.795 79.0314 957.392 84.4711 956.847C88.7637 956.417 93.1989 959.125 97.704 959.004C111.145 958.644 125.681 957.505 137.263 950.09C141.039 947.673 144.298 944.587 147.989 942.089C167.257 948.946 185.722 944.317 205.457 944.077C222.398 943.955 239.302 945.643 255.884 949.111C254.835 951.498 251.452 953.099 249.224 954.486C255.124 953.553 261.285 952.703 267.26 952.523ZM542.678 937.788C543.481 936.13 544.245 934.554 544.193 932.667C544.149 931.064 543.591 929.673 542.356 928.614C539.238 925.939 532.188 927.121 528.434 927.892C517.025 930.234 506.451 936.448 495.255 939.81C475.45 945.757 452.875 949.188 432.48 952.765C428.348 953.489 423.178 954.657 420.64 958.25C420.369 959.745 420.238 960.502 421.215 961.821C422.214 963.17 423.332 964.173 425.005 964.52C432.653 966.109 441.659 965.093 449.519 965.568C459.893 966.194 470.216 967.874 480.481 969.428C483.108 970.976 485.894 972.29 488.447 973.95C498.508 980.49 512.402 991.841 525.509 987.071C526.066 986.869 526.226 986.694 526.636 986.359L526.482 985.603C522.331 983.439 517.003 983.424 512.543 981.492C505.533 978.456 499.245 973.759 492.185 970.962L491.616 970.139L492.359 969.496C494.23 969.537 496.101 969.538 497.972 969.499C505.813 969.273 513.652 968.689 521.492 968.37C531.351 967.967 564.472 968.717 570.76 961.578C572.934 959.111 572.268 955.95 571.999 952.964C589.323 947.598 607.281 944.549 625.405 943.896C618.98 941.772 611.92 941.124 605.219 940.335C592.851 938.766 580.408 937.86 567.943 937.622C559.519 937.501 551.103 937.988 542.678 937.788ZM353.827 948.129C334.819 951.852 319.385 959.921 308.44 976.289C306.416 979.316 304.603 982.561 305.354 986.288C306.213 987.43 306.441 987.854 307.893 988.234C310.038 988.796 313.365 987.486 315.29 986.564C323.686 982.297 329.529 975.526 337.389 970.791C344.139 966.724 352.251 965.171 358.734 960.786C360.681 959.47 362.834 957.65 363.663 955.371C364.138 954.065 364.07 952.685 363.418 951.441C362.682 950.033 361.262 948.614 359.695 948.185C357.803 947.666 355.754 947.975 353.827 948.129ZM219.878 953.642C212.927 954.593 208.323 957.306 203.323 962.042C207.698 963.119 212.104 964.349 216.615 964.659C220.041 965.555 225.869 965.409 228.969 963.616C229.99 963.025 230.895 962.203 231.292 961.056C231.737 959.77 231.443 958.608 230.817 957.452C229.701 955.393 227.214 954.525 225.077 954.083C223.427 953.741 221.555 953.447 219.878 953.642ZM111.384 977.215C83.6833 979.27 54.1842 993.232 35.5405 1013.99C40.8826 1010.92 46.1475 1008.02 51.7894 1005.53C61.8852 1001.91 72.1863 997.587 82.5879 994.98C97.3286 991.285 114.664 994.067 127.788 985.209C128.955 984.421 130.774 983.142 131.35 981.788C131.916 980.459 131.67 980.183 131.121 978.952C126.855 975.566 117.249 976.387 112.021 977.084C111.806 977.112 111.596 977.171 111.384 977.215ZM148.381 1000.71C136.868 1001.36 125.423 1002.15 113.964 1003.46C130.346 1005.1 146.016 1010.93 162.38 1012.33C173.949 1013.01 183.253 1011.81 194.089 1007.79C183.229 1000.78 171.235 999.975 158.615 1000.21C155.334 1000.27 151.612 1000.13 148.381 1000.71Z"/>
	<path fill="#974C00" d="M793.48 928.355C802.776 926.526 810.985 920.279 820.381 918.532C811.698 928.763 804.18 937.328 800.857 950.742C800.346 952.803 799.312 955.568 799.512 957.683C799.534 957.923 799.57 958.162 799.599 958.401L797.971 959.457L797.294 959.072C794.546 953.526 797.113 942.16 798.758 936.458C799.266 935.414 799.527 935.225 799.416 934.031C795.682 931.957 790.174 934.063 786.323 935.147C787.659 932.305 791.057 930.236 793.48 928.355Z"/>
	<path fill="#974C00" d="M824.094 938.532C826.6 931.905 827.703 924.768 830.56 918.27C836.935 928.758 839.884 943.346 843.957 954.966C846.32 961.707 850.412 967.805 852.812 974.54C858.684 991.013 862.572 1007.98 869.715 1024L860.218 1024C845.481 998.665 842.218 960.495 824.094 938.532Z"/>
	<path fill="#FAF3DD" d="M39.3772 945.546C42.1896 941.201 45.4629 937.158 48.3103 932.829C50.5867 929.368 52.3652 925.682 54.53 922.163C57.645 932.2 62.6469 939.996 69.257 948.106C59.3577 947.069 49.336 945.732 39.3772 945.546Z"/>
	<path fill="#642E01" d="M480.481 969.428C470.216 967.874 459.893 966.194 449.519 965.568C441.659 965.093 432.653 966.109 425.005 964.52C423.332 964.173 422.214 963.17 421.215 961.821C420.238 960.502 420.369 959.745 420.64 958.25C423.178 954.657 428.348 953.489 432.48 952.765C452.875 949.188 475.45 945.757 495.255 939.81C506.451 936.448 517.025 930.234 528.434 927.892C532.188 927.121 539.238 925.939 542.356 928.614C543.591 929.673 544.149 931.064 544.193 932.667C544.245 934.554 543.481 936.13 542.678 937.788C551.103 937.988 559.519 937.501 567.943 937.622C580.408 937.86 592.851 938.766 605.219 940.335C611.92 941.124 618.98 941.772 625.405 943.896C607.281 944.549 589.323 947.598 571.999 952.964C572.268 955.95 572.934 959.111 570.76 961.578C564.472 968.717 531.351 967.967 521.492 968.37C513.652 968.689 505.813 969.273 497.972 969.499C496.101 969.538 494.23 969.537 492.359 969.496C488.434 969.384 484.392 969.072 480.481 969.428Z"/>
	<path fill="#974C00" d="M989.246 943.572C997.585 934.011 1012.41 930.566 1024 926.551L1024 1024L980.541 1024C984.904 1003.59 1008.81 990.566 1008.51 971.601C1005.7 954.863 995.373 955.411 989.246 943.572Z"/>
	<path fill="#974C00" d="M709.256 945.064C707.411 945.855 705.63 946.542 703.687 947.056C698.353 944.474 688.615 944.542 682.537 943.363C683.793 941.79 685.05 940.26 686.551 938.91C696.485 929.98 711.086 929.694 723.683 930.271C718.284 934.715 713.846 939.821 709.256 945.064Z"/>
	<path fill="#642E01" d="M747.312 955.143C747.354 955.044 747.387 954.941 747.436 954.846C749.645 950.557 780.246 937.336 786.323 935.147C790.174 934.063 795.682 931.957 799.416 934.031C799.527 935.225 799.266 935.414 798.758 936.458C794.694 940.623 790.762 944.884 787.266 949.547C781.787 956.855 777.599 965.179 772.624 972.838C769.389 977.82 762.983 984.563 761.169 989.95C757.263 1001.55 762.596 1011.17 753.642 1024L737.602 1024C746.852 1001.5 750.231 979.336 747.312 955.143Z"/>
	<path fill="#974C00" d="M753.642 1024C762.596 1011.17 757.263 1001.55 761.169 989.95C762.983 984.563 769.389 977.82 772.624 972.838C777.599 965.179 781.787 956.855 787.266 949.547C790.762 944.884 794.694 940.623 798.758 936.458C797.113 942.16 794.546 953.526 797.294 959.072L797.971 959.457L799.599 958.401C802.21 963.155 804.542 968.12 807.708 972.537L807.565 972.857C789.292 981.304 778.835 981.951 768.821 1001.03C766.585 1005.29 764.183 1009.73 762.49 1014.23C761.261 1017.5 760.835 1020.55 760.611 1024L753.642 1024ZM796.631 960.874C793.863 963.521 786.321 969.427 786.28 973.344C786.272 974.1 786.611 974.249 787.067 974.785C790.09 974.959 793.224 975.371 796.208 974.763C797.63 973.448 797.691 971.706 797.767 969.827C797.843 967.96 798.165 962.675 797.05 961.252C796.934 961.104 796.771 961 796.631 960.874Z"/>
	<path fill="#974C00" d="M799.599 958.401C799.75 958.37 799.904 958.35 800.052 958.309C802.005 957.761 804.084 956.329 805.854 955.333C813.454 951.061 819.865 946.304 824.094 938.532C842.218 960.495 845.481 998.665 860.218 1024L812.686 1024C813.899 1021.03 815.008 1018.1 815.914 1015.01C817.024 1013.6 818.074 1012.05 818.905 1010.45C822.933 1002.71 819.081 993.337 816.867 985.616C814.761 981.13 811.884 975.495 807.565 972.857L807.708 972.537C804.542 968.12 802.21 963.155 799.599 958.401Z"/>
	<path fill="#974C00" d="M679.531 1024C681.381 1018.23 683.011 1012.36 685.145 1006.69C688.683 997.294 693.708 989.145 699.855 981.239C715.817 960.712 734.62 949.235 757.884 938.728L758.129 939.29C753.062 944.083 747.893 948.738 742.876 953.597C732.679 960.458 726.023 960.725 723.27 974.672C722.732 977.396 722.965 980.246 722.278 982.928C722.127 982.65 721.973 982.374 721.826 982.094C720.893 980.316 720.985 978.638 719.833 976.86L720.24 978.106L719.779 978.582C719.939 980.821 720.131 983.058 720.356 985.292C715.788 992.549 712.892 1000.78 709.572 1008.65C707.415 1013.76 704.931 1018.77 703.071 1024L679.531 1024Z"/>
	<path fill="#974C00" d="M623.331 974.074C627.089 965.451 638.6 960.714 644.237 953.093C645.253 946.334 633.195 947.068 631.253 944.049C634.925 942.237 647.761 941.906 653.169 940.41L653.58 940.292C657.062 942.861 658.958 945.659 659.652 950.013C659.949 951.868 660.328 954.409 660.116 956.258C646.533 960.141 634.761 965.796 623.331 974.074Z"/>
	<path fill="#974C00" d="M680.154 951.393C676.845 951.954 673.545 952.568 670.256 953.235C671.902 951.216 673.619 949.274 675.354 947.332C677.001 948.637 678.581 950 680.154 951.393Z"/>
	<path fill="#642E01" d="M315.29 986.564C313.365 987.486 310.038 988.796 307.893 988.234C306.441 987.854 306.213 987.43 305.354 986.288C304.603 982.561 306.416 979.316 308.44 976.289C319.385 959.921 334.819 951.852 353.827 948.129C355.754 947.975 357.803 947.666 359.695 948.185C361.262 948.614 362.682 950.033 363.418 951.441C364.07 952.685 364.138 954.065 363.663 955.371C362.834 957.65 360.681 959.47 358.734 960.786C352.251 965.171 344.139 966.724 337.389 970.791C329.529 975.526 323.686 982.297 315.29 986.564Z"/>
	<path fill="#BC6102" d="M255.884 949.111C259.653 950.426 263.359 951.647 267.26 952.523C261.285 952.703 255.124 953.553 249.224 954.486C251.452 953.099 254.835 951.498 255.884 949.111Z"/>
	<path fill="#BC6102" d="M203.323 962.042C208.323 957.306 212.927 954.593 219.878 953.642C221.555 953.447 223.427 953.741 225.077 954.083C227.214 954.525 229.701 955.393 230.817 957.452C231.443 958.608 231.737 959.77 231.292 961.056C230.895 962.203 229.99 963.025 228.969 963.616C225.869 965.409 220.041 965.555 216.615 964.659C212.104 964.349 207.698 963.119 203.323 962.042Z"/>
	<path fill="#CB7903" d="M746.021 955.707C746.351 955.415 746.899 955.296 747.312 955.143C750.231 979.336 746.852 1001.5 737.602 1024L729.215 1024C726.946 1014.92 728.363 1005.89 728.693 996.666C728.908 990.624 728.674 984.589 728.441 978.551C728.39 976.123 728.757 973.881 729.167 971.503C734.026 965.518 739.934 960.396 746.021 955.707Z"/>
	<path fill="#CB7903" d="M698.335 965.658C696.033 965.928 676.087 975.44 672.052 977.072C671.247 979.257 670.49 981.458 669.471 983.554C661.631 996.945 652.734 1009.42 646.994 1024L640.634 1024C646.86 1006.69 655.562 992.029 665.456 976.653C666.886 975.569 668.659 972.242 669.338 970.588C669.923 969.164 670.211 967.982 669.57 966.568C666.844 966.154 665.193 968.369 663.001 969.596C662.842 969.685 662.677 969.763 662.515 969.847C628.854 982.692 615.522 989.775 599.358 1024L595.918 1024C597.976 1017.46 600.193 1010.86 603.698 1004.92C607.04 999.269 611.345 994.285 615.817 989.505C631.168 973.095 649.199 966.134 671.029 962.563C676.012 961.748 681.062 961.386 686.049 960.566C695.353 959.038 704.5 956.891 713.638 954.589C709.316 957.214 704.679 960.351 700.903 963.719C700.056 964.474 699.312 965.08 698.335 965.658Z"/>
	<path fill="#BC6102" d="M787.067 974.785C786.611 974.249 786.272 974.1 786.28 973.344C786.321 969.427 793.863 963.521 796.631 960.874C796.771 961 796.934 961.104 797.05 961.252C798.165 962.675 797.843 967.96 797.767 969.827C797.691 971.706 797.63 973.448 796.208 974.763C793.224 975.371 790.09 974.959 787.067 974.785Z"/>
	<path fill="#974C00" d="M886.289 1024C878.792 1010.56 873.151 998.539 866.946 984.533C863.885 977.622 860.62 970.75 858.268 963.554C864.332 968.247 870.616 973.018 875.996 978.498C887.136 989.846 898.9 1009.17 905.13 1024L886.289 1024Z"/>
	<path fill="#974C00" d="M698.335 965.658C694.905 968.522 692.264 971.874 689.279 975.166C683.725 976.027 675.571 981.586 669.471 983.554C670.49 981.458 671.247 979.257 672.052 977.072C676.087 975.44 696.033 965.928 698.335 965.658Z"/>
	<path fill="#CE8106" d="M662.515 969.847C662.677 969.763 662.842 969.685 663.001 969.596C665.193 968.369 666.844 966.154 669.57 966.568C670.211 967.982 669.923 969.164 669.338 970.588C668.659 972.242 666.886 975.569 665.456 976.653C662.018 975.025 659.987 975.869 656.503 976.797C658.437 974.431 660.513 972.156 662.515 969.847Z"/>
	<path fill="#974C00" d="M480.481 969.428C484.392 969.072 488.434 969.384 492.359 969.496L491.616 970.139L492.185 970.962C499.245 973.759 505.533 978.456 512.543 981.492C517.003 983.424 522.331 983.439 526.482 985.603L526.636 986.359C526.226 986.694 526.066 986.869 525.509 987.071C512.402 991.841 498.508 980.49 488.447 973.95C485.894 972.29 483.108 970.976 480.481 969.428Z"/>
	<path fill="#642E01" d="M599.358 1024C615.522 989.775 628.854 982.692 662.515 969.847C660.513 972.156 658.437 974.431 656.503 976.797C644.697 990.6 634.93 1006.48 629.756 1024L599.358 1024Z"/>
	<path fill="#642E01" d="M949.584 1008.11C951.133 1004.66 952.637 1001.15 954.447 997.834C965.173 978.179 989.224 977.127 1008.51 971.601C1008.81 990.566 984.904 1003.59 980.541 1024L951.379 1024C952.27 1021.97 952.885 1019.78 953.582 1017.67C952.106 1014.52 950.793 1011.37 949.584 1008.11Z"/>
	<path fill="#642E01" d="M760.611 1024C760.835 1020.55 761.261 1017.5 762.49 1014.23C764.183 1009.73 766.585 1005.29 768.821 1001.03C778.835 981.951 789.292 981.304 807.565 972.857C811.884 975.495 814.761 981.13 816.867 985.616C819.081 993.337 822.933 1002.71 818.905 1010.45C818.074 1012.05 817.024 1013.6 815.914 1015.01C809.834 1018.49 803.02 1020.52 797.029 1024L760.611 1024Z"/>
	<path fill="#974C00" d="M368.525 1024C371.333 1018.1 374.744 1012.47 372.402 1005.75C367.795 992.53 353.104 984.132 344.048 974.163C357.87 977.328 371.059 982.803 383.059 990.358C403.3 1002.89 415.495 1017.52 440.906 1018.34C454.278 1005.24 464.221 997.712 483.871 997.826C487.684 997.849 503.82 999.679 506.215 1001.93C505.598 1002.45 505.44 1002.49 504.653 1002.63C499.607 1003.51 487.792 1013.42 482.624 1016.73C477.901 1019.75 472.17 1021.03 467.578 1024L368.525 1024Z"/>
	<path fill="#642E01" d="M669.471 983.554C675.571 981.586 683.725 976.027 689.279 975.166C678.823 989.174 673.792 1006.88 671.174 1024L646.994 1024C652.734 1009.42 661.631 996.945 669.471 983.554Z"/>
	<path fill="#E0BA5A" d="M629.756 1024C634.93 1006.48 644.697 990.6 656.503 976.797C659.987 975.869 662.018 975.025 665.456 976.653C655.562 992.029 646.86 1006.69 640.634 1024L629.756 1024Z"/>
	<path fill="#BC6102" d="M35.5405 1013.99C54.1842 993.232 83.6833 979.27 111.384 977.215C111.596 977.171 111.806 977.112 112.021 977.084C117.249 976.387 126.855 975.566 131.121 978.952C131.67 980.183 131.916 980.459 131.35 981.788C130.774 983.142 128.955 984.421 127.788 985.209C114.664 994.067 97.3286 991.285 82.5879 994.98C72.1863 997.587 61.8852 1001.91 51.7894 1005.53C46.1475 1008.02 40.8826 1010.92 35.5405 1013.99Z"/>
	<path fill="#974C00" d="M723.663 984.522C724.852 982.303 726.098 979.618 728.441 978.551C728.674 984.589 728.908 990.624 728.693 996.666C728.363 1005.89 726.946 1014.92 729.215 1024L712.486 1024C714.151 1019.72 716.615 1015.71 718.506 1011.51C722.506 1002.64 722.956 994.087 723.663 984.522Z"/>
	<path fill="#642E01" d="M511.851 994.46C518.972 991.906 526.613 991.772 533.99 990.334C542.416 988.691 550.687 986.282 559.122 984.65C572.352 982.091 585.543 981.307 598.991 981.155C603.716 981.101 609.984 980.67 614.433 982.173C602.203 993.733 595.101 1007.68 591.422 1024L539.892 1024C551.288 1020.99 559.848 1018.75 569.036 1011.08C572.383 1009.02 575.236 1005.83 578.373 1003.42C581.538 1000.99 585.463 998.956 588.285 996.153C589.106 995.338 589.258 995.285 589.281 994.09C585.758 993.537 580.032 995.115 576.419 995.776C556.797 999.371 536.257 1006.37 516.178 1004.99L515.551 1004.95C514.15 1004.1 512.214 1003.65 510.657 1003.11C510.736 1000.14 511.178 997.348 511.851 994.46Z"/>
	<path fill="#974C00" d="M515.551 1004.95L516.178 1004.99C536.257 1006.37 556.797 999.371 576.419 995.776C580.032 995.115 585.758 993.537 589.281 994.09C589.258 995.285 589.106 995.338 588.285 996.153C585.463 998.956 581.538 1000.99 578.373 1003.42C575.236 1005.83 572.383 1009.02 569.036 1011.08L568.452 1008.83C561.897 1003.88 530.869 1018.68 522.472 1015.67C518.688 1014.32 516.987 1008.3 515.551 1004.95Z"/>
	<path fill="#974C00" d="M113.964 1003.46C125.423 1002.15 136.868 1001.36 148.381 1000.71C151.612 1000.13 155.334 1000.27 158.615 1000.21C171.235 999.975 183.229 1000.78 194.089 1007.79C183.253 1011.81 173.949 1013.01 162.38 1012.33C146.016 1010.93 130.346 1005.1 113.964 1003.46Z"/>
	<path fill="#974C00" d="M797.029 1024C803.02 1020.52 809.834 1018.49 815.914 1015.01C815.008 1018.1 813.899 1021.03 812.686 1024L797.029 1024Z"/>
</svg>
